<svg xmlns="http://www.w3.org/2000/svg" xmlns:xlink="http://www.w3.org/1999/xlink" width="177.118" height="182.28" viewBox="0 0 177.118 182.28">
  <defs>
    <linearGradient id="linear-gradient" x1="13.21" y1="17.968" x2="13.21" y2="16.969" gradientUnits="objectBoundingBox">
      <stop offset="0" stop-color="#fff"/>
      <stop offset="1"/>
    </linearGradient>
    <linearGradient id="linear-gradient-2" x1="3.716" y1="3.003" x2="3.716" y2="2.003" gradientUnits="objectBoundingBox">
      <stop offset="0" stop-color="gray" stop-opacity="0.251"/>
      <stop offset="0.535" stop-color="gray" stop-opacity="0.122"/>
      <stop offset="1" stop-color="gray" stop-opacity="0.102"/>
    </linearGradient>
    <linearGradient id="linear-gradient-3" x1="1.976" y1="1.899" x2="1.976" y2="0.882" xlink:href="#linear-gradient-2"/>
  </defs>
  <g id="组_158" data-name="组 158" transform="translate(0 0)">
    <path id="路径_1902" data-name="路径 1902" d="M760.546,252.042a25.008,25.008,0,0,0,9.407-1.3c6.064-1.766,12.356-4.572,15.5-10.05a28.988,28.988,0,0,0,2.441-6.456c1.3-4.473,2.6-9,2.807-13.649a29.584,29.584,0,0,0-3.219-14.766,3.182,3.182,0,0,0-1.634-1.524,1.932,1.932,0,0,0-2.459.871c-3.279,4.2-2.939,10.053-3.213,15.376a55.468,55.468,0,0,1-3.1,15.641c-.757,2.137-1.754,4.361-3.676,5.564a11.2,11.2,0,0,1-3.943,1.263c-2.041.383-4.269.741-6.1-.241-1.874-1.005-3.113-3.611-5.275-4.044-2.139-.429-5.058,1.812-6.013,3.7C749.48,247.544,756.3,251.616,760.546,252.042Z" transform="translate(-629.488 -167.277)" fill="#ffd180"/>
    <g id="组_153" data-name="组 153" transform="translate(122.009 36.856)" opacity="0.1">
      <path id="路径_1903" data-name="路径 1903" d="M821.668,241.752a11.2,11.2,0,0,1-3.943,1.263,13.782,13.782,0,0,1-4.278.317c1.744.727,3.786.409,5.672.054a11.2,11.2,0,0,0,3.943-1.263c1.922-1.2,2.919-3.427,3.676-5.564a55.461,55.461,0,0,0,3.1-15.641c.274-5.323-.066-11.173,3.213-15.376a2.262,2.262,0,0,1,1.5-1.02,2.846,2.846,0,0,0-.431-.222,1.932,1.932,0,0,0-2.459.871c-3.279,4.2-2.939,10.053-3.213,15.376a55.464,55.464,0,0,1-3.1,15.641C824.587,238.325,823.59,240.549,821.668,241.752Z" transform="translate(-799.769 -204.134)"/>
      <path id="路径_1904" data-name="路径 1904" d="M753.46,364.711c.883-1.745,3.442-3.787,5.514-3.749a3.424,3.424,0,0,0-.9-.323c-2.139-.429-5.058,1.812-6.013,3.7-2.412,4.77,3.361,8.632,7.592,9.476C755.683,372.508,751.3,368.972,753.46,364.711Z" transform="translate(-751.496 -326.043)"/>
    </g>
    <rect id="矩形_238" data-name="矩形 238" width="41.115" height="11.902" transform="translate(104.356 38.034) rotate(26.478)" opacity="0.1"/>
    <rect id="矩形_239" data-name="矩形 239" width="41.115" height="10.82" transform="translate(104.356 38.033) rotate(26.478)" fill="#59c3e1"/>
    <circle id="椭圆_46" data-name="椭圆 46" cx="6.492" cy="6.492" r="6.492" transform="translate(121.421 37.635)" fill="#59c3e1"/>
    <path id="路径_1905" data-name="路径 1905" d="M576.924,47.479s11.24,3.047,15.332,7.637c0,0,6.63-5.628,9.7-4.1s-1.512,13.28-1.512,13.28l-4.058,18.391s2.11,44.427-26.475,53.153-49.068-26.993-42.449-40.28,26.5-37.832,26.5-37.832,17.334-19.433,20.4-20.459S576.924,47.479,576.924,47.479Z" transform="translate(-453.942 -37.203)" fill="#ffd180"/>
    <g id="组_154" data-name="组 154" transform="translate(76.656 0)" opacity="0.1">
      <path id="路径_1906" data-name="路径 1906" d="M833.336,265.878a90.327,90.327,0,0,0,2.364-22.665l-.641,2.9A90.288,90.288,0,0,1,833.336,265.878Z" transform="translate(-769.914 -197.729)" fill="#fff"/>
      <path id="路径_1907" data-name="路径 1907" d="M546.147,93.719C552.766,80.431,568.8,60.633,568.8,60.633S586.136,41.2,589.2,40.174s2.569,10.21,2.569,10.21,11.24,3.047,15.332,7.637c0,0,6.631-5.628,9.7-4.1,1.19.593,1.227,2.727.828,5.116.887-3.342,1.479-7.19-.188-8.02-3.066-1.527-9.7,4.1-9.7,4.1-4.093-4.59-15.333-7.637-15.333-7.637s.494-11.236-2.569-10.21-20.4,20.459-20.4,20.459-16.036,19.8-22.655,33.086C546.19,92.015,545.957,94.1,546.147,93.719Z" transform="translate(-546.082 -37.204)" fill="#fff"/>
    </g>
    <circle id="椭圆_47" data-name="椭圆 47" cx="2.284" cy="2.284" r="2.284" transform="translate(131.72 35.808)" fill="#58555d"/>
    <circle id="椭圆_48" data-name="椭圆 48" cx="2.284" cy="2.284" r="2.284" transform="translate(108.21 24.098)" fill="#58555d"/>
    <ellipse id="椭圆_49" data-name="椭圆 49" cx="2.284" cy="3.426" rx="2.284" ry="3.426" transform="translate(117.657 35.052) rotate(-63.522)" fill="#58555d"/>
    <rect id="矩形_240" data-name="矩形 240" width="1.142" height="10.528" transform="translate(140 41.7) rotate(-76.039)" fill="#ffd180"/>
    <rect id="矩形_241" data-name="矩形 241" width="1.142" height="11.646" transform="translate(137.951 45.783) rotate(-74.788)" fill="#ffd180"/>
    <rect id="矩形_242" data-name="矩形 242" width="1.141" height="12.299" transform="matrix(0.746, -0.665, 0.665, 0.746, 95.237, 12.995)" fill="#ffd180"/>
    <rect id="矩形_243" data-name="矩形 243" width="1.142" height="15.02" transform="translate(89.722 16.666) rotate(-54.776)" fill="#ffd180"/>
    <path id="路径_1908" data-name="路径 1908" d="M610.177,301.308s-.591,19-10.579,15.665,1.374-15.471,1.374-15.471,1.176-4.7-.978-6.071" transform="translate(-507.926 -238.417)" opacity="0.1"/>
    <path id="路径_1909" data-name="路径 1909" d="M666.433,339.728s-15.805,10.556-7.693,17.266,12.4-9.354,12.4-9.354,3.365-3.485,5.669-2.383" transform="translate(-555.407 -272.934)" opacity="0.1"/>
    <path id="路径_1910" data-name="路径 1910" d="M607.363,297.467s-.591,19-10.579,15.665,1.374-15.471,1.374-15.471,1.176-4.7-.978-6.071" transform="translate(-505.732 -235.424)" fill="#ffd180"/>
    <path id="路径_1911" data-name="路径 1911" d="M670.824,338.248s-15.8,10.556-7.693,17.266,12.4-9.354,12.4-9.354,3.365-3.485,5.669-2.384" transform="translate(-558.828 -271.781)" fill="#ffd180"/>
    <rect id="矩形_244" data-name="矩形 244" width="3.369" height="0.18" transform="translate(88.148 76.031) rotate(-63.522)" fill="#58555d" opacity="0.5"/>
    <rect id="矩形_245" data-name="矩形 245" width="3.369" height="0.18" transform="translate(90.731 77.317) rotate(-63.522)" fill="#58555d" opacity="0.5"/>
    <rect id="矩形_246" data-name="矩形 246" width="4.716" height="0.18" transform="translate(89.208 76.863) rotate(-63.522)" fill="#58555d" opacity="0.5"/>
    <rect id="矩形_247" data-name="矩形 247" width="3.369" height="0.18" transform="translate(105.257 83.747) rotate(-63.522)" fill="#58555d" opacity="0.5"/>
    <rect id="矩形_248" data-name="矩形 248" width="3.369" height="0.18" transform="translate(107.839 85.033) rotate(-63.522)" fill="#58555d" opacity="0.5"/>
    <rect id="矩形_249" data-name="矩形 249" width="4.716" height="0.18" transform="translate(106.316 84.579) rotate(-63.522)" fill="#58555d" opacity="0.5"/>
    <path id="路径_1912" data-name="路径 1912" d="M640.513,181.837a52.245,52.245,0,0,1-7.646-4.66,49.277,49.277,0,0,1-11.831-12.361l1.178-1.474a54.188,54.188,0,0,0,11.9,12.288c6.728,4.927,19.574,10.852,35.975,10.164l.083,1.985A63.024,63.024,0,0,1,640.513,181.837Z" transform="translate(-527.831 -135.493)" opacity="0.1"/>
    <path id="路径_1913" data-name="路径 1913" d="M708.324,246.315l-.035-.1a1.2,1.2,0,0,0,.853-1.7l.1-.046a1.305,1.305,0,0,1-.919,1.854Z" transform="translate(-595.82 -198.701)" fill="#4d8af0"/>
    <path id="路径_1914" data-name="路径 1914" d="M708.324,246.315l-.035-.1a1.2,1.2,0,0,0,.853-1.7l.1-.046a1.305,1.305,0,0,1-.919,1.854Z" transform="translate(-595.82 -198.701)" opacity="0.1"/>
    <path id="路径_1915" data-name="路径 1915" d="M669.155,184.005c-16.4.688-29.247-5.237-35.975-10.164a54.19,54.19,0,0,1-11.9-12.288l-1.7,1.035a55.07,55.07,0,0,0,12.35,12.8,52.245,52.245,0,0,0,7.646,4.66,63.025,63.025,0,0,0,29.663,5.943Zm-29.185-3.926a.221.221,0,1,1,.3-.1A.221.221,0,0,1,639.971,180.079Z" transform="translate(-526.697 -134.098)" fill="#f55f44"/>
    <path id="路径_1916" data-name="路径 1916" d="M695.923,249.214h0a2.208,2.208,0,0,0,.992,2.961h0a2.208,2.208,0,0,0,2.961-.992h0a2.208,2.208,0,0,0-.992-2.961h0A2.208,2.208,0,0,0,695.923,249.214Zm2.469,0a.368.368,0,1,1,.494-.165A.368.368,0,0,1,698.391,249.211Z" transform="translate(-586.003 -201.451)" opacity="0.1" fill="url(#linear-gradient)"/>
    <path id="路径_1917" data-name="路径 1917" d="M696.9,250.092h0a1.987,1.987,0,0,0,.893,2.665h0a1.987,1.987,0,0,0,2.665-.893h0a1.987,1.987,0,0,0-.893-2.665h0a1.987,1.987,0,0,0-2.665.893Zm2.222,0a.331.331,0,1,1,.444-.149.331.331,0,0,1-.444.149Z" transform="translate(-586.783 -202.231)" fill="#4d8af0"/>
    <path id="路径_1918" data-name="路径 1918" d="M707.671,246.171a1.305,1.305,0,0,1,.927-1.85l.023.108a1.2,1.2,0,0,0-.845,1.707Z" transform="translate(-595.237 -198.592)" fill="#4d8af0"/>
    <path id="路径_1919" data-name="路径 1919" d="M513.488,207.363h0" transform="translate(-400.116 -161.58)" fill="#4d8af0"/>
    <path id="路径_1920" data-name="路径 1920" d="M677.479,188.834C642.3,191.29,634,168.658,634,168.658Z" transform="translate(-537.936 -139.634)" fill="#ffd180"/>
    <path id="路径_1921" data-name="路径 1921" d="M398.88,615.539h-4.61v38.974s29.754,9.639,58.67,0V615.539Z" transform="translate(-351.133 -487.849)" fill="#3f3d56"/>
    <ellipse id="椭圆_50" data-name="椭圆 50" cx="28.916" cy="4.4" rx="28.916" ry="4.4" transform="translate(43.137 123.499)" fill="#3f3d56"/>
    <ellipse id="椭圆_51" data-name="椭圆 51" cx="28.916" cy="4.4" rx="28.916" ry="4.4" transform="translate(43.137 123.499)" opacity="0.1"/>
    <path id="路径_1922" data-name="路径 1922" d="M535.085,214.112c-7.295,26.965-32.28,43.666-32.28,43.666s-13.159-27.019-5.864-53.984,32.28-43.666,32.28-43.666S542.379,187.147,535.085,214.112Z" transform="translate(-429.418 -132.988)" fill="#3f3d56"/>
    <path id="路径_1923" data-name="路径 1923" d="M369.144,214.112c7.295,26.965,32.28,43.666,32.28,43.666s13.159-27.019,5.864-53.984-32.28-43.666-32.28-43.666S361.849,187.147,369.144,214.112Z" transform="translate(-329.837 -132.988)" fill="#59c3e1"/>
    <path id="路径_1924" data-name="路径 1924" d="M248.918,303.838c20.016,19.485,22.461,49.438,22.461,49.438s-30.008-1.638-50.025-21.124-22.461-49.438-22.461-49.438S228.9,284.352,248.918,303.838Z" transform="translate(-198.893 -228.508)" fill="#3f3d56"/>
    <path id="路径_1925" data-name="路径 1925" d="M549.659,303.838c-20.017,19.485-22.461,49.438-22.461,49.438s30.008-1.638,50.025-21.124,22.461-49.438,22.461-49.438S569.676,284.352,549.659,303.838Z" transform="translate(-454.712 -228.508)" fill="#3f3d56"/>
    <circle id="椭圆_52" data-name="椭圆 52" cx="9.22" cy="9.22" r="9.22" transform="translate(63.253 17.892)" fill="#59c3e1"/>
    <g id="组_155" data-name="组 155" transform="translate(135.61 140.772)" opacity="0.5">
      <circle id="椭圆_53" data-name="椭圆 53" cx="20.754" cy="20.754" r="20.754" fill="url(#linear-gradient-2)"/>
    </g>
    <circle id="椭圆_54" data-name="椭圆 54" cx="19.429" cy="19.429" r="19.429" transform="translate(136.935 142.097)" fill="#f55f44"/>
    <g id="组_156" data-name="组 156" transform="translate(78.842 97.081)" opacity="0.5">
      <path id="路径_1926" data-name="路径 1926" d="M577.136,554.61c-2.934.259-6.16-1.2-6.793-4.106a9.039,9.039,0,0,1,.773-4.909c.614-1.74,1.144-3.244.378-4.481a4.706,4.706,0,0,0-1.565-1.368c-.79-.492-1.639-.946-2.459-1.385a26.956,26.956,0,0,1-4.186-2.585c-2.561-2.046-3.856-4.775-3.464-7.3.338-2.182,1.814-3.854,3.241-5.471,1.463-1.658,2.846-3.224,2.813-5.141-.044-2.607-2.709-4.479-5.06-6.131l-.367-.258c-2.869-2.024-5.625-5.536-3.95-8.773a7.78,7.78,0,0,1,2.5-2.557,9.271,9.271,0,0,0,1.727-1.51c1.725-2.137.845-5.3.386-6.563-.349-.959-.8-1.916-1.245-2.841a23.91,23.91,0,0,1-1.715-4.3l-.064-.25c-.942-3.67-.941-3.807.055-7.328l.124-.439,1.488.419-.125.441c-.9,3.187-.9,3.187-.045,6.523l.064.25a22.405,22.405,0,0,0,1.613,4.024c.456.958.929,1.949,1.3,2.978,1.159,3.187.927,6.126-.636,8.062a10.558,10.558,0,0,1-2.008,1.78,6.541,6.541,0,0,0-2.054,2.027c-1.3,2.518,1.567,5.459,3.468,6.8l.364.257c2.522,1.771,5.66,3.976,5.717,7.37.042,2.516-1.606,4.384-3.2,6.19-1.339,1.517-2.6,2.95-2.872,4.685-.36,2.321,1.263,4.547,2.9,5.857A25.4,25.4,0,0,0,568.2,537c.842.451,1.713.917,2.546,1.436a6.045,6.045,0,0,1,2.062,1.867c1.155,1.867.449,3.871-.234,5.808a7.831,7.831,0,0,0-.72,4.067c.492,2.26,3.457,3.288,5.809,2.8a17.125,17.125,0,0,0,5.412-2.578c.58-.362,1.18-.736,1.784-1.084,3.3-1.894,6.284-2.356,8.64-1.339a11.405,11.405,0,0,1,2.094,1.278,11.537,11.537,0,0,0,1.606,1.024,5.554,5.554,0,0,0,7.12-2.473c.113-.236.215-.489.323-.758a4.908,4.908,0,0,1,1.62-2.423,4.958,4.958,0,0,1,2.912-.617l8.641.073-.013,1.545-8.641-.073a2.473,2.473,0,0,0-3.085,2.072c-.112.279-.229.568-.364.849a7.1,7.1,0,0,1-9.191,3.192,12.859,12.859,0,0,1-1.827-1.155,10.093,10.093,0,0,0-1.808-1.116c-2.388-1.033-5.264.115-7.256,1.26-.58.333-1.167.7-1.736,1.054a18.525,18.525,0,0,1-5.915,2.779A7.261,7.261,0,0,1,577.136,554.61Z" transform="translate(-555.987 -476.905)" fill="url(#linear-gradient-3)"/>
    </g>
    <path id="路径_1927" data-name="路径 1927" d="M578.864,551.446c-2.934.259-6.16-1.2-6.793-4.106a9.039,9.039,0,0,1,.773-4.909c.614-1.74,1.144-3.243.378-4.481a4.707,4.707,0,0,0-1.565-1.368c-.791-.492-1.639-.946-2.459-1.385a26.953,26.953,0,0,1-4.186-2.585c-2.561-2.046-3.856-4.775-3.464-7.3.338-2.182,1.814-3.854,3.241-5.471,1.463-1.658,2.846-3.224,2.813-5.141-.044-2.607-2.709-4.479-5.06-6.131l-.367-.258c-2.869-2.024-5.625-5.536-3.949-8.773a7.78,7.78,0,0,1,2.5-2.557,9.271,9.271,0,0,0,1.727-1.51c1.725-2.137.845-5.3.386-6.563-.349-.959-.8-1.916-1.245-2.841a23.915,23.915,0,0,1-1.715-4.3l-.064-.25c-.942-3.67-.941-3.807.055-7.328l.124-.439,1.487.419-.124.441c-.9,3.187-.9,3.187-.045,6.523l.064.25a22.4,22.4,0,0,0,1.614,4.024c.456.958.928,1.949,1.3,2.978,1.159,3.187.927,6.126-.636,8.062a10.558,10.558,0,0,1-2.008,1.78,6.541,6.541,0,0,0-2.054,2.027c-1.3,2.518,1.567,5.459,3.468,6.8l.365.257c2.522,1.771,5.66,3.976,5.717,7.37.042,2.516-1.606,4.384-3.2,6.19-1.339,1.517-2.6,2.95-2.872,4.685-.36,2.321,1.263,4.547,2.9,5.857a25.4,25.4,0,0,0,3.951,2.43c.842.451,1.713.917,2.546,1.436a6.044,6.044,0,0,1,2.062,1.867c1.155,1.867.449,3.871-.234,5.808a7.831,7.831,0,0,0-.72,4.067c.492,2.26,3.457,3.288,5.809,2.8a17.127,17.127,0,0,0,5.412-2.578c.58-.362,1.18-.736,1.784-1.084,3.3-1.894,6.284-2.356,8.64-1.339a11.417,11.417,0,0,1,2.094,1.278,11.522,11.522,0,0,0,1.606,1.024,5.554,5.554,0,0,0,7.12-2.473c.113-.236.215-.489.323-.758a4.907,4.907,0,0,1,1.62-2.423,4.958,4.958,0,0,1,2.912-.617l8.641.073-.013,1.545-8.641-.073a2.472,2.472,0,0,0-3.085,2.072c-.113.279-.229.568-.364.849a7.1,7.1,0,0,1-9.191,3.192,12.845,12.845,0,0,1-1.827-1.156,10.109,10.109,0,0,0-1.808-1.116c-2.388-1.033-5.264.116-7.256,1.26-.58.333-1.167.7-1.736,1.054a18.52,18.52,0,0,1-5.915,2.779A7.22,7.22,0,0,1,578.864,551.446Z" transform="translate(-478.491 -377.359)" fill="#f55f44"/>
    <path id="路径_1928" data-name="路径 1928" d="M916.675,706.708s10.832.927,12.451,16.743" transform="translate(-758.197 -558.889)" fill="none" stroke="#000" stroke-miterlimit="10" stroke-width="1" opacity="0.2"/>
    <path id="路径_1929" data-name="路径 1929" d="M836.422,723.032s-5.125-12.846,11.609-21.639" transform="translate(-695.086 -554.748)" fill="none" stroke="#000" stroke-miterlimit="10" stroke-width="1" opacity="0.2"/>
    <path id="路径_1930" data-name="路径 1930" d="M855.908,746.268s-2.362-6.662,2.806-10.887" transform="translate(-710.427 -581.232)" fill="none" stroke="#000" stroke-miterlimit="10" stroke-width="1" opacity="0.2"/>
    <path id="路径_1931" data-name="路径 1931" d="M902.4,732.565s4.49,3.15,3.067,12.141" transform="translate(-747.07 -579.037)" fill="none" stroke="#000" stroke-miterlimit="10" stroke-width="1" opacity="0.2"/>
    <path id="路径_1932" data-name="路径 1932" d="M939.98,692.1s7.388,3.337,10.216,15.278" transform="translate(-776.356 -547.507)" fill="none" stroke="#000" stroke-miterlimit="10" stroke-width="1" opacity="0.2"/>
    <path id="路径_1933" data-name="路径 1933" d="M891.17,694.156s4.282-1.708,7.355.458" transform="translate(-738.323 -548.61)" fill="none" stroke="#000" stroke-miterlimit="10" stroke-width="1" opacity="0.2"/>
    <path id="路径_1934" data-name="路径 1934" d="M877.119,804.193s4.147,4.288,18.914-1.671" transform="translate(-727.374 -633.549)" fill="none" stroke="#000" stroke-miterlimit="10" stroke-width="1" opacity="0.2"/>
    <path id="路径_1935" data-name="路径 1935" d="M835.305,704.649a17,17,0,0,0-5.51,12.9" transform="translate(-690.499 -557.285)" fill="none" stroke="#000" stroke-miterlimit="10" stroke-width="1" opacity="0.2"/>
    <path id="路径_1936" data-name="路径 1936" d="M851.264,798.256a4.347,4.347,0,0,0,1.766,4.942" transform="translate(-707.07 -630.224)" fill="none" stroke="#000" stroke-miterlimit="10" stroke-width="1" opacity="0.2"/>
    <path id="路径_1937" data-name="路径 1937" d="M954.139,810.871s-1.513,5.453-4.65,5.065" transform="translate(-783.765 -640.054)" fill="none" stroke="#000" stroke-miterlimit="10" stroke-width="1" opacity="0.2"/>
    <path id="路径_1938" data-name="路径 1938" d="M928.618,745.307a6.119,6.119,0,0,1,1.165,5.66" transform="translate(-767.503 -588.966)" fill="none" stroke="#000" stroke-miterlimit="10" stroke-width="1" opacity="0.2"/>
    <path id="路径_1939" data-name="路径 1939" d="M875.918,750.7s-1.669,3.694-.316,6.456" transform="translate(-725.78 -593.171)" fill="none" stroke="#000" stroke-miterlimit="10" stroke-width="1" opacity="0.2"/>
    <path id="路径_1940" data-name="路径 1940" d="M889.858,749.735s1.909,4.043.563,6.378" transform="translate(-737.301 -592.416)" fill="none" stroke="#000" stroke-miterlimit="10" stroke-width="1" opacity="0.2"/>
  </g>
</svg>
