<svg xmlns="http://www.w3.org/2000/svg" width="171.098" height="88.758" viewBox="0 0 171.098 88.758">
  <g id="Group_270" data-name="Group 270" transform="translate(-2356.141 -543.718)">
    <path id="Path_4210" data-name="Path 4210" d="M2433.537,618.5c-.838.967-1.718-.271-2.161-.114-1.438.51-2.107-.511-2.895-1.106-3.977-3-4.377-8.839-2.856-12.232a11.315,11.315,0,0,1-5.539-6.027,106.28,106.28,0,0,1-4.418-10.949,17.836,17.836,0,0,1,1.364-13.5c2.21-4.29,6.169-6.464,10.762-7.474a14.315,14.315,0,0,1,8.637.656,6.811,6.811,0,0,0,.143-1.665c-.357-1.984.686-3.344,1.792-4.82,4.277-5.708,10.513-8.444,16.7-11.292,5.367-2.471,10.823-4.717,16.7-5.576,4.756-.7,9.574-1.167,14.3.158a25.782,25.782,0,0,1,9.462,5.568,53.648,53.648,0,0,1,6.086,5.924,10.651,10.651,0,0,1,2.459,7.659,8.028,8.028,0,0,1-1.667,4.079,35.61,35.61,0,0,1-4.105,4c3.3.074,5.338,1.735,5.916,4.935.57,3.16-1.816,4.4-4.019,5.7,4.275,2.29,6.69,5.5,6.135,10.592-.459,4.214-3.56,5.882-7.238,6.819,3.708,5.212,1.793,9.8-2.252,13.154a4.672,4.672,0,0,0-1.968,3.881,6.268,6.268,0,0,1-.087.628,1.808,1.808,0,0,1-1.89,1.747c-1.3.07-.818-1.082-1.058-1.736q-.035-.636-.068-1.272a12.754,12.754,0,0,1-.165-1.55c.056-4.772.132-9.544.2-14.315-.275-.055-.625-.245-.814-.142a7.453,7.453,0,0,1-4.894.481l-.9-.155-4.455-2.825-2.185-2.951c-.273.828-.469,1.452-.684,2.069-.933,2.671-2.5,3.886-5.291,3.758a17.514,17.514,0,0,1-4.6-.85c-1.873-.613-3.65-1.517-5.54-2.327l-.567,1.618c-3.042,3.772-7.354,4.082-11.225,2.815-3.082-1.009-5.278-3.144-7.374-5.448l-3.731-5.357c0,.572,0,.756,0,.939-.037,3.656.065,7.321-.156,10.967-.191,3.152-2.2,4.883-5.349,5.069-.4.024-.812,0-1.409,0,.328,2.311.7,4.473.918,6.651A35.133,35.133,0,0,1,2433.537,618.5Zm61.323-7.773c3.482-2.6,4.083-5.227,2.728-7.873-2.849,1.793-2.841,1.793-2.733,4.9C2494.887,608.683,2494.86,609.616,2494.86,610.73Zm-64.058,4.987c-.4-2.767-.765-5.276-1.1-7.574h-2.215A7.169,7.169,0,0,0,2430.8,615.717Z" transform="translate(-22.253)" fill="#373737"/>
    <path id="Path_4211" data-name="Path 4211" d="M2519.246,651.323l.068,1.272c-.559-.044-1.221-.3-1.658-.1-2.474,1.179-4.872.354-7.314-.051a13.459,13.459,0,0,0-2.628.14c-3,.117-5.994.208-8.991.332-.834.035-1.668.224-2.5.2-.47-.014-.932-.318-1.315-.216l-4.973.267c-.549-2.645-1.127-5.286-1.626-7.941a3.6,3.6,0,0,1,.041-2.154c.719-1.333.211-2.073-.87-2.729l2.254-2.253a6.762,6.762,0,0,0,1.922,1.122c1.879.331,3.792.472,5.692.687.086.713.182,1.424.256,2.138a2.042,2.042,0,0,0,4.011.526,16.694,16.694,0,0,0,.07-3.587,11.975,11.975,0,0,0,1.765-.6c1.176-.611,2.309-1.3,3.46-1.964,1.886,2.054,4.659,1.67,6.977,2.539a8.476,8.476,0,0,0,.219,1.859c1.046,2.995,2.326,5.921,3.165,8.97C2517.631,651.081,2518.076,651.456,2519.246,651.323Z" transform="translate(-49.725 -35.094)" fill="#fbf1e0"/>
    <path id="Path_4212" data-name="Path 4212" d="M2380.43,662.316c-.145,1.887-.238,3.606-.417,5.316-.342,3.285-2.34,4.762-5.526,4.167a1.054,1.054,0,0,0-.778.143c-1.569,1.326-3.324,1.2-5.217.947-2.737-.363-5.5-.529-8.265-.67-2.411-.124-3.745-1.033-3.907-3.406a41.867,41.867,0,0,1,.941-14.049,4.36,4.36,0,0,1,4.518-3.373q8.125-.091,16.251-.04c2.728.017,5.456.172,8.183.276a2.393,2.393,0,0,1,2.52,1.893,34.52,34.52,0,0,0,2,4.963c.912,1.915-.05,3.787-2.13,3.823C2385.915,662.35,2383.225,662.316,2380.43,662.316Zm-10.741,7.885c2.273.128,2.6-.326,2.287-2.438-.242-1.627-.562-3.347.541-4.861,2-.462,2.5-.052,2.384,1.954-.086,1.521-.138,3.034,1.272,4.246,1.518-2.23.959-4.682.972-7.049.329-2.4.819-2.819,3.234-2.787q.632.008,1.265.007h6.162c-.531-1.488-.921-2.8-1.484-4.034a1.674,1.674,0,0,0-1.249-.769c-7.631-.157-15.266-.214-22.9-.406a2.134,2.134,0,0,0-2.481,1.8c-.143.556-.22,1.128-.328,1.693l-.187.355.011.334c-.156,3.137-.351,6.274-.449,9.413-.044,1.416.693,1.856,2.241,1.507a8.822,8.822,0,0,1-.213-1.851c.12-1.306.366-2.6.56-3.9l.932-.444c1.586.2,2.032.861,1.814,2.044a14.094,14.094,0,0,0-.106,3.771c.035.39.739.719,1.274,1.2,0-1.778-.1-3.133.035-4.464a1.38,1.38,0,0,1,1.713-1.4c1.094.2,1.165.851,1,1.857C2367.6,668.432,2368.072,669.436,2369.689,670.2Z" transform="translate(0 -40.742)" fill="#434342"/>
    <path id="Path_4213" data-name="Path 4213" d="M2590.847,671.713c-2.99,1.906-6.025.894-8.991.129a2.964,2.964,0,0,1-1.682-1.869,8.147,8.147,0,0,1,.44-5.989c.937-1.825.594-2.3-1.491-2.362-.475-.014-.951-.018-1.422-.07-1.41-.153-3.126-1.479-3.3-2.532-.245-1.457.649-3.664,2.052-4.1a32.739,32.739,0,0,1,7.469-1.7c5.391-.349,10.807-.32,16.214-.428,5.573-.111,8.6,3.159,9.576,9.117.865,5.3-2.287,8.17-5.626,10.972-1.458,1.224-3.566.954-5.461.518a3.766,3.766,0,0,0-1.746-.1C2594.146,674.05,2593.107,673.828,2590.847,671.713Zm5.25-1.448c.357-.178.875-.263,1.041-.552.649-1.135,1.286-.654,1.968-.1,1.153,1.8,2.779,1.945,4.353.376a31.745,31.745,0,0,1,2.466-2.731,4.258,4.258,0,0,0,1.2-4.174,24.393,24.393,0,0,0-.75-3.525c-.523-1.741-1.23-3.385-3.4-3.6a8.6,8.6,0,0,0-1.955-.425c-6.015.094-12.03.24-18.045.37l-5.774,1.108c.739,2.162,2.4,1.332,3.562,1.752,2.858.377,4.1,3.072,2.9,5.933a29.962,29.962,0,0,0-1.088,4.4l2.632-.129c.926,1.235,2.122,1.157,3.327.58a24.261,24.261,0,0,0,2.343-1.448l.572-.044c.557.469,1.326.831,1.63,1.429C2593.844,671,2594.859,670.917,2596.1,670.265Z" transform="translate(-82.615 -41.295)" fill="#454444"/>
    <path id="Path_4214" data-name="Path 4214" d="M2472.5,651.526c-1.679.592-2.068.528-3.55-.683l-.124,1.14a73.971,73.971,0,0,0-8.54-.311c-3.684.263-7.384-1.156-11.031.188q.311-3.976.623-7.953l.326-.322c.9-.119,2.249.1,2.635-.416,1.678-2.216,3.182-4.584,3.111-7.58a32.086,32.086,0,0,1,.347-3.607c1.82,1.458,3.375,2.578,4.784,3.858,2.77,2.517,5.747,4.478,9.7,4.288.028.9.012,1.8.09,2.688C2471.13,645.772,2470.937,648.815,2472.5,651.526Zm-10.763-11.707a11.1,11.1,0,0,0-.605-1.867,2.016,2.016,0,0,0-2.441-1.219c-1.2.3-1.182,1.327-1.09,2.126a10.406,10.406,0,0,0,.946,3.1c.373.807,2.207.7,2.593-.116A13.777,13.777,0,0,0,2461.739,639.82Z" transform="translate(-35.254 -33.416)" fill="#fcf2e1"/>
    <path id="Path_4215" data-name="Path 4215" d="M2448,639.005l-.326.323-2.6-.571c.129,2.885.254,5.7.38,8.509l-1.124.074a34.889,34.889,0,0,0,.017-3.824c-.216-2.178-.59-4.34-.918-6.651.6,0,1,.021,1.409,0,3.147-.186,5.158-1.918,5.349-5.069.222-3.645.119-7.31.156-10.967,0-.183,0-.367,0-.939l3.731,5.357a36.777,36.777,0,0,1-1.689,3.987,4.369,4.369,0,0,0-.774,3.237,3.611,3.611,0,0,1-.66,2.275C2450.053,636.215,2448.994,637.591,2448,639.005Z" transform="translate(-33.046 -28.837)" fill="#f0d1a3"/>
    <path id="Path_4216" data-name="Path 4216" d="M2485.616,655.6c-1.566-2.711-1.372-5.755-1.631-8.71-.078-.892-.062-1.792-.089-2.688l2.229-1.46c1.081.656,1.588,1.4.869,2.729a3.6,3.6,0,0,0-.041,2.154c.5,2.655,1.077,5.3,1.626,7.941C2487.61,657.318,2486.607,655.91,2485.616,655.6Z" transform="translate(-48.367 -37.489)" fill="#464544"/>
    <path id="Path_4217" data-name="Path 4217" d="M2446.457,658.763c-.125-2.812-.251-5.624-.38-8.509l2.6.571q-.311,3.976-.623,7.953Z" transform="translate(-34.049 -40.334)" fill="#fae7c8"/>
    <path id="Path_4218" data-name="Path 4218" d="M2473.589,637.352l-2.229,1.46c-3.95.19-6.927-1.77-9.7-4.288-1.409-1.28-2.964-2.4-4.784-3.858a32.019,32.019,0,0,0-.347,3.607c.072,3-1.433,5.364-3.111,7.58-.386.511-1.731.3-2.635.416.994-1.415,2.053-2.791,2.952-4.263a3.609,3.609,0,0,0,.66-2.275,4.371,4.371,0,0,1,.774-3.237,36.681,36.681,0,0,0,1.689-3.987c2.1,2.3,4.292,4.438,7.374,5.447,3.871,1.267,8.183.957,11.225-2.815a12.023,12.023,0,0,1,1.584,1.492,10.17,10.17,0,0,0,6.135,3.638l.277.638c-1.9-.216-3.813-.357-5.692-.687a6.764,6.764,0,0,1-1.921-1.122Z" transform="translate(-35.832 -32.101)" fill="#f8e5c7"/>
    <path id="Path_4219" data-name="Path 4219" d="M2498.212,635.274a10.171,10.171,0,0,1-6.135-3.638,12.022,12.022,0,0,0-1.584-1.492l.567-1.618c1.89.809,3.667,1.713,5.54,2.327a17.507,17.507,0,0,0,4.6.85c2.792.128,4.358-1.086,5.291-3.758.216-.617.412-1.241.684-2.069l2.185,2.951-1.309,3.6c-1.151.659-2.285,1.353-3.46,1.964a11.969,11.969,0,0,1-1.765.6,2.856,2.856,0,0,0-3.259-1.326C2498.552,633.86,2498.327,634.456,2498.212,635.274Z" transform="translate(-50.865 -31.104)" fill="#f6dab0"/>
    <path id="Path_4220" data-name="Path 4220" d="M2535.334,650.741c-1.17.132-1.615-.242-1.972-1.54-.84-3.049-2.119-5.975-3.166-8.97a8.432,8.432,0,0,1-.219-1.86c0-.106,0-.211,0-.318a14.163,14.163,0,0,0,1.988.1c2-.168,2.451-1.993,3.4-3.279-.07,4.771-.146,9.543-.2,14.315A12.705,12.705,0,0,0,2535.334,650.741Z" transform="translate(-65.813 -34.512)" fill="#f7ddb5"/>
    <path id="Path_4221" data-name="Path 4221" d="M2525.729,636.444c0,.106,0,.212,0,.318-2.318-.868-5.091-.484-6.977-2.539l1.309-3.6,4.454,2.825c.426.882-.3,2.281,1.2,2.68Q2525.721,636.287,2525.729,636.444Z" transform="translate(-61.563 -32.902)" fill="#fae7c8"/>
    <path id="Path_4222" data-name="Path 4222" d="M2543.541,646.76c0-1.114.027-2.047,0-2.978-.108-3.1-.116-3.1,2.733-4.9C2547.624,641.533,2547.023,644.158,2543.541,646.76Z" transform="translate(-70.934 -36.03)" fill="#f6e8d1"/>
    <path id="Path_4223" data-name="Path 4223" d="M2438.388,654.967a7.169,7.169,0,0,1-3.313-7.574h2.215C2437.624,649.692,2437.987,652.2,2438.388,654.967Z" transform="translate(-29.839 -39.251)" fill="#f0dcbd"/>
    <path id="Path_4224" data-name="Path 4224" d="M2529.788,637.949c-.006-.1-.01-.209-.012-.313l-.3-2.525a7.454,7.454,0,0,0,4.894-.481c.189-.1.539.087.814.142-.952,1.286-1.406,3.111-3.4,3.279A14.157,14.157,0,0,1,2529.788,637.949Z" transform="translate(-65.622 -34.407)" fill="#f3d09c"/>
    <path id="Path_4225" data-name="Path 4225" d="M2528.924,635.327q.152,1.262.3,2.525c-1.5-.4-.777-1.8-1.2-2.68Z" transform="translate(-65.074 -34.624)" fill="#f7ddb5"/>
    <path id="Path_4226" data-name="Path 4226" d="M2502.916,639.968c.114-.818.34-1.414,1.354-1.61a2.856,2.856,0,0,1,3.259,1.326,16.71,16.71,0,0,1-.07,3.587,2.042,2.042,0,0,1-4.011-.526c-.074-.714-.17-1.425-.256-2.138Z" transform="translate(-55.568 -35.798)" fill="#444341"/>
    <path id="Path_4227" data-name="Path 4227" d="M2361.043,659.907c0-.111-.007-.222-.011-.334l.187-.355c.108-.565.185-1.137.328-1.693a2.134,2.134,0,0,1,2.48-1.8c7.63.193,15.265.249,22.9.406a1.673,1.673,0,0,1,1.248.769c.563,1.233.953,2.546,1.484,4.034h-6.162q-.632,0-1.264-.007c-2.415-.032-2.9.39-3.234,2.787L2377.291,661c-1.872-.026-3.1,1.36-2.923,3.568-1.1,1.514-.783,3.234-.541,4.861.314,2.112-.013,2.566-2.286,2.438a6.566,6.566,0,0,0,.645-1.9,25.163,25.163,0,0,0-.286-3.744,7.682,7.682,0,0,0-.592-2.554c-.832-1.581-1.9-.569-3.047.153l-.485-2.1-2.213-.914-1.448,3.831-.931.444a28.927,28.927,0,0,0-.368-3.088C2362.6,661.036,2362.521,659.839,2361.043,659.907Z" transform="translate(-1.852 -42.406)" fill="#faf0df"/>
    <path id="Path_4228" data-name="Path 4228" d="M2365.993,667.726l1.448-3.831,2.214.914.485,2.1c1.145-.721,2.215-1.734,3.047-.153a7.689,7.689,0,0,1,.592,2.554,25.062,25.062,0,0,1,.286,3.744,6.58,6.58,0,0,1-.645,1.9c-1.617-.764-2.091-1.769-1.694-4.219.163-1.005.093-1.654-1-1.857a1.38,1.38,0,0,0-1.713,1.4c-.136,1.33-.035,2.686-.035,4.464-.535-.48-1.239-.809-1.274-1.2a14.074,14.074,0,0,1,.106-3.771C2368.025,668.587,2367.579,667.929,2365.993,667.726Z" transform="translate(-3.73 -45.498)" fill="#f6e4c7"/>
    <path id="Path_4229" data-name="Path 4229" d="M2382.482,667.776c-.181-2.208,1.052-3.594,2.923-3.568l1.705,2.719c-.013,2.366.545,4.818-.972,7.049-1.41-1.211-1.358-2.724-1.272-4.245C2384.979,667.724,2384.479,667.314,2382.482,667.776Z" transform="translate(-9.966 -45.616)" fill="#f5e4c8"/>
    <path id="Path_4230" data-name="Path 4230" d="M2360.775,662.452c1.478-.068,1.559,1.129,1.771,2.082a28.988,28.988,0,0,1,.369,3.088c-.2,1.3-.441,2.592-.561,3.9a8.806,8.806,0,0,0,.213,1.851c-1.549.349-2.285-.092-2.241-1.507C2360.424,668.726,2360.619,665.59,2360.775,662.452Z" transform="translate(-1.584 -44.951)" fill="#f5dcb4"/>
    <path id="Path_4231" data-name="Path 4231" d="M2595.348,669.736l-.572.044c.221-.521.657-1.053.627-1.558-.138-2.351-.367-4.7-.656-7.037-.06-.478-.516-.907-.79-1.358l-.553,0c-.48,1.493-.976,2.982-1.435,4.481a23.531,23.531,0,0,1-.879,3.035,33.717,33.717,0,0,1-1.983,3.3l-2.632.129a29.959,29.959,0,0,1,1.088-4.4c1.2-2.861-.041-5.556-2.9-5.933l2.212-2.86c6.014-.13,12.03-.276,18.045-.37a8.6,8.6,0,0,1,1.955.425c.438,1.544.858,3.093,1.32,4.63.631,2.1,1.751,4.09-.107,6.3-.511.608-1.911,1.76-.728,3.1-1.573,1.569-3.2,1.429-4.353-.376a24.774,24.774,0,0,0-1.662-10.152,2.123,2.123,0,0,0-1.818.021c-1.272,1.169-2.794,2.346-2.016,4.352l1.108.989a1.707,1.707,0,0,0-2,1.337A8.419,8.419,0,0,1,2595.348,669.736Z" transform="translate(-86.517 -42.969)" fill="#fbf1e0"/>
    <path id="Path_4232" data-name="Path 4232" d="M2606.318,668.769l-1.108-.989c-.777-2.006.745-3.183,2.016-4.352a2.125,2.125,0,0,1,1.818-.021,24.775,24.775,0,0,1,1.662,10.153c-.682-.556-1.319-1.036-1.968.1-.166.288-.684.374-1.041.552a2.679,2.679,0,0,1-1.63-3.284C2606.189,670.214,2606.237,669.488,2606.318,668.769Z" transform="translate(-94.215 -45.24)" fill="#f8deb6"/>
    <path id="Path_4233" data-name="Path 4233" d="M2591.813,672.24a33.726,33.726,0,0,0,1.984-3.3,23.531,23.531,0,0,0,.879-3.035c.459-1.5.955-2.988,1.435-4.481l.553,0c.274.452.73.88.79,1.358.289,2.338.519,4.685.656,7.037.03.505-.406,1.038-.627,1.559a24.287,24.287,0,0,1-2.343,1.448C2593.935,673.4,2592.739,673.476,2591.813,672.24Z" transform="translate(-89.224 -44.56)" fill="#f8e0ba"/>
    <path id="Path_4234" data-name="Path 4234" d="M2620.894,671.923c-1.182-1.338.217-2.491.729-3.1,1.858-2.207.738-4.2.107-6.3-.462-1.537-.882-3.086-1.32-4.63,2.175.211,2.882,1.855,3.4,3.6a24.419,24.419,0,0,1,.75,3.525,4.257,4.257,0,0,1-1.2,4.175A31.807,31.807,0,0,0,2620.894,671.923Z" transform="translate(-100.05 -43.228)" fill="#f9e6c8"/>
    <path id="Path_4235" data-name="Path 4235" d="M2605.129,672.147c-.081.719-.128,1.444-.25,2.156a2.679,2.679,0,0,0,1.63,3.284c-1.238.652-2.253.74-3.021-.774-.3-.6-1.073-.96-1.63-1.429a8.419,8.419,0,0,0,1.276-1.9A1.707,1.707,0,0,1,2605.129,672.147Z" transform="translate(-93.026 -48.618)" fill="#f8e6c8"/>
    <path id="Path_4236" data-name="Path 4236" d="M2584.707,657.81l-2.212,2.86c-1.161-.42-2.823.411-3.562-1.752Z" transform="translate(-84.347 -43.194)" fill="#f7e4c6"/>
    <path id="Path_4237" data-name="Path 4237" d="M2466.8,642.668a13.75,13.75,0,0,1-.6,2.027c-.386.818-2.221.923-2.593.116a10.405,10.405,0,0,1-.947-3.1c-.092-.8-.113-1.831,1.09-2.126a2.016,2.016,0,0,1,2.441,1.219A11.123,11.123,0,0,1,2466.8,642.668Z" transform="translate(-40.314 -36.264)" fill="#474745"/>
  </g>
</svg>
