<svg xmlns="http://www.w3.org/2000/svg" width="139.49" height="262.424" viewBox="0 0 139.49 262.424">
  <g id="Group_273" data-name="Group 273" transform="translate(-1576.176 -195.262)">
    <path id="Path_4542" data-name="Path 4542" d="M1661.05,372.239c5.172,1.963,10.586,1.453,15.939,1.549.849,3.332,1.584,6.7,2.582,9.985.82,2.7,1.886,5.338,2.969,7.951.6,1.453,1.7,1.547,2.735.352a9.29,9.29,0,0,0,.963-1.549c.893-1.569,1.727-3.175,2.689-4.7.263-.418.892-.605,1.353-.9-.085.113-.215.214-.247.34-1.477,5.841-4.56,10.988-7.331,16.222-3.953,7.466-9.03,14.241-14.242,20.877-3.8,4.845-6.436,10.313-8.964,15.858-.505.852-.97,1.732-1.54,2.537-.182.258-.748.541-.958.44-3.484-1.683-6.939-3.425-10.4-5.154-.187-3.458-.384-6.915-.559-10.373-.2-3.853-.4-7.707-.542-11.562-.03-.795.257-1.6.24-2.4-.055-2.514-.188-5.026-.286-7.539-.061-1.588-.169-3.177-.154-4.763.025-2.632.161-5.263.2-7.9.03-2.184-.048-4.369,0-6.552a5.29,5.29,0,0,1,.521-1.516c.1,1.877.167,3.757.324,5.629.138,1.639.383,3.269.581,4.9l.75.066c.285-.787,1.034-1.82.771-2.319-.946-1.792.179-3.275.5-4.794a13.134,13.134,0,0,1,3.313-6.082c1.343-1.465,2.674-2.946,4.1-4.334C1657.863,375.041,1659.478,373.662,1661.05,372.239Z" transform="translate(-30.334 -77.671)" fill="#bbe9ef"/>
    <path id="Path_4543" data-name="Path 4543" d="M1675.946,578.836c-.353.339-.656.883-1.067.984-1.636.4-2.87,2.043-4.959,1.255-.817-.308-2.076.442-2.332,1.806-.065.35-.508.71-.864.911-3.059,1.723-6.216,1.392-9.326.228-2.467-.922-4.863-2.032-7.291-3.059a6.448,6.448,0,0,1-2.1-3.034c-.047-.226-.678-.33-1.04-.49a5.714,5.714,0,0,1-.252-1.1q-.315-10.57-.6-21.141c-.009-.333.027-.667.043-1,.167.143.446.261.484.433a4.735,4.735,0,0,0,2.911,3.111c2.878,1.412,5.964,2.408,8.508,4.458,1.286,1.036,2.6,2.033,3.847,3.118,1.873,1.635,3.536,3.566,5.582,4.931a17.684,17.684,0,0,1,4.644,4.606c.712,1,1.284,2.111,2.076,3.038A5.623,5.623,0,0,0,1675.946,578.836Z" transform="translate(-30.693 -157.526)" fill="#bbe9ef"/>
    <path id="Path_4544" data-name="Path 4544" d="M1642.463,286.542c1,.834,1.061,1.948,1.469,2.8.709,1.485-.074,3.475,1.647,4.59.354.229.37,1.147.359,1.744-.039,2.118-.162,4.235-.24,6.353a1.608,1.608,0,0,0,.12.7c1.029,2.265.244,4.231-.892,6.207-.679,1.181-1.064,2.53-1.733,3.718-.653,1.159-2.5,1.552-3.947,1.01a3.069,3.069,0,0,1-1.806-3.221c.2-2.411.3-4.829.446-7.31a39.886,39.886,0,0,1-4.538-.343c-3.014-.574-3.984-2.41-2.952-5.321.232-.654.544-1.28.831-1.948a31.677,31.677,0,0,1-3.537-.844c-.964-.342-1.984-.835-1.968-2.14s-.313-2.749.977-3.114c.068-1.479.125-2.727.186-4.063-2.724-1.2-2.061-2.522-.356-4.271a7.782,7.782,0,0,1,4.047-2.115c3.452-.566,6.972-.709,10.463-1.052,2.041-.2,2.969,1.068,3.665,2.676a14.326,14.326,0,0,1,1,2.489,1.852,1.852,0,0,1-.436,1.521A25.034,25.034,0,0,1,1642.463,286.542Zm-.259,21.549-.11-.042.115.026a16.117,16.117,0,0,0,1.478-2.32,1.954,1.954,0,0,0-1.385-2.687h-1.936v8.238c1.549-.435,1.266-1.817,1.734-2.716Zm-11.93-21.865-1.406,1.14c2.88,1.191,9.761,1.307,11.214.217l-1.126-.589C1636.2,285.124,1633.216,285.943,1630.274,286.226Zm12.886,11.992V295.8a37.328,37.328,0,0,1-3.944.839,21.621,21.621,0,0,1-2.812-.208c-1.828-.053-3.023.69-3.409,2.041-.522,1.286.116,1.744,1.294,1.789.663.026,1.327.018,1.99.018q3.446,0,6.881,0Zm-6.852-17.426c-5.253-.042-7.276.525-8.366,2.5,1.2.1,2.305.237,3.418.267,2.266.06,4.533.06,6.8.085,1.166,1.042,2.456,1.223,3.575.1a3.264,3.264,0,0,0,.762-2.158c-.009-.772-.572-1.32-1.563-1.2C1639.4,280.583,1637.85,280.665,1636.308,280.792Zm4.136,9.927a6.852,6.852,0,0,1-1.376.23,33.725,33.725,0,0,1-6.363-.407c-1.989-.468-2.95,1.055-4.482,1.444a3.581,3.581,0,0,0,1.461.681q4.271.7,8.554,1.323c.784.116,1.623.693,2.317-.282.467-.655,1.037-1.237,1.54-1.828Z" transform="translate(-21.447 -36.27)" fill="#424241"/>
    <path id="Path_4545" data-name="Path 4545" d="M1675.949,572.359a5.625,5.625,0,0,1-1.739-.949c-.792-.927-1.364-2.038-2.075-3.038a17.68,17.68,0,0,0-4.644-4.606c-2.046-1.365-3.709-3.3-5.582-4.931-1.243-1.085-2.562-2.082-3.847-3.118-2.543-2.05-5.63-3.046-8.508-4.458a4.734,4.734,0,0,1-2.911-3.111c-.038-.172-.317-.29-.484-.433q-.019-4.141-.04-8.281c.946.719.946.719,1.208,3.567l1.3-1.392c2.689,2.261,5.424,4.613,8.215,6.9,7.125,5.833,15.089,9.873,24.289,11.232.172.026.338.088.628.166-1.52,3.027-3.028,5.954-4.457,8.92C1676.76,569.956,1676.4,571.178,1675.949,572.359Z" transform="translate(-30.696 -151.049)" fill="#a1dee7"/>
    <path id="Path_4546" data-name="Path 4546" d="M1647.437,595.616c.361.16.993.264,1.04.49a6.446,6.446,0,0,0,2.1,3.034c-.438.189-1.27.448-1.251.556.12.673.243,1.636.71,1.9,1.54.888,3.229,1.517,4.858,2.252.415.187.819.4,1.229.6-.043.233-.193.513-.113.691,1.553,3.452,1.958,7.168,2.432,10.853a5.262,5.262,0,0,1-.542,2.722c-.678,1.456-1.591,2.8-2.366,4.213-.111.2,0,.526.008.795-1.151,2.187-2.333,4.342-5.151,4.8a4.744,4.744,0,0,0-.229-1.97c-.626-1.111-1.356-.005-2.045.159-.038-1.948-.026-3.9-.123-5.845-.248-5-.644-9.995-.785-15C1647.115,602.458,1647.35,599.035,1647.437,595.616Z" transform="translate(-31.166 -175.706)" fill="#d9d5cf"/>
    <path id="Path_4547" data-name="Path 4547" d="M1661.218,370.745c-1.571,1.423-3.186,2.8-4.7,4.282-1.421,1.388-2.752,2.869-4.095,4.334a13.132,13.132,0,0,0-3.313,6.082c-.323,1.518-1.448,3-.5,4.794.263.5-.486,1.531-.771,2.319l-.75-.066c-.2-1.634-.443-3.263-.581-4.9-.158-1.872-.22-3.752-.324-5.629a4.188,4.188,0,0,1-.5-1.376c.039-2.356.165-4.711.26-7.067q.092-2.305.183-4.611c.875,1.075,1.737,1.085,3.091.573a14.782,14.782,0,0,1,5.011-.642A10.775,10.775,0,0,1,1661.218,370.745Z" transform="translate(-30.502 -76.176)" fill="#a2dfe8"/>
    <path id="Path_4548" data-name="Path 4548" d="M1781.368,213.75l-1.448,1.127-3.242-5.691,1.475-.967Z" transform="translate(-87.996 -5.686)" fill="#414241"/>
    <path id="Path_4549" data-name="Path 4549" d="M1713.149,214.7c-.285,1.454,1.219,1.084,1.919,1.738-1.4.2-2.641.318-3.856.57s-2.414.642-3.62.971l-.193-.442a9.069,9.069,0,0,1,1.264-.553c1.02-.277.815-.7.193-1.206Z" transform="translate(-57.591 -8.529)" fill="#414241"/>
    <path id="Path_4550" data-name="Path 4550" d="M1690.214,223.7l.834,1.243c-1.519.764-2.272,2.93-4.544,2.2Z" transform="translate(-48.42 -12.481)" fill="#414241"/>
    <path id="Path_4551" data-name="Path 4551" d="M1684.163,233.924l1.307.5-1.628,1.1c2.368.515,1.759,2.055,1.683,3.379C1683.684,237.6,1683.3,236.2,1684.163,233.924Z" transform="translate(-47.201 -16.968)" fill="#414241"/>
    <path id="Path_4552" data-name="Path 4552" d="M1687.469,253.667l1.536.57.125.451c-.588.178-1.171.373-1.765.529-.445.117-.905.185-1.358.274Z" transform="translate(-48.202 -25.632)" fill="#414241"/>
    <path id="Path_4553" data-name="Path 4553" d="M1702.212,218.582l.956,1.376-1.066.649-1.316-1.434Z" transform="translate(-54.688 -10.234)" fill="#414241"/>
    <path id="Path_4554" data-name="Path 4554" d="M1696.812,221.108l.755,1.124c-.778.824-.778.824-1.888-.511Z" transform="translate(-52.447 -11.343)" fill="#414241"/>
    <path id="Path_4555" data-name="Path 4555" d="M1721.848,212.218c.61.252,1.413-.921,1.9.255l-1.864.643Z" transform="translate(-63.932 -7.319)" fill="#414241"/>
    <path id="Path_4556" data-name="Path 4556" d="M1812.123,296.671c-.021-1.365.635-2.041,2.014-1.98Z" transform="translate(-103.551 -43.635)" fill="#414241"/>
    <path id="Path_4557" data-name="Path 4557" d="M1688.523,242.222l.609-1.723.25.1v1.916Z" transform="translate(-49.306 -19.853)" fill="#414241"/>
    <path id="Path_4558" data-name="Path 4558" d="M1809.349,300.94c-.663-1.108.065-1.155.871-1.143Z" transform="translate(-102.22 -45.877)" fill="#414241"/>
    <path id="Path_4559" data-name="Path 4559" d="M1787.433,223.821c-.9-.015-1.064-.408-.59-1.136Z" transform="translate(-92.343 -12.035)" fill="#414241"/>
    <path id="Path_4560" data-name="Path 4560" d="M1777.907,206.4l-1.028-1.072Z" transform="translate(-88.084 -4.416)" fill="#414241"/>
    <path id="Path_4561" data-name="Path 4561" d="M1691.094,244.529l.855.157Z" transform="translate(-50.435 -21.622)" fill="#414241"/>
    <path id="Path_4562" data-name="Path 4562" d="M1774.631,203.341l-.814-.576Z" transform="translate(-86.74 -3.293)" fill="#414241"/>
    <path id="Path_4563" data-name="Path 4563" d="M1771.833,201.573l-.57-.248Z" transform="translate(-85.619 -2.661)" fill="#414241"/>
    <path id="Path_4564" data-name="Path 4564" d="M1721.945,208.8l-.029.618Z" transform="translate(-63.962 -5.942)" fill="#414241"/>
    <path id="Path_4565" data-name="Path 4565" d="M1722.639,206.325l-.168.576Z" transform="translate(-64.205 -4.855)" fill="#414241"/>
    <path id="Path_4566" data-name="Path 4566" d="M1694.153,245.064l.57.188Z" transform="translate(-51.777 -21.857)" fill="#414241"/>
    <path id="Path_4567" data-name="Path 4567" d="M1700.568,305.96c-.494-2.771-1.023-5.535-1.462-8.315a27.545,27.545,0,0,1-.154-3.1c.154-.268.412-.522.446-.8.3-2.514.562-5.034.835-7.553.17-.524.368-1.041.5-1.573.765-3.005,1.756-5.967,1.785-9.117.807-1.239,2.13-.937,3.3-1.166a6.862,6.862,0,0,0,1.734-.9,9.3,9.3,0,0,0-1.47-1.724c-.351-.258-1.008-.1-1.527-.129a10.657,10.657,0,0,1,.635-2.523,41.107,41.107,0,0,1,2.326-3.554l1.9,3.508.89,1.4,1.584,2.4.1-.07-.09.078a18.8,18.8,0,0,0,2.242,2.272c2.729,1.979,5.959,2.218,7.548-2.1l.644-1.713.251-.864.3-1.436.137-.578.032-.554.252-.564.481.545.583.856q.274.42.549.839l2.061,2.59,1.083,1.161,1.775,1.7c2.029,1.764,4.22,3.07,7.074,2.5a21.711,21.711,0,0,0,1.87,3.73c2.085,2.736,5.1,4.125,8.291,5.144.128.041.318-.114.479-.177l3.206.933a28.347,28.347,0,0,1-4.447,12.8c-2.547,3.719-5.371,7.247-8.05,10.877a1.52,1.52,0,0,0-.3,1.043c.032.182.538.281.92.46-.9,1.817-1.894,3.818-2.9,5.811a.831.831,0,0,1-.411.358c-1.734.68-3.476,1.342-5.215,2.009q-.007-.233-.013-.466a11.589,11.589,0,0,0,1.452-1.35c.659-.853.244-1.823-.791-1.762a31,31,0,0,0-3.553.6l-.822-.131c-3.454-.906-6.9-1.821-10.363-2.709a6.855,6.855,0,0,0-2.381-.41,40.3,40.3,0,0,0-4.176.915,13.683,13.683,0,0,1-2.513-1.081,16.222,16.222,0,0,1-5.2-5.606c-.178-.325-.605-.514-.918-.766l.009.01Q1700.833,306.835,1700.568,305.96ZM1703.2,286.3c-.217,2.867-.488,5.731-.629,8.6-.09,1.833.509,2.362,2.338,2.457a22.821,22.821,0,0,0,4.616.212,32.485,32.485,0,0,0,5.08-1.628l1.124-1.729c.237-.48.8-1.134.65-1.408a1.9,1.9,0,0,0-2.216-1.1,39.321,39.321,0,0,1-4,.421c.131-1.16.157-1.973.321-2.757.688-3.294,1.39-6.587,2.152-9.865.2-.841.253-1.587-.636-1.911a1.481,1.481,0,0,0-2.007.848,4.9,4.9,0,0,0-1.819.316,31.321,31.321,0,0,0-2.839,2.281,8.763,8.763,0,0,0-1.727-.868c-.224-.061-.814.388-.866.673C1702.407,282.69,1702.124,284.562,1703.2,286.3Zm8.162,19.145a19.947,19.947,0,0,0,13.231-5.176,9.849,9.849,0,0,0,3.482-6.176c.188-1.219-.4-1.394-1.284-1.026a2.067,2.067,0,0,0-1.17,1.093c-.6,2.489-2.213,4.111-4.208,5.552a17,17,0,0,1-12.714,3.031c-.812-.11-1.542-.3-1.609.642a1.941,1.941,0,0,0,.927,1.586A17.365,17.365,0,0,0,1711.364,305.448Zm10.145-22.5-.084.008a13.44,13.44,0,0,0,.394,2.816,2.813,2.813,0,0,0,1.392,1.389c.249.119,1.005-.373,1.244-.763a6.133,6.133,0,0,0,.582-5.274,1.684,1.684,0,0,0-2.11-1.16c-.613.216-1.012,1.165-1.391,1.853C1721.375,282.108,1721.509,282.564,1721.509,282.945Zm2.811-9.557c-.893-.027-1.98-.184-2.024,1.111-.04,1.215.9,1.311,1.9,1.348a3.52,3.52,0,0,1,1.815.62c.84.6,1.518,1.424,2.341,2.054a6.2,6.2,0,0,0,1.518.625c.093-.708.532-1.721.222-2.071C1728.547,275.324,1727.041,273.364,1724.32,273.388Z" transform="translate(-53.883 -30.825)" fill="#fbf1e0"/>
    <path id="Path_4568" data-name="Path 4568" d="M1699.75,283.859c-.273,2.518-.534,5.038-.835,7.553-.034.282-.292.537-.446.8-.195-4.408-.428-8.814-.568-13.223-.078-2.459-.043-4.923.022-7.383.046-1.705-.5-3.534.86-5.032.064-.071-.078-.329-.125-.5l1.705-1.682,4.243-3.207,1.542-.988.22,1.011a21.291,21.291,0,0,0-6.175,8.179c-.148.341.112.859.182,1.295-.526.71-1.209,1.384-.555,2.37-.016,1.026,0,2.053-.056,3.076-.139,2.406-.324,4.809-.455,7.216C1699.3,283.509,1699.6,283.688,1699.75,283.859Z" transform="translate(-53.401 -28.5)" fill="#f2d7ae"/>
    <path id="Path_4569" data-name="Path 4569" d="M1777.252,292.711c-.161.063-.351.218-.479.177-3.195-1.018-6.206-2.408-8.291-5.144a21.711,21.711,0,0,1-1.87-3.73l1.16-1.338.5-.783.7-1.5c.37,1.063.718,2.136,1.115,3.189.752,1.994,1.39,4.066,3.037,5.561C1774.47,290.364,1775.873,291.524,1777.252,292.711Z" transform="translate(-83.578 -37.361)" fill="#f8e5c6"/>
    <path id="Path_4570" data-name="Path 4570" d="M1779.1,292.471c-1.379-1.187-2.782-2.347-4.129-3.57-1.646-1.494-2.285-3.566-3.037-5.561-.4-1.053-.745-2.126-1.115-3.189l.549-.306,1.454,2.876,1.646,2.321,2.966,3.117,1.367,1.2,3.466,2.219.571.3.022.322-.554,1.207Z" transform="translate(-85.423 -37.121)" fill="#f7dbb1"/>
    <path id="Path_4571" data-name="Path 4571" d="M1793.758,308.465l.283-1.153c2.717-.168,1.643-2.5,2.128-3.774l1.889-.711c-.409-1.443-1.465-1.215-2.376-1.289l1.232-2.209,1.717-.054,1.165,2.24a6.4,6.4,0,0,0-.522,1.474,7.871,7.871,0,0,1-4.735,6.531Z" transform="translate(-95.492 -45.649)" fill="#f7dbb1"/>
    <path id="Path_4572" data-name="Path 4572" d="M1702.175,271.475c-.07-.436-.33-.954-.182-1.295a21.291,21.291,0,0,1,6.175-8.179l.378.652a.2.2,0,0,0,.1.226l.187,1.084a41.165,41.165,0,0,0-2.326,3.554,10.668,10.668,0,0,0-.635,2.523Z" transform="translate(-55.198 -29.29)" fill="#f8e5c6"/>
    <path id="Path_4573" data-name="Path 4573" d="M1762.239,282.761l-1.16,1.338c-2.854.567-5.045-.74-7.074-2.5l.878-1.012Z" transform="translate(-78.045 -37.446)" fill="#414241"/>
    <path id="Path_4574" data-name="Path 4574" d="M1802.576,250.262a38.067,38.067,0,0,1,3.59,4.07,4.574,4.574,0,0,1,.25,3.014c-1.349-1.829-2.722-3.642-4.026-5.5a3.956,3.956,0,0,1-.331-1.356Z" transform="translate(-99.135 -24.138)" fill="#e9e9e9"/>
    <path id="Path_4575" data-name="Path 4575" d="M1752.131,211.536c-.412.464-.469.918-1.484.65a20.545,20.545,0,0,0-4.733-.151c-.443-.008-.885-.086-1.578-.157C1747.057,209.887,1749.534,210.056,1752.131,211.536Z" transform="translate(-73.802 -6.645)" fill="#d9d9d9"/>
    <path id="Path_4576" data-name="Path 4576" d="M1792.985,310.217l.781,1.057a7.871,7.871,0,0,0,4.735-6.531,6.409,6.409,0,0,1,.522-1.474l.421,2.059v.88l-.306,1.094A14.89,14.89,0,0,1,1792,313Z" transform="translate(-94.718 -47.401)" fill="#f7ecda"/>
    <path id="Path_4577" data-name="Path 4577" d="M1795.9,303.308c.911.074,1.967-.153,2.376,1.289l-1.889.711c-.485,1.269.589,3.605-2.128,3.774l1.174-5.721Z" transform="translate(-95.713 -47.419)" fill="#f8e5c6"/>
    <path id="Path_4578" data-name="Path 4578" d="M1705.723,261.393l-4.243,3.207-1.085-1.425a33.524,33.524,0,0,1,3.586-2.475C1704.335,260.51,1705.13,261.14,1705.723,261.393Z" transform="translate(-54.517 -28.704)" fill="#414241"/>
    <path id="Path_4579" data-name="Path 4579" d="M1751.578,215.991l1.7.568-2.936,1.691,2.276.4.077.315-2.9.788.021.23,1.182.194c-.312.214-.587.507-.69.456-.49-.245-1.117-.488-1.341-.917-.209-.4.029-1.031.076-1.636l2.667-1.694Z" transform="translate(-75.797 -9.097)" fill="#d9d5cf"/>
    <path id="Path_4580" data-name="Path 4580" d="M1756.6,206.586l-8.079-1.8,2.243-1.109C1752.534,204.3,1754.8,204.531,1756.6,206.586Z" transform="translate(-75.638 -3.693)" fill="#d9d9d9"/>
    <path id="Path_4581" data-name="Path 4581" d="M1811.953,257.136l-.3-.024-.2-.246-.093-.277.533-.6-1.031-.27-.083-.557.355-.127-.419-.177c-.521-1.05-1.068-2.089-1.554-3.156-.282-.618-.464-1.281-.728-2.03,2.162,1.294,4.428,5.373,4.09,7.208Z" transform="translate(-101.93 -23.877)" fill="#e9e9e9"/>
    <path id="Path_4582" data-name="Path 4582" d="M1800.446,256.888l-4.1-4.083,1.261-1.722,3.185,5.573Z" transform="translate(-96.626 -24.498)" fill="#e9e9e9"/>
    <path id="Path_4583" data-name="Path 4583" d="M1714.074,264.066l-.187-1.084,1.578-.748c.225.55.525,1.178.737,1.834.17.527.232,1.089.411,1.98l-.636,1.526Z" transform="translate(-60.438 -29.392)" fill="#414241"/>
    <path id="Path_4584" data-name="Path 4584" d="M1776.033,286.587l-1.645-2.321,1.522-.9C1777.192,284.256,1776.929,285.393,1776.033,286.587Z" transform="translate(-86.99 -38.667)" fill="#414241"/>
    <path id="Path_4585" data-name="Path 4585" d="M1720.78,276.074l-1.584-2.4,1.506-.74C1722.5,273.873,1721.226,274.995,1720.78,276.074Z" transform="translate(-62.768 -34.086)" fill="#414241"/>
    <path id="Path_4586" data-name="Path 4586" d="M1769.521,279.043l-.549.306-.7,1.5-1.661-.38.763-.393c.209-.858.356-1.46.5-2.062C1768.507,278.231,1769.663,277.6,1769.521,279.043Z" transform="translate(-83.578 -36.319)" fill="#414241"/>
    <path id="Path_4587" data-name="Path 4587" d="M1756.221,230.683l-1.8-.194.013-.509h3.61l-1.547,1.932Z" transform="translate(-78.226 -15.237)" fill="#d9d9d9"/>
    <path id="Path_4588" data-name="Path 4588" d="M1800.563,297.845l-1.716.054-.685-1.782C1799.271,295.8,1799.825,296.188,1800.563,297.845Z" transform="translate(-97.424 -44.219)" fill="#414241"/>
    <path id="Path_4589" data-name="Path 4589" d="M1713.238,261.15l-.378-.652-.22-1.011,1.873-.912C1714.9,259.859,1713.431,260.243,1713.238,261.15Z" transform="translate(-59.89 -27.787)" fill="#414241"/>
    <path id="Path_4590" data-name="Path 4590" d="M1783.972,294.7l-1.367-1.2,1.469-1.475a5.773,5.773,0,0,1,.173,1.183A11.694,11.694,0,0,1,1783.972,294.7Z" transform="translate(-90.597 -42.47)" fill="#414241"/>
    <path id="Path_4591" data-name="Path 4591" d="M1791.271,297l2.389.229C1792.75,298.354,1791.933,298.287,1791.271,297Z" transform="translate(-94.4 -44.65)" fill="#414241"/>
    <path id="Path_4592" data-name="Path 4592" d="M1749.995,277.311l-1.083-1.161,1.4-1.453Z" transform="translate(-75.81 -34.862)" fill="#414241"/>
    <g id="Group_272" data-name="Group 272" transform="translate(1576.176 195.262)">
      <path id="Path_4593" data-name="Path 4593" d="M1800.291,465.194l.229-.08v-.838l-.3.05c0,.185-.012.367-.03.547Z" transform="translate(-1674.491 -313.326)" fill="#414241"/>
      <path id="Path_4594" data-name="Path 4594" d="M1715.633,237.783A29.283,29.283,0,0,0,1712,225.3c-3.75-6.832-9.077-11.609-16.856-13.311a.187.187,0,0,0-.052-.207c-.9-.015-1.065-.408-.59-1.136l-1.127-2.586-1.448,1.127-3.242-5.691,1.475-.967-.334-.551-1.028-1.072-.9-.86-.814-.576-.863-.56-.57-.248-3.153-1.193a63.675,63.675,0,0,0-16.613-2.209c-2.513-.026-4.3,1.393-5.727,3.34l-1.718,2.867c-.057.192-.112.384-.168.576l-.282.814c-.01.206-.02.412-.03.618l-.038,1.421c.61.253,1.413-.921,1.9.255l-1.864.643-2.393.371c-.285,1.454,1.219,1.084,1.919,1.738-1.4.2-2.641.318-3.856.57s-2.414.642-3.62.971c-.064-.147-.129-.294-.192-.442a9.06,9.06,0,0,1,1.264-.553c1.02-.277.815-.7.193-1.206l-3.741,1.1.956,1.376-1.066.649-1.316-1.434-1.732.826.755,1.125c-.778.824-.778.824-1.889-.511l-1.438.841c.247.369.494.737.834,1.243-1.519.764-2.272,2.93-4.544,2.2l-1.122,2.3,1.307.5-1.628,1.1c2.368.515,1.759,2.055,1.683,3.379l.893.433.609-1.723.25.1v1.916l.583.248.855.157.861.143.57.188.553-.062c-.069.269-.055.622-.224.794-.953.972-1.952,1.9-2.934,2.843l-1.073,1.064,1.536.57.125.451c-.588.178-1.171.373-1.765.529-.445.117-.905.185-1.358.274l-.012.019a5.429,5.429,0,0,1,.747.865,5.455,5.455,0,0,0-.747-.865,10.612,10.612,0,0,0-2.292,5.4c-.278,2.039.471,3.125,2.534,3.3,1.3.112,2.621.021,3.995.021a7.252,7.252,0,0,0-.133.824c-.062,9.627-.126,19.239.98,28.845.762,6.617,2.62,12.682,6.7,17.955a6.024,6.024,0,0,1,.826,6.432c-.6-.162-1.334-.6-1.609-.4-1.65,1.2-3.494,1-5.334,1.01-3.508.029-7.033.108-10.421-.945-2.279-.708-4.228-2.214-6.794-2.328-3.413-.152-6.777-.574-9.959,1.194-.747.415-.977.788-.671,1.535.874,1.075,1.737,1.085,3.091.573a14.782,14.782,0,0,1,5.011-.642,10.775,10.775,0,0,1,7,1.91c5.172,1.963,10.586,1.453,15.939,1.549l1.1-.113c1.994,4.318,3.929,8.562,5.936,12.772a1.881,1.881,0,0,0,1.291,1.02,2.612,2.612,0,0,0,1.894-.819c1.029-1.521,1.838-3.192,2.733-4.8l.73-.963.355-.609,1.5-1.693.833-1.377.328.115c-.233,2.044-.453,4.088-.7,6.13-.132,1.078-.326,2.149-.479,3.225-.127.891.081,1.694,1.046,1.894a2.64,2.64,0,0,0,1.71-.238c4.587-2.632,9.142-5.319,13.7-8a13.4,13.4,0,0,0,1.167-.867l1.679,3.39c1.9,1.788,3.8,3.57,5.682,5.373a5.652,5.652,0,0,1,.646.923l2.222,2.466c5.423,5.261,7.772,12.036,9.125,19.184a37.8,37.8,0,0,1-5.212,27.593c-3.064,4.974-6.581,9.668-9.847,14.52-3.129,4.648-6.187,9.345-9.307,14a14.412,14.412,0,0,1-1.42,1.465,8.963,8.963,0,0,0-1.33,1.623,44.931,44.931,0,0,1-8.352,11.04,2.237,2.237,0,0,1-.624.3l-2.915,1.662c-2.908,1.179-5.965,1.076-8.963.758a34.81,34.81,0,0,1-12.729-3.707,79.025,79.025,0,0,1-11.189-7.168c-4.422-3.418-8.523-7.254-12.707-10.973-4.478-3.978-8.891-8.03-13.349-12.064,1.869-2.706,3.692-5.367,5.537-8.012.951-1.363,1.906-2.726,2.94-4.026a1.508,1.508,0,0,1,1.235-.529,43.1,43.1,0,0,1,6.192,2.135c4.322,2.071,8.5,4.436,12.82,6.517,3.841,1.851,7.791,3.479,11.69,5.212.516.229,1.013.5,1.518.751.466.229.949.427,1.394.691,1.85,1.1,1.9,1.358,1.187,3.3a26.551,26.551,0,0,0-1.212,4.069c-.1.495.4,1.1.622,1.661l1.787-.572c.45-1.332.871-2.674,1.357-3.992.4-1.091.536-1.148,1.722-1.2-.676,1.9-.561,2.069,1.545,2.217a12.323,12.323,0,0,0,1.559-1.968c3.583-7.07,6.974-14.241,10.709-21.228,3.2-5.982,6.763-11.767,10.2-17.616a2.436,2.436,0,0,1,1.274-1.014c1.062-.32,1.624-.862,1.2-1.963-.42-1.086-1.37-1-2.279-.789a6.211,6.211,0,0,0-1.044.442l-.861.571-.31.561-.716.965-.068.115c-2.527,4.378-5.175,8.692-7.548,13.152-2.641,4.967-5.014,10.077-7.538,15.106-1.506,3-3.078,5.962-4.61,8.92a6.645,6.645,0,0,1-4.345-2.115c-2.427-2.392-5.872-2.94-8.88-4.284-.594-.265-1.155-.6-1.732-.906-2.031-.94-4.073-1.858-6.087-2.833-.755-.366-1.445-.866-2.21-1.333l1.523-2.97-.619-.645c-.505.852-.97,1.732-1.54,2.537-.182.258-.748.541-.958.44-3.484-1.683-6.939-3.425-10.4-5.153a10.75,10.75,0,0,1-1.655-.382c-2.121-.846-4.636-1.01-5.917-3.349a9.306,9.306,0,0,0-5.294-4.538c.067-.839.089-1.637.206-2.421.126-.837.337-1.662.523-2.49a19.863,19.863,0,0,0,.758-3.46c.113-2.911.308-4.126-2.852-5.6-1.324-.617-2.513-1.526-3.848-2.113a2.721,2.721,0,0,0-2.046.02,1.232,1.232,0,0,1-1.789-.343c-2.574-3.045-5.1-6.14-7.81-9.057a26.313,26.313,0,0,0-5.086-4.31c-1.82-1.153-4.072-.942-3.863,2.191a18.121,18.121,0,0,0,.039,2.144,5.221,5.221,0,0,0,.782,2.068c2.076,2.847,4.23,5.638,6.394,8.5-2.106.754-2.674,2.549-3.377,4.256a3,3,0,0,1-.675.859c-.66.682-1.574,1.232-1.963,2.039-.746,1.546-1.027,3.322-1.812,4.843-1.257,2.436-.708,4.906-.518,7.387a1.573,1.573,0,0,0,.517.821c1.395,1.408,2.743,2.874,4.239,4.168a6.969,6.969,0,0,0,4.455,2.182c1.666.06,3.305.874,5.013,1.37a6.224,6.224,0,0,0-.613,1.807c.016.8.013,1.872.494,2.351a53.234,53.234,0,0,0,5.084,4.351c2.4,1.851,4.919,3.538,7.3,5.411,1.754,1.382,3.378,2.931,5.031,4.438,2.5,2.274,4.966,4.576,7.447,6.866.946.719.946.719,1.208,3.567l1.3-1.392c2.69,2.261,5.424,4.613,8.215,6.9,7.125,5.832,15.089,9.872,24.288,11.231.172.026.338.088.629.166-1.519,3.027-3.028,5.954-4.457,8.92-.547,1.133-.91,2.354-1.357,3.536-.353.339-.656.883-1.067.984-1.636.4-2.87,2.043-4.959,1.255-.817-.308-2.076.442-2.332,1.806-.065.35-.508.71-.864.911-3.059,1.723-6.216,1.392-9.326.228-2.467-.922-4.863-2.032-7.291-3.059-.438.189-1.27.448-1.251.556.12.673.243,1.635.71,1.9,1.54.888,3.229,1.517,4.858,2.252.415.187.819.4,1.229.6a19.841,19.841,0,0,0,4.092,1.056,60.1,60.1,0,0,0,6.3-.314l.37.011-.179.2a22.261,22.261,0,0,1-1.31,2.968c-3.169,5.092-6.4,10.146-9.613,15.209-.044.07-.159.094-.241.14-1.151,2.187-2.333,4.342-5.151,4.8a4.744,4.744,0,0,0-.229-1.97c-.626-1.111-1.356-.005-2.045.159-.907,1.3-.329,2.752-.446,4.135-.175,2.068,1.573,1.953,2.717,2.432.985.412,1.547-.4,2.058-1.11,1.887-2.614,3.761-5.236,5.666-7.837A122.914,122.914,0,0,0,1638.1,429.9a5.951,5.951,0,0,1,2.891-3.117c1.388-.627,2.808-1.2,4.122-1.963a6.421,6.421,0,0,0,2.444-2.04c1.034-1.838,1.709-3.875,2.6-5.8.937-2.025,1.991-3.995,2.922-6.021a4.154,4.154,0,0,1,3.8-2.2,14.234,14.234,0,0,0,9.112-3.873,29.67,29.67,0,0,0,5.505-6.624c1.482-2.652,3.519-4.989,5.224-7.525,2.809-4.179,5.5-8.441,8.325-12.607,3.848-5.667,8.546-10.774,11.454-17.057,1.567-3.386,3.032-6.836,4.255-10.357a17.2,17.2,0,0,0,1.132-3.9c-.053-.172-.107-.343-.161-.516l.19-.031c0-.1.008-.2.005-.3-.151-4.212.164-8.465-.292-12.638a37.418,37.418,0,0,0-6.142-16.983c-2.622-3.871-6.113-7.153-9.214-10.7-1.109-1.268-2.75-2.376-3.205-3.849a17.466,17.466,0,0,1,.053-10.5,32.031,32.031,0,0,1,1.581-3.816A137.919,137.919,0,0,1,1695.655,269a1.442,1.442,0,0,1,.65-.487c1.31-.509,2.693-.866,3.94-1.5,5.341-2.7,7.394-6.2,6.806-11.382l.078-.574c-.663-1.108.065-1.155.871-1.143l.572-.884c-.021-1.365.635-2.041,2.014-1.98l.849-.9A17.382,17.382,0,0,0,1715.633,237.783Zm-78.314-3.4c.063-.181.135-.371.226-.584C1637.453,234.012,1637.382,234.2,1637.319,234.383Zm5.47,3.784a2.694,2.694,0,0,0,.573.075A2.694,2.694,0,0,1,1642.789,238.167ZM1588.65,359.458a8.838,8.838,0,0,1-6.928-3.267,1.263,1.263,0,0,0-.3-.3c-2.382-1.5-2.94-3.676-2.224-6.349l1.825.757.87-.908a8.359,8.359,0,0,0-.94-2.354c-1.214-1.48.133-2.52.363-4.218l1.161,1.6c.624.453,1.013,1.491,2.082.835a2.334,2.334,0,0,0-.139-3.275c-.383-.447,0-1.548.03-2.352l.883-1.857c1.251.988,2.257,1.855,3.343,2.606a6.459,6.459,0,0,0,1.639.575,12.327,12.327,0,0,0,.266-2.208c-.016-.352-.467-.683-.722-1.025-2.105-2.853-4.218-5.7-6.313-8.561-.782-1.068-1.522-2.168-2.281-3.253l.016.014-.3-.315-1.092-2.619.658-.417c2.111,2.137,4.288,4.213,6.316,6.427,2.21,2.411,4.292,4.938,6.408,7.434,1.6,1.889,1.7,1.9,3.3.029.109-.127.325-.163.492-.241,1.548.79,3.125,1.531,4.625,2.4a1.765,1.765,0,0,1,.817,1.315c-.151,1.567-.5,3.115-.771,4.67q-.1.492-.2.984c-.161,1.586-.322,3.173-.464,4.573-2.308,2.7-4.653,5.352-6.884,8.092C1592.015,360.921,1592.066,360.962,1588.65,359.458Zm5.123,7.145c-1.111-.859-.926-1.759-.239-2.691,1.548-2.1,3.094-4.209,4.72-6.25,1.093-1.371,2.337-2.62,3.482-3.951a1.462,1.462,0,0,1,2.443-.07c.842.879,1.588,1.85,2.356,2.8.379.469.713.974,1.2,1.649l-8.87,12.683C1597.013,369.244,1595.427,367.88,1593.773,366.6ZM1704.5,218.126a6.282,6.282,0,0,0-.846-1.1A6.282,6.282,0,0,1,1704.5,218.126Zm-3.521,8.458,3.186,5.573-.345.232-4.1-4.082Zm-1.719,25.993c-.911,1.126-1.727,1.059-2.389-.229Zm-6.4-39.639,1.15,1.029-.318.362-1.166-1.013Zm-2.191,34.162c.058-.03.2.1.365.2-.134.114-.216.239-.31.249-.11.012-.231-.077-.347-.122C1690.476,247.313,1690.553,247.164,1690.674,247.1Zm-3.583-45.634,1.412.685-.235.476-1.388-.729ZM1688.173,243c-.134.114-.217.238-.311.249-.109.012-.231-.077-.346-.122.094-.113.171-.262.291-.324C1687.865,242.771,1688.007,242.9,1688.173,243Zm-1.742-2.713.237.1c-.034.079-.051.2-.107.224s-.153-.056-.232-.089Zm-1.123-39.719h.835l-.034.4-.834-.09Zm-.883,39.707c.08.035.2.053.224.11s-.056.153-.091.231c-.079-.035-.2-.052-.224-.109S1684.39,240.353,1684.425,240.274Zm-1.251-41.281a2.033,2.033,0,0,1-.641-.638A2.033,2.033,0,0,0,1683.174,198.993Zm-8.048.99c1.77.623,4.032.855,5.836,2.91l-8.079-1.8Zm-1.1,10.9,1.182.194c-.312.214-.588.507-.69.456-.49-.245-1.117-.488-1.341-.917-.209-.4.029-1.031.076-1.636l2.667-1.694-.134-.4,1.7.568-2.936,1.691,2.276.4q.039.157.077.315l-2.9.788Zm-4.623,24.29-1.192.954Zm-.883-5.455c-.024-.111.142-.263.275-.48.188.236.364.364.384.512.012.094-.226.321-.32.305A.517.517,0,0,1,1668.516,229.722Zm3.6-24.333c-.443-.008-.885-.086-1.578-.157,2.72-1.991,5.2-1.822,7.794-.342-.412.464-.469.918-1.484.65A20.546,20.546,0,0,0,1672.113,205.389Zm4.092,9.354h3.61l-1.547,1.932-.272-1.229-1.8-.194Q1676.2,215,1676.2,214.743Zm-8.338,23.614q-.243.9-.484,1.807L1666.8,240l.546-1.789Zm-14.205-9.316c.287.2.551.438.822.663l-.568.483-.7-.838C1653.466,229.172,1653.627,229.017,1653.662,229.041Zm-1.631.925.237.1c-.034.079-.051.2-.107.223s-.153-.055-.232-.089Zm-1.119.864c.057-.022.153.055.232.089-.034.079-.051.2-.108.224s-.153-.055-.232-.089C1650.839,230.975,1650.855,230.852,1650.912,230.83Zm4.426,75.192c-1.443-3.115-2.849-6.05-4.129-9.039-.172-.4.251-1.094.472-1.621.236-.563.56-1.091.861-1.666l7.408,5.262Zm22.326-6.8a2.061,2.061,0,0,1-.681,1.04c-3.753,2.335-7.533,4.628-11.31,6.925-.067.041-.181.005-.433.005.219-2.253.442-4.5.655-6.746a13.723,13.723,0,0,0,.167-2.41c-.1-1.166.737-1.664,1.483-1.993,4.233-1.868,8.511-3.634,12.775-5.431a1.046,1.046,0,0,1,.327,0C1679.638,293.538,1678.668,296.388,1677.664,299.225Zm14.769-30.139c-2.547,3.719-5.37,7.247-8.05,10.877a1.519,1.519,0,0,0-.3,1.043c.032.182.538.282.92.46-.9,1.817-1.894,3.818-2.9,5.811a.831.831,0,0,1-.411.358c-1.734.68-3.476,1.342-5.214,2.009-2.5,1.132-4.993,2.3-7.522,3.376-.814.346-1.752.388-2.6.665-.8.261-1.562.648-2.341.98-.251,1.492-1.292,1.808-2.486,1.4a29.861,29.861,0,0,1-3.482-1.693c-1.85-1.36-3.881-2.547-4.875-4.68,6.629,1.572,13.035,1.741,19.387-.557a12.563,12.563,0,0,0,1.922-1.1l-.9-1.37-.822-.131c-3.7,1.837-7.659,1.951-11.675,1.838-2.384-.067-4.76-.03-6.93-1.227a5.252,5.252,0,0,1-.664-.514,8.926,8.926,0,0,1-2.1-1.861c-1.489-2.576-2.8-5.254-4.18-7.893l.009.01-.528-1.75c-.494-2.771-1.023-5.535-1.462-8.315a27.572,27.572,0,0,1-.154-3.1c-.195-4.408-.428-8.814-.568-13.223-.078-2.459-.043-4.923.022-7.383.046-1.705-.5-3.534.86-5.032.064-.071-.078-.329-.125-.5l1.705-1.682-1.085-1.425a33.461,33.461,0,0,1,3.586-2.475c.355-.19,1.149.439,1.742.692l1.542-.988,1.874-.912c.391,1.283-1.081,1.667-1.275,2.574a.2.2,0,0,0,.1.226l1.579-.748c.225.55.525,1.178.737,1.834.17.527.232,1.089.411,1.98l-.636,1.526q.444.7.889,1.4l1.506-.74c1.8.943.524,2.065.078,3.144l.1-.07-.089.077h0a18.787,18.787,0,0,0,2.242,2.272c2.729,1.979,5.958,2.218,7.548-2.1q.322-.857.644-1.713l.251-.864.3-1.436q.069-.289.137-.578.016-.277.032-.554l.252-.564.481.545.582.856q.274.42.549.839l2.06,2.59,1.4-1.452-.315,2.613,1.775,1.7.878-1.012,7.356,2.177.5-.783-1.661-.38.763-.393.5-2.062c.627.214,1.784-.419,1.642,1.026l1.454,2.876,1.522-.9c1.282.89,1.019,2.027.123,3.221l2.966,3.117,1.469-1.475a5.754,5.754,0,0,1,.172,1.183,11.608,11.608,0,0,1-.275,1.488l3.466,2.219.571.3.022.322-.554,1.207A28.346,28.346,0,0,1,1692.433,269.086Zm12.293-10.28-.306,1.094a14.89,14.89,0,0,1-7.141,5.7l.989-2.78.283-1.153,1.174-5.721.467-.053,1.232-2.209-.685-1.782c1.111-.316,1.664.071,2.4,1.728q.583,1.119,1.165,2.24l.422,2.059Zm2.556-25.6c-1.349-1.829-2.721-3.642-4.026-5.5a3.953,3.953,0,0,1-.331-1.356l.517-.227a38.139,38.139,0,0,1,3.59,4.071A4.573,4.573,0,0,1,1707.281,233.208Zm3.307-.21-.567.26-.3-.024-.122.215c-.026-.153-.051-.307-.077-.461l-.093-.277-.5-.875-.083-.557c-.022-.1-.043-.2-.065-.3-.521-1.05-1.068-2.089-1.554-3.156-.282-.618-.464-1.281-.728-2.03C1708.661,227.084,1710.927,231.163,1710.589,233Z" transform="translate(-1576.176 -195.262)" fill="#414241"/>
    </g>
    <path id="Path_4595" data-name="Path 4595" d="M1738.744,271.946q-.242.9-.484,1.807l-.587-.167.546-1.789Z" transform="translate(-70.877 -33.589)" fill="#414241"/>
    <path id="Path_4596" data-name="Path 4596" d="M1774.854,207.482l-1.388-.729.21-.432,1.412.685Z" transform="translate(-86.586 -4.853)" fill="#414241"/>
    <path id="Path_4597" data-name="Path 4597" d="M1783.871,226.764l1.15,1.029-.317.362-1.166-1.013Z" transform="translate(-91.006 -13.825)" fill="#414241"/>
    <path id="Path_4598" data-name="Path 4598" d="M1714.172,256.6l-.7-.838c.249-.176.41-.332.444-.307.287.2.551.438.822.663Z" transform="translate(-60.257 -26.417)" fill="#414241"/>
    <path id="Path_4599" data-name="Path 4599" d="M1812.761,260.443l1.031.27-.533.6Z" transform="translate(-103.832 -28.606)" fill="#cbc6bf"/>
    <path id="Path_4600" data-name="Path 4600" d="M1770.637,204.715h.835l-.034.4-.834-.09Z" transform="translate(-85.329 -4.149)" fill="#414241"/>
    <path id="Path_4601" data-name="Path 4601" d="M1741.011,255.819c.188.235.364.364.384.512.012.094-.226.321-.32.305a.519.519,0,0,1-.34-.337C1740.712,256.188,1740.878,256.036,1741.011,255.819Z" transform="translate(-72.22 -26.577)" fill="#414241"/>
    <path id="Path_4602" data-name="Path 4602" d="M1775.255,280.178c-.134.114-.216.238-.31.249-.11.012-.23-.077-.346-.122.094-.113.171-.262.291-.324C1774.948,279.95,1775.09,280.083,1775.255,280.178Z" transform="translate(-87.083 -37.179)" fill="#414241"/>
    <path id="Path_4603" data-name="Path 4603" d="M1780.364,287.84c-.134.114-.216.239-.31.249-.11.012-.231-.077-.347-.122.094-.113.17-.262.292-.325C1780.057,287.613,1780.2,287.746,1780.364,287.84Z" transform="translate(-89.325 -40.542)" fill="#414241"/>
    <path id="Path_4604" data-name="Path 4604" d="M1740.879,274.257l-.251.864Z" transform="translate(-72.174 -34.669)" fill="#414241"/>
    <path id="Path_4605" data-name="Path 4605" d="M1805.269,307.818v0Z" transform="translate(-100.543 -49.012)" fill="#414241"/>
    <path id="Path_4606" data-name="Path 4606" d="M1744.809,272.013q-.275-.419-.549-.839Q1744.534,271.594,1744.809,272.013Z" transform="translate(-73.768 -33.316)" fill="#414241"/>
    <path id="Path_4607" data-name="Path 4607" d="M1769.017,275.479c.079.035.2.053.224.11s-.056.153-.091.231c-.078-.035-.2-.052-.224-.109S1768.982,275.558,1769.017,275.479Z" transform="translate(-84.591 -35.205)" fill="#414241"/>
    <path id="Path_4608" data-name="Path 4608" d="M1791.79,301.049l-.571-.3Z" transform="translate(-94.377 -46.295)" fill="#414241"/>
    <path id="Path_4609" data-name="Path 4609" d="M1741.75,270.668l-.137.578Z" transform="translate(-72.606 -33.094)" fill="#414241"/>
    <path id="Path_4610" data-name="Path 4610" d="M1709.514,258.734c-.034.079-.051.2-.108.224s-.153-.055-.232-.089c.034-.079.051-.2.107-.223S1709.434,258.7,1709.514,258.734Z" transform="translate(-58.37 -27.816)" fill="#414241"/>
    <path id="Path_4611" data-name="Path 4611" d="M1772.585,275.5l.237.1c-.034.079-.051.2-.107.224s-.153-.056-.232-.089Z" transform="translate(-86.154 -35.214)" fill="#414241"/>
    <path id="Path_4612" data-name="Path 4612" d="M1711.281,257.109l.236.1c-.034.079-.051.2-.107.223s-.153-.055-.232-.089C1711.212,257.266,1711.246,257.188,1711.281,257.109Z" transform="translate(-59.249 -27.143)" fill="#414241"/>
    <path id="Path_4613" data-name="Path 4613" d="M1812.5,258.909l.419.177-.355.127Z" transform="translate(-103.716 -27.933)" fill="#cbc6bf"/>
    <path id="Path_4614" data-name="Path 4614" d="M1814.709,262.773l.566-.26Z" transform="translate(-104.686 -29.515)" fill="#cbc6bf"/>
    <path id="Path_4615" data-name="Path 4615" d="M1813.813,262.5l.2.246-.122.215Z" transform="translate(-104.293 -29.508)" fill="#cbc6bf"/>
    <path id="Path_4616" data-name="Path 4616" d="M1701.05,391.144c1.9,1.788,3.8,3.57,5.682,5.373a5.653,5.653,0,0,1,.646.923c-.438.8.831,3.223,1.683,3.141.2-.019.361-.439.539-.675,5.423,5.261,7.772,12.036,9.125,19.184a37.8,37.8,0,0,1-5.212,27.593c-3.064,4.974-6.581,9.668-9.847,14.52-3.129,4.648-6.186,9.345-9.307,14a14.43,14.43,0,0,1-1.42,1.465,8.968,8.968,0,0,0-1.331,1.623,44.941,44.941,0,0,1-8.352,11.04,2.237,2.237,0,0,1-.624.3c-1.146-.381-2.164.2-2.915,1.662-2.908,1.18-5.965,1.076-8.963.758a34.811,34.811,0,0,1-12.729-3.707,79.03,79.03,0,0,1-11.189-7.168c-4.422-3.418-8.523-7.254-12.707-10.973-4.478-3.979-8.891-8.03-13.349-12.064,1.869-2.706,3.692-5.367,5.537-8.012.951-1.363,1.906-2.727,2.94-4.026a1.506,1.506,0,0,1,1.235-.529,43.1,43.1,0,0,1,6.192,2.135c4.322,2.071,8.5,4.436,12.82,6.517,3.841,1.851,7.791,3.479,11.69,5.212.516.229,1.013.5,1.518.751-.162.265-.447.521-.468.8-.191,2.515-.361,5.033-.487,7.552-.065,1.308.535,1.816,1.843,1.648a9.18,9.18,0,0,0,1.1-.278l1.787-.572c.032,1.853-.356,3.9,2.324,4.672a5.617,5.617,0,0,0,1.1-1.627c.489-1.986.815-4.011,1.2-6.021a12.325,12.325,0,0,0,1.559-1.968c3.583-7.07,6.974-14.241,10.709-21.228,3.2-5.982,6.762-11.767,10.2-17.616a2.435,2.435,0,0,1,1.274-1.015c1.062-.32,1.624-.862,1.2-1.963-.42-1.086-1.37-1-2.279-.789a6.234,6.234,0,0,0-1.044.442l-1.114.171.254.4-.311.561c-.745-.054-1.214.1-.715.965l-.068.114c-.213-.023-.548-.143-.621-.052-1.588,1.968-3.2,3.926-4.7,5.959-1.284,1.736-2.406,3.59-3.663,5.345-2.042,2.852-4.128,5.673-6.219,8.489-.527.71-1.349,1.268-1.677,2.048a8.768,8.768,0,0,1-4.168,4.309,2.769,2.769,0,0,0-.877.672c-1.733,2.255-4.28,2.719-6.836,2.986-1.947.2-3.927.09-5.893.117-2.031-.94-4.073-1.858-6.087-2.833-.755-.366-1.445-.866-2.21-1.333l1.523-2.97a16.88,16.88,0,0,0,.887-1.445c2.508-5.148,5.05-10.25,8.646-14.787,8.15-10.287,15.231-21.244,20.281-33.423a8.051,8.051,0,0,0,.283,1.633c.157.409.493.963.842,1.043a4.872,4.872,0,0,0,2.5.109,62.791,62.791,0,0,0,7.807-3.093c2.59-1.309,4.967-3.032,7.464-4.529C1699.025,392.1,1700.054,391.65,1701.05,391.144Z" transform="translate(-19.576 -85.968)" fill="#bbe9ef"/>
    <path id="Path_4617" data-name="Path 4617" d="M1587.354,439.2l.883-1.857c1.251.988,2.257,1.855,3.343,2.606a6.462,6.462,0,0,0,1.639.575,12.3,12.3,0,0,0,.266-2.208c-.016-.352-.467-.683-.721-1.025a4.7,4.7,0,0,0-1.289-3.867c-1.422-1.747-2.409-3.851-3.85-5.579-.867-1.04-1.693-2.487-3.455-2.367l.016.014-.3-.315-1.092-2.619.658-.417c2.111,2.137,4.288,4.214,6.316,6.427,2.21,2.411,4.292,4.938,6.408,7.434,1.6,1.889,1.7,1.9,3.3.029.109-.127.325-.163.492-.241,0,.279.006.559.01.839a4.851,4.851,0,0,0,.449,1.688,10.193,10.193,0,0,1,2.184,6.76,16.357,16.357,0,0,0,.41,3.009l.308-.058,1.115-2.867c-.16,1.587-.322,3.173-.464,4.573-2.308,2.7-4.653,5.352-6.884,8.092-2.174,2.669-2.123,2.71-5.538,1.205a12.139,12.139,0,0,0,2.128.174,4.673,4.673,0,0,0,1.892-.595,1.677,1.677,0,0,0-.307-1.325,15.884,15.884,0,0,0-6.816-2.9,4.949,4.949,0,0,1-4.524-4.519l.87-.908c1.24-.167,1.678-1.12,1.218-2.427a26.075,26.075,0,0,1-.634-2.541c.624.453,1.013,1.491,2.082.835a4.98,4.98,0,0,0,1.233.683c.547.126,1.365.282,1.651,0,.31-.3.234-1.109.153-1.67a3.3,3.3,0,0,0-.6-1.423C1589.089,441.314,1588.206,440.267,1587.354,439.2Z" transform="translate(-2.903 -99.57)" fill="#fbf1e0"/>
    <path id="Path_4618" data-name="Path 4618" d="M1683.779,480.269c1.966-.028,3.946.086,5.893-.117,2.555-.267,5.1-.731,6.836-2.986a2.768,2.768,0,0,1,.876-.672,8.767,8.767,0,0,0,4.168-4.309c.327-.779,1.149-1.337,1.677-2.048,2.091-2.816,4.177-5.638,6.219-8.489,1.258-1.755,2.38-3.61,3.663-5.345,1.5-2.033,3.111-3.99,4.7-5.959.073-.091.408.029.621.052-2.526,4.38-5.175,8.693-7.547,13.153-2.641,4.967-5.014,10.077-7.538,15.106-1.505,3-3.078,5.962-4.609,8.92a6.645,6.645,0,0,1-4.345-2.115c-2.427-2.391-5.872-2.94-8.88-4.284C1684.917,480.91,1684.356,480.574,1683.779,480.269Z" transform="translate(-47.224 -111.935)" fill="#a1dee7"/>
    <path id="Path_4619" data-name="Path 4619" d="M1612.011,494.153c-1.855-1.525-3.442-2.888-5.095-4.165-1.111-.859-.926-1.759-.239-2.691,1.548-2.1,3.094-4.209,4.719-6.25,1.093-1.371,2.337-2.62,3.482-3.951a1.462,1.462,0,0,1,2.443-.07c.842.879,1.589,1.85,2.356,2.8.379.468.713.974,1.2,1.649Z" transform="translate(-13.143 -123.384)" fill="#bae7ed"/>
    <path id="Path_4620" data-name="Path 4620" d="M1750.307,365.181c-1.009,2.926-1.979,5.775-2.984,8.613a2.062,2.062,0,0,1-.681,1.04c-3.753,2.335-7.533,4.628-11.31,6.925-.067.041-.181.005-.433.005.219-2.253.442-4.5.655-6.746a13.723,13.723,0,0,0,.167-2.41c-.1-1.166.737-1.664,1.483-1.993,4.233-1.867,8.511-3.634,12.775-5.43A1.048,1.048,0,0,1,1750.307,365.181Z" transform="translate(-69.66 -74.568)" fill="#bae7ed"/>
    <path id="Path_4621" data-name="Path 4621" d="M1746.718,386.729c-1,.506-2.025.957-2.981,1.53-2.5,1.5-4.874,3.22-7.464,4.529a62.781,62.781,0,0,1-7.807,3.093,4.872,4.872,0,0,1-2.5-.109c-.349-.079-.685-.633-.842-1.043a8.051,8.051,0,0,1-.283-1.633c.34-.93.655-1.871,1.024-2.789a18.575,18.575,0,0,0,1.576-7.846l.833-1.377.328.115c-.233,2.044-.453,4.088-.7,6.13-.132,1.078-.327,2.149-.479,3.225-.127.891.081,1.694,1.046,1.894a2.64,2.64,0,0,0,1.71-.238c4.587-2.632,9.142-5.319,13.7-8a13.391,13.391,0,0,0,1.167-.867Z" transform="translate(-65.244 -81.553)" fill="#a0dde6"/>
    <path id="Path_4622" data-name="Path 4622" d="M1703.637,383.538a18.577,18.577,0,0,1-1.576,7.846c-.369.919-.684,1.859-1.024,2.789-5.05,12.179-12.13,23.136-20.281,33.423-3.6,4.537-6.138,9.64-8.646,14.787a16.88,16.88,0,0,1-.887,1.445l-.619-.645c2.529-5.545,5.159-11.013,8.964-15.858,5.212-6.636,10.289-13.411,14.242-20.877,2.771-5.233,5.854-10.38,7.331-16.222.031-.126.162-.227.247-.34.506-1.511,1.4-2.959.748-4.656Z" transform="translate(-41.442 -82.63)" fill="#525c5d"/>
    <path id="Path_4623" data-name="Path 4623" d="M1662.033,630.637c-.008-.268-.119-.593-.008-.795.775-1.413,1.688-2.757,2.366-4.213a5.264,5.264,0,0,0,.542-2.722c-.474-3.685-.879-7.4-2.432-10.853-.08-.177.07-.458.113-.691a19.839,19.839,0,0,0,4.092,1.056,60.108,60.108,0,0,0,6.3-.314l.191.213a22.21,22.21,0,0,1-1.31,2.968c-3.169,5.092-6.4,10.146-9.613,15.209C1662.23,630.566,1662.115,630.591,1662.033,630.637Z" transform="translate(-37.655 -182.617)" fill="#cbc6bf"/>
    <path id="Path_4624" data-name="Path 4624" d="M1715.818,381.4c.652,1.7-.242,3.145-.748,4.656-.461.293-1.09.48-1.353.9-.962,1.526-1.8,3.131-2.689,4.7a9.289,9.289,0,0,1-.963,1.549c-1.039,1.195-2.132,1.1-2.735-.352-1.084-2.613-2.15-5.248-2.969-7.951-1-3.287-1.733-6.653-2.582-9.985l1.1-.113c1.994,4.318,3.929,8.562,5.936,12.772a1.882,1.882,0,0,0,1.291,1.02,2.612,2.612,0,0,0,1.894-.819c1.029-1.521,1.838-3.192,2.733-4.8l.729-.963Z" transform="translate(-55.124 -78.794)" fill="#9fdce4"/>
    <path id="Path_4625" data-name="Path 4625" d="M1736.691,361.731q.007.233.014.466c-2.5,1.132-4.993,2.3-7.522,3.376-.814.346-1.752.388-2.6.665-.8.261-1.562.648-2.341.98l-5.969-.3c-1.849-1.36-3.881-2.547-4.875-4.68,6.629,1.572,13.034,1.741,19.387-.557a12.55,12.55,0,0,0,1.922-1.1A1.714,1.714,0,0,1,1736.691,361.731Z" transform="translate(-60.222 -72.552)" fill="#f4d9af"/>
    <path id="Path_4626" data-name="Path 4626" d="M1716.3,353.261a40.156,40.156,0,0,1,4.176-.915,6.855,6.855,0,0,1,2.381.41c3.458.888,6.909,1.8,10.363,2.709-3.7,1.837-7.659,1.951-11.675,1.838-2.384-.067-4.76-.03-6.93-1.227a5.252,5.252,0,0,1-.664-.514Z" transform="translate(-60.467 -68.933)" fill="#f7dcb3"/>
    <path id="Path_4627" data-name="Path 4627" d="M1583.159,470.96a4.949,4.949,0,0,0,4.524,4.519,15.887,15.887,0,0,1,6.817,2.9,1.677,1.677,0,0,1,.306,1.325,4.671,4.671,0,0,1-1.892.595,12.125,12.125,0,0,1-2.128-.174,8.838,8.838,0,0,1-6.928-3.267,1.273,1.273,0,0,0-.3-.3c-2.382-1.5-2.94-3.676-2.224-6.349Z" transform="translate(-2.136 -120.665)" fill="#f8e5c6"/>
    <path id="Path_4628" data-name="Path 4628" d="M1711.2,370.687l7.408,5.262-4.612,7.063c-1.443-3.115-2.849-6.05-4.129-9.039-.172-.4.251-1.094.472-1.621C1710.571,371.79,1710.895,371.262,1711.2,370.687Z" transform="translate(-58.654 -76.99)" fill="#bae7ed"/>
    <path id="Path_4629" data-name="Path 4629" d="M1706.868,523.45c-.388,2.01-.714,4.036-1.2,6.021a5.618,5.618,0,0,1-1.1,1.627c-2.68-.771-2.292-2.819-2.324-4.672.449-1.332.871-2.674,1.357-3.992.4-1.091.536-1.147,1.722-1.2C1704.647,523.136,1704.762,523.3,1706.868,523.45Z" transform="translate(-55.327 -143.061)" fill="#a0dde6"/>
    <path id="Path_4630" data-name="Path 4630" d="M1696.752,523.907a9.18,9.18,0,0,1-1.1.278c-1.309.168-1.908-.34-1.843-1.648.126-2.519.3-5.037.487-7.552.021-.276.306-.532.468-.8.466.228.949.427,1.394.69,1.85,1.1,1.9,1.358,1.187,3.3a26.551,26.551,0,0,0-1.212,4.069C1696.033,522.741,1696.527,523.35,1696.752,523.907Z" transform="translate(-51.622 -139.969)" fill="#98d8e2"/>
    <path id="Path_4631" data-name="Path 4631" d="M1711.388,348.16l-2.348,2.3a8.914,8.914,0,0,1-2.1-1.861c-1.489-2.576-2.8-5.254-4.18-7.893.313.252.74.44.918.766a16.223,16.223,0,0,0,5.2,5.606A13.683,13.683,0,0,0,1711.388,348.16Z" transform="translate(-55.553 -63.833)" fill="#f5e3c4"/>
    <path id="Path_4632" data-name="Path 4632" d="M1585.245,428.081c1.762-.12,2.588,1.328,3.455,2.367,1.441,1.728,2.428,3.832,3.85,5.579a4.7,4.7,0,0,1,1.288,3.867c-2.105-2.853-4.218-5.7-6.312-8.561C1586.744,430.265,1586,429.166,1585.245,428.081Z" transform="translate(-3.98 -102.175)" fill="#f5e3c4"/>
    <path id="Path_4633" data-name="Path 4633" d="M1613.4,447.3q-.005-.42-.01-.839c1.548.79,3.125,1.531,4.625,2.4a1.764,1.764,0,0,1,.817,1.315c-.151,1.567-.5,3.115-.77,4.67a27.616,27.616,0,0,0-1.329-2.637C1615.674,450.546,1614.521,448.935,1613.4,447.3Z" transform="translate(-16.334 -110.246)" fill="#f4d9af"/>
    <path id="Path_4634" data-name="Path 4634" d="M1590.765,452.541c.853,1.069,1.735,2.116,2.544,3.217a3.3,3.3,0,0,1,.6,1.423c.081.561.157,1.366-.153,1.67-.286.281-1.1.125-1.651,0a4.974,4.974,0,0,1-1.233-.683,2.335,2.335,0,0,0-.14-3.275C1590.352,454.445,1590.732,453.345,1590.765,452.541Z" transform="translate(-6.315 -112.914)" fill="#f5e3c4"/>
    <path id="Path_4635" data-name="Path 4635" d="M1613.412,447.957c1.117,1.634,2.269,3.245,3.334,4.912a27.667,27.667,0,0,1,1.329,2.637l-.2.983q-.557,1.433-1.116,2.867l-.308.058a16.337,16.337,0,0,1-.41-3.009,10.192,10.192,0,0,0-2.184-6.76A4.855,4.855,0,0,1,1613.412,447.957Z" transform="translate(-16.342 -110.902)" fill="#f8e5c6"/>
    <path id="Path_4636" data-name="Path 4636" d="M1585.822,459.826a26.112,26.112,0,0,0,.634,2.541c.461,1.307.022,2.26-1.218,2.427a8.355,8.355,0,0,0-.94-2.354c-1.214-1.48.133-2.52.363-4.217Z" transform="translate(-3.345 -115.407)" fill="#f5e3c4"/>
    <path id="Path_4637" data-name="Path 4637" d="M1752.65,360.2a1.714,1.714,0,0,0-1.987-1.145l-.9-1.37a30.984,30.984,0,0,1,3.554-.6c1.035-.061,1.45.909.791,1.762A11.6,11.6,0,0,1,1752.65,360.2Z" transform="translate(-76.181 -71.019)" fill="#f8e5c6"/>
    <path id="Path_4638" data-name="Path 4638" d="M1722.083,371.887l5.969.3c-.251,1.492-1.292,1.808-2.486,1.4A29.854,29.854,0,0,1,1722.083,371.887Z" transform="translate(-64.035 -77.516)" fill="#f4e4c7"/>
    <path id="Path_4639" data-name="Path 4639" d="M1777.262,404.83c-.178.236-.339.656-.539.675-.852.081-2.121-2.341-1.683-3.141Z" transform="translate(-87.237 -90.892)" fill="#e9e9e9"/>
    <path id="Path_4640" data-name="Path 4640" d="M1725.815,568.233c.751-1.463,1.769-2.043,2.915-1.662Z" transform="translate(-65.673 -162.909)" fill="#fefefe"/>
    <path id="Path_4641" data-name="Path 4641" d="M1701.832,337.607q.264.875.528,1.75Z" transform="translate(-55.147 -62.472)" fill="#f5e3c4"/>
    <path id="Path_4642" data-name="Path 4642" d="M1725.6,387.641l-.729.963Z" transform="translate(-65.256 -84.43)" fill="#525c5d"/>
    <path id="Path_4643" data-name="Path 4643" d="M1745.5,449.5c-.5-.869-.03-1.019.716-.965Z" transform="translate(-74.219 -111.15)" fill="#a1dee7"/>
    <path id="Path_4644" data-name="Path 4644" d="M1747.287,447.094l-.254-.4,1.114-.171Z" transform="translate(-74.985 -110.272)" fill="#a1dee7"/>
    <path id="Path_4645" data-name="Path 4645" d="M1800.395,464.276v.838l-.229.08-.26-.837Z" transform="translate(-98.189 -118.064)" fill="#fefefe"/>
    <path id="Path_4646" data-name="Path 4646" d="M1584.738,427.549l.3.315Z" transform="translate(-3.758 -101.945)" fill="#f5e3c4"/>
    <path id="Path_4647" data-name="Path 4647" d="M1681.633,612.686l.37.011-.179.2Z" transform="translate(-46.283 -183.197)" fill="#cbc6bf"/>
    <path id="Path_4648" data-name="Path 4648" d="M1642.931,300.535l1.651,1.162c-.5.59-1.073,1.172-1.54,1.828-.695.975-1.533.4-2.317.282q-4.281-.633-8.554-1.323a3.581,3.581,0,0,1-1.461-.681c1.532-.389,2.493-1.912,4.482-1.444a33.725,33.725,0,0,0,6.363.407A6.849,6.849,0,0,0,1642.931,300.535Z" transform="translate(-23.934 -46.085)" fill="#f4e4c7"/>
    <path id="Path_4649" data-name="Path 4649" d="M1640.427,285.9c-2.267-.025-4.534-.025-6.8-.085-1.113-.03-2.223-.17-3.418-.267,1.09-1.978,3.113-2.544,8.366-2.5.632.149,1.257.347,1.9.435,1.144.158,1.169.777.7,1.589A5.425,5.425,0,0,1,1640.427,285.9Z" transform="translate(-23.714 -38.526)" fill="#f5e3c4"/>
    <path id="Path_4650" data-name="Path 4650" d="M1649.235,313.482v2.062q-3.43,0-6.88,0c-.663,0-1.328.007-1.99-.018-1.178-.045-1.816-.5-1.294-1.789a27.6,27.6,0,0,1,3.281-.782c1.194-.144,2.456.13,3.614-.121A3.344,3.344,0,0,1,1649.235,313.482Z" transform="translate(-27.522 -51.534)" fill="#f8e5c6"/>
    <path id="Path_4651" data-name="Path 4651" d="M1654.083,328.272c-.469.9-.185,2.282-1.734,2.716v-8.238h1.936c.013.977.046,1.954.031,2.93-.01.692-.081,1.384-.125,2.077l-.115-.026s.11.042.107.039c-.12.028-.237.058-.355.088Z" transform="translate(-33.43 -55.952)" fill="#f7dcb3"/>
    <path id="Path_4652" data-name="Path 4652" d="M1646.97,285.579a5.41,5.41,0,0,0,.741-.831c.474-.812.448-1.431-.7-1.589-.64-.089-1.266-.287-1.9-.435,1.542-.127,3.091-.21,4.626-.4.991-.122,1.554.426,1.563,1.2a3.264,3.264,0,0,1-.762,2.158C1649.426,286.8,1648.136,286.621,1646.97,285.579Z" transform="translate(-30.257 -38.202)" fill="#fbf1e0"/>
    <path id="Path_4653" data-name="Path 4653" d="M1634.364,292.4c2.942-.283,5.93-1.1,8.682.769a30.67,30.67,0,0,1-5.052.74C1636.712,293.9,1635.042,294.151,1634.364,292.4Z" transform="translate(-25.537 -42.447)" fill="#f5e3c4"/>
    <path id="Path_4654" data-name="Path 4654" d="M1649.379,312.214a3.345,3.345,0,0,0-3.27-.65c-1.158.251-2.42-.022-3.614.121a27.6,27.6,0,0,0-3.281.782c.386-1.351,1.581-2.094,3.409-2.041a21.623,21.623,0,0,0,2.812.208,37.325,37.325,0,0,0,3.944-.839Z" transform="translate(-27.666 -50.266)" fill="#f7ecda"/>
    <path id="Path_4655" data-name="Path 4655" d="M1633.264,292.734c.678,1.748,2.348,1.5,3.63,1.508a30.674,30.674,0,0,0,5.052-.74l1.126.589c-1.453,1.09-8.334.974-11.214-.217Z" transform="translate(-24.437 -42.778)" fill="#f7ecda"/>
    <path id="Path_4656" data-name="Path 4656" d="M1655.633,327.758c.044-.692.115-1.384.125-2.077.014-.976-.019-1.953-.031-2.93a1.954,1.954,0,0,1,1.384,2.687A16.105,16.105,0,0,1,1655.633,327.758Z" transform="translate(-34.872 -55.952)" fill="#fbf1e0"/>
    <path id="Path_4657" data-name="Path 4657" d="M1655.242,332.2l-.254-.414c.118-.03.235-.06.354-.088C1655.311,331.866,1655.276,332.032,1655.242,332.2Z" transform="translate(-34.589 -59.878)" fill="#fbf1e0"/>
    <path id="Path_4658" data-name="Path 4658" d="M1716.633,287.8a1.481,1.481,0,0,1,2.007-.848c.889.324.831,1.07.636,1.911-.763,3.278-1.464,6.571-2.152,9.865-.164.784-.19,1.6-.321,2.757a39.33,39.33,0,0,0,4-.421,1.9,1.9,0,0,1,2.217,1.1c.147.274-.412.928-.649,1.408-2.106.153-4.214.426-6.319.415a1.859,1.859,0,0,1-1.956-2.251c.219-1.924.447-3.85.781-5.756.447-2.548,1-5.077,1.507-7.614Z" transform="translate(-60.519 -40.188)" fill="#444340"/>
    <path id="Path_4659" data-name="Path 4659" d="M1717.728,326.878a17.36,17.36,0,0,1-3.347-.474,1.941,1.941,0,0,1-.927-1.586c.067-.94.8-.752,1.609-.642a17,17,0,0,0,12.714-3.031c2-1.441,3.607-3.063,4.208-5.552a2.067,2.067,0,0,1,1.171-1.093c.886-.368,1.472-.194,1.284,1.026a9.849,9.849,0,0,1-3.482,6.176A19.947,19.947,0,0,1,1717.728,326.878Z" transform="translate(-60.247 -52.256)" fill="#454543"/>
    <path id="Path_4660" data-name="Path 4660" d="M1712.823,288.561l-.253.57a8.963,8.963,0,0,0-2.354,4.738,5.886,5.886,0,0,1-.482,1.18c-.773,2.224-1.562,4.442-2.28,6.684-.228.712-.192,1.5-.384,2.23-.323,1.222.021,1.921,1.3,1.976,1.866.081,3.74-.038,5.611-.025,1.151.007,2.3.1,3.452.153a32.491,32.491,0,0,1-5.08,1.628,22.823,22.823,0,0,1-4.616-.212c-1.829-.1-2.427-.624-2.338-2.457.141-2.871.412-5.735.629-8.6,1.388.816,2.4.429,2.467-1.115a31.729,31.729,0,0,0-.331-4.151,31.321,31.321,0,0,1,2.839-2.281A4.9,4.9,0,0,1,1712.823,288.561Z" transform="translate(-56.709 -40.947)" fill="#f8e5c6"/>
    <path id="Path_4661" data-name="Path 4661" d="M1718.657,306.512c-1.151-.054-2.3-.146-3.452-.153-1.871-.012-3.744.107-5.611.025-1.279-.056-1.623-.754-1.3-1.976.192-.727.156-1.519.384-2.23.718-2.241,1.507-4.46,2.28-6.684a5.879,5.879,0,0,0,.482-1.18,8.964,8.964,0,0,1,2.355-4.738c-.507,2.537-1.061,5.066-1.507,7.614-.334,1.906-.562,3.832-.781,5.756a1.859,1.859,0,0,0,1.956,2.251c2.105.012,4.213-.261,6.319-.415Z" transform="translate(-57.933 -41.392)" fill="#f7dbb1"/>
    <path id="Path_4662" data-name="Path 4662" d="M1739.086,294.193c0-.382-.134-.837.027-1.13.379-.687.778-1.637,1.391-1.853a1.684,1.684,0,0,1,2.11,1.16,6.133,6.133,0,0,1-.582,5.274c-.239.39-1,.882-1.244.763a2.812,2.812,0,0,1-1.392-1.389A13.432,13.432,0,0,1,1739,294.2Z" transform="translate(-71.46 -42.073)" fill="#444340"/>
    <path id="Path_4663" data-name="Path 4663" d="M1742.578,279.543c2.72-.025,4.227,1.936,5.776,3.686.31.35-.129,1.364-.222,2.071a6.2,6.2,0,0,1-1.518-.625c-.823-.63-1.5-1.454-2.341-2.054a3.52,3.52,0,0,0-1.815-.619c-1-.036-1.944-.133-1.9-1.348C1740.6,279.359,1741.685,279.516,1742.578,279.543Z" transform="translate(-72.141 -36.98)" fill="#454543"/>
    <path id="Path_4664" data-name="Path 4664" d="M1701.708,277.746l3.7-1.434c.52.029,1.177-.129,1.527.129a9.3,9.3,0,0,1,1.47,1.724,6.866,6.866,0,0,1-1.734.9c-1.17.229-2.493-.073-3.3,1.166l-2.217-.114C1700.5,279.13,1701.182,278.457,1701.708,277.746Z" transform="translate(-54.732 -35.561)" fill="#444340"/>
    <path id="Path_4665" data-name="Path 4665" d="M1708.067,292.506a31.749,31.749,0,0,1,.331,4.151c-.068,1.544-1.079,1.931-2.467,1.115-1.079-1.741-.8-3.613-.456-5.461.052-.284.642-.733.866-.673A8.758,8.758,0,0,1,1708.067,292.506Z" transform="translate(-56.612 -42.294)" fill="#424241"/>
    <path id="Path_4666" data-name="Path 4666" d="M1700.963,283.109l2.217.114c-.029,3.15-1.02,6.111-1.785,9.117-.136.533-.334,1.049-.5,1.573-.154-.171-.448-.35-.439-.512.131-2.407.316-4.81.455-7.215C1700.966,285.162,1700.947,284.135,1700.963,283.109Z" transform="translate(-54.542 -38.554)" fill="#f8e5c6"/>
  </g>
</svg>
