<svg xmlns="http://www.w3.org/2000/svg" xmlns:xlink="http://www.w3.org/1999/xlink" width="2265.958" height="676.219" viewBox="0 0 2265.958 676.219">
  <defs>
    <filter id="Trazado_4186" x="0" y="290.339" width="2265.958" height="385.88" filterUnits="userSpaceOnUse">
      <feOffset dy="-3" input="SourceAlpha"/>
      <feGaussianBlur stdDeviation="6" result="blur"/>
      <feFlood flood-opacity="0.161"/>
      <feComposite operator="in" in2="blur"/>
      <feComposite in="SourceGraphic"/>
    </filter>
  </defs>
  <g id="Grupo_269" data-name="Grupo 269" transform="translate(494.498 -486)">
    <g transform="matrix(1, 0, 0, 1, -494.5, 486)" filter="url(#Trazado_4186)">
      <path id="Trazado_4186-2" data-name="Trazado 4186" d="M5.375,3.19C2.087,3.95,2229.958,0,2229.958,0V164.984s-59.981-25.932-360.012,13.445-326.366,132.085-745.07,167.378-560.4-174.593-929.747-26.2C93.557,360.411,33.748,354.788.366,325.219-1.974,324.381,7.758,2.639,5.375,3.19Z" transform="translate(2247.96 661.22) rotate(180)" fill="#f6f3ed"/>
    </g>
    <g id="Grupo_187" data-name="Grupo 187" transform="translate(1204.015 486)">
      <path id="Trazado_3842" data-name="Trazado 3842" d="M247.551,293.24l-.038,1.257-.914,1.347-.4,1.3-.021.451-.415.866c-.014,1.167-.035,2.333-.042,3.5-.016,3.1-.828,3.745-3.908,3.051-.327-.074-.6-.412-.926-.469a13.251,13.251,0,0,0-2.191-.21c-.416,0-.844.271-1.252.239-3.249-.25-6.489-.629-9.74-.806q-13.484-.735-26.975-1.326c-2.694-.118-5.4.081-8.091-.076a3.435,3.435,0,0,1-2.5-1.224A55.953,55.953,0,0,1,187,294.251c-.416-1.059-.614-2.071-2.153-1.662.282,1.453.541,2.788.8,4.125l-1.775.881c.015-.8-.009-1.61.052-2.41.561-7.311,1.4-14.613,1.64-21.934.289-8.835.072-17.687.072-26.531,0-7.163.023-14.326-.042-21.488a7.376,7.376,0,0,0-.815-2.262l-.844.269c.125,1.7.379,3.408.354,5.109-.267,17.725.779,35.472-.849,53.177-.326,3.542-.488,7.1-.865,10.636-.35,3.283-.886,6.546-1.339,9.816-10.478-.145-20.957-.178-31.43-.465-11.683-.32-23.36-.868-35.04-1.325a5.187,5.187,0,0,1-.853-.178q.378-5.187.754-10.376a11.3,11.3,0,0,1,.187-2.143c1.2-4.259,2.584-8.468,3.644-12.758,1.194-4.834,1.253-9.893,3.459-14.546a29.33,29.33,0,0,0,2.331-17.459,30.3,30.3,0,0,1-.035-4.6c4.9-1.378,9.667-2.461,14.252-4.057,9.4-3.272,18.785-6.593,28-10.333A33.455,33.455,0,0,1,184.22,221.8c5.523.778,11.02,1.728,16.537,2.545,6.38.945,12.819,1.57,19.142,2.8,7.96,1.544,15.834,3.539,23.735,5.377,3.517.818,3.48.859,3.413,4.43-.163,8.6-.16,17.207-.483,25.8-.288,7.6,1.036,15.256-.756,22.807-.071.3.257.668.325,1.02.317,1.624.606,3.253.905,4.88l0,1.75Z" transform="translate(-106.45 6.414)" fill="#49536c"/>
      <path id="Trazado_3843" data-name="Trazado 3843" d="M247.746,312.148l-.516-.03,0-1.75c-.3-1.627-.588-3.256-.905-4.88-.068-.351-.4-.724-.325-1.02,1.792-7.552.468-15.208.756-22.807.324-8.594.32-17.2.483-25.8.067-3.571.1-3.612-3.413-4.43-7.9-1.838-15.776-3.832-23.735-5.377-6.324-1.227-12.762-1.852-19.142-2.8-5.517-.816-11.014-1.766-16.537-2.545a33.455,33.455,0,0,0-17.713,1.931c-9.214,3.74-18.6,7.061-28,10.333-4.585,1.6-9.348,2.679-14.252,4.057a30.3,30.3,0,0,0,.035,4.6,29.33,29.33,0,0,1-2.331,17.459c-2.206,4.653-2.265,9.712-3.459,14.546-1.06,4.29-2.449,8.5-3.644,12.758a11.3,11.3,0,0,0-.187,2.142q-.477,3.1-.955,6.2h-1.25c.438-3.221.4-6.6,1.442-9.616,1.1-3.19.414-6.394,1.095-9.495.918-4.182,2.065-8.311,3.114-12.464a10.87,10.87,0,0,0,1.3-1.658c3.493-6.79,3.857-14.1,3.505-21.52-.059-1.25-.427-2.14-1.84-2.215l-2.576-.861,1.3-.934.475.024.438.007c3.266-.436-.557-2.519,1.111-3.587.519.436,1.417.838,1.694,1.5.545,1.306,1.316,1.276,2.43.984a230.623,230.623,0,0,0,28.411-9.105c6.843-2.783,13.541-6.007,20.861-7.5,5.465-1.117,10.891-2.415,16.358-3.514,8.037-1.617,16.094-3.135,24.145-4.686,3.957-.762,7.918-1.5,11.738-2.227-.356-8.5-.695-16.622-1.057-25.259-2.417.424-4.471.7-6.469,1.192a2.081,2.081,0,0,0-1.314,1.428c-.134,3.176.014,6.364-.125,9.539-.169,3.854-3.3.244-4.546,1.622a18.081,18.081,0,0,1-1.55-1.247c-.075-.066-.016-.282-.025-.428a60.432,60.432,0,0,1-.384-6.3c.068-1.889-.42-2.56-2.422-2.481-6.63.261-13.267.334-19.9.5a8.275,8.275,0,0,0-1.5.246c-5.809,1.247-11.683,2.26-17.408,3.82-6.027,1.643-12.494,1.477-18.078,5.172-2.714,1.8-6.394,1.661-9.8,1.046-.787-.142-1.709.48-2.573.734-.472.139-.964.21-1.428.369-.8.271-1.578.586-2.367.882l-.468,0a12.428,12.428,0,0,1-.74-3.164c.022-.973.577-2.753.933-2.762,1.657-.042,1.476-1.243,1.535-2.089.238-3.408.42-6.824.468-10.239.073-5.111-.03-10.226.054-15.337a12.693,12.693,0,0,1,.835-3.062,12.334,12.334,0,0,1,.85,3.047c.088,5.22.04,10.443.04,15.215,2.731-.9,5.38-1.808,8.061-2.61a1.45,1.45,0,0,1,1.3.505c.474,1.5,1.637,1.168,2.689,1.19,1.24.027,2.49-.045,3.719.09,4.749.524,9.511.991,14.231,1.718A65.554,65.554,0,0,1,181.2,203.55c3.654,1.235,3.756,1.512,6.652-1.436a32.46,32.46,0,0,1-1.616-3.284,11.689,11.689,0,0,0-4.73-5.53c-5.965-4.139-11.91-8.308-17.933-12.36-2.914-1.962-5.287-4.832-9.057-5.473-.375-.064-.956-1.661-.7-2.206,1.4-3.03,3.06-5.942,4.58-8.92,1.1-2.146.661-3.438-1.509-4.333a37.18,37.18,0,0,0-4.339-1.44c-3.619-.992-4.3-2.079-3.446-5.787a11.062,11.062,0,0,1,.471-1.456q2.119-5.572,4.253-11.139l.66-.412-.259-.26-.412.661c-1.85.78-3.682,1.606-5.555,2.327-2.662,1.025-5.355,1.975-8.035,2.956l-.886.438-12.721,5.695-1.313-1.742c8.316-3.614,16.648-7.193,24.942-10.857,4.186-1.85,8.305-3.854,12.456-5.788l.731-.309,5.164-1.207c1.247-3.329.116-6.336-1.906-9.172q-.947-1.327-1.889-2.658l-.022-1.5a11.146,11.146,0,0,1,2.105.273c2.379.77,4.731,1.622,7.093,2.443l1.342.21,1.727.191c.391.283.778.806,1.172.812,2.669.036,5.345-.141,8,0,.659.035,1.268.985,1.9,1.514-.031.068-.062.135-.095.2-1.095,0-2.2.066-3.286-.029-4.553-.4-9.1-.84-13.65-1.267l-1.268-.331-.111.431,1.282.251,1.268,1.7.845.516,2.65,1.7,2.422,1.858.607.476-.059-.029c1.363,2.156,3.269,2.387,5.477,1.546l.172-.015c6.63-1.54,12.032-5.222,16.755-9.921,1.284-1.279,1.993-3.158,2.861-4.817.175-.334-.126-.916-.208-1.384l-.417-.813V112.12q3.435-4.195,6.872-8.387l1.2-.216-.627-.608,1.757-2.653,1.356,1.351c-2.128,2.873-4.3,5.711-6.35,8.641a11.176,11.176,0,0,0-1,2.74l-.154.884q.078,1.29.157,2.582,0,.929-.006,1.859l.108,1.225-2.065.877-.145-.008a69.436,69.436,0,0,1-5.312,5.069,39.6,39.6,0,0,1-13.821,7.373c2.215,2.6,4.388,5.111,6.521,7.658.932,1.113,1.74,2.331,2.682,3.434.692.812,1.346.906,2.054-.175,4.425-6.757,9.321-13.325,8.094-22.143l2.007-.283c.06.179.121.358.182.536l.333.754c1.942,1.223,3.877,2.457,5.83,3.662.487.3,1.045.76,1.541.725,2.657-.186,4.265,1.451,5.864,3.157l1.486.749a.21.21,0,0,1,.289.11l1.361.807,1.727.851.864.474.869.462,1.38.838,5.186,3.148,1.308.832.9.542c.025.96.231,1.614,1.317.776l1.313.886,1.388.83,14.837,7.072c1.621,1.691,3.279,3.309,5.918,2.971l.148-.009.082.124.924.816,5.748,8.311c-.658,1.469-.475,1.671,1.636,1.8l.109.069-.013.128.346.675.816,2.225.5,1.286.111.089-.024.14,1.044,5.48.18,2.2c-.88,1.532-.474,2.281,1.328,2.179.02,11.217.088,22.436.04,33.653-.025,5.887-.257,11.772-.394,17.658a14.154,14.154,0,0,1-.528,1.679,11.623,11.623,0,0,1-.858,1.4c-.147-3.631-.323-7.261-.434-10.894-.171-5.639-.291-11.281-.446-16.921-.289-10.478-.492-20.959-.934-31.43a15.261,15.261,0,0,0-4.429-10.394c.451,3.5.955,6.576,1.22,9.671.4,4.688,1.292,9.465.772,14.068-.629,5.568-2.612,10.972-3.831,16.486-1.785,8.062-3.41,16.16-5.111,24.241a1.573,1.573,0,0,1-.3.8c-.494.458-1.06.838-1.6,1.25-.23-.609-.7-1.239-.645-1.824a34.873,34.873,0,0,1,.782-3.949l-3.034-1.188c-1.435-1.588-2.516-1.594-3.073-.016-3.489-.287-7.038.653-10.5-.761-.788-.321-2.669-.962-3.01.9a26.544,26.544,0,0,0-.053,4.606l3.046-.336.431.429c-.549.438-1.044,1.156-1.653,1.274-9.109,1.75-18.232,3.417-27.35,5.113-5.84,1.087-11.675,2.208-17.519,3.276-4.822.883-9.654,1.712-15.007,2.658,7.19,1.076,13.767,2.075,20.35,3.042,6.308.926,12.672,1.563,18.92,2.786q13.443,2.632,26.74,5.985c5.326,1.336,10.466,3.479,16.128,2.614l.883.869-4.553.978-3.864.387-4.761-2.113v12.613l-.023,1.731c-.127,12.684-.371,25.369-.277,38.052A22.16,22.16,0,0,1,247.746,312.148ZM211.708,137.138a3.806,3.806,0,0,0,0,.414c-.008.147-.016.292-.027.438l-.413.451c-.3,1.317-.555,2.644-.9,3.949-1,3.8-2.032,7.6-3.052,11.394l-.442,1.748c-.008.145-.017.29-.027.435l-.834.912-.025,2.6-.427.886-.022.867-.43.883-.025.867-.46,1.32-.383.919c0,.117-.008.235-.013.351l-.435.489-.436,1.318-8.8,27.365.517.369a10.979,10.979,0,0,0,1.488-1q4.521-4.235,9-8.521,6.364-6.113,12.684-12.269c3-2.928,2.9-4.8.083-7.916-2.138-2.361-4.094-4.894-6.019-7.436-1.2-1.587-.672-2.617,1.083-3.4,2.99-1.326,5.913-2.812,8.8-4.36a2.437,2.437,0,0,0,.881-1.776c.287-4.762.053-9.377-2.628-13.654-1.889-3.014-4.328-4.964-7.037-4.7-1.429.687-.886,1.675-.406,2.654.007.143.009.287.009.43l-.425.437-.007.01-.874,3.064h0c-.059.04-.172.1-.166.116a2.121,2.121,0,0,0,.151.314Zm-28.5,54.368-.451-.442c-.247-.6-.476-1.207-.745-1.8q-3.787-8.319-7.587-16.63l-.839-1.327-.487-1.726-1.255-1.775a13.132,13.132,0,0,0-.578-2.052c-1.4-3.044-3.079-5.98-4.244-9.109-2.228-5.983-4.183-12.067-6.235-18.116-.56-1.651-1.243-1.842-2.4-.469a16.5,16.5,0,0,0-2.923,4.037c-1.6,3.923-2.963,7.943-4.258,11.978-.444,1.383.251,2.236,1.88,2.509a19.6,19.6,0,0,1,4.52,1.543c3.779,1.659,4.475,4.186,2.371,7.709-1.474,2.467-2.776,5.037-4.118,7.493,1.782,1.068,3.327,1.874,4.741,2.867,5.175,3.632,10.266,7.383,15.472,10.969,2.117,1.458,4.444,2.609,6.676,3.9l0,.454.76.494Zm7.424-41.68.029.025-2.519-7.518-3.111,3.08q-.489,3.543-.977,7.086-.647,2.584-1.295,5.168-.633,2.013-1.267,4.027-.567,2.436-1.133,4.873l-.23.838-.492,5.616c-.2,1.594-1.025,3.457-.484,4.74,3.036,7.2,6.4,14.266,9.666,21.371a3.832,3.832,0,0,0,.579.687c2.835-2.561,2.9-6.216,4.3-9.237l.882-3.273q1.363-5.067,2.723-10.138c2.121-1.827.76-3.846.321-5.815q-1.758-6.4-3.519-12.8l-.4-.4.029.031-2.713-8.007Zm-11.069,9.294.543-.968c.771-3.829,1.424-7.687,2.357-11.475.566-2.3-.354-3.066-2.673-3.215-.2,1.63-.357,3.266-.606,4.888-.179,1.166-.1,2.675-2.066,2.2a14.645,14.645,0,0,1-5.378-6.711c-1.021-2.564-2.234-5.061-3.1-7.674a2.041,2.041,0,0,0-2.76-1.6c-.494.106-.954.416-1.447.469-2.077.229-2,1.347-1.373,2.9a23.413,23.413,0,0,1,.809,3.14l.121.4q1.047,3.305,2.1,6.61l.336.883q.713,2.188,1.424,4.377l-.724.876,1.217.419,7.457,15.777c.3.8.6,1.593,1.061,2.8Zm38.717,2.56,3.939,4.834c-.081,2.916.738,6-2.239,8.224a45.243,45.243,0,0,0-4.169,4.1q-7.679,7.479-15.377,14.939c-.209.2-.434.39-.651.585-4.014,3.606-8.029,7.212-12.315,11.063a8.3,8.3,0,0,0,1.475.274c5.787-.335,11.571-.725,17.36-1.029a47.622,47.622,0,0,0,12.217-1.867c1.969-.631,4.087-.785,6.119-1.234a3.748,3.748,0,0,0,2.081-.879c2.231-2.934,5.113-1.56,7.828-1.362,2.475.179,1.894,2.335,2.435,3.993,5.019-.324,9.642.695,13.328,4.4l-.407.786a27.484,27.484,0,0,1-2.713-1.391c-3.228-2.117-6.723-1.9-10.476-1.46,0,3.644-.111,7.132.086,10.6.044.784,1.133,2.136,1.779,2.158,5.152.178,10.313.1,15.159.1,1.689-3.573.446-5.794-1.661-7.777l.861-.827c1.964.6,2.349,2.238,2.624,3.954l.423.438c.208.047.579.178.6.132,1.14-2.231,2.613-4.375,3.293-6.743,1.741-6.069,3.321-12.2,4.585-18.385a44.691,44.691,0,0,0,1.018-11.23,139.349,139.349,0,0,0-2.049-14.376,37.964,37.964,0,0,0-1.476-7.176c-1.176-3.184-4.239-4.437-7.156-5.506a112.844,112.844,0,0,1-21.574-10.952c-2.868-1.82-5.867-3.434-8.807-5.14l-.882-.45-.569-.3.117.3a31,31,0,0,1,2.273,13.992,3.948,3.948,0,0,1-2.464,3.9c-2.921,1.387-5.809,2.845-8.8,4.319l4.187,4.987Zm-77.235,43.4-.617-1.286a57.009,57.009,0,0,0-.42,9.943,1.889,1.889,0,0,0,1.2,1.334,28.428,28.428,0,0,0,4.93.5c.495.008,1-.6,1.5-.919.175-.39.5-.783.5-1.171-.044-4.511-.138-9.021-.219-13.532l.317-.794-1.039.3c-3.04.677-6.188,1.235-6.043,5.45C141.167,204.962,141.089,205.023,141.049,205.082Zm87.67.03c-.045.042-.135.095-.128.123a1.719,1.719,0,0,0,.134.294c.3,6.58.583,13.162.935,19.74a5.271,5.271,0,0,0,.8,1.719l3.622-.85a12.535,12.535,0,0,0,.368-2.088c.071-7.051.105-14.1.15-21.154.044-.049.134-.119.124-.141a2.03,2.03,0,0,0-.192-.287.543.543,0,0,1-.037-.4l-.369-.917c-1.057-.148-2.111-.311-3.17-.438-1.336-.162-2.313.165-2.258,1.783q.007.851.013,1.7Zm-28.86-34.659-.121.668.56-.684q.877-2.84,1.756-5.681l7.1-26.312c.563-2.32,1.2-4.624,1.673-6.963.735-3.645.541-3.943-2.96-5.666-.335.891-.72,1.758-.988,2.659a49.354,49.354,0,0,1-7.046,14.962c-2.516,3.492-2.736,5.346-7.662,2.02-.047-.032-.142,0-.215.01l-.132-.6-.179.106.332.481c1.547,4.288,3.225,8.534,4.6,12.876C197.841,162.314,198.777,166.407,199.858,170.453Zm-16.227,35.526a106.873,106.873,0,0,0-10.654-2.809c-4.207-.687-8.509-.775-12.768-1.146-1.3-.113-1.658.518-1.59,1.691a28.162,28.162,0,0,1-.007,3.061c-.126,2.456-1.879,2.26-3.625,2.309-1.927.054-1.61-1.213-1.616-2.347-.009-1.94,0-3.879,0-6.557-1.52.644-3.269.942-3.353,1.494-.509,3.34-.638,6.738-.91,10.336a13.1,13.1,0,0,0,2.2.087c4.8-.632,9.62-1.2,14.394-2.008,5.705-.965,11.374-2.149,17.058-3.238l1.506-.316Zm-6.738-58.3c.743-3.219,1.321-6.187,2.123-9.1,1.316-4.77,1.386-4.765-2.388-7.787-1.481-1.186-3.019-2.3-4.683-3.57-.2,2.029.138,3.928-.627,5.119-1.235,1.92-.531,3.428.079,5.066C172.727,141,174.007,144.619,176.894,147.684Zm40.284,66.879v-9.334c-3.283.2-3.284.2-3.287,3.051q0,1.859,0,3.719C213.9,214.956,213.9,214.956,217.177,214.563ZM182.11,135.095c-.3,2.21-1.78,4.447.237,6.246,1.295,1.155,4.177-.045,5.343-1.859C185.867,136.691,184.313,135.418,182.11,135.095ZM155.5,200.562l-.8.366c0,1.85-.068,3.7.051,5.545.028.434.684.827,1.052,1.237.36-.419.979-.809,1.03-1.262a14.054,14.054,0,0,0-.008-3.884C156.7,201.842,155.96,201.226,155.5,200.562Zm-2.286,13.561-.094-.656a29.861,29.861,0,0,0-3.314.05c-.281.031-.494.677-.738,1.042.335.2.721.616,1,.553C151.132,214.865,152.165,214.465,153.213,214.123Zm104.254,5.695-.534-.483-.852,1.209.556.4Zm-.035-2.246.608.043V216.4l-.368-.045Zm-.532-1.84-.44-.31-.624.854.309.255Z" transform="translate(-106.646 -12.494)" fill="#494645"/>
      <path id="Trazado_3844" data-name="Trazado 3844" d="M156.975,34.549a1.363,1.363,0,0,0,.024-.387q2.88-1.649,5.761-3.295c6.266-3.562,13.116-4.425,20.165-4.358,4.23.04,7.773,2.225,11.547,3.695,6.3,2.452,11.357,6.057,15.011,12.154,4.2,7.015,8.739,13.776,10.334,21.924a67.887,67.887,0,0,1,.761,9.754c.11,2.295.022,4.6.022,6.688l-2.639.794L216.2,82.4h0l-.44.88c-1.512.92-1.128,3.862-3.846,3.562-.286-3.027-.528-6.056-.867-9.074-.436-3.886-.909-7.769-1.466-11.639a7.463,7.463,0,0,0-1.03-2.073c-.371.674-1.088,1.366-1.053,2.019.15,2.745.553,5.474.809,8.214.353,3.754.464,7.542,1.037,11.26s.312,3.036-2.57,4.735a12.961,12.961,0,0,1-2.126.751c-1.49-8.345-2.95-16.526-4.438-24.854-1.607.683-1.634,1.731-1.368,3.091a7.808,7.808,0,0,1-.156,2.9,18.849,18.849,0,0,1-.895,2.617q-.414,1.176-.831,2.349l-.814.413,3.109,1.131-.637-4.983.778-.1q.506,4.16,1.012,8.318l-2.519.1-2.76-.486c-.724-7.324-1.461-14.782-2.2-22.241l-.943-.253a8.3,8.3,0,0,0-.86,2.176c-.17,1.815-.146,3.649-.2,5.475H190.2c-.639-1.726-.246-3.939-2.321-5l2.881,9.268.6-.161.523-1.523a41.064,41.064,0,0,1,.541,5.114,3.1,3.1,0,0,1-1.161,2.2A17.609,17.609,0,0,1,187.7,78.03c0-1.729.118-3.119-.022-4.481-.376-3.668-.74-7.343-1.339-10.979A12.925,12.925,0,0,0,182.07,54.7c-1.225-1.054-2.728-2.282-4.216-2.447-4.727-.525-8.746.954-11.169,5.564-.569-.305-1.071-.573-1.572-.844-1.865-1-5.815-.891-6.946.305-3.979,4.213-7.37,8.8-9.074,14.458-.119.4-.573.691-.872,1.032l1.155-4.994-.719-.2-2.765,10.553-1.265-1.409v5.861l1.814-2.024-1.868-.946,2.342-.741a25.387,25.387,0,0,1,.421,2.776c.182,4.051.306,8.105.453,12.158l-.877.006-5.7-3.1a21.88,21.88,0,0,0-1.435-4.465,14.4,14.4,0,0,1-1.656-8.225,17.309,17.309,0,0,0-.055-3.5c-.073-.48-.753-.867-1.156-1.3a6.624,6.624,0,0,0-1.353,1.35,3.021,3.021,0,0,0-.047,1.511c.245,3.636.505,7.271.756,10.849l-2.986-.153a27.315,27.315,0,0,0-.157-3.264c-.468-2.834-1.276-5.632-1.5-8.48-.2-2.514.314-5.075.345-7.616A44.174,44.174,0,0,1,139.8,42.207a12.931,12.931,0,0,1,14.5-5.513C156.907,37.325,156.954,37.287,156.975,34.549Zm14.935-3.02h-2.628l-.017-.415,2.788-.9c-2.812-.342-5.11.825-7.2,2.329a17.166,17.166,0,0,0-2.594,2.934l-.668.525.142.142.527-.667,9.649-3.948.185-.1-.083-.083ZM162.052,51.47l.351-.809a7.742,7.742,0,0,0-2.536-1.1c-6.014-.19-10.409,2.549-13.539,7.623-2.5,4.058-5.123,8.047-4.634,13.115.065.677.747,1.295,1.143,1.94.479-.643,1.415-1.327,1.361-1.921-.356-3.886,1.193-7.12,3.2-10.206,2.6-4,5.2-8.028,10.823-8.06A25.728,25.728,0,0,0,162.052,51.47Zm15.074-10.254-.072.4c-2.113,0-4.227.007-6.34,0a3.867,3.867,0,0,0-3.741,2.531c-.187.42.074,1.038.129,1.565a9.931,9.931,0,0,0,1.561-.221A22.516,22.516,0,0,1,172.4,44.3a18.506,18.506,0,0,1,5.46.009c2.965.558,5.851,1.529,8.787,2.259a10.954,10.954,0,0,0,2.194.1,6.87,6.87,0,0,0-1.172-2.163c-2.215-1.852-5.474-1.342-7.738-3.509-.993-.95-3.065-.864-4.669-1.047a12.116,12.116,0,0,0-2.8.318l.08.673Zm8.938-2.375.062-.8a9.1,9.1,0,0,0-1.354-1.168c-4.277-2.452-8.659-4.442-13.811-3.164-3.039.754-6.126,1.415-7.8,4.459-.261.475.052,1.265.1,1.91a7.951,7.951,0,0,0,1.979-.669c.814-.535,1.4-1.471,2.244-1.9a14.7,14.7,0,0,1,14.209.234,19.819,19.819,0,0,0,2.659,1.435C184.83,39.344,185.488,38.971,186.064,38.842Zm-23.332,4.75.183-.942a10.937,10.937,0,0,0-1.939-1.386c-7.283-3.126-13.515,1.723-17.081,6.517-.3.409,0,1.272.027,1.924.686-.183,1.555-.162,2.023-.586,1.434-1.3,2.555-2.978,4.083-4.132a9.863,9.863,0,0,1,10.822-1.268C161.346,43.954,162.1,43.647,162.732,43.592Zm4.85-2.177,3.74-.382-.36-1.437,3.268-.98C171.665,37.861,169.425,38.853,167.582,41.415ZM146.545,66.136l-.8-.1q-.536,4.087-1.069,8.177l.918.117Q146.069,70.232,146.545,66.136Zm30.8-27.35,0-.431h-2.086l0,.431ZM173.5,31.419c-.123-.052-.271-.171-.358-.136s-.113.223-.165.345c.121.052.269.171.357.136S173.451,31.541,173.5,31.419Zm5.676,7.007-.365-.158c-.052.121-.171.271-.136.358s.224.112.346.165Z" transform="translate(-103.693 -24.005)" fill="#363636"/>
      <path id="Trazado_3845" data-name="Trazado 3845" d="M112.878,285.786h1.249q.1,2.086.2,4.172a5.187,5.187,0,0,0,.853.178c11.68.457,23.356,1,35.04,1.325,10.473.287,20.953.32,31.43.465l.45.45.757,1.675c-2.653-.132-5.06-.289-7.469-.363q-8.06-.25-16.124-.432-9.7-.236-19.4-.443c-5.428-.116-10.854-.213-16.555-.324v4.265a13.047,13.047,0,0,0-.406,2.274q-.035,22.067,0,44.132a13.175,13.175,0,0,0,.4,2.277c.341,22.612-.721,45.241.888,67.837.228,3.191.252,6.4.451,9.589.562,9.063.965,18.141,1.817,27.176a168.349,168.349,0,0,0,3,21.069c2.179,9.7,5.239,19.2,7.669,28.844,1.053,4.185,3.049,8.164,2.882,12.65-.108,2.889.931,3.736,3.9,3.419a52.2,52.2,0,0,1,12.629-.083c3.733.5,7.584.115,11.383.116,1.638,0,1.946-.868,1.452-2.249,0-.114,0-.229-.006-.343l.044-.487.4-1.3q-.007-5.948-.015-11.894.01-5.9.018-11.8,0-21.057.006-42.115,0-32.875.018-65.752a19.243,19.243,0,0,1,.517-4.424c1.373-5.716,2.847-11.407,4.283-17.108,1.171-3.946,2.044-8.014,3.6-11.8,1.635-3.991,3.294-7.874,3-12.293,1.017-.45,2.043-.884,3.05-1.357a2.454,2.454,0,0,0,.8-.588c.38-.442.7-.938,1.038-1.412l.8,2.024c-.292,6.954.762,13.752,2.133,20.547,2.036,10.093,3.785,20.244,5.786,30.345.846,4.272,2.023,8.479,3.05,12.715,1.363,5.783,2.785,11.552,4.06,17.354.553,2.513.8,5.095,1.188,7.645l.008.864q.215,1.1.429,2.2c.295,1.932.628,3.858.875,5.8.632,4.941,1.139,9.9,1.858,14.827.91,6.229,1.934,12.443,2.992,18.65q1.675,9.829,3.539,19.627a10.287,10.287,0,0,0,1.257,2.513l.006.858.006.457c.436,1.576.975,3.132,1.286,4.732.455,2.341.636,4.738,1.147,7.064a19.767,19.767,0,0,0,2.455,5.617c1.161,2.007.866,4.887,1.076,7.4.123,1.445-.388,3.1,1.79,3.366-.328.817-.621,1.543-1.015,2.524h23.083c0-3.264-.038-6.616.031-9.967a6.574,6.574,0,0,1,.658-2.163c.31-.778,1.013-1.518,1.018-2.28.073-9.132.068-18.264.043-27.4-.05-17.708.372-35.419-1.247-53.1-.783-8.536-.9-17.132-1.4-25.695-.208-3.548-.6-7.087-.954-10.625-.681-6.853-1.85-13.694-1.994-20.556-.308-14.606-.089-29.222-.086-43.834l1.564-.01c.045,9.57-.062,19.143.184,28.708.2,7.686.773,15.364,1.274,23.041.554,8.491,1.2,16.977,1.829,25.463.354,4.782.832,9.554,1.105,14.339.292,5.147.523,10.3.588,15.454.32,25.275.669,50.551.769,75.826.018,4.51-1.042,9.033-1.74,13.527a2.288,2.288,0,0,1-1.594,1.346,24.754,24.754,0,0,1-4.045.064c0,.706,0,1.4,0,2.1,0,5.188-.3,10.4.082,15.561.376,5.142-2.173,8.1-6.262,10.269-4.628,2.458-9.223,5-13.968,7.213a63.4,63.4,0,0,1-24.769,5.753c-2.778.1-3.043-.446-3.243-3.148-.508-6.842,2.169-12.2,7.261-16.571a21.757,21.757,0,0,0,2.867-3.266c3.246-4.2,6.572-8.343,9.607-12.689,1.108-1.585,1.488-3.679,2.221-5.6-3.743-.978-3.607-.977-3.576-4.647.044-5.105-.2-10.213-.21-15.32-.013-4.284.013-8.575.225-12.852A63.857,63.857,0,0,0,208.5,471c-1.282-6.209-1.854-12.564-2.75-18.853-1.888-13.256-3.719-26.519-5.732-39.755-.425-2.8-1.593-5.48-2.3-8.244-2.084-8.11-4.169-16.221-6.13-24.362-.832-3.457-1.454-6.972-2.006-10.487-1.3-8.288-2.564-16.583-3.719-24.892-.44-3.173-.546-6.392-.857-10.232-.872.816-1.8,1.265-1.971,1.913-1.03,3.857-1.738,7.8-2.839,11.635-1.468,5.109-3.332,10.1-4.785,15.216-2.265,7.964-4.556,15.894-3.871,24.4.456,5.665.075,11.394.1,17.095.045,8.7.166,17.394.17,26.093,0,7.921-.164,15.844-.151,23.767.009,5.579.267,11.158.274,16.738,0,4.139-.286,8.276-.323,12.415-.086,9.482-.035,18.967-.185,28.448-.034,2.133.534,4.615-1.94,6.126-.332.2-.208,1.237-.209,1.886-.015,7.163,0,14.326-.02,21.489-.007,2.975-.935,3.823-3.887,4.108-7.978.769-15.939,1.731-23.924,2.392-3.777.313-7.594.134-11.394.145-5.408.015-10.817-.038-16.226.021-1.739.018-2.479-.572-2.546-2.4-.239-6.555,1.711-8.543,7.88-10.992,6.09-2.419,11.733-5.965,17.571-9.02a9.789,9.789,0,0,1,1.319-.72c3.686-1.239,3.895-1.579,4.119-5.592.076-1.365-.218-2.1-1.726-2.025A1.838,1.838,0,0,1,138.3,515c.563-4.143-1.1-7.868-2.083-11.716-3.168-12.354-6.791-24.611-9.424-37.077-1.636-7.741-1.894-15.785-2.593-23.708-.583-6.607-1.089-13.23-1.309-19.857-.527-15.987-1.1-31.979-1.228-47.974-.2-25.579-.043-51.162-.1-76.744a21.376,21.376,0,0,0-.895-5.2c-.1-.388-1-.76-1.553-.8a41.027,41.027,0,0,0-4.382-.038c-1.377.037-2.04-.527-1.963-1.95C112.843,288.558,112.845,287.171,112.878,285.786Zm93.353,272.351,2.2-.427c2.239-.622,4.621-.942,6.691-1.919,6.321-2.985,12.6-6.093,18.732-9.438,2-1.091,4.345-2.46,4.368-5.334.051-6.358,0-12.718.035-19.078.008-1.386-.506-1.955-1.927-1.979-6.051-.1-12.1-.305-18.15-.412-3.39-.06-3.391-.007-3.621,3.506-.378,1.8-.555,3.66-2.329,4.85-.439.294-.5,1.153-.736,1.751v-.012l-.451.457q-.874,1.292-1.75,2.584c-1.883,1.966-3.78,3.919-5.636,5.912a3.747,3.747,0,0,0-.488,1.15l0-.014-.465.856-1.753,1.777.017-.016-.457.466-2.17,2.07c-4.593,3.557-5.222,8.513-4.738,13.791.042.452,1.092,1.141,1.686,1.151,1.733.03,3.472-.228,5.208-.372l5.71-1.307Zm-62.716-35.125a11.469,11.469,0,0,1-1.614,2.323A16.686,16.686,0,0,1,139.118,527l-2.243,1.333-4.784,2.609-2.257.9c-1.746.693-3.5,1.358-5.223,2.108-.235.1-.29.618-.429.943-2,.6-3.992,1.24-6.007,1.791a7.531,7.531,0,0,0-5.368,6.681c-.127,2.946-.127,2.949,2.731,2.949,7.3,0,14.608.156,21.9-.059,4.661-.138,9.305-.825,13.957-1.266,4.057-.295,8.11-.634,12.17-.872,3.15-.184,4-.866,4.032-4.069.069-6.869,0-13.741.032-20.611.006-1.214-.4-1.68-1.644-1.673q-10.086.061-20.172.006c-1.274-.006-1.946.45-1.895,1.772Q143.72,521.279,143.516,523.012Zm68.928-33.448-.339-.015c-.06.593-.173,1.186-.175,1.779-.012,7.069-.108,14.14.028,21.206.095,4.968,1.415,6.049,7.376,4.79Q215.884,503.427,212.443,489.564Z" transform="translate(-106.865 16.463)" fill="#4d4b4d"/>
      <path id="Trazado_3846" data-name="Trazado 3846" d="M214.7,81.854l2.639-.794c0-2.089.088-4.393-.022-6.688a67.887,67.887,0,0,0-.761-9.754c-1.6-8.148-6.131-14.909-10.334-21.924-3.653-6.1-8.715-9.7-15.011-12.154-3.773-1.469-7.317-3.654-11.547-3.695-7.05-.067-13.9.8-20.165,4.358q-2.884,1.64-5.761,3.295c-1.447-.8-1.776-2.03-.284-2.782a108.822,108.822,0,0,1,12.821-5.824c5.128-1.794,10.572-1.735,15.968-1.284l.867.279,13.609,5.748,1.4.76c1.9,1.286,4.259,2.2,5.622,3.917,7.007,8.8,12.822,18.285,15.281,29.471a4.54,4.54,0,0,1,.023.871l.169,1.741q.149,4.387.3,8.775l.274,3.067q-.371,4.613-.741,9.224l.153,2.178-.01,4.384-.109.876c-1,3.809-3.793,6.036-6.992,7.9l-1.335.867-3.036,8.786L206.36,112.1q1.393-5.469,2.786-10.939l.289-.877.14-2.631.275-1.768.22-1.819,1.9,0,.156.513c-.305,2.284-.61,4.568-.957,7.167,5.845-3.817,7.225-7.837,5.373-14.68l-.667-4.053c-2.037,2.514-3.852,4.32-3.052,7.234l-2.54-.43c-.437.2-1.166.316-1.265.627-.573,1.822-2.084,1.831-3.533,2.016l-3.493,1.26-2.561-.9c-.151-.77-.29-1.543-.457-2.311q-.9-4.131-1.821-8.258-.506-4.158-1.012-8.318l-.778.1L196,79.023l-3.109-1.131.814-.413q.416-1.174.831-2.349a18.849,18.849,0,0,0,.895-2.617,7.808,7.808,0,0,0,.156-2.9c-.266-1.361-.239-2.408,1.368-3.091,1.488,8.328,2.948,16.51,4.438,24.854a12.961,12.961,0,0,0,2.126-.751c2.882-1.7,3.143-1.021,2.57-4.735s-.684-7.506-1.037-11.26c-.257-2.74-.659-5.469-.809-8.214-.035-.652.682-1.345,1.053-2.019a7.463,7.463,0,0,1,1.03,2.073c.557,3.871,1.03,7.754,1.466,11.639.339,3.019.582,6.047.867,9.074,2.718.3,2.334-2.642,3.846-3.562l.44-.88h0Z" transform="translate(-100.431 -24.342)" fill="#4d4b4d"/>
      <path id="Trazado_3847" data-name="Trazado 3847" d="M141.121,82.515l5.7,3.1.877,3.105-.425.1-5.95-4.083c1.776,6.7,3.383,12.767,4.991,18.833,1.21,3.721,2.341,7.472,3.664,11.153a6.737,6.737,0,0,0,4.239,4.131c2.244.816,4.444,1.755,6.662,2.639l-.051,1.932c-2.732-.958-5.65-1.587-8.134-2.986a10.507,10.507,0,0,1-4.509-4.706c-2.079-5.258-3.628-10.732-5.245-16.163a4.7,4.7,0,0,0-2.59-3.413c-7.435-3.453-8.917-9.712-7.851-17.108l2.087,2.279a11.693,11.693,0,0,0,.1,2.4c.566,2.291.883,4.761,2.013,6.756.809,1.429,2.768,2.207,4.214,3.274l.494.081-.165-.458c-.153-.7-.316-1.4-.457-2.11q-.746-3.7-1.479-7.41C140.259,83.883,141.252,83.958,141.121,82.515Z" transform="translate(-103.598 -15.804)" fill="#4d4b4d"/>
      <path id="Trazado_3848" data-name="Trazado 3848" d="M157.3,33.579c-.021,2.738-.068,2.776-2.675,2.145a12.931,12.931,0,0,0-14.5,5.513A44.174,44.174,0,0,0,132.3,66.46c-.03,2.541-.54,5.1-.345,7.616.222,2.847,1.03,5.646,1.5,8.48a27.316,27.316,0,0,1,.157,3.264l-.891,0c-4.555-6.421-3.164-13.73-2.612-20.7a70.824,70.824,0,0,1,3.431-16.533c1.926-5.814,5-11.29,10.917-14.1,3.551-1.689,7.413-2.481,11.357-.9A4.175,4.175,0,0,0,157.3,33.579Z" transform="translate(-104.022 -23.035)" fill="#4d4b4d"/>
      <path id="Trazado_3849" data-name="Trazado 3849" d="M236.6,288l.021-.451q.2-.652.4-1.3l.914-1.347q-.061,2.868-.119,5.735c-.049.042-.145.1-.138.124a1.874,1.874,0,0,0,.147.3l-.009.9q-.054,1.068-.109,2.139-.012,1.372-.027,2.745l-1.525.265-2.662.057-1.942-.117.232,1.927-.2,13.576-1.571,0q-.009-1.97-.018-3.941,0-4.606,0-9.212l-.874-1.757-.876-1.312c-2.54-.142-5.079-.308-7.619-.424-9.81-.452-19.62-.928-29.433-1.311-3.429-.134-6.868-.028-10.3-.03-1.024-1.452-2.083-2.88-3.059-4.363-.65-.988-1.179-2.056-1.763-3.087-.259-1.336-.518-2.672-.8-4.125,1.539-.408,1.736.6,2.153,1.662a55.953,55.953,0,0,0,3.136,6.893,3.435,3.435,0,0,0,2.5,1.224c2.689.157,5.4-.042,8.091.076q13.491.593,26.975,1.326c3.251.177,6.491.556,9.74.806.408.031.836-.244,1.252-.239a13.251,13.251,0,0,1,2.191.21c.326.058.6.4.926.469,3.08.694,3.891.05,3.908-3.051.007-1.168.028-2.334.042-3.5l.676-.687.013.067C236.778,288.164,236.686,288.083,236.6,288Z" transform="translate(-96.874 16.012)" fill="#494645"/>
      <path id="Trazado_3850" data-name="Trazado 3850" d="M125.846,143.155l1.313,1.742a13.37,13.37,0,0,0-6.8,6.659c-1.079,2.46-2.92,4.859-3.1,7.38a75.813,75.813,0,0,1-2.732,14.038c-1.224,4.6-1.89,9.362-2.671,14.074-.7,4.21-1.214,8.45-1.81,12.676l-.845,0q1.4-12.049,2.807-24.1c.294-2.531.578-5.062.835-7.6a46.852,46.852,0,0,1,3.043-12.448,63.764,63.764,0,0,1,2.649-6.638A12.176,12.176,0,0,1,125.846,143.155Z" transform="translate(-107.187 -5.798)" fill="#4d4b4d"/>
      <path id="Trazado_3851" data-name="Trazado 3851" d="M109.464,192.085l.845,0q.009,2.631.016,5.261l.012,3.082c-.292,5.29-.674,10.579-.85,15.874-.14,4.2-.029,8.4-.03,12.6l.434.029a5.5,5.5,0,0,1,1.328.943c2.651,3.469,5.256,6.973,7.874,10.467l-.9.925c-3.186-3.577-6.437-7.1-9.508-10.77a5.805,5.805,0,0,1-1.222-3.42c-.046-5.23.118-10.461.206-15.693l.034-.882Z" transform="translate(-107.458 1.839)" fill="#494645"/>
      <path id="Trazado_3852" data-name="Trazado 3852" d="M132.283,80.479l.891,0,2.986.153c-.251-3.578-.511-7.213-.756-10.849a3.021,3.021,0,0,1,.047-1.511,6.625,6.625,0,0,1,1.353-1.35c.4.429,1.083.816,1.156,1.3a17.309,17.309,0,0,1,.056,3.5,14.4,14.4,0,0,0,1.655,8.225,21.881,21.881,0,0,1,1.435,4.465c.131,1.443-.862,1.368-1.816,1.343-.6-2.671-2.517-2.866-4.723-2.531l-2.087-2.279Z" transform="translate(-103.583 -17.696)" fill="#464343"/>
      <path id="Trazado_3853" data-name="Trazado 3853" d="M251.732,214.122a11.623,11.623,0,0,0,.858-1.4,14.154,14.154,0,0,0,.528-1.679c.483,9.525-2.126,17.858-9.422,24.37a12.631,12.631,0,0,1-1.62,1.059l-.883-.869a14.722,14.722,0,0,1,2.387-2.527c5.545-3.632,5.546-10.007,7.66-15.319A14.952,14.952,0,0,0,251.732,214.122Z" transform="translate(-86.585 4.798)" fill="#4d4b4d"/>
      <path id="Trazado_3854" data-name="Trazado 3854" d="M120.514,236.509c1.414.075,1.782.965,1.84,2.215.351,7.424-.013,14.731-3.505,21.52a10.87,10.87,0,0,1-1.3,1.658c.725-4.075,1.106-8.252,2.267-12.2C121.115,245.282,120.547,240.916,120.514,236.509Z" transform="translate(-105.883 8.772)" fill="#49536c"/>
      <path id="Trazado_3855" data-name="Trazado 3855" d="M241.422,145c-2.639.338-4.3-1.28-5.918-2.971Z" transform="translate(-87.473 -5.974)" fill="#4d4b4d"/>
      <path id="Trazado_3856" data-name="Trazado 3856" d="M224.187,318.242l-1.565.01q.007-1.748.015-3.5l1.554-.944Z" transform="translate(-89.484 20.837)" fill="#494645"/>
      <path id="Trazado_3857" data-name="Trazado 3857" d="M224.2,309.316q0,2,0,4l-1.566-.059q.009-1.528.018-3.056Z" transform="translate(-89.483 20.136)" fill="#494645"/>
      <path id="Trazado_3858" data-name="Trazado 3858" d="M252.054,166.959c-1.8.1-2.208-.647-1.328-2.179C252.509,164.69,252.42,165.739,252.054,166.959Z" transform="translate(-85.167 -2.424)" fill="#4d4b4d"/>
      <path id="Trazado_3859" data-name="Trazado 3859" d="M250.65,163.619l-1.044-5.48Z" transform="translate(-85.272 -3.46)" fill="#4d4b4d"/>
      <path id="Trazado_3860" data-name="Trazado 3860" d="M192.208,117.811l2.066-.877q.009.9.016,1.8-1,.14-2.007.284l-.049-.982A.338.338,0,0,0,192.208,117.811Z" transform="translate(-94.231 -9.891)" fill="#4d4b4d"/>
      <path id="Trazado_3861" data-name="Trazado 3861" d="M234.677,234.277l3.864-.387C237.394,235.428,236.112,235.62,234.677,234.277Z" transform="translate(-87.602 8.363)" fill="#4d4b4d"/>
      <path id="Trazado_3862" data-name="Trazado 3862" d="M224.186,297.061l-.232-1.927,1.942.117Z" transform="translate(-89.276 17.922)" fill="#4d4b4d"/>
      <path id="Trazado_3863" data-name="Trazado 3863" d="M116.746,234.757q.447-.463.9-.925l1.723,1.3-1.3.934Z" transform="translate(-106.008 8.354)" fill="#4d4b4d"/>
      <path id="Trazado_3864" data-name="Trazado 3864" d="M210.737,72.239l-.274-3.067Z" transform="translate(-91.381 -17.345)" fill="#524d4b"/>
      <path id="Trazado_3865" data-name="Trazado 3865" d="M248.274,154.392c-2.111-.126-2.294-.327-1.636-1.8Z" transform="translate(-85.788 -4.325)" fill="#4d4b4d"/>
      <path id="Trazado_3866" data-name="Trazado 3866" d="M222.624,312.721l1.566.059v1.2l-1.555.944Q222.63,313.823,222.624,312.721Z" transform="translate(-89.483 20.667)" fill="#4d4b4d"/>
      <path id="Trazado_3867" data-name="Trazado 3867" d="M156.958,117.695l.051-1.932.858.173.022,1.5Z" transform="translate(-99.732 -10.074)" fill="#524d4b"/>
      <path id="Trazado_3868" data-name="Trazado 3868" d="M224.2,309.436q-.775.44-1.553.88-.01-.883-.018-1.768l1.57,0Z" transform="translate(-89.483 20.015)" fill="#4d4b4d"/>
      <path id="Trazado_3869" data-name="Trazado 3869" d="M210.212,81.982l-.153-2.178Z" transform="translate(-91.444 -15.686)" fill="#524d4b"/>
      <path id="Trazado_3870" data-name="Trazado 3870" d="M230.539,245.038l.023-1.731Z" transform="translate(-88.248 9.833)" fill="#4d4b4d"/>
      <path id="Trazado_3871" data-name="Trazado 3871" d="M210.23,61.817l-.169-1.741Z" transform="translate(-91.444 -18.765)" fill="#524d4b"/>
      <path id="Trazado_3872" data-name="Trazado 3872" d="M193.9,116.125q0-.929.006-1.859Q193.906,115.2,193.9,116.125Z" transform="translate(-93.966 -10.307)" fill="#524d4b"/>
      <path id="Trazado_3873" data-name="Trazado 3873" d="M220.511,134.535c-1.086.838-1.291.184-1.317-.776Z" transform="translate(-90.019 -7.265)" fill="#4d4b4d"/>
      <path id="Trazado_3874" data-name="Trazado 3874" d="M249.6,158.115l-.5-1.286Z" transform="translate(-85.352 -3.664)" fill="#4d4b4d"/>
      <path id="Trazado_3875" data-name="Trazado 3875" d="M229.279,292.872q.054-1.07.109-2.139Q229.334,291.8,229.279,292.872Z" transform="translate(-88.445 17.235)" fill="#4d4b4d"/>
      <path id="Trazado_3876" data-name="Trazado 3876" d="M192.149,30.546l-1.4-.76Z" transform="translate(-94.459 -23.493)" fill="#524d4b"/>
      <path id="Trazado_3877" data-name="Trazado 3877" d="M218.595,133.4l-1.308-.832Z" transform="translate(-90.316 -7.45)" fill="#4d4b4d"/>
      <path id="Trazado_3878" data-name="Trazado 3878" d="M208.8,127.685l-1.361-.807Z" transform="translate(-91.854 -8.339)" fill="#4d4b4d"/>
      <path id="Trazado_3879" data-name="Trazado 3879" d="M212.987,129.96l-1.38-.838Z" transform="translate(-91.203 -7.989)" fill="#4d4b4d"/>
      <path id="Trazado_3880" data-name="Trazado 3880" d="M207.388,126.884l-1.486-.749Z" transform="translate(-92.093 -8.455)" fill="#4d4b4d"/>
      <path id="Trazado_3881" data-name="Trazado 3881" d="M222.857,136.026l-1.388-.83Z" transform="translate(-89.664 -7.041)" fill="#4d4b4d"/>
      <path id="Trazado_3882" data-name="Trazado 3882" d="M202.885,93.941l1.335-.867Z" transform="translate(-92.564 -13.615)" fill="#524d4b"/>
      <path id="Trazado_3883" data-name="Trazado 3883" d="M179.091,24.852l-.867-.279Z" transform="translate(-96.413 -24.306)" fill="#524d4b"/>
      <path id="Trazado_3884" data-name="Trazado 3884" d="M193.771,112.152l.154-.884Q193.847,111.71,193.771,112.152Z" transform="translate(-93.987 -10.775)" fill="#524d4b"/>
      <path id="Trazado_3885" data-name="Trazado 3885" d="M107.677,208.021l-.034.882Z" transform="translate(-107.429 4.326)" fill="#4d4b4d"/>
      <path id="Trazado_3886" data-name="Trazado 3886" d="M210.088,86.356l.109-.876Z" transform="translate(-91.44 -14.8)" fill="#524d4b"/>
      <path id="Trazado_3887" data-name="Trazado 3887" d="M241.746,145.516l-.924-.816Z" transform="translate(-86.643 -5.557)" fill="#4d4b4d"/>
      <path id="Trazado_3888" data-name="Trazado 3888" d="M210.972,128.786l-.864-.474Z" transform="translate(-91.437 -8.115)" fill="#4d4b4d"/>
      <path id="Trazado_3889" data-name="Trazado 3889" d="M227.937,295.222l1.525-.265Z" transform="translate(-88.654 17.894)" fill="#4d4b4d"/>
      <path id="Trazado_3890" data-name="Trazado 3890" d="M194.5,119.711l-.333-.754C194.278,119.209,194.388,119.46,194.5,119.711Z" transform="translate(-93.925 -9.575)" fill="#524d4b"/>
      <path id="Trazado_3891" data-name="Trazado 3891" d="M156.678,128.49l-.731.309Z" transform="translate(-99.89 -8.087)" fill="#524d4b"/>
      <path id="Trazado_3892" data-name="Trazado 3892" d="M229.4,290.016a1.874,1.874,0,0,1-.147-.3c-.007-.025.089-.082.138-.124Z" transform="translate(-88.449 17.057)" fill="#4d4b4d"/>
      <path id="Trazado_3893" data-name="Trazado 3893" d="M248.437,155l-.346-.675C248.207,154.544,248.321,154.77,248.437,155Z" transform="translate(-85.508 -4.056)" fill="#4d4b4d"/>
      <path id="Trazado_3894" data-name="Trazado 3894" d="M172.6,302.213l-.45-.45c.453-3.271.988-6.533,1.339-9.816.377-3.535.539-7.094.865-10.636,1.628-17.705.582-35.452.849-53.177.025-1.7-.229-3.406-.354-5.109l.844-.269a7.376,7.376,0,0,1,.815,2.262c.065,7.162.042,14.325.042,21.488,0,8.844.217,17.7-.072,26.531-.239,7.321-1.08,14.623-1.64,21.934-.061.8-.037,1.607-.052,2.41q-.43,1.757-.861,3.512Z" transform="translate(-97.361 6.626)" fill="#494645"/>
      <path id="Trazado_3895" data-name="Trazado 3895" d="M173.683,290.938q.43-1.757.861-3.512l1.775-.881c.584,1.031,1.113,2.1,1.763,3.087.976,1.483,2.035,2.911,3.059,4.363-1.5,2.206.994,2.143,1.741,3.074-.469.539-.84,1.316-1.431,1.558-.852.35-2.446.732-2.708.369a45.547,45.547,0,0,1-2.93-5.309C175.262,292.653,175.639,290.888,173.683,290.938Z" transform="translate(-97.122 16.582)" fill="#424a63"/>
      <path id="Trazado_3896" data-name="Trazado 3896" d="M113.942,290.8q-.1-2.086-.2-4.172.479-3.1.956-6.2Q114.32,285.609,113.942,290.8Z" transform="translate(-106.478 15.625)" fill="#f3d9b0"/>
      <path id="Trazado_3897" data-name="Trazado 3897" d="M229.065,282q0,.876,0,1.75Z" transform="translate(-88.478 15.872)" fill="#4d4b4d"/>
      <path id="Trazado_3898" data-name="Trazado 3898" d="M228.74,285.793q-.2.652-.4,1.3Q228.538,286.445,228.74,285.793Z" transform="translate(-88.592 16.464)" fill="#4d4b4d"/>
      <path id="Trazado_3899" data-name="Trazado 3899" d="M228.634,287.49l-.676.687.415-.866c.09.083.182.164.274.246Z" transform="translate(-88.651 16.701)" fill="#4d4b4d"/>
      <path id="Trazado_3900" data-name="Trazado 3900" d="M120.552,250.59l-1.723-1.3c-2.62-3.494-5.224-7-7.875-10.467a5.5,5.5,0,0,0-1.328-.943c-.145-.013-.289-.022-.434-.029,0-4.2-.11-8.406.03-12.6.176-5.295.557-10.584.85-15.875,1.213-1.155,1.21-1.962-.012-3.081q-.007-2.631-.016-5.261c.6-4.227,1.114-8.466,1.81-12.676.78-4.712,1.446-9.471,2.671-14.074a75.813,75.813,0,0,0,2.732-14.038c.184-2.521,2.025-4.92,3.1-7.38a13.37,13.37,0,0,1,6.8-6.659l12.721-5.7.886-.437c2.68-.982,5.372-1.931,8.035-2.956,1.873-.721,3.705-1.547,5.555-2.327l.01.01q-2.128,5.568-4.253,11.139a11.062,11.062,0,0,0-.471,1.456c-.85,3.709-.172,4.8,3.446,5.787a37.18,37.18,0,0,1,4.339,1.44c2.17.895,2.6,2.187,1.509,4.333-1.52,2.978-3.177,5.89-4.58,8.92-.253.545.328,2.142.7,2.206,3.77.64,6.142,3.511,9.057,5.473,6.023,4.052,11.968,8.221,17.933,12.36a11.689,11.689,0,0,1,4.73,5.53,32.46,32.46,0,0,0,1.616,3.284c-2.9,2.948-3,2.671-6.652,1.436a65.554,65.554,0,0,0-10.979-2.353c-4.72-.727-9.482-1.194-14.231-1.718-1.229-.135-2.479-.064-3.719-.09-1.052-.022-2.215.308-2.689-1.19a1.45,1.45,0,0,0-1.3-.505c-2.681.8-5.331,1.712-8.061,2.61,0-4.772.047-10-.04-15.215a12.334,12.334,0,0,0-.85-3.047,12.693,12.693,0,0,0-.835,3.062c-.084,5.111.018,10.226-.054,15.337-.049,3.415-.23,6.831-.468,10.239-.059.846.121,2.047-1.535,2.089-.356.009-.911,1.788-.933,2.762a12.428,12.428,0,0,0,.74,3.164q-.208.848-.415,1.7l.491.1.392-1.794c.788-.3,1.57-.612,2.367-.882.464-.158.956-.23,1.428-.369.865-.254,1.786-.876,2.573-.734,3.409.615,7.089.749,9.8-1.046,5.584-3.695,12.051-3.529,18.078-5.172,5.725-1.56,11.6-2.572,17.408-3.82a8.275,8.275,0,0,1,1.5-.246c6.634-.162,13.271-.235,19.9-.5,2-.079,2.49.592,2.422,2.481a60.432,60.432,0,0,0,.384,6.3c.009.146-.05.362.025.428A18.081,18.081,0,0,0,214.7,211c1.246-1.378,4.377,2.232,4.546-1.622.139-3.175-.009-6.363.125-9.539a2.081,2.081,0,0,1,1.314-1.428c2-.494,4.052-.768,6.469-1.192.362,8.637.7,16.755,1.057,25.259-3.82.724-7.78,1.465-11.738,2.227-8.051,1.55-16.108,3.068-24.145,4.686-5.467,1.1-10.894,2.4-16.358,3.514-7.32,1.5-14.019,4.72-20.861,7.5a230.623,230.623,0,0,1-28.411,9.105c-1.114.293-1.886.323-2.43-.984-.276-.661-1.175-1.064-1.694-1.5-1.668,1.068,2.155,3.151-1.111,3.586l-.438-.006Z" transform="translate(-107.194 -7.104)" fill="#49536c"/>
      <path id="Trazado_3901" data-name="Trazado 3901" d="M214.326,130.25c2.94,1.706,5.939,3.32,8.807,5.14a112.844,112.844,0,0,0,21.574,10.952c2.917,1.069,5.98,2.323,7.156,5.506a37.964,37.964,0,0,1,1.476,7.176,139.349,139.349,0,0,1,2.049,14.376,44.691,44.691,0,0,1-1.018,11.23c-1.264,6.184-2.844,12.316-4.585,18.385-.68,2.369-2.153,4.512-3.293,6.743-.023.046-.394-.084-.6-.132l-.423-.438c-.275-1.716-.66-3.358-2.624-3.954l-2.625-2.192c-3.688-3.709-8.311-4.727-13.33-4.4-.541-1.658.04-3.814-2.435-3.993-2.714-.2-5.6-1.572-7.828,1.362a3.748,3.748,0,0,1-2.081.879c-2.032.449-4.15.6-6.119,1.234a47.622,47.622,0,0,1-12.217,1.867c-5.788.3-11.572.694-17.36,1.029a8.3,8.3,0,0,1-1.475-.274c4.286-3.851,8.3-7.457,12.315-11.062.217-.2.442-.383.651-.585q7.691-7.467,15.377-14.939a45.243,45.243,0,0,1,4.169-4.1c2.977-2.221,2.158-5.309,2.239-8.224-.158-.838-.366-1.671-.465-2.517-.253-2.16-1.176-3.253-3.474-2.317h0a11.564,11.564,0,0,1-.554-2.072c-.047-.554.012-1.451.342-1.642,1.153-.667,2.474-1.032,3.674-1.629a7.982,7.982,0,0,0,2.632-1.7c2.265-2.721,3.934-5.276,2.932-9.51C216.393,136.988,216.177,133.419,214.326,130.25Zm6.365,49.556h-8.969c-5.564.006-5.8.294-5.756,5.732.015,1.954.7,2.77,2.72,2.628,5.136-.363,10.279-.649,15.422-.889,2.256-.105,4.52-.034,6.782-.022,1.783.009,2.727-.818,2.726-2.638,0-.656,0-1.312,0-1.969.02-1.932-.711-2.955-2.865-2.875C227.4,179.9,224.046,179.806,220.691,179.806Z" transform="translate(-96.546 -7.812)" fill="#49526c"/>
      <path id="Trazado_3902" data-name="Trazado 3902" d="M159.826,125.216l-.858-.173c-2.219-.884-4.419-1.823-6.662-2.639a6.737,6.737,0,0,1-4.239-4.131c-1.323-3.681-2.453-7.431-3.664-11.153.851,1.342,1.7,2.683,2.753,4.339a11.808,11.808,0,0,0,.292-2.524c-.658-5.526-1.383-11.044-2.086-16.564l.425-.1,1.309-.361,2.327,3.444a47.248,47.248,0,0,0,1.2-7.314c.694-5.378,1.113-10.826,2.3-16.1,1.038-4.616,2.424-9.269,5.592-13.061,2.4-.387,4.807-1.141,7.18-1.031,1.557.071,1.975-.182,2.04-1.536l1.723.506,1.062.694,1.127.225a36.536,36.536,0,0,1,3.869,3.684c3.158,3.987,3.847,8.79,4.024,13.676.12,3.321.447,3.639,3.508,2.673a1.649,1.649,0,0,1,.436-.02l3.477-1.083,1.847,5.127a4.667,4.667,0,0,0-.56,5.347c.316.467,1.054,1.015,1.5.94a2.388,2.388,0,0,0,1.568-1.227,13.7,13.7,0,0,0,.572-2.955c2.991,2.5,6.157,4.816,8.906,7.555,1.568,1.562,2.636,1.332,4.067.239.76-.58,1.538-1.136,1.956-1.444l3.527,5.187.061.739q-1.393,5.469-2.786,10.939l-1.757,2.653-.575.824q-3.435,4.193-6.872,8.387l-1.669,1.782-1.822,1.783-.919.768-6.531,3.208-1.365.785-1.288.551c-1.5.176-2.988.465-4.488.5-2.745.069-5.494-.009-8.242-.025l-1.727-.191-1.342-.21c-2.362-.821-4.713-1.673-7.093-2.443A11.146,11.146,0,0,0,159.826,125.216Zm15.394-42.057c-.4-1.525-1.282-1.212-2.244-.585-.875,1.4-2.191,2.7-2.532,4.219a65.485,65.485,0,0,0-1.237,9.616c-.129,1.794-.518,3.913,1.246,5.193,3.876,2.815,10.992-.549,11.705-5.447l.054-1.286.358-1.484a4.681,4.681,0,0,0-1.766-.36c-1.31.277-2.576.768-4.221,1.284,0-3.4,0-6.424,0-9.45C176.585,83.925,176.851,82.783,175.221,83.159Zm.345,24.12-.01-.132c-1.746,0-3.5-.074-5.234.042-.587.039-1.142.558-1.712.859.594.355,1.184,1.009,1.784,1.017q5.894.08,11.792-.088a12.111,12.111,0,0,0,8.936-4.325c.393-.44.3-1.316.427-1.99-.671.221-1.541.247-1.976.7a10.354,10.354,0,0,1-6.846,3.412C180.34,106.945,177.952,107.109,175.565,107.279ZM164.633,79.111v-.034a7.4,7.4,0,0,0,1.956-.034,17.717,17.717,0,0,0,2.45-1.09c-.8-.592-1.545-1.551-2.422-1.7a25.6,25.6,0,0,0-5.442-.147,7.3,7.3,0,0,0-2.141.836c.7.723,1.286,1.783,2.135,2.08A10.957,10.957,0,0,0,164.633,79.111Zm12.422,36.418c3.069,2.657,9.406,1.861,12.273-1.372ZM161.577,86.382h.052c0,.582-.2,1.269.044,1.723a11.558,11.558,0,0,0,1.624,1.936,9.644,9.644,0,0,0,1.763-2.035,4.1,4.1,0,0,0,0-2.153c-.18-1.246-.46-2.714-2.038-2.619-1.526.092-1.452,1.531-1.445,2.71Z" transform="translate(-101.692 -19.353)" fill="#fbf1e0"/>
      <path id="Trazado_3903" data-name="Trazado 3903" d="M262.821,223.109a14.952,14.952,0,0,1-.491,3.639c-2.114,5.312-2.116,11.687-7.66,15.319a14.722,14.722,0,0,0-2.387,2.527c-5.662.865-10.8-1.277-16.128-2.614q-13.287-3.335-26.74-5.985c-6.249-1.223-12.613-1.86-18.92-2.786-6.584-.966-13.161-1.965-20.35-3.042,5.353-.946,10.185-1.775,15.007-2.658,5.844-1.068,11.679-2.19,17.519-3.276,9.118-1.7,18.242-3.363,27.35-5.113.609-.118,1.1-.836,1.653-1.274l-.431-.429-3.046.336a26.544,26.544,0,0,1,.053-4.606c.341-1.865,2.222-1.224,3.01-.9,3.466,1.414,7.015.474,10.5.762l3.073.015,3.034,1.188a34.873,34.873,0,0,0-.782,3.949c-.051.585.415,1.215.645,1.824.539-.412,1.105-.792,1.6-1.25a1.573,1.573,0,0,0,.3-.8c1.7-8.081,3.326-16.178,5.111-24.241,1.22-5.513,3.2-10.918,3.831-16.486.52-4.6-.371-9.38-.772-14.068-.265-3.095-.769-6.168-1.22-9.671a15.261,15.261,0,0,1,4.429,10.394c.442,10.472.645,20.953.934,31.43.155,5.641.275,11.282.446,16.921C262.5,215.847,262.674,219.478,262.821,223.109Z" transform="translate(-97.674 -4.189)" fill="#49526c"/>
      <path id="Trazado_3904" data-name="Trazado 3904" d="M195.792,151.943c.009-.145.019-.29.027-.435q.22-.874.442-1.748c1.02-3.8,2.052-7.592,3.052-11.394.342-1.305.6-2.632.9-3.949l.413-.451c.01-.146.018-.291.027-.437.057-.04.165-.1.16-.116a2.054,2.054,0,0,0-.157-.3l-.017-.027a3.547,3.547,0,0,0,.015-.43h0l.874-3.064.007-.01.425-.437c0-.143,0-.287-.009-.43l.406-2.654c2.709-.265,5.148,1.686,7.037,4.7,2.681,4.277,2.914,8.893,2.628,13.654a2.437,2.437,0,0,1-.881,1.776c-2.882,1.548-5.806,3.034-8.8,4.36-1.755.779-2.283,1.809-1.083,3.4,1.925,2.542,3.881,5.075,6.019,7.436,2.817,3.113,2.912,4.987-.083,7.916q-6.307,6.172-12.684,12.269-4.469,4.292-9,8.521a10.979,10.979,0,0,1-1.488,1l-.517-.369q4.4-13.684,8.8-27.365.217-.659.435-1.318l.435-.489.17-.084-.157-.267.384-.919q.229-.659.459-1.32.012-.434.025-.867l.43-.883.022-.867.427-.886q.012-1.3.025-2.6Z" transform="translate(-95.589 -8.47)" fill="#49536c"/>
      <path id="Trazado_3905" data-name="Trazado 3905" d="M167.916,164.6l.486,1.726q.42.664.84,1.327,3.8,8.313,7.587,16.63c.268.59.5,1.2.745,1.8l0,0c-2.232-1.29-4.56-2.442-6.676-3.9-5.206-3.586-10.3-7.336-15.472-10.969-1.414-.993-2.96-1.8-4.741-2.867,1.342-2.456,2.644-5.025,4.118-7.493,2.1-3.523,1.408-6.05-2.371-7.709a19.6,19.6,0,0,0-4.52-1.543c-1.629-.273-2.324-1.126-1.88-2.509,1.295-4.035,2.662-8.056,4.258-11.978a16.5,16.5,0,0,1,2.923-4.037c1.154-1.372,1.837-1.182,2.4.469,2.052,6.049,4.007,12.133,6.235,18.116,1.165,3.128,2.843,6.065,4.244,9.109a13.132,13.132,0,0,1,.578,2.052Q167.286,163.717,167.916,164.6Z" transform="translate(-101.459 -7.513)" fill="#49536c"/>
      <path id="Trazado_3906" data-name="Trazado 3906" d="M194.837,117.922l.049.982c1.228,8.817-3.668,15.385-8.094,22.142-.709,1.081-1.362.986-2.054.175-.942-1.1-1.75-2.32-2.682-3.434-2.133-2.547-4.306-5.06-6.521-7.658a39.6,39.6,0,0,0,13.821-7.373,68.98,68.98,0,0,0,5.31-5.069A.177.177,0,0,0,194.837,117.922Z" transform="translate(-96.833 -9.773)" fill="#e2975f"/>
      <path id="Trazado_3907" data-name="Trazado 3907" d="M177.836,193.362c-5.684,1.089-11.353,2.273-17.058,3.238-4.775.808-9.591,1.376-14.394,2.008a13.1,13.1,0,0,1-2.2-.087c.272-3.6.4-7,.91-10.336.083-.551,1.832-.85,3.353-1.494,0,2.679-.007,4.617,0,6.557.006,1.134-.311,2.4,1.616,2.347,1.747-.049,3.5.147,3.625-2.309a28.162,28.162,0,0,0,.007-3.061c-.068-1.173.294-1.8,1.59-1.691,4.259.371,8.561.459,12.768,1.146a106.873,106.873,0,0,1,10.654,2.809Z" transform="translate(-101.726 0.997)" fill="#48526c"/>
      <path id="Trazado_3908" data-name="Trazado 3908" d="M235.336,196.551c2.108,1.983,3.35,4.2,1.661,7.777-4.845,0-10.007.079-15.159-.1-.646-.022-1.735-1.375-1.779-2.158-.2-3.471-.086-6.958-.086-10.6,3.754-.436,7.249-.657,10.476,1.46a27.227,27.227,0,0,0,2.713,1.39Z" transform="translate(-89.902 1.697)" fill="#f7eede"/>
      <path id="Trazado_3909" data-name="Trazado 3909" d="M197.7,134.02l-7.1,26.311c-.179-.222-.447-.418-.526-.673-1.35-4.394-2.706-8.786-3.964-13.207a2.555,2.555,0,0,1,.538-1.664c1.483-2.406,3.161-4.7,4.506-7.178,1.59-2.926,2.909-6,4.345-9.009l.683.088c.19,1.088.309,2.193.591,3.256A13.323,13.323,0,0,0,197.7,134.02Z" transform="translate(-95.188 -8.07)" fill="#e5985e"/>
      <path id="Trazado_3910" data-name="Trazado 3910" d="M198.45,134.993a13.323,13.323,0,0,1-.931-2.076c-.282-1.062-.4-2.168-.591-3.256l-.683-.088c-1.436,3.009-2.755,6.083-4.345,9.009-1.346,2.477-3.023,4.772-4.506,7.178a2.555,2.555,0,0,0-.538,1.664c1.258,4.421,2.614,8.813,3.964,13.207.079.254.347.451.526.673q-.877,2.842-1.756,5.682l-.438.016c-1.081-4.046-2.017-8.139-3.281-12.128-1.375-4.342-3.053-8.589-4.6-12.876l-.021.017c.073-.006.168-.043.215-.01,4.926,3.326,5.147,1.473,7.662-2.02a49.354,49.354,0,0,0,7.046-14.962c.268-.9.653-1.768.988-2.659,3.5,1.723,3.695,2.021,2.96,5.666C199.65,130.369,199.013,132.673,198.45,134.993Z" transform="translate(-95.941 -9.043)" fill="#da824b"/>
      <path id="Trazado_3911" data-name="Trazado 3911" d="M184.748,180.757c-1.4,3.022-1.465,6.677-4.3,9.238a3.833,3.833,0,0,1-.579-.687c-3.265-7.105-6.63-14.169-9.666-21.371-.541-1.283.288-3.146.484-4.74a17.077,17.077,0,0,1,1.757,1.8c.982,1.343,1.776,2.83,2.8,4.133,2.172,2.751,4.45,5.421,6.676,8.131C182.876,178.418,183.807,179.591,184.748,180.757Z" transform="translate(-97.693 -2.67)" fill="#e2975f"/>
      <path id="Trazado_3912" data-name="Trazado 3912" d="M218.935,189.339c-.045,7.051-.08,14.1-.15,21.154a12.535,12.535,0,0,1-.368,2.088l-3.622.85a5.271,5.271,0,0,1-.8-1.719c-.353-6.578-.634-13.16-.934-19.74a.536.536,0,0,0-.007-.416q0-.458-.007-.913-.005-.851-.012-1.7c-.057-1.617.92-1.945,2.257-1.783,1.059.127,2.113.29,3.17.438l.369.917a.543.543,0,0,0,.037.4Z" transform="translate(-90.98 1.064)" fill="#e2975f"/>
      <path id="Trazado_3913" data-name="Trazado 3913" d="M188.168,168.879q-1.363,5.067-2.725,10.135c-1.911-2.932-3.723-5.932-5.755-8.775-2.709-3.788-5.587-7.453-8.392-11.172l-.074-.8,1.134-4.873c1.86,2.1,3.732,4.182,5.576,6.291a50.628,50.628,0,0,1,4,4.757C183.489,166.749,185.2,168.649,188.168,168.879Z" transform="translate(-97.506 -4.199)" fill="#e2975f"/>
      <path id="Trazado_3914" data-name="Trazado 3914" d="M160.593,147.714q-.713-2.188-1.424-4.377,0-.423.006-.845a17.552,17.552,0,0,0,1.376-2.74,25.719,25.719,0,0,0,.614-3.415c2.266,3.6,4.447,7.116,6.7,10.589a17.246,17.246,0,0,0,1.921,2.118c0,.435,0,.871.006,1.3q-.21,3.512-.421,7.023-.414,3.708-.828,7.415l-7.457-15.777Q160.841,148.362,160.593,147.714Z" transform="translate(-99.387 -6.862)" fill="#e5985e"/>
      <path id="Trazado_3915" data-name="Trazado 3915" d="M173.3,150.614q.647-2.584,1.295-5.168c1.073.54,2.185,1.014,3.212,1.632,2.179,1.312,4.314,2.7,6.467,4.054l-.029-.031.4.4q1.76,6.4,3.519,12.8c-2.319-2.112-4.65-4.213-6.957-6.339C178.559,155.526,175.934,153.065,173.3,150.614Z" transform="translate(-97.182 -5.441)" fill="#e2975f"/>
      <path id="Trazado_3916" data-name="Trazado 3916" d="M169.067,144.042c-2.887-3.065-4.167-6.688-5.5-10.268-.609-1.638-1.313-3.146-.079-5.066.764-1.191.425-3.09.627-5.119,1.665,1.266,3.2,2.384,4.683,3.57,3.775,3.022,3.7,3.017,2.388,7.787C170.388,137.855,169.81,140.824,169.067,144.042Z" transform="translate(-98.819 -8.852)" fill="#e2975f"/>
      <path id="Trazado_3917" data-name="Trazado 3917" d="M173.47,149.916c2.635,2.451,5.26,4.912,7.906,7.35,2.308,2.126,4.638,4.227,6.957,6.339.438,1.969,1.8,3.988-.32,5.816-2.968-.229-4.677-2.128-6.234-4.43a50.628,50.628,0,0,0-4-4.757c-1.844-2.11-3.716-4.2-5.576-6.291Q172.838,151.929,173.47,149.916Z" transform="translate(-97.353 -4.743)" fill="#325dbc"/>
      <path id="Trazado_3918" data-name="Trazado 3918" d="M144.1,186.557c.081,4.511.175,9.021.219,13.532,0,.388-.326.782-.5,1.172a21.113,21.113,0,0,0-4.379-.37c-1.718.2-2.273-.354-2.238-1.97.051-2.409.016-4.821.018-7.231.04-.059.118-.12.116-.178-.146-4.215,3-4.772,6.043-5.45Z" transform="translate(-102.816 0.898)" fill="#e2975f"/>
      <path id="Trazado_3919" data-name="Trazado 3919" d="M171.393,158.3c2.8,3.719,5.683,7.384,8.392,11.172,2.032,2.843,3.844,5.843,5.755,8.775q-.44,1.637-.882,3.273c-.941-1.166-1.872-2.34-2.822-3.5-2.227-2.71-4.5-5.379-6.676-8.131-1.029-1.3-1.823-2.79-2.8-4.133a17.078,17.078,0,0,0-1.757-1.8l.492-5.616A1.276,1.276,0,0,0,171.393,158.3Z" transform="translate(-97.603 -3.434)" fill="#325dbc"/>
      <path id="Trazado_3920" data-name="Trazado 3920" d="M170.293,150.056a17.246,17.246,0,0,1-1.921-2.118c-2.253-3.473-4.435-6.993-6.7-10.589a25.719,25.719,0,0,1-.614,3.415,17.649,17.649,0,0,1-1.375,2.74q-.172-.01-.343-.038-1.047-3.305-2.1-6.61a.774.774,0,0,0-.12-.4,23.413,23.413,0,0,0-.809-3.14c-.627-1.55-.7-2.668,1.373-2.9.494-.053.954-.363,1.447-.469a2.041,2.041,0,0,1,2.76,1.6c.866,2.613,2.079,5.11,3.1,7.674a14.645,14.645,0,0,0,5.378,6.711Q170.33,147.993,170.293,150.056Z" transform="translate(-99.894 -7.875)" fill="#df8a51"/>
      <path id="Trazado_3921" data-name="Trazado 3921" d="M210.731,130.311c1.851,3.169,2.067,6.738,2.886,10.2,1,4.234-.667,6.788-2.932,9.51a7.982,7.982,0,0,1-2.632,1.7c-1.2.6-2.521.962-3.674,1.629-.331.191-.39,1.088-.342,1.642a11.564,11.564,0,0,0,.554,2.072l-4.187-4.987c2.994-1.474,5.882-2.932,8.8-4.319a3.948,3.948,0,0,0,2.464-3.9,31.006,31.006,0,0,0-2.272-13.991h.451Z" transform="translate(-92.951 -7.873)" fill="#3d465d"/>
      <path id="Trazado_3922" data-name="Trazado 3922" d="M184.1,152.089c-2.153-1.356-4.288-2.742-6.467-4.054-1.027-.618-2.139-1.092-3.212-1.632q.487-3.543.977-7.086l5.63,4.438L181,143.73l.387.353Z" transform="translate(-97.007 -6.397)" fill="#325dbc"/>
      <path id="Trazado_3923" data-name="Trazado 3923" d="M194.106,112.74c.082.468.383,1.05.208,1.384-.868,1.659-1.577,3.539-2.861,4.817-4.723,4.7-10.125,8.382-16.754,9.92a11.724,11.724,0,0,1,7.342-5.956,22.927,22.927,0,0,0,4.416-1.728c1.483-.838,3.014-1.847,2.857-3.961Z" transform="translate(-96.963 -10.545)" fill="#f7eede"/>
      <path id="Trazado_3924" data-name="Trazado 3924" d="M190.478,116.612c.157,2.113-1.373,3.123-2.857,3.961a22.927,22.927,0,0,1-4.416,1.728,11.724,11.724,0,0,0-7.342,5.956l-.173.015-5.477-1.545.059.029-.607-.476-2.422-1.858a7.44,7.44,0,0,1,2.415.01,8.4,8.4,0,0,0,9.854-2.984c.032-.067.064-.134.095-.2l1.213-.3Z" transform="translate(-98.127 -9.941)" fill="#f7e4c6"/>
      <path id="Trazado_3925" data-name="Trazado 3925" d="M168.353,148.842q.038-2.064.077-4.128c1.97.479,1.887-1.03,2.066-2.2.249-1.622.408-3.258.606-4.888,2.319.149,3.239.913,2.673,3.215-.933,3.788-1.586,7.646-2.357,11.475l-.845.472c-.654-.953-.364-2.694-2.214-2.644Z" transform="translate(-97.954 -6.661)" fill="#da824b"/>
      <path id="Trazado_3926" data-name="Trazado 3926" d="M180.154,120.971a8.4,8.4,0,0,1-9.854,2.984,7.44,7.44,0,0,0-2.415-.01l-2.65-1.7-.845-.516-1.268-1.7.1-.353c4.549.428,9.1.873,13.65,1.268C177.957,121.037,179.06,120.966,180.154,120.971Z" transform="translate(-98.77 -9.463)" fill="#f3d9b0"/>
      <path id="Trazado_3927" data-name="Trazado 3927" d="M188.645,117.326l-9.659,4.331.439-2.5,1.288-.551,1.365-.785,6.531-3.208.919-.768,1.822-1.783,1.669-.025.417.813Q191.042,115.088,188.645,117.326Z" transform="translate(-96.294 -10.655)" fill="#4d4b4d"/>
      <path id="Trazado_3928" data-name="Trazado 3928" d="M203.511,200.391c-3.273.393-3.274.393-3.284-2.564q-.005-1.859,0-3.719c0-2.852,0-2.852,3.287-3.051Z" transform="translate(-92.979 1.678)" fill="#48526c"/>
      <path id="Trazado_3929" data-name="Trazado 3929" d="M172.843,130.391c2.2.324,3.757,1.6,5.58,4.387-1.166,1.814-4.049,3.014-5.343,1.859C171.062,134.838,172.54,132.6,172.843,130.391Z" transform="translate(-97.379 -7.79)" fill="#df8a51"/>
      <path id="Trazado_3930" data-name="Trazado 3930" d="M137.362,191.1c0,2.41.032,4.822-.018,7.231-.035,1.616.52,2.169,2.238,1.97a21.113,21.113,0,0,1,4.379.37c-.5.323-1.007.926-1.5.918a28.428,28.428,0,0,1-4.93-.5,1.889,1.889,0,0,1-1.2-1.334,57.009,57.009,0,0,1,.42-9.943Z" transform="translate(-102.96 1.485)" fill="#4d4b4d"/>
      <path id="Trazado_3931" data-name="Trazado 3931" d="M167.278,162.479q.414-3.708.828-7.415c.3-.4.63-.79.9-1.212.58-.9,1.131-1.822,1.692-2.735a3.43,3.43,0,0,0,.342.065c-.864,4.505-1.727,9.009-2.7,14.094C167.883,164.072,167.581,163.275,167.278,162.479Z" transform="translate(-98.121 -4.556)" fill="#da824b"/>
      <path id="Trazado_3932" data-name="Trazado 3932" d="M180.894,144.171l-5.63-4.438,3.111-3.08Z" transform="translate(-96.875 -6.813)" fill="#e2975f"/>
      <path id="Trazado_3933" data-name="Trazado 3933" d="M149.826,187.02c.461.664,1.2,1.28,1.324,2a14.054,14.054,0,0,1,.008,3.884c-.051.453-.671.844-1.03,1.262-.368-.41-1.024-.8-1.052-1.237-.119-1.842-.051-3.695-.051-5.545Z" transform="translate(-100.973 1.048)" fill="#48526c"/>
      <path id="Trazado_3934" data-name="Trazado 3934" d="M181.085,118.2l-.439,2.5-1.213.3c-.632-.529-1.242-1.48-1.9-1.514-2.66-.141-5.335.036-8,0-.394-.006-.782-.528-1.172-.812,2.748.016,5.5.095,8.242.025C178.1,118.661,179.589,118.372,181.085,118.2Z" transform="translate(-97.953 -9.694)" fill="#524d4b"/>
      <path id="Trazado_3935" data-name="Trazado 3935" d="M204.024,153.432c2.3-.936,3.221.157,3.474,2.317.1.846.306,1.679.465,2.517Z" transform="translate(-92.386 -4.247)" fill="#3d465d"/>
      <path id="Trazado_3936" data-name="Trazado 3936" d="M169.811,125.362l5.477,1.545C173.08,127.749,171.174,127.518,169.811,125.362Z" transform="translate(-97.726 -8.575)" fill="#f7eede"/>
      <path id="Trazado_3937" data-name="Trazado 3937" d="M148.3,198.841c-1.047.342-2.081.742-3.15.988-.274.064-.66-.356-1-.553.244-.364.457-1.01.738-1.042a29.861,29.861,0,0,1,3.314-.05Z" transform="translate(-101.731 2.787)" fill="#4d4b4d"/>
      <path id="Trazado_3938" data-name="Trazado 3938" d="M233.551,196.234,231.379,194q.2-.392.407-.785l2.627,2.192Z" transform="translate(-88.117 2.015)" fill="#4d4b4d"/>
      <path id="Trazado_3939" data-name="Trazado 3939" d="M235.167,205.143l-3.073-.015C232.651,203.549,233.732,203.555,235.167,205.143Z" transform="translate(-88.005 3.69)" fill="#4d4b4d"/>
      <path id="Trazado_3940" data-name="Trazado 3940" d="M214.557,209.993l3.622-.85Z" transform="translate(-90.742 4.501)" fill="#4d4b4d"/>
      <path id="Trazado_3941" data-name="Trazado 3941" d="M199.208,129.114l-.874,3.064Z" transform="translate(-93.274 -7.99)" fill="#524d4b"/>
      <path id="Trazado_3942" data-name="Trazado 3942" d="M199.931,126.059l-.406,2.654C199.046,127.734,198.5,126.746,199.931,126.059Z" transform="translate(-93.169 -8.467)" fill="#524d4b"/>
      <path id="Trazado_3943" data-name="Trazado 3943" d="M191.35,112.274l-1.669.025,1.669-1.782Z" transform="translate(-94.625 -10.892)" fill="#524d4b"/>
      <path id="Trazado_3944" data-name="Trazado 3944" d="M238.1,203.741l-.83,1.128-.556-.4.852-1.209Z" transform="translate(-87.284 3.582)" fill="#4d4b4d"/>
      <path id="Trazado_3945" data-name="Trazado 3945" d="M160.5,146.178q.246.649.494,1.295l-1.217-.419Z" transform="translate(-99.293 -5.327)" fill="#4d4b4d"/>
      <path id="Trazado_3946" data-name="Trazado 3946" d="M133.586,202.711l-.392,1.794-.491-.1q.208-.848.415-1.7Z" transform="translate(-103.518 3.496)" fill="#4d4b4d"/>
      <path id="Trazado_3947" data-name="Trazado 3947" d="M166.2,163.045q-.42-.664-.84-1.327Q165.784,162.382,166.2,163.045Z" transform="translate(-98.42 -2.901)" fill="#524d4b"/>
      <path id="Trazado_3948" data-name="Trazado 3948" d="M237.887,201.9l.24-1.214.368.045v1.212Z" transform="translate(-87.101 3.18)" fill="#4d4b4d"/>
      <path id="Trazado_3949" data-name="Trazado 3949" d="M173.293,192.579l.875-.873.631.557Z" transform="translate(-97.183 1.779)" fill="#4d4b4d"/>
      <path id="Trazado_3950" data-name="Trazado 3950" d="M163.3,120.071l-1.282-.251.111-.431,1.268.331Z" transform="translate(-98.943 -9.508)" fill="#524d4b"/>
      <path id="Trazado_3951" data-name="Trazado 3951" d="M165.112,160.465q-.629-.888-1.255-1.775Z" transform="translate(-98.655 -3.374)" fill="#524d4b"/>
      <path id="Trazado_3952" data-name="Trazado 3952" d="M165.7,118.262l1.342.21Z" transform="translate(-98.368 -9.684)" fill="#524d4b"/>
      <path id="Trazado_3953" data-name="Trazado 3953" d="M237.571,200.183l-.756.8-.309-.255.624-.854Z" transform="translate(-87.317 3.054)" fill="#4d4b4d"/>
      <path id="Trazado_3954" data-name="Trazado 3954" d="M143.266,186.6l-.723-.495,1.039-.3Z" transform="translate(-101.982 0.858)" fill="#4d4b4d"/>
      <path id="Trazado_3955" data-name="Trazado 3955" d="M197.069,103.374l.575-.824.627.608Z" transform="translate(-93.472 -12.136)" fill="#4d4b4d"/>
      <path id="Trazado_3956" data-name="Trazado 3956" d="M192.67,154.516q-.231.661-.459,1.32Q192.44,155.176,192.67,154.516Z" transform="translate(-94.23 -4.025)" fill="#524d4b"/>
      <path id="Trazado_3957" data-name="Trazado 3957" d="M194.6,146.558q-.22.874-.442,1.748Q194.376,147.432,194.6,146.558Z" transform="translate(-93.926 -5.267)" fill="#524d4b"/>
      <path id="Trazado_3958" data-name="Trazado 3958" d="M194.246,148.446l-.834.912Z" transform="translate(-94.043 -4.973)" fill="#524d4b"/>
      <path id="Trazado_3959" data-name="Trazado 3959" d="M193.448,151.486l-.427.886Z" transform="translate(-94.104 -4.498)" fill="#524d4b"/>
      <path id="Trazado_3960" data-name="Trazado 3960" d="M193.06,153l-.43.883Z" transform="translate(-94.165 -4.261)" fill="#524d4b"/>
      <path id="Trazado_3961" data-name="Trazado 3961" d="M148.259,134.876l.412-.661.259.26-.66.412Z" transform="translate(-101.09 -7.194)" fill="#4d4b4d"/>
      <path id="Trazado_3962" data-name="Trazado 3962" d="M191.551,157.18q-.219.659-.435,1.318Q191.333,157.839,191.551,157.18Z" transform="translate(-94.401 -3.609)" fill="#524d4b"/>
      <path id="Trazado_3963" data-name="Trazado 3963" d="M164.219,121.45l.845.516Z" transform="translate(-98.599 -9.186)" fill="#524d4b"/>
      <path id="Trazado_3964" data-name="Trazado 3964" d="M188.1,160.978l.438-.016c-.187.228-.373.457-.56.684Z" transform="translate(-94.89 -3.019)" fill="#524d4b"/>
      <path id="Trazado_3965" data-name="Trazado 3965" d="M158.878,141.628q.172.028.343.038,0,.421-.007.845Z" transform="translate(-99.433 -6.037)" fill="#524d4b"/>
      <path id="Trazado_3966" data-name="Trazado 3966" d="M213.033,188.694q.007.851.013,1.7Q213.041,189.544,213.033,188.694Z" transform="translate(-90.98 1.309)" fill="#4d4b4d"/>
      <path id="Trazado_3967" data-name="Trazado 3967" d="M170.58,151.3a3.43,3.43,0,0,1-.342-.065c.009-.145.023-.288.04-.431l.845-.472Z" transform="translate(-97.66 -4.678)" fill="#524d4b"/>
      <path id="Trazado_3968" data-name="Trazado 3968" d="M173.749,179.187l.3.51-.76-.494Z" transform="translate(-97.183 -0.175)" fill="#4d4b4d"/>
      <path id="Trazado_3969" data-name="Trazado 3969" d="M136.624,139.357l-.886.437Z" transform="translate(-103.044 -6.391)" fill="#4d4b4d"/>
      <path id="Trazado_3970" data-name="Trazado 3970" d="M181.314,139.426l-.332-.481.179-.106.132.6Z" transform="translate(-95.983 -6.472)" fill="#da824b"/>
      <path id="Trazado_3971" data-name="Trazado 3971" d="M171.327,158.409a1.276,1.276,0,0,1-.3.043c.076-.28.154-.558.23-.838Z" transform="translate(-97.537 -3.542)" fill="#524d4b"/>
      <path id="Trazado_3972" data-name="Trazado 3972" d="M208.651,129.9H208.2l-.118-.3Z" transform="translate(-91.753 -7.914)" fill="#4d4b4d"/>
      <path id="Trazado_3973" data-name="Trazado 3973" d="M218.1,188.448l-.369-.917C217.852,187.836,217.974,188.143,218.1,188.448Z" transform="translate(-90.247 1.128)" fill="#4d4b4d"/>
      <path id="Trazado_3974" data-name="Trazado 3974" d="M218.147,189.1l-.068-.428a2.03,2.03,0,0,1,.192.287C218.281,188.978,218.191,189.048,218.147,189.1Z" transform="translate(-90.193 1.305)" fill="#4d4b4d"/>
      <path id="Trazado_3975" data-name="Trazado 3975" d="M169.337,124.975l.607.476Z" transform="translate(-97.8 -8.636)" fill="#f7eede"/>
      <path id="Trazado_3976" data-name="Trazado 3976" d="M199.521,128.727l-.425.437Z" transform="translate(-93.155 -8.05)" fill="#524d4b"/>
      <path id="Trazado_3977" data-name="Trazado 3977" d="M173.749,179.247l-.46.016,0-.454,0,0Z" transform="translate(-97.183 -0.234)" fill="#49536c"/>
      <path id="Trazado_3978" data-name="Trazado 3978" d="M222.993,208.784l.431.429Z" transform="translate(-89.426 4.445)" fill="#4d4b4d"/>
      <path id="Trazado_3979" data-name="Trazado 3979" d="M180.5,143.487l-.387-.353Z" transform="translate(-96.119 -5.802)" fill="#e2975f"/>
      <path id="Trazado_3980" data-name="Trazado 3980" d="M236.273,198.531l.423.438Z" transform="translate(-87.353 2.845)" fill="#4d4b4d"/>
      <path id="Trazado_3981" data-name="Trazado 3981" d="M198.367,132.9l-.413.451Z" transform="translate(-93.334 -7.4)" fill="#524d4b"/>
      <path id="Trazado_3982" data-name="Trazado 3982" d="M191.881,156.453l.157.267-.17.084C191.873,156.688,191.876,156.57,191.881,156.453Z" transform="translate(-94.284 -3.723)" fill="#524d4b"/>
      <path id="Trazado_3983" data-name="Trazado 3983" d="M198.357,131.764a3.547,3.547,0,0,1-.015.43,2.121,2.121,0,0,1-.151-.314C198.184,131.861,198.3,131.8,198.357,131.764Z" transform="translate(-93.297 -7.576)" fill="#524d4b"/>
      <path id="Trazado_3984" data-name="Trazado 3984" d="M213.067,190.956a.536.536,0,0,1,.007.416,1.64,1.64,0,0,1-.135-.294C212.932,191.051,213.022,191,213.067,190.956Z" transform="translate(-90.995 1.662)" fill="#4d4b4d"/>
      <path id="Trazado_3985" data-name="Trazado 3985" d="M192.255,117.922a.177.177,0,0,1-.172-.236l.147.008A.344.344,0,0,1,192.255,117.922Z" transform="translate(-94.251 -9.773)" fill="#524d4b"/>
      <path id="Trazado_3986" data-name="Trazado 3986" d="M156.96,135.56a.774.774,0,0,1,.12.4C157.041,135.829,157,135.7,156.96,135.56Z" transform="translate(-99.732 -6.984)" fill="#524d4b"/>
      <path id="Trazado_3987" data-name="Trazado 3987" d="M183.166,150.74l-.4-.4Z" transform="translate(-95.704 -4.677)" fill="#325dbc"/>
      <path id="Trazado_3988" data-name="Trazado 3988" d="M198.337,132.159a2.054,2.054,0,0,1,.157.3c.006.017-.1.075-.16.116A3.826,3.826,0,0,1,198.337,132.159Z" transform="translate(-93.275 -7.515)" fill="#524d4b"/>
      <path id="Trazado_3989" data-name="Trazado 3989" d="M119.424,234.977l.438.006Z" transform="translate(-105.59 8.533)" fill="#4d4b4d"/>
      <path id="Trazado_3990" data-name="Trazado 3990" d="M186.892,77.855l-3.477,1.083a10.876,10.876,0,0,1-.358-2.1c.066-2.906.338-5.813.3-8.716a26.6,26.6,0,0,0-2.392-11.5c-1.045.86-1.909,1.6-2.8,2.3-1.3,1.027-2.135.9-2.21-.954.905-1.474,3.446-1.713,3.38-4.26a15.877,15.877,0,0,0-3.889,1.279,14.184,14.184,0,0,0-2.526,2.862l-1.34,1.077-1.127-.225c-.06-.259-.119-.519-.179-.778-.066-4.207,3.79-4.639,6.534-6.284-2.719-1.435-5.046-.6-7.2.338a3.848,3.848,0,0,0-1.935,5.525c-.066,1.355-.483,1.607-2.04,1.536-2.373-.11-4.785.644-7.18,1.031l-2.18-.868c-.309-.143-.818-.482-.9-.4-.949.975-1.836,2.012-2.739,3.032l-1,.279.356.659q-1.07,2.2-2.141,4.4l-1.284.288.8,1-.629,2.146-.287.914-.214,1.714-.246.909-.176.846c-1.04.413-1.058.854-.038,1.326l-.066,1.3-.19,1.777.175,6.6.187,3.047.336.873.157,1.31-1.535.7-1.116-1.576c-.147-4.053-.272-8.108-.453-12.158a25.387,25.387,0,0,0-.421-2.776l-.006-.4.445-.473c0-.134,0-.268,0-.4l.438-3.542.434-1.284c.3-.341.753-.637.872-1.032,1.7-5.654,5.095-10.245,9.074-14.458,1.131-1.2,5.081-1.308,6.946-.305.5.271,1,.539,1.572.844,2.423-4.61,6.442-6.089,11.169-5.564,1.488.165,2.991,1.393,4.216,2.447a12.925,12.925,0,0,1,4.267,7.867c.6,3.636.963,7.311,1.339,10.979.14,1.362.022,2.751.022,4.481A17.609,17.609,0,0,0,189.2,73.13a3.1,3.1,0,0,0,1.161-2.2,41.064,41.064,0,0,0-.541-5.114l-.523,1.523-.6.161-2.881-9.268c2.075,1.057,1.682,3.269,2.321,5h.731c.053-1.827.029-3.66.2-5.475a8.3,8.3,0,0,1,.86-2.176l.943.253c.736,7.459,1.474,14.917,2.2,22.241l2.76.486c-.316,3.057-2.765,1.431-4.228,1.806-.9.231-1.761-.271-1.276-1.717.311-.929.058-2.049.058-3.586Z" transform="translate(-101.624 -20.542)" fill="#494645"/>
      <path id="Trazado_3991" data-name="Trazado 3991" d="M181.215,74.3,184.7,71.5c0,1.538.253,2.657-.058,3.586-.484,1.446.377,1.948,1.276,1.717,1.462-.375,3.912,1.251,4.228-1.806l2.519-.1q.912,4.129,1.821,8.258c.166.768.305,1.541.457,2.311.474,1.382,1.425,1.4,2.561.9L201,85.107c.114.637.23,1.273.408,2.261,1.624-1.74,2.5-1.313,3.082.343a4.256,4.256,0,0,0,.561.866l.043,1.718q-.069,1.314-.14,2.631a1.476,1.476,0,0,1-.35.139l-3.527-5.187c-.419.308-1.2.864-1.956,1.444-1.431,1.092-2.5,1.323-4.067-.239-2.749-2.739-5.916-5.059-8.906-7.555-.331-1.72-1.288-2.524-3.081-2.105Q182.138,76.858,181.215,74.3Z" transform="translate(-95.946 -16.982)" fill="#f7e4c6"/>
      <path id="Trazado_3992" data-name="Trazado 3992" d="M160.7,48.359a25.728,25.728,0,0,1-3.828.582c-5.619.032-8.219,4.06-10.823,8.06-2.009,3.086-3.558,6.32-3.2,10.206.054.594-.882,1.279-1.361,1.921-.4-.645-1.079-1.262-1.143-1.94-.489-5.067,2.132-9.057,4.634-13.115C148.1,49,152.5,46.261,158.51,46.45a7.742,7.742,0,0,1,2.536,1.1Z" transform="translate(-102.335 -20.893)" fill="#464343"/>
      <path id="Trazado_3993" data-name="Trazado 3993" d="M172.358,39.4l-4.583-.274-.08-.673a12.116,12.116,0,0,1,2.8-.318c1.6.184,3.676.1,4.669,1.047,2.264,2.166,5.523,1.657,7.738,3.509a6.87,6.87,0,0,1,1.172,2.163,10.954,10.954,0,0,1-2.194-.1c-2.936-.729-5.822-1.7-8.787-2.259a18.506,18.506,0,0,0-5.46-.009A22.516,22.516,0,0,0,163.9,43.68a9.931,9.931,0,0,1-1.561.221c-.055-.527-.317-1.146-.129-1.565a3.867,3.867,0,0,1,3.741-2.531c2.113.009,4.227,0,6.34,0Z" transform="translate(-98.924 -22.192)" fill="#464343"/>
      <path id="Trazado_3994" data-name="Trazado 3994" d="M181.814,37.922c-.576.129-1.235.5-1.71.34a19.819,19.819,0,0,1-2.659-1.435,14.7,14.7,0,0,0-14.209-.234c-.849.429-1.43,1.364-2.244,1.9a7.951,7.951,0,0,1-1.979.669c-.046-.645-.36-1.435-.1-1.91,1.672-3.044,4.758-3.705,7.8-4.459,5.151-1.277,9.533.712,13.811,3.164a9.1,9.1,0,0,1,1.354,1.168Z" transform="translate(-99.443 -23.085)" fill="#464343"/>
      <path id="Trazado_3995" data-name="Trazado 3995" d="M161.088,41.733c-.634.055-1.386.362-1.882.126a9.863,9.863,0,0,0-10.822,1.268c-1.528,1.154-2.65,2.832-4.083,4.132-.468.424-1.338.4-2.023.586-.023-.652-.331-1.514-.027-1.924,3.566-4.794,9.8-9.643,17.081-6.517a10.937,10.937,0,0,1,1.939,1.386Z" transform="translate(-102.048 -22.146)" fill="#464343"/>
      <path id="Trazado_3996" data-name="Trazado 3996" d="M167.769,31.037l-9.649,3.948h0a17.166,17.166,0,0,1,2.594-2.934c2.089-1.5,4.387-2.672,7.2-2.329l-2.788.9.017.415Z" transform="translate(-99.551 -23.512)" fill="#464343"/>
      <path id="Trazado_3997" data-name="Trazado 3997" d="M145.6,72.052c0,.134,0,.268,0,.4l-.445.473.006.4-2.342.741,1.868.946-1.814,2.024V71.178l1.265,1.409L146.9,62.035l.719.2-1.155,4.994-.434,1.284Q145.814,70.281,145.6,72.052Z" transform="translate(-101.939 -18.459)" fill="#464343"/>
      <path id="Trazado_3998" data-name="Trazado 3998" d="M162.722,39.813c1.843-2.562,4.083-3.554,6.649-2.8l-3.268.98.36,1.437Z" transform="translate(-98.833 -22.403)" fill="#464343"/>
      <path id="Trazado_3999" data-name="Trazado 3999" d="M144.777,60.8q-.477,4.1-.951,8.192l-.918-.117q.534-4.089,1.069-8.177Z" transform="translate(-101.925 -18.668)" fill="#464343"/>
      <path id="Trazado_4000" data-name="Trazado 4000" d="M145.719,84.722l1.116,1.576,1.535-.7-1.342,1.872-1.309.361-.877-3.105Z" transform="translate(-101.623 -14.918)" fill="#524d4b"/>
      <path id="Trazado_4001" data-name="Trazado 4001" d="M171.45,37.186h-2.086l0-.431h2.086Z" transform="translate(-97.796 -22.405)" fill="#464343"/>
      <path id="Trazado_4002" data-name="Trazado 4002" d="M206.536,74.09l-1.756.887Z" transform="translate(-92.268 -16.578)" fill="#524d4b"/>
      <path id="Trazado_4003" data-name="Trazado 4003" d="M167.916,30.775c-.053.121-.08.31-.166.345s-.236-.084-.357-.136c.052-.121.079-.311.165-.345S167.793,30.723,167.916,30.775Z" transform="translate(-98.104 -23.36)" fill="#464343"/>
      <path id="Trazado_4004" data-name="Trazado 4004" d="M172.824,36.838l-.156.365c-.121-.053-.311-.079-.346-.165s.084-.237.136-.358C172.581,36.732,172.7,36.785,172.824,36.838Z" transform="translate(-97.335 -22.417)" fill="#464343"/>
      <path id="Trazado_4005" data-name="Trazado 4005" d="M158.21,34.266l-.527.667-.142-.142.668-.525Z" transform="translate(-99.641 -22.793)" fill="#464343"/>
      <path id="Trazado_4006" data-name="Trazado 4006" d="M204.84,74.856l-.44.88Z" transform="translate(-92.328 -16.458)" fill="#524d4b"/>
      <path id="Trazado_4007" data-name="Trazado 4007" d="M166.466,30.876l.1-.184.083.084Z" transform="translate(-98.248 -23.351)" fill="#464343"/>
      <path id="Trazado_4008" data-name="Trazado 4008" d="M181.8,290.345c1.956-.05,1.579,1.714,2.131,2.749a45.544,45.544,0,0,0,2.93,5.309c.261.363,1.855-.018,2.708-.369.591-.243.962-1.02,1.431-1.558l.879,0c-.145,1.471-.088,2.818,1.846,3.014,1.66.168,3.326.288,4.979.505,2.458.321,5.112.01,6.909,2.431.358.484,1.444.613,2.188.6,3.124-.067,6.246-.369,9.369-.363,3.5.007,7,.421,10.494.344,3.239-.072,5.71,1.262,8.054,3.259a10.2,10.2,0,0,0,2.643,1.179q.009,1.972.018,3.941.01.884.02,1.768-.009,1.53-.018,3.057.005,1.1.012,2.2-.005,1.748-.014,3.5c0,14.612-.221,29.228.087,43.834.145,6.862,1.313,13.7,1.994,20.556.351,3.539.746,7.077.954,10.625.5,8.563.622,17.159,1.4,25.695,1.62,17.683,1.2,35.394,1.247,53.1.025,9.133.03,18.265-.043,27.4-.006.762-.709,1.5-1.018,2.28a6.574,6.574,0,0,0-.658,2.163c-.069,3.35-.031,6.7-.031,9.967H219.235c.394-.98.687-1.706,1.015-2.524-2.178-.264-1.667-1.921-1.79-3.366-.21-2.51.084-5.39-1.076-7.4a19.767,19.767,0,0,1-2.455-5.617c-.511-2.326-.691-4.723-1.147-7.064-.311-1.6-.85-3.156-1.286-4.732l-.006-.457c0-.286,0-.572-.006-.858-.142-1.734-.306-3.467-.424-5.2-.312-4.607-.555-9.22-.955-13.819a4.268,4.268,0,0,0-1.238-2.1c-1.012-1.14-1.227-2.108-.185-3.431a4.362,4.362,0,0,0,.988-2.9c-.951-6.881-2.084-13.737-3.126-20.606a2.707,2.707,0,0,1,.138-1.827c1.191-1.473.9-2.968.435-4.551-.356-1.221-.683-2.454-.927-3.7-.6-3.052-1.024-6.146-1.785-9.155-.2-.791-1.372-1.336-2.1-2a30.348,30.348,0,0,0-1.444,2.8,9.216,9.216,0,0,0-.335,2.021c-.387-2.55-.636-5.132-1.188-7.645-1.275-5.8-2.7-11.571-4.06-17.354.635.539,1.54.953,1.857,1.638,1.073,2.326,1.938,4.748,2.953,7.313,2.645-2.649,2.654-3.612,1.083-6.17-1.242-2.021-2.553-4.186-.565-6.6.234-.282.106-.971-.022-1.423-1.31-4.6-2.723-9.18-3.972-13.8-1.535-5.676-3.095-11.355-4.36-17.095-1.042-4.73-1.54-9.577-2.518-14.324-.731-3.541-2.062-6.964-2.694-10.517-.329-1.852-1.028-2.57-2.731-2.631l-.8-2.024c-.342.474-.658.97-1.038,1.412a2.454,2.454,0,0,1-.8.588c-1.007.473-2.032.908-3.05,1.357a18.046,18.046,0,0,1-2.829,2.739c-2.791,1.731-3.429,4.427-3.8,7.354a7.446,7.446,0,0,1-.754,2.243c-1.154,2.386-2.474,4.7-3.5,7.14a7.137,7.137,0,0,0-.046,3.046,14.908,14.908,0,0,0,.416,2.05l-.891,4.8c-1.421,4.886-2.86,9.767-4.232,14.666-.128.459.171,1.038.272,1.561l0,1.755-1.577,2.133,1.562.506c.073,1.557.036,3.129.246,4.668.231,1.694.993,3.356.994,5.034,0,6.041-.245,12.08-.325,18.122-.019,1.44.354,2.884.366,4.33.045,4.829.007,9.659,0,14.488,0,5.442.037,10.883-.021,16.325-.034,3.126-.308,6.251-.317,9.378-.008,2.286.332,4.572.355,6.86.055,5.612.017,11.224.016,16.837a3.936,3.936,0,0,0-.406,1.18c-.023,8.249,0,16.5-.032,24.747,0,.943-.31,1.882-.355,2.829a16.829,16.829,0,0,0,.051,3.7c.292,1.65,1.593,1.954,2.945.828.494,1.382.186,2.251-1.452,2.25-3.8,0-7.65.384-11.383-.116a52.2,52.2,0,0,0-12.629.083c-2.965.318-4-.529-3.9-3.419.166-4.486-1.829-8.465-2.882-12.65-2.43-9.647-5.49-19.146-7.669-28.844a168.35,168.35,0,0,1-3-21.069c-.852-9.035-1.255-18.113-1.817-27.176-.2-3.193-.223-6.4-.451-9.589-1.609-22.6-.547-45.226-.888-67.837q0-24.342.006-48.684v-4.265c5.7.111,11.127.208,16.555.324q9.7.208,19.4.443,8.062.2,16.124.432c2.409.074,4.816.231,7.469.363l-.757-1.675Z" transform="translate(-105.243 17.175)" fill="#48526c"/>
      <path id="Trazado_4009" data-name="Trazado 4009" d="M129.631,500.288l2.257-.9a10.832,10.832,0,0,1,5.118,5.928l.555-.4.852-1.965a8.5,8.5,0,0,0,1.861.823,7.8,7.8,0,0,0,1.925-.124,8.787,8.787,0,0,0-1.061-1.773,3.625,3.625,0,0,0-1.542-.791c-2.15-.654-2.9-2.223-2.924-4.3l2.243-1.333c2.012.155,4.526-.9,5.273,2.295.073.31.943.434,1.444.643a5.941,5.941,0,0,0,.459-1.664,5.444,5.444,0,0,0-.383-1.514c.732-.82,1.273-1.424,1.814-2.029-.679-.267-1.361-.525-2.036-.8-.728-.3-1.449-.613-2.173-.92q.2-1.732.407-3.465a47.578,47.578,0,0,1,4.748.473c2.763.544,5.506,1.207,8.221,1.954.536.148.972.857,1.338,1.387.521.758.936,1.592,1.392,2.385-.838,1.621-2.052,3.147-.051,4.85.328.279,0,1.509-.234,2.236-.8,2.533-1.692,5.037-2.55,7.553-.273.609-1.164.756-1.89,1.185-1.428.844-3.365,1.236-3.5,3.424-4.652.44-9.3,1.128-13.957,1.266-7.295.215-14.6.06-21.9.059-2.858,0-2.858,0-2.731-2.949a7.531,7.531,0,0,1,5.368-6.681c2.015-.55,4.006-1.191,6.007-1.791a16.647,16.647,0,0,1,2.607.89,15.494,15.494,0,0,1,2.434,1.751c.64.52,1.212,1.126,1.813,1.693.089-.756.176-1.512.269-2.267.016-.14.059-.277.01-.057l2.382-2a9.953,9.953,0,0,0-2.365-.873C129.635,502.327,129.718,501.294,129.631,500.288Z" transform="translate(-106.661 48.022)" fill="#764225"/>
      <path id="Trazado_4010" data-name="Trazado 4010" d="M189.4,527.9c-1.736.145-3.475.4-5.208.372-.593-.01-1.644-.7-1.686-1.151-.484-5.278.145-10.234,4.738-13.79q.435.251.872.5c.19,1.666.349,3.336.6,4.993a1.1,1.1,0,0,0,.78.654c2.928.435,5.827.708,8.638-.717,1.987-1.007,4.106-2.536,6.128-2.48a10.327,10.327,0,0,0,5.3-1.306c3.671-1.88,7.458-3.61,10.213-7.363-2.32-.581-.965-2.3-1.126-3.639a4.154,4.154,0,0,1-.764.052c-.8-.123-1.594-.272-2.391-.412.3-.672.615-1.335.881-2.018a6.255,6.255,0,0,0,.642-1.988c.031-1.482-.129-2.968-.212-4.434a17.022,17.022,0,0,1-3.505-.049,24.94,24.94,0,0,1-3.7-1.431c.138-1.466-.358-2.1-1.884-1.484-.857.346-1.74.624-2.283.817l-1.968-1.527c.23-3.513.231-3.566,3.621-3.506,6.051.106,12.1.312,18.15.412,1.421.024,1.935.593,1.927,1.979-.036,6.36.016,12.719-.035,19.078-.023,2.874-2.369,4.243-4.368,5.334-6.136,3.346-12.41,6.453-18.732,9.438-2.071.977-4.452,1.3-6.691,1.919l-2.2.427-.024.014Z" transform="translate(-95.766 48.021)" fill="#71381e"/>
      <path id="Trazado_4011" data-name="Trazado 4011" d="M208.824,492.922a24.94,24.94,0,0,0,3.7,1.431,17.022,17.022,0,0,0,3.505.049c.082,1.466.243,2.951.212,4.434a6.255,6.255,0,0,1-.642,1.988c-.266.683-.585,1.347-.881,2.018.8.14,1.592.289,2.391.412a4.154,4.154,0,0,0,.764-.052c.161,1.336-1.194,3.058,1.126,3.639-2.755,3.753-6.542,5.483-10.213,7.363a10.328,10.328,0,0,1-5.3,1.306c-2.022-.057-4.141,1.473-6.128,2.48-2.812,1.424-5.71,1.151-8.638.717a1.1,1.1,0,0,1-.78-.654c-.253-1.657-.413-3.327-.6-4.992,1.171-.355,2.338-.725,3.514-1.061,1.942-.556,3.792-2.536,5.958-.394.089.089,1.243-.5,1.271-.823a14.5,14.5,0,0,0-.276-2.876l-2.529-1.615a12.631,12.631,0,0,1,2.261-1.519,1.951,1.951,0,0,1,1.577.414c.788.623,1.372,1.509,2.175,2.109.342.257,1.016.068,1.54.082-.064-.519.042-1.162-.227-1.534a29.709,29.709,0,0,0-2.35-2.569l3.215-1.75c-.55-2.053-1.88-1.438-2.919-.9-1.184.612-2.158.743-3.126-.265q.876-1.292,1.75-2.584l.451-.457v.012a7.388,7.388,0,0,1,5.764,1.524c.357.323,1,.331,1.51.482.069-.5.336-1.083.172-1.491-.454-1.126-1.089-2.179-1.706-3.365Z" transform="translate(-94.99 48.792)" fill="#764326"/>
      <path id="Trazado_4012" data-name="Trazado 4012" d="M159.8,470.835c0-5.613.039-11.226-.016-16.837-.023-2.288-.363-4.575-.355-6.86.009-3.127.283-6.252.317-9.378.058-5.442.017-10.883.021-16.325,0-4.829.042-9.659,0-14.488-.013-1.445-.385-2.889-.366-4.33.08-6.042.329-12.081.325-18.122,0-1.677-.763-3.34-.994-5.034-.21-1.539-.173-3.111-.245-4.668l.014-2.639,0-1.755q.366-.976.729-1.955c2.324.221,2.141.157,1.851-1.985a8.389,8.389,0,0,1,.717-4.92c1.38-2.473,1.2-4.847.664-7.367q.446-2.4.89-4.8c1.275-.412,2.295-2.942,3.918-.474-1.436,5.7-2.91,11.392-4.283,17.108a19.243,19.243,0,0,0-.517,4.424q-.047,32.875-.018,65.752,0,21.057-.006,42.115c-2.56-.393-2.169-2.421-2.314-4.161C160.041,473.033,159.914,471.935,159.8,470.835Z" transform="translate(-99.494 26.147)" fill="#2f374c"/>
      <path id="Trazado_4013" data-name="Trazado 4013" d="M176.722,326.756c1.7.061,2.4.779,2.731,2.631.631,3.553,1.963,6.976,2.694,10.517.978,4.747,1.476,9.594,2.518,14.324,1.265,5.74,2.824,11.419,4.36,17.095,1.25,4.62,2.662,9.2,3.972,13.8.128.452.255,1.141.022,1.423-1.987,2.412-.676,4.577.565,6.6,1.571,2.558,1.562,3.521-1.083,6.17-1.015-2.565-1.88-4.987-2.953-7.313-.317-.686-1.222-1.1-1.857-1.638-1.027-4.236-2.2-8.443-3.05-12.715-2-10.1-3.75-20.252-5.786-30.345C177.483,340.508,176.429,333.71,176.722,326.756Z" transform="translate(-96.655 22.858)" fill="#424a63"/>
      <path id="Trazado_4014" data-name="Trazado 4014" d="M146.99,513.674c.132-2.189,2.069-2.58,3.5-3.424.726-.429,1.617-.576,1.89-1.185.858-2.516,1.748-5.02,2.55-7.553.23-.727.562-1.957.234-2.236-2-1.7-.787-3.229.051-4.85-.455-.793-.871-1.627-1.392-2.385-.365-.531-.8-1.239-1.338-1.387-2.714-.747-5.458-1.409-8.221-1.954a47.578,47.578,0,0,0-4.748-.473c-.051-1.323.621-1.778,1.895-1.772q10.087.045,20.172-.006c1.246-.007,1.65.459,1.644,1.673-.035,6.869.037,13.741-.032,20.611-.032,3.2-.882,3.886-4.032,4.069C155.1,513.041,151.046,513.38,146.99,513.674Z" transform="translate(-102.455 47.782)" fill="#6f351c"/>
      <path id="Trazado_4015" data-name="Trazado 4015" d="M190.743,404.049a9.216,9.216,0,0,1,.335-2.021,30.348,30.348,0,0,1,1.444-2.8c.726.659,1.9,1.2,2.1,2,.761,3.009,1.186,6.1,1.785,9.155.244,1.247.571,2.481.927,3.7.461,1.584.756,3.079-.435,4.551a2.707,2.707,0,0,0-.138,1.827c1.042,6.869,2.175,13.725,3.126,20.606a4.362,4.362,0,0,1-.988,2.9c-1.042,1.324-.827,2.291.185,3.431a4.268,4.268,0,0,1,1.238,2.1c.4,4.6.643,9.212.955,13.819.118,1.735.282,3.468.424,5.2a10.287,10.287,0,0,1-1.257-2.513q-1.857-9.8-3.539-19.627c-1.058-6.207-2.082-12.421-2.992-18.65-.719-4.928-1.225-9.886-1.858-14.827-.247-1.938-.58-3.864-.875-5.8.612-.88.917-1.7-.429-2.2Z" transform="translate(-94.459 34.169)" fill="#3c445c"/>
      <path id="Trazado_4016" data-name="Trazado 4016" d="M198.858,462.055q3.444,13.871,6.89,27.76c-5.961,1.259-7.281.178-7.376-4.79-.135-7.066-.039-14.137-.028-21.206,0-.593.114-1.186.175-1.779Z" transform="translate(-93.279 43.972)" fill="#3d465d"/>
      <path id="Trazado_4017" data-name="Trazado 4017" d="M166.69,352.006c-1.623-2.468-2.643.062-3.918.474a15.079,15.079,0,0,1-.415-2.05,7.137,7.137,0,0,1,.046-3.046c1.023-2.439,2.343-4.754,3.5-7.14a7.446,7.446,0,0,0,.754-2.243c.371-2.927,1.009-5.623,3.8-7.354a18.046,18.046,0,0,0,2.829-2.739c.3,4.419-1.363,8.3-3,12.293C168.734,343.992,167.861,348.061,166.69,352.006Z" transform="translate(-98.913 23.038)" fill="#3d465d"/>
      <path id="Trazado_4018" data-name="Trazado 4018" d="M159.743,454.229c.111,1.1.238,2.2.329,3.3.146,1.74-.245,3.768,2.314,4.161q-.009,5.9-.017,11.8.007,5.948.014,11.894-.2.65-.4,1.3c-.015.162-.029.325-.044.487,0,.115.006.229.006.343-1.351,1.125-2.652.821-2.945-.829a16.83,16.83,0,0,1-.051-3.7c.045-.947.353-1.886.355-2.829.029-8.25.009-16.5.032-24.747A3.936,3.936,0,0,1,159.743,454.229Z" transform="translate(-99.433 42.753)" fill="#3a425a"/>
      <path id="Trazado_4019" data-name="Trazado 4019" d="M197.54,499.389c.968,1.008,1.942.876,3.126.265,1.039-.538,2.369-1.153,2.919.9l-3.215,1.75a29.706,29.706,0,0,1,2.35,2.569c.268.372.163,1.015.227,1.534-.524-.014-1.2.175-1.54-.082-.8-.6-1.386-1.486-2.175-2.109a1.951,1.951,0,0,0-1.577-.414,12.631,12.631,0,0,0-2.261,1.519l2.529,1.615a14.5,14.5,0,0,1,.276,2.876c-.028.325-1.182.912-1.271.823-2.166-2.142-4.016-.162-5.958.394-1.177.336-2.343.706-3.514,1.061l-.872-.5,2.17-2.072.457-.466-.017.016,4.439-1.294-.129-.9-2.088-.428a3.746,3.746,0,0,1,.488-1.15C193.76,503.308,195.657,501.356,197.54,499.389Z" transform="translate(-95.108 49.761)" fill="#393634"/>
      <path id="Trazado_4020" data-name="Trazado 4020" d="M207.165,493.218l-3.461,1.556c.617,1.186,1.252,2.239,1.706,3.365.164.408-.1.99-.172,1.491-.511-.151-1.153-.16-1.51-.482a7.388,7.388,0,0,0-5.764-1.524c.236-.6.3-1.458.736-1.751,1.775-1.19,1.951-3.047,2.329-4.85L203,492.551c.543-.193,1.427-.472,2.283-.817C206.807,491.118,207.3,491.752,207.165,493.218Z" transform="translate(-93.332 48.496)" fill="#393634"/>
      <path id="Trazado_4021" data-name="Trazado 4021" d="M134.063,495.59c.022,2.081.773,3.65,2.924,4.3a3.625,3.625,0,0,1,1.542.791,8.787,8.787,0,0,1,1.061,1.773,7.8,7.8,0,0,1-1.925.124,8.5,8.5,0,0,1-1.861-.823l-.852,1.965-.555.4a10.832,10.832,0,0,0-5.118-5.928Z" transform="translate(-104.052 49.209)" fill="#393634"/>
      <path id="Trazado_4022" data-name="Trazado 4022" d="M128.09,498.627c.087,1.007,0,2.039,1.5,2.193a9.953,9.953,0,0,1,2.365.873l-2.382,2c.049-.221.006-.083-.01.057-.094.755-.18,1.511-.269,2.267-.6-.566-1.172-1.172-1.813-1.693a15.494,15.494,0,0,0-2.434-1.751,16.647,16.647,0,0,0-2.607-.89c.139-.325.194-.84.429-.943C124.588,499.985,126.344,499.32,128.09,498.627Z" transform="translate(-105.12 49.683)" fill="#393634"/>
      <path id="Trazado_4023" data-name="Trazado 4023" d="M139.755,490.985c.725.308,1.445.622,2.173.92.675.276,1.357.534,2.036.8-.541.6-1.082,1.209-1.814,2.029a5.444,5.444,0,0,1,.383,1.514,5.94,5.94,0,0,1-.459,1.664c-.5-.209-1.371-.333-1.444-.643-.747-3.2-3.261-2.14-5.273-2.295a16.686,16.686,0,0,0,2.784-1.668A11.469,11.469,0,0,0,139.755,490.985Z" transform="translate(-103.104 48.49)" fill="#393634"/>
      <path id="Trazado_4024" data-name="Trazado 4024" d="M121.74,295.273q0,24.342-.006,48.684a13.175,13.175,0,0,1-.4-2.277q-.036-22.065,0-44.132A13.047,13.047,0,0,1,121.74,295.273Z" transform="translate(-105.295 17.944)" fill="#575352"/>
      <path id="Trazado_4025" data-name="Trazado 4025" d="M161.911,482.784,161.9,470.89Z" transform="translate(-98.961 45.354)" fill="#49536c"/>
      <path id="Trazado_4026" data-name="Trazado 4026" d="M191.064,505.465l2.088.428.129.9-4.439,1.294q.876-.89,1.753-1.777l.465-.856Z" transform="translate(-94.756 50.748)" fill="#764225"/>
      <path id="Trazado_4027" data-name="Trazado 4027" d="M188.45,522.688l5.71-1.307Z" transform="translate(-94.817 53.234)" fill="#575352"/>
      <path id="Trazado_4028" data-name="Trazado 4028" d="M190.75,404.146c1.346.5,1.04,1.32.429,2.2Q190.966,405.247,190.75,404.146Z" transform="translate(-94.458 34.936)" fill="#48526c"/>
      <path id="Trazado_4029" data-name="Trazado 4029" d="M193.41,521.426l2.2-.427Z" transform="translate(-94.043 53.174)" fill="#575352"/>
      <path id="Trazado_4030" data-name="Trazado 4030" d="M190.823,505.451l-.465.856Z" transform="translate(-94.519 50.748)" fill="#393634"/>
      <path id="Trazado_4031" data-name="Trazado 4031" d="M200.226,459.912l.006.457Z" transform="translate(-92.979 43.64)" fill="#3c445c"/>
      <path id="Trazado_4032" data-name="Trazado 4032" d="M161.525,482.79c.015-.162.029-.325.044-.487C161.555,482.465,161.54,482.628,161.525,482.79Z" transform="translate(-99.019 47.135)" fill="#48526c"/>
      <path id="Trazado_4033" data-name="Trazado 4033" d="M198.026,496.724l-.451.457Z" transform="translate(-93.393 49.386)" fill="#393634"/>
      <path id="Trazado_4034" data-name="Trazado 4034" d="M188.919,507.714l-.457.466Z" transform="translate(-94.815 51.101)" fill="#764225"/>
      <path id="Trazado_4035" data-name="Trazado 4035" d="M208.615,78.6c1.852,6.843.472,10.863-5.373,14.68l.957-7.167a9.665,9.665,0,0,0,1.4-1.612C206.656,82.568,207.617,80.576,208.615,78.6Z" transform="translate(-92.508 -15.873)" fill="#f7eede"/>
      <path id="Trazado_4036" data-name="Trazado 4036" d="M209.383,79.152c-1,1.971-1.96,3.963-3.019,5.9a9.665,9.665,0,0,1-1.4,1.612c-.052-.171-.1-.342-.157-.513q-.149-.541-.3-1.084l-1.6,1.08-.22,1.819a1.1,1.1,0,0,1-.318.05,4.256,4.256,0,0,1-.561-.866c-.579-1.657-1.458-2.083-3.082-.343-.178-.988-.294-1.624-.408-2.261,1.449-.185,2.96-.194,3.533-2.016.1-.311.828-.423,1.265-.627l1.575,1.988q.484-.779.965-1.558c-.8-2.913,1.015-4.719,3.052-7.234C209,76.85,209.193,78,209.383,79.152Z" transform="translate(-93.276 -16.42)" fill="#f3d9b0"/>
      <path id="Trazado_4037" data-name="Trazado 4037" d="M205.016,81.414l-.965,1.558-1.575-1.988Z" transform="translate(-92.628 -15.502)" fill="#524d4b"/>
      <path id="Trazado_4038" data-name="Trazado 4038" d="M195.651,84.481c-1.135.5-2.087.482-2.561-.9Z" transform="translate(-94.093 -15.096)" fill="#524d4b"/>
      <path id="Trazado_4039" data-name="Trazado 4039" d="M202.294,84.8l1.6-1.08q.147.543.3,1.084Z" transform="translate(-92.656 -15.074)" fill="#524d4b"/>
      <path id="Trazado_4040" data-name="Trazado 4040" d="M201.83,86.279a1.1,1.1,0,0,0,.318-.05L201.873,88Z" transform="translate(-92.729 -14.683)" fill="#524d4b"/>
      <path id="Trazado_4041" data-name="Trazado 4041" d="M201.443,90.173a1.475,1.475,0,0,0,.35-.139l-.289.877Z" transform="translate(-92.789 -14.089)" fill="#524d4b"/>
      <path id="Trazado_4042" data-name="Trazado 4042" d="M146.036,88.053c.7,5.52,1.428,11.038,2.086,16.564a11.808,11.808,0,0,1-.292,2.524c-1.05-1.656-1.9-3-2.753-4.339-1.608-6.066-3.215-12.131-4.991-18.832Z" transform="translate(-102.366 -15.036)" fill="#f7e4c6"/>
      <path id="Trazado_4043" data-name="Trazado 4043" d="M134.26,81.037c2.206-.335,4.127-.14,4.723,2.531q.739,3.706,1.479,7.41c.141.705.3,1.407.457,2.11l-.328.378c-1.446-1.068-3.4-1.846-4.214-3.275-1.13-2-1.446-4.465-2.013-6.756A11.693,11.693,0,0,1,134.26,81.037Z" transform="translate(-103.276 -15.513)" fill="#f7e4c6"/>
      <path id="Trazado_4044" data-name="Trazado 4044" d="M140.062,91.444l.165.458-.494-.081C139.844,91.7,139.952,91.57,140.062,91.444Z" transform="translate(-102.42 -13.869)" fill="#f7e4c6"/>
      <path id="Trazado_4045" data-name="Trazado 4045" d="M228.889,306.667a10.2,10.2,0,0,1-2.643-1.179c-2.345-2-4.815-3.331-8.054-3.259-3.494.076-7-.338-10.494-.344-3.123-.006-6.245.3-9.369.363-.745.015-1.83-.113-2.188-.6-1.8-2.421-4.451-2.11-6.909-2.431-1.653-.217-3.319-.338-4.979-.505-1.934-.2-1.991-1.543-1.846-3.014a28.023,28.023,0,0,1,3.872-.346c4.3.2,8.6.512,12.9.791.647.042,1.291.134,1.938.2,2.757.272,5.514.751,8.273.763,4.131.017,8.262-.421,12.393-.417a63.644,63.644,0,0,1,7.106.768Q228.89,302.062,228.889,306.667Z" transform="translate(-95.768 17.955)" fill="#424a63"/>
      <path id="Trazado_4046" data-name="Trazado 4046" d="M229.3,297.829a63.644,63.644,0,0,0-7.106-.768c-4.131,0-8.262.435-12.393.417-2.758-.012-5.516-.491-8.273-.763-.646-.064-1.29-.156-1.938-.2-4.3-.279-8.6-.593-12.9-.791a28.023,28.023,0,0,0-3.872.346l-.879,0c-.747-.931-3.245-.868-1.741-3.074,3.435,0,6.874-.1,10.3.03,9.813.383,19.622.859,29.433,1.311,2.54.117,5.079.282,7.619.424l.876,1.312Z" transform="translate(-96.179 17.582)" fill="#3a425a"/>
      <path id="Trazado_4047" data-name="Trazado 4047" d="M221.971,295.828l-.876-1.312Z" transform="translate(-89.722 17.826)" fill="#4d4b4d"/>
      <path id="Trazado_4048" data-name="Trazado 4048" d="M228.543,287.466l.013.067Z" transform="translate(-88.559 16.725)" fill="#fefefe"/>
      <path id="Trazado_4049" data-name="Trazado 4049" d="M109.938,196.639c1.222,1.119,1.224,1.926.012,3.081Q109.944,198.18,109.938,196.639Z" transform="translate(-107.071 2.549)" fill="#4d4b4d"/>
      <path id="Trazado_4050" data-name="Trazado 4050" d="M109.187,223.937c.145.007.289.016.434.029Z" transform="translate(-107.188 6.81)" fill="#4d4b4d"/>
      <path id="Trazado_4051" data-name="Trazado 4051" d="M216.831,173.121c3.355,0,6.712.091,10.063-.032,2.154-.08,2.884.943,2.865,2.875-.007.657,0,1.313,0,1.969,0,1.82-.943,2.647-2.726,2.638-2.261-.012-4.526-.083-6.782.022-5.143.24-10.286.526-15.422.889-2.017.142-2.705-.674-2.72-2.628-.044-5.438.192-5.726,5.756-5.732h8.969Zm-12.121,6.034,22.475-1.209c.679-1.965.067-2.624-1.86-2.6-5.837.077-11.676.025-17.515.025C204.54,175.371,204.508,175.408,204.71,179.155Z" transform="translate(-92.686 -1.127)" fill="#494645"/>
      <path id="Trazado_4052" data-name="Trazado 4052" d="M172.343,56.9c.075,1.853.909,1.98,2.21.954.89-.7,1.754-1.439,2.8-2.3a26.6,26.6,0,0,1,2.392,11.5c.04,2.9-.231,5.809-.3,8.716a10.876,10.876,0,0,0,.358,2.1,1.649,1.649,0,0,0-.436.02c-3.06.966-3.387.649-3.508-2.673-.177-4.887-.866-9.689-4.024-13.676a36.536,36.536,0,0,0-3.869-3.684l1.34-1.077Z" transform="translate(-98.014 -19.471)" fill="#f7e4c6"/>
      <path id="Trazado_4053" data-name="Trazado 4053" d="M146.733,91.677l1.342-1.872-.157-1.31-.336-.873-.187-3.047c.277-.495.743-.973.79-1.488.09-1-.2-2.039-.081-3.032a44.6,44.6,0,0,1,5.468-17.209c.931-1.613,1.606-3.373,2.4-5.066l2.18.868c-3.168,3.792-4.554,8.445-5.592,13.061-1.185,5.272-1.6,10.719-2.3,16.1a47.248,47.248,0,0,1-1.2,7.314Z" transform="translate(-101.328 -19.123)" fill="#f7e4c6"/>
      <path id="Trazado_4054" data-name="Trazado 4054" d="M178.828,92.608c-.713,4.9-7.829,8.262-11.705,5.447-1.764-1.28-1.376-3.4-1.246-5.193a65.485,65.485,0,0,1,1.237-9.616c.341-1.519,1.657-2.819,2.532-4.219-.312,4.705-.548,9.417-.983,14.111-.134,1.45-.113,2.985,1.313,3.194a9.131,9.131,0,0,0,4.711-.846A24.66,24.66,0,0,0,178.828,92.608Z" transform="translate(-98.36 -15.807)" fill="#f7e4c6"/>
      <path id="Trazado_4055" data-name="Trazado 4055" d="M178.441,92.678a24.659,24.659,0,0,1-4.141,2.879,9.131,9.131,0,0,1-4.711.846c-1.427-.209-1.447-1.745-1.313-3.194.435-4.694.671-9.406.983-14.111.962-.627,1.842-.94,2.244.585-.275.506-.778,1.007-.788,1.519-.071,3.343-.124,6.691.006,10.031.065,1.677,1.31,2.2,2.819,1.78,1.674-.461,3.306-1.074,4.957-1.621Z" transform="translate(-97.974 -15.877)" fill="#f3d9b0"/>
      <path id="Trazado_4056" data-name="Trazado 4056" d="M172.3,101.021c2.387-.17,4.775-.334,7.161-.509A10.354,10.354,0,0,0,186.3,97.1c.435-.449,1.305-.475,1.976-.7-.129.674-.034,1.549-.427,1.99a12.111,12.111,0,0,1-8.936,4.325q-5.894.16-11.792.088c-.6-.008-1.19-.662-1.784-1.017.57-.3,1.125-.82,1.712-.859,1.738-.116,3.488-.042,5.234-.042Z" transform="translate(-98.424 -13.095)" fill="#524d4b"/>
      <path id="Trazado_4057" data-name="Trazado 4057" d="M178.169,91.254c-1.651.547-3.283,1.16-4.957,1.621-1.509.416-2.754-.1-2.819-1.78-.129-3.34-.076-6.688-.006-10.031.01-.512.513-1.013.788-1.519,1.63-.376,1.364.766,1.364,1.7,0,3.025,0,6.051,0,9.45,1.645-.517,2.911-1.007,4.221-1.284a4.681,4.681,0,0,1,1.766.36Z" transform="translate(-97.648 -15.738)" fill="#575352"/>
      <path id="Trazado_4058" data-name="Trazado 4058" d="M164.653,57.206a3.848,3.848,0,0,1,1.935-5.525c2.158-.936,4.486-1.772,7.2-.338-2.745,1.645-6.6,2.077-6.534,6.284l-.883.084Z" transform="translate(-98.611 -20.248)" fill="#363636"/>
      <path id="Trazado_4059" data-name="Trazado 4059" d="M162.658,76.448a10.957,10.957,0,0,1-3.464-.087c-.85-.3-1.434-1.357-2.135-2.08a7.3,7.3,0,0,1,2.141-.836,25.6,25.6,0,0,1,5.442.147c.877.147,1.619,1.106,2.422,1.7a17.717,17.717,0,0,1-2.45,1.09,7.4,7.4,0,0,1-1.956.034Z" transform="translate(-99.716 -16.69)" fill="#575352"/>
      <path id="Trazado_4060" data-name="Trazado 4060" d="M182.97,78.368c1.793-.419,2.75.385,3.081,2.105a13.7,13.7,0,0,1-.572,2.955,2.388,2.388,0,0,1-1.568,1.227c-.446.075-1.185-.473-1.5-.94A4.667,4.667,0,0,1,182.97,78.368Z" transform="translate(-95.854 -15.927)" fill="#524d4b"/>
      <path id="Trazado_4061" data-name="Trazado 4061" d="M172.647,107.719l12.273-1.372C182.053,109.581,175.716,110.376,172.647,107.719Z" transform="translate(-97.284 -11.543)" fill="#f7e4c6"/>
      <path id="Trazado_4062" data-name="Trazado 4062" d="M159.261,82.747V82.31c-.007-1.179-.081-2.617,1.445-2.71,1.578-.1,1.858,1.372,2.038,2.619a4.1,4.1,0,0,1,0,2.153,9.644,9.644,0,0,1-1.763,2.035,11.558,11.558,0,0,1-1.624-1.936c-.242-.453-.044-1.141-.044-1.723Z" transform="translate(-99.377 -15.718)" fill="#575352"/>
      <path id="Trazado_4063" data-name="Trazado 4063" d="M181.845,117.04l-1.365.785Z" transform="translate(-96.061 -9.874)" fill="#524d4b"/>
      <path id="Trazado_4064" data-name="Trazado 4064" d="M188.229,113.6l-.919.768Z" transform="translate(-94.995 -10.411)" fill="#524d4b"/>
      <path id="Trazado_4065" data-name="Trazado 4065" d="M166.074,56.759l.883-.084c.06.259.119.519.179.778Z" transform="translate(-98.309 -19.296)" fill="#f7e4c6"/>
      <path id="Trazado_4066" data-name="Trazado 4066" d="M170.629,151.1c-.017.143-.031.287-.04.431-.562.913-1.112,1.834-1.692,2.735-.272.422-.6.809-.9,1.212q.21-3.512.421-7.023C170.265,148.408,169.974,150.149,170.629,151.1Z" transform="translate(-98.01 -4.971)" fill="#df8a51"/>
      <path id="Trazado_4067" data-name="Trazado 4067" d="M155.9,57.836c-.792,1.692-1.467,3.453-2.4,5.066a44.6,44.6,0,0,0-5.468,17.209c-.12.993.171,2.031.081,3.032-.046.514-.512.993-.79,1.488q-.087-3.3-.175-6.6.094-.888.19-1.777l.066-1.3.038-1.326c.059-.282.117-.564.176-.846l.246-.909q.108-.857.214-1.714.142-.456.287-.914.314-1.073.629-2.146.243-.645.487-1.29,1.07-2.2,2.141-4.4l.64-.938c.9-1.021,1.79-2.058,2.739-3.032C155.085,57.354,155.595,57.692,155.9,57.836Z" transform="translate(-101.262 -19.179)" fill="#f3d9b0"/>
      <path id="Trazado_4068" data-name="Trazado 4068" d="M172.162,57.289l-3.035-.119a14.184,14.184,0,0,1,2.526-2.862,15.877,15.877,0,0,1,3.889-1.279C175.608,55.576,173.067,55.815,172.162,57.289Z" transform="translate(-97.833 -19.865)" fill="#363636"/>
      <path id="Trazado_4069" data-name="Trazado 4069" d="M145.221,71.178q.219-1.772.438-3.542Q145.439,69.407,145.221,71.178Z" transform="translate(-101.564 -17.585)" fill="#363636"/>
      <path id="Trazado_4070" data-name="Trazado 4070" d="M149.344,64.676q-.243.645-.487,1.29l-.8-1Z" transform="translate(-101.121 -18.047)" fill="#524d4b"/>
      <path id="Trazado_4071" data-name="Trazado 4071" d="M147.344,73.714q-.1.888-.19,1.777Q147.248,74.6,147.344,73.714Z" transform="translate(-101.262 -16.636)" fill="#524d4b"/>
      <path id="Trazado_4072" data-name="Trazado 4072" d="M147.515,71.44l-.038,1.326C146.457,72.294,146.474,71.853,147.515,71.44Z" transform="translate(-101.33 -16.991)" fill="#524d4b"/>
      <path id="Trazado_4073" data-name="Trazado 4073" d="M151.712,60.056l-.64.938-.356-.659Z" transform="translate(-100.707 -18.768)" fill="#524d4b"/>
      <path id="Trazado_4074" data-name="Trazado 4074" d="M148.245,67.648q-.144.458-.287.914Q148.1,68.106,148.245,67.648Z" transform="translate(-101.137 -17.583)" fill="#524d4b"/>
      <path id="Trazado_4075" data-name="Trazado 4075" d="M147.806,69.922l-.246.909Z" transform="translate(-101.199 -17.228)" fill="#524d4b"/>
      <path id="Trazado_4076" data-name="Trazado 4076" d="M147.467,83.594l.336.873Z" transform="translate(-101.214 -15.094)" fill="#524d4b"/>
      <path id="Trazado_4077" data-name="Trazado 4077" d="M144.84,71.521l.445-.473C145.137,71.205,144.988,71.362,144.84,71.521Z" transform="translate(-101.624 -17.053)" fill="#363636"/>
      <path id="Trazado_4078" data-name="Trazado 4078" d="M162.5,353.317c.538,2.519.717,4.894-.664,7.367a8.389,8.389,0,0,0-.717,4.92c.29,2.142.473,2.206-1.851,1.985q-.362.978-.729,1.955c-.1-.523-.4-1.1-.272-1.561C159.642,363.084,161.081,358.2,162.5,353.317Z" transform="translate(-99.532 27.003)" fill="#3d465d"/>
      <path id="Trazado_4079" data-name="Trazado 4079" d="M158.71,368.871l-.014,2.639L157.133,371Z" transform="translate(-99.705 29.431)" fill="#3d465d"/>
      <path id="Trazado_4080" data-name="Trazado 4080" d="M204.367,178.849c-.2-3.747-.17-3.784,3.1-3.784,5.838,0,11.678.052,17.515-.025,1.927-.024,2.539.635,1.86,2.6Z" transform="translate(-92.344 -0.822)" fill="#e2975f"/>
    </g>
  </g>
</svg>
