<svg xmlns="http://www.w3.org/2000/svg" xmlns:xlink="http://www.w3.org/1999/xlink" width="320" height="320" viewBox="0 0 320 320">
  <defs>
    <clipPath id="clip-_0301">
      <rect width="320" height="320"/>
    </clipPath>
  </defs>
  <g id="_0301" data-name="0301" clip-path="url(#clip-_0301)">
    <rect width="320" height="320" fill="#fff"/>
    <g id="Group_6" data-name="Group 6" transform="translate(346.094 -7.806)">
      <path id="Path_2511" data-name="Path 2511" d="M-336.092,156.1q0-41.022,0-82.044,0-16.9.059-33.805c.026-6.369.088-12.74.226-19.108.052-2.409,1.192-3.339,3.635-3.334q18.269.031,36.538.06,45.768.009,91.537.007c7.243.007,14.486.271,21.729.255,19.337-.044,38.673-.224,58.01-.261,27.393-.054,54.787-.112,82.179.047,4.548.026,5.837,1.362,5.792,5.579-.116,10.845-.044,21.692.01,32.539.05,9.92.235,19.84.253,29.761q.063,36.242.025,72.483,0,51.137-.014,102.273c0,9.917.019,19.834-.045,29.751-.051,7.775-.208,15.549-.35,23.323-.013.7-.332,1.392-.391,2.1-.148,1.751-1.139,2.382-2.8,2.353q-6.427-.115-12.857-.159c-29.722-.162-59.444-.382-89.166-.449-33.708-.077-67.416-.012-101.124-.01-12.446,0-24.893-.044-37.339.015-10.313.049-20.626.288-30.94.313-7.33.017-14.662-.175-21.992-.29-2.325-.037-2.7-.541-2.7-2.833.009-7.732-.046-15.464-.069-23.2q-.1-31.946-.181-63.891-.047-35.738-.007-71.475Zm36.4,77.506-.3.3c-3.581,4.333-7.24,8.607-10.715,13.025-1.915,2.435-3.519,5.115-5.264,7.684-.2.164-.483.287-.6.5q-6.5,11.507-12.961,23.031c-1.418,2.528-2.632,5.147-2.65,8.12-.032,5.131,0,10.262,0,15.393,0,3.932,0,7.864,0,11.907.8,0,1.32,0,1.839,0q20.133.014,40.266.029,30.641.036,61.282.081,29.314,0,58.628-.1,15.782-.033,31.562-.09c4.094.034,8.188.078,12.282.1,3.5.02,7,.064,10.49-.009.965-.02,1.924-.611,2.881-.6,1.1.016,2.195.592,3.3.611,5.725.1,11.452.142,17.178.1,1.985-.015,3.967-.334,5.95-.513l2.213.375.127.047,6.842-.056,2.729.032c2.932.066,5.863.188,8.795.183,3.585-.007,7.171-.12,10.756-.188l2.693-.011,5.592.143,6.479.373c0-7.368,0-14.559,0-21.749-.005-13.723-.046-27.446-.005-41.168.022-7.3.246-14.6.271-21.9.039-11.82-.012-23.64-.023-35.459q-.012-14.138-.017-28.274c0-5.9.081-11.806.024-17.708-.065-6.783-.242-13.565-.371-20.348q.119-8.64.233-17.281l-.038-.477-.229.226a11.984,11.984,0,0,0-1.19,1.218c-1.906,2.58-3.677,5.268-5.691,7.758-3.959,4.893-8.03,9.7-12.089,14.508A26.809,26.809,0,0,1-70.711,141.4c-2.308.865-4.482,2.089-6.717,3.15l-12.171-.014-1.665-.291c-.88-.817-1.736-1.663-2.667-2.415-.123-.1-.632.28-.961.437a50.471,50.471,0,0,1-11.319,14.647l1,.788,1.171.792.818.449,1.586.76a6.89,6.89,0,0,1,4.8,3.9l.723,1.254.473.77c-.835.977-.233,1.353.67,1.6l.154.669c.04.533.081,1.066.173,2.279l4.15-2.558.053-.1.111.014c1.3.141,2.539.149,3.019-1.437l1.17-.509.813-.325.785-.45.81-.317.133-.1.169,0c1.169-.343,2.8.272,3.248-1.565l.009-.006,1.591-.77.019-.012c1.075-.265,2.5.065,2.74-1.617h0l2.425-1.542,2.405-1.589c1.176-.319,2.818-.005,2.744-2.022l-.01.009c1.1.117,1.661-.364,1.645-1.484l.741-.549c1.346.389.639-.692.816-1.139l1.118-1.216.9-1.1.024-.033.754-1.19,3.09-3.241.883-1.127.015-.026,1.2-1.118q1-1.623,1.993-3.247l.721-1.3q.654-1.14,1.306-2.281l.7-1.241.45-.739.4-.8.4-.791.659-1.239,1.3-3.144-.011.018.527-.412,3.442-3.624.172-.091.191.036,1.438.419c.015.51.235,1.145.013,1.51-1.087,1.782-2.41,3.426-3.433,5.241-3.692,6.556-6.635,13.6-12.516,18.7a17.432,17.432,0,0,0-1.054,1.408c-2.149,2.3-4.062,4.929-6.537,6.81-6.642,5.046-14.114,8.676-21.754,11.994-1.92.834-4.454.9-5.481,3.3l-2.28.387c-.571-.4-1.105-1.05-1.72-1.136a27.647,27.647,0,0,0-3.854-.054c-1.4-.8-2.35-1.807-1.991-3.618.479-2.413,2.405-3.214,4.833-4.3l-9.709-5.69a11.33,11.33,0,0,1-8.653,2.532l-.8-.088a41.815,41.815,0,0,1-16.1-1.887c-4.907-1.66-9.156-4.329-13.483-7.11-7.017-4.51-12.005-10.964-17.56-16.882-2.8-2.979-5.186-6.339-7.449-9.141l-7.416,2.9-.819.154a16.319,16.319,0,0,1-1.973.077c-3.286-.253-4.247-1.287-4.253-4.552-.009-5.342.1-10.686-.052-16.023a16.437,16.437,0,0,0-1.154-6.479c-2.62-5.461-5.785-10.659-8.46-16.1-1.576-3.2-2.63-6.663-3.918-10.008l-.136-.805-.079-1.116.024-1.257-.079-.772.447-.482-.609-.334-.016,0c-.469-.761-.757-1.865-1.438-2.223a15.176,15.176,0,0,1-7.152-7.1,78.564,78.564,0,0,1-4.286-11.4c-2.263-8.3-4.076-16.723-4.217-25.392-.064-3.947-.012-3.948-3.965-3.978h-27.693c-.769,2.279-1.324,3.922-1.878,5.565l-.557,1.062-.055.14-.932.491.876.339.8.287.969.226.089.066.077.956c-.666,1.759-1.442,3.486-1.976,5.284-1.48,4.983-2.859,10-4.278,15l-.175.767-2.024,2.424a3.135,3.135,0,0,1-1.053,3.565l-1.12.9c-.821,2.053-1.617,4.116-2.47,6.156-1.788,4.274-3.524,8.573-5.468,12.775a8.044,8.044,0,0,1-2.56,2.608c-3.522,2.687-7.227,5.147-10.632,7.971-3.655,3.031-7.018,6.412-10.568,9.574-3.731,3.325-7.624,6.473-11.271,9.884-2.438,2.281-4.572,4.888-6.842,7.348l-1.9-.383-.578-.783-.2-.786.731-1.246-.012.012,1.223-1.583-.011.01,1.19-1.657.3-.363c1.338-.525,3.061-.641,2.909-2.745l-.006,0,1.2-1.195,0,.007,2.555-2.18.062-.042a2.721,2.721,0,0,0,2.95-2.563l-.011.009a10.491,10.491,0,0,0,6.375-5.578l.787-.773a2.2,2.2,0,0,0,2.381-2.012l.431-.378a8.887,8.887,0,0,0,1.891-.936c2.639-2.2,5.235-4.456,7.813-6.729a3.647,3.647,0,0,0,.591-1.147l1.216-.738,1.16-.832-.019.015,2.835-1.954-.005,0,1.2-.79h0c.867.045,1.712.062,1.586-1.2l-.005.005c1.421-.419,1.715-1.479,1.586-2.781l.42-.788c2.592-2.343,3.334-5.442,3.572-8.747l.017-1.211-.029.043.471-.008.742-1.6.082-.173-.1.158-2.756,2.028.012-.011-1.225.774-3.4,2.408-2.292-1.63c.557-.68,1.093-1.377,1.679-2.03a6.575,6.575,0,0,1,.931-.73l1.094-.8.831-.786,1.11-.92,3.333-3.033,1.494-1.6.03-.422-.018.032,1.52-1.245,1.632-1.589,1.2-.77.755-.895.124-.7.386-1.149.012-.4.633-2.059.145-.766a4.011,4.011,0,0,0,1.1-4.382l.515-1.977c1.2-.362,1.464-1.019.626-2.016l.066-1.621-.022.076.48-.006.593-.919-1.117.415-1.109.917-2.062,1.124c-1.109.1-1.621-.436-1.633-1.515l.906-1.907a.478.478,0,0,1,.341-.14l.809-.866,1.487-1.949c1.254-.278,2.4-.632,1.713-2.336l1.727-3.566c1-.841,1.115-1.647-.1-2.4l-1.518.014-.584-.268-.489-.067c-6.32.185-12.639.467-18.96.517-3.419.027-6.841-.343-10.262-.534-4.215-.022-8.43-.095-12.644-.054-8.066.078-16.13.234-24.2.332-3.074.038-6.15.007-9.243.007,0,11.632,0,22.935,0,34.239q-.009,39.933-.021,79.865,0,19.2-.008,38.407c.006,6.067.073,12.134.112,18.2v10.205a21.993,21.993,0,0,0,2.3-2.474c1.049-1.591,1.969-3.268,2.92-4.923a68.648,68.648,0,0,1,14.51-18.163c2.3-1.981,5.186-3.312,7.886-4.791,1.09-.6,3.049.432,3.061,1.621.006.585-.921,1.314-1.578,1.743-1.5.98-3.1,1.816-4.663,2.71a20.671,20.671,0,0,0-1.916,1.338,64.337,64.337,0,0,0-13.845,17.251c-2.167,3.889-5.277,7.348-5.968,11.965-.245,1.641-.919,2.708-2.817,2.669,0,5.508.053,10.85-.015,16.19-.066,5.223-.23,10.445-.4,15.666-.072,2.229-.806,4.588-.286,6.648a38.231,38.231,0,0,1,1.044,8.753l-.157,1.443-.209,2.534.62.038.189-1.361.005-.007q.377-.636.755-1.271l.561-1.109c1.5.017,1.525-.972,1.406-2.059l-.017.013,1.238-1.573-.01.012.849-1.113,1.531-1.664.86-1.1,2.694-3.284,1.285-1.472.7-.913,1.65-1.965,1.618-1.977c2.982-.457,3.288-3.135,4.323-5.209l-.011.012.824-.786,2.314-2.8.892-1.119.014-.026,1.152-1.221,1.592-.281,1.161.685.161.736c-.649.818-1.272,1.657-1.952,2.448-2.182,2.538-4.368,5.073-6.589,7.578-1.022,1.154-2.127,2.234-3.3,3.462l.189.895L-317,247.958l-1.278,1.532-3.026,3.662c-1.5.193-1.615.3-1.228,1.182-1.393,1.867-2.775,3.743-4.186,5.6-.515.675-1.1,1.3-1.655,1.942l-.594.556-.1,2.147.028-.011-.372.465a.145.145,0,0,1-.182.062.257.257,0,0,0-.187.258,13.82,13.82,0,0,0-2.235,8.505v1.312l.537.082q.217-1.012.436-2.025a.174.174,0,0,1,.116-.251l1.122-2.011.809-1.567,1.229-2.375.809-1.586.69-1.226,1.605-2.779.775-1.243.469-.766.741-1.21.188-.373.239-.372.343-.42.449-.8.321-.406,1.245-2-.013.013c1.389.163,1.265-.769,1.2-1.659q.849-1.508,1.7-3.017l1.485-1.664c.345-.156.8-.219,1.017-.482q4.061-5,8.051-10.051c1.155-1.471,2.206-3.025,3.3-4.541l.008-.01.853-1.007.129-.121a15.064,15.064,0,0,1,2.191.547c.332.133.529.607.787.927l-.2.476a.435.435,0,0,0-.215.248Zm119-123.632-.011-.011.727,1.238.464.734a10.458,10.458,0,0,0,.589,1.988c.392.755.517,2.1,1.978,1.341l.1.114.932,1.349-.011-.015,1.108,1.647.434.447c.087,1.088-.043,2.328,1.619,2.314l1.183,1.241,1,.761.12,1.2c-.649,1.155-.075,1.478,1,1.462l-.018-.016.706.906-.007-.009,1.2,1.6.366.451,1.571,1.957.015.025c.139,1.22.505,2.251,1.972,2.36l.016.024a5.146,5.146,0,0,0,3.6,3.936h0c-.034.9-.033,1.78,1.3,1.5l-.018-.015,1.977,2.029-.026-.012.769.854-.009-.011c.016,1.152.3,2.047,1.751,1.815l.023.025.718.866-.019-.016a2.063,2.063,0,0,0,2.262,2.114l.42.379,1.545,1.218.442.372,1.173.815.009.005,1.962,1.2.018.013.91.684-.018-.02c-.089,1.412.951,1.26,1.835,1.325l.044.028c.744,2.1,2.678,2.263,4.436,2.708l.188-.006.169.083c.092.242.124.638.287.7,2.3.911,4.611,1.78,6.934,2.626a4.617,4.617,0,0,0,.341-.632l.787.058c1.193,1.217,4.676,1.707,5.969.841l1.93.027c1.214,1.043,2.426,1.178,3.636-.006l1.58,0q.583,1.409,1.2.015l.795-.1,1.989-.684.422-.117,1.777-1.378.121.146-.109-.155c1.105.2,1.752-.182,1.773-1.375l.016-.016a6.461,6.461,0,0,0,4.325-4.429l.805-.756c1.647.029,2.083-.956,1.995-2.381h0c1.494-.246,1.69-1.278,1.531-2.526a.186.186,0,0,1,.13-.254l.692-1.206.583-1.175.638-1.2h0c1.245.115,1.232-.725,1.2-1.58l.006,0,.707-.517-.744-.671-.37-.413c-.573-1.815-1.205-3.587-3.2-4.357l.006.01-.763-1.22c-2.45-4.347-4.943-8.67-7.334-13.049-1.552-2.841-2.943-5.77-4.428-8.648-.547-1.059-.556-1.988.524-2.69.852-.554,1.565-.763,2.274.4.21.345,1.4.1,2.135.119a49.062,49.062,0,0,0,5.96-2.247c.878-.455,1.339-1.716,1.99-2.611a6.72,6.72,0,0,0,.615-1.99c-.162-8.588-2.649-16.291-8.912-22.447-1.937-1.9-3.5-4.283-6.526-4.863-2.326-.446-3.184.071-2.663,2.393.828,3.691,1.248,7.23-.09,10.991-.718,2.016-.15,4.46-.429,6.677a3.666,3.666,0,0,1-1.5,2.442c-.564.329-1.693-.177-2.518-.465a10.5,10.5,0,0,1-1.788-1.036c-1.19-1.762-2.373-3.528-3.573-5.282-.6-.885-1.241-1.749-1.863-2.622-1.644-4.317-3.282-8.637-4.948-12.946-.128-.329-.466-.83-.7-.828-4.247.05-6.236-3.083-8.294-5.969-2.8-3.924-5.415-7.976-8.349-12.327-.746,2.02-1.619,3.89-2.129,5.854-1.975,7.6-7.634,9.868-13.87,5.168-3.813-2.874-7.2-6.31-10.868-9.569-2.032,2.89-4.285,6.1-6.543,9.3a11.272,11.272,0,0,1-10.393,5.228l-.857-.014-1.609.209c-.7,1.189-1.337,2.378-.038,3.588l.076,1.2c.092,1.944.226,3.873,2,5.165l.451,1.1a14.5,14.5,0,0,0,.75,2.988c1.538,3.15,3.185,6.249,4.847,9.337.206.383.754.582,1.143.866l-.005-.009c.022,1.23-.024,2.5,1.622,2.783a.442.442,0,0,1,.35.117,2.381,2.381,0,0,0,3.59-.88l.009-.006,1.183-.79.008-.006,1.925-1.268-.019.02.87-.724.817-.808,1.131-.851-.009.019,1.644-1.139.014-.013c1.45-.488,2.9-.979,3.147-2.81l2.381-1.016,1.172.634c-.256.686-.312,1.612-.8,2.019-3.24,2.7-6.572,5.285-9.875,7.909l-.281.583.633-.11,1.227,1.085,1.088,3.225.361,1.181c-1.2,1.361-2.376,2.4-3.5-.093-.07-.155-.591-.106-.9-.151l0,0-.541-.95a.3.3,0,0,1-.127-.332V99.628l-.748,1.091-2.867,1.338.837,1.578.4.794.434.779-.006-.011c.386,1.347-.08,3.154,1.952,3.61l.009.014Zm3.451,14.639c2.014.024,2.3-.2,1.933-1.513q-3.929-5.53-7.882-11.045a3.806,3.806,0,0,0-.65.311c-.2,1.661-.4,3.321-.577,4.984,0,.047.333.129.511.195l.048,1.575.042,1.236-.041.751.007,2.413-.018,1.566c.046.478-.089,1.215.166,1.391,1.539,1.067,5.465-.127,6.476-1.88Zm-19-57.536c.17.247.287.579.52.728,1.7,1.083,2.657-.485,3.871-1.135,1.038-.758,2.37-1.314,3.06-2.312,1.977-2.864,3.733-5.884,5.5-8.885,2.11-3.575,5.309-4.28,8.528-1.752a12.549,12.549,0,0,1,1.906,1.955c3.157,3.858,6.123,7.878,11.514,8.958,1.481.3,2.331.5,2.735-1.251,1.3-5.636,2.74-11.242,3.981-16.891.339-1.541.326-3.109,2.377-3.27,2.408-.188,2.039,1.763,2.311,3.142,1.351,6.864,5.134,12.523,9.024,18.106,1.278,1.835,2.906,3.426,4.7,5.508a19.741,19.741,0,0,0,.773-2.485,25.542,25.542,0,0,1,.489-4.1,7.6,7.6,0,0,1,1.98-3.168c.789-.73,1.9.335,1.928,1.867.078,3.758-.326,7.592.286,11.258,1.046,6.263,4.416,11.636,7.786,16.922.3.467.906.737,1.869,1.488V89.036c0-4.372-.024-8.744.015-13.116.014-1.677.3-3.24,1.9-4.31,2.984-1.988,6.112-1.72,8.978.988,1.719,1.624,3.362,3.33,5.027,5.01a26.237,26.237,0,0,1,7.132,11.727,55.032,55.032,0,0,1,1.9,11.045c.216,4.159-1.084,7.862-5.589,9.489-2.07.748-4.093,1.627-6.288,2.507,2.252,4.356,4.238,8.684,6.663,12.75,2.326,3.9,5.03,7.583,7.725,11.245,1.251,1.7,2.612,3.618,4.388,4.566,3.129,1.673,6.739,1.227,10.055.384a43.016,43.016,0,0,0,8.278-3.26,22.947,22.947,0,0,0,6.078-3.945c4.363-4.325,8.878-8.534,12.159-13.854,1.473-2.387,3.421-4.481,5.136-6.721,1.644-2.147,3.049-4.534,4.966-6.4a5.915,5.915,0,0,0,2.252-4.863c-.269-14.9-.378-29.808-.444-44.713-.022-4.856.356-9.714.343-14.571-.015-6.277-.262-12.553-.352-18.831-.016-1.154-.312-1.639-1.566-1.654-7.072-.082-14.143-.315-21.216-.348-4.09-.02-8.184.409-12.271.336-7.919-.141-15.833-.56-23.751-.725-3.226-.067-6.459.336-9.689.331-3.561-.005-7.123-.361-10.683-.339-9.722.06-19.443.285-29.165.345-3.56.021-7.121-.319-10.683-.347-3.492-.028-6.986.21-10.478.193-6.328-.03-12.656-.216-18.984-.229-2.7,0-5.4.394-8.1.376-5.086-.032-10.171-.192-15.253-.389-1.48-.057-2.073.407-1.9,1.905.557,4.9.925,9.823,1.644,14.7a81.378,81.378,0,0,0,5.292,20.21C-205.484,63.465-201.98,66.816-196.249,67.074Zm98.656,103.157.53-.453c-.512-.571-1.008-1.592-1.542-1.613a7.905,7.905,0,0,0-2.71.909l.186.762Zm-86.42-59.289c-.047.111-.156.246-.125.325s.2.107.313.156c.047-.111.154-.244.124-.326S-183.9,110.991-184.013,110.942Z" fill="#080808"/>
      <path id="Path_2512" data-name="Path 2512" d="M-311.2,115.12c2.27-2.46,4.4-5.067,6.842-7.348,3.647-3.411,7.54-6.559,11.271-9.884,3.55-3.162,6.913-6.543,10.568-9.574,3.4-2.824,7.11-5.284,10.632-7.971a8.044,8.044,0,0,0,2.56-2.608c1.944-4.2,3.68-8.5,5.468-12.775.853-2.04,1.649-4.1,2.47-6.156l1.12-.9a3.135,3.135,0,0,0,1.053-3.565l2.024-2.424.175-.767c1.419-5,2.8-10.014,4.278-15,.534-1.8,1.31-3.525,1.976-5.284l-.077-.956-.089-.066-.969-.226-.8-.287.056-.83.055-.14.557-1.062,1.878-5.565h27.693c-.068,2.97-.129,5.94-.206,8.91-.189,7.231-.247,14.5,1.853,21.476,1.357,4.509,3.467,8.8,5.281,13.164a9.86,9.86,0,0,0,8.974,6.459c1.711.124,3.437.056,5.156.075l.016,0,.162.816.079.772-.024,1.257.079,1.116.136.805c1.288,3.345,2.342,6.805,3.918,10.008,2.675,5.436,5.84,10.634,8.46,16.1a16.437,16.437,0,0,1,1.154,6.479c.156,5.337.043,10.681.052,16.023.006,3.265.967,4.3,4.253,4.552a16.319,16.319,0,0,0,1.973-.077l.819-.154,7.416-2.9c2.263,2.8,4.653,6.162,7.449,9.141,5.555,5.918,10.543,12.372,17.56,16.882,4.327,2.781,8.576,5.45,13.483,7.11a41.815,41.815,0,0,0,16.1,1.887l.8.088a11.33,11.33,0,0,0,8.653-2.532l9.709,5.69c-2.428,1.082-4.354,1.883-4.833,4.3-.359,1.811.588,2.82,1.991,3.618-1.542,1.769-3.109,3.517-4.608,5.321a4.493,4.493,0,0,0-.724,1.593c-.247.832-.318,1.722-.608,2.536-.531,1.487-1.168,2.936-1.761,4.4l-.1.077-1.3,2.147a12.2,12.2,0,0,1-1.959,1.933c-4.619,2.868-9.285,5.662-13.94,8.471-.331.2-.734.5-1.058.453-2.069-.305-4.126-.694-6.187-1.055a5.726,5.726,0,0,0-.538-2.006c-.163-.23-1.1.014-1.66.166a8.01,8.01,0,0,0-1.379.665c-3.957-1.928-7.969-3.751-11.859-5.806-7.667-4.052-15.434-7.615-24.41-7.416-1.354.03-2.937-.251-3.673-2.025-.208-.5-1.528-.818-2.287-.738a10,10,0,0,0-2.669,1.1,4.166,4.166,0,0,0-4.275-2.99,18.87,18.87,0,0,1-2.918-.261c-5.94-1.051-11.848-2.525-17.937-2.023a15.278,15.278,0,0,0-5.968,1.559c-6.752,3.709-13.376,7.655-20.011,11.576-2.091,1.237-4.162,2.579-4.959,5.111a1.305,1.305,0,0,0-2.079-.229c-.791.567-1.667,1.014-2.5,1.513a1.8,1.8,0,0,0-.232-.254c-.42-.28-.841-.56-1.26-.836.471-.508,1.325-1.007,1.34-1.531.052-1.78,1.079-2.762,2.35-3.708,1.849-1.377,3.665-2.8,5.467-4.236,2.16-1.722,4.375-3.391,6.387-5.275a3.6,3.6,0,0,0,1.112-2.8c-.289-1.294-1.581-1.791-2.993-1.467-3.311.761-6.658,1.39-9.923,2.314-2.546.72-4.989,1.8-7.478,2.728l-.3-.413c1.9-3.547,3.9-6.994,7.123-9.594.655-.527.752-1.745,1.106-2.645-1.134-.294-2.337-.975-3.384-.787a9.336,9.336,0,0,0-3.864,1.847c-5.676,4.382-11.314,8.817-16.839,13.386a5.025,5.025,0,0,0-1.374,3.3c-.186,3.077-.064,6.173-.064,9.04-1.583.109-2.939.17-4.287.3-3.02.295-6.049.7-8.176-2.264-.157-.219-.57-.253-.863-.374,1.756-2.311,3.551-4.6,5.251-6.947.8-1.111,2.372-2.106.977-3.844-.126-.157.033-.659.2-.913a24.833,24.833,0,0,1,2.308-3.368q3.865-4.269,7.916-8.369c1.018-1.035,1.235-1.935.172-3,.051-.189.038-.454.161-.555a111.98,111.98,0,0,1,26.906-16.894c1.421-.614,2.887-1.123,4.333-1.681a10.84,10.84,0,0,1-2.071,3.087c-.9.983-1.382,1.95-.151,3.005,1.268,1.088,2.179.275,3.048-.623a24.064,24.064,0,0,1,3.267-3.357,65.228,65.228,0,0,1,14.936-8.144c2.2-.781,4.449-1.4,6.677-2.1a29.554,29.554,0,0,1-4.064,5.681c-2.33,2.559-4.819,4.973-7.154,7.529-1.062,1.162-.727,2.014.833,2.185a2.6,2.6,0,0,0,1.894-.671c2.936-3.012,5.766-6.127,8.674-9.166,2.115-2.212,3.311-5.528,7.059-5.879a3.517,3.517,0,0,0,.506-2.2,11.568,11.568,0,0,0-4.192-1.834,9.433,9.433,0,0,0-3.844.768c-5.925,1.83-11.855,3.648-17.739,5.6-3.862,1.283-7.68,2.713-11.463,4.216A79.976,79.976,0,0,0-254.6,156.672c-6.772,5.215-13.229,10.84-19.83,16.278-.539.444-1.094,1.084-1.713,1.18-3.563.557-6.338,2.6-8.946,4.8a112.911,112.911,0,0,0-15.379,16.41c-7.283,9.178-13.489,18.966-17.76,29.918l-.3.515-.11-.122.1.127c-1.3,1.7-2.526,3.468-3.931,5.079a2.968,2.968,0,0,0-.347,3.764l2.258-1.353c0,.5.026.992-.013,1.484-.216,2.7,1.352,6.019,3.187,6.7-1.9,2.355-3.8,4.716-5.717,7.063q-4.357,5.346-8.734,10.677a38.235,38.235,0,0,0-1.044-8.755c-.52-2.06.214-4.419.286-6.648.171-5.221.335-10.443.4-15.666.068-5.34.015-10.682.015-16.19,1.9.039,2.572-1.028,2.817-2.669.691-4.617,3.8-8.076,5.968-11.965a64.337,64.337,0,0,1,13.845-17.251,20.552,20.552,0,0,1,1.917-1.338,6.122,6.122,0,0,1,1.312,1.479c.5,1.19,1.127.929,1.813.319,2.855-2.539,4.935-5.746,8.647-7.6,2.63-1.315,4.568-4.349,6.369-6.927,8.136-11.643,16.122-23.39,24.126-35.124a3.5,3.5,0,0,0,.825-2.384c-.153-.507-1.427-.676-2.189-.989.826-1.458.436-5.159-.854-6.387l-2.235,1.324-.456-.409c.638-.894,1.273-1.791,1.915-2.683,1.583-2.2,3.9-3.236,6.341-4.161a7.665,7.665,0,0,0,2.064-1.771q2.48-2.288,4.944-4.593c-.74,1.361-1.54,2.693-2.193,4.1-.307.66-.686,1.712-.389,2.118a2.433,2.433,0,0,0,2.117.519,4,4,0,0,0,1.948-1.411c.735-.918,1.147-2.1,1.9-3,6.437-7.693,12.645-15.558,17.149-24.578,1.956-3.916,3.524-8.031,5.177-12.092.512-1.258.483-2.59-.96-3.361-1.757-.938-2.745.111-3.757,1.4a31.762,31.762,0,0,1-3.544,3.859c-1.369,1.248-1.223,2.836.5,3.557.379.159.781.262,1.129.377a1.615,1.615,0,0,1-.027.368,94.894,94.894,0,0,1-12.244,20c-2.01,2.477-4.042,4.937-6.064,7.4,0-3.068.051-6.138-.024-9.205-.083-3.365-.211-6.732-.475-10.086-.091-1.169-.059-3.083-2.287-1.747a4.408,4.408,0,0,1-.47-.567l7.289-6.968a12.137,12.137,0,0,1,.438,3.754,30.247,30.247,0,0,1-.041,3.565c-.287,2.347,2.619,3.936,4.658,2.6a38.119,38.119,0,0,0,3.769-2.474c.64-.537,1.468-1.953,1.271-2.19-.771-.925-1.874-1.607-3.214-.671-.88.616-1.844,1.114-2.982,1.79.354-3.271-.8-6.457,1.525-9.167.2-.239-.455-1.8-.963-1.962-1.7-.539-3.446-.947-5.059.644-2.036,2.009-4.294,3.792-6.616,5.811-.021-.476-.1-.7-.027-.846.877-1.831-.442-2.886-1.558-3.766-1.221-.963-2.512-.385-3.509.653-.864.9-1.653,1.87-2.475,2.81-1.487,1.973-4.419,2.994-4.054,6.2a1.637,1.637,0,0,1-.535,1.027c-1.518,1.631-3.068,3.233-4.607,4.844a20.448,20.448,0,0,0-2.742,2.19c-4.477,5-8.893,10.063-13.306,15.124a1.733,1.733,0,0,0-.494,1.207c.414,2.095-.97,3.451-1.922,4.986-2.809,4.527-5.826,8.938-8.4,13.6a162.434,162.434,0,0,0-12.265,28.6c-1.568,4.842-3.869,9.561-2.695,14.9l-4.205,4.191c0-2.678.178-4.876-.046-7.032a6.45,6.45,0,0,1,2.6-6.191c1.037-.793.764-1.339.355-2.294a8.028,8.028,0,0,1-.807-3.544A244.226,244.226,0,0,1-311.2,115.12Zm72.575-6.039c-.329-.31-.615-.8-1.01-.912a2.378,2.378,0,0,0-3.055,1.461,59.349,59.349,0,0,1-3.868,7.556c-4.019,5.859-8.1,11.7-12.524,17.251-4.345,5.459-9.046,10.645-13.759,15.8-6.581,7.193-13.31,14.25-20,21.347-.859.912-1.469,1.841-.384,2.875,1.163,1.108,2.26.652,3.237-.425q2.259-2.49,4.566-4.934c5.262-5.564,10.666-11,15.769-16.705,5.292-5.915,10.368-12.028,15.407-18.163a103.253,103.253,0,0,0,13.566-21.059C-240.057,111.875-239.389,110.6-238.624,109.081Zm38.089,46.2c-.922,2.749-1.841,5.264-2.6,7.827-.461,1.563.879,2.207,1.949,2.749.17.086,1.148-.955,1.412-1.611.885-2.2,1.607-4.467,2.406-6.7,1.052-2.944.406-4.705-1.636-5.788-.394-1.416-.387-2.583-.966-3.2-.973-1.037-2.045-.377-2.869.548-.917,1.031-1.888,2.023-2.719,3.12-.564.745-.68,1.361.152,2.359C-203.934,156.347-202.379,155.53-200.535,155.283Z" fill="#fdfdfd"/>
      <path id="Path_2513" data-name="Path 2513" d="M-138.611,313.483q-15.78.045-31.562.09-29.313.062-58.628.1-30.641,0-61.282-.081-20.133-.025-40.266-.029c-.519,0-1.038,0-1.839,0,0-4.043,0-7.975,0-11.907,0-5.131-.035-10.262,0-15.393.018-2.973,1.232-5.592,2.65-8.12q6.463-11.524,12.961-23.031c.12-.212.4-.335.6-.5,8.18-.177,16.1-1.988,24.024-3.792,2.7-.615,3.171-.442,4.257,1.915l0-.031.329.494c.9,1.23,2.146,1.247,3.521,1.146,7.947-.583,15.611-2.64,23.106-5.074a62.226,62.226,0,0,0,14.976-6.95,124.807,124.807,0,0,0,26.477-23.571c2.213-2.612,5-5.06,4.365-9.1,5.354,3.739,11.408.778,16.68,2.155,0,1.767-.03,3.484.009,5.2a2.493,2.493,0,0,0,2.179,2.747,120.285,120.285,0,0,1,12.74,3.839,76.728,76.728,0,0,1,15.919,7.617c5.692,3.805,11.6,7.284,17.466,10.83.524.317,1.385.077,2.09.1a9.019,9.019,0,0,0-.118-2.465c-.131-.412-.909-.62-1.4-.92l2.816-3.562c.141,6.589.226,13.18.436,19.767.233,7.309.514,14.619.9,21.921.277,5.223.748,10.436,1.169,15.651a2.346,2.346,0,0,0,2.322,2.441c.4-.015.748-1.759,1.113-2.713.02-.053-.022-.128-.028-.194-.386-4.193-.95-8.378-1.124-12.579-.491-11.854-.962-23.711-1.165-35.572-.129-7.506.236-15.019.38-22.529l.734.307a22.686,22.686,0,0,1,1.172,4.808c.239,9.921.3,19.846.475,29.769.047,2.637.268,5.273.446,7.906.355,5.262.816,10.518,1.055,15.784.068,1.515-.724,3.062-.7,4.586C-139.165,294.194-138.868,303.838-138.611,313.483Z" fill="#fefefe"/>
      <path id="Path_2514" data-name="Path 2514" d="M-138.611,313.483c-.257-9.645-.554-19.289-.732-28.935-.028-1.524.764-3.071.7-4.586-.239-5.266-.7-10.522-1.055-15.784-.178-2.633-.4-5.269-.446-7.906-.175-9.923-.236-19.848-.475-29.769a22.686,22.686,0,0,0-1.172-4.808,12.407,12.407,0,0,1,.641-2.44,28.625,28.625,0,0,1,6.661-8.533c.764-.693,2.035-.8,2.871-1.443,2.7-2.071,5.336-4.236,7.941-6.43a22.2,22.2,0,0,0,2.115-2.342l-.049.063.527-.328a74.453,74.453,0,0,1,6.842-4.628,18.989,18.989,0,0,0,8.5-8.693c.289-.6-.162-1.558-.272-2.35a10.2,10.2,0,0,0-2.624.5c-.488.227-.71,1.026-1.051,1.568.593-1.465,1.23-2.914,1.761-4.4.29-.814.361-1.7.608-2.536a4.493,4.493,0,0,1,.724-1.593c1.5-1.8,3.066-3.552,4.608-5.321a27.647,27.647,0,0,1,3.854.054c.615.086,1.149.739,1.72,1.136,1.05,1.575,1.6.211,2.28-.387,1.027-2.4,3.561-2.47,5.481-3.3,7.64-3.318,15.112-6.948,21.754-11.994,2.475-1.881,4.388-4.506,6.537-6.81a17.432,17.432,0,0,1,1.054-1.408c5.881-5.1,8.824-12.14,12.516-18.7,1.023-1.815,2.346-3.459,3.433-5.241.222-.365,0-1-.013-1.51l-1.438-.419L-45,124.17l-.172.091-.437-.14,3.484-2.4c.445,1.231.927,2.451,1.32,3.7a16.21,16.21,0,0,1,.379,2.048c.129,6.783.306,13.565.371,20.348.057,5.9-.022,11.8-.024,17.708q0,14.136.017,28.274c.011,11.819.062,23.639.023,35.459-.025,7.3-.249,14.6-.271,21.9-.041,13.722,0,27.445.005,41.168,0,7.19,0,14.381,0,21.749l-6.479-.373-1.751-4.812c-1.494,1.816-2.668,3.242-3.841,4.669l-2.693.011q-1.8-6.579-3.607-13.158c-.116,2.505-.54,4.618-2.531,6.3a48.534,48.534,0,0,0-3.5,3.69,10.072,10.072,0,0,1-1.083.848L-67,309.077c-1.58,1.69-1.968.1-2.594-.923l-5.032,5.419-2.729-.032q-.63-2.979-1.259-5.958l-.765-.124-4.818,6.138-.128-.047-2.212-.375c-1.983.179-3.965.5-5.95.513-5.726.042-11.453,0-17.178-.1-1.1-.019-2.195-.6-3.3-.611-.957-.013-1.916.578-2.881.6-3.5.073-6.993.029-10.49.009C-130.423,313.561-134.517,313.517-138.611,313.483Zm55.681-15.145-.357-.2c-.076-.921-.085-1.855-.242-2.763-.583-3.373-1.217-6.738-1.828-10.108-.5-2.781-.846-5.6-1.531-8.339-2.474-9.886-4.945-19.776-7.653-29.6-1.5-5.438-2.893-11.027-5.351-16.051-3.972-8.119-10.8-13.822-18.248-18.789-3.363-2.243-6.429-2.062-9.627.267-1.221.89-1.308,1.849-.53,2.816a2.117,2.117,0,0,0,3.306.1,3.235,3.235,0,0,1,4.246-.254,59.489,59.489,0,0,1,14.394,12.557c3.823,4.4,5.586,9.916,7.1,15.413,3.06,11.109,6.056,22.241,8.778,33.437,1.4,5.776,2.2,11.7,3.19,17.576.37,2.193.447,4.434.773,6.637.2,1.379,1.124,1.766,2,.638A16.069,16.069,0,0,0-82.93,298.338Z" fill="#bbe8fd"/>
      <path id="Path_2515" data-name="Path 2515" d="M-196.249,67.074c-5.731-.258-9.235-3.609-11.341-8.545a81.378,81.378,0,0,1-5.292-20.21c-.719-4.874-1.087-9.8-1.644-14.7-.17-1.5.423-1.962,1.9-1.905,5.082.2,10.167.357,15.253.389,2.7.018,5.4-.381,8.1-.376,6.328.013,12.656.2,18.984.229,3.492.017,6.986-.221,10.478-.193,3.562.028,7.123.368,10.683.347,9.722-.06,19.443-.285,29.165-.345,3.56-.022,7.122.334,10.683.339,3.23,0,6.463-.4,9.689-.331,7.918.165,15.832.584,23.751.725,4.087.073,8.181-.356,12.271-.336,7.073.033,14.144.266,21.216.348,1.254.015,1.55.5,1.566,1.654.09,6.278.337,12.554.352,18.831.013,4.857-.365,9.715-.343,14.571.066,14.9.175,29.811.444,44.713a5.915,5.915,0,0,1-2.252,4.863c-1.917,1.862-3.322,4.249-4.966,6.4-1.715,2.24-3.663,4.334-5.136,6.721-3.281,5.32-7.8,9.529-12.159,13.854a22.947,22.947,0,0,1-6.078,3.945,43.016,43.016,0,0,1-8.278,3.26c-3.316.843-6.926,1.289-10.055-.384-1.776-.948-3.137-2.866-4.388-4.566-2.695-3.662-5.4-7.346-7.725-11.245-2.425-4.066-4.411-8.394-6.663-12.75,2.195-.88,4.218-1.759,6.288-2.507,4.505-1.627,5.805-5.33,5.589-9.489a55.032,55.032,0,0,0-1.9-11.045,26.237,26.237,0,0,0-7.132-11.727c-1.665-1.68-3.308-3.386-5.027-5.01-2.866-2.708-5.994-2.976-8.978-.988-1.6,1.07-1.886,2.633-1.9,4.31-.039,4.372-.014,8.744-.015,13.116v2.721c-.963-.751-1.571-1.021-1.869-1.488-3.37-5.286-6.74-10.659-7.786-16.922-.612-3.666-.208-7.5-.286-11.258-.032-1.532-1.139-2.6-1.928-1.867a7.6,7.6,0,0,0-1.98,3.168,25.542,25.542,0,0,0-.489,4.1,19.741,19.741,0,0,1-.773,2.485c-1.795-2.082-3.423-3.673-4.7-5.508-3.89-5.583-7.673-11.242-9.024-18.106-.272-1.379.1-3.33-2.311-3.142-2.051.161-2.038,1.729-2.377,3.27-1.241,5.649-2.679,11.255-3.981,16.891-.4,1.748-1.254,1.548-2.735,1.251-5.391-1.08-8.357-5.1-11.514-8.958a12.549,12.549,0,0,0-1.906-1.955c-3.219-2.528-6.418-1.823-8.528,1.752-1.771,3-3.527,6.021-5.5,8.885-.69,1-2.022,1.554-3.06,2.312Z" fill="#151515"/>
      <path id="Path_2516" data-name="Path 2516" d="M-123.9,95.219a10.5,10.5,0,0,0,1.788,1.036c.825.288,1.954.794,2.518.465a3.666,3.666,0,0,0,1.5-2.442c.279-2.217-.289-4.661.429-6.677,1.338-3.761.918-7.3.09-10.991-.521-2.322.337-2.839,2.663-2.393,3.028.58,4.589,2.959,6.526,4.863,6.263,6.156,8.75,13.859,8.912,22.447a6.72,6.72,0,0,1-.615,1.99,9.444,9.444,0,0,0-7.95,4.858c-.739-.023-1.925.226-2.135-.119-.709-1.163-1.422-.954-2.274-.4-1.08.7-1.071,1.631-.524,2.69,1.485,2.878,2.876,5.807,4.428,8.648,2.391,4.379,4.884,8.7,7.334,13.049l.763,1.22-.006-.01,3.2,4.357.37.413.037,1.188-.006,0-1.2,1.58h0l-.638,1.2q-.291.588-.583,1.175l-.692,1.206a.186.186,0,0,0-.13.254l-1.531,2.526h0l-1.995,2.38-.805.757-4.325,4.429-.016.016-1.773,1.375.109.155-.12-.146-1.778,1.378-.422.117-1.989.684-.795.1-1.2-.015-1.58,0-3.636.006-1.93-.027-5.969-.84-.787-.059-7.562-2.7-.169-.083-.188.006-4.436-2.708-.044-.028-1.835-1.325.018.02-.91-.684-.018-.013-1.962-1.2-.009-.005-1.173-.815-.442-.372-1.545-1.218-.42-.379-2.262-2.114.019.016-.718-.866-.023-.025-1.751-1.815.009.011-.769-.854.026.012-1.977-2.029.018.015-1.3-1.5h0l-3.6-3.936-.016-.024-1.972-2.36-.015-.025-1.571-1.957-.366-.451-1.2-1.6.007.009-.706-.906.018.016-1-1.462-.12-1.2-1-.761-1.183-1.241-1.619-2.314-.434-.447-1.108-1.647.011.015-.932-1.349-.1-.114-2.567-3.329-.464-.734-.727-1.238.011.011-.838-1.15-.009-.014-1.952-3.61.006.011-.434-.779-.4-.794-.837-1.578,2.867-1.338.748,2.572a.3.3,0,0,0,.127.332l.541.95,0,0c.274.354.479.825.837,1.035a6.906,6.906,0,0,0,2.525,1.084c.271.032.688-1.214,1.039-1.874l-.361-1.181-1.088-3.225-1.227-1.085-.352-.473c3.3-2.624,6.635-5.211,9.875-7.909.489-.407.545-1.333.8-2.019l-1.172-.634-2.381,1.016-3.147,2.81-.014.013-1.644,1.139.009-.019-1.131.851-.817.808-.87.724.019-.02-1.925,1.268-.008.006-1.183.79-.009.006-3.59.88a.442.442,0,0,0-.35-.117q-.81-1.392-1.622-2.783l.005.009-6.74-13.191-.451-1.1-2-5.165-.076-1.2.038-3.588,1.609-.209.857.014A11.272,11.272,0,0,0-185.036,66c2.258-3.206,4.511-6.415,6.543-9.3,3.665,3.259,7.055,6.695,10.868,9.569,6.236,4.7,11.9,2.43,13.87-5.168.51-1.964,1.383-3.834,2.129-5.854,2.934,4.351,5.551,8.4,8.349,12.327,2.058,2.886,4.047,6.019,8.294,5.969.236,0,.574.5.7.828,1.666,4.309,3.3,8.629,4.948,12.946.663,2.86,1.294,5.728,2.013,8.573a8.344,8.344,0,0,0,.962,1.8c.5-.412,1.034-.792,1.5-1.246A11.827,11.827,0,0,0-123.9,95.219Zm-11.361,28.122c-.489.421-1.286.814-1.631,1.452-2.409,4.452-5.473,8-10.886,8.7a3.66,3.66,0,0,0-1.943.871c-.52.492-1.2,1.7-1.036,1.874a3.477,3.477,0,0,0,2.27,1.3,15.4,15.4,0,0,0,4.711-1.177,20.113,20.113,0,0,0,10.67-10.892C-132.323,123.686-133.972,123.85-135.258,123.341Z" fill="#fdfdfd"/>
      <path id="Path_2517" data-name="Path 2517" d="M-311.2,115.12a244.226,244.226,0,0,0-6.929,42.745,8.028,8.028,0,0,0,.807,3.544c.409.955.682,1.5-.355,2.294a6.45,6.45,0,0,0-2.6,6.191c.224,2.156.046,4.354.046,7.032l4.205-4.191c.058.386-.007.865.2,1.139a16.616,16.616,0,0,0,1.568,1.619c.516-.623,1.43-1.219,1.474-1.874.149-2.2-.54-4.565.031-6.6a174.981,174.981,0,0,1,18.122-41.9c1.846.781,2.789-.263,3.519-1.762.489-1,1-2,1.564-2.962,1.38-2.364.853-5.457,2.967-7.561a24.961,24.961,0,0,0,1.661-2.418q4.836-6.159,9.717-12.283l.326.392c-1.541,3.271-3.033,6.566-4.634,9.808-2.742,5.555-5.352,11.151-6.685,17.255-.247,1.131-.2,2.212,1.072,2.218a2.685,2.685,0,0,0,2.048-1.544,72.25,72.25,0,0,1,6.821-17.161q6.538-12.48,13.171-24.911a5.524,5.524,0,0,1,.8-.891c.475,1.725-.773,4.321,2.381,4.1a8.685,8.685,0,0,0,2.39-.926,4.408,4.408,0,0,0,.47.567c2.228-1.336,2.2.578,2.287,1.747.264,3.354.392,6.721.475,10.086.075,3.067.021,6.137.024,9.205l.026-.046-.417.417.02-.02-.421.417.047-.029q-2.471,2.3-4.944,4.593a7.665,7.665,0,0,1-2.064,1.771c-2.443.925-4.758,1.961-6.341,4.161-.642.892-1.277,1.789-1.915,2.683l.456.409,2.235-1.324c1.29,1.228,1.68,4.929.854,6.387.762.313,2.036.482,2.189.989a3.5,3.5,0,0,1-.825,2.384c-8,11.734-15.99,23.481-24.126,35.124-1.8,2.578-3.739,5.612-6.369,6.927-3.712,1.857-5.792,5.064-8.647,7.6-.686.61-1.315.871-1.813-.319a6.122,6.122,0,0,0-1.312-1.479c1.559-.894,3.158-1.73,4.662-2.71.657-.429,1.584-1.158,1.578-1.743-.012-1.189-1.971-2.218-3.061-1.621-2.7,1.479-5.584,2.81-7.886,4.791A68.648,68.648,0,0,0-326.84,195.6c-.951,1.655-1.871,3.332-2.92,4.923a21.993,21.993,0,0,1-2.3,2.474V192.788c2.113-2.343,4.077-4.4,4.023-8.191-.14-9.777.41-19.564.69-29.346q.21-7.338.439-14.675c.08-2.618.442-5.1,3.139-6.451a15.414,15.414,0,0,1-.081,1.776c-2,12.723-2.047,25.537-1.932,38.37a7.614,7.614,0,0,0,3.118,6.239c1.12.925,2.155,1.5,3.192.187.959-1.217.434-2.249-.686-3.231-.734-.644-1.648-1.641-1.646-2.478.019-8.728-.145-17.481.456-26.177a223.04,223.04,0,0,1,3.038-22.237c1.46-8.518,2.81-17.114,6.338-25.1,2.2-4.981,4.6-9.9,7.272-14.638,1.422-2.516,3.29-4.983,6.6-5.513a8.656,8.656,0,0,0,1.869-.765c-.351-.732-.52-1.8-1.1-2.114a4.325,4.325,0,0,0-2.879-.358c-3.12.8-5.174,3.087-6.972,5.58-1.282,1.776-2.406,3.666-3.769,5.765,0-4.557.1-8.758-.029-12.953a21.228,21.228,0,0,1,2.736-11.58c2.774-4.775,5.7-9.46,8.49-14.229a2.086,2.086,0,0,0-.039-1.893,2.412,2.412,0,0,0-1.852-.658,2.2,2.2,0,0,0-1.315,1.044c-.937,1.451-1.772,2.968-2.646,4.459l-.464-.142c.091-.6.189-1.192.273-1.789.75-5.35,4.235-9.1,7.519-13q5.163-6.123,10.141-12.4c.455-.577.294-1.64.419-2.478l1.659-2.023c3.421.191,6.843.561,10.262.534,6.321-.05,12.64-.332,18.961-.517l.488.067.583.268a7.8,7.8,0,0,1-1.293,2.265,6.225,6.225,0,0,0-2.286,5.378c.041.855-.02,1.714-.035,2.571l-.507.888a.478.478,0,0,0-.341.14l-.906,1.907c.012,1.079.524,1.618,1.633,1.515q-2.465,7.866-4.925,15.735c-.227.729-.374,1.482-.557,2.224l.018-.032-.448.608-1.076,1.412-3.333,3.033-1.11.92-.831.786-1.094.8a6.575,6.575,0,0,0-.931.73c-.586.653-1.122,1.35-1.679,2.03q1.146.814,2.29,1.63l-5.032,6.045.227.27,1.779-.626c1.831,1.287,1.008,2.323-.029,3.428-2.1,2.239-4.151,4.527-6.221,6.8a14.456,14.456,0,0,1-1.093,1.327c-2.417,2.335-4.855,4.65-7.287,6.971l-.431.379-2.381,2.012-.787.773-6.375,5.578.011-.009-2.95,2.563-.061.043q-1.276,1.09-2.556,2.179l0-.007-1.2,1.195.006,0-2.909,2.745-.3.363-1.19,1.657.011-.01-1.223,1.583.012-.012-.731,1.246.2.786.578.783Zm13.378-22.851.436.473,9.885-9.206-.459-.785a4.743,4.743,0,0,0-1.607.706C-292.353,86.36-295.077,89.324-297.821,92.269Zm19.143-18.959.075-.112-.136-.008Z" fill="#aed046"/>
      <path id="Path_2518" data-name="Path 2518" d="M-287.7,252.738c-1.086-2.357-1.555-2.53-4.257-1.915-7.921,1.8-15.844,3.615-24.024,3.792,1.745-2.569,3.349-5.249,5.264-7.684,3.475-4.418,7.134-8.692,10.715-13.025l.3-.3.1-.1.215-.248.2-.476c.1-.526.423-1.4.245-1.52-1.027-.689-2.177-1.292-3.222.046l-.128.121q-.426.5-.854,1.007l-.008.01-.678-.083c-.054-.245-.107-.49-.161-.735l-1.161-.686-1.592.281-1.152,1.221-.014.026-.892,1.119-2.314,2.8-.823.786.01-.012-4.323,5.209-1.618,1.977-1.65,1.965-.7.913-1.285,1.472-2.694,3.284-.86,1.1-1.531,1.664-.849,1.113.01-.012-1.238,1.573.017-.013q-.7,1.031-1.406,2.059l-.561,1.109q-.378.636-.755,1.271l-.005.007-.6-1.211q.079-.722.157-1.442,4.368-5.335,8.734-10.676c1.914-2.347,3.812-4.708,5.716-7.063,1.616-.544,2.626-1.859,1.759-3.255a7.2,7.2,0,0,1-.428-6.359,92.873,92.873,0,0,1,4.712-12.5c5.971-12.264,14.275-22.907,23.588-32.8a8.893,8.893,0,0,1,1.087-.849l.4.358c-.975,1.338-1.954,2.673-2.925,4.014-1.881,2.6-3.824,5.16-5.584,7.84-.372.566-.066,1.577-.073,2.383a11.893,11.893,0,0,0,2.588-.294c.483-.16.832-.8,1.189-1.259q6.329-8.218,12.636-16.455c4.47-5.861,10-10.616,15.738-15.152,1.063,1.066.846,1.966-.172,3q-4.04,4.105-7.916,8.369a24.833,24.833,0,0,0-2.308,3.368c-.163.254-.322.756-.2.913,1.395,1.738-.174,2.733-.977,3.844-1.7,2.352-3.5,4.636-5.25,6.947q-.932,1.086-1.866,2.172l-2.737,3.26c-.046.109-.093.218-.14.327l.218-.251,3.508-1.267,3.836,2.233c-.382.362-.506.586-.668.617-3.54.681-7.081,1.36-10.629,2-1.675.3-1.965.992-1.043,2.444.814,1.282,1.932,1.161,3.145.857,2.249-.565,4.5-1.119,6.931-1.722-.134.745-.237,1.119-.263,1.5-.307,4.469.518,5.432,4.984,5.933,1.214.136,2.418.369,3.754.578a25.268,25.268,0,0,0,.042,3.813c.188,1.2.145,2.819,2.128,2.7a4.648,4.648,0,0,0,5.067-.418c.66.5,1.459,1.249,1.572,1.158a33.013,33.013,0,0,0,2.65-2.59.625.625,0,0,1,.2-.291,3.5,3.5,0,0,0,1.062-.481c4.516-4.422,10.245-7.488,14.163-12.557a44.276,44.276,0,0,0,3.2-5.231c.177-.31.025-.809.025-1.432l-4.14,1.939-.435-1.672h-3.03c.175-.481.273-1.318.539-1.376a12.285,12.285,0,0,1,2.585-.061l1.261.84-.27.254h.5c.838-.5,1.714-.946,2.5-1.513a1.305,1.305,0,0,1,2.079.229c-.085,1.342-.171,2.684-.26,4.067,5.656,3.157,11.437,2.645,16.936.977.572,2.051,1.153,4.135,1.733,6.22a17.332,17.332,0,0,0-4.942,7.97c1.746-.293,3.04-1.785,4.411-.245l-11.677,12.3-.619.439.026-.014-1.592,1.209.005,0a3.8,3.8,0,0,0-1.224.3c-5.659,3.782-11.324,7.555-16.918,11.431a21.833,21.833,0,0,0-2.934,2.98l.009-.013c-1.414.01-2.981-.367-4.21.116a51.7,51.7,0,0,0-6.212,3.392,15.944,15.944,0,0,1-2.832,1.121c-5.438,1.05-10.877,2.123-16.353,2.93C-286.885,250.963-287.562,251.357-287.7,252.738Zm-2.329-16.307-.429-.438c-2.781,2.921-5.563,5.841-8.61,9.04C-294.989,242.91-293.037,239.118-290.026,236.431Z" fill="#aed146"/>
      <path id="Path_2519" data-name="Path 2519" d="M-286.06,21.792l-1.659,2.023c-1.3-.905-2.242-.523-3.2.654q-5.84,7.177-11.794,14.26c-2.534,3.025-4.94,6.119-5.887,10.051-.707,2.937-1.437,5.878-1.92,8.856-.965,5.946-2.426,11.663-6.046,16.651a6.925,6.925,0,0,0-.821,2.936c-.281,1.8-.475,3.623-.647,5.442-.464,4.915-.954,9.83-1.31,14.754-.114,1.574.855,2.026,2.3,1.359,1.461-.674,1.584-1.952,1.608-3.3l.437,2.89a2.864,2.864,0,0,1-.123.775c-2.76,5.989-4.224,12.356-5.49,18.781q-1.6,8.1-3.158,16.2c-2.7,1.347-3.059,3.833-3.139,6.451q-.225,7.338-.439,14.675c-.28,9.782-.83,19.569-.69,29.346.054,3.787-1.91,5.848-4.023,8.191-.039-6.066-.106-12.133-.112-18.2q-.021-19.2.008-38.407.012-39.933.021-79.865c0-11.3,0-22.607,0-34.239,3.093,0,6.169.031,9.243-.007,8.066-.1,16.13-.254,24.2-.332C-294.49,21.7-290.275,21.77-286.06,21.792Z" fill="#fcfcfc"/>
      <path id="Path_2520" data-name="Path 2520" d="M-40.429,127.463a16.21,16.21,0,0,0-.379-2.048c-.393-1.248-.875-2.468-1.32-3.7q-1.743,1.2-3.483,2.4l-2.979,3.388-.554.788.011-.017c-.784.639-1.835,1.124-2.307,1.943-2.323,4.035-4.506,8.151-6.7,12.26a3.8,3.8,0,0,0-.146,1.354.486.486,0,0,0,.011.342l-.016.026-.883,1.127-3.09,3.241-.754,1.19-.024.033-.9,1.1-1.118,1.216-.816,1.139-.741.549-1.645,1.484.01-.009-2.744,2.022-2.405,1.589-2.425,1.542h0l-2.74,1.617-.019.012-1.591.77-.009.006-3.248,1.565-.169,0-.133.1-.81.317-.785.45-.813.325-1.17.509-3.019,1.437-.111-.014-.053.1a16.844,16.844,0,0,1-2.72.8c-.5.066-1.067-.334-1.6-.523l-.154-.669-.67-1.6-.473-.77-.723-1.254a6.89,6.89,0,0,0-4.8-3.9l-1.586-.76-.818-.449-1.171-.792-1-.788a50.471,50.471,0,0,0,11.319-14.647,19.707,19.707,0,0,0,1.17,2.267c.3.445.966,1.1,1.243,1.005.495-.169.819-.835,1.215-1.294l1.665.291a4.262,4.262,0,0,0-.408,1.28c.015,1.368-.239,2.942.362,4.017.3.539,2.465.614,3.378.129,3.046-1.616,5.907-3.581,8.839-5.412,2.235-1.061,4.409-2.285,6.717-3.15a26.809,26.809,0,0,0,11.278-7.987c4.059-4.812,8.13-9.615,12.089-14.508,2.014-2.49,3.785-5.178,5.691-7.758a11.984,11.984,0,0,1,1.19-1.218,2.906,2.906,0,0,0,.269.251Q-40.311,118.824-40.429,127.463Z" fill="#fbfcfc"/>
      <path id="Path_2521" data-name="Path 2521" d="M-201.4,71.818c-1.719-.019-3.445.049-5.156-.075a9.86,9.86,0,0,1-8.974-6.459c-1.814-4.369-3.924-8.655-5.281-13.164-2.1-6.976-2.042-14.245-1.853-21.476.077-2.97.138-5.94.206-8.91,3.953.03,3.9.031,3.965,3.978.141,8.669,1.954,17.088,4.217,25.392a78.564,78.564,0,0,0,4.286,11.4,15.176,15.176,0,0,0,7.152,7.1C-202.153,69.953-201.865,71.057-201.4,71.818Z" fill="#1a1a1a"/>
      <path id="Path_2522" data-name="Path 2522" d="M-74.622,313.573l5.032-5.419c.626,1.027,1.014,2.613,2.594.923l1.206,2.172a10.072,10.072,0,0,0,1.083-.848,48.534,48.534,0,0,1,3.5-3.69c1.991-1.683,2.415-3.8,2.531-6.3q1.8,6.579,3.607,13.158c-3.585.068-7.171.181-10.756.188C-68.759,313.761-71.69,313.639-74.622,313.573Z" fill="#f8f8f8"/>
      <path id="Path_2523" data-name="Path 2523" d="M-282.453,82.6c2.07-2.269,4.119-4.557,6.221-6.8,1.037-1.105,1.86-2.141.029-3.428l-1.779.626-.227-.27,5.032-6.045,3.4-2.408,1.225-.774-.012.011,1.587-.448-.017,1.211q-1.785,4.374-3.572,8.747l-.42.788-1.586,2.781.005-.005-1.586,1.2h0l-1.2.79.005,0-2.835,1.954.019-.015-1.16.832-1.216.738Z" fill="#f8f8f8"/>
      <path id="Path_2524" data-name="Path 2524" d="M-183.866,119.117l-.048-1.575q.033-2.589.066-5.179a3.806,3.806,0,0,1,.65-.311q3.968,5.5,7.882,11.045l-1.933,1.513.015-.016a11,11,0,0,1-2.679,1.115c-1.332.182-2.9,1.11-3.963-.626l.018-1.566-.007-2.413.041-.751Z" fill="#f8f8f8"/>
      <path id="Path_2525" data-name="Path 2525" d="M-264.983,54.767c.183-.742.33-1.495.557-2.224q2.449-7.872,4.925-15.735l2.062-1.124,1.175-.483-.066,1.621-.626,2.016-.515,1.977q-.552,2.192-1.1,4.382l-.145.766-.633,2.059c0,.134-.008.267-.012.4q-.192.574-.386,1.149l-.124.7-.755.895-1.2.77-1.632,1.589Z" fill="#f6f7f5"/>
      <path id="Path_2526" data-name="Path 2526" d="M-77.428,144.552c-2.932,1.831-5.793,3.8-8.839,5.412-.913.485-3.077.41-3.378-.129-.6-1.075-.347-2.649-.362-4.017a4.262,4.262,0,0,1,.408-1.28Z" fill="#232323"/>
      <path id="Path_2527" data-name="Path 2527" d="M-329.071,264.576q.051-1.074.1-2.149l.593-.554c.553-.646,1.14-1.267,1.655-1.942,1.411-1.854,2.793-3.73,4.186-5.6l1.228-1.182,3.026-3.662.878-.675.389.366q-.848,1.509-1.7,3.018l-1.2,1.658.014-.012q-.624,1-1.246,2l-.321.406-.449.8-.343.42-.239.372-.187.373-.742,1.21q-.234.384-.469.766a.92.92,0,0,0-.287,0l-.44.5.048-.027a16.4,16.4,0,0,0-1.693,1.19C-327.231,262.723-328.139,263.664-329.071,264.576Z" fill="#aed046"/>
      <path id="Path_2528" data-name="Path 2528" d="M-84.193,313.6l4.818-6.138.765.124q.628,2.979,1.259,5.958Z" fill="#f8f8f8"/>
      <path id="Path_2529" data-name="Path 2529" d="M-259.38,32.358c.015-.857.076-1.716.035-2.571a6.225,6.225,0,0,1,2.286-5.378,7.8,7.8,0,0,0,1.293-2.265l1.519-.014.1,2.4-1.727,3.566-1.713,2.336-1.487,1.949C-259.178,32.369-259.279,32.362-259.38,32.358Z" fill="#f6f7f5"/>
      <path id="Path_2530" data-name="Path 2530" d="M-303.834,232.36l.678.083c-1.1,1.516-2.149,3.07-3.3,4.541q-3.977,5.064-8.051,10.051c-.214.263-.672.326-1.017.482l.037-.774-.189-.895c1.178-1.228,2.283-2.308,3.3-3.462,2.221-2.505,4.407-5.04,6.589-7.578C-305.106,234.017-304.483,233.178-303.834,232.36Z" fill="#0f110a"/>
      <path id="Path_2531" data-name="Path 2531" d="M-329.071,264.576c.932-.912,1.84-1.853,2.808-2.725a16.4,16.4,0,0,1,1.693-1.19l-.1.768-1.605,2.779-.69,1.226-.809,1.586L-329,269.395l-.809,1.567-1.122,2.011a.174.174,0,0,0-.116.251l-.973.631a13.82,13.82,0,0,1,2.235-8.505l.187-.258a.147.147,0,0,0,.183-.062l.371-.465Z" fill="#f6f7f5"/>
      <path id="Path_2532" data-name="Path 2532" d="M-58.283,143.837a3.8,3.8,0,0,1,.146-1.354c2.191-4.109,4.374-8.225,6.7-12.26.472-.819,1.523-1.3,2.307-1.943q-.651,1.57-1.3,3.143l-.659,1.239-.4.791-.4.8-.45.739-.7,1.241q-.653,1.142-1.306,2.281l-.721,1.3q-1,1.623-1.993,3.247Z" fill="#bbe8fc"/>
      <path id="Path_2533" data-name="Path 2533" d="M-123.9,95.219a11.827,11.827,0,0,1-.966,1.227c-.461.454-.993.834-1.5,1.246a8.344,8.344,0,0,1-.962-1.8c-.719-2.845-1.35-5.713-2.013-8.573.622.873,1.258,1.737,1.863,2.622C-126.27,91.691-125.087,93.457-123.9,95.219Z" fill="#232323"/>
      <path id="Path_2534" data-name="Path 2534" d="M-108.037,108.375a9.444,9.444,0,0,1,7.95-4.858c-.651.9-1.112,2.156-1.99,2.611A49.062,49.062,0,0,1-108.037,108.375Z" fill="#232323"/>
      <path id="Path_2535" data-name="Path 2535" d="M-52.378,313.557c1.173-1.427,2.347-2.853,3.841-4.669l1.751,4.812Z" fill="#fbfcfc"/>
      <path id="Path_2536" data-name="Path 2536" d="M-282.453,82.6l1.915-.513a3.647,3.647,0,0,1-.591,1.147c-2.578,2.273-5.174,4.527-7.813,6.729a8.837,8.837,0,0,1-1.891.935c2.432-2.321,4.87-4.636,7.287-6.971A14.456,14.456,0,0,0-282.453,82.6Z" fill="#111210"/>
      <path id="Path_2537" data-name="Path 2537" d="M-195.4,82.479l6.74,13.191c-.389-.284-.937-.483-1.143-.866-1.662-3.088-3.309-6.187-4.847-9.337A14.5,14.5,0,0,1-195.4,82.479Z" fill="#121313"/>
      <path id="Path_2538" data-name="Path 2538" d="M-91.264,144.247c-.4.459-.72,1.125-1.215,1.294-.277.1-.942-.56-1.243-1.005a19.707,19.707,0,0,1-1.17-2.267c.329-.157.838-.536.961-.437C-93,142.584-92.144,143.43-91.264,144.247Z" fill="#232323"/>
      <path id="Path_2539" data-name="Path 2539" d="M-270.563,73.022q1.786-4.374,3.572-8.747C-267.229,67.58-267.971,70.679-270.563,73.022Z" fill="#111210"/>
      <path id="Path_2540" data-name="Path 2540" d="M-300.807,99.636l6.375-5.578A10.491,10.491,0,0,1-300.807,99.636Z" fill="#111210"/>
      <path id="Path_2541" data-name="Path 2541" d="M-97.593,170.231l-3.536-.4-.186-.762a7.905,7.905,0,0,1,2.71-.909c.534.021,1.03,1.042,1.542,1.613Z" fill="#121313"/>
      <path id="Path_2542" data-name="Path 2542" d="M-138.2,154.97l7.562,2.7a4.617,4.617,0,0,1-.341.632c-2.323-.846-4.637-1.715-6.934-2.626C-138.075,155.608-138.107,155.212-138.2,154.97Z" fill="#121313"/>
      <path id="Path_2543" data-name="Path 2543" d="M-183.876,125.083c1.066,1.736,2.631.808,3.963.626a11,11,0,0,0,2.679-1.115c-1.011,1.753-4.937,2.947-6.476,1.88C-183.965,126.3-183.83,125.561-183.876,125.083Z" fill="#121313"/>
      <path id="Path_2544" data-name="Path 2544" d="M-316.256,242.371l4.323-5.209C-312.968,239.236-313.274,241.914-316.256,242.371Z" fill="#0f110a"/>
      <path id="Path_2545" data-name="Path 2545" d="M-108.748,154.924l4.325-4.429A6.461,6.461,0,0,1-108.748,154.924Z" fill="#121313"/>
      <path id="Path_2546" data-name="Path 2546" d="M-129.85,157.725l5.969.841C-125.174,159.432-128.657,158.942-129.85,157.725Z" fill="#121313"/>
      <path id="Path_2547" data-name="Path 2547" d="M-176.483,104.815c-.351.66-.768,1.906-1.039,1.874a6.906,6.906,0,0,1-2.525-1.084c-.358-.21-.563-.681-.837-1.035.311.046.832,0,.9.152C-178.859,107.214-177.682,106.176-176.483,104.815Z" fill="#121313"/>
      <path id="Path_2548" data-name="Path 2548" d="M-196.249,67.074l4.391-.407c-1.214.65-2.167,2.218-3.871,1.135C-195.962,67.653-196.079,67.321-196.249,67.074Z" fill="#121313"/>
      <path id="Path_2549" data-name="Path 2549" d="M-302.166,231.3c1.045-1.338,2.195-.735,3.222-.046.178.12-.15.994-.245,1.52-.257-.32-.454-.794-.786-.927A15.064,15.064,0,0,0-302.166,231.3Z" fill="#0f110a"/>
      <path id="Path_2550" data-name="Path 2550" d="M-97.25,137.81l-3.2-4.357C-98.455,134.223-97.823,135.995-97.25,137.81Z" fill="#121313"/>
      <path id="Path_2551" data-name="Path 2551" d="M-163.657,133.086l3.6,3.936A5.146,5.146,0,0,1-163.657,133.086Z" fill="#121313"/>
      <path id="Path_2552" data-name="Path 2552" d="M-197.857,76.21l2,5.165C-197.631,80.083-197.765,78.154-197.857,76.21Z" fill="#121313"/>
      <path id="Path_2553" data-name="Path 2553" d="M-94.817,167.906c.536.189,1.1.589,1.6.523a16.844,16.844,0,0,0,2.72-.8l-4.15,2.558C-94.736,168.972-94.777,168.439-94.817,167.906Z" fill="#121313"/>
      <path id="Path_2554" data-name="Path 2554" d="M-183.848,112.363q-.033,2.59-.066,5.179c-.178-.066-.516-.148-.511-.195C-184.252,115.684-184.048,114.024-183.848,112.363Z" fill="#121313"/>
      <path id="Path_2555" data-name="Path 2555" d="M-179.52,111.932l2.567,3.329c-1.461.754-1.586-.586-1.978-1.341A10.458,10.458,0,0,1-179.52,111.932Z" fill="#121313"/>
      <path id="Path_2556" data-name="Path 2556" d="M-142.992,152.185l4.436,2.708C-140.314,154.448-142.248,154.29-142.992,152.185Z" fill="#121313"/>
      <path id="Path_2557" data-name="Path 2557" d="M-48.59,127.509l2.979-3.388.436.14-3.442,3.624A1.577,1.577,0,0,1-48.59,127.509Z" fill="#121313"/>
      <path id="Path_2558" data-name="Path 2558" d="M-258.574,45.2q.552-2.19,1.1-4.382A4.011,4.011,0,0,1-258.574,45.2Z" fill="#111210"/>
      <path id="Path_2559" data-name="Path 2559" d="M-303.746,102.19l2.95-2.563A2.721,2.721,0,0,1-303.746,102.19Z" fill="#111210"/>
      <path id="Path_2560" data-name="Path 2560" d="M-183.5,105.2l1.952,3.61C-183.579,108.351-183.113,106.544-183.5,105.2Z" fill="#121313"/>
      <path id="Path_2561" data-name="Path 2561" d="M-266.974,63.064l-1.587.448,2.756-2.028.015.015-.742,1.6-.318-.455-.153.463Z" fill="#111210"/>
      <path id="Path_2562" data-name="Path 2562" d="M-310.462,108.341l2.909-2.745C-307.4,107.7-309.124,107.816-310.462,108.341Z" fill="#111210"/>
      <path id="Path_2563" data-name="Path 2563" d="M-121.951,158.593l3.636-.006C-119.525,159.771-120.737,159.636-121.951,158.593Z" fill="#121313"/>
      <path id="Path_2564" data-name="Path 2564" d="M-186.7,98.561l3.59-.88A2.381,2.381,0,0,1-186.7,98.561Z" fill="#121313"/>
      <path id="Path_2565" data-name="Path 2565" d="M-175.535,92.115l3.147-2.81C-172.638,91.136-174.085,91.627-175.535,92.115Z" fill="#121313"/>
      <path id="Path_2566" data-name="Path 2566" d="M-197.9,71.426l-.038,3.588C-199.232,73.8-198.591,72.615-197.9,71.426Z" fill="#121313"/>
      <path id="Path_2567" data-name="Path 2567" d="M-177.932,100.409l1.088,3.225Z" fill="#121313"/>
      <path id="Path_2568" data-name="Path 2568" d="M-181.549,103.291l-.748-2.572.748-1.091Z" fill="#121313"/>
      <path id="Path_2569" data-name="Path 2569" d="M-90.33,167.543l3.019-1.437C-87.791,167.692-89.029,167.684-90.33,167.543Z" fill="#121313"/>
      <path id="Path_2570" data-name="Path 2570" d="M-272.569,76.591l1.586-2.781C-270.854,75.112-271.148,76.172-272.569,76.591Z" fill="#111210"/>
      <path id="Path_2571" data-name="Path 2571" d="M-70.993,157.3l2.744-2.022C-68.175,157.3-69.817,156.983-70.993,157.3Z" fill="#121313"/>
      <path id="Path_2572" data-name="Path 2572" d="M-83.431,164.4l3.248-1.565C-80.632,164.676-82.262,164.061-83.431,164.4Z" fill="#121313"/>
      <path id="Path_2573" data-name="Path 2573" d="M-278.181,80.528l2.835-1.954Z" fill="#111210"/>
      <path id="Path_2574" data-name="Path 2574" d="M-103.618,149.739l1.995-2.381C-101.535,148.783-101.971,149.768-103.618,149.739Z" fill="#121313"/>
      <path id="Path_2575" data-name="Path 2575" d="M-257.591,30.431l1.713-2.336C-255.187,29.8-256.337,30.153-257.591,30.431Z" fill="#111210"/>
      <path id="Path_2576" data-name="Path 2576" d="M-188.67,95.661q.812,1.392,1.622,2.783C-188.694,98.16-188.648,96.891-188.67,95.661Z" fill="#121313"/>
      <path id="Path_2577" data-name="Path 2577" d="M-293.645,93.285l2.381-2.012A2.2,2.2,0,0,1-293.645,93.285Z" fill="#111210"/>
      <path id="Path_2578" data-name="Path 2578" d="M-306.363,104.412q1.279-1.089,2.556-2.179Q-305.087,103.322-306.363,104.412Z" fill="#111210"/>
      <path id="Path_2579" data-name="Path 2579" d="M-153.594,144.056l2.262,2.114A2.063,2.063,0,0,1-153.594,144.056Z" fill="#121313"/>
      <path id="Path_2580" data-name="Path 2580" d="M-78.564,162.051l2.74-1.617C-76.063,162.116-77.489,161.786-78.564,162.051Z" fill="#121313"/>
      <path id="Path_2581" data-name="Path 2581" d="M-174.392,118.8l1.619,2.314C-174.435,121.131-174.3,119.891-174.392,118.8Z" fill="#121313"/>
      <path id="Path_2582" data-name="Path 2582" d="M-165.645,130.7l1.972,2.36C-165.14,132.953-165.506,131.922-165.645,130.7Z" fill="#121313"/>
      <path id="Path_2583" data-name="Path 2583" d="M-158.778,138.506l1.977,2.029Z" fill="#121313"/>
      <path id="Path_2584" data-name="Path 2584" d="M-101.622,147.357l1.531-2.526C-99.932,146.079-100.128,147.111-101.622,147.357Z" fill="#121313"/>
      <path id="Path_2585" data-name="Path 2585" d="M-177.249,124.61l1.933-1.513C-174.952,124.412-175.235,124.634-177.249,124.61Z" fill="#121313"/>
      <path id="Path_2586" data-name="Path 2586" d="M-331.985,260.64l.6,1.211-.189,1.361-.62-.038Z" fill="#0f110a"/>
      <path id="Path_2587" data-name="Path 2587" d="M-254.151,24.529l-.1-2.4C-253.036,22.882-253.149,23.688-254.151,24.529Z" fill="#111210"/>
      <path id="Path_2588" data-name="Path 2588" d="M-315.491,246.743l-.037.774-1.485,1.664-.389-.366q.2-.429.4-.857Z" fill="#aed046"/>
      <path id="Path_2589" data-name="Path 2589" d="M-75.823,160.433l2.425-1.542Z" fill="#121313"/>
      <path id="Path_2590" data-name="Path 2590" d="M-330.064,259.464q.7-1.029,1.406-2.059C-328.539,258.492-328.566,259.481-330.064,259.464Z" fill="#0f110a"/>
      <path id="Path_2591" data-name="Path 2591" d="M-329,269.395l1.229-2.375Z" fill="#0f110a"/>
      <path id="Path_2592" data-name="Path 2592" d="M-156.067,141.366l1.751,1.815C-155.768,143.413-156.051,142.518-156.067,141.366Z" fill="#121313"/>
      <path id="Path_2593" data-name="Path 2593" d="M-183.865,121.1l.007,2.413Z" fill="#121313"/>
      <path id="Path_2594" data-name="Path 2594" d="M-256.956,38.838l.626-2.016C-255.492,37.819-255.751,38.476-256.956,38.838Z" fill="#111210"/>
      <path id="Path_2595" data-name="Path 2595" d="M-319.524,246.313l1.65-1.965Z" fill="#0f110a"/>
      <path id="Path_2596" data-name="Path 2596" d="M-167.231,128.72l1.571,1.957Z" fill="#121313"/>
      <path id="Path_2597" data-name="Path 2597" d="M-94.136,173.588c-.68.6-1.23,1.962-2.28.387Z" fill="#121313"/>
      <path id="Path_2598" data-name="Path 2598" d="M-332.019,273.855l.973-.631q-.219,1.012-.436,2.025l-.537-.082Z" fill="#0f110a"/>
      <path id="Path_2599" data-name="Path 2599" d="M-259.352,48.022q.316-1.029.632-2.059Z" fill="#111210"/>
      <path id="Path_2600" data-name="Path 2600" d="M-98.048,140.995l1.2-1.58C-96.816,140.27-96.8,141.11-98.048,140.995Z" fill="#121313"/>
      <path id="Path_2601" data-name="Path 2601" d="M-261.134,35.293l.906-1.907Z" fill="#111210"/>
      <path id="Path_2602" data-name="Path 2602" d="M-114.737,158.5l1.989-.684Z" fill="#121313"/>
      <path id="Path_2603" data-name="Path 2603" d="M-144.871,150.832l1.835,1.325C-143.92,152.092-144.96,152.244-144.871,150.832Z" fill="#121313"/>
      <path id="Path_2604" data-name="Path 2604" d="M-160.061,137.023l1.3,1.5C-160.094,138.8-160.1,137.928-160.061,137.023Z" fill="#121313"/>
      <path id="Path_2605" data-name="Path 2605" d="M-321.141,255.843q.622-1,1.246-2Q-320.519,254.844-321.141,255.843Z" fill="#0f110a"/>
      <path id="Path_2606" data-name="Path 2606" d="M-147.743,148.959l1.962,1.2Z" fill="#121313"/>
      <path id="Path_2607" data-name="Path 2607" d="M-95.641,165.634l.67,1.6C-95.874,166.987-96.476,166.611-95.641,165.634Z" fill="#121313"/>
      <path id="Path_2608" data-name="Path 2608" d="M-86.533,313.175l2.212.375Z" fill="#f8f8f8"/>
      <path id="Path_2609" data-name="Path 2609" d="M-170.469,124.321l1,1.462C-170.544,125.8-171.118,125.476-170.469,124.321Z" fill="#121313"/>
      <path id="Path_2610" data-name="Path 2610" d="M-110.537,156.315l1.773-1.375C-108.785,156.133-109.432,156.519-110.537,156.315Z" fill="#121313"/>
      <path id="Path_2611" data-name="Path 2611" d="M-317,247.958q-.2.428-.4.857l-.878.675Z" fill="#0f110a"/>
      <path id="Path_2612" data-name="Path 2612" d="M-112.326,157.7l1.778-1.378Z" fill="#121313"/>
      <path id="Path_2613" data-name="Path 2613" d="M-330.93,272.973l1.122-2.011Z" fill="#0f110a"/>
      <path id="Path_2614" data-name="Path 2614" d="M-263.463,53.522l1.632-1.589Z" fill="#111210"/>
      <path id="Path_2615" data-name="Path 2615" d="M-181.908,96.879l1.925-1.268Z" fill="#121313"/>
      <path id="Path_2616" data-name="Path 2616" d="M-266.489,56.755l1.077-1.413.417-.185Z" fill="#111210"/>
      <path id="Path_2617" data-name="Path 2617" d="M-68.259,155.289l1.645-1.484C-66.6,154.925-67.159,155.406-68.259,155.289Z" fill="#121313"/>
      <path id="Path_2618" data-name="Path 2618" d="M-256.33,34.766l1.117-.414-.593.919-.437-.4Z" fill="#111210"/>
      <path id="Path_2619" data-name="Path 2619" d="M-321.306,253.152l-1.228,1.182C-322.921,253.452-322.81,253.345-321.306,253.152Z" fill="#0f110a"/>
      <path id="Path_2620" data-name="Path 2620" d="M-185.164,102.057l.837,1.578Z" fill="#121313"/>
      <path id="Path_2621" data-name="Path 2621" d="M-168.792,126.664l1.2,1.6Z" fill="#121313"/>
      <path id="Path_2622" data-name="Path 2622" d="M-321.513,248.7l1.285-1.472Z" fill="#0f110a"/>
      <path id="Path_2623" data-name="Path 2623" d="M-103.218,158.945l1.586.76Z" fill="#121313"/>
      <path id="Path_2624" data-name="Path 2624" d="M-311.949,110.361l1.19-1.657Z" fill="#111210"/>
      <path id="Path_2625" data-name="Path 2625" d="M-177.193,93.267l1.644-1.139Z" fill="#121313"/>
      <path id="Path_2626" data-name="Path 2626" d="M-319.909,253.857l1.2-1.658C-318.644,253.088-318.52,254.02-319.909,253.857Z" fill="#0f110a"/>
      <path id="Path_2627" data-name="Path 2627" d="M-313.161,111.934l1.223-1.583Z" fill="#111210"/>
      <path id="Path_2628" data-name="Path 2628" d="M-274.15,77.788l1.586-1.2C-272.438,77.85-273.283,77.833-274.15,77.788Z" fill="#111210"/>
      <path id="Path_2629" data-name="Path 2629" d="M-328.675,257.418l1.238-1.573Z" fill="#0f110a"/>
      <path id="Path_2630" data-name="Path 2630" d="M-175.934,116.709l1.108,1.647Z" fill="#121313"/>
      <path id="Path_2631" data-name="Path 2631" d="M-150.912,146.549l1.545,1.218Z" fill="#121313"/>
      <path id="Path_2632" data-name="Path 2632" d="M-252.637,28.5l-.056.83-.876-.339Z" fill="#111210"/>
      <path id="Path_2633" data-name="Path 2633" d="M-99.961,144.577l.692-1.206Z" fill="#121313"/>
      <path id="Path_2634" data-name="Path 2634" d="M-80.174,162.833l1.591-.77Z" fill="#121313"/>
      <path id="Path_2635" data-name="Path 2635" d="M-176.855,115.375l.932,1.349Z" fill="#121313"/>
      <path id="Path_2636" data-name="Path 2636" d="M-65.873,153.256l.816-1.139C-65.234,152.564-64.527,153.645-65.873,153.256Z" fill="#121313"/>
      <path id="Path_2637" data-name="Path 2637" d="M-326.961,265.434l.69-1.226Z" fill="#0f110a"/>
      <path id="Path_2638" data-name="Path 2638" d="M-279.322,81.345l1.16-.832Z" fill="#111210"/>
      <path id="Path_2639" data-name="Path 2639" d="M-51.1,132.662l.659-1.239Z" fill="#121313"/>
      <path id="Path_2640" data-name="Path 2640" d="M-44.812,124.206l1.438.419Z" fill="#121313"/>
      <path id="Path_2641" data-name="Path 2641" d="M-307.9,232.441l1.152-1.221Z" fill="#0f110a"/>
      <path id="Path_2642" data-name="Path 2642" d="M-96.843,139.411l-.037-1.188.744.671Z" fill="#121313"/>
      <path id="Path_2643" data-name="Path 2643" d="M-201.163,74.661l.024-1.257Z" fill="#121313"/>
      <path id="Path_2644" data-name="Path 2644" d="M-116.735,158.583l1.2.015Q-116.152,159.995-116.735,158.583Z" fill="#121313"/>
      <path id="Path_2645" data-name="Path 2645" d="M-183.866,119.117l.042,1.236Z" fill="#121313"/>
      <path id="Path_2646" data-name="Path 2646" d="M-58.283,143.837l1.207-.776-1.2,1.118A.486.486,0,0,1-58.283,143.837Z" fill="#121313"/>
      <path id="Path_2647" data-name="Path 2647" d="M-59.171,145.332l.883-1.127Z" fill="#121313"/>
      <path id="Path_2648" data-name="Path 2648" d="M-307.559,105.6l1.2-1.195Z" fill="#111210"/>
      <path id="Path_2649" data-name="Path 2649" d="M-63.015,149.763l.754-1.19Z" fill="#121313"/>
      <path id="Path_2650" data-name="Path 2650" d="M-275.351,78.578l1.2-.79Z" fill="#111210"/>
      <path id="Path_2651" data-name="Path 2651" d="M-171.59,122.358l1,.761Z" fill="#121313"/>
      <path id="Path_2652" data-name="Path 2652" d="M-105.207,157.7l1.171.792Z" fill="#121313"/>
      <path id="Path_2653" data-name="Path 2653" d="M-303.148,232.433q.428-.5.854-1.007Q-302.723,231.929-303.148,232.433Z" fill="#0f110a"/>
      <path id="Path_2654" data-name="Path 2654" d="M-308.806,233.586l.892-1.119Z" fill="#0f110a"/>
      <path id="Path_2655" data-name="Path 2655" d="M-180.711,109.96l.727,1.238Z" fill="#121313"/>
      <path id="Path_2656" data-name="Path 2656" d="M-181.538,108.821l.838,1.15Z" fill="#121313"/>
      <path id="Path_2657" data-name="Path 2657" d="M-268.549,63.5l-1.225.774Z" fill="#111210"/>
      <path id="Path_2658" data-name="Path 2658" d="M-272.857,62.293l1.094-.8Z" fill="#111210"/>
      <path id="Path_2659" data-name="Path 2659" d="M-260.268,57.9l-1.12.9Z" fill="#111210"/>
      <path id="Path_2660" data-name="Path 2660" d="M-260.629,51.163l.755-.895Z" fill="#111210"/>
      <path id="Path_2661" data-name="Path 2661" d="M-313.88,113.168l.731-1.246Z" fill="#111210"/>
      <path id="Path_2662" data-name="Path 2662" d="M-305.156,230.939l1.161.686Z" fill="#0f110a"/>
      <path id="Path_2663" data-name="Path 2663" d="M-325.067,253.08l.86-1.1Z" fill="#0f110a"/>
      <path id="Path_2664" data-name="Path 2664" d="M-256.264,35.2l-1.175.483,1.109-.917.087.109-.043.4Z" fill="#111210"/>
      <path id="Path_2665" data-name="Path 2665" d="M-55.083,139.814l.721-1.3Z" fill="#121313"/>
      <path id="Path_2666" data-name="Path 2666" d="M-327.447,255.857l.849-1.113Z" fill="#0f110a"/>
      <path id="Path_2667" data-name="Path 2667" d="M-53.056,136.229l.7-1.241Z" fill="#121313"/>
      <path id="Path_2668" data-name="Path 2668" d="M-270.932,60.708l1.11-.92Z" fill="#111210"/>
      <path id="Path_2669" data-name="Path 2669" d="M-323.422,259.42l.742-1.21Q-323.052,258.815-323.422,259.42Z" fill="#0f110a"/>
      <path id="Path_2670" data-name="Path 2670" d="M-324.666,261.429l.1-.768-.048.027.44-.5a.92.92,0,0,1,.287,0Q-324.278,260.807-324.666,261.429Z" fill="#0f110a"/>
      <path id="Path_2671" data-name="Path 2671" d="M-331.38,261.844l.755-1.271Q-331,261.209-331.38,261.844Z" fill="#0f110a"/>
      <path id="Path_2672" data-name="Path 2672" d="M-148.925,148.139l1.173.815Z" fill="#121313"/>
      <path id="Path_2673" data-name="Path 2673" d="M-96.837,163.61l.723,1.254Z" fill="#121313"/>
      <path id="Path_2674" data-name="Path 2674" d="M-63.939,150.9l.9-1.1Z" fill="#121313"/>
      <path id="Path_2675" data-name="Path 2675" d="M-100.445,133.463l-.763-1.22Z" fill="#121313"/>
      <path id="Path_2676" data-name="Path 2676" d="M-183.1,97.675l1.183-.79Z" fill="#121313"/>
      <path id="Path_2677" data-name="Path 2677" d="M-178.315,94.1l1.131-.851Z" fill="#121313"/>
      <path id="Path_2678" data-name="Path 2678" d="M-98.686,142.2l.638-1.2Q-98.366,141.6-98.686,142.2Z" fill="#121313"/>
      <path id="Path_2679" data-name="Path 2679" d="M-170.007,88.289l1.172.634Z" fill="#121313"/>
      <path id="Path_2680" data-name="Path 2680" d="M-195.429,71.231l-.857-.014Z" fill="#121313"/>
      <path id="Path_2681" data-name="Path 2681" d="M-201.218,72.632l-.162-.816.609.334Z" fill="#121313"/>
      <path id="Path_2682" data-name="Path 2682" d="M-200.948,76.582l-.136-.805Z" fill="#121313"/>
      <path id="Path_2683" data-name="Path 2683" d="M-145.763,150.168l.91.684Z" fill="#121313"/>
      <path id="Path_2684" data-name="Path 2684" d="M-117.51,161.713l-.8-.088Z" fill="#121313"/>
      <path id="Path_2685" data-name="Path 2685" d="M-84.543,164.822l.81-.317Z" fill="#121313"/>
      <path id="Path_2686" data-name="Path 2686" d="M-86.141,165.6l.813-.325Z" fill="#121313"/>
      <path id="Path_2687" data-name="Path 2687" d="M-156.827,140.523l.769.854Z" fill="#121313"/>
      <path id="Path_2688" data-name="Path 2688" d="M-154.293,143.206l.718.866Z" fill="#121313"/>
      <path id="Path_2689" data-name="Path 2689" d="M-51.9,134.249l.4-.8Z" fill="#121313"/>
      <path id="Path_2690" data-name="Path 2690" d="M-313.1,114.737l-.578-.783Z" fill="#111210"/>
      <path id="Path_2691" data-name="Path 2691" d="M-311.943,237.174l.823-.786Z" fill="#0f110a"/>
      <path id="Path_2692" data-name="Path 2692" d="M-184.013,110.942c.11.049.282.075.312.155s-.077.215-.124.326c-.11-.049-.28-.075-.313-.156S-184.06,111.053-184.013,110.942Z" fill="#121313"/>
      <path id="Path_2693" data-name="Path 2693" d="M-179.511,98.851l.352.473-.633.11Z" fill="#121313"/>
      <path id="Path_2694" data-name="Path 2694" d="M-180.319,129.508l-.819.154Z" fill="#121313"/>
      <path id="Path_2695" data-name="Path 2695" d="M-251.9,29.618l.969.226Z" fill="#111210"/>
      <path id="Path_2696" data-name="Path 2696" d="M-250.839,29.91l.077.956Z" fill="#111210"/>
      <path id="Path_2697" data-name="Path 2697" d="M-259.38,32.358c.1,0,.2.011.3.022l-.809.866Z" fill="#111210"/>
      <path id="Path_2698" data-name="Path 2698" d="M-183.927,104.429l.434.779Z" fill="#121313"/>
      <path id="Path_2699" data-name="Path 2699" d="M-259.75,49.571q.193-.574.386-1.149Q-259.558,49-259.75,49.571Z" fill="#111210"/>
      <path id="Path_2700" data-name="Path 2700" d="M-257.016,51.147l-.175.767Z" fill="#111210"/>
      <path id="Path_2701" data-name="Path 2701" d="M-180,95.631l.87-.724Z" fill="#121313"/>
      <path id="Path_2702" data-name="Path 2702" d="M-180.881,104.573l-.541-.95Z" fill="#121313"/>
      <path id="Path_2703" data-name="Path 2703" d="M-252.025,27.3l-.557,1.062Z" fill="#111210"/>
      <path id="Path_2704" data-name="Path 2704" d="M-169.491,125.767l.706.906Z" fill="#121313"/>
      <path id="Path_2705" data-name="Path 2705" d="M-321.911,257.045l.449-.8Z" fill="#0f110a"/>
      <path id="Path_2706" data-name="Path 2706" d="M-48.59,127.509a1.577,1.577,0,0,0-.027.376l-.527.412Z" fill="#bbe8fc"/>
      <path id="Path_2707" data-name="Path 2707" d="M-267,63.107l.153-.463.318.455Z" fill="#f8f8f8"/>
      <path id="Path_2708" data-name="Path 2708" d="M-256.349,21.876l-.488-.067Z" fill="#111210"/>
      <path id="Path_2709" data-name="Path 2709" d="M-40.463,109.931l.229-.226.039.477A3.027,3.027,0,0,1-40.463,109.931Z" fill="#fbfcfc"/>
      <path id="Path_2710" data-name="Path 2710" d="M-322.493,257.837l.239-.372Z" fill="#0f110a"/>
      <path id="Path_2711" data-name="Path 2711" d="M-265.8,61.484l.1-.158-.082.173Z" fill="#111210"/>
      <path id="Path_2712" data-name="Path 2712" d="M-264.995,55.157l-.417.185.447-.607Z" fill="#f6f7f5"/>
      <path id="Path_2713" data-name="Path 2713" d="M-256.286,35.277l.043-.4.437.4Z" fill="#f6f7f5"/>
      <path id="Path_2714" data-name="Path 2714" d="M-328.375,261.873l-.593.554Z" fill="#0f110a"/>
      <path id="Path_2715" data-name="Path 2715" d="M-329.043,264.565l-.371.465Z" fill="#aed046"/>
      <path id="Path_2716" data-name="Path 2716" d="M-329.6,265.092l-.187.258A.257.257,0,0,1-329.6,265.092Z" fill="#0f110a"/>
      <path id="Path_2717" data-name="Path 2717" d="M-299.387,233.255l-.215.248A.435.435,0,0,1-299.387,233.255Z" fill="#0f110a"/>
      <path id="Path_2718" data-name="Path 2718" d="M-299.7,233.6l-.3.3Z" fill="#0f110a"/>
      <path id="Path_2719" data-name="Path 2719" d="M-220.366,206.833c-.58-2.085-1.161-4.169-1.733-6.22-5.5,1.668-11.28,2.18-16.936-.977.089-1.383.175-2.725.26-4.067.8-2.532,2.868-3.874,4.959-5.111,6.635-3.921,13.259-7.867,20.011-11.576a15.278,15.278,0,0,1,5.968-1.559c6.089-.5,12,.972,17.937,2.023a18.87,18.87,0,0,0,2.918.261,4.166,4.166,0,0,1,4.275,2.99,10,10,0,0,1,2.669-1.1c.759-.08,2.079.238,2.287.738.736,1.774,2.319,2.055,3.673,2.025,8.976-.2,16.743,3.364,24.41,7.416,3.89,2.055,7.9,3.878,11.859,5.806l3.577,1.175c2.061.361,4.118.75,6.187,1.055.324.047.727-.254,1.058-.453,4.655-2.809,9.321-5.6,13.94-8.471a12.2,12.2,0,0,0,1.959-1.933l1.3-2.147.1-.077c.341-.541.563-1.34,1.051-1.567a10.2,10.2,0,0,1,2.624-.5c.11.792.561,1.748.272,2.35a18.989,18.989,0,0,1-8.5,8.693,74.453,74.453,0,0,0-6.842,4.628l-.527.328.049-.063A58.356,58.356,0,0,0-138.9,212.056a12.875,12.875,0,0,0-3.631,9.332c-.144,7.51-.509,15.023-.38,22.529.2,11.861.674,23.718,1.165,35.572.174,4.2.738,8.386,1.124,12.579.006.066.048.141.028.194-.365.954-.708,2.7-1.113,2.713a2.346,2.346,0,0,1-2.322-2.441c-.421-5.215-.892-10.428-1.169-15.651-.388-7.3-.669-14.612-.9-21.921-.21-6.587-.295-13.178-.436-19.767.158-4.658.243-9.319.492-13.972a18.122,18.122,0,0,1,8.058-14.617c1.824-1.269,3.589-2.624,5.618-4.114a18.338,18.338,0,0,1-3.706-.73c-4.789-2.1-9.677-4.052-14.24-6.58-5.639-3.125-11.378-5.835-17.692-7.23-.846.17-2.088.053-2.46.567a23.379,23.379,0,0,0-1.983,4.128l.051-.044-.336.472q-.3.542-.6,1.085c-.812,1.1-1.656,2.179-2.428,3.307-2.138,3.121-4.246,6.262-6.365,9.4l.075-.047-.34.558.038-.055-.57.846q-.9,1.812-1.807,3.622c-.655,1.249-1.385,2.466-1.943,3.757s-1.259,2.087-2.771,1.682l-1.211-1.387c.576-1.027,1.134-1.915,1.592-2.852a94.175,94.175,0,0,1,10.386-17.028c1.942-2.472,3.475-5.266,5.078-7.737l-7.037-2.946a5.157,5.157,0,0,0-.942,1.369,104.942,104.942,0,0,1-10.667,20.6c-1.769,2.706-3.381,5.775-2.657,9.5l5.413,1c2.734,1.069,5.518,2.027,8.192,3.231,4.779,2.151,9.572,4.3,14.2,6.742,3,1.585,5.733,3.694,8.585,5.568l-.035-.033.779.548.034-.107-.111-.012.549.544,7.937,4.529c.487.3,1.265.508,1.4.92a9.019,9.019,0,0,1,.118,2.465c-.705-.02-1.566.22-2.09-.1-5.862-3.546-11.774-7.025-17.466-10.83a76.728,76.728,0,0,0-15.919-7.617,120.285,120.285,0,0,0-12.74-3.839,2.493,2.493,0,0,1-2.179-2.747c-.039-1.716-.009-3.433-.009-5.2-5.272-1.377-11.326,1.584-16.68-2.155.637,4.035-2.152,6.483-4.365,9.1a124.807,124.807,0,0,1-26.477,23.571,62.226,62.226,0,0,1-14.976,6.95c-7.495,2.434-15.159,4.491-23.106,5.074-1.375.1-2.621.084-3.521-1.146l-.329-.494,0,.031c.135-1.381.812-1.775,2.269-1.989,5.476-.807,10.915-1.88,16.353-2.93a15.984,15.984,0,0,0,2.833-1.121,25.185,25.185,0,0,0,10.421-3.508l-.009.013a4.641,4.641,0,0,0,1.3-.346c3.927-2.418,7.959-4.693,11.7-7.372,2.884-2.063,5.4-4.645,8.074-7l-.005,0,1.592-1.209-.026.014.619-.439,11.677-12.3a27.238,27.238,0,0,0,1.664-2.173C-218.458,211.15-219.211,207.663-220.366,206.833Zm2.554-2.637c2.032,1.184,4.059,2.378,6.1,3.543a2.792,2.792,0,0,0,1.253.452c4.693.032,9.386.02,13.8.02,4.944-7.76,9.808-15.316,12.445-24.072a12.212,12.212,0,0,0-2.442-.989c-5.057-.835-10.105-1.829-15.2-2.3-4.308-.4-8.75-.588-12.555,2.285a44.125,44.125,0,0,1-3.892,2.688c-4.86,2.907-9.78,5.714-14.61,8.668a13.245,13.245,0,0,0-2.375,2.482l.4.87a54.507,54.507,0,0,0,7.873-.087c2.336-.344,4.936-.658,6.254-3.309a2.131,2.131,0,0,1,1.947-.727c.49.158.9,1.133,1,1.8a25.656,25.656,0,0,1,.078,3.479Z" fill="#121212"/>
      <path id="Path_2720" data-name="Path 2720" d="M-268.306,218.77c-1.984.116-1.941-1.5-2.129-2.7a25.268,25.268,0,0,1-.042-3.813c-1.336-.209-2.54-.442-3.754-.578-4.466-.5-5.291-1.464-4.984-5.933.026-.378.129-.752.263-1.5-2.431.6-4.682,1.157-6.931,1.722-1.213.3-2.331.425-3.145-.857-.922-1.452-.632-2.143,1.043-2.444,3.548-.638,7.089-1.317,10.629-2,.162-.031.286-.255.668-.617l-3.836-2.233-.849-2.069q.934-1.086,1.866-2.172c.292.121.7.155.862.374,2.127,2.96,5.156,2.559,8.176,2.264,1.348-.131,2.7-.192,4.287-.3,0-2.867-.122-5.963.064-9.04a5.025,5.025,0,0,1,1.374-3.3c5.525-4.569,11.163-9,16.839-13.386a9.336,9.336,0,0,1,3.864-1.847c1.047-.188,2.25.493,3.384.787-.354.9-.451,2.118-1.106,2.645-3.224,2.6-5.222,6.047-7.123,9.594l-.11.619.407-.206c2.489-.923,4.932-2.008,7.478-2.728,3.265-.924,6.612-1.553,9.923-2.314,1.412-.324,2.7.173,2.993,1.467a3.6,3.6,0,0,1-1.112,2.8c-2.012,1.884-4.227,3.553-6.387,5.275-1.8,1.438-3.618,2.859-5.467,4.236-1.271.946-2.3,1.928-2.35,3.708-.015.524-.869,1.023-1.34,1.531a12.033,12.033,0,0,0-2.586.057c-.266.058-.364.895-.539,1.375.486,1.43.932,2.876,1.47,4.287a2.062,2.062,0,0,1-1.253,2.882c-.325.13-1.351-.883-1.707-1.556-.725-1.366-1.212-2.858-1.845-4.415l-2.065.858a1.45,1.45,0,0,0-.036.483q1.041,2.88,2.1,5.753a2.558,2.558,0,0,1-1.307,3.354c-1.27.618-1.745-.657-2.159-1.661-.232-.564-.563-1.088-.941-1.8a7.272,7.272,0,0,1-.3.964c-1.1,2.183-1.8,2.243-3.2.3-.664-.924-1.345-1.836-2.338-3.188.113,1.045.121,1.561.23,2.054.822,3.71,1.663,7.416,2.5,11.123a.625.625,0,0,0-.2.291c-2.222,1.913-2.763,1.736-3.754-1.155-.288-.84-.678-1.645-1.021-2.466l-.369-1.991-.659-3.567-.8-.078q-.462,2.054-.923,4.107l.015,3.552C-266.18,216.958-267.457,217.754-268.306,218.77Zm17.028-41.8c-3.118,2.613-6.247,5.214-9.349,7.848-.724.615-1.892,1.306-1.937,2.021-.208,3.3-.092,6.62-.092,9.934l.478.109,7.894-11.5a10.061,10.061,0,0,1,.362-2.629c.881-1.879,1.922-3.684,2.9-5.518l.235-.365Zm16.146,4.6-.2-.565a9.938,9.938,0,0,0-1.9.335c-3.307,1.263-6.67,2.421-9.861,3.936a17.6,17.6,0,0,0-5.559,3.817c-1.892,2.11-3.2,4.742-4.751,7.159-.25.39-.426.826-.7,1.369C-249.177,193.747-242.671,186.941-235.132,181.569Zm-40.206,26.415c1.753-.242,3.544-.051,4.814-.774a21.2,21.2,0,0,0,4.325-4c.387-.4.808-1.259.629-1.611a3.842,3.842,0,0,0-1.653-1.409c-2.04-1.078-3.808.6-5.09,1.375C-274.107,202.648-275.274,204.987-275.338,207.984Zm17.554-10.014c-.09-.142-.188-.345-.218-.336a3.1,3.1,0,0,0-.5.251c.079.118.181.346.232.335A1.931,1.931,0,0,0-257.784,197.97Z" fill="#0f0f09"/>
      <path id="Path_2721" data-name="Path 2721" d="M-262.688,167.136c-5.741,4.536-11.268,9.291-15.738,15.152q-6.291,8.249-12.636,16.455c-.357.463-.706,1.1-1.189,1.259a11.893,11.893,0,0,1-2.588.294c.007-.806-.3-1.817.073-2.383,1.76-2.68,3.7-5.24,5.584-7.84.971-1.341,1.95-2.676,2.925-4.014l-.4-.358a8.893,8.893,0,0,0-1.087.849c-9.313,9.889-17.617,20.532-23.588,32.8a92.873,92.873,0,0,0-4.712,12.5,7.2,7.2,0,0,0,.428,6.359c.867,1.4-.143,2.711-1.759,3.255-1.834-.683-3.4-4-3.186-6.7.039-.492.01-.989.013-1.484l-.077.009.319-.563q.888-3.468,1.778-6.936l-.1-.127.111.122.3-.515c4.271-10.952,10.477-20.74,17.76-29.918a112.911,112.911,0,0,1,15.379-16.41c2.608-2.2,5.383-4.248,8.946-4.8.619-.1,1.174-.736,1.713-1.18,6.6-5.438,13.058-11.063,19.83-16.278a79.976,79.976,0,0,1,19.523-10.557c3.783-1.5,7.6-2.933,11.463-4.216,5.884-1.955,11.814-3.773,17.739-5.6a9.433,9.433,0,0,1,3.844-.768,11.568,11.568,0,0,1,4.192,1.834,3.517,3.517,0,0,1-.506,2.2c-3.748.351-4.944,3.667-7.059,5.879-2.908,3.039-5.738,6.154-8.674,9.166a2.6,2.6,0,0,1-1.894.671c-1.56-.171-1.9-1.023-.833-2.185,2.335-2.556,4.824-4.97,7.154-7.529a29.554,29.554,0,0,0,4.064-5.681c-2.228.693-4.481,1.314-6.677,2.1a65.228,65.228,0,0,0-14.936,8.144,24.064,24.064,0,0,0-3.267,3.357c-.869.9-1.78,1.711-3.048.623-1.231-1.055-.745-2.022.151-3.005a10.84,10.84,0,0,0,2.071-3.087c-1.446.558-2.912,1.067-4.333,1.681a111.98,111.98,0,0,0-26.906,16.894C-262.65,166.682-262.637,166.947-262.688,167.136Zm-23.307,17.679-.251.516c.114.038.3.14.331.105a2.588,2.588,0,0,0,.286-.481Z" fill="#10110d"/>
      <path id="Path_2722" data-name="Path 2722" d="M-257.512,86.464a8.685,8.685,0,0,1-2.39.926c-3.154.224-1.906-2.372-2.381-4.1a5.524,5.524,0,0,0-.8.891q-6.6,12.447-13.171,24.911a72.25,72.25,0,0,0-6.821,17.161,2.685,2.685,0,0,1-2.048,1.544c-1.274-.006-1.319-1.087-1.072-2.218,1.333-6.1,3.943-11.7,6.685-17.255,1.6-3.242,3.093-6.537,4.634-9.808l.329-.762-.655.37q-4.863,6.138-9.717,12.283a24.961,24.961,0,0,1-1.661,2.418c-2.114,2.1-1.587,5.2-2.967,7.561-.562.964-1.075,1.959-1.564,2.962-.73,1.5-1.673,2.543-3.519,1.762a174.981,174.981,0,0,0-18.122,41.9c-.571,2.039.118,4.406-.031,6.6-.044.655-.958,1.251-1.474,1.874a16.616,16.616,0,0,1-1.568-1.619c-.207-.274-.142-.753-.2-1.139-1.174-5.341,1.127-10.06,2.695-14.9a162.434,162.434,0,0,1,12.265-28.6c2.572-4.658,5.589-9.069,8.4-13.6.952-1.535,2.336-2.891,1.922-4.986a1.733,1.733,0,0,1,.494-1.207c4.413-5.061,8.829-10.12,13.306-15.124a20.394,20.394,0,0,1,2.743-2.19l2.349.814c1.488-2.663,2.965-5.23,4.364-7.838.887-1.652,1.659-3.366,2.482-5.052.822-.94,1.611-1.911,2.475-2.81,1-1.038,2.288-1.616,3.509-.653,1.116.88,2.435,1.935,1.558,3.766-.071.149.006.37.027.846,2.322-2.019,4.58-3.8,6.616-5.811,1.613-1.591,3.358-1.183,5.059-.644.508.161,1.167,1.723.963,1.962-2.326,2.71-1.171,5.9-1.525,9.167,1.138-.676,2.1-1.174,2.982-1.79,1.34-.936,2.443-.254,3.214.671.2.237-.631,1.653-1.271,2.19a38.119,38.119,0,0,1-3.769,2.474c-2.039,1.333-4.945-.256-4.658-2.6a30.247,30.247,0,0,0,.041-3.565,12.137,12.137,0,0,0-.438-3.754Z" fill="#0f110a"/>
      <path id="Path_2723" data-name="Path 2723" d="M-238.624,109.081c-.765,1.522-1.433,2.794-2.051,4.09a103.253,103.253,0,0,1-13.566,21.059c-5.039,6.135-10.115,12.248-15.407,18.163-5.1,5.705-10.507,11.141-15.769,16.705q-2.31,2.44-4.566,4.934c-.977,1.077-2.074,1.533-3.237.425-1.085-1.034-.475-1.963.384-2.875,6.686-7.1,13.415-14.154,20-21.347,4.713-5.153,9.414-10.339,13.759-15.8,4.422-5.555,8.5-11.392,12.524-17.251a59.349,59.349,0,0,0,3.868-7.556,2.378,2.378,0,0,1,3.055-1.461C-239.239,108.284-238.953,108.771-238.624,109.081Z" fill="#141414"/>
      <path id="Path_2724" data-name="Path 2724" d="M-254.256,108.069c2.022-2.467,4.054-4.927,6.064-7.4a94.894,94.894,0,0,0,12.244-20,1.615,1.615,0,0,0,.027-.368c-.348-.115-.75-.218-1.129-.377-1.726-.721-1.872-2.309-.5-3.557a31.762,31.762,0,0,0,3.544-3.859c1.012-1.29,2-2.339,3.757-1.4,1.443.771,1.472,2.1.96,3.361-1.653,4.061-3.221,8.176-5.177,12.092-4.5,9.02-10.712,16.885-17.149,24.578-.753.9-1.165,2.08-1.9,3a4,4,0,0,1-1.948,1.411,2.433,2.433,0,0,1-2.117-.519c-.3-.406.082-1.458.389-2.118.653-1.4,1.453-2.734,2.193-4.1l-.047.029.421-.417-.02.02.417-.417Z" fill="#141414"/>
      <path id="Path_2725" data-name="Path 2725" d="M-200.535,155.283c-1.844.247-3.4,1.064-4.868-.7-.832-1-.716-1.614-.152-2.359.831-1.1,1.8-2.089,2.719-3.12.824-.925,1.9-1.585,2.869-.548.579.617.572,1.784.966,3.2,2.042,1.083,2.688,2.844,1.636,5.788-.8,2.236-1.521,4.5-2.406,6.7-.264.656-1.242,1.7-1.412,1.611-1.07-.542-2.41-1.186-1.949-2.749C-202.376,160.547-201.457,158.032-200.535,155.283Z" fill="#151515"/>
      <path id="Path_2726" data-name="Path 2726" d="M-265.006,80.05c-.823,1.686-1.6,3.4-2.482,5.052-1.4,2.608-2.876,5.175-4.364,7.838l-2.349-.814c1.538-1.611,3.088-3.213,4.606-4.844a1.637,1.637,0,0,0,.535-1.027C-269.425,83.044-266.493,82.023-265.006,80.05Z" fill="#aed046"/>
      <path id="Path_2727" data-name="Path 2727" d="M-318.531,225.783q-.889,3.468-1.778,6.937-.159.282-.319.562l.077-.009-2.258,1.353a2.968,2.968,0,0,1,.347-3.764C-321.057,229.251-319.833,227.483-318.531,225.783Z" fill="#aed146"/>
      <path id="Path_2728" data-name="Path 2728" d="M-134.232,198.661l-3.577-1.175a8.01,8.01,0,0,1,1.379-.665c.555-.152,1.5-.4,1.66-.166A5.726,5.726,0,0,1-134.232,198.661Z" fill="#bbe8fc"/>
      <path id="Path_2729" data-name="Path 2729" d="M-109.789,186.712l-1.3,2.147Z" fill="#bbe8fd"/>
      <path id="Path_2730" data-name="Path 2730" d="M-318.223,225.263l-.3.515Z" fill="#aed146"/>
      <path id="Path_2731" data-name="Path 2731" d="M-149.35,238.757l-7.937-4.529c-.184-.181-.367-.363-.549-.544l.111.012-.034.107-.779-.548.035.033a22.446,22.446,0,0,0-8.56-8.683.937.937,0,0,0-.382-.09c-4.774-.534-8.9-2.667-12.865-5.205-2.74-1.755-3.139-4.9-4.415-7.523q.9-1.812,1.808-3.623l.569-.846-.038.055.34-.558-.075.047c.732-.495,1.457-1,2.2-1.483s1.466-1.291,2.237-1.34a2.732,2.732,0,0,0,2.614-2.813,2.8,2.8,0,0,1,1.354-2.589c1.77-1.416,1.673-2.862.391-4.477l.6-1.086.336-.471-.051.044,4.443-4.7c6.314,1.4,12.053,4.105,17.692,7.23,4.563,2.528,9.451,4.477,14.24,6.58a18.338,18.338,0,0,0,3.706.73c-2.029,1.49-3.794,2.845-5.618,4.114a18.122,18.122,0,0,0-8.058,14.617c-.249,4.653-.334,9.314-.492,13.972Z" fill="#bbe9fd"/>
      <path id="Path_2732" data-name="Path 2732" d="M-142.529,221.388a12.875,12.875,0,0,1,3.631-9.332,58.356,58.356,0,0,1,17.332-11.549,22.2,22.2,0,0,1-2.115,2.342c-2.605,2.194-5.239,4.359-7.941,6.43-.836.641-2.107.75-2.871,1.443a28.625,28.625,0,0,0-6.661,8.533,12.407,12.407,0,0,0-.641,2.44Z" fill="#f6f7f5"/>
      <path id="Path_2733" data-name="Path 2733" d="M-287.693,252.707l.329.494C-287.474,253.037-287.583,252.872-287.693,252.707Z" fill="#aed146"/>
      <path id="Path_2734" data-name="Path 2734" d="M-82.93,298.338a16.069,16.069,0,0,1-1.575,3.335c-.88,1.128-1.8.741-2-.638-.326-2.2-.4-4.444-.773-6.637-.99-5.873-1.786-11.8-3.19-17.576-2.722-11.2-5.718-22.328-8.778-33.437-1.515-5.5-3.278-11.012-7.1-15.413a59.489,59.489,0,0,0-14.394-12.557,3.235,3.235,0,0,0-4.246.254,2.117,2.117,0,0,1-3.306-.1c-.778-.967-.691-1.926.53-2.816,3.2-2.329,6.264-2.51,9.627-.267,7.447,4.967,14.276,10.67,18.248,18.789,2.458,5.024,3.852,10.613,5.351,16.051,2.708,9.824,5.179,19.714,7.653,29.6.685,2.736,1.027,5.558,1.531,8.339.611,3.37,1.245,6.735,1.828,10.108.157.908.166,1.842.242,2.763Z" fill="#0f1314"/>
      <path id="Path_2735" data-name="Path 2735" d="M-121.615,200.57l.527-.328Z" fill="#f6f7f5"/>
      <path id="Path_2736" data-name="Path 2736" d="M-135.258,123.341c1.286.509,2.935.345,2.155,2.122a20.113,20.113,0,0,1-10.67,10.892,15.4,15.4,0,0,1-4.711,1.177,3.477,3.477,0,0,1-2.27-1.3c-.164-.177.516-1.382,1.036-1.874a3.66,3.66,0,0,1,1.943-.871c5.413-.695,8.477-4.244,10.886-8.7C-136.544,124.155-135.747,123.762-135.258,123.341Z" fill="#151515"/>
      <path id="Path_2737" data-name="Path 2737" d="M-323.769,134.125q1.578-8.1,3.158-16.2c1.266-6.425,2.73-12.792,5.49-18.781a2.823,2.823,0,0,0,.122-.773l1.922-3.946c-2.964-1.833-.6-4.852-1.969-7.069l-.389,8.123c-.024,1.349-.147,2.627-1.608,3.3-1.445.667-2.414.215-2.3-1.359.356-4.924.846-9.839,1.31-14.754.172-1.819.366-3.638.647-5.442a6.925,6.925,0,0,1,.821-2.936c3.62-4.988,5.081-10.705,6.046-16.651.483-2.978,1.213-5.919,1.92-8.856.947-3.932,3.353-7.026,5.887-10.051q5.943-7.091,11.794-14.26c.957-1.177,1.9-1.559,3.2-.654-.125.838.036,1.9-.419,2.478q-4.961,6.288-10.141,12.4c-3.284,3.894-6.769,7.646-7.519,13-.084.6-.182,1.193-.273,1.789l.464.142c.874-1.491,1.709-3.008,2.646-4.459a2.2,2.2,0,0,1,1.315-1.044,2.412,2.412,0,0,1,1.852.658,2.086,2.086,0,0,1,.039,1.893c-2.785,4.769-5.716,9.454-8.49,14.229a21.228,21.228,0,0,0-2.736,11.58c.13,4.2.029,8.4.029,12.953,1.363-2.1,2.487-3.989,3.769-5.765,1.8-2.493,3.852-4.785,6.972-5.58a4.325,4.325,0,0,1,2.879.358c.578.312.747,1.382,1.1,2.114a8.656,8.656,0,0,1-1.869.765c-3.307.53-5.175,3-6.6,5.513-2.676,4.738-5.072,9.657-7.272,14.638-3.528,7.985-4.878,16.581-6.338,25.1a223.04,223.04,0,0,0-3.038,22.237c-.6,8.7-.437,17.449-.456,26.177,0,.837.912,1.834,1.646,2.478,1.12.982,1.645,2.014.686,3.231-1.037,1.316-2.072.738-3.192-.187a7.614,7.614,0,0,1-3.118-6.239c-.115-12.833-.072-25.647,1.932-38.37A15.414,15.414,0,0,0-323.769,134.125Z" fill="#0e100a"/>
      <path id="Path_2738" data-name="Path 2738" d="M-297.821,92.269c2.744-2.945,5.468-5.909,8.255-8.812a4.743,4.743,0,0,1,1.607-.706l.459.785-9.885,9.206Z" fill="#f6f7f5"/>
      <path id="Path_2739" data-name="Path 2739" d="M-278.678,73.31l-.062-.119.137.008Z" fill="#f8f8f8"/>
      <path id="Path_2740" data-name="Path 2740" d="M-254.627,108.42l-.421.417Z" fill="#fdfdfd"/>
      <path id="Path_2741" data-name="Path 2741" d="M-254.23,108.023l-.417.417Z" fill="#fdfdfd"/>
      <path id="Path_2742" data-name="Path 2742" d="M-258.819,216.63c-.836-3.707-1.677-7.413-2.5-11.123-.109-.493-.117-1.009-.23-2.054.993,1.352,1.674,2.264,2.338,3.188,1.4,1.942,2.1,1.882,3.2-.3a7.272,7.272,0,0,0,.3-.964c.378.716.709,1.24.941,1.8.414,1,.889,2.279,2.159,1.661a2.558,2.558,0,0,0,1.307-3.354q-1.062-2.874-2.1-5.753a1.45,1.45,0,0,1,.036-.483l2.065-.858c.633,1.557,1.12,3.049,1.845,4.415.356.673,1.382,1.686,1.707,1.556a2.062,2.062,0,0,0,1.253-2.882c-.538-1.411-.984-2.857-1.47-4.287h3.03l.435,1.672,4.14-1.939c0,.623.152,1.122-.025,1.432a44.276,44.276,0,0,1-3.2,5.231c-3.918,5.069-9.647,8.135-14.163,12.557A3.5,3.5,0,0,1-258.819,216.63Z" fill="#77aa14"/>
      <path id="Path_2743" data-name="Path 2743" d="M-234.754,228.488c-2.677,2.352-5.19,4.934-8.074,7-3.743,2.679-7.775,4.954-11.7,7.372a4.641,4.641,0,0,1-1.3.346,21.833,21.833,0,0,1,2.934-2.98c5.594-3.876,11.259-7.649,16.918-11.431A3.8,3.8,0,0,1-234.754,228.488Z" fill="#f6f7f5"/>
      <path id="Path_2744" data-name="Path 2744" d="M-220.366,206.833c1.155.83,1.908,4.317,1.133,5.552a27.238,27.238,0,0,1-1.664,2.173c-1.371-1.54-2.665-.048-4.411.245A17.332,17.332,0,0,1-220.366,206.833Z" fill="#f8f8f8"/>
      <path id="Path_2745" data-name="Path 2745" d="M-263.793,213.3c.343.821.733,1.626,1.021,2.466.991,2.891,1.532,3.068,3.754,1.155a33.013,33.013,0,0,1-2.65,2.59c-.113.091-.912-.662-1.572-1.158a4.648,4.648,0,0,1-5.067.418c.85-1.017,2.127-1.813,1.773-3.448Z" fill="#77aa14"/>
      <path id="Path_2746" data-name="Path 2746" d="M-290.026,236.431c-3.011,2.687-4.963,6.479-9.039,8.6,3.047-3.2,5.829-6.119,8.61-9.04Z" fill="#f6f7f5"/>
      <path id="Path_2747" data-name="Path 2747" d="M-255.821,243.19a25.185,25.185,0,0,1-10.421,3.508,51.608,51.608,0,0,1,6.211-3.392C-258.8,242.823-257.235,243.2-255.821,243.19Z" fill="#f6f7f5"/>
      <path id="Path_2748" data-name="Path 2748" d="M-281.373,195.75l.849,2.069-3.508,1.267-.078-.076Z" fill="#f6f7f5"/>
      <path id="Path_2749" data-name="Path 2749" d="M-233.167,227.283l-1.592,1.209Z" fill="#f6f7f5"/>
      <path id="Path_2750" data-name="Path 2750" d="M-232.574,226.858l-.619.439Z" fill="#f6f7f5"/>
      <path id="Path_2751" data-name="Path 2751" d="M-243.359,196.853h-.5l.27-.254A1.8,1.8,0,0,1-243.359,196.853Z" fill="#fdfdfd"/>
      <path id="Path_2752" data-name="Path 2752" d="M-284.032,199.086l-.218.251c.047-.109.094-.218.14-.327Z" fill="#f6f7f5"/>
      <path id="Path_2753" data-name="Path 2753" d="M-315.435,95.477l.389-8.123c1.374,2.217-.995,5.236,1.969,7.069L-315,98.369Q-315.217,96.921-315.435,95.477Z" fill="#aed146"/>
      <path id="Path_2754" data-name="Path 2754" d="M-324.178,260.187l-.44.5Z" fill="#f6f7f5"/>
      <path id="Path_2755" data-name="Path 2755" d="M-217.729,199a25.656,25.656,0,0,0-.078-3.479c-.1-.667-.512-1.642-1-1.8a2.131,2.131,0,0,0-1.947.727c-1.318,2.651-3.918,2.965-6.254,3.309a54.507,54.507,0,0,1-7.873.087l-.4-.87a13.245,13.245,0,0,1,2.375-2.482c4.83-2.954,9.75-5.761,14.61-8.668a44.125,44.125,0,0,0,3.892-2.688c3.8-2.873,8.247-2.681,12.555-2.285,5.1.469,10.143,1.463,15.2,2.3a12.212,12.212,0,0,1,2.442.989c-2.637,8.756-7.5,16.312-12.445,24.072-4.418,0-9.111.012-13.8-.02a2.792,2.792,0,0,1-1.253-.452c-2.043-1.165-4.07-2.359-6.1-3.543C-216.238,202.145-216.222,201.122-217.729,199Z" fill="#fcfcfc"/>
      <path id="Path_2756" data-name="Path 2756" d="M-189.484,217.747l-5.413-1c-.724-3.722.888-6.791,2.657-9.5a104.942,104.942,0,0,0,10.667-20.6,5.157,5.157,0,0,1,.942-1.369l7.037,2.946c-1.6,2.471-3.136,5.265-5.078,7.737a94.175,94.175,0,0,0-10.386,17.028c-.458.937-1.016,1.825-1.592,2.852l1.211,1.387Z" fill="#fbfcfc"/>
      <path id="Path_2757" data-name="Path 2757" d="M-189.484,217.747l.045-.522c1.512.4,2.22-.406,2.771-1.682s1.288-2.508,1.943-3.757c1.276,2.624,1.675,5.769,4.415,7.524,3.962,2.538,8.091,4.671,12.865,5.205a.937.937,0,0,1,.382.09,22.446,22.446,0,0,1,8.56,8.683c-2.852-1.874-5.581-3.983-8.585-5.568-4.632-2.444-9.425-4.591-14.2-6.742C-183.966,219.774-186.75,218.816-189.484,217.747Z" fill="#f6f7f5"/>
      <path id="Path_2758" data-name="Path 2758" d="M-173.328,194.16c1.282,1.615,1.379,3.061-.391,4.477a2.8,2.8,0,0,0-1.354,2.589,2.732,2.732,0,0,1-2.614,2.813c-.771.049-1.5.859-2.237,1.34s-1.465.988-2.2,1.483c2.119-3.133,4.227-6.274,6.365-9.4C-174.984,196.339-174.14,195.261-173.328,194.16Z" fill="#f8f8f8"/>
      <path id="Path_2759" data-name="Path 2759" d="M-217.729,199c1.507,2.121,1.491,3.144-.083,5.195Q-217.772,201.6-217.729,199Z" fill="#aed146"/>
      <path id="Path_2760" data-name="Path 2760" d="M-168,187.952l-4.443,4.7a23.379,23.379,0,0,1,1.983-4.128C-170.092,188.005-168.85,188.122-168,187.952Z" fill="#f6f7f5"/>
      <path id="Path_2761" data-name="Path 2761" d="M-182.348,207.318l-.569.846Z" fill="#f8f8f8"/>
      <path id="Path_2762" data-name="Path 2762" d="M-158.538,233.255l.779.548Z" fill="#f6f7f5"/>
      <path id="Path_2763" data-name="Path 2763" d="M-182.046,206.815l-.34.558Z" fill="#f8f8f8"/>
      <path id="Path_2764" data-name="Path 2764" d="M-172.4,192.6l-.336.471Z" fill="#f6f7f5"/>
      <path id="Path_2765" data-name="Path 2765" d="M-157.836,233.684c.182.181.365.363.549.544Z" fill="#f6f7f5"/>
      <path id="Path_2766" data-name="Path 2766" d="M-235.132,181.569c-7.539,5.372-14.045,12.178-22.972,16.051.276-.543.452-.979.7-1.369,1.548-2.417,2.859-5.049,4.751-7.159a17.6,17.6,0,0,1,5.559-3.817c3.191-1.515,6.554-2.673,9.861-3.936a9.938,9.938,0,0,1,1.9-.335Z" fill="#fbd762"/>
      <path id="Path_2767" data-name="Path 2767" d="M-251.022,177.236c-.978,1.834-2.019,3.639-2.9,5.518a10.061,10.061,0,0,0-.362,2.629l-7.894,11.5-.478-.109c0-3.314-.116-6.634.092-9.934.045-.715,1.213-1.406,1.937-2.021,3.1-2.634,6.231-5.235,9.349-7.848C-251.2,177.06-251.111,177.149-251.022,177.236Z" fill="#f8d460"/>
      <path id="Path_2768" data-name="Path 2768" d="M-275.338,207.984c.064-3,1.231-5.336,3.025-6.418,1.282-.773,3.05-2.453,5.09-1.375a3.842,3.842,0,0,1,1.653,1.409c.179.352-.242,1.209-.629,1.611a21.2,21.2,0,0,1-4.325,4C-271.794,207.933-273.585,207.742-275.338,207.984Z" fill="#f8d460"/>
      <path id="Path_2769" data-name="Path 2769" d="M-263.793,213.3l-2.741,2.023-.015-3.552,2.387-.462Z" fill="#aed046"/>
      <path id="Path_2770" data-name="Path 2770" d="M-264.162,211.309l-2.387.462q.461-2.054.923-4.107l.8.078Z" fill="#77aa14"/>
      <path id="Path_2771" data-name="Path 2771" d="M-257.784,197.97a1.931,1.931,0,0,1-.488.25c-.051.011-.153-.217-.232-.335a3.1,3.1,0,0,1,.5-.251C-257.972,197.625-257.874,197.828-257.784,197.97Z" fill="#fbd762"/>
      <path id="Path_2772" data-name="Path 2772" d="M-248.589,181.784l-.407.206.11-.619Z" fill="#fdfdfd"/>
      <path id="Path_2773" data-name="Path 2773" d="M-251.278,176.966l.491-.1-.235.365C-251.111,177.149-251.2,177.06-251.278,176.966Z" fill="#f8d460"/>
      <path id="Path_2774" data-name="Path 2774" d="M-285.995,184.815l.366.14a2.588,2.588,0,0,1-.286.481c-.032.035-.217-.067-.331-.105Z" fill="#aed146"/>
      <path id="Path_2775" data-name="Path 2775" d="M-320.628,233.282q.16-.28.319-.562Z" fill="#fdfdfd"/>
      <path id="Path_2776" data-name="Path 2776" d="M-275.2,98.127l.655-.37-.329.762Z" fill="#aed046"/>
    </g>
  </g>
</svg>
