<svg xmlns="http://www.w3.org/2000/svg" xmlns:xlink="http://www.w3.org/1999/xlink" width="320" height="320" viewBox="0 0 320 320">
  <defs>
    <clipPath id="clip-_0601">
      <rect width="320" height="320"/>
    </clipPath>
  </defs>
  <g id="_0601" data-name="0601" clip-path="url(#clip-_0601)">
    <rect width="320" height="320" fill="#fff"/>
    <g id="Group_18" data-name="Group 18" transform="translate(-349.563 -23.422)">
      <path id="Path_5847" data-name="Path 5847" d="M359.581,171.682q0-41.022,0-82.045.007-16.806.078-33.611c.02-6.306.012-12.614.129-18.919.052-2.79,1.182-3.689,3.95-3.685q28.791.043,57.583.066,35.841.024,71.682.032c9.807.007,19.614.072,29.422.068q60.2-.027,120.4-.082c3.241,0,6.486-.131,9.722,0a21.451,21.451,0,0,1,4.758.921c1.643.452,1.909,1.886,1.921,3.334.037,4.567.019,9.135.053,13.7.067,8.84.2,17.679.222,26.519.024,8.415-.083,16.829-.075,25.244.008,9.168.114,18.336.121,27.5q.036,45.641.03,91.281,0,34.842-.058,69.685c-.024,10.372-.148,20.743-.293,31.114-.041,2.926-.293,5.851-.5,8.774a2.09,2.09,0,0,1-2.387,2.1c-4.418-.044-8.837-.12-13.255-.144-29.723-.161-59.446-.381-89.168-.448-33.709-.076-67.417-.011-101.126-.008-12.513,0-25.026-.044-37.538.014-10.248.049-20.5.29-30.742.313-7.332.017-14.664-.174-22-.292-2.3-.037-2.654-.538-2.651-2.875.008-7.729-.049-15.458-.073-23.188q-.095-31.945-.177-63.893-.045-35.739-.007-71.478ZM619.47,329.346l.85.134,1.532-.109,1.251.113.737-.114,2.442.153,2.444-.355,4.13.249,8.873.025,5.979.143.811-.024,1.177.025h5.96c0-1.528.01-2.978,0-4.428-.083-10.155-.23-20.309-.242-30.464-.015-11.55.1-23.1.137-34.649.023-7.842-.006-15.684,0-23.526.018-19.93.09-39.86.05-59.789-.026-13.181-.26-26.361-.3-39.541-.021-6.767.3-13.535.253-20.3-.091-12.165-.441-24.328-.5-36.493-.046-9.164.258-18.33.273-27.5.008-4.868-.269-9.736-.419-14.668-97.24-1.508-194.265-.6-291.339-.653-.034.637-.06.89-.059,1.144q.015,16.564.032,33.129-.006,34.4-.029,68.793c.006,17.424.073,34.848.083,52.272q.015,25.671-.05,51.34c-.019,5.028-.263,10.056-.455,15.082-.082,2.165-.482,4.335-.384,6.486.079,1.734,1.011,3.444,1.012,5.165.007,10.291-.162,20.582-.238,30.873-.037,5.065,0,10.13,0,15.2,0,4,0,8,0,12.064.586.041.907.084,1.227.084q43.8.012,87.6.017,19.277,0,38.552,0,21-.018,42-.07h3.519c4.035.016,8.069.039,12.1.046q27.52.053,55.04.1Q611.5,329.312,619.47,329.346Z" fill="#090909"/>
      <path id="Path_5848" data-name="Path 5848" d="M648.519,329.561l-.811.024-5.979-.143-8.873-.025c-.094-3.083-.213-6.167-.243-9.251,0-.34.432-.813.783-1a3.086,3.086,0,0,0,1.549-3.143c-.03-1.388,0-2.776,0-4.165,0-4.8,0-9.6,0-14.516,1.485,0,2.795.012,4.1,0,2.253-.024,3.387-.785,3.885-3.063a34.784,34.784,0,0,0,1.127-7.5c-.071-11.789.749-23.6-.784-35.36.054-2.419.554-4.933.06-7.234a107.363,107.363,0,0,0-3.519-11.511c-1.131-3.375-2.393-6.707-3.634-10.044-.481-1.294-1.277-1.63-2.389-.589a10.45,10.45,0,0,1-.95.712c-1.712-1.083-3.3-2.7-5.16-3.144a51.706,51.706,0,0,1-12.721-5.274c-4.666-2.552-9.458-4.873-14.211-7.264a16.813,16.813,0,0,1-2.477-1,32.608,32.608,0,0,1-2.994-2.817c8.505-7.131,16.816-14.679,19.872-26.286a3.015,3.015,0,0,0,4.171-1c1.982-2.536,4.157-4.948,5.9-7.641a11.38,11.38,0,0,0,.942-10.269c-1.132-3.287-3.691-4.737-7.121-4.078q-.775.15-1.551.3.4-1.609.809-3.219a8.86,8.86,0,0,0,1.853-1.834c1.756-3.279,1.928-6.855,1.686-10.479l-.044-.8c-.519-4.092-.633-8.287-1.65-12.251a40.3,40.3,0,0,0-8.588-16.812l-.414-.36-2.379-2.4-.435-.373c-4.13-3.777-9.263-4.861-14.575-5.081a85.165,85.165,0,0,0-32.961,5.085,60.236,60.236,0,0,0-5.808,2.826l-.387.073-2.7,1.849,0,0-1.2.8c-3.591,3.17-7.43,6.1-10.705,9.572a23.063,23.063,0,0,0-6.441,13.323,43.148,43.148,0,0,0,1.029,16.422c.957,3.394,1.328,7.177,4.506,9.57l-.044.858-.251.766a6.378,6.378,0,0,1-2.247.128,4.214,4.214,0,0,0-4.67,1.219,17.133,17.133,0,0,0-3.737,5.495,100.287,100.287,0,0,0-2.784,11.687c-.458,2.236-.212,4.7-1.023,6.764a94.067,94.067,0,0,0-5.765,26.732c-.473,5.682-.328,11.424-.308,17.139.033,9-.769,18.051,1.174,26.956a43.95,43.95,0,0,0,2.771,9.542c1.819,3.819,5.523,5.843,9.317,7.465a2.027,2.027,0,0,1,1.451,2.2c-.059,8.032-.015,16.065-.029,24.1q-.024,13.962-.085,27.924-21,.036-42,.07-19.277.018-38.552,0-43.8-.006-87.6-.017c-.32,0-.641-.043-1.227-.084,0-4.062,0-8.063,0-12.064,0-5.065-.039-10.13,0-15.2.076-10.291.245-20.582.238-30.873,0-1.721-.933-3.431-1.012-5.165-.1-2.151.3-4.321.384-6.486.192-5.026.436-10.054.455-15.082q.1-25.669.05-51.34c-.01-17.424-.077-34.848-.083-52.272q-.012-34.4.029-68.793,0-16.564-.032-33.129c0-.254.025-.507.059-1.144,97.074.051,194.1-.855,291.339.653.15,4.932.427,9.8.419,14.668-.015,9.166-.319,18.332-.273,27.5.061,12.165.411,24.328.5,36.493.05,6.766-.274,13.534-.253,20.3.039,13.18.273,26.36.3,39.541.04,19.929-.032,39.859-.05,59.789-.007,7.842.022,15.684,0,23.526-.034,11.55-.152,23.1-.137,34.649.012,10.155.159,20.309.242,30.464.012,1.45,0,2.9,0,4.428H649.7ZM383.324,178.831l.117.138c-.891,1.136-2.446,2.215-2.548,3.418a69.4,69.4,0,0,0,.081,10.6c.23,3.329,1.056,6.622,1.193,9.949.392,9.524.607,19.056.821,28.587.3,13.649.6,27.3.789,40.949.072,5.236-.231,10.475-.234,15.713,0,2.784.839,3.585,3.452,3.672,3.914.131,7.831.2,11.746.293V300.1c1.924.256,3.5.425,5.054.678,8.867,1.437,17.717,2.931,26.744,3.053,3.422.046,6.832.754,10.258.893,6.6.267,13.217.532,19.822.442,5.41-.074,10.808-.841,16.22-.981,7.013-.182,14.034-.044,21.051-.046,3.062,0,4.363-1.329,4.362-4.455q-.011-60.873-.025-121.746v-2.547c-4.12.362-7.916.695-11.71,1.03a7.046,7.046,0,0,1-.173-.966c-.175-4.2-.6-4.59-4.763-4.584-7.162.01-14.325-.1-21.485.012-8.058.13-16.123.273-24.165.75-7.824.463-15.61,1.593-23.434,2-9.752.506-19.527.535-29.29.859a28.04,28.04,0,0,0-5.428.885,1.885,1.885,0,0,0-1.148,1.332,2.213,2.213,0,0,0,.819,1.654A5,5,0,0,0,383.324,178.831ZM437.975,57.667l-.019.346c-3.774,0-7.557.162-11.321-.043-4.43-.241-8.321,1.179-12.065,3.266-7.4,4.125-13.205,10.116-18.843,16.277a40.4,40.4,0,0,0-10.335,23.571c-.66,6.229-.622,12.538-.781,18.814-.2,7.795,2.733,14.578,6.988,20.911,4.69,6.981,11.416,11.612,18.153,16.367,4.623,3.263,9.535,4.058,14.923,4.185,9.629.226,19.181-.187,28.568-2.473,5.425-1.321,11.223-1.831,15.738-5.535,3.205-2.63,6.085-5.666,9.028-8.6,5.714-5.7,9.591-12.241,10.428-20.558.666-6.614,2.537-13.112,3.121-19.729a88.137,88.137,0,0,0-.208-17.6,23.86,23.86,0,0,0-7.643-15.562c-7.331-6.417-15.83-11-25.566-12.37C451.492,58,444.7,58.055,437.975,57.667Zm67.448,107.326c.369,2.649.43,2.668,2.694,2.037a23.865,23.865,0,0,1,3.094-.57c1.06-.148,1.572.2,1.872,1.411a15.82,15.82,0,0,1-.756,9.445c-.562,1.544.132,2.186,1.528,2.528,2.194.538,2.263-1.4,2.5-2.481a18.253,18.253,0,0,1,6.956-10.738c.87-.677,1.916-1.14,2.743-1.86.974-.846,1.132-1.879-.283-2.43a11,11,0,0,0-3.515-.826c-1.38-.049-2.388-.467-2.589-1.833a36.7,36.7,0,0,1-.574-6.573c.043-1.254-.224-1.69-1.353-1.775-.454-.035-.913-.045-1.362-.113-1.591-.243-2.336.379-2.321,2.034a3.637,3.637,0,0,1-.473,2.188c-2.083,2.511-4.312,4.9-6.464,7.355C506.511,163.487,505.987,164.258,505.423,164.993Z" fill="#fdfdfd"/>
      <path id="Path_5849" data-name="Path 5849" d="M532.864,329.153q.043-13.962.085-27.924c.014-8.033-.03-16.066.029-24.1a2.027,2.027,0,0,0-1.451-2.2c-3.794-1.622-7.5-3.646-9.317-7.465a43.95,43.95,0,0,1-2.771-9.542c-1.943-8.9-1.141-17.956-1.174-26.956-.02-5.715-.165-11.457.308-17.139a94.067,94.067,0,0,1,5.765-26.732c.811-2.069.565-4.528,1.023-6.764a100.287,100.287,0,0,1,2.784-11.687,17.133,17.133,0,0,1,3.737-5.495,4.214,4.214,0,0,1,4.67-1.219,6.378,6.378,0,0,0,2.247-.128l-.631,1.509-.368-.668a11.511,11.511,0,0,1-3.3.569c-1.806-.217-2.3.709-2.546,2.144-.021.124-.087.315-.173.342-2.608.817-2.53,3.367-3.361,5.3a12.358,12.358,0,0,0-.514,2.727l.053.026-.6,3.108c-.777.39-1.146,3.249-.46,4.841-.494.871-1.144,1.5-1.171,2.152-.116,2.837-.225,5.632-2.368,7.762l1.348,2.081c-3.247,1.051-2.6,3.967-3.136,6.127s.083,2.406,2.378,1.71c-.631,4.665-1.734,9.323-1.8,14-.164,11.623.124,23.252.291,34.878.019,1.287.963,2.787.547,3.809-1.009,2.477-.028,4.711.341,6.967a11.157,11.157,0,0,0,3.48,6.917c3.887,3.392,8.68,5.029,13.331,6.878,1.035.412,2.808,1.061,3.871-.571a12.353,12.353,0,0,1,2.29-2.612,5,5,0,0,1,2.7-.239c.162.007.536.879.4,1.078a29.376,29.376,0,0,1-3.8,5.126c-.786.747-2.388.636-3.621.912l-5.632-1.143a17.653,17.653,0,0,0-.193,1.924c.062,10.984.073,21.968.246,32.95.073,4.64-1.221,4.654,4.776,4.372,1.516.1,3.035.158,4.547.3,4.261.4,8.519,1.2,12.779,1.2,11.035,0,22.072-.256,33.1-.564,11.8-.329,23.6-.834,35.406-1.262a3.151,3.151,0,0,0,1.094-.178c1.017-.6,1.989-1.27,2.977-1.914l.314.4v-2.719q-.014-2.376-.027-4.753-.088-4.866-.178-9.732a2.637,2.637,0,0,0-.731-.22c-6.888,0-13.776.019-20.664.019-1.708,0-2.32.96-2.321,2.51,0,2.513,0,5.025,0,7.538.005,2.958-.483,3.4-3.4,3.485-7.976.241-15.951.539-23.926.815l-5.223.1-.143-.089a28.99,28.99,0,0,1-1.375-3.131c-.377-1.206-.543-2.479-.8-3.722-.449-3.21,1.079-6.707-1.407-9.635-.175-.206-.125-.632-.125-.956,0-4.1.018-8.2.021-12.3a22.876,22.876,0,0,0-.065-2.858c-.2-1.623-.694-3.225-.754-4.847-.2-5.535-.227-11.076-.4-16.612-.086-2.7,1.022-4,3.837-4q15.462-.011,30.922.071a4.068,4.068,0,0,1,1.739.613c2.02,1.071,1.165,3.022,1.2,4.58.117,5.01-.014,10.026.07,15.037.011.645.69,1.8,1.117,1.832,2.613.172,5.243.086,8.186.086-.338-2.931-.648-5.53-.937-8.131-.5-4.509-1.015-9.017-1.477-13.53-.379-3.7-1.281-7.442,1.027-10.93.689-1.041,1.432-1.635,2.583-1.081,1.2.574,1,1.621.417,2.529-1.342,2.1-1.253,4.376-1.007,6.7.9,8.511,1.748,17.029,2.74,25.53.228,1.951-.516,2.949-2.371,3.716-.534-1.98-2.108-1.647-3.542-1.644-3.44.006-6.88.028-10.321.033-4.335.006-8.671,0-13.505,0,.415,5.289.8,10.223,1.182,15.052.705.076.832.1.959.1,10.083-.03,20.166-.042,30.249-.106,3.2-.02,6.4-.179,9.607-.275l4.094.137c1.032-.2,2.818-.154,2.965-.625a24.136,24.136,0,0,0,1.138-6.523c.122-5.123.036-10.254-.07-15.379-.119-5.731.345-11.591-.709-17.156-1.431-7.561-3.937-14.933-6.234-22.309-1.054-3.386-2.7-6.649-6.173-8.286-1.5-.708-3.34-.709-4.828-1.436-5.031-2.462-9.959-5.135-14.956-7.67-3.35-1.7-6.543-3.823-10.435-4.3-2.529,5.735-4.9,11.419-7.545,16.973-1.268,2.664-2.243,3.018-4.711,1.189a10.177,10.177,0,0,1-1.455-1.607q-2.9-3.342-5.795-6.691l-2.624-3.279c-.139,1.515-.2,2.41-.308,3.3-.124.976-.3,1.945-.451,2.918-.434,1.233-.789,2.5-1.32,3.691-1.126,2.527-3.593,2.668-5.427,1.048-1.971-1.741-4.134-3.261-6.184-4.914a11.25,11.25,0,0,1-2.287-2.141c-1.342-1.938-1.031-3.949.021-5.963a6.078,6.078,0,0,0,.293-1.944c-.428-.045-.938-.265-1.271-.108-4.326,2.038-8.874,3.749-12.852,6.333a9.518,9.518,0,0,0-4.29,9.1q1.053,11.316,2.122,22.63c.086.916.492,1.931.219,2.715s-1.215,1.323-1.864,1.969c-.384-.507-1.046-.981-1.111-1.527-.847-7.111-1.7-14.223-2.365-21.353-.58-6.239-.919-12.5-1.364-18.751q-.683-6.367-1.363-12.735a5.705,5.705,0,0,0,2.264-.471c.332-.239.212-1.271.1-1.914-.126-.767-.693-1.516-.643-2.244a25.468,25.468,0,0,1,.78-3.721c.958,8.62,1.915,17.24,2.856,25.718,6.561-6.214,15.574-7.906,23.353-12.341.134-1.214.162-1.323-.991-1.614-5.074-1.278-8.716-4.614-12.137-8.29l.519-3.886c.15.11.308.211.448.333,3.727,3.254,6.849,7.5,12.14,8.324,2.448.383,3.42,1.532,3.679,3.814.047.409.91.791,1.456,1.065,3.466,1.734,7.218,1.517,10.881,1.262,3.2-.223,6.359-.983,10.094-1.6a13.3,13.3,0,0,1-1.839-1.291c-.8-.877-.384-2.523.7-2.463,2.881.16,4.838-1.408,6.746-3.143,4.825-4.39,9.654-8.784,12.935-14.548,3.951-6.944,4.073-14.706,4.775-22.345,1.915,1.221,2.045,1.178,2.908-.858.064-.15.3-.227.458-.338L615.9,174.055l.748.343c2.078-2.979,4.371-5.834,6.169-8.973a6.7,6.7,0,0,0-1.335-8.227l-1.682-2.779c-.68.547-1.116.9-1.692,1.36l-.611-1.507q.775-.147,1.551-.3c3.43-.659,5.989.791,7.121,4.078a11.38,11.38,0,0,1-.942,10.269c-1.739,2.693-3.914,5.1-5.9,7.641a3.015,3.015,0,0,1-4.171,1c-3.056,11.607-11.367,19.155-19.872,26.286a32.608,32.608,0,0,0,2.994,2.817,16.813,16.813,0,0,0,2.477,1c4.753,2.391,9.545,4.712,14.211,7.264a51.706,51.706,0,0,0,12.721,5.274c1.864.449,3.448,2.061,5.16,3.144,3.153,3.753,4.722,8.274,6.075,12.861,1.547,5.241,2.913,10.534,4.357,15.805,1.533,11.757.713,23.571.784,35.36a34.784,34.784,0,0,1-1.127,7.5c-.5,2.278-1.632,3.039-3.885,3.063-1.309.014-2.619,0-4.1,0,0,4.92,0,9.718,0,14.516,0,1.389-.032,2.777,0,4.165a3.086,3.086,0,0,1-1.549,3.143c-.351.192-.786.665-.783,1,.03,3.084.149,6.168.243,9.251l-4.13-.249v-9.114c-15.642.629-30.964,1.226-46.284,1.866-15.364.643-30.688-.4-46.059-1.546v8.778Zm54.925-38.641V279.469l-6.162-3.335c-.35,1.951-1.5,3.505.806,4.86a2.084,2.084,0,0,1,.2,3.413,3,3,0,0,1-2.829-.29c-1.46-1.2-2.873-1.921-4.81-1.463v10.669h11.542l2.16.48Zm16.24-14.347V257.36H573.69c.139,2.112.35,4.012.373,5.914.051,4.15-.018,8.3.01,12.453.015,2.282.774,2.976,2.942,2.835.273-.86.616-1.716.816-2.6.76-3.386,3.35-4.611,6.425-2.839a46.016,46.016,0,0,1,4.251,3.046Zm-27.368,31.994,27.306-1.008v-9.562c-3.111,0-6.143-.178-9.146.049s-5.783-1.148-8.818-.79a62.446,62.446,0,0,1-8.131.071c-1.2-.016-1.862.295-1.764,1.672C576.337,301.8,576.484,305.007,576.661,308.159Zm17.982-99.895-18.453,3.357c2.224,5.313,7.029,8.941,10.587,13.969C589.533,219.521,592.062,213.95,594.643,208.264Zm-27.767.72c-1.423,2.383-2.961,4.666-4.156,7.116-.428.876-.482,2.656.076,3.164,2.26,2.06,4.824,3.786,7.543,5.837.606-3.478,1.056-6.827,1.8-10.11.94-4.176.674-4.712-3.68-5.6C567.946,209.286,567.447,209.132,566.876,208.984Z" fill="#252627"/>
      <path id="Path_5850" data-name="Path 5850" d="M536.383,329.152v-8.778c15.371,1.142,30.7,2.189,46.059,1.546,15.32-.64,30.642-1.237,46.284-1.866v9.114l-2.444.354-2.442-.152-.737.114-1.251-.113-1.532.109-.85-.134q-7.972-.025-15.944-.049-27.52-.053-55.04-.1C544.452,329.191,540.418,329.168,536.383,329.152Z" fill="#fbfcfc"/>
      <path id="Path_5851" data-name="Path 5851" d="M641.729,329.442l5.979.143Z" fill="#252627"/>
      <path id="Path_5852" data-name="Path 5852" d="M623.84,329.37l2.442.152Z" fill="#252627"/>
      <path id="Path_5853" data-name="Path 5853" d="M621.852,329.371l1.251.113Z" fill="#252627"/>
      <path id="Path_5854" data-name="Path 5854" d="M648.519,329.561l1.177.025Z" fill="#252627"/>
      <path id="Path_5855" data-name="Path 5855" d="M619.47,329.346l.85.134Z" fill="#252627"/>
      <path id="Path_5856" data-name="Path 5856" d="M616.908,160.587c-.157.111-.394.188-.458.338-.863,2.036-.993,2.079-2.908.858l-.07-.378-.034-.83-.7-.779c-.563-.968-1.6-1.741.414-2.61a3.209,3.209,0,0,0,.86-4.948l-1.821-2.614c-1.15,2.439-2.018,2.875-4.532,2.48-3.526-.554-5.976-2.824-8.385-5.342-.328,1.349-.547,2.635-.956,3.857-1.148,3.427-2.8,4.232-5.9,2.308a95.282,95.282,0,0,1-8.1-6.227,12.8,12.8,0,0,1-.036,2.964c-.754,3.44-1.657,4.409-4.847,2.443a50.7,50.7,0,0,1-5.242-4.148c-.526-.43-.988-.938-1.617-1.544,0,2.436.062,4.522-.02,6.6a2.11,2.11,0,0,1-2.823,2,10.957,10.957,0,0,1-3.373-1.872c-3.007-2.495-5.908-5.118-9-7.819a51.781,51.781,0,0,1-.063,5.924c-.127,1.089-.646,2.627-1.439,3-.712.332-2.249-.415-3.057-1.11-2.685-2.31-4.085-5.457-5.2-9.407-.575,1.753-.948,2.975-1.376,4.177-1.319,3.7-2.658,7.388-3.99,11.082l-1.3,2.451a25.33,25.33,0,0,1,2.867.24c1.5.317,3.613-.62,4.127,1.881l-5.211.983-1.908.661c.675.584,1.356.883,1.5,1.346.739,2.412,1.368,4.86,1.978,7.309.273,1.094.415,2.221.71,3.846l-1.841,1.168q-.994-2.784-1.987-5.568l-.33-2-.261-.792-.182-1.183-.173-.807-.22-.785-.217-1.2c-.436-.652-.16-2.392-1.811-1.186l-2.566,1.613c1.766,1.6,1.612,3.546-.017,5.351,1.354,2.1,1.878,2.275,3.853,1.254l.729.237.879,1.062.378.809c-1.1,1.3-1.454,2.537.3,3.6l1.626,1.215-.023-.031.465.414,3.922.882,2-.025c-.139.732-.027,1.712-.462,2.149a3.462,3.462,0,0,0,.523,5.308l.336.819c-.735,1.339-.092,1.855,1.189,1.99l.415.372-.519,3.886a12.463,12.463,0,0,1-4.658-6.711c-.511-1.641-1.311-3.193-1.981-4.786l-2.837-1.49-.446.369c-.236.2-.6.351-.685.6-.413,1.266-.74,2.56-1.119,3.837-.4,1.342-.824,2.676-1.238,4.014l-.117.7a25.468,25.468,0,0,0-.78,3.721c-.05.728.517,1.477.643,2.244.107.643.227,1.675-.1,1.914a5.705,5.705,0,0,1-2.264.471q-.125-1.188-.248-2.376l.088-.413-.188-1.6-.193-1.191-.286-1.587c.353-2.279-1.228-2.9-2.929-3.423l1.171-2.664c2.531,1.657,2.546,1.658,3.567.508l1.383-6.322.153-.827.123-2.382-.261-2.02-2.565-.267-1.753-.5-.329-.748-.215-.829.05-1.571.26-1.2.944-3.569.735-2.5-.7-.223-.622,1.062c-2.271,2.647-2.829,5.984-3.7,9.195l-.28,1.2-.255,1.184-.135.806-.317,1.579-.113,1.2-.12,1.193-.247.8-.006,2.467c.989,1.232,2.3,2.306,2,4.16a3.31,3.31,0,0,1-.363.125l-2.953-.887-1.082,2.873-.4,1.2-.151.792-.152.825-1.387,6.336c-2.295.7-2.913.443-2.378-1.71s-.111-5.076,3.136-6.127l-1.348-2.081c2.143-2.13,2.252-4.925,2.368-7.762.027-.653.677-1.281,1.171-2.152-.686-1.592-.317-4.451.46-4.841l.6-3.108-.053-.026a12.358,12.358,0,0,1,.514-2.727c.831-1.93.753-4.48,3.361-5.3.086-.027.152-.218.173-.342.242-1.435.74-2.361,2.546-2.144a11.511,11.511,0,0,0,3.3-.569l.368.668.631-1.509.251-.766.044-.858c-3.178-2.393-3.549-6.176-4.506-9.57a43.148,43.148,0,0,1-1.029-16.422A23.063,23.063,0,0,1,540,120.863c3.275-3.468,7.114-6.4,10.705-9.572l1.2-.8,0,0c1.275-.067,2.376-.388,2.7-1.849l.387-.073c.4.086.874.357,1.185.229,2.053-.845,4-2,6.114-2.63,4-1.192,8.064-2.225,12.154-3.062a26.3,26.3,0,0,1,5.3-.06c.47-.409.887-1.073,1.28-1.059,1.422.048,2.835.348,4.256.5.288.03.6-.2.9-.3a13.528,13.528,0,0,1,1.84-.545,25.443,25.443,0,0,1,7.318.306c1.588.2,2.971.005,3.706,1.82,1.1-1.037,1.99-2.116,2.835.046.212.542,1.471.7,2.266.985.768.276,1.559.49,2.34.731l-.11.384,1.956-.17.435.373c.1,1.484.665,2.512,2.379,2.4l.414.36c1.15,2.361,2.326,4.709,3.44,7.086.631,1.347,1.147,2.746,1.741,4.111,1.079,2.484,2.18,4.959,3.264,7.441a1.3,1.3,0,0,1,.029.383c.065.778.131,1.556.222,2.621-.612.594-1.672,1.446.194,2.426.267.14.092.972.352,1.3.871,1.11-1.2,2.983,1,3.692l.044.8-2.024,1.291c1.284,1.614,1.544,3.1-.133,4.518a1.413,1.413,0,0,0-.375,1.234,5.247,5.247,0,0,1-1.007,5.27q-.4,1.61-.809,3.219l.611,1.507c.576-.462,1.012-.813,1.692-1.36l1.682,2.779C618.051,157.2,617.045,157.626,616.908,160.587Zm1.215-23.471.491-.259-.623-1.2-.5.263Zm.106-3.952c-.236-.15-.385-.321-.521-.311s-.265.2-.4.309c.131.111.257.3.4.31S617.993,133.313,618.229,133.164Z" fill="#181818"/>
      <path id="Path_5857" data-name="Path 5857" d="M490.515,176.417l11.712-1.028v2.547q.014,60.873.025,121.746c0,3.126-1.3,4.453-4.362,4.455-7.017,0-14.038-.136-21.051.046-5.412.14-10.81.907-16.22.981-6.6.09-13.219-.175-19.822-.442-3.426-.139-6.836-.847-10.258-.893-9.027-.122-17.877-1.616-26.744-3.053-1.558-.253-3.13-.422-5.054-.678,0-2.686,0-5.315,0-7.944a2.949,2.949,0,0,1,.575-.121c8.47-.052,16.942-.184,25.412-.123,9.921.072,19.841.4,29.763.457,10.936.067,21.873-.029,32.81-.084a3.245,3.245,0,0,0,3.559-3.527c0-7.065-.053-14.13-.093-21.2q-.053-9.152-.122-18.3a13.611,13.611,0,0,0,.618-3.2c-.139-3.066-.477-6.122-.737-9.182-.053-8-.122-16-.153-23.995q-.039-9.839,0-19.679C490.394,187.608,490.466,182.012,490.515,176.417Z" fill="#fbd761"/>
      <path id="Path_5858" data-name="Path 5858" d="M437.975,57.667c6.727.388,13.517.332,20.166,1.269,9.736,1.372,18.235,5.953,25.566,12.37a23.86,23.86,0,0,1,7.643,15.562,88.137,88.137,0,0,1,.208,17.6c-.584,6.617-2.455,13.115-3.121,19.729-.837,8.317-4.714,14.856-10.428,20.558-2.943,2.936-5.823,5.972-9.028,8.6-4.515,3.7-10.313,4.214-15.738,5.535-9.387,2.286-18.939,2.7-28.568,2.473-5.388-.127-10.3-.922-14.923-4.185-6.737-4.755-13.463-9.386-18.153-16.367-4.255-6.333-7.185-13.116-6.988-20.911.159-6.276.121-12.585.781-18.814a40.4,40.4,0,0,1,10.335-23.571c5.638-6.161,11.443-12.152,18.843-16.277,3.744-2.087,7.635-3.507,12.065-3.266,3.764.2,7.547.043,11.321.043Zm41.162,76.668.38-.553c.716-1.471,1.389-2.965,2.157-4.409,2.476-4.655,4.3-9.5,4.076-14.869-.265-6.375-.57-12.75-1-19.115a36.432,36.432,0,0,0-10.234-22.95,30.943,30.943,0,0,0-25.3-10.3c-4.581.219-9.18.044-13.77.124-6.821.119-13.43,1.286-19.4,4.76-3.866,2.249-7.561,4.792-11.333,7.2a9.194,9.194,0,0,0-.639-.717c-2.686,1.985-5.308,4.037-5.969,7.612l.01-.023-.432.616.02-.044-.429.83c-1.567,2.87-3.855,5.575-4.556,8.642-1.674,7.326-.525,14.663,1.431,21.873,1.427,5.256,2.643,10.571,4.086,15.823a13.114,13.114,0,0,0,1.88,3.593c1.368,2.059,3,3.955,4.256,6.073a13.423,13.423,0,0,0,5.043,5.375,9.718,9.718,0,0,1,2.927,1.971c2.735,3.269,6.3,4.368,10.364,4.377,6.543.014,13.09.163,19.628-.011,7.434-.2,15.085,1.347,22.142-2.4,3.721.118,10.211-4.219,11.56-7.744.062-.16-.036-.38-.059-.573l-.011.012.634.024q1.269-2.6,2.537-5.2Z" fill="#fcd864"/>
      <path id="Path_5859" data-name="Path 5859" d="M490.646,249.258q.062,9.151.122,18.3c.04,7.065.094,14.13.093,21.2a3.245,3.245,0,0,1-3.559,3.527c-10.937.055-21.874.151-32.81.084-9.922-.061-19.842-.385-29.763-.457-8.47-.061-16.942.071-25.412.123a2.949,2.949,0,0,0-.575.121c-3.916-.094-7.833-.162-11.747-.293-2.613-.087-3.454-.888-3.452-3.672,0-5.238.306-10.477.234-15.713-.188-13.651-.484-27.3-.789-40.949-.214-9.531-.429-19.063-.821-28.587-.137-3.327-.963-6.62-1.193-9.949a69.4,69.4,0,0,1-.081-10.6c.1-1.2,1.657-2.282,2.548-3.418l.743-.265-.126-.276-.734.4a5,5,0,0,1-1.874-.471,2.213,2.213,0,0,1-.819-1.654,1.885,1.885,0,0,1,1.148-1.332,28.04,28.04,0,0,1,5.428-.885c9.763-.324,19.538-.353,29.29-.859,7.824-.406,15.61-1.536,23.434-2,8.042-.477,16.107-.62,24.165-.75,7.16-.116,14.323,0,21.485-.012,4.16-.006,4.588.389,4.763,4.584a7.156,7.156,0,0,0,.172.965c-.05,5.594-.122,11.19-.143,16.785q-.037,9.84,0,19.679c.031,8,.1,16,.153,23.992-.051.97-.162,1.944-.143,2.917C490.446,242.947,490.555,246.1,490.646,249.258ZM387.084,288.522h99.84V174.586a4.42,4.42,0,0,0-.721-.189c-16.228.282-32.457.525-48.683.884-4.08.09-8.152.547-12.227.839-8.72.626-17.434,1.354-26.162,1.839-4.349.241-8.722.031-13.084.048a17.024,17.024,0,0,0-2,.287c2.858,1.306,2.946,2.117.969,3.9a2.236,2.236,0,0,0-.8,1.442c.169,4,.39,8.006.7,12,.161,2.1.689,4.175.767,6.273q.5,13.538.819,27.083c.154,6.232.157,12.467.308,18.7.245,10.121.622,20.239.8,30.36C387.666,281.386,387.287,284.722,387.084,288.522Z" fill="#272725"/>
      <path id="Path_5860" data-name="Path 5860" d="M505.423,164.993c.564-.735,1.088-1.506,1.7-2.2,2.152-2.455,4.381-4.844,6.464-7.355a3.637,3.637,0,0,0,.473-2.188c-.015-1.655.73-2.277,2.321-2.034.449.068.908.078,1.362.113,1.129.085,1.4.521,1.353,1.775a36.7,36.7,0,0,0,.574,6.573c.2,1.366,1.209,1.784,2.589,1.833a11,11,0,0,1,3.515.826c1.415.551,1.257,1.584.283,2.43-.827.72-1.873,1.183-2.743,1.86a18.253,18.253,0,0,0-6.956,10.738c-.238,1.08-.307,3.019-2.5,2.481-1.4-.342-2.09-.984-1.528-2.528a15.82,15.82,0,0,0,.756-9.445c-.3-1.213-.812-1.559-1.872-1.411a23.865,23.865,0,0,0-3.094.57C505.853,167.661,505.792,167.642,505.423,164.993Zm6.849-2.077c3.1.327,3.762,2.69,4.619,5.033l2.822-3.189c-2.565-1.187-3.5-3.356-4.113-6C514.448,160.2,513.472,161.417,512.272,162.916Z" fill="#262626"/>
      <path id="Path_5861" data-name="Path 5861" d="M608.332,105.745l-1.956.17.11-.384c-.781-.241-1.572-.455-2.34-.731-.795-.286-2.054-.443-2.266-.985-.845-2.162-1.734-1.083-2.835-.046-.735-1.815-2.118-1.618-3.706-1.82a25.443,25.443,0,0,0-7.318-.306,13.528,13.528,0,0,0-1.84.545c-.305.1-.616.33-.9.3-1.421-.147-2.834-.447-4.256-.5-.393-.014-.81.65-1.28,1.059a26.3,26.3,0,0,0-5.3.06c-4.09.837-8.152,1.87-12.154,3.062-2.111.629-4.061,1.785-6.114,2.63-.311.128-.786-.143-1.185-.229a60.236,60.236,0,0,1,5.808-2.826,85.165,85.165,0,0,1,32.961-5.085C599.069,100.884,604.2,101.968,608.332,105.745Z" fill="#252627"/>
      <path id="Path_5862" data-name="Path 5862" d="M643.28,251.414c-1.444-5.271-2.81-10.564-4.357-15.805-1.353-4.587-2.922-9.108-6.075-12.861a10.45,10.45,0,0,0,.95-.712c1.112-1.041,1.908-.705,2.389.589,1.241,3.337,2.5,6.669,3.634,10.044a107.363,107.363,0,0,1,3.519,11.511C643.834,246.481,643.334,248.995,643.28,251.414Z" fill="#bbe8fc"/>
      <path id="Path_5863" data-name="Path 5863" d="M621.8,137.939c-2.2-.709-.125-2.582-1-3.692-.26-.331-.085-1.163-.352-1.3-1.866-.98-.806-1.832-.194-2.426-.091-1.065-.157-1.843-.222-2.621a1.3,1.3,0,0,0-.029-.383c-1.084-2.482-2.185-4.957-3.264-7.441-.594-1.365-1.11-2.764-1.741-4.111-1.114-2.377-2.29-4.725-3.44-7.086a40.3,40.3,0,0,1,8.588,16.812C621.165,129.652,621.279,133.847,621.8,137.939Z" fill="#252627"/>
      <path id="Path_5864" data-name="Path 5864" d="M618.3,151.053a5.247,5.247,0,0,0,1.007-5.27,1.413,1.413,0,0,1,.375-1.234c1.677-1.419,1.417-2.9.133-4.518l2.024-1.291c.242,3.624.07,7.2-1.686,10.479A8.86,8.86,0,0,1,618.3,151.053Z" fill="#252627"/>
      <path id="Path_5865" data-name="Path 5865" d="M611.146,108.516c-1.714.114-2.277-.914-2.379-2.4Z" fill="#252627"/>
      <path id="Path_5866" data-name="Path 5866" d="M554.6,108.648c-.32,1.461-1.421,1.782-2.7,1.849Z" fill="#252627"/>
      <path id="Path_5867" data-name="Path 5867" d="M551.91,110.494l-1.2.8Z" fill="#252627"/>
      <path id="Path_5868" data-name="Path 5868" d="M539.094,160.178l-.044.858Z" fill="#252627"/>
      <path id="Path_5869" data-name="Path 5869" d="M534.879,195.558l.193,1.191q.093.8.188,1.6l-.088.414a15.518,15.518,0,0,0-.343,2.275c-.032,4.562-.016,9.123-.016,13.81l1.97-.975c.445,6.251.784,12.512,1.364,18.751.663,7.13,1.518,14.242,2.365,21.353.065.546.727,1.02,1.111,1.527.649-.646,1.592-1.191,1.864-1.969s-.133-1.8-.219-2.715q-1.066-11.314-2.122-22.63a9.518,9.518,0,0,1,4.29-9.1c3.978-2.584,8.526-4.295,12.852-6.333.333-.157.843.063,1.271.108a6.078,6.078,0,0,1-.293,1.944c-1.052,2.014-1.363,4.025-.021,5.963a11.25,11.25,0,0,0,2.287,2.141c2.05,1.653,4.213,3.173,6.184,4.914,1.834,1.62,4.3,1.479,5.427-1.048.531-1.19.886-2.458,1.321-3.692l3.382-2.937q2.9,3.347,5.795,6.691a10.177,10.177,0,0,0,1.455,1.607c2.468,1.829,3.443,1.475,4.711-1.189,2.645-5.554,5.016-11.238,7.545-16.973,3.892.474,7.085,2.6,10.435,4.3,5,2.535,9.925,5.208,14.956,7.67,1.488.727,3.327.728,4.828,1.436,3.47,1.637,5.119,4.9,6.173,8.286,2.3,7.376,4.8,14.748,6.234,22.309,1.054,5.565.59,11.425.709,17.156.106,5.125.192,10.256.07,15.379a24.136,24.136,0,0,1-1.138,6.523c-.147.471-1.933.43-2.965.624l-.771-4.628c-1.328,1.8-2.326,3.143-3.323,4.492-3.2.1-6.4.255-9.607.275-10.083.064-20.166.076-30.249.106-.127,0-.254-.026-.959-.1-.379-4.829-.767-9.763-1.182-15.052,4.834,0,9.17.005,13.505,0,3.441,0,6.881-.027,10.321-.033,1.434,0,3.008-.336,3.542,1.644,1.855-.767,2.6-1.765,2.371-3.716-.992-8.5-1.836-17.019-2.74-25.53-.246-2.322-.335-4.6,1.007-6.7.58-.908.778-1.955-.417-2.529-1.151-.554-1.894.04-2.583,1.081-2.308,3.488-1.406,7.229-1.027,10.93.462,4.513.975,9.021,1.477,13.53.289,2.6.6,5.2.937,8.131-2.943,0-5.573.086-8.186-.086-.427-.028-1.106-1.187-1.117-1.832-.084-5.011.047-10.027-.07-15.037-.036-1.558.819-3.509-1.2-4.58a4.068,4.068,0,0,0-1.739-.613q-15.461-.083-30.922-.071c-2.815,0-3.923,1.3-3.837,4,.177,5.536.2,11.077.4,16.612.06,1.622.552,3.224.754,4.847a22.876,22.876,0,0,1,.065,2.858c0,4.1-.019,8.2-.021,12.3,0,.324-.05.75.125.956,2.486,2.928.958,6.425,1.407,9.634.116,1.967.258,3.933.338,5.9.059,1.458.792,1.473,1.838.952l.143.089c.083.431.016,1.065.276,1.258a3.257,3.257,0,0,0,4.947-1.358c7.975-.276,15.95-.574,23.926-.815,2.914-.088,3.4-.527,3.4-3.485,0-2.513,0-5.025,0-7.538,0-1.55.613-2.51,2.321-2.51,6.888,0,13.776-.02,20.664-.019a2.606,2.606,0,0,1,.731.221c-1.373,3.271-.03,6.491.178,9.731q.014,2.378.027,4.753-2.191,2.208-4.385,4.415c-11.8.428-23.6.933-35.406,1.262-11.033.308-22.07.567-33.1.564-4.26,0-8.518-.8-12.779-1.2-1.512-.143-3.031-.2-4.547-.3-.118-1.106-.65-2.382-.279-3.288,1.325-3.229.7-6.531.589-9.763-.285-8.367-.926-16.724.493-25.052,1.233-.276,2.835-.165,3.621-.912a29.376,29.376,0,0,0,3.8-5.126c.133-.2-.241-1.071-.4-1.078a5,5,0,0,0-2.7.239,12.353,12.353,0,0,0-2.29,2.612v-7.374a14.966,14.966,0,0,0-2.149,1.816c-1.041.728-2.222,1.712-3.371,1.748-4.031.126-10.05-5.065-10.726-9.05-.181-1.066.2-2.23.014-3.293-.7-3.952-1.717-7.854-2.264-11.824-.656-4.758-1.059-9.558-1.358-14.353a56.3,56.3,0,0,1,.34-6.913,58.293,58.293,0,0,1,.472-6.311,92.772,92.772,0,0,0,1.473-20.7c-.128-2.462.21-4.507,2.391-6a6.332,6.332,0,0,0,1.243-1.758,3.31,3.31,0,0,0,.363-.125l1.225.278c1.7.521,3.282,1.144,2.929,3.423Z" fill="#bbe8fd"/>
      <path id="Path_5870" data-name="Path 5870" d="M612.737,159.8l.7.779.034.83.07.378c-.7,7.639-.824,15.4-4.775,22.345-3.281,5.764-8.11,10.158-12.935,14.548-1.908,1.735-3.865,3.3-6.746,3.143-1.085-.06-1.5,1.586-.7,2.463a13.3,13.3,0,0,0,1.839,1.291c-3.735.614-6.9,1.374-10.094,1.6-3.663.255-7.415.472-10.881-1.262-.546-.274-1.409-.656-1.456-1.065-.259-2.282-1.231-3.431-3.679-3.814-5.291-.828-8.413-5.07-12.14-8.324-.14-.122-.3-.223-.448-.333l-.415-.372q-.594-1-1.189-1.99l-.336-.819-1.06-4.012c3.257-.779,6.4-1.42,9.479-2.29,7.092-2,10.386-7.722,8.61-14.744a4.44,4.44,0,0,1-.155-.574,2.964,2.964,0,0,1,.052-.566h1.73c.3,3.776.569,7.494.936,11.2a2.809,2.809,0,0,0,.878,1.961,7.326,7.326,0,0,0,3.157.871c.682.038,1.4-.513,2.1-.8-.524-.879-1-1.79-1.6-2.615-.136-.187-.681-.079-.931-.1-.382-3.615-.747-7.066-1.111-10.516l.552-.366a8.8,8.8,0,0,1,1.258,1.438c1.4,2.518,2.7,5.092,4.1,7.608a10.334,10.334,0,0,0,8.58,5.771c7.644.531,12.585-.941,15.113-8.984,1.067-3.4,1.36-7.035,1.98-10.426Zm-25.8,29.229c-1.335-2.2-2.583-2.342-4.622-1.292-4.114,2.117-8.64,2.458-13.217,1.944-1.209-.135-2.159.1-2.221,1.535a1.992,1.992,0,0,0,2.029,2.211c5.663.476,11.154-.093,16.194-2.992A17.308,17.308,0,0,0,586.939,189.025Z" fill="#fcfcfc"/>
      <path id="Path_5871" data-name="Path 5871" d="M604.029,276.165H588.507a46.016,46.016,0,0,0-4.251-3.046c-3.075-1.772-5.665-.547-6.425,2.839-.2.888-.543,1.744-.816,2.6-2.168.141-2.927-.553-2.942-2.835-.028-4.151.041-8.3-.01-12.453-.023-1.9-.234-3.8-.373-5.914h30.339Z" fill="#fcfcfc"/>
      <path id="Path_5872" data-name="Path 5872" d="M541.085,183.64l.446-.369,2.837,1.49c.67,1.593,1.47,3.145,1.981,4.786a12.463,12.463,0,0,0,4.658,6.711c3.421,3.676,7.063,7.012,12.137,8.29,1.153.291,1.125.4.991,1.614-7.779,4.435-16.792,6.127-23.353,12.341-.941-8.478-1.9-17.1-2.856-25.718l.117-.7C540.729,189.875,540.49,186.607,541.085,183.64Z" fill="#fbfcfc"/>
      <path id="Path_5873" data-name="Path 5873" d="M530.076,190.4a6.332,6.332,0,0,1-1.243,1.758c-2.181,1.493-2.519,3.538-2.391,6a92.772,92.772,0,0,1-1.473,20.7,58.293,58.293,0,0,0-.472,6.311,56.3,56.3,0,0,0-.34,6.913c.3,4.795.7,9.6,1.358,14.353.547,3.97,1.564,7.872,2.264,11.824.188,1.063-.2,2.227-.014,3.293.676,3.985,6.7,9.176,10.726,9.05,1.149-.036,2.33-1.02,3.371-1.748a14.966,14.966,0,0,1,2.149-1.816V274.4c-1.063,1.632-2.836.983-3.871.571-4.651-1.849-9.444-3.486-13.331-6.878a11.157,11.157,0,0,1-3.48-6.917c-.369-2.256-1.35-4.49-.341-6.967.416-1.022-.528-2.522-.547-3.809-.167-11.626-.455-23.255-.291-34.878.066-4.673,1.169-9.331,1.8-14l1.387-6.336.152-.825.151-.792.4-1.2,1.082-2.873Z" fill="#fbfcfc"/>
      <path id="Path_5874" data-name="Path 5874" d="M576.661,308.159c-.177-3.152-.324-6.363-.553-9.568-.1-1.377.564-1.688,1.764-1.672a62.446,62.446,0,0,0,8.131-.071c3.035-.358,5.813,1.018,8.818.79s6.035-.049,9.146-.049v9.562Z" fill="#fcfcfc"/>
      <path id="Path_5875" data-name="Path 5875" d="M541.984,278.668c-1.419,8.328-.778,16.685-.493,25.052.109,3.232.736,6.534-.589,9.763-.371.906.161,2.182.279,3.288-6,.282-4.7.268-4.776-4.372-.173-10.982-.184-21.966-.246-32.95a17.653,17.653,0,0,1,.193-1.924Z" fill="#fbfcfc"/>
      <path id="Path_5876" data-name="Path 5876" d="M586.531,293.323H574.989V282.654c1.937-.458,3.35.264,4.81,1.463a3,3,0,0,0,2.829.29,2.084,2.084,0,0,0-.2-3.413c-2.307-1.355-1.156-2.909-.806-4.86l6.162,3.335v11.044C585.316,290.529,586.767,292.3,586.531,293.323Z" fill="#fbfbfb"/>
      <path id="Path_5877" data-name="Path 5877" d="M594.643,208.264c-2.581,5.686-5.11,11.257-7.866,17.326-3.558-5.028-8.363-8.656-10.587-13.969Z" fill="#fbfbfb"/>
      <path id="Path_5878" data-name="Path 5878" d="M566.876,208.984c.571.148,1.07.3,1.579.406,4.354.889,4.62,1.425,3.68,5.6-.74,3.283-1.19,6.632-1.8,10.11-2.719-2.051-5.283-3.777-7.543-5.837-.558-.508-.5-2.288-.076-3.164C563.915,213.65,565.453,211.367,566.876,208.984Z" fill="#fcfcfc"/>
      <path id="Path_5879" data-name="Path 5879" d="M616.908,160.587c.137-2.961,1.143-3.384,4.571-3.389a6.7,6.7,0,0,1,1.335,8.227c-1.8,3.139-4.091,5.994-6.169,8.973l-.748-.343Z" fill="#fcfcfc"/>
      <path id="Path_5880" data-name="Path 5880" d="M536.783,213.87l-1.97.975c0-4.687-.016-9.248.016-13.81a15.518,15.518,0,0,1,.343-2.275q.125,1.187.248,2.375Q536.1,207.5,536.783,213.87Z" fill="#fbfbfb"/>
      <path id="Path_5881" data-name="Path 5881" d="M632.56,293.824c1-1.349,1.995-2.7,3.323-4.492l.771,4.628Z" fill="#fbfcfc"/>
      <path id="Path_5882" data-name="Path 5882" d="M577.846,220.144l-3.382,2.937c.152-.972.326-1.941.45-2.917.112-.889.169-1.784.308-3.3Z" fill="#fbfbfb"/>
      <path id="Path_5883" data-name="Path 5883" d="M580.16,311.694a3.257,3.257,0,0,1-4.947,1.358c-.26-.193-.193-.827-.276-1.258Z" fill="#fbfbfb"/>
      <path id="Path_5884" data-name="Path 5884" d="M627.018,316.447q2.193-2.208,4.385-4.415v2.719l-.314-.4c-.988.644-1.96,1.318-2.977,1.914A3.151,3.151,0,0,1,627.018,316.447Z" fill="#f1f1f1"/>
      <path id="Path_5885" data-name="Path 5885" d="M586.531,293.323c.236-1.019-1.215-2.794,1.258-2.81.292,1.064.584,2.129.9,3.29Z" fill="#bbe8fc"/>
      <path id="Path_5886" data-name="Path 5886" d="M631.376,307.279c-.208-3.24-1.551-6.46-.178-9.731Q631.288,302.412,631.376,307.279Z" fill="#fbfbfb"/>
      <path id="Path_5887" data-name="Path 5887" d="M574.794,311.7c-1.046.521-1.779.506-1.838-.952-.08-1.969-.222-3.935-.338-5.9.258,1.244.424,2.517.8,3.723A28.99,28.99,0,0,0,574.794,311.7Z" fill="#fbfbfb"/>
      <path id="Path_5888" data-name="Path 5888" d="M612.737,159.8l-9.489,2.254c-.62,3.391-.913,7.03-1.98,10.426-2.528,8.043-7.469,9.515-15.113,8.984a10.334,10.334,0,0,1-8.58-5.771c-1.4-2.516-2.7-5.09-4.1-7.608a8.8,8.8,0,0,0-1.258-1.438l-.552.366c.364,3.45.729,6.9,1.111,10.516.25.019.8-.089.931.1.6.825,1.078,1.736,1.6,2.615-.7.288-1.415.839-2.1.8a7.326,7.326,0,0,1-3.157-.871,2.809,2.809,0,0,1-.878-1.961c-.367-3.708-.631-7.426-.936-11.2h-1.73a2.964,2.964,0,0,0-.052.566,4.44,4.44,0,0,0,.155.574c1.776,7.022-1.518,12.742-8.61,14.744-3.079.87-6.222,1.511-9.479,2.29l1.06,4.012a3.462,3.462,0,0,1-.523-5.308c.435-.437.323-1.417.462-2.149l2.492-.8c3.25-.607,6.617-.881,9.235-3.271,1.434-1.731,3.365-3.243,2.6-5.937-.742-2.394-1.455-4.8-2.258-7.171a1.4,1.4,0,0,0-1.012-.794c-2.7-.063-5.4-.03-8.106-.027l-4.545-.162c-.514-2.5-2.623-1.564-4.127-1.881a25.33,25.33,0,0,0-2.867-.24l1.3-2.451.165,1.729c5.473-.169,10.843-.356,16.215-.488,1.881-.046,3.734.253,4.954,1.876,1.163,1.549,2.613,1.379,4.24,1.072a17.447,17.447,0,0,1,.256-2.4c.285-1.162.889-2.209,2.3-1.884,1.379.317,1.64,1.3,1.176,2.621a4.039,4.039,0,0,0,.12,1.564,1.458,1.458,0,0,0,.712-1.123c.31-2.413,1.277-3.816,3.542-3.873,6.252-.157,12.512-.066,18.768.015,1.894.024,3.824.664,5.666.44,3.247-.4,6.446-1.211,9.654-1.9,3.65-.788,3.644-.813,4-4.4a3.209,3.209,0,0,1-.86,4.948C611.135,158.055,612.174,158.828,612.737,159.8Zm-14.348,8.788c.376-2.081.752-4.163,1.185-6.563l-11.441-.576h-9.621c-1.817-.423-2.413.338-2.12,2.1a26.16,26.16,0,0,0,4.945,10.811c2.632,3.717,9.5,4.665,13.172,1.816C597.188,174.351,597.926,171.538,598.389,168.584Z" fill="#252627"/>
      <path id="Path_5889" data-name="Path 5889" d="M614.011,152.238c-.355,3.587-.349,3.612-4,4.4-3.208.693-6.407,1.508-9.654,1.9-1.842.224-3.772-.416-5.666-.44-6.256-.081-12.516-.172-18.768-.015-2.265.057-3.232,1.46-3.542,3.873a1.458,1.458,0,0,1-.712,1.123,4.039,4.039,0,0,1-.12-1.564c.464-1.317.2-2.3-1.176-2.621-1.415-.325-2.019.722-2.3,1.884a17.447,17.447,0,0,0-.256,2.4c-1.627.307-3.077.477-4.24-1.072-1.22-1.623-3.073-1.922-4.954-1.876-5.372.132-10.742.319-16.215.488l-.165-1.729c1.332-3.694,2.671-7.384,3.99-11.082.428-1.2.8-2.424,1.376-4.177,1.111,3.95,2.511,7.1,5.2,9.407.808.695,2.345,1.442,3.057,1.11.793-.37,1.312-1.908,1.439-3a51.781,51.781,0,0,0,.063-5.924c3.089,2.7,5.99,5.324,9,7.819a10.957,10.957,0,0,0,3.373,1.872,2.11,2.11,0,0,0,2.823-2c.082-2.081.02-4.167.02-6.6.629.606,1.091,1.114,1.617,1.544a50.7,50.7,0,0,0,5.242,4.148c3.19,1.966,4.093,1,4.847-2.443a12.8,12.8,0,0,0,.036-2.964,95.282,95.282,0,0,0,8.1,6.227c3.1,1.924,4.752,1.119,5.9-2.308.409-1.222.628-2.508.956-3.857,2.409,2.518,4.859,4.788,8.385,5.342,2.514.395,3.382-.041,4.532-2.48Z" fill="#fbfbfb"/>
      <path id="Path_5890" data-name="Path 5890" d="M547.936,163.567l4.546.162a9.621,9.621,0,0,1,1.175.627q5.109,3.669,10.2,7.365c.76,2.694-1.171,4.206-2.6,5.937a18.316,18.316,0,0,0-2.676-2.531c-4.615-2.9-9.3-5.7-13.968-8.507a7.369,7.369,0,0,0-1.451-.509l-.432-1.561Z" fill="#bbe8fd"/>
      <path id="Path_5891" data-name="Path 5891" d="M528.437,186.11l.006-2.467.247-.8.12-1.193.113-1.2.317-1.579.135-.806.255-1.184.28-1.2c.871-3.211,1.429-6.548,3.7-9.195l.582,1.665-.944,3.569-.26,1.2-.05,1.571.215.829.329.748,1.753.5,2.565.267.261,2.02-.123,2.382-.153.827-1.383,6.322Z" fill="#fbfbfb"/>
      <path id="Path_5892" data-name="Path 5892" d="M542.725,164.55l.432,1.561q1.426,5.378,2.855,10.753.756,2.446,1.514,4.9l-3.922-.882-.465-.414.023.031V178.88L545,177.712c-.295-1.625-.437-2.752-.71-3.846-.61-2.449-1.239-4.9-1.978-7.309-.142-.463-.823-.762-1.5-1.346Z" fill="#252627"/>
      <path id="Path_5893" data-name="Path 5893" d="M540.4,169.333l.182,1.183.261.792.33,2h-1.907l-2.3-.44c.348-2.58.682-5.049,1.015-7.517,1.651-1.206,1.375.534,1.811,1.186l.217,1.2.22.785Z" fill="#fbfbfb"/>
      <path id="Path_5894" data-name="Path 5894" d="M547.526,181.759q-.758-2.448-1.514-4.9l6.005,4.065-2.492.8Z" fill="#bbe8fc"/>
      <path id="Path_5895" data-name="Path 5895" d="M537.981,165.354c-.333,2.468-.667,4.937-1.015,7.517l2.3.44a.717.717,0,0,1-.016.261c-1.975,1.021-2.5.85-3.853-1.254,1.629-1.8,1.783-3.755.017-5.351Z" fill="#252627"/>
      <path id="Path_5896" data-name="Path 5896" d="M528.437,186.11l7.965,2.282c-1.021,1.15-1.036,1.149-3.567-.508l-1.171,2.664-1.225-.278C530.742,188.416,529.426,187.342,528.437,186.11Z" fill="#252627"/>
      <path id="Path_5897" data-name="Path 5897" d="M541.085,183.64c-.6,2.967-.356,6.235-3.042,8.449.414-1.338.839-2.672,1.238-4.014.379-1.277.706-2.571,1.119-3.837C540.481,183.991,540.849,183.837,541.085,183.64Z" fill="#252627"/>
      <path id="Path_5898" data-name="Path 5898" d="M539.251,173.572a.717.717,0,0,0,.016-.261h1.908q.993,2.784,1.987,5.568v1.614l-1.626-1.215q-.15-1.8-.3-3.6l-.378-.809-.879-1.062Z" fill="#bbe8fc"/>
      <path id="Path_5899" data-name="Path 5899" d="M541.237,175.68q.15,1.8.3,3.6C539.783,178.217,540.141,176.979,541.237,175.68Z" fill="#252627"/>
      <path id="Path_5900" data-name="Path 5900" d="M534.192,168.157l-.582-1.665.622-1.062.7.223Z" fill="#252627"/>
      <path id="Path_5901" data-name="Path 5901" d="M549.922,190.01q.594.995,1.189,1.99C549.83,191.865,549.187,191.349,549.922,190.01Z" fill="#252627"/>
      <path id="Path_5902" data-name="Path 5902" d="M544.368,184.761l-2.837-1.49Z" fill="#252627"/>
      <path id="Path_5903" data-name="Path 5903" d="M538.061,178.861l-.261-2.02Z" fill="#252627"/>
      <path id="Path_5904" data-name="Path 5904" d="M535.235,176.574l-1.753-.5Z" fill="#252627"/>
      <path id="Path_5905" data-name="Path 5905" d="M618.123,137.116l-.631-1.2.5-.263.623,1.2Z" fill="#252627"/>
      <path id="Path_5906" data-name="Path 5906" d="M535.26,198.346l-.188-1.6Z" fill="#252627"/>
      <path id="Path_5907" data-name="Path 5907" d="M534.879,195.558l-.286-1.587Z" fill="#252627"/>
      <path id="Path_5908" data-name="Path 5908" d="M540.009,167.741l-.217-1.2Z" fill="#252627"/>
      <path id="Path_5909" data-name="Path 5909" d="M528.923,180.452l-.113,1.2Z" fill="#252627"/>
      <path id="Path_5910" data-name="Path 5910" d="M618.229,133.164c-.236.149-.386.319-.522.308s-.265-.2-.4-.31c.132-.11.258-.3.4-.309S617.993,133.014,618.229,133.164Z" fill="#252627"/>
      <path id="Path_5911" data-name="Path 5911" d="M529.91,175.687l-.281,1.2Z" fill="#252627"/>
      <path id="Path_5912" data-name="Path 5912" d="M532.988,172.926l.26-1.2Q533.118,172.326,532.988,172.926Z" fill="#252627"/>
      <path id="Path_5913" data-name="Path 5913" d="M526.041,192.381l-.4,1.2Z" fill="#252627"/>
      <path id="Path_5914" data-name="Path 5914" d="M539.98,173.809l.879,1.062Z" fill="#252627"/>
      <path id="Path_5915" data-name="Path 5915" d="M533.153,175.326l-.215-.829Z" fill="#252627"/>
      <path id="Path_5916" data-name="Path 5916" d="M540.845,171.308l-.261-.792Z" fill="#252627"/>
      <path id="Path_5917" data-name="Path 5917" d="M525.489,194.368l-.152.825Z" fill="#252627"/>
      <path id="Path_5918" data-name="Path 5918" d="M537.785,182.07l.153-.827Z" fill="#252627"/>
      <path id="Path_5919" data-name="Path 5919" d="M528.69,182.841l-.247.8Z" fill="#252627"/>
      <path id="Path_5920" data-name="Path 5920" d="M529.375,178.067l-.135.806Z" fill="#252627"/>
      <path id="Path_5921" data-name="Path 5921" d="M540.4,169.333l-.173-.807Z" fill="#252627"/>
      <path id="Path_5922" data-name="Path 5922" d="M613.472,161.4l-.034-.83Z" fill="#252627"/>
      <path id="Path_5923" data-name="Path 5923" d="M543.139,180.463l.465.414Z" fill="#bbe8fc"/>
      <path id="Path_5924" data-name="Path 5924" d="M490.646,249.258c-.091-3.156-.2-6.311-.262-9.467-.019-.973.092-1.947.143-2.917.26,3.063.6,6.119.737,9.185A13.611,13.611,0,0,1,490.646,249.258Z" fill="#f1f1f1"/>
      <path id="Path_5925" data-name="Path 5925" d="M464.474,147.815c-7.057,3.748-14.708,2.2-22.142,2.4-6.538.174-13.085.025-19.628.011-4.063-.009-7.629-1.108-10.364-4.377a9.718,9.718,0,0,0-2.927-1.971,13.423,13.423,0,0,1-5.043-5.375c-1.26-2.118-2.888-4.014-4.256-6.073a13.114,13.114,0,0,1-1.88-3.593c-1.443-5.252-2.659-10.567-4.086-15.823-1.956-7.21-3.105-14.547-1.431-21.873.7-3.067,2.989-5.772,4.556-8.642l.429-.83-.02.044.432-.616-.01.023c.506-.494,1.029-.971,1.515-1.484q2.556-2.7,5.093-5.411c3.772-2.411,7.467-4.954,11.333-7.2,5.971-3.474,12.58-4.641,19.4-4.76,4.59-.08,9.189.1,13.77-.124a30.943,30.943,0,0,1,25.3,10.3,36.432,36.432,0,0,1,10.234,22.95c.433,6.365.738,12.74,1,19.115.224,5.369-1.6,10.214-4.076,14.869-.768,1.444-1.441,2.938-2.157,4.409l-.38.553h0q-1.373,2.289-2.747,4.577l-.424.6.011-.012A43.106,43.106,0,0,1,464.474,147.815ZM414,142.7l-.037-.014c1.325,1.858,2.91,3.545,5.213,3.9a70.627,70.627,0,0,0,7.434.413c8.672-.075,17.351-.391,26.014-.152,7.651.212,13.426-3.365,18.827-8.061,4.164-3.621,5.715-8.88,8.217-13.521,3.323-6.163,2.385-12.922,2.272-19.539q-.183-2.978-.367-5.954c-.777-4.293-1.339-8.639-2.4-12.862a20.005,20.005,0,0,0-5.406-9.357,2.98,2.98,0,0,0-.379-.888c-5.611-6.1-11.86-10.916-20.752-10.745-5.008.1-10.025-.167-15.028.013-3.575.129-7.133.726-10.7,1.114a30.073,30.073,0,0,0-3.049.653,46.875,46.875,0,0,0-16.258,9.238l-.414.564.013-.021c-3.669,2.767-6.325,6.414-8.887,10.154A13.11,13.11,0,0,0,395.67,94.9c-.073,5.341.176,10.654,1.846,15.8,1.02,3.148,1.957,6.323,2.931,9.486.4,2.109.771,4.225,1.217,6.325a10.05,10.05,0,0,0,.924,3.091c1.337,2.221,3.284,4.157,4.23,6.512,1.309,3.26,3.779,4.854,6.656,6.215Z" fill="#27251f"/>
      <path id="Path_5926" data-name="Path 5926" d="M464.474,147.815a43.106,43.106,0,0,0,11.5-8.317c.023.193.121.413.059.573C474.685,143.6,468.2,147.933,464.474,147.815Z" fill="#f1f1f1"/>
      <path id="Path_5927" data-name="Path 5927" d="M404.712,74.226q-2.545,2.708-5.093,5.411c-.486.513-1.009.99-1.515,1.484.661-3.575,3.283-5.627,5.969-7.612A9.194,9.194,0,0,1,404.712,74.226Z" fill="#f1f1f1"/>
      <path id="Path_5928" data-name="Path 5928" d="M476.388,138.911q1.374-2.289,2.747-4.577-1.269,2.6-2.537,5.2Z" fill="#fbd969"/>
      <path id="Path_5929" data-name="Path 5929" d="M479.137,134.335l.38-.553Z" fill="#fbd969"/>
      <path id="Path_5930" data-name="Path 5930" d="M397.7,81.67l-.429.83Z" fill="#f1f1f1"/>
      <path id="Path_5931" data-name="Path 5931" d="M476.388,138.911l.21.623-.634-.024Z" fill="#f1f1f1"/>
      <path id="Path_5932" data-name="Path 5932" d="M398.114,81.1l-.432.616Z" fill="#f1f1f1"/>
      <path id="Path_5933" data-name="Path 5933" d="M387.084,288.522c.2-3.8.582-7.136.523-10.465-.181-10.121-.558-20.239-.8-30.36-.151-6.232-.154-12.467-.308-18.7q-.334-13.544-.819-27.083c-.078-2.1-.606-4.175-.767-6.273-.306-4-.527-8-.7-12a2.236,2.236,0,0,1,.8-1.442c1.977-1.787,1.889-2.6-.969-3.9a17.024,17.024,0,0,1,2-.287c4.362-.017,8.735.193,13.084-.048,8.728-.485,17.442-1.213,26.162-1.839,4.075-.292,8.147-.749,12.227-.839,16.226-.359,32.455-.6,48.683-.884a4.42,4.42,0,0,1,.721.189V288.522ZM454.9,196.9c.057.072.177.225.3.377a6.227,6.227,0,0,0,6.882,1.993,7.461,7.461,0,0,0,3.824-7.224c-.438-2.788-3-2.487-4.916-3.085-.061-.019-.129-.013-.192-.026-3.222-.683-5.838-.175-6.985,3.427-.12.375-.671.614-1.25,1.112,0-2.964.134-5.543-.063-8.1a5.992,5.992,0,0,0-1.4-3.093,2.149,2.149,0,0,0-2.116-.3,2.936,2.936,0,0,0-.491,2.2c.18,2.077.524,4.141.866,6.671-2.961-.948-4.5.233-5.368,2.169a19.622,19.622,0,0,0-.937,4.217,2.384,2.384,0,0,0,1.769,2.736c1.785.7,3.71,1.073,5.513-.043C451.832,199,453.271,197.983,454.9,196.9Zm5.74,70.937-.565-.191c0-1.675-.09-3.356.031-5.022.085-1.188.056-2.119-1.377-2.335A2.063,2.063,0,0,0,456.234,262a13.45,13.45,0,0,0,1.022,8.785,3.136,3.136,0,0,0,4.967,1.022,12.452,12.452,0,0,0,1.849-2.028c2.266-3.037,4.426-6.154,6.754-9.14,1.817-2.33,3.88-4.468,5.705-6.792.383-.488.5-1.9.238-2.059-1.205-.736-2.579-1.062-3.714.281-2.25,2.666-4.566,5.279-6.727,8.015C464.343,262.6,462.527,265.244,460.636,267.833Zm-.87-24.223c-.329-2.353-.681-4.273-.84-6.209-.1-1.235-.651-2.068-1.79-1.7-.8.261-1.989,1.322-1.934,1.93a45.35,45.35,0,0,0,1.446,8.491,2.933,2.933,0,0,0,5,1.251,18.29,18.29,0,0,0,1.985-2.186c3.56-4.543,7.126-9.083,10.6-13.69.433-.575.735-1.967.43-2.245-.9-.814-2.163-1.452-3.308-.258a43.281,43.281,0,0,0-2.831,3.3C465.691,235.923,462.888,239.574,459.766,243.61Zm-2.015-24a6.084,6.084,0,0,1-1.354-5.028c.119-1.251-.4-2.315-1.615-2.184a2.915,2.915,0,0,0-2.047,1.815,10.592,10.592,0,0,0,2.692,8.931,2.446,2.446,0,0,0,4.054.08c3.186-4.1,6.261-8.28,9.317-12.475a1.581,1.581,0,0,0-.041-1.51,2.449,2.449,0,0,0-3.722.452c-1.053,1.5-2.054,3.042-3.141,4.519C460.585,215.987,459.209,217.716,457.751,219.609ZM412.7,201.12c2.792-.341,3.238-.8,3.236-2.832,0-2.446.018-4.891,0-7.337-.019-2.186.667-3.843,2.964-4.554a17.487,17.487,0,0,0,2.855-1.31c1.332-.7,1.416-1.771.066-2.413a3.686,3.686,0,0,0-2.537-.1c-3.7,1.268-7.362,2.665-11.022,4.054-.6.226-1.381.516-1.615,1a4.47,4.47,0,0,0-.306,2.466c.027.193,1.275.4,1.906.284,1.36-.241,2.683-.684,4.457-1.161Zm15.551,19.615.022.333c3.091-.18,6.191-.277,9.267-.6.819-.086,1.567-.859,2.347-1.316a18.869,18.869,0,0,0-2.261-2.39c-.363-.278-1.143-.028-1.732.009-.786.051-1.569.163-2.355.188-5.468.177-10.939.293-16.4.567a2.266,2.266,0,0,0-1.628,1.461,2.7,2.7,0,0,0,1.021,2.039,3.4,3.4,0,0,0,2.093.324C421.838,221.184,425.046,220.947,428.255,220.735Zm-29.637,43.846c-.908,1.15-1.693,2.273-2.61,3.275-1.6,1.744-1.629,2.846-.23,4.373-.275,1.218-.933,2.415-.609,3.212.284.7,1.646,1.244,2.578,1.327,1.857.167,4.041-1.624,4.608-3.424.639-2.031.176-3.122-2.019-4.675.456-.786.958-1.556,1.365-2.373a4.023,4.023,0,0,0,.006-4.284c-1.022-1.484-2.714-1.43-4.252-1.334a1.933,1.933,0,0,0-1.39,1.244,3,3,0,0,0,.709,2.028C397.069,264.32,397.817,264.33,398.618,264.581Zm43.766,6.49c-1.735-2.869-1.734-2.793-4.635-2.749-5.223.078-10.448.08-15.672.059-1.351-.005-2.5.277-2.527,1.8-.026,1.6,1.135,2.042,2.576,2.037,5.279-.02,10.56.065,15.837-.057A21.546,21.546,0,0,0,442.384,271.071Zm-23.911-75.559c-.1,3.405.571,4.181,3.583,4.428,4.063.334,7.182-4.351,7.2-7.627a3.211,3.211,0,0,0-1.182-2.122c-2.022-1.653-4.322-1.151-6.564-.5-2.81.819-3.043,1.156-3.035,3.918C418.474,194.071,418.473,194.532,418.473,195.512ZM429.687,242.4v-.006c2.5,0,5.006.12,7.491-.066.866-.064,1.676-.883,2.511-1.357-.869-.676-1.716-1.385-2.623-2.005-.225-.154-.645-.025-.976-.025-5.122-.012-10.244-.057-15.365.01a2,2,0,0,0-1.575,1.025,2.065,2.065,0,0,0,.78,1.761,4.9,4.9,0,0,0,2.427.635C424.8,242.449,427.243,242.4,429.687,242.4Zm-30.141,4.616c.42-.862.82-1.544,1.094-2.273.777-2.07.155-4.53-1.476-5.458-.772-.44-1.788-.446-2.567-.878-1.114-.618-2-.436-2.457.632a1.781,1.781,0,0,0,.984,2.6c.824.312,1.689.517,2.6.789a4.846,4.846,0,0,1-.352,1.412c-.741,1.154-1.7,2.186-2.317,3.395-.409.8-.788,2.053-.435,2.686.362.649,1.612,1,2.513,1.1a10.618,10.618,0,0,0,3.118-.379,15.749,15.749,0,0,0,2.024-.693,15.385,15.385,0,0,0-1.269-2.277C400.73,247.317,400.1,247.247,399.546,247.015Zm42.989-55.892c-1.375-2.06-1.957-2.1-3.942-1.223-1.646.725-3.472,1.028-5.168,1.656a8.075,8.075,0,0,0-1.807,1.324c.572.59,1.1,1.627,1.726,1.7C436.965,194.987,439.826,193.252,442.535,191.123Zm-43.809,27.526h.085a20.592,20.592,0,0,1,.017-2.371c.139-1.2-.267-1.961-1.5-2.081-1.3-.127-1.966.553-2.031,1.844-.085,1.694-.16,3.389-.264,5.082-.061,1.011-.284,2.117,1.3,2.031,1.344-.072,2.512-.378,2.4-2.139C398.684,220.23,398.726,219.438,398.726,218.649Zm4.469-.124c-1.871.6-2.59,1.6-2.713,3.091a1.917,1.917,0,0,0,2.217,1.976,4.85,4.85,0,0,0,2.375-2.744C405.229,220.26,403.827,219.261,403.2,218.525Zm1.668,52.309c-.212,1.516.416,2.272,2.177,2.3,2.063.03,1.607-1.43,1.765-2.563.275-1.97-1.115-1.792-2.381-1.886C404.813,268.563,404.732,269.536,404.863,270.834Zm1.448-20.8.861-.589a19.35,19.35,0,0,0-.537-3.956,3.365,3.365,0,0,0-2.619.178c-.6.564-1.026,2.186-.646,2.724C403.955,249.218,405.293,249.513,406.311,250.034Z" fill="#fdfdfd"/>
      <path id="Path_5934" data-name="Path 5934" d="M383.324,178.831l.734-.4.126.276-.743.265Z" fill="#fdfdfd"/>
      <path id="Path_5935" data-name="Path 5935" d="M512.272,162.916c1.2-1.5,2.176-2.717,3.328-4.157.609,2.645,1.548,4.814,4.113,6l-2.822,3.189C516.034,165.606,515.375,163.243,512.272,162.916Z" fill="#f1f1f1"/>
      <path id="Path_5936" data-name="Path 5936" d="M586.939,189.025a17.308,17.308,0,0,1-1.837,1.406c-5.04,2.9-10.531,3.468-16.194,2.992a1.992,1.992,0,0,1-2.029-2.211c.062-1.431,1.012-1.67,2.221-1.535,4.577.514,9.1.173,13.217-1.944C584.356,186.683,585.6,186.826,586.939,189.025Z" fill="#2b2b2b"/>
      <path id="Path_5937" data-name="Path 5937" d="M578.512,161.446h9.62c1.992,1.5,3.952,3.04,5.987,4.476,1.368.966,2.843,1.781,4.27,2.663-.463,2.954-1.2,5.767-3.88,7.588a20.869,20.869,0,0,0-1.483-1.562c-4.422-3.821-8.871-7.609-13.278-11.447A9.109,9.109,0,0,1,578.512,161.446Z" fill="#bbe8fd"/>
      <path id="Path_5938" data-name="Path 5938" d="M552.017,180.929l-6.005-4.065q-1.428-5.376-2.855-10.753a7.369,7.369,0,0,1,1.451.509c4.672,2.81,9.353,5.606,13.968,8.507a18.316,18.316,0,0,1,2.676,2.531C558.634,180.048,555.267,180.322,552.017,180.929Z" fill="#fcfcfc"/>
      <path id="Path_5939" data-name="Path 5939" d="M578.512,161.446a9.109,9.109,0,0,0,1.236,1.717c4.407,3.838,8.856,7.626,13.278,11.447a20.869,20.869,0,0,1,1.483,1.562c-3.668,2.849-10.54,1.9-13.172-1.816a26.16,26.16,0,0,1-4.945-10.811C576.1,161.784,576.7,161.023,578.512,161.446Z" fill="#fbfbfb"/>
      <path id="Path_5940" data-name="Path 5940" d="M598.389,168.584c-1.427-.882-2.9-1.7-4.27-2.663-2.035-1.436-3.995-2.979-5.987-4.476l11.442.576C599.141,164.421,598.765,166.5,598.389,168.584Z" fill="#fbfbfb"/>
      <path id="Path_5941" data-name="Path 5941" d="M563.857,171.721q-5.1-3.685-10.2-7.365a9.621,9.621,0,0,0-1.175-.627c2.7,0,5.405-.036,8.1.027a1.4,1.4,0,0,1,1.012.794C562.4,166.923,563.115,169.327,563.857,171.721Z" fill="#fbfbfb"/>
      <path id="Path_5942" data-name="Path 5942" d="M481.938,105.73c.113,6.617,1.051,13.376-2.272,19.539-2.5,4.641-4.053,9.9-8.217,13.521-5.4,4.7-11.176,8.273-18.827,8.061-8.663-.239-17.342.077-26.013.152-2.057-.675-4.122-1.331-6.172-2.03-2.166-.74-4.318-1.521-6.476-2.284l.037.014-.524-.373c-2.877-1.361-5.347-2.955-6.656-6.215-.946-2.355-2.893-4.291-4.23-6.512a10.05,10.05,0,0,1-.924-3.091c-.446-2.1-.816-4.216-1.217-6.326.027-2.044.113-4.089.072-6.131-.2-10.007.552-19.862,4.259-29.308.932-2.372,1.624-4.839,2.426-7.262l-.013.021.414-.564A46.875,46.875,0,0,1,423.863,67.7a30.073,30.073,0,0,1,3.049-.653c6.013.045,12.029-.016,18.037.165a41.965,41.965,0,0,1,17.582,4.163c3.826,1.9,7.5,4.108,11.239,6.178a20.005,20.005,0,0,1,5.406,9.357c1.056,4.223,1.618,8.569,2.4,12.862-1.735-2.042-1.735-2.042-4.16-.285a13.161,13.161,0,0,0-3.167-1.639,27.361,27.361,0,0,0-4.128-.069c-1.2-.067-2.017.371-2.046,1.571a1.955,1.955,0,0,0,2,2.223c1.3.049,2.6.01,3.893.01l.454.614c-1.078,1.4-2.208,2.766-3.209,4.219a5.192,5.192,0,0,0-.658,1.9c1.182.525,1.872,2.518,3.689,1.32.286-.189.844.035,1.367.074-1.042,2.367-3.483,1.531-5.192,2.455.46,1.355.112,3.432,2.1,3.3,3.837-.258,7.654-2.619,6.872-7.284ZM416.327,125.5c-.771,1.45-1.426,2.987.336,4.1.54.342,1.97.266,2.222-.12a4.415,4.415,0,0,0,.864-3.143c-.176-.589-1.823-.739-2.811-1.086l.14-2.442-.021-1.169-.083-11.166-.221-1.167-1.218-.521-2.416-2.242-1.155-.619c-2.336-.5-4.472,0-5.586,2.149-.8,1.547-.928,3.443-1.357,5.184l.613,1.2c1.693,2.923,4.783,3.38,7.514,1.112l.588.044.084,5.988.052.851.455,2.375Zm37.446-32.424c.458.729.786,1.779,1.218,1.823.8.083,2.172-.187,2.419-.721a19.953,19.953,0,0,0,1.729-5.576c.261-1.918-1.809-4.086-3.188-3.664-2.556.781-5.045,1.789-7.619,2.494-1.614.442-1.951,1.141-1.45,2.687.5,1.528,1.267,1.583,2.522.987a5.5,5.5,0,0,1,1.837-.03c-2.468,2.745-4.717,5.313-7.04,7.811-1.855,1.994-3.553,4.1-6.223,5.271-1.086.479-1.861,2.135-2.336,3.419-.7,1.894.931,4.329,3.8,3.8,2.336-.433,4.238-2.04,6.927-1.706,4.038.5,8.163.311,12.251.426a8.933,8.933,0,0,1,1.1.173c-1.63,1.534-3.12,2.938-4.657,4.386,1.957,1.479,2.953,1.765,3.859.74,1.683-1.9,4.983-2.676,4.511-6.153-.008-.06-.083-.108-.1-.169-.751-2.786-2.98-4.172-5.279-5.428a7.447,7.447,0,0,0-2.411-.266c.2,1.346.353,2.415.526,3.6l-12.22-.54c.084-1.017-.212-2.318.306-2.92C447.338,99.934,450.606,96.513,453.773,93.079Zm-14.422,42.108a2.65,2.65,0,0,1,1.768-3.3c1.187-.472,1.7-1.39,1.02-2.5a1.908,1.908,0,0,0-2.758-.658c-1.935,1.027-3.529,2.239-3.557,4.732-.022,1.969-.361,3.944-.275,5.9.181,4.112,3.119,6.084,7.12,6.295,2.875.151,5.02-2.634,5.054-6.155.023-2.42-1.1-3.956-3.449-4.275A38,38,0,0,0,439.351,135.187Zm5.894-56.775c.365-.466.475-.605.584-.746,1.962-2.527,2-5.271.1-7.56-1.34-1.615-5.678-2.153-7.749-.966-.926.531-1.829,1.289-1.059,2.313.429.571,1.57.738,2.416.825.742.077,1.55-.4,2.274-.286.682.107,1.728.571,1.834,1.05a3.207,3.207,0,0,1-.6,2.427,32.361,32.361,0,0,1-2.854,2.4c-.57.543-1.481,1.607-1.315,1.884.562.938,1.519,2.276,2.355,2.3a78.641,78.641,0,0,0,9.391-.549c.511-.048,1.38-.692,1.362-1.02a2.627,2.627,0,0,0-.962-1.8,3.9,3.9,0,0,0-2.059-.421C447.851,78.239,446.734,78.346,445.245,78.412Zm-14.863-2.735.308.166c.152,1.3.294,2.6.46,3.9.194,1.513,1.21,1.748,2.181.97a4.183,4.183,0,0,0,1.106-2.421c.278-1.564.041-3.272.561-4.725.417-1.166.417-2.1-.534-2.477a2.675,2.675,0,0,0-2.489.545A19.036,19.036,0,0,0,430.382,75.677Zm-9.8,10.532c2.359.073,3.36-1.021,3.157-3.172-.048-.51-.3-1.421-.5-1.429-1.067-.045-2.556-.275-3.133.312C418.783,83.27,419.53,84.851,420.578,86.209Zm-3.434,9.105a17.077,17.077,0,0,0-1-4.093c-.153-.305-2.273-.174-2.739.383a3.735,3.735,0,0,0-.268,3.007C413.76,96.641,415.35,95.338,417.144,95.314Zm53.8-11.9c-1.179.307-2.774.272-3.4,1.034-.477.581.118,2.239.564,3.277.157.366,1.408.612,1.954.4C472.043,87.333,470.913,85.514,470.945,83.414ZM465.231,77.3c-1.391-.623-2.229-1.3-3.076-1.315-1.768-.023-1.921,1.628-1.995,2.822a1.733,1.733,0,0,0,2.329,1.764C463.485,80.139,464.07,78.762,465.231,77.3Zm-35.37,55.923c-.166-1,.455-2.523-1.548-2.453-1.354.047-2.5.179-2.434,2.008.05,1.347.616,2.559,1.827,2.655C428.739,135.516,430.38,135.2,429.861,133.224Zm37.2-6.4.889-.61a14.077,14.077,0,0,0-.473-3.956c-.144-.362-2.22-.462-2.857.032a2.847,2.847,0,0,0-.437,2.789C464.738,125.928,466.067,126.268,467.063,126.826Zm-2.774,6.94c-.688-.6.544-2.689-1.565-2.471-.992.1-2.631.065-2.491,1.763.1,1.259.194,2.948,2.094,2.827C463.283,135.824,464.535,135.516,464.289,133.766Z" fill="#fdfdfd"/>
      <path id="Path_5943" data-name="Path 5943" d="M407.2,77.485c-.8,2.423-1.494,4.89-2.426,7.262-3.707,9.446-4.459,19.3-4.259,29.308.041,2.042-.045,4.087-.072,6.131-.974-3.162-1.911-6.337-2.931-9.485-1.67-5.15-1.919-10.463-1.846-15.8a13.11,13.11,0,0,1,2.647-7.258C400.879,83.9,403.535,80.252,407.2,77.485Z" fill="#fcd864"/>
      <path id="Path_5944" data-name="Path 5944" d="M473.77,77.557c-3.741-2.07-7.413-4.279-11.239-6.178a41.965,41.965,0,0,0-17.582-4.163c-6.008-.181-12.024-.12-18.037-.165,3.566-.388,7.124-.985,10.7-1.114,5-.18,10.02.084,15.028-.013,8.892-.171,15.141,4.649,20.752,10.745A2.98,2.98,0,0,1,473.77,77.557Z" fill="#fbd969"/>
      <path id="Path_5945" data-name="Path 5945" d="M481.938,105.73l-2.558,2.449-2.467-2.9a6.7,6.7,0,0,0,.5-5.793c2.425-1.757,2.425-1.757,4.16.285Q481.754,102.754,481.938,105.73Z" fill="#cce9f7"/>
      <path id="Path_5946" data-name="Path 5946" d="M413.961,142.689c2.158.763,4.31,1.544,6.476,2.284,2.05.7,4.115,1.355,6.172,2.03a70.631,70.631,0,0,1-7.435-.413C416.871,146.234,415.286,144.547,413.961,142.689Z" fill="#fbd969"/>
      <path id="Path_5947" data-name="Path 5947" d="M407.605,76.942l-.414.564Z" fill="#fcd864"/>
      <path id="Path_5948" data-name="Path 5948" d="M413.474,142.33l.524.373Z" fill="#fbd969"/>
      <path id="Path_5949" data-name="Path 5949" d="M454.9,196.9c-1.625,1.087-3.064,2.108-4.562,3.035-1.8,1.116-3.728.74-5.513.043a2.384,2.384,0,0,1-1.769-2.736,19.622,19.622,0,0,1,.937-4.217c.867-1.936,2.407-3.117,5.368-2.169-.342-2.53-.686-4.594-.866-6.671a2.936,2.936,0,0,1,.491-2.2,2.149,2.149,0,0,1,2.116.3,5.992,5.992,0,0,1,1.4,3.093c.2,2.554.063,5.133.063,8.1.579-.5,1.13-.737,1.25-1.112,1.147-3.6,3.763-4.11,6.985-3.427.063.013.131.007.192.026,1.916.6,4.478.3,4.916,3.085a7.461,7.461,0,0,1-3.824,7.224,6.227,6.227,0,0,1-6.882-1.993C455.073,197.121,454.953,196.968,454.9,196.9Zm7.192-3.8c-1.171-.3-2.145-.6-3.142-.779a1.556,1.556,0,0,0-.953.371c.2.966.206,2.228.827,2.786a1.626,1.626,0,0,0,2.624-.646C461.715,194.264,461.887,193.648,462.088,193.1Zm-12.027,3.657c-.889-1.239-1.447-2.018-2.005-2.8l-1.766,2.534.459.562Z" fill="#262626"/>
      <path id="Path_5950" data-name="Path 5950" d="M460.636,267.833c1.891-2.589,3.707-5.236,5.692-7.751,2.161-2.736,4.477-5.349,6.727-8.015,1.135-1.343,2.509-1.017,3.714-.281.264.161.145,1.571-.238,2.059-1.825,2.324-3.888,4.462-5.705,6.792-2.328,2.986-4.488,6.1-6.754,9.14a12.452,12.452,0,0,1-1.849,2.028,3.136,3.136,0,0,1-4.967-1.022A13.45,13.45,0,0,1,456.234,262a2.063,2.063,0,0,1,2.491-1.713c1.433.216,1.462,1.147,1.377,2.335-.121,1.666-.031,3.347-.031,5.022Z" fill="#dd281b"/>
      <path id="Path_5951" data-name="Path 5951" d="M459.766,243.61c3.122-4.036,5.925-7.687,8.761-11.312a43.281,43.281,0,0,1,2.831-3.3c1.145-1.194,2.411-.556,3.308.258.305.278,0,1.67-.43,2.245-3.477,4.607-7.043,9.147-10.6,13.69a18.29,18.29,0,0,1-1.985,2.186,2.933,2.933,0,0,1-5-1.251,45.35,45.35,0,0,1-1.446-8.491c-.055-.608,1.129-1.669,1.934-1.93,1.139-.368,1.689.465,1.79,1.7C459.085,239.337,459.437,241.257,459.766,243.61Z" fill="#dd281b"/>
      <path id="Path_5952" data-name="Path 5952" d="M457.751,219.609c1.458-1.893,2.834-3.622,4.143-5.4,1.087-1.477,2.088-3.017,3.141-4.519a2.449,2.449,0,0,1,3.722-.452,1.581,1.581,0,0,1,.041,1.51c-3.056,4.195-6.131,8.378-9.317,12.475a2.446,2.446,0,0,1-4.054-.08,10.592,10.592,0,0,1-2.692-8.931,2.915,2.915,0,0,1,2.047-1.815c1.216-.131,1.734.933,1.615,2.184A6.084,6.084,0,0,0,457.751,219.609Z" fill="#dd281b"/>
      <path id="Path_5953" data-name="Path 5953" d="M412.7,201.12V189.213c-1.774.477-3.1.92-4.457,1.161-.631.112-1.879-.091-1.906-.284a4.47,4.47,0,0,1,.306-2.466c.234-.485,1.019-.775,1.615-1,3.66-1.389,7.319-2.786,11.022-4.054a3.686,3.686,0,0,1,2.537.1c1.35.642,1.266,1.717-.066,2.413a17.487,17.487,0,0,1-2.855,1.31c-2.3.711-2.983,2.368-2.964,4.554.022,2.446,0,4.891,0,7.337C415.942,200.32,415.5,200.779,412.7,201.12Z" fill="#272727"/>
      <path id="Path_5954" data-name="Path 5954" d="M428.255,220.735c-3.209.212-6.417.449-9.628.618a3.4,3.4,0,0,1-2.093-.324,2.7,2.7,0,0,1-1.021-2.039,2.266,2.266,0,0,1,1.628-1.461c5.463-.274,10.934-.39,16.4-.567.786-.025,1.569-.137,2.355-.188.589-.037,1.369-.287,1.732-.009a18.869,18.869,0,0,1,2.261,2.39c-.78.457-1.528,1.23-2.347,1.316-3.076.32-6.176.417-9.267.6Z" fill="#272727"/>
      <path id="Path_5955" data-name="Path 5955" d="M398.618,264.581c-.8-.251-1.549-.261-1.844-.631a3,3,0,0,1-.709-2.028,1.933,1.933,0,0,1,1.39-1.244c1.538-.1,3.23-.15,4.252,1.334a4.023,4.023,0,0,1-.006,4.284c-.407.817-.909,1.587-1.365,2.373,2.2,1.553,2.658,2.644,2.019,4.675-.567,1.8-2.751,3.591-4.608,3.424-.932-.083-2.294-.63-2.578-1.327-.324-.8.334-1.994.609-3.212-1.4-1.527-1.365-2.629.23-4.373C396.925,266.854,397.71,265.731,398.618,264.581Z" fill="#262626"/>
      <path id="Path_5956" data-name="Path 5956" d="M442.384,271.071a21.546,21.546,0,0,1-4.421,1.094c-5.277.122-10.558.037-15.837.057-1.441.005-2.6-.434-2.576-2.037.025-1.527,1.176-1.809,2.527-1.8,5.224.021,10.449.019,15.672-.059C440.65,268.278,440.649,268.2,442.384,271.071Z" fill="#2b2b2b"/>
      <path id="Path_5957" data-name="Path 5957" d="M418.473,195.512c0-.98,0-1.441,0-1.9-.008-2.762.225-3.1,3.035-3.918,2.242-.653,4.542-1.155,6.564.5a3.211,3.211,0,0,1,1.182,2.122c-.015,3.276-3.134,7.961-7.2,7.627C419.044,199.693,418.368,198.917,418.473,195.512Zm3.191,1.216c2.2.094,3.277-1.281,4.063-3.057.454-1.027-.1-1.281-.985-1.337C422.216,192.177,421.354,193.378,421.664,196.728Z" fill="#282828"/>
      <path id="Path_5958" data-name="Path 5958" d="M429.687,242.4c-2.444,0-4.889.05-7.33-.028a4.9,4.9,0,0,1-2.427-.635,2.065,2.065,0,0,1-.78-1.761,2,2,0,0,1,1.575-1.025c5.121-.067,10.243-.022,15.365-.01.331,0,.751-.129.976.025.907.62,1.754,1.329,2.623,2.005-.835.474-1.645,1.293-2.511,1.357-2.485.186-4.993.066-7.491.066Z" fill="#2b2b2b"/>
      <path id="Path_5959" data-name="Path 5959" d="M399.546,247.015c.553.232,1.184.3,1.459.653a15.385,15.385,0,0,1,1.269,2.277,15.749,15.749,0,0,1-2.024.693,10.618,10.618,0,0,1-3.118.379c-.9-.093-2.151-.446-2.513-1.1-.353-.633.026-1.885.435-2.686.619-1.209,1.576-2.241,2.317-3.395a4.846,4.846,0,0,0,.352-1.412c-.91-.272-1.775-.477-2.6-.789a1.781,1.781,0,0,1-.984-2.6c.453-1.068,1.343-1.25,2.457-.632.779.432,1.8.438,2.567.878,1.631.928,2.253,3.388,1.476,5.458C400.366,245.471,399.966,246.153,399.546,247.015Z" fill="#282828"/>
      <path id="Path_5960" data-name="Path 5960" d="M442.535,191.123c-2.709,2.129-5.57,3.864-9.191,3.455-.631-.071-1.154-1.108-1.726-1.7a8.075,8.075,0,0,1,1.807-1.324c1.7-.628,3.522-.931,5.168-1.656C440.578,189.026,441.16,189.063,442.535,191.123Z" fill="#2b2b2b"/>
      <path id="Path_5961" data-name="Path 5961" d="M398.726,218.649c0,.789-.042,1.581.008,2.366.112,1.761-1.056,2.067-2.4,2.139-1.584.086-1.361-1.02-1.3-2.031.1-1.693.179-3.388.264-5.082.065-1.291.728-1.971,2.031-1.844,1.232.12,1.638.882,1.5,2.081a20.592,20.592,0,0,0-.017,2.371Z" fill="#2b2b2b"/>
      <path id="Path_5962" data-name="Path 5962" d="M403.2,218.525c.632.736,2.034,1.735,1.879,2.323a4.85,4.85,0,0,1-2.375,2.744,1.917,1.917,0,0,1-2.217-1.976C400.605,220.121,401.324,219.121,403.2,218.525Z" fill="#181818"/>
      <path id="Path_5963" data-name="Path 5963" d="M404.863,270.834c-.131-1.3-.05-2.271,1.561-2.152,1.266.094,2.656-.084,2.381,1.886-.158,1.133.3,2.593-1.765,2.563C405.279,273.106,404.651,272.35,404.863,270.834Z" fill="#181818"/>
      <path id="Path_5964" data-name="Path 5964" d="M406.311,250.034c-1.018-.521-2.356-.816-2.941-1.643-.38-.538.045-2.16.646-2.724a3.365,3.365,0,0,1,2.619-.178,19.35,19.35,0,0,1,.537,3.956Z" fill="#181818"/>
      <path id="Path_5965" data-name="Path 5965" d="M453.773,93.079c-3.167,3.434-6.435,6.855-9.515,10.437-.518.6-.222,1.9-.306,2.92l12.22.54c-.173-1.181-.329-2.25-.526-3.6a7.447,7.447,0,0,1,2.411.266c2.3,1.256,4.528,2.642,5.279,5.428.017.061.092.109.1.169.472,3.477-2.828,4.252-4.511,6.153-.906,1.025-1.9.739-3.859-.74,1.537-1.448,3.027-2.852,4.657-4.386a8.933,8.933,0,0,0-1.1-.173c-4.088-.115-8.213.076-12.251-.426-2.689-.334-4.591,1.273-6.927,1.706-2.874.532-4.506-1.9-3.8-3.8.475-1.284,1.25-2.94,2.336-3.419,2.67-1.176,4.368-3.277,6.223-5.271,2.323-2.5,4.572-5.066,7.04-7.811a5.5,5.5,0,0,0-1.837.03c-1.255.6-2.027.541-2.522-.987-.5-1.546-.164-2.245,1.45-2.687,2.574-.7,5.063-1.713,7.619-2.494,1.379-.422,3.449,1.746,3.188,3.664a19.953,19.953,0,0,1-1.729,5.576c-.247.534-1.614.8-2.419.721C454.559,94.858,454.231,93.808,453.773,93.079Z" fill="#242424"/>
      <path id="Path_5966" data-name="Path 5966" d="M439.351,135.187a38,38,0,0,1,4.923.04c2.351.319,3.472,1.855,3.449,4.275-.034,3.521-2.179,6.306-5.054,6.155-4-.211-6.939-2.183-7.12-6.295-.086-1.96.253-3.935.275-5.9.028-2.493,1.622-3.7,3.557-4.732a1.908,1.908,0,0,1,2.758.658c.681,1.111.167,2.029-1.02,2.5A2.65,2.65,0,0,0,439.351,135.187Zm5.078,4.047-.653-.856-4.667,1.6c1.114,1.7,2.47,2.36,3.782,1.86C443.627,141.558,443.93,140.14,444.429,139.234Z" fill="#272727"/>
      <path id="Path_5967" data-name="Path 5967" d="M477.411,99.491a6.7,6.7,0,0,1-.5,5.793l2.467,2.9c.782,4.665-3.035,7.026-6.872,7.284-1.984.134-1.636-1.943-2.1-3.3,1.709-.924,4.15-.088,5.192-2.455-.523-.039-1.081-.263-1.367-.074-1.817,1.2-2.507-.795-3.689-1.32a5.192,5.192,0,0,1,.658-1.9c1-1.453,2.131-2.818,3.209-4.219l-.454-.614c-1.3,0-2.6.039-3.893-.01a1.955,1.955,0,0,1-2-2.223c.029-1.2.844-1.638,2.046-1.571a27.361,27.361,0,0,1,4.128.069A13.161,13.161,0,0,1,477.411,99.491Z" fill="#282828"/>
      <path id="Path_5968" data-name="Path 5968" d="M413.119,106.551l2.416,2.242,1.218.521.221,1.167a11.229,11.229,0,0,0-.822,2.208,16.724,16.724,0,0,0-.323,4.321,30.481,30.481,0,0,0,1.228,4.637l.021,1.169-2.751,2.019-.455-2.375-.052-.851-.084-5.988.167-.9-.293-.1-.462.946c-2.731,2.268-5.821,1.811-7.514-1.112l-.613-1.2c.429-1.741.556-3.637,1.357-5.184,1.114-2.15,3.25-2.651,5.586-2.149Zm-1.2,5.491.453-.747-1.167-2.061-.683-.657-.538.621-1.577,3.692.855.767,1.145.063c1.958.743,1.443-.743,1.524-1.691Z" fill="#181818"/>
      <path id="Path_5969" data-name="Path 5969" d="M445.245,78.412c1.489-.066,2.606-.173,3.72-.145a3.9,3.9,0,0,1,2.059.421,2.627,2.627,0,0,1,.962,1.8c.018.328-.851.972-1.362,1.02a78.641,78.641,0,0,1-9.391.549c-.836-.022-1.793-1.36-2.355-2.3-.166-.277.745-1.341,1.315-1.884a32.361,32.361,0,0,0,2.854-2.4,3.207,3.207,0,0,0,.6-2.427c-.106-.479-1.152-.943-1.834-1.05-.724-.114-1.532.363-2.274.286-.846-.087-1.987-.254-2.416-.825-.77-1.024.133-1.782,1.059-2.313,2.071-1.187,6.409-.649,7.749.966,1.9,2.289,1.863,5.033-.1,7.56C445.72,77.807,445.61,77.946,445.245,78.412Z" fill="#282828"/>
      <path id="Path_5970" data-name="Path 5970" d="M430.382,75.677a19.036,19.036,0,0,1,1.593-4.044,2.675,2.675,0,0,1,2.489-.545c.951.376.951,1.311.534,2.477-.52,1.453-.283,3.161-.561,4.725a4.183,4.183,0,0,1-1.106,2.421c-.971.778-1.987.543-2.181-.97-.166-1.3-.308-2.6-.46-3.9Z" fill="#2b2b2b"/>
      <path id="Path_5971" data-name="Path 5971" d="M420.578,86.209c-1.048-1.358-1.8-2.939-.472-4.289.577-.587,2.066-.357,3.133-.312.192.008.448.919.5,1.429C423.938,85.188,422.937,86.282,420.578,86.209Z" fill="#181818"/>
      <path id="Path_5972" data-name="Path 5972" d="M416.938,125.258c.988.347,2.635.5,2.811,1.086a4.415,4.415,0,0,1-.864,3.143c-.252.386-1.682.462-2.222.12-1.762-1.117-1.107-2.654-.336-4.1Z" fill="#181818"/>
      <path id="Path_5973" data-name="Path 5973" d="M417.144,95.314c-1.794.024-3.384,1.327-4.007-.7A3.735,3.735,0,0,1,413.4,91.6c.466-.557,2.586-.688,2.739-.383A17.077,17.077,0,0,1,417.144,95.314Z" fill="#181818"/>
      <path id="Path_5974" data-name="Path 5974" d="M470.945,83.414c-.032,2.1,1.1,3.919-.882,4.706-.546.217-1.8-.029-1.954-.4-.446-1.038-1.041-2.7-.564-3.277C468.171,83.686,469.766,83.721,470.945,83.414Z" fill="#181818"/>
      <path id="Path_5975" data-name="Path 5975" d="M465.231,77.3c-1.161,1.461-1.746,2.838-2.742,3.271a1.733,1.733,0,0,1-2.329-1.764c.074-1.194.227-2.845,1.995-2.822C463,76,463.84,76.678,465.231,77.3Z" fill="#181818"/>
      <path id="Path_5976" data-name="Path 5976" d="M429.861,133.224c.519,1.976-1.122,2.292-2.155,2.21-1.211-.1-1.777-1.308-1.827-2.655-.068-1.829,1.08-1.961,2.434-2.008C430.316,130.7,429.7,132.222,429.861,133.224Z" fill="#181818"/>
      <path id="Path_5977" data-name="Path 5977" d="M467.063,126.826c-1-.558-2.325-.9-2.878-1.745a2.847,2.847,0,0,1,.437-2.789c.637-.494,2.713-.394,2.857-.032a14.077,14.077,0,0,1,.473,3.956Z" fill="#181818"/>
      <path id="Path_5978" data-name="Path 5978" d="M464.289,133.766c.246,1.75-1.006,2.058-1.962,2.119-1.9.121-1.99-1.568-2.094-2.827-.14-1.7,1.5-1.66,2.491-1.763C464.833,131.077,463.6,133.171,464.289,133.766Z" fill="#181818"/>
      <path id="Path_5979" data-name="Path 5979" d="M417.057,121.647a30.481,30.481,0,0,1-1.228-4.637,16.724,16.724,0,0,1,.323-4.321,11.229,11.229,0,0,1,.822-2.208Q417.015,116.064,417.057,121.647Z" fill="#313131"/>
      <path id="Path_5980" data-name="Path 5980" d="M416.938,125.258l-.611.245-2-.668,2.751-2.019Z" fill="#313131"/>
      <path id="Path_5981" data-name="Path 5981" d="M413.148,115.577l.462-.946.293.1-.167.9Z" fill="#313131"/>
      <path id="Path_5982" data-name="Path 5982" d="M413.119,106.551l-1.155-.619Z" fill="#313131"/>
      <path id="Path_5983" data-name="Path 5983" d="M416.753,109.314l-1.218-.521Z" fill="#313131"/>
      <path id="Path_5984" data-name="Path 5984" d="M405.021,113.265l.613,1.2Z" fill="#313131"/>
      <path id="Path_5985" data-name="Path 5985" d="M413.82,121.609l.052.851Z" fill="#313131"/>
      <path id="Path_5986" data-name="Path 5986" d="M462.088,193.1c-.2.548-.373,1.164-.644,1.732a1.626,1.626,0,0,1-2.624.646c-.621-.558-.626-1.82-.827-2.786a1.556,1.556,0,0,1,.953-.371C459.943,192.5,460.917,192.8,462.088,193.1Z" fill="#f1f1f1"/>
      <path id="Path_5987" data-name="Path 5987" d="M450.061,196.757l-3.312.3-.459-.562,1.766-2.534C448.614,194.739,449.172,195.518,450.061,196.757Z" fill="#f1f1f1"/>
      <path id="Path_5988" data-name="Path 5988" d="M421.664,196.728c-.31-3.35.552-4.551,3.078-4.394.887.056,1.439.31.985,1.337C424.941,195.447,423.864,196.822,421.664,196.728Z" fill="#f1f1f1"/>
      <path id="Path_5989" data-name="Path 5989" d="M444.429,139.234c-.5.906-.8,2.324-1.538,2.6-1.312.5-2.668-.156-3.782-1.86l4.667-1.6Z" fill="#f1f1f1"/>
      <path id="Path_5990" data-name="Path 5990" d="M408.407,112.89l1.577-3.692,1.221.036,1.167,2.061-.453.747.012-.013-1.524,1.691-1.145-.063Z" fill="#f1f1f1"/>
      <path id="Path_5991" data-name="Path 5991" d="M410.407,113.72l1.524-1.691C411.85,112.977,412.365,114.463,410.407,113.72Z" fill="#313131"/>
      <path id="Path_5992" data-name="Path 5992" d="M411.2,109.234l-1.221-.036.538-.621Z" fill="#313131"/>
      <path id="Path_5993" data-name="Path 5993" d="M408.407,112.89l.855.767Z" fill="#313131"/>
      <path id="Path_5994" data-name="Path 5994" d="M411.919,112.042l.453-.747Z" fill="#313131"/>
    </g>
  </g>
</svg>
