<svg xmlns="http://www.w3.org/2000/svg" xmlns:xlink="http://www.w3.org/1999/xlink" width="320" height="320" viewBox="0 0 320 320">
  <defs>
    <clipPath id="clip-_1502">
      <rect width="320" height="320"/>
    </clipPath>
  </defs>
  <g id="_1502" data-name="1502" clip-path="url(#clip-_1502)">
    <rect width="320" height="320" fill="#fff"/>
    <g id="Group_38" data-name="Group 38" transform="translate(107.781 2035.25)">
      <path id="Path_10159" data-name="Path 10159" d="M-97.779-1886.945q0-41.022,0-82.045,0-16.905.057-33.809.041-9.65.237-19.3c.04-2.1,1.227-3.122,3.419-3.121,7.68,0,15.36.031,23.04.032q43.781.008,87.563.008c9.644,0,19.288.089,28.932.083q50.225-.035,100.448-.105c16.8-.014,33.612-.15,50.414.106,4.449.068,5.615,1.335,5.584,5.361-.084,10.912-.034,21.825.021,32.737.049,9.922.235,19.843.253,29.764q.063,36.245.025,72.49,0,51.138-.015,102.277c0,9.918.022,19.836-.043,29.753-.051,7.774-.208,15.546-.354,23.319a22.682,22.682,0,0,1-.418,2.294,2.223,2.223,0,0,1-2.579,2.134c-4.352-.059-8.705-.126-13.057-.15-29.723-.161-59.446-.381-89.169-.449-33.708-.076-67.416-.011-101.124-.009-12.447,0-24.894-.044-37.34.015-10.314.049-20.627.289-30.941.313-7.33.018-14.661-.174-21.991-.291-2.315-.037-2.68-.541-2.678-2.85.008-7.728-.047-15.457-.076-23.185-.066-17.458-.167-34.917-.187-52.375q-.047-41.5-.008-83ZM145.8-2020.87l-7.911-.366c-4.079.085-8.158.257-12.236.232-5.736-.035-11.472-.3-17.209-.314-6.72-.014-13.441.181-20.161.207-4.016.015-8.032-.122-12.047-.19l-6.391.054c-.528.026-1.056.078-1.584.075-11.317-.056-22.634-.168-33.951-.165-8.786,0-17.573.164-26.359.226-6.744.046-13.488.03-20.232.073-5.995.038-11.991.189-17.985.161-4.725-.023-9.448-.3-14.174-.363q-7.911-.112-15.826-.044c-7.469.06-14.937.213-22.406.293-3.681.04-7.363.007-11.213.007,0,1.385,0,2.5,0,3.607q.038,32.23.072,64.461c0,19.293-.049,38.586-.053,57.879,0,11.949.051,23.9.062,35.847.013,14.934.046,29.868-.012,44.8-.019,5.027-.264,10.054-.455,15.079-.082,2.164-.479,4.332-.381,6.481.08,1.734,1.011,3.444,1.013,5.165.007,10.29-.165,20.58-.237,30.87-.033,4.8.028,9.607.037,14.411.008,4.264,0,8.528,0,13.139H198.287c0-1.336.01-2.72,0-4.1-.087-10.154-.245-20.308-.251-30.463-.007-11.746.143-23.492.181-35.238.036-11.218.017-22.437.021-33.655.006-16.425.057-32.85,0-49.275-.044-13.036-.273-26.072-.313-39.108-.022-6.951.3-13.9.259-20.853-.079-12.359-.408-24.717-.467-37.076-.044-9.1.245-18.2.252-27.3,0-4.672-.289-9.344-.451-14.1-.546-.055-.929-.12-1.313-.129-7.533-.17-15.065-.426-22.6-.463-4.351-.021-8.7.357-13.057.474-3.551.1-7.105.07-10.658.1Z" fill="#090909"/>
      <path id="Path_10160" data-name="Path 10160" d="M149.89-2020.436c3.553-.028,7.107,0,10.658-.1,4.354-.117,8.706-.495,13.057-.474,7.534.037,15.066.293,22.6.463.384.009.767.074,1.313.129.162,4.761.454,9.433.451,14.1-.007,9.1-.3,18.2-.252,27.3.059,12.359.388,24.717.467,37.076.045,6.95-.281,13.9-.259,20.853.04,13.036.269,26.072.313,39.108.056,16.425.005,32.85,0,49.275,0,11.218.015,22.437-.021,33.655-.038,11.746-.188,23.492-.181,35.238.006,10.155.164,20.309.251,30.463.012,1.384,0,2.768,0,4.1H-93.838c0-4.611.006-8.875,0-13.139-.009-4.8-.07-9.607-.037-14.411.072-10.29.244-20.58.237-30.87,0-1.721-.933-3.431-1.013-5.165-.1-2.149.3-4.317.381-6.481.191-5.025.436-10.052.455-15.079.058-14.934.025-29.868.012-44.8-.011-11.949-.064-23.9-.062-35.847,0-19.293.056-38.586.053-57.879q-.006-32.23-.072-64.461c0-1.111,0-2.222,0-3.607,3.85,0,7.532.033,11.213-.007,7.469-.08,14.937-.233,22.406-.293q7.913-.064,15.826.044c4.726.067,9.449.34,14.174.363,5.994.028,11.99-.123,17.985-.161,6.744-.043,13.488-.027,20.232-.073,8.786-.062,17.573-.223,26.359-.226,11.317,0,22.634.109,33.951.165.528,0,1.056-.049,1.584-.075a23.611,23.611,0,0,1-1.462,4.162c-2.73,4.774-5.743,9.388-8.4,14.2-5.925,10.739-11.695,21.564-17.545,32.345-.237.437-.733,1.161-.962,1.109-2.377-.544-2.278,1.551-2.84,2.716-2.431,5.029-4.645,10.164-7.141,15.159-.779,1.561-.694,2.953.987,3.5,1.1.36,2.265.534,3.575.83-.848,2.432-1.7,4.891-2.564,7.345a7.645,7.645,0,0,1-.914,2.352c-4.183,5.056-8.521,9.986-12.65,15.084-3.578,4.418-7.086,8.908-10.342,13.564-1.452,2.076-3.305,4.092-3.246,7.007.1,4.892.01,9.788.068,14.682a6.129,6.129,0,0,0,.635,2.012c.69,1.759,1.386,3.516,2.126,5.254,1.024,2.406,1.087,5.575,3.994,6.621,2.156.775,2.573,2,2.305,3.954-.305,2.221.1,4.183,2.044,5.645,1.626,1.225,3.145,2.591,4.734,3.867,1.617,1.3,3.368,2.324,5.549,1.838.934-.208,2.518-.167,2.133-1.619a3.2,3.2,0,0,0-2.376-1.795,4.405,4.405,0,0,1-3.45-1.513l3.294-3.736a29.38,29.38,0,0,0,2.66,4.191c.984,1.113,2.489,1.751,3.566,2.8a9.519,9.519,0,0,0,8.3,2.672,42.563,42.563,0,0,1,4.96-.033c0,1.766-.027,3.41,0,5.054.1,5.284-.041,10.592.419,15.846a6.294,6.294,0,0,0,10.186,4.168,17.7,17.7,0,0,0,6.35-10.478,29.67,29.67,0,0,0,.4-9.209,23.362,23.362,0,0,1-.025-3.264c1.737-.367,3.407-.341,4.662-1.049,5.676-3.2,11.332-6.466,16.786-10.028a16.787,16.787,0,0,0,5.195-5.435,37.936,37.936,0,0,0,3.2-8.481,121.711,121.711,0,0,0,3.336-13.377c.645-3.813.11-7.542-2.683-10.757a101.148,101.148,0,0,1-6.563-8.92,6.514,6.514,0,0,1-1.462-3.359c.062-3.46.493-6.913.789-10.459,1.534,0,2.906,0,4.277,0,2.874.009,3.624-.6,4.316-3.431.607-2.481,1.3-4.942,1.873-7.43.336-1.462.647-2.73,2.619-2.594.5.034,1.166-.537,1.533-1.006a20.463,20.463,0,0,0,2.028-3.1c5.379-10.253,11.017-20.383,16-30.824a198.665,198.665,0,0,1,21.853-35.161C144.583-2013.722,147.252-2017.067,149.89-2020.436ZM-17.062-1802.625l-.374.994-1.37,3.3a23.75,23.75,0,0,1-3.132.02c-2.9-.349-4.645,1.186-6,3.462-1.7.135-3.758.034-3.86,2.378-.374,8.547-.519,17.1-.9,25.65a5.636,5.636,0,0,0,3,5.492c4.846,3.033,9.658,6.119,14.484,9.184,1.367,1.252,2.568,2.8,4.144,3.679a3.437,3.437,0,0,0,4.7-1.156l4.321,1.123a13.874,13.874,0,0,1-2.553,2.974,1.773,1.773,0,0,0-.518,2.694,3,3,0,0,0,2.071,1.335c2.439.17,4.9.074,7.347.08a3.628,3.628,0,0,0,3.321,2.336c3.657.008,7.314.1,10.971.095a2.3,2.3,0,0,0,2.573-2.176c.145-1.163.349-2.318.575-3.789l10.387,1.534a3.09,3.09,0,0,0,.886.358c4.268.291,8.573.315,12.8.912a23.222,23.222,0,0,1,8.178,2.545,76.944,76.944,0,0,0,17.15,7.077c4.234,1.22,7.824-.784,9.022-4.647l-.018.018a5.959,5.959,0,0,0,1.355-.613,8.471,8.471,0,0,0,3.533-5.668c3.39-1.508,6.863-2.859,10.137-4.587a12.649,12.649,0,0,0,4.79-3.889c3.325-5.229,6.293-10.687,9.338-16.091a24.727,24.727,0,0,0,3.147-13.1c-.142-4.74-.388-9.478-.583-14.094a11.18,11.18,0,0,0,2.622-.7c5.215-2.8,7.9-7.329,8.676-13.1a7.3,7.3,0,0,0,.557-7.145l-1.8.413a13.682,13.682,0,0,0-1.522-2.422c-1.3-1.36-3.017-1.186-4.568-.624s-1.837,2.024-1.829,3.528a12.923,12.923,0,0,1-4.161,9.832l-6.112-6.015a5.772,5.772,0,0,0-.4-1.294,20.281,20.281,0,0,0-9.871-8.522c-7.244-3.01-14.873-4.4-22.629-5.265-2.419-.268-4.291.3-5.333,2.665-2.539.1-5.08.32-7.614.254-1.884-.049-3.751-.6-5.638-.695-3.255-.158-6.519-.131-9.78-.181-.075-1.6-1.035-2.093-2.5-2.061q-9.975.222-19.95.4c-3.1.049-6.243-.3-9.291.106-2.589.343-5.071,1.5-7.6,2.3l-2.787.8c-.009-.516.179-1.329-.065-1.489-.569-.376-1.528-.8-2-.561a20.491,20.491,0,0,0-4.45,2.884c-1.715,1.533-3.031,3.521-4.78,5.006-4.514,3.833-5.609,9.013-6.122,14.484Z" fill="#fefefe"/>
      <path id="Path_10161" data-name="Path 10161" d="M76.234-2021.3c4.015.068,8.031.205,12.047.19,6.72-.026,13.441-.221,20.161-.207,5.737.011,11.473.279,17.209.314,4.078.025,8.157-.147,12.236-.232a11.722,11.722,0,0,1-1.053,2.673c-7.438,10.445-14.674,21-19.908,32.79-2.948,6.64-5.976,13.25-9.147,19.786-2.122,4.374-4.564,8.592-6.847,12.889-.172.325-.4.813-.281,1.068.694,1.437-.271,2.181-1.09,3.067-1.6,1.73-3.133,3.517-4.695,5.28a38.235,38.235,0,0,0-4.153-1.176c-4.157-.7-8.342-1.241-12.5-1.93-5.4-.893-10.771-1.919-16.171-2.791-2.66-.429-5.355-.639-8.035-.949a8.019,8.019,0,0,0-.862-.4c-5.331-1.779-10.856-1.634-16.366-1.635a9.234,9.234,0,0,1,.45-1.089c2.257-3.96,4.6-7.872,6.77-11.879,2.16-3.99,4.021-8.145,6.236-12.1q11.337-20.264,22.854-40.426c.213-.375.754-.831,1.114-.808C76.071-2018.751,76.234-2019.931,76.234-2021.3Z" fill="#bbe8fe"/>
      <path id="Path_10162" data-name="Path 10162" d="M54.006-1950.529c2.68.31,5.375.52,8.035.949,5.4.872,10.774,1.9,16.171,2.791,4.159.689,8.344,1.228,12.5,1.93a38.235,38.235,0,0,1,4.153,1.176,6.961,6.961,0,0,0,1.517-.215,31.677,31.677,0,0,0,3.024-1.319c.737-.365,1.727-.662,2.082-1.286,3.08-5.415,6.147-10.843,9.016-16.371,5.047-9.726,9.575-19.743,15.039-29.225,4.21-7.307,9.49-14,14.355-20.926,1.88-2.676,3.928-5.234,5.9-7.845l4.092.434c-2.638,3.369-5.307,6.714-7.909,10.111a198.665,198.665,0,0,0-21.853,35.161c-4.988,10.441-10.626,20.571-16,30.824a20.463,20.463,0,0,1-2.028,3.1c-.367.469-1.038,1.04-1.533,1.006-1.972-.136-2.283,1.132-2.619,2.594-.571,2.488-1.266,4.949-1.873,7.43-.692,2.827-1.442,3.44-4.316,3.431-1.371,0-2.743,0-4.277,0-.3,3.546-.727,7-.789,10.459a6.514,6.514,0,0,0,1.462,3.359,101.148,101.148,0,0,0,6.563,8.92c2.793,3.215,3.328,6.944,2.683,10.757a121.711,121.711,0,0,1-3.336,13.377,37.936,37.936,0,0,1-3.2,8.481,16.787,16.787,0,0,1-5.195,5.435c-5.454,3.562-11.11,6.824-16.786,10.028-1.255.708-2.925.682-4.662,1.049a23.362,23.362,0,0,0,.025,3.264,29.67,29.67,0,0,1-.4,9.209,17.7,17.7,0,0,1-6.35,10.478,6.294,6.294,0,0,1-10.186-4.168c-.46-5.254-.317-10.562-.419-15.846-.031-1.644,0-3.288,0-5.054a42.563,42.563,0,0,0-4.96.033,9.519,9.519,0,0,1-8.3-2.672c-1.077-1.05-2.582-1.688-3.566-2.8a29.38,29.38,0,0,1-2.66-4.191c.169-1.154.364-2.305.5-3.463.78-6.436,1.518-12.877,2.342-19.307a9.352,9.352,0,0,1,1.042-3.5,2.385,2.385,0,0,1,2.189-.524,2.265,2.265,0,0,1,.957,1.849c-.073,2.085-.337,4.167-.606,6.241-.737,5.671-1.485,11.34-2.291,17-.23,1.619-.011,2.881,1.725,3.455,1.544,1.294,3.073,2.607,4.651,3.859.2.16.655,0,.992-.014.295.031.67.195.872.073,1.572-.952,3.141-1.915,4.634-2.981a1.943,1.943,0,0,0,.516-1.363c.159-4.126.191-8.259.434-12.38a7.658,7.658,0,0,1,1.107-3.648c1.444-2.177,3.183-4.158,4.8-6.22l2.829-4.077c1.331-1.52,2.718-2.995,3.978-4.572,1.828-2.289,7.312-3.244,8.834-1.283,3,3.863,5.891,7.814,8.643,11.855,1.521,2.233,1.331,7.2-.2,8.814-2.762,2.911-5.544,5.819-8.518,8.508-2.936,2.656-3.445,4.981-1.534,8.574.612,1.151,1.072,1.384,2.235.614,2.5-1.657,5.12-3.147,7.692-4.7q4.512-2.731,9.029-5.459c3.548-1.881,4.492-5.308,5.25-8.846,1.417-4.8,3.131-9.544,4.145-14.431.668-3.222.549-6.616-2.173-9.375-1.725-1.748-2.954-3.975-4.5-5.908-3.056-3.81-5.286-7.815-3.924-12.974a18.413,18.413,0,0,0,.42-3.711c.239-4.483.215-4.447-4.141-5.362-12.8-2.685-25.783-3.58-38.785-4.573-4.156-.317-6.507.7-8.918,3.949-3.761,5.062-8.125,9.675-12.234,14.479l-6.033,8.038-.308.364-.327.453c-.956,1.9-2.535,3.741-2.738,5.721-.412,4.022-.08,8.121-.055,12.188l.837,3.33.058.167c1.662,3.088,1.5,7.032,4.056,9.7l.5-.194v-5.472c-.269-4.206,1.007-8.52-.964-12.62a3.365,3.365,0,0,1-.01-2.149c.746-2.7,1.542-5.4,2.454-8.05a2.743,2.743,0,0,1,1.479-1.524,2.646,2.646,0,0,1,2.145.263,2.084,2.084,0,0,1,.364,1.906c-.887,2.34-2.03,4.584-2.9,6.93a4.873,4.873,0,0,0,.125,2.461,17.817,17.817,0,0,1,.836,3.028c.071,7.689.024,15.379.062,23.069a2.565,2.565,0,0,0,.619,1.709c1.44,1.342,3,2.556,4.517,3.818a4.405,4.405,0,0,0,3.45,1.513,3.2,3.2,0,0,1,2.376,1.795c.385,1.452-1.2,1.411-2.133,1.619-2.181.486-3.932-.539-5.549-1.838-1.589-1.276-3.108-2.642-4.734-3.867-1.941-1.462-2.349-3.424-2.044-5.645.268-1.951-.149-3.179-2.305-3.954-2.907-1.046-2.97-4.215-3.994-6.621-.74-1.738-1.436-3.495-2.126-5.254a6.129,6.129,0,0,1-.635-2.012c-.058-4.894.032-9.79-.068-14.682-.059-2.915,1.794-4.931,3.246-7.007,3.256-4.656,6.764-9.146,10.342-13.564,4.129-5.1,8.467-10.028,12.65-15.084a7.645,7.645,0,0,0,.914-2.352c.864-2.454,1.716-4.913,2.564-7.345-1.31-.3-2.473-.47-3.575-.83-1.681-.548-1.766-1.94-.987-3.5,2.5-4.995,4.71-10.13,7.141-15.159.562-1.165.463-3.26,2.84-2.716.229.052.725-.672.962-1.109,5.85-10.781,11.62-21.606,17.545-32.345,2.656-4.813,5.669-9.427,8.4-14.2a23.611,23.611,0,0,0,1.462-4.162l6.391-.054c0,1.37-.163,2.55-2.032,2.431-.36-.023-.9.433-1.114.808q-11.466,20.192-22.854,40.426c-2.215,3.958-4.076,8.113-6.236,12.1-2.169,4.007-4.513,7.919-6.77,11.879a9.234,9.234,0,0,0-.45,1.089c-.206.372-.411.744-.489.886,1.757.142,3.479.31,5.2.417C45.663-1951,49.835-1950.771,54.006-1950.529Zm-3.216,93.036a2.779,2.779,0,0,0-.412.93c-.056,2.106-.072,4.214-.077,6.322-.009,3.918,0,7.836,0,12.026l1.292-.841a8.828,8.828,0,0,0,3.889-6.7c.528-4.731.154-9.562.154-13.93Zm8.834-34.99c-2.805,3.459-5.684,6.863-8.379,10.406a12.08,12.08,0,0,0-2.5,4.746c-.4,2.169-.015,4.483.051,6.734.005.173.16.342.423.87a18.294,18.294,0,0,0,1.558-3.08c.689-2.569,2.214-3.275,4.785-2.907,2.345.337,4.131,1.179,5.187,3.338.53,1.084,1.042,2.175,1.65,3.446,2.694-2.467,5.227-4.67,7.611-7.023a35.709,35.709,0,0,0,2.969-3.8c.682-3.562-1.063-6.139-3.434-8.462l-.429-.7-.371-.479-2.863-3.886C63.757-1896.068,61.646-1895.8,59.624-1892.483Zm2.067-44.017c3.994.633,8.021,1.11,11.974,1.94,4.341.911,8.614,2.15,12.918,3.239,1.188.3,2.384.573,3.575.858h2.271c.842-3.22,1.653-6.316,2.484-9.491a52.17,52.17,0,0,0-5.157-1.538c-2.892-.556-5.832-.855-8.737-1.346-4.259-.719-8.488-1.624-12.761-2.241-4.409-.636-8.846-1.11-13.285-1.492-4.589-.395-9.194-.607-13.794-.858-.467-.025-1.272.11-1.375.38-1.1,2.855-2.081,5.753-3.143,8.772ZM48-1860.68a25.615,25.615,0,0,0,3.769-.678,3.73,3.73,0,0,0,2.313-4.315c-.43-1.937-2.032-.835-3.109-1.086-.312-.073-.665.05-.989.007-1.114-.148-1.256.406-1.308,1.391C48.59-1863.823,48.245-1862.3,48-1860.68Zm12.771.9-.934-.128a6.449,6.449,0,0,0-.491,1.668c-.04,2.426-.018,4.855.051,7.28.009.342.4.674.608,1.011.255-.221.729-.438.733-.662C60.784-1853.666,60.768-1856.723,60.768-1859.779Zm-3.724-9.149c.165,1.325.375,2.534.451,3.752.1,1.7.87,2.176,2.4,1.539C59.983-1866.865,58.758-1869.064,57.044-1868.928Zm3.863,23.192-.569-.481c-.423.325-1.116.582-1.217.987a28.736,28.736,0,0,0-.471,3.557c.459-.113,1.238-.115,1.321-.357C60.384-1843.231,60.613-1844.494,60.907-1845.736Z" fill="#434342"/>
      <path id="Path_10163" data-name="Path 10163" d="M145.8-2020.87c-1.971,2.611-4.019,5.169-5.9,7.845-4.865,6.924-10.145,13.619-14.355,20.926-5.464,9.482-9.992,19.5-15.039,29.225-2.869,5.528-5.936,10.956-9.016,16.371-.355.624-1.345.921-2.082,1.286a31.677,31.677,0,0,1-3.024,1.319,6.961,6.961,0,0,1-1.517.215c1.562-1.763,3.1-3.55,4.695-5.28.819-.886,1.784-1.63,1.09-3.067-.123-.255.109-.743.281-1.068,2.283-4.3,4.725-8.515,6.847-12.889,3.171-6.536,6.2-13.146,9.147-19.786,5.234-11.79,12.47-22.345,19.908-32.79a11.722,11.722,0,0,0,1.053-2.673Z" fill="#fcfdfd"/>
      <path id="Path_10164" data-name="Path 10164" d="M9.927-1889.3c-.025-4.067-.357-8.166.055-12.188.2-1.98,1.782-3.818,2.738-5.721l.327-.453.309-.364a3.194,3.194,0,0,0,3.142-2.352,36.7,36.7,0,0,1,2.186-3.724,12.769,12.769,0,0,0,.7-1.962c4.109-4.8,8.473-9.417,12.234-14.479,2.411-3.246,4.762-4.266,8.918-3.949,13,.993,25.989,1.888,38.785,4.573,4.356.915,4.38.879,4.141,5.362a18.413,18.413,0,0,1-.42,3.711c-1.362,5.159.868,9.164,3.924,12.974,1.551,1.933,2.78,4.16,4.5,5.908,2.722,2.759,2.841,6.153,2.173,9.375-1.014,4.887-2.728,9.628-4.145,14.431-.765,1.2-1.565,2.376-2.286,3.6-1.019,1.731-1.979,3.5-2.964,5.246q-4.515,2.73-9.029,5.459c-2.572,1.556-5.188,3.046-7.692,4.7-1.163.77-1.623.537-2.235-.614-1.911-3.593-1.4-5.918,1.534-8.574,2.974-2.689,5.756-5.6,8.518-8.508,1.531-1.612,1.721-6.581.2-8.814-2.752-4.041-5.646-7.992-8.643-11.855-1.522-1.961-7.006-1.006-8.834,1.283-1.26,1.577-2.647,3.052-3.978,4.572a6.887,6.887,0,0,0-.53-1.4,21.367,21.367,0,0,0-1.4-1.767,5.889,5.889,0,0,0-.9,1.909c-.115,1.769-.017,3.553,0,5.331-1.618,2.062-3.357,4.043-4.8,6.22a7.658,7.658,0,0,0-1.107,3.648c-.243,4.121-.275,8.254-.434,12.38a1.943,1.943,0,0,1-.516,1.363c-1.493,1.066-3.062,2.029-4.634,2.981-.2.122-.577-.042-.872-.073q-.309-4.481-.62-8.961l-.518-.35-4.505,5.466c-1.736-.574-1.955-1.836-1.725-3.455.806-5.662,1.554-11.331,2.291-17,.269-2.074.533-4.156.606-6.241a2.265,2.265,0,0,0-.957-1.849,2.385,2.385,0,0,0-2.189.524,9.352,9.352,0,0,0-1.042,3.5c-.824,6.43-1.562,12.871-2.342,19.307-.14,1.158-.335,2.309-.5,3.463l-3.294,3.736c-1.516-1.262-3.077-2.476-4.517-3.818a2.565,2.565,0,0,1-.619-1.709c-.038-7.69.009-15.38-.062-23.069a17.817,17.817,0,0,0-.836-3.028,4.873,4.873,0,0,1-.125-2.461c.87-2.346,2.013-4.59,2.9-6.93a2.084,2.084,0,0,0-.364-1.906,2.646,2.646,0,0,0-2.145-.263,2.743,2.743,0,0,0-1.479,1.524c-.912,2.651-1.708,5.346-2.454,8.05a3.365,3.365,0,0,0,.01,2.149c1.971,4.1.695,8.414.964,12.62-.791-1.1-1.67-2.149-2.345-3.316-.578-1-1.2-1.314-2.208-.719l-.057-.167Q10.346-1887.635,9.927-1889.3Zm21.383-7.808c.253.517.412,1.427.851,1.591a2.431,2.431,0,0,0,1.966-.4,3.414,3.414,0,0,0,1.073-1.8c.51-1.928.435-4.025,2.053-5.6a1.831,1.831,0,0,0-.129-1.77,2.214,2.214,0,0,0-1.858-.706c-.864.3-2,.925-2.252,1.675A71.723,71.723,0,0,0,31.31-1897.107Z" fill="#fbf1e1"/>
      <path id="Path_10165" data-name="Path 10165" d="M-2.05-1748.5l-4.321-1.123-8.84-2.523c-4.826-3.065-9.638-6.151-14.484-9.184a5.636,5.636,0,0,1-3-5.492c.385-8.546.53-17.1.9-25.65.1-2.344,2.16-2.243,3.861-2.379,3.515.08,7.389,1.1,9.126-3.481q.684-1.652,1.37-3.3l.374-.993-.03.036c.829-2.176,1.679-4.344,2.482-6.53,1.124-3.057,2.378-6.059,5.249-7.9,3.179-2.043,6.456-3.934,9.69-5.891l2.787-.8c4.05-.371,8.1-.976,12.152-1.053,4.933-.094,9.874.254,14.812.418a1.81,1.81,0,0,1,1.965,2.164c-.145,1.423-1.17,1.667-2.47,1.589-3.024-.181-6.055-.334-9.084-.334-6.39,0-12.871-.314-18.978,1.94-6.189,2.285-11.118,5.813-13.048,12.858-1.194,4.361-3.694,8.376-5.715,12.495-.971,1.981-2.845,2.644-4.948,2.679-1.872.032-3.744.007-5.973.007,0,3.764.076,7.115-.019,10.461-.128,4.548-.427,9.09-.55,13.638a2.69,2.69,0,0,0,.832,2.039c4.393,2.88,8.817,5.722,13.341,8.389a25.875,25.875,0,0,0,5.164,1.944c2.585.847,5.2,1.61,7.8,2.409l8.2,1.946a11.365,11.365,0,0,1,.949,2.422c.262,1.73-.3,4.255.64,5.038,1.107.917,3.461.328,5.274.386a1.849,1.849,0,0,0,.384-.069h4.2v-1.85c.049-.649.119-1.3.144-1.946.063-1.679,1.2-2.305,2.6-2.34a19.16,19.16,0,0,1,4.1.439c11.92,2.327,23.967,1.219,35.967,1.376,1.681-.077,3.367-.107,5.043-.244,1.4-.115,2.121.385,2.067,1.843-.021.585,0,1.171,0,1.757v3.423l2.013-1.322c2.878-1.774,4.39-1.983,5.836-.276,1.217,1.437,1.838.694,2.52-.267a14.767,14.767,0,0,0,1.057-2.121c.964-1.969,2.321-3.247,4.733-3.147a7.031,7.031,0,0,0,2.354-.8q2.919-1.291,5.835-2.584c2.018-1.41,2.176-1.816,1.28-3.088l-1.46,2.875L90-1752.273c-2.3-4.36-6.074-6.189-10.847-6.28-2.249-.042-4.65.416-6.714-.221a10.573,10.573,0,0,0-10.024,1.637c-1.617,1.207-2.323.507-3.409-.6a6.968,6.968,0,0,0-2.858-1.573,6.822,6.822,0,0,0-2.566-.019c-2.783.255-5.664.112-7.438,3.078a2.224,2.224,0,0,1-3.344.347,26.057,26.057,0,0,0-2.594-3.183c-3.139-3.068-9.19-3.281-12.448-.481-1.338,1.15-2.377.491-3.409-.426a19.216,19.216,0,0,0-2.286-2.06c-2.422-1.532-5.124-.962-7.728-.722a2.854,2.854,0,0,0-2.923,2.075c-.576,1.789-2.177,1.634-3.4.256a6.548,6.548,0,0,0-3.365-2.233,8.427,8.427,0,0,0-5,.6c-1.325.706-1.438,4.806-.611,6.166s.23,2.229-.893,2.97c-2.761-.771-3.5-2.207-3-5.231a48.383,48.383,0,0,1,2.058-6.644,14.579,14.579,0,0,1,2.431-1.206,11.18,11.18,0,0,1,8.6,1.164,2.441,2.441,0,0,0,1.8.008c5.21-2.02,10.346-2.721,15.21.836a2.157,2.157,0,0,0,2.588.223,12.847,12.847,0,0,1,10.375-.344c2.323.934,4.373,2.547,6.581,3.879,2.881-3.134,12.076-3.567,17.316-.355.133-.992.26-1.757.331-2.527a13.6,13.6,0,0,1,.125-2.15,9.373,9.373,0,0,1,6.343-6.787c2.363-.8,4.767-1.358,6.43-3.425a1.236,1.236,0,0,1,.819-.453,65.2,65.2,0,0,1,8.959.189c4.6.664,7.7,3.727,10.278,7.409,1.52,2.166,3.173,4.228,3.2,7.052l.086,1.35c5.573-5.2,9.209-11.108,9.869-18.557a73.809,73.809,0,0,0-1.287-19.783c-.521-2.86-.853-5.986-3.281-8.055-3.263-2.781-6.69-5.4-10.845-6.724a133.377,133.377,0,0,1-15.177-5.356,17.084,17.084,0,0,0-14.355-.446v2.313q-.042,5.249-.085,10.5c-.023,2.557-.684,3.237-3.276,3.322-1.32.044-2.641.061-3.961.041-2.814-.043-3.748-1.168-3.7-4.01.074-4.563.02-9.127.02-13.788H38.5a13.026,13.026,0,0,1-2.713-.149c-1.072-.278-2.189-.81-1.876-2.256.3-1.4,1.293-1.74,2.673-1.642,1.948.139,3.911.069,5.867.089,3.261.05,6.525.023,9.78.181,1.887.091,3.754.646,5.638.695,2.534.066,5.075-.156,7.614-.254,1.513.045,3.025.134,4.538.127a24.689,24.689,0,0,1,11.767,2.839,21.338,21.338,0,0,0,4.718,1.98c6.182,1.5,12.083,3.578,17.213,7.47l6.112,6.015a12.923,12.923,0,0,0,4.161-9.832c-.008-1.5.284-2.968,1.829-3.528s3.266-.736,4.568.624a13.682,13.682,0,0,1,1.522,2.422q.619,3.366,1.24,6.732c-.773,5.77-3.461,10.294-8.676,13.1a11.18,11.18,0,0,1-2.622.7c.195,4.616.441,9.354.583,14.094a24.727,24.727,0,0,1-3.147,13.1c-3.045,5.4-6.013,10.862-9.338,16.091a12.649,12.649,0,0,1-4.79,3.889c-3.274,1.728-6.747,3.079-10.137,4.587a1.846,1.846,0,0,0-2.563,1.321c-.645,1.7-1.538,3.311-2.325,4.96l.018-.018c-3.09,2.1-5.078-.012-7.06-2.118-1.954,1.775-3.916,3.325-6.5,2.359-3.068-1.146-1.785-4.134-2.321-6.515H60.7l-28.574.029-10.387-1.534c-.226,1.471-.43,2.626-.575,3.789a2.3,2.3,0,0,1-2.573,2.176c-3.657,0-7.314-.087-10.971-.095a3.628,3.628,0,0,1-3.321-2.336c-.036-1.662-.009-3.329-.159-4.981-.034-.373-.632-.888-1.059-1C1.388-1747.836-.337-1748.142-2.05-1748.5Zm118.857-62.091c-1.111,2.912-2.468,5.719-4.928,7.711-1.808,1.464-1.429,2.9-.6,4.553,6.065-1.753,9.8-8.565,7.917-14.286-.435-1.133-.061-2.765-1.88-3.294C117.13-1813.967,116.968-1812.278,116.807-1810.589Zm-28.38,50.9c-.592-1.907-.812-3.661-1.636-5.057a9.933,9.933,0,0,0-8.536-5.106c-8.1-.406-10.6.926-12.923,6.99C72.859-1762.118,80.661-1763.1,88.427-1759.694Zm-31.978-59.958v13.315h3.562c0-4.088.026-8.044-.035-12-.007-.443-.437-1.185-.782-1.257A13.716,13.716,0,0,0,56.449-1819.652Zm34.893,56.832c-.282,2.79,2.8,1.651,3.481,3.538C95.366-1762.913,95.131-1763.139,91.342-1762.82Z" fill="#414241"/>
      <path id="Path_10166" data-name="Path 10166" d="M-1.6-1752.073c-2.6-.8-5.214-1.562-7.8-2.409a25.875,25.875,0,0,1-5.164-1.944c-4.524-2.667-8.948-5.509-13.341-8.389a2.69,2.69,0,0,1-.832-2.039c.123-4.548.422-9.09.55-13.638.1-3.346.019-6.7.019-10.461,2.229,0,4.1.025,5.973-.007,2.1-.035,3.977-.7,4.948-2.679,2.021-4.119,4.521-8.134,5.715-12.495,1.93-7.045,6.859-10.573,13.048-12.858,6.107-2.254,12.588-1.94,18.978-1.94,3.029,0,6.06.153,9.084.334,1.3.078,2.325-.166,2.47-1.589a1.81,1.81,0,0,0-1.965-2.164c-4.938-.164-9.879-.512-14.812-.418-4.056.077-8.1.682-12.152,1.053,2.529-.8,5.011-1.959,7.6-2.3,3.048-.4,6.19-.057,9.291-.106q9.975-.159,19.95-.4c1.461-.032,2.421.456,2.5,2.061-1.956-.02-3.919.05-5.867-.089-1.38-.1-2.37.247-2.673,1.642-.313,1.446.8,1.978,1.876,2.256a13.026,13.026,0,0,0,2.713.149,31.148,31.148,0,0,1-2.476,2.816,3.74,3.74,0,0,1-2.132,1.058c-7.6.206-15.2.472-22.8.372a12.549,12.549,0,0,0-8.876,3.156c-1.681,1.463-3.134,3.579-5.085,4.245-2.537.865-3.446,2.6-4.407,4.615a59.256,59.256,0,0,1-9.14,14.53c-1.366,1.515-2.7,3.067-4.18,4.462-.437.413-1.324.348-2.005.5l-.633-.645a11.976,11.976,0,0,0-1.022,2.916c-.162,1.973.08,3.98-.087,5.952-.144,1.7.628,2.3,2.1,2.737,3.477,1.023,6.988,2,10.339,3.361,2.944,1.194,6.566,1.495,8.076,5.078.114.27.669.355,1.02.527a48.383,48.383,0,0,0-2.058,6.644c-.5,3.024.241,4.46,3,5.231Z" fill="#bbe6fc"/>
      <path id="Path_10167" data-name="Path 10167" d="M32.124-1743.415l28.574-.029h3.578c.536,2.381-.747,5.369,2.321,6.515,2.583.966,4.545-.584,6.5-2.359,1.982,2.106,3.97,4.222,7.06,2.118-1.2,3.863-4.788,5.867-9.022,4.647a76.944,76.944,0,0,1-17.15-7.077,23.222,23.222,0,0,0-8.178-2.545c-4.223-.6-8.528-.621-12.8-.912A3.09,3.09,0,0,1,32.124-1743.415Z" fill="#bbe7fd"/>
      <path id="Path_10168" data-name="Path 10168" d="M103.721-1811.421c-5.13-3.892-11.031-5.972-17.213-7.47a21.338,21.338,0,0,1-4.718-1.98,24.689,24.689,0,0,0-11.767-2.839c-1.513.007-3.025-.082-4.538-.127,1.042-2.361,2.914-2.933,5.333-2.665,7.756.86,15.385,2.255,22.629,5.265a20.281,20.281,0,0,1,9.871,8.522A5.772,5.772,0,0,1,103.721-1811.421Z" fill="#bbe6fb"/>
      <path id="Path_10169" data-name="Path 10169" d="M-2.05-1748.5c1.713.356,3.438.662,5.129,1.1.427.111,1.025.626,1.059,1,.15,1.652.123,3.319.159,4.981-2.45-.006-4.908.09-7.347-.08a3,3,0,0,1-2.071-1.335,1.773,1.773,0,0,1,.518-2.694A13.874,13.874,0,0,0-2.05-1748.5Z" fill="#bbe7fd"/>
      <path id="Path_10170" data-name="Path 10170" d="M.329-1822.913c-3.234,1.957-6.511,3.848-9.69,5.891-2.871,1.844-4.125,4.846-5.249,7.9-.8,2.186-1.653,4.354-2.482,6.53.513-5.471,1.608-10.651,6.122-14.484,1.749-1.485,3.065-3.473,4.78-5.006a20.491,20.491,0,0,1,4.45-2.884c.476-.24,1.435.185,2,.561C.508-1824.242.32-1823.429.329-1822.913Z" fill="#bfe8fb"/>
      <path id="Path_10171" data-name="Path 10171" d="M-18.806-1798.33c-1.737,4.582-5.611,3.561-9.126,3.481,1.349-2.275,3.095-3.81,5.994-3.461A23.75,23.75,0,0,0-18.806-1798.33Z" fill="#bbe6fb"/>
      <path id="Path_10172" data-name="Path 10172" d="M-15.211-1752.144l8.84,2.523a3.437,3.437,0,0,1-4.7,1.156C-12.643-1749.341-13.844-1750.892-15.211-1752.144Z" fill="#bfe8fb"/>
      <path id="Path_10173" data-name="Path 10173" d="M80.138-1737.152c.787-1.649,1.68-3.257,2.325-4.96a1.846,1.846,0,0,1,2.563-1.321,8.471,8.471,0,0,1-3.533,5.668A5.959,5.959,0,0,1,80.138-1737.152Z" fill="#bbe7fd"/>
      <path id="Path_10174" data-name="Path 10174" d="M123.153-1808.988q-.62-3.366-1.24-6.732l1.8-.413A7.3,7.3,0,0,1,123.153-1808.988Z" fill="#bbe4f6"/>
      <path id="Path_10175" data-name="Path 10175" d="M-17.062-1802.625l-.374.993Z" fill="#bfe8fb"/>
      <path id="Path_10176" data-name="Path 10176" d="M54.006-1950.529c-4.171-.242-8.343-.474-12.512-.733-1.726-.107-3.448-.275-5.2-.417.078-.142.283-.514.489-.886,5.51,0,11.035-.144,16.366,1.635A8.019,8.019,0,0,1,54.006-1950.529Z" fill="#f8f8f7"/>
      <path id="Path_10177" data-name="Path 10177" d="M61.691-1936.5l-25.03-1.777c1.062-3.019,2.047-5.917,3.143-8.772.1-.27.908-.405,1.375-.38,4.6.251,9.2.463,13.794.858,4.439.382,8.876.856,13.285,1.492,4.273.617,8.5,1.522,12.761,2.241,2.905.491,5.845.79,8.737,1.346a52.17,52.17,0,0,1,5.157,1.538c-.831,3.175-1.642,6.271-2.484,9.491H90.158a4.178,4.178,0,0,0-3.264-2.821,59.955,59.955,0,0,1-6.4-1.789C74.348-1937.378,67.994-1936.505,61.691-1936.5Z" fill="#fdfcfc"/>
      <path id="Path_10178" data-name="Path 10178" d="M65.884-1893.28l2.863,3.886.371.479.429.7,3.434,8.462a35.709,35.709,0,0,1-2.969,3.8c-2.384,2.353-4.917,4.556-7.611,7.023-.608-1.271-1.12-2.362-1.65-3.446-1.056-2.159-2.842-3-5.187-3.338-2.571-.368-4.1.338-4.785,2.907a18.294,18.294,0,0,1-1.558,3.08c-.263-.528-.418-.7-.423-.87-.066-2.251-.45-4.565-.051-6.734a12.08,12.08,0,0,1,2.5-4.746c2.695-3.543,5.574-6.947,8.379-10.406Z" fill="#fcfcfb"/>
      <path id="Path_10179" data-name="Path 10179" d="M50.79-1857.493l4.843-2.2c0,4.368.374,9.2-.154,13.93a8.821,8.821,0,0,1-3.889,6.7,9.4,9.4,0,0,1-.747-2.481C50.769-1846.856,50.8-1852.175,50.79-1857.493Z" fill="#fad663"/>
      <path id="Path_10180" data-name="Path 10180" d="M61.691-1936.5c6.3-.005,12.657-.878,18.805,1.427a59.955,59.955,0,0,0,6.4,1.789,4.178,4.178,0,0,1,3.264,2.821c-1.191-.285-2.387-.558-3.575-.858-4.3-1.089-8.577-2.328-12.918-3.239C69.712-1935.39,65.685-1935.867,61.691-1936.5Z" fill="#f5ebdc"/>
      <path id="Path_10181" data-name="Path 10181" d="M33.258-1864.908l4.505-5.466.518.35q.311,4.481.62,8.961c-.337.013-.792.174-.992.014C36.331-1862.3,34.8-1863.614,33.258-1864.908Z" fill="#fcfcfb"/>
      <path id="Path_10182" data-name="Path 10182" d="M48-1860.68c.248-1.619.593-3.143.676-4.681.052-.985.194-1.539,1.308-1.391.324.043.677-.08.989-.007,1.077.251,2.679-.851,3.109,1.086a3.73,3.73,0,0,1-2.313,4.315A25.615,25.615,0,0,1,48-1860.68Z" fill="#f8eede"/>
      <path id="Path_10183" data-name="Path 10183" d="M10.822-1885.8c1.01-.595,1.63-.278,2.208.719.675,1.167,1.554,2.216,2.345,3.316v5.472l-.5.194C12.325-1878.77,12.484-1882.714,10.822-1885.8Z" fill="#f8f8f7"/>
      <path id="Path_10184" data-name="Path 10184" d="M60.768-1859.779c0,3.056.016,6.113-.033,9.169,0,.224-.478.441-.733.662-.212-.337-.6-.669-.608-1.011-.069-2.425-.091-4.854-.051-7.28a6.449,6.449,0,0,1,.491-1.668Z" fill="#edcb5e"/>
      <path id="Path_10185" data-name="Path 10185" d="M51.265-1887.582c-.014-1.778-.112-3.562,0-5.331a5.889,5.889,0,0,1,.9-1.909,21.367,21.367,0,0,1,1.4,1.767,6.887,6.887,0,0,1,.53,1.4Z" fill="#fdfcfc"/>
      <path id="Path_10186" data-name="Path 10186" d="M72.981-1879.754l-3.434-8.462C71.918-1885.893,73.663-1883.316,72.981-1879.754Z" fill="#f5ebdc"/>
      <path id="Path_10187" data-name="Path 10187" d="M19.388-1916.063a12.769,12.769,0,0,1-.7,1.962,36.7,36.7,0,0,0-2.186,3.724,3.194,3.194,0,0,1-3.142,2.352Q16.371-1912.045,19.388-1916.063Z" fill="#f8f8f7"/>
      <path id="Path_10188" data-name="Path 10188" d="M57.044-1868.928c1.714-.136,2.939,2.063,2.852,5.291-1.531.637-2.3.162-2.4-1.539C57.419-1866.394,57.209-1867.6,57.044-1868.928Z" fill="#f5df9c"/>
      <path id="Path_10189" data-name="Path 10189" d="M65.884-1893.28l-6.26.8C61.646-1895.8,63.757-1896.068,65.884-1893.28Z" fill="#f8eede"/>
      <path id="Path_10190" data-name="Path 10190" d="M84.253-1869.311c.985-1.75,1.945-3.515,2.964-5.246.721-1.224,1.521-2.4,2.286-3.6C88.745-1874.619,87.8-1871.192,84.253-1869.311Z" fill="#f8f8f7"/>
      <path id="Path_10191" data-name="Path 10191" d="M50.79-1857.493c.006,5.318-.021,10.637.053,15.954a9.4,9.4,0,0,0,.747,2.481c-.319.209-.637.417-1.292.843,0-4.19-.006-8.108,0-12.026.005-2.108.021-4.216.077-6.322A2.779,2.779,0,0,1,50.79-1857.493Z" fill="#f5ebdc"/>
      <path id="Path_10192" data-name="Path 10192" d="M60.907-1845.736c-.294,1.242-.523,2.505-.936,3.706-.083.242-.862.244-1.321.357a28.736,28.736,0,0,1,.471-3.557c.1-.405.794-.662,1.217-.987Z" fill="#fad663"/>
      <path id="Path_10193" data-name="Path 10193" d="M9.927-1889.3q.42,1.665.838,3.33Q10.345-1887.634,9.927-1889.3Z" fill="#f8f8f7"/>
      <path id="Path_10194" data-name="Path 10194" d="M13.047-1907.661l-.327.453Z" fill="#f8f8f7"/>
      <path id="Path_10195" data-name="Path 10195" d="M69.118-1888.915l-.371-.479Z" fill="#f5ebdc"/>
      <path id="Path_10196" data-name="Path 10196" d="M31.31-1897.107a71.723,71.723,0,0,1,1.7-7c.256-.75,1.388-1.376,2.252-1.675a2.214,2.214,0,0,1,1.858.706,1.831,1.831,0,0,1,.129,1.77c-1.618,1.571-1.543,3.668-2.053,5.6a3.414,3.414,0,0,1-1.073,1.8,2.431,2.431,0,0,1-1.966.4C31.722-1895.68,31.563-1896.59,31.31-1897.107Z" fill="#464544"/>
      <path id="Path_10197" data-name="Path 10197" d="M-2.8-1764.819c-.351-.172-.906-.257-1.02-.527-1.51-3.583-5.132-3.884-8.076-5.078-3.351-1.36-6.862-2.338-10.339-3.361-1.474-.433-2.246-1.038-2.1-2.737.167-1.972-.075-3.979.087-5.952a11.976,11.976,0,0,1,1.022-2.916l.633.645c.681-.154,1.568-.089,2.005-.5,1.48-1.4,2.814-2.947,4.18-4.462a59.256,59.256,0,0,0,9.14-14.53c.961-2.016,1.87-3.75,4.407-4.615,1.951-.666,3.4-2.782,5.085-4.245a12.549,12.549,0,0,1,8.876-3.156c7.6.1,15.2-.166,22.8-.372a3.74,3.74,0,0,0,2.132-1.058A31.148,31.148,0,0,0,38.5-1820.5H52.584c0,4.661.054,9.225-.02,13.788-.046,2.842.888,3.967,3.7,4.01,1.32.02,2.641,0,3.961-.041,2.592-.085,3.253-.765,3.276-3.322q.048-5.248.085-10.5c1.373.125,2.749.228,4.12.378a66.325,66.325,0,0,1,18.329,4.552,18.05,18.05,0,0,1,9.934,9.213,39.553,39.553,0,0,1,3.785,18.607c-.163,3.1-.091,6.213,0,9.317.045,1.56-.318,3.369,1.664,4.251.19.085.3.76.183,1.065-.974,2.637-2.007,5.253-3.023,7.875-.029-2.824-1.682-4.886-3.2-7.052-2.582-3.682-5.677-6.745-10.278-7.409a65.2,65.2,0,0,0-8.959-.189,1.236,1.236,0,0,0-.819.453c-1.663,2.067-4.067,2.623-6.43,3.425a9.373,9.373,0,0,0-6.343,6.787,13.6,13.6,0,0,0-.125,2.15c-.071.77-.2,1.535-.331,2.527-5.24-3.212-14.435-2.779-17.316.355-2.208-1.332-4.258-2.945-6.581-3.879a12.847,12.847,0,0,0-10.375.344,2.157,2.157,0,0,1-2.588-.223c-4.864-3.557-10-2.856-15.21-.836a2.441,2.441,0,0,1-1.8-.008,11.18,11.18,0,0,0-8.6-1.164A14.579,14.579,0,0,0-2.8-1764.819ZM20.238-1790.3c4.319,2.868,9.147,3.4,14.165,3.115,2.22-.127,3.992-.935,4.8-3.138a88.076,88.076,0,0,0,3.129-9.077,57.594,57.594,0,0,0,1.188-8.74,2.728,2.728,0,0,0-2.624-3.239c-2.666-.366-5.317-.836-7.975-1.261-1.416-1.668-6.31-1.674-7.926-.01-2.828-.246-5.4.312-7.308,2.578a2.587,2.587,0,0,0-.689,1.913c1.315,4.582.569,9.233.623,13.854a15.766,15.766,0,0,0-1.135,3.717c-.059.961.612,1.967.959,2.953.693-.494,1.426-.942,2.063-1.5A4.721,4.721,0,0,0,20.238-1790.3Zm-24.606-7.948a6.753,6.753,0,0,0,.021,1.572c.25,1.019.519,2.067,1.951,2.031a2.448,2.448,0,0,0,2.623-2.127,7.223,7.223,0,0,0,.063-1.572c-.047-2.166-.863-3.083-2.681-3.044C-3.821-1801.354-4.514-1800.289-4.368-1798.245Z" fill="#fdfdfd"/>
      <path id="Path_10198" data-name="Path 10198" d="M-1.6-1752.073l-.256-.871c1.123-.741,1.719-1.61.893-2.97s-.714-5.46.611-6.166a8.427,8.427,0,0,1,5-.6,6.548,6.548,0,0,1,3.365,2.233c1.225,1.378,2.826,1.533,3.4-.256a2.854,2.854,0,0,1,2.923-2.075c2.6-.24,5.306-.81,7.728.722a19.216,19.216,0,0,1,2.286,2.06c1.032.917,2.071,1.576,3.409.426,3.258-2.8,9.309-2.587,12.448.481a26.057,26.057,0,0,1,2.594,3.183,2.224,2.224,0,0,0,3.344-.347c1.774-2.966,4.655-2.823,7.438-3.078a6.822,6.822,0,0,1,2.566.019,6.968,6.968,0,0,1,2.858,1.573c1.086,1.11,1.792,1.81,3.409.6a10.573,10.573,0,0,1,10.024-1.637c2.064.637,4.465.179,6.714.221,4.773.091,8.544,1.92,10.846,6.279-1.619,1.132-3.211,2.285-3.529,4.448a7.031,7.031,0,0,1-2.354.8c-2.412-.1-3.769,1.178-4.733,3.147a14.767,14.767,0,0,1-1.057,2.121c-.682.961-1.3,1.7-2.52.267-1.446-1.707-2.958-1.5-5.836.276l-2.013-2.1c0-.586-.018-1.172,0-1.757.054-1.458-.669-1.958-2.067-1.843-1.676.137-3.362.167-5.044.244-.21-.595-.419-1.19-.6-1.716-3.371.3-6.538.91-9.5-.823-2.379-1.392-3.956-1.441-6.686-1.279-4.937.294-9.893.233-14.839.4a8.727,8.727,0,0,1-6.162-2.185c-.889-.763-1.341-.414-2.186.06a19.144,19.144,0,0,1-4.146,1.528c-1.172.334-2.436.357-3.594.722-1.686.531-3.259,1.037-4.852-.311-.3-.257-1.113.085-1.689.151Z" fill="#fcd863"/>
      <path id="Path_10199" data-name="Path 10199" d="M98.578-1761.306c1.016-2.622,2.049-5.238,3.023-7.875.113-.3.007-.98-.183-1.065-1.982-.882-1.619-2.691-1.664-4.251-.089-3.1-.161-6.219,0-9.317a39.553,39.553,0,0,0-3.785-18.607,18.05,18.05,0,0,0-9.934-9.213,66.325,66.325,0,0,0-18.329-4.552c-1.371-.15-2.747-.253-4.12-.378v-2.313a17.084,17.084,0,0,1,14.355.446,133.377,133.377,0,0,0,15.177,5.356c4.155,1.326,7.582,3.943,10.845,6.724,2.428,2.069,2.76,5.195,3.281,8.055a73.809,73.809,0,0,1,1.287,19.783c-.66,7.449-4.3,13.359-9.869,18.557Z" fill="#bbe7fd"/>
      <path id="Path_10200" data-name="Path 10200" d="M6.593-1750.127c.576-.066,1.386-.408,1.689-.151,1.593,1.348,3.166.842,4.852.311,1.158-.365,2.422-.388,3.594-.722a19.144,19.144,0,0,0,4.146-1.528c.845-.474,1.3-.823,2.186-.06a8.727,8.727,0,0,0,6.162,2.185c4.946-.164,9.9-.1,14.839-.4,2.73-.162,4.307-.113,6.686,1.279,2.961,1.733,6.128,1.12,9.5.823.184.526.393,1.121.6,1.716-12-.157-24.046.951-35.966-1.376a19.16,19.16,0,0,0-4.1-.439c-1.395.035-2.534.661-2.6,2.34-.025.649-.095,1.3-.144,1.946-1.687-.036-3.6-.585-4.2,1.85a1.849,1.849,0,0,1-.384.069c-1.813-.058-4.167.531-5.274-.386-.945-.783-.378-3.308-.64-5.038A11.365,11.365,0,0,0,6.593-1750.127Z" fill="#bbe4f6"/>
      <path id="Path_10201" data-name="Path 10201" d="M88.427-1759.694c-7.766-3.411-15.568-2.424-23.1-3.173,2.321-6.064,4.821-7.4,12.923-6.99a9.933,9.933,0,0,1,8.536,5.106C87.615-1763.355,87.835-1761.6,88.427-1759.694Z" fill="#fbd661"/>
      <path id="Path_10202" data-name="Path 10202" d="M119.195-1812.611c1.883,5.721-1.852,12.533-7.917,14.286-.828-1.655-1.207-3.089.6-4.553,2.46-1.992,3.817-4.8,4.928-7.711Z" fill="#bbe6fc"/>
      <path id="Path_10203" data-name="Path 10203" d="M56.449-1819.652a13.716,13.716,0,0,1,2.745.06c.345.072.775.814.782,1.257.061,3.954.035,7.91.035,12H56.449Z" fill="#fcfcfb"/>
      <path id="Path_10204" data-name="Path 10204" d="M86.47-1747.826c.318-2.163,1.91-3.316,3.529-4.448l2.126,1.651c.063.069.123.141.181.214Z" fill="#b1d5e2"/>
      <path id="Path_10205" data-name="Path 10205" d="M91.342-1762.82c3.789-.319,4.024-.093,3.481,3.538C94.142-1761.169,91.06-1760.03,91.342-1762.82Z" fill="#edcb5e"/>
      <path id="Path_10206" data-name="Path 10206" d="M13.84-1742.35c.6-2.435,2.511-1.886,4.2-1.85v1.85Z" fill="#fcfdfd"/>
      <path id="Path_10207" data-name="Path 10207" d="M119.195-1812.611l-2.388,2.022c.161-1.689.323-3.378.508-5.316C119.134-1815.376,118.76-1813.744,119.195-1812.611Z" fill="#fcfcfb"/>
      <path id="Path_10208" data-name="Path 10208" d="M67.957-1743.315l2.013,2.1-2.013,1.322Z" fill="#b1d5e2"/>
      <path id="Path_10209" data-name="Path 10209" d="M92.125-1750.623l1.46-2.875c.9,1.272.738,1.678-1.28,3.088C92.248-1750.482,92.188-1750.554,92.125-1750.623Z" fill="#b1d5e2"/>
      <path id="Path_10210" data-name="Path 10210" d="M32.922-1812.637c2.658.425,5.309.9,7.975,1.261a2.728,2.728,0,0,1,2.624,3.239,57.594,57.594,0,0,1-1.188,8.74,88.076,88.076,0,0,1-3.129,9.077c-.809,2.2-2.581,3.011-4.8,3.138-5.018.288-9.846-.247-14.166-3.115a5.017,5.017,0,0,1-2.615-4.005c-.054-4.621.692-9.272-.623-13.854a2.587,2.587,0,0,1,.689-1.913c1.909-2.266,4.48-2.824,7.308-2.578ZM22.978-1792.7c2.275.752,4.518,2.02,6.83,2.159,6.763.409,6.069.751,7.9-4.871,1.333-4.09,3-8.164,2.245-13.163l-9.4-.733c-2.879.085-5.764.1-8.632.325a2.048,2.048,0,0,0-1.25,1.541c.02,3.874.3,7.748.288,11.621C20.957-1794.182,21.453-1793.19,22.978-1792.7Z" fill="#424243"/>
      <path id="Path_10211" data-name="Path 10211" d="M-4.368-1798.245c-.146-2.044.547-3.109,1.977-3.14,1.818-.039,2.634.878,2.681,3.044a7.223,7.223,0,0,1-.063,1.572,2.448,2.448,0,0,1-2.623,2.127c-1.432.036-1.7-1.012-1.951-2.031A6.753,6.753,0,0,1-4.368-1798.245Z" fill="#464544"/>
      <path id="Path_10212" data-name="Path 10212" d="M17.622-1794.3a5.017,5.017,0,0,0,2.615,4.005,4.689,4.689,0,0,1-.728,1.166c-.637.557-1.37,1.005-2.063,1.5-.347-.986-1.018-1.992-.959-2.953A15.766,15.766,0,0,1,17.622-1794.3Z" fill="#bbe4f6"/>
      <path id="Path_10213" data-name="Path 10213" d="M32.922-1812.637l-7.926-.01C26.612-1814.311,31.506-1814.305,32.922-1812.637Z" fill="#bbe4f6"/>
      <path id="Path_10214" data-name="Path 10214" d="M30.557-1809.306l9.4.733c.756,5-.912,9.073-2.245,13.163-1.833,5.622-1.139,5.28-7.9,4.871-2.312-.139-4.555-1.407-6.83-2.159.782-.962,2.192-1.9,2.232-2.89.139-3.5,2.135-5.982,3.866-8.685a3.443,3.443,0,0,0,.574-2.565C29.187-1808.106,29.84-1808.643,30.557-1809.306Z" fill="#fcfdfd"/>
      <path id="Path_10215" data-name="Path 10215" d="M30.557-1809.306c-.717.663-1.37,1.2-.907,2.468a3.443,3.443,0,0,1-.574,2.565c-1.731,2.7-3.727,5.189-3.866,8.685-.04.992-1.45,1.928-2.232,2.89-1.525-.492-2.021-1.484-2.015-3.121.014-3.873-.268-7.747-.288-11.621a2.048,2.048,0,0,1,1.25-1.541C24.793-1809.207,27.678-1809.221,30.557-1809.306Z" fill="#bbe7fd"/>
    </g>
  </g>
</svg>
