<svg xmlns="http://www.w3.org/2000/svg" xmlns:xlink="http://www.w3.org/1999/xlink" width="320" height="320" viewBox="0 0 320 320">
  <defs>
    <clipPath id="clip-_1702">
      <rect width="320" height="320"/>
    </clipPath>
  </defs>
  <g id="_1702" data-name="1702" clip-path="url(#clip-_1702)">
    <rect width="320" height="320" fill="#fff"/>
    <g id="Group_24" data-name="Group 24" transform="translate(-1765.364 -702.365)">
      <path id="Path_6941" data-name="Path 6941" d="M1848.974,712.438q29.99,0,59.977.005c9.742.007,19.484.1,29.226.093q60.3-.027,120.6-.091c3.241,0,6.487-.137,9.721,0a19.7,19.7,0,0,1,4.742.985c1.654.5,1.772,2.009,1.784,3.422.038,4.567,0,9.135.036,13.7.085,9.955.245,19.909.286,29.864.031,7.3-.117,14.6-.115,21.9,0,9.1.106,18.2.112,27.307q.03,45.741.02,91.482,0,34.844-.048,69.688c-.024,10.37-.157,20.74-.3,31.11-.041,2.861-.284,5.72-.481,8.576-.107,1.551-1.075,2.158-2.557,2.14-5.544-.067-11.088-.144-16.633-.177-25.22-.148-50.439-.33-75.659-.4-16.954-.05-33.908.1-50.862.093-32.447-.014-64.894-.107-97.341-.1-10.38,0-20.76.284-31.14.309-7.33.017-14.662-.175-21.993-.291-2.316-.037-2.685-.541-2.683-2.845.008-7.729-.047-15.458-.076-23.188-.066-17.525-.171-35.05-.187-52.574q-.054-62.361-.033-124.72c0-14.632.074-29.265.1-43.9.015-9.948-.024-19.9,0-29.844q.027-9.65.189-19.3c.041-2.288,1.195-3.321,3.434-3.322,7.547,0,15.095.016,22.642.017q23.622,0,47.244,0Zm144.966,295.63c.725.035,1.45.1,2.175.1q14.5.079,29.008.145,8.914.038,17.829.049,9.714.028,19.427.055c2.994.007,5.987,0,9.07,0,0-1.41.01-2.794,0-4.178-.087-10.155-.245-20.31-.251-30.465-.006-11.747.144-23.495.182-35.243.037-11.215.016-22.43.02-33.645.005-16.429.047-32.857,0-49.286-.032-11.647-.238-23.294-.259-34.941-.015-8.288.262-16.577.206-24.864-.083-12.231-.441-24.46-.5-36.69-.047-9.1.26-18.2.273-27.3.008-4.865-.271-9.73-.423-14.637-97.254-1.513-194.276-.6-291.415-.653,0,5.353-.005,10.3,0,15.252q.033,26.381.069,52.761c0,19.359-.053,38.718-.061,58.077q-.009,19.7.042,39.4c.017,12.954.089,25.908.033,38.862-.025,5.821-.278,11.641-.477,17.46-.074,2.165-.478,4.334-.38,6.486.079,1.734,1.008,3.444,1.009,5.165.006,10.291-.165,20.581-.238,30.872-.034,4.672.024,9.344.031,14.015.007,4.392,0,8.783,0,13.2.612.034.938.068,1.264.068q27.579.016,55.159.024,16.905,0,33.809-.068c6.038.013,12.075.037,18.113.037q42.426.006,84.853,0C1979.652,1008.127,1986.8,1008.09,1993.94,1008.068Z" fill="#090909"/>
      <path id="Path_6942" data-name="Path 6942" d="M1869.542,1008.1q-16.905.036-33.809.068-27.579.009-55.159-.024c-.326,0-.652-.034-1.264-.068,0-4.417,0-8.808,0-13.2-.007-4.671-.065-9.343-.031-14.015.073-10.291.244-20.581.238-30.872,0-1.721-.93-3.431-1.009-5.165-.1-2.152.306-4.321.38-6.486.2-5.819.452-11.639.477-17.46.056-12.954-.016-25.908-.033-38.862q-.025-19.7-.042-39.4c.008-19.359.061-38.718.061-58.077q0-26.381-.069-52.761c-.006-4.95,0-9.9,0-15.252,97.139.054,194.161-.86,291.415.653.152,4.907.431,9.772.423,14.637-.013,9.1-.32,18.2-.273,27.3.062,12.23.42,24.459.5,36.69.056,8.287-.221,16.576-.206,24.864.021,11.647.227,23.294.259,34.941.045,16.429,0,32.857,0,49.286,0,11.215.017,22.43-.02,33.645-.038,11.748-.188,23.5-.182,35.243.006,10.155.164,20.31.251,30.465.012,1.384,0,2.768,0,4.178-3.083,0-6.076.006-9.07,0q-9.714-.023-19.427-.055-8.914-.024-17.829-.049-14.5-.063-29.008-.145c-.725,0-1.45-.065-2.175-.1l3.8-3.73c.688.1,1.707.538,2,.246a5,5,0,0,0,1.561-2.7c.221-2.288.071-4.612.071-7.164.634.286.943.558,1.205.519.806-.123,1.594-.365,2.389-.56-.21-.705-.383-1.424-.641-2.11a9.089,9.089,0,0,1-.83-1.858c-1.236-10.521-2.6-21.031-3.57-31.577-1.044-11.321-2.851-22.435-6.638-33.2-2.944-8.37-7.86-15.454-13.769-21.907-4.34-4.74-9.073-9-15.454-10.916-.587-.177-.956-.993-1.5-1.422-.694-.549-1.479-1.441-2.192-1.411-1.4.06-1.6,1.316-1.483,2.535-1.266-.272-2.534-.537-3.8-.818a39.116,39.116,0,0,0-14.783-.8c-.032-2.371-.12-4.745-.044-7.113a1.744,1.744,0,0,1,1.079-1.224,45.766,45.766,0,0,0,13.631-5.584l3.976-2.782,1.128-.792,5.212-4.841,1.171-1.512.416-.493q.593-.746,1.183-1.492c.472-.559.943-1.119,1.483-1.761l.611,1.755.379.8a2.666,2.666,0,0,0,3.02,2.256,4.31,4.31,0,0,0,2.71-1.485,28.1,28.1,0,0,0,2.069-3.969c3.136-5.745,6.068-11.619,9.515-17.172,3.93-6.331,7.635-12.616,7.492-20.406-.1-5.6-.118-11.21-.152-16.815-.021-3.456,0-6.912,0-10.368l.319-.046c.09.3.18.6.152.508.086-1.017.28-2.452.315-3.89.131-5.489-1.6-10.49-4.206-15.219a30.254,30.254,0,0,0-3.477-5.5c-2.779-3.154-5.755-6.147-8.8-9.054-2.36-2.257-4.622-4.976-7.479-6.293-11.776-5.428-24.191-8.918-37.218-9.121-14.723-.23-29.46,0-44.181.391-2.494.066-4.947,1.915-7.4,2.983a1.127,1.127,0,0,0-.532.78c-.211,1.678-1.34,2.173-2.792,2.61a5.726,5.726,0,0,0-2.692,1.813c-3.12,3.954-6.3,7.884-9.083,12.07-1.929,2.9-3.952,6.042-4.7,9.355a202.378,202.378,0,0,0-3.532,21.919,29.323,29.323,0,0,0,.545,11.16c1.192,4.12,3.712,7.856,5.656,11.758l3.939,2.589c1.223,5.13,2.612,10.909,3.976,16.694,2.262,9.589,4.386,19.22,8.34,28.307,1.536,3.528,3.024,7,6.526,9.3a30.412,30.412,0,0,0,13.755,4.664c3.462.37,5.175,2.2,5.515,5.631a53.029,53.029,0,0,0,1.435,7.1c.114.471.791,1.2,1.086,1.148a2.25,2.25,0,0,0,1.481-1.1,4.077,4.077,0,0,0,.074-2.084c-.217-1.552-.531-3.091-.8-4.635l3.83-.025,2.4,2.231,1.169.02.815.02,1.174.005,9.155.392.791-.013,1.281.475c-2.012.379-3.488.7-4.978.921a7.924,7.924,0,0,1-2.279.061c-.812-.115-2-.876-2.3-.592-.618.587-.754,1.682-1.2,2.864-.452.134-1.558.848-2.079.548-2.215-1.275-3.606-.045-5.024,1.274-2.445,2.275-4.856,4.587-7.586,7.172a12.5,12.5,0,0,1,.619-8.276c1.122-2.431.49-3.244-2.214-3.08l-2.332-.119c-.054-1.1-.168-2.331-1.578-2.29-3.319.094-6.528.3-9.617,2.111-8.5,4.99-13.253,12.841-17,21.468-3.545,8.165-3.975,16.959-4.349,25.672-.389,9.069-.283,18.159-.506,27.236-.161,6.514-.558,13.022-.717,19.535-.024.975.679,1.967,1.046,2.951Q1869.733,1000.341,1869.542,1008.1Zm-21.07-207.6c-.429-1.395-1.469-1.247-2.571-1.069a5.243,5.243,0,0,1-1.3-.113c-.776-.077-1.791-.483-2.263-.141-.5.363-.553,1.426-.678,2.2-.213,1.321-.052,2.77-.541,3.963-1.207,2.946-2.607,5.791-5.165,7.95-.6.5-.36,1.989-.508,3.023a17.933,17.933,0,0,0,2.68.322c.447-.007.886-.438,1.9-.987l2.715,15.525,3.672-3.378c.937-1.564,1.951-3.087,2.792-4.7,1.041-2,1.591-4.241,3.643-5.654a15.279,15.279,0,0,0,2.872-3,1.84,1.84,0,0,0,.432-1.491c-1.975-4.294-4.039-8.546-6.066-12.783Zm164.6-57.787c0-1.268-.023-2.3.007-3.328.033-1.153.172-2.38-1.469-2.479-1.722-.1-2.083,1.062-2.1,2.457-.021,2.308.071,4.623-.071,6.924-.08,1.279.117,2.7-1.3,3.643-1.7,1.128-1.841,2.261-.269,3.545a5.313,5.313,0,0,0,3.443,1.319,23.507,23.507,0,0,0,6.8-1.7,6.4,6.4,0,0,0,4.163-5.948c.118-4.673-3.292-7.037-7.56-5.173C2014.267,742.163,2013.814,742.372,2013.07,742.706Zm-24.9,1.041c-.507-.471-.928-.892-1.38-1.277a13.979,13.979,0,0,0-1.536-1.2c-2.174-1.372-3.145-.911-4.178,1.276a23.713,23.713,0,0,0-1.727,6.2c-.4,2.424.437,3.8,2.361,4.676a4.623,4.623,0,0,0,5.626-.952c.282-.276.588-.528.987-.883a38.166,38.166,0,0,0,.35,4.378,1.936,1.936,0,0,0,1.289,1.193c.352.075,1-.521,1.267-.967a3.429,3.429,0,0,0,.351-1.671c.025-2.9-.045-5.806.007-8.707C1991.626,743.323,1990.688,742.7,1988.165,743.747Zm50.906,87.165c.776-.872,1.284-1.482,1.833-2.054a6.321,6.321,0,0,0,1.486-6.743c-.75-2.415-2.751-2.747-4.779-3.14-1.076-.208-2.271-.159-2.234,1.116.022.775.96,1.636,1.67,2.244.644.551,1.934.617,2.236,1.239a2.714,2.714,0,0,1-1.1,3.4c-1.138.877-2.364,1.66-3.407,2.638-.654.613-1.637,1.829-1.429,2.217a3.982,3.982,0,0,0,2.459,2.05,84.844,84.844,0,0,0,9.439.3c.319,0,.967-1,.886-1.424a2.256,2.256,0,0,0-2.615-1.86C2042.1,830.953,2040.681,830.912,2039.071,830.912Zm2.17-82.992c-.017,4.079.908,5.4,4.408,6.018a12.981,12.981,0,0,0,2.565.091c1.149-.031,2.758.229,2.812-1.362.049-1.452-1.431-1.831-2.712-2.03-.2-.03-.389-.08-.585-.1-2.987-.281-3.037-.283-2.907-3.348.086-2.041-.145-4.343,2.718-4.879,1.155-.217,1.7-1.135,1.2-2a2.692,2.692,0,0,0-2.266-1.121c-3.722.98-4.769,2.2-4.831,5.221C2041.614,745.585,2041.379,746.751,2041.241,747.92Zm-40.621-2.64c1.3,0,2.267.011,3.237,0,1.394-.02,1.83-.743,1.169-1.919-.54-.962-1.391-1.749-1.938-2.709-.824-1.443-2.076-1.922-3.218-.877a25.849,25.849,0,0,0-3.556,4.535c-.195.282.155.971.309,1.454.3.945.691,1.863.954,2.818.4,1.447.657,2.935,1.1,4.369.3.962.594,2.325,2.03,1.8,1.31-.484,1.659-1.588,1.247-3.058C2001.39,749.688,2001.091,747.616,2000.62,745.28Zm23.108,45.2c-1.325.611-3.935-.681-3.691,2.016.219,2.415,2.49,1.4,4.108,1.6a22.854,22.854,0,0,0,1.018,3.5c.313.683,1.1,1.15,1.672,1.714a17.619,17.619,0,0,0,1.644-2.059c.2-.333-.021-.9,0-1.356.047-1.023.125-2.045.2-3.236a21.3,21.3,0,0,1-.83-4.633c.027-1.223-.212-2.172-1.281-2.141a3.306,3.306,0,0,0-2.253,1.579A9.225,9.225,0,0,0,2023.728,790.477Zm-10.768-3.159c-.571.854-1.631,1.752-1.764,2.772a62.589,62.589,0,0,0-.446,8.671c.007.83.8,1.653,1.238,2.479a16.92,16.92,0,0,0,2.255-1.976c.318-.387.236-1.121.292-1.7.252-2.6.41-5.2.759-7.788C2015.5,788.233,2014.658,787.8,2012.96,787.318Zm26.982,4.982.134.018c0,.989-.059,1.983.023,2.965a7.253,7.253,0,0,0,.505,1.589c.651-.224,1.545-.263,1.894-.719a4.8,4.8,0,0,0,.706-2.334c.238-2.208.231-4.451.6-6.633.2-1.209.317-2.163-1.044-2.458-1.436-.311-2.017.722-2.191,1.911C2040.292,788.516,2040.144,790.412,2039.942,792.3ZM2017.6,833.744c2.721-.419,4.742-.643,6.721-1.062,1.551-.329,1.814-1.322.591-2.32a3.692,3.692,0,0,0-2.28-.566c-1.845.052-3.65,1.057-5.558-.105-.367-.223-1.485.511-2.05,1.029-.223.205-.073,1.25.243,1.523A15.71,15.71,0,0,0,2017.6,833.744Zm3.493-8.966v.012a10.841,10.841,0,0,0,1.776-.019c.722-.122,2.01-.354,2.024-.595a3.661,3.661,0,0,0-.658-2.473,3.954,3.954,0,0,0-2.293-.7,22.493,22.493,0,0,0-2.906-.065c-.831,0-1.817-.214-2.437.16a2.078,2.078,0,0,0-.434,2.025,4.184,4.184,0,0,0,2.18,1.6A9.382,9.382,0,0,0,2021.092,824.778Zm33.41-59.436c.3,1.19.286,2.081.716,2.614a4.946,4.946,0,0,0,2.383,1.792c.813.189,1.809-.41,2.724-.661-.469-1.2,1.765-3.231-1.132-3.708-.114-.018-.213-.3-.269-.473-.5-1.57-1.865-1.482-2.963-1.221C2055.346,763.832,2054.932,764.822,2054.5,765.342Zm-23.036-21.671a9.564,9.564,0,0,0,.967-.053c.941-.186,2.478.69,2.442-1.28-.03-1.654-1-2.229-2.572-2.162-.907.039-1.846-.283-2.729-.158a8.644,8.644,0,0,0-2.192.953c.446.759.718,1.83,1.382,2.2A7.542,7.542,0,0,0,2031.466,743.671Zm.09,6.774.317.478c.826-.6,2.03-1.033,2.378-1.838.4-.92-1.513-2.576-2.674-2.521-1.316.062-2.8.027-2.782,1.961C2028.811,750.4,2030.1,750.568,2031.556,750.445Zm28.18,80.485a1.56,1.56,0,0,0-1.786,1.732,3.123,3.123,0,0,0,1.838,3.205,2.082,2.082,0,0,0,2.494-2.211C2062.134,832.462,2062.385,830.724,2059.736,830.93Zm6.026,4.058.8-.167a18.652,18.652,0,0,0,1.432-3.991,3.983,3.983,0,0,0-2.844-1.085,3.2,3.2,0,0,0-1.508,2.716C2063.771,833.384,2065.008,834.152,2065.762,834.988Zm-19.466-70.5a3.8,3.8,0,0,0-2.515,3.183,1.99,1.99,0,0,0,2.615,1.908,4.149,4.149,0,0,0,1.867-2.964C2048.348,766.009,2047,765.2,2046.3,764.488Zm6.674,65.619c-1.7,1.672-1.1,3.187-.381,4.384a2.913,2.913,0,0,0,2.535.18,4.361,4.361,0,0,0,.539-3.32C2055.325,830.616,2053.77,830.441,2052.97,830.107Z" fill="#fefefd"/>
      <path id="Path_6943" data-name="Path 6943" d="M1940.313,891.187a39.116,39.116,0,0,1,14.783.8c1.264.281,2.532.546,3.8.818.956,1.6,1.577,3.5,3.763,3.952,4.209.871,7.521,3.36,10.4,6.318a135.524,135.524,0,0,1,10.305,11.594,45.237,45.237,0,0,1,7.838,16.511l.37,1,.074.073-.055.089.8,2.635,0,.151c.7,4.049,1.392,8.1,2.122,12.142.03.161.411.258.629.385l1.722,14.6c-.088.1-.258.193-.254.284.172,3.712.331,7.425.592,11.131.025.354.7.662,1.079.992.378,4.17.755,8.34,1.142,12.615a7.2,7.2,0,0,1-1.379.146c-4.068-.366-8.137-.724-12.2-1.166a3.153,3.153,0,0,1-3.058-2.972c-1.394-8.512-2.74-17.039-4.447-25.49a76.416,76.416,0,0,0-7.719-22.322q-4.885-8.768-9.991-17.409c-.268-.456-1.591-.855-1.879-.618-.6.49-1.317,1.605-1.12,2.149a36.616,36.616,0,0,0,2.905,6.184c1.764,2.971,3.881,5.735,5.612,8.724,5.43,9.374,8.086,19.7,9.941,30.25,1.342,7.624,2.578,15.276,3.521,22.957.379,3.089,1.445,6.344-.319,9.466-.225.4.263,1.229.488,1.835.2.542.566,1.028.735,1.577.524,1.707,1.194,1.854,2.694.877a6.044,6.044,0,0,1,2.949-1c3.774-.114,7.553-.046,11.356-.046l.237,3.914-3.8,3.731c-7.144.022-14.288.059-21.432.061q-42.426.012-84.853,0c-6.038,0-12.075-.024-18.113-.037q.192-7.755.382-15.51c2.1-.422,2.666-1.632,2.688-3.8.08-7.822.489-15.64.69-23.462.145-5.627.158-11.258.23-16.888.383-2.78.876-5.552,1.126-8.344a43.592,43.592,0,0,1,4.661-17.046c2.626-4.866,5.652-9.52,8.577-14.22a30.846,30.846,0,0,1,3.287-4.423c2.248-2.482,4.641-4.833,6.974-7.239l4.488-1.263,2.332.119c-2.635,3.525-2.726,7.5-2.119,11.628.485,3.288,3.522,4.215,5.994,2.246,1.337-1.065,2.591-2.236,3.853-3.39,2.206-2.017,4.39-4.058,6.221-5.754,2.2,3.375,4.113,6.636,6.363,9.643a49.713,49.713,0,0,0,5.764,6.223c2.122,2,4.8,1.426,5.187-1.085a28.014,28.014,0,0,1,4.739-12.339c.777-1.088.449-1.836-.77-2.263.758-1,1.584-1.948,2.25-3a14.776,14.776,0,0,0,.99-2.34l1.99-1.389a8.1,8.1,0,0,0-1.375-1.809c-.357-.272-1.079-.154-1.618-.077-.809.116-1.6.351-2.669.6Z" fill="#bbe9fe"/>
      <path id="Path_6944" data-name="Path 6944" d="M1866.087,824.412c-1.944-3.9-4.464-7.638-5.656-11.758a29.323,29.323,0,0,1-.545-11.16,202.378,202.378,0,0,1,3.532-21.919c.749-3.313,2.772-6.456,4.7-9.355,2.785-4.186,5.963-8.116,9.083-12.07a5.726,5.726,0,0,1,2.692-1.813c1.452-.437,2.581-.932,2.792-2.61a1.127,1.127,0,0,1,.532-.78c2.453-1.068,4.906-2.917,7.4-2.983,14.721-.388,29.458-.621,44.181-.391,13.027.2,25.442,3.693,37.218,9.121,2.857,1.317,5.119,4.036,7.479,6.293,3.04,2.907,6.016,5.9,8.8,9.054a30.254,30.254,0,0,1,3.477,5.5c2.608,4.729,4.337,9.73,4.206,15.219-.035,1.438-.229,2.873-.315,3.89.028.092-.062-.208-.152-.508l-.319.046c0,3.456-.017,6.912,0,10.368.034,5.6.049,11.211.152,16.815.143,7.79-3.562,14.075-7.492,20.406-3.447,5.553-6.379,11.427-9.515,17.172a28.1,28.1,0,0,1-2.069,3.969,4.31,4.31,0,0,1-2.71,1.485,2.666,2.666,0,0,1-3.02-2.256l-.379-.8-.611-1.755c-.54.642-1.011,1.2-1.483,1.761q-.591.746-1.183,1.492l-.416.493-1.171,1.512-5.212,4.841-1.128.792-3.976,2.782-1.553-2.095c.66-.377,1.313-.766,1.982-1.127a2.748,2.748,0,0,1,.738-.25c2.307-.474,2.365-.575,1.7-3.077l.134-.1c1.3-.648,2.627-1.266,3.908-1.959a14.933,14.933,0,0,0,1.433-1.1,6.935,6.935,0,0,0,1.354-.9c.413-.488.491-1.37.971-1.669,1.714-1.068,1.108-2.55.931-3.985,1.238-3.005,2.6-5.966,3.671-9.03.824-2.367,1.273-4.865,1.889-7.3.558-.894,1.093-2.526,1.68-2.545a9.3,9.3,0,0,0,4.569-1.771,7.954,7.954,0,0,0,2.831-2.556c2.6-4.519,1.9-9.262.279-13.866a4.912,4.912,0,0,0-2.86-2.6c-1.752-.541-3.268.632-4.067,2.17-1.3,2.5-2.407,5.1-3.467,7.708-.431,1.062-.853,1.617-2,.995a30.386,30.386,0,0,1-.53-3.089c-.168-2.362-.151-4.74-.37-7.1-.254-2.74-1.013-5.2-4.331-5.657a3.235,3.235,0,0,1-.9-.373q-5.743-2.781-11.482-5.568l-.878-.309c-2.1-1.475-4.2-2.971-6.32-4.416-1.054-.716-2.132-1.831-3.267-1.922a62.521,62.521,0,0,1-18.6-4.677,9.235,9.235,0,0,0-1.64-.264l2.73,3.809c1.011,2.456,3.8,4.16,3.1,7.34a22.392,22.392,0,0,1-4.078.364,24.852,24.852,0,0,1-4.121-1.039l-14.315-6.082c-.18-.077-.433-.272-.531-.213-1.822,1.1-3.024-.345-4.174-1.2a66.314,66.314,0,0,1-8.4-6.857c-3.942-4.091-7.5-8.552-11.245-12.883-1.494,1.586-1.642,3.789-1.561,6.057-1.584,5.328-3.342,10.611-4.694,16-.985,3.926-2.186,7.909-1.223,12.076.324,1.4.531,2.832.791,4.25q.272,1.5.542,3.01c.019.063.063.131.051.187a2.855,2.855,0,0,1-.129.364,4.128,4.128,0,0,1-.939.684c-.877.319-2.118,1.028-2.6.694-.622-.43-.727-1.708-.909-2.648-.28-1.443-.436-2.909-.65-4.4l-1.254.455-.236-.125.125.236a15.268,15.268,0,0,1,.525,2.882C1867.6,822.868,1867.595,824.127,1866.087,824.412Zm107.979,38.566-.674-.454-1.229,2.1.537.341Z" fill="#181818"/>
      <path id="Path_6945" data-name="Path 6945" d="M1991.2,931.184a45.237,45.237,0,0,0-7.838-16.511,135.524,135.524,0,0,0-10.305-11.594c-2.88-2.958-6.192-5.447-10.4-6.318-2.186-.453-2.807-2.352-3.763-3.952-.117-1.219.085-2.475,1.483-2.535.713-.03,1.5.862,2.192,1.411.543.429.912,1.245,1.5,1.422,6.381,1.919,11.114,6.176,15.454,10.916,5.909,6.453,10.825,13.537,13.769,21.907,3.787,10.769,5.594,21.883,6.638,33.2.971,10.546,2.334,21.056,3.57,31.577a9.089,9.089,0,0,0,.83,1.858c.258.686.431,1.405.641,2.11-.795.2-1.583.437-2.389.56-.262.039-.571-.233-1.205-.519,0,2.552.15,4.876-.071,7.164a5,5,0,0,1-1.561,2.7c-.293.292-1.312-.142-2-.246-.08-1.315-.159-2.628-.237-3.915-3.8,0-7.582-.068-11.356.046a6.044,6.044,0,0,0-2.949,1c-1.5.977-2.17.83-2.694-.877-.169-.549-.534-1.035-.735-1.577-.225-.606-.713-1.439-.488-1.835,1.764-3.122.7-6.377.319-9.466-.943-7.681-2.179-15.333-3.521-22.957-1.855-10.548-4.511-20.876-9.941-30.25-1.731-2.989-3.848-5.753-5.612-8.724a36.616,36.616,0,0,1-2.905-6.184c-.2-.544.523-1.659,1.12-2.149.288-.237,1.611.162,1.879.618q5.1,8.646,9.991,17.409a76.416,76.416,0,0,1,7.719,22.322c1.707,8.451,3.053,16.978,4.447,25.49a3.153,3.153,0,0,0,3.058,2.972c4.06.442,8.129.8,12.2,1.166a7.2,7.2,0,0,0,1.379-.146c-.387-4.275-.764-8.445-1.142-12.615-.1-1.3-.157-2.611-.313-3.907-.341-2.836-.733-5.667-1.1-8.5l-1.722-14.6a26.491,26.491,0,0,0-.367-2.909c-.757-3.215-1.584-6.413-2.384-9.618l0-.151-.8-2.635.055-.089-.074-.074Q1991.386,931.683,1991.2,931.184Zm6.3,66.282v-6.33l-13.8-1.3c.114,2.1.118,3.952.378,5.766a1.934,1.934,0,0,0,1.421,1.207c2.685.076,5.377-.117,8.063-.048A26.1,26.1,0,0,1,1997.5,997.466Z" fill="#232627"/>
      <path id="Path_6946" data-name="Path 6946" d="M1902.645,895.9l-4.488,1.263c-2.88-.4-5.042,1.215-7.161,2.72-6.46,4.588-10.268,11.183-13.333,18.25a44.748,44.748,0,0,0-3.409,15.12c-.316,5.056-.487,10.121-.722,15.182-.072,5.63-.085,11.261-.23,16.888-.2,7.822-.61,15.64-.69,23.462-.022,2.166-.589,3.376-2.688,3.8-.366-.984-1.069-1.976-1.045-2.951.159-6.513.556-13.021.717-19.535.223-9.077.117-18.167.506-27.236.374-8.713.8-17.507,4.349-25.672,3.746-8.627,8.5-16.478,17-21.468,3.089-1.814,6.3-2.017,9.617-2.111C1902.477,893.572,1902.591,894.807,1902.645,895.9Z" fill="#272828"/>
      <path id="Path_6947" data-name="Path 6947" d="M1867.186,818.8l1.254-.454c.214,1.494.37,2.96.65,4.4.182.94.287,2.218.909,2.648.482.334,1.723-.375,2.6-.694a4.128,4.128,0,0,0,.939-.684c1.893,8.289,3.587,16.631,5.739,24.852,1.913,7.3,4.213,14.517,6.588,21.688,1.028,3.105,2.517,6.025,5.585,7.906a30.668,30.668,0,0,0,13.1,3.99c2.221.24,4.4.325,4.7,3.323.055.552.719,1.043,1.1,1.563l1.06,4.685c.274,1.544.588,3.083.8,4.635a4.077,4.077,0,0,1-.074,2.084,2.25,2.25,0,0,1-1.481,1.1c-.3.054-.972-.677-1.086-1.148a53.029,53.029,0,0,1-1.435-7.1c-.34-3.428-2.053-5.261-5.515-5.631a30.412,30.412,0,0,1-13.755-4.664c-3.5-2.294-4.99-5.77-6.526-9.3-3.954-9.087-6.078-18.718-8.34-28.307-1.364-5.785-2.753-11.564-3.976-16.694l-3.939-2.589c1.508-.285,1.51-1.544,1.513-2.619a15.268,15.268,0,0,0-.525-2.882Z" fill="#272727"/>
      <path id="Path_6948" data-name="Path 6948" d="M1911.409,892.025q-.53-2.343-1.06-4.685a20.383,20.383,0,0,1,3.8-.852c3.439-.121,6.887.016,10.328-.07,2.034-.05,4.069-.269,6.089-.522,1.593-.2,2.567-1.048,2.169-2.821-.867-3.865,1.645-6.106,4.034-8.385a2.5,2.5,0,0,1,1.415-.554,44.112,44.112,0,0,0,17.63-5.5c2.243-1.262,4.756-2.822,5.995-4.925a75.039,75.039,0,0,0,5.7-12.835,13.118,13.118,0,0,1,4.632-6.2c-.616,2.44-1.065,4.938-1.889,7.3-1.067,3.064-2.433,6.025-3.671,9.03l-8.6,9.607-.134.1a40.655,40.655,0,0,1-12.887,6.993c-2.541.8-5.158,1.366-7.761,1.949-1.345.3-1.633,1.077-1.47,2.3.324,2.431.588,4.871.887,7.395h-2.3l-1.838.6-1.744.347-2.387.205-1.187.048-5.175.007-1.991.015-4,.162-.761,1.265Z" fill="#bce7fb"/>
      <path id="Path_6949" data-name="Path 6949" d="M1940.208,900.932c1.22.426,1.548,1.174.771,2.262a28.014,28.014,0,0,0-4.739,12.339c-.385,2.511-3.065,3.088-5.187,1.085a49.713,49.713,0,0,1-5.764-6.223c-2.25-3.007-4.161-6.268-6.363-9.643-1.831,1.7-4.015,3.737-6.221,5.754-1.262,1.154-2.516,2.325-3.853,3.39-2.472,1.969-5.509,1.042-5.994-2.246-.607-4.128-.516-8.1,2.119-11.628,2.7-.164,3.336.649,2.214,3.08a12.5,12.5,0,0,0-.619,8.276c2.73-2.585,5.141-4.9,7.586-7.172,1.418-1.319,2.809-2.549,5.024-1.274.521.3,1.627-.414,2.079-.548.447-1.182.583-2.277,1.2-2.864.3-.284,1.49.477,2.3.592a7.924,7.924,0,0,0,2.279-.061c1.49-.226,2.966-.542,4.978-.921l-1.281-.475,3.124-.865.252.766-2.978,1.423c-.62.14-1.395.1-1.827.46-.861.725-2.767.967-1.7,2.867l-2.837.185a9.846,9.846,0,0,0-.623-2.242c-.205-.383-.873-.517-1.333-.764a6.327,6.327,0,0,0-.239,1.578c.03.33.413.629.637.942v.572l-.051-.011c.176,2.559,1.7,4.452,3.19,6.34,2.008,2.548,4.076,5.047,6.044,7.476,1.546-3.618,2.948-6.887,4.338-10.161A3.263,3.263,0,0,1,1940.208,900.932Z" fill="#262829"/>
      <path id="Path_6950" data-name="Path 6950" d="M1846.414,827.791l-3.672,3.378-2.715-15.525c-1.018.549-1.457.98-1.9.987a17.933,17.933,0,0,1-2.68-.322c.148-1.034-.087-2.52.508-3.023,2.558-2.159,3.958-5,5.165-7.95.489-1.193.328-2.642.541-3.963.125-.777.178-1.84.678-2.2.472-.342,1.487.064,2.263.141a5.243,5.243,0,0,0,1.3.113c1.1-.178,2.142-.326,2.571,1.069.073,2.317.059,4.639.241,6.946a7.289,7.289,0,0,0,2.754,5.618c1.264.914.967,1.606.245,2.579a18.583,18.583,0,0,0-2.62,3.883C1848.021,822.205,1847.288,825.026,1846.414,827.791Zm-1.582-8.611c.912-1.479,1.7-2.73,2.451-4a.963.963,0,0,0,.147-.723c-1.031-2.333-2.1-4.651-3.166-6.995-.821,1.525-1.684,3.128-2.388,4.434C1842.893,814.4,1843.81,816.661,1844.832,819.18Z" fill="#26241f"/>
      <path id="Path_6951" data-name="Path 6951" d="M1931.138,895.979l2.978-1.423-.252-.766-3.124.865-.791.013c-.335-.194-.665-.546-1.005-.556-2.715-.081-5.432-.1-8.148-.134l-.8-3.405,1.991-.015c1.726,1.183,3.451.806,5.175-.007l1.187-.048c.888,1.011,1.634.368,2.387-.205l1.745-.347,1.837-.6h2.3c-.3-2.524-.563-4.964-.887-7.395-.163-1.224.125-2,1.47-2.3,2.6-.583,5.22-1.15,7.761-1.949a40.655,40.655,0,0,0,12.887-6.993c.661,2.5.6,2.6-1.7,3.077a2.748,2.748,0,0,0-.738.25c-.669.361-1.322.75-1.982,1.127l1.553,2.095a45.766,45.766,0,0,1-13.631,5.584,1.744,1.744,0,0,0-1.079,1.224c-.076,2.368.012,4.742.044,7.113-.146.471-.293.942-.536,1.725,1.068-.246,1.86-.481,2.669-.6.539-.077,1.261-.2,1.618.077a8.1,8.1,0,0,1,1.375,1.809l-1.99,1.389-9.954,2.292Z" fill="#232424"/>
      <path id="Path_6952" data-name="Path 6952" d="M2013.07,742.706c.744-.334,1.2-.543,1.655-.743,4.268-1.864,7.678.5,7.56,5.173a6.4,6.4,0,0,1-4.163,5.948,23.507,23.507,0,0,1-6.8,1.7,5.313,5.313,0,0,1-3.443-1.319c-1.572-1.284-1.435-2.417.269-3.545,1.416-.938,1.219-2.364,1.3-3.643.142-2.3.05-4.616.071-6.924.012-1.4.373-2.561,2.1-2.457,1.641.1,1.5,1.326,1.469,2.479C2013.047,740.407,2013.07,741.438,2013.07,742.706Zm-.448,8.286c2.469-.134,4.566-.764,5.691-2.8.479-.87.08-2.225.08-3.379C2015.022,745.036,2013.4,746.927,2012.622,750.992Z" fill="#262626"/>
      <path id="Path_6953" data-name="Path 6953" d="M1988.165,743.747c2.523-1.049,3.461-.424,3.417,2.062-.052,2.9.018,5.8-.007,8.707a3.429,3.429,0,0,1-.351,1.671c-.267.446-.915,1.042-1.267.967a1.936,1.936,0,0,1-1.289-1.193,38.166,38.166,0,0,1-.35-4.378c-.4.355-.7.607-.987.883a4.623,4.623,0,0,1-5.626.952c-1.924-.88-2.765-2.252-2.361-4.676a23.713,23.713,0,0,1,1.727-6.2c1.033-2.187,2-2.648,4.178-1.276a13.979,13.979,0,0,1,1.536,1.2C1987.237,742.855,1987.658,743.276,1988.165,743.747Zm-4.505.19c-.446,1.772-.919,3.306-1.177,4.875a1.794,1.794,0,0,0,.666,1.559,2.164,2.164,0,0,0,1.92-.288,23.289,23.289,0,0,0,2.142-3.115Z" fill="#262626"/>
      <path id="Path_6954" data-name="Path 6954" d="M2039.071,830.912c1.61,0,3.029.041,4.444-.011a2.256,2.256,0,0,1,2.615,1.86c.081.426-.567,1.422-.886,1.424a84.844,84.844,0,0,1-9.439-.3,3.982,3.982,0,0,1-2.459-2.05c-.208-.388.775-1.6,1.429-2.217,1.043-.978,2.269-1.761,3.407-2.638a2.714,2.714,0,0,0,1.1-3.4c-.3-.622-1.592-.688-2.236-1.239-.71-.608-1.648-1.469-1.67-2.244-.037-1.275,1.158-1.324,2.234-1.116,2.028.393,4.029.725,4.779,3.14a6.321,6.321,0,0,1-1.486,6.743C2040.355,829.43,2039.847,830.04,2039.071,830.912Z" fill="#292929"/>
      <path id="Path_6955" data-name="Path 6955" d="M1846.414,827.791c.874-2.765,1.607-5.586,2.678-8.272a18.583,18.583,0,0,1,2.62-3.883c.722-.973,1.019-1.665-.245-2.579a7.289,7.289,0,0,1-2.754-5.618c-.182-2.307-.168-4.629-.241-6.946l1.615-.33c2.027,4.237,4.091,8.489,6.066,12.783a1.84,1.84,0,0,1-.432,1.491,15.279,15.279,0,0,1-2.872,3c-2.052,1.413-2.6,3.655-3.643,5.654C1848.365,824.7,1847.351,826.227,1846.414,827.791Z" fill="#fad663"/>
      <path id="Path_6956" data-name="Path 6956" d="M2041.241,747.92c.138-1.169.373-2.335.4-3.506.062-3.026,1.109-4.241,4.831-5.221a2.692,2.692,0,0,1,2.266,1.121c.5.863-.04,1.781-1.2,2-2.863.536-2.632,2.838-2.718,4.879-.13,3.065-.08,3.067,2.907,3.348.2.018.389.068.585.1,1.281.2,2.761.578,2.712,2.03-.054,1.591-1.663,1.331-2.812,1.362a12.981,12.981,0,0,1-2.565-.091C2042.149,753.324,2041.224,752,2041.241,747.92Z" fill="#292929"/>
      <path id="Path_6957" data-name="Path 6957" d="M2000.62,745.28c.471,2.336.77,4.408,1.331,6.406.412,1.47.063,2.574-1.247,3.058-1.436.529-1.735-.834-2.03-1.8-.44-1.434-.7-2.922-1.1-4.369-.263-.955-.653-1.873-.954-2.818-.154-.483-.5-1.172-.309-1.454a25.849,25.849,0,0,1,3.556-4.535c1.142-1.045,2.394-.566,3.218.877.547.96,1.4,1.747,1.938,2.709.661,1.176.225,1.9-1.169,1.919C2002.887,745.291,2001.916,745.28,2000.62,745.28Z" fill="#232424"/>
      <path id="Path_6958" data-name="Path 6958" d="M2023.728,790.477a9.225,9.225,0,0,1,.586-3.015,3.306,3.306,0,0,1,2.253-1.579c1.069-.031,1.308.918,1.281,2.141a21.3,21.3,0,0,0,.83,4.633c-.075,1.191-.153,2.213-.2,3.236-.02.458.2,1.023,0,1.356a17.619,17.619,0,0,1-1.644,2.059c-.574-.564-1.359-1.031-1.672-1.714a22.854,22.854,0,0,1-1.018-3.5c-1.618-.2-3.889.816-4.108-1.6C2019.793,789.8,2022.4,791.088,2023.728,790.477Z" fill="#272828"/>
      <path id="Path_6959" data-name="Path 6959" d="M2012.96,787.318c1.7.484,2.543.915,2.334,2.455-.349,2.583-.507,5.192-.759,7.788-.056.582.026,1.316-.292,1.7a16.92,16.92,0,0,1-2.255,1.976c-.435-.826-1.231-1.649-1.238-2.479a62.589,62.589,0,0,1,.446-8.671C2011.329,789.07,2012.389,788.172,2012.96,787.318Z" fill="#2a2a2a"/>
      <path id="Path_6960" data-name="Path 6960" d="M2039.942,792.3c.2-1.888.35-3.784.625-5.661.174-1.189.755-2.222,2.191-1.911,1.361.295,1.247,1.249,1.044,2.458-.367,2.182-.36,4.425-.6,6.633a4.8,4.8,0,0,1-.706,2.334c-.349.456-1.243.495-1.894.719a7.253,7.253,0,0,1-.505-1.589c-.082-.982-.023-1.976-.023-2.965Z" fill="#272828"/>
      <path id="Path_6961" data-name="Path 6961" d="M2017.6,833.744a15.71,15.71,0,0,1-2.333-1.5c-.316-.273-.466-1.318-.243-1.523.565-.518,1.683-1.252,2.05-1.029,1.908,1.162,3.713.157,5.558.105a3.692,3.692,0,0,1,2.28.566c1.223,1,.96,1.991-.591,2.32C2022.341,833.1,2020.32,833.325,2017.6,833.744Z" fill="#2a2a2a"/>
      <path id="Path_6962" data-name="Path 6962" d="M2021.092,824.778a9.382,9.382,0,0,1-2.748-.059,4.184,4.184,0,0,1-2.18-1.6,2.078,2.078,0,0,1,.434-2.025c.62-.374,1.606-.156,2.437-.16a22.493,22.493,0,0,1,2.906.065,3.954,3.954,0,0,1,2.293.7,3.661,3.661,0,0,1,.658,2.473c-.014.241-1.3.473-2.024.595a10.841,10.841,0,0,1-1.776.019Z" fill="#2b2b2b"/>
      <path id="Path_6963" data-name="Path 6963" d="M2054.5,765.342c.43-.52.844-1.51,1.459-1.657,1.1-.261,2.461-.349,2.963,1.221.056.174.155.455.269.473,2.9.477.663,2.506,1.132,3.708-.915.251-1.911.85-2.724.661a4.946,4.946,0,0,1-2.383-1.792C2054.788,767.423,2054.8,766.532,2054.5,765.342Z" fill="#181818"/>
      <path id="Path_6964" data-name="Path 6964" d="M2031.466,743.671a7.542,7.542,0,0,1-2.7-.5c-.664-.369-.936-1.44-1.382-2.2a8.644,8.644,0,0,1,2.192-.953c.883-.125,1.822.2,2.729.158,1.573-.067,2.542.508,2.572,2.162.036,1.97-1.5,1.094-2.442,1.28A9.564,9.564,0,0,1,2031.466,743.671Z" fill="#2b2b2b"/>
      <path id="Path_6965" data-name="Path 6965" d="M2031.556,750.445c-1.458.123-2.745-.05-2.761-1.92-.017-1.934,1.466-1.9,2.782-1.961,1.161-.055,3.072,1.6,2.674,2.521-.348.8-1.552,1.24-2.378,1.838Z" fill="#2b2b2b"/>
      <path id="Path_6966" data-name="Path 6966" d="M2059.736,830.93c2.649-.206,2.4,1.532,2.546,2.726a2.082,2.082,0,0,1-2.494,2.211,3.123,3.123,0,0,1-1.838-3.205A1.56,1.56,0,0,1,2059.736,830.93Z" fill="#181818"/>
      <path id="Path_6967" data-name="Path 6967" d="M2065.762,834.988c-.754-.836-1.991-1.6-2.12-2.527a3.2,3.2,0,0,1,1.508-2.716,3.983,3.983,0,0,1,2.844,1.085,18.652,18.652,0,0,1-1.432,3.991Z" fill="#181818"/>
      <path id="Path_6968" data-name="Path 6968" d="M2046.3,764.488c.7.716,2.052,1.521,1.967,2.127a4.149,4.149,0,0,1-1.867,2.964,1.99,1.99,0,0,1-2.615-1.908A3.8,3.8,0,0,1,2046.3,764.488Z" fill="#181818"/>
      <path id="Path_6969" data-name="Path 6969" d="M2052.97,830.107c.8.334,2.355.509,2.693,1.244a4.361,4.361,0,0,1-.539,3.32,2.913,2.913,0,0,1-2.535-.18C2051.874,833.294,2051.274,831.779,2052.97,830.107Z" fill="#181818"/>
      <path id="Path_6970" data-name="Path 6970" d="M1920,890.573l.8,3.405a.829.829,0,0,0,0,.3l-1.174-.005-.4-.526-.416.506-1.169-.02-1.636-3.5Z" fill="#181818"/>
      <path id="Path_6971" data-name="Path 6971" d="M1920.794,894.276a.829.829,0,0,1,0-.3c2.716.036,5.433.053,8.148.134.34.01.67.362,1.005.556Z" fill="#262829"/>
      <path id="Path_6972" data-name="Path 6972" d="M1916,890.735l1.636,3.5-2.4-2.231Z" fill="#262829"/>
      <path id="Path_6973" data-name="Path 6973" d="M1965.3,868.851l1.171-1.512Z" fill="#232424"/>
      <path id="Path_6974" data-name="Path 6974" d="M1966.882,866.846l1.183-1.492Z" fill="#232424"/>
      <path id="Path_6975" data-name="Path 6975" d="M1958.955,874.484l1.128-.792Z" fill="#232424"/>
      <path id="Path_6976" data-name="Path 6976" d="M1970.159,865.348l.379.8Z" fill="#232424"/>
      <path id="Path_6977" data-name="Path 6977" d="M1918.805,894.251l.416-.506.4.526Z" fill="#262829"/>
      <path id="Path_6978" data-name="Path 6978" d="M1873.532,948.438c.235-5.061.406-10.126.722-15.182a44.748,44.748,0,0,1,3.409-15.12c3.065-7.067,6.873-13.662,13.333-18.25,2.119-1.505,4.281-3.116,7.161-2.72-2.333,2.406-4.726,4.757-6.974,7.239a30.846,30.846,0,0,0-3.287,4.423c-2.925,4.7-5.951,9.354-8.577,14.22a43.592,43.592,0,0,0-4.661,17.046C1874.408,942.886,1873.915,945.658,1873.532,948.438Z" fill="#f9fafa"/>
      <path id="Path_6979" data-name="Path 6979" d="M1933.495,897.882l9.954-2.292a14.776,14.776,0,0,1-.99,2.34c-.666,1.053-1.492,2.006-2.25,3a3.265,3.265,0,0,0-3.474,2.29c-1.39,3.274-2.792,6.543-4.338,10.161-1.968-2.429-4.036-4.928-6.044-7.476-1.488-1.888-3.014-3.781-3.19-6.34l1.61-.075,2.837-.185Z" fill="#fafbfb"/>
      <path id="Path_6980" data-name="Path 6980" d="M1996.856,962.258c.371,2.833.763,5.664,1.1,8.5.156,1.3.212,2.6.313,3.907-.375-.33-1.054-.638-1.079-.992-.261-3.706-.42-7.419-.592-11.131C1996.6,962.451,1996.768,962.353,1996.856,962.258Z" fill="#f5f5f5"/>
      <path id="Path_6981" data-name="Path 6981" d="M1992.383,935.132c.8,3.2,1.627,6.4,2.384,9.618a26.491,26.491,0,0,1,.367,2.909c-.218-.127-.6-.224-.629-.385C1993.775,943.231,1993.082,939.181,1992.383,935.132Z" fill="#e1ebf0"/>
      <path id="Path_6982" data-name="Path 6982" d="M1991.59,932.346l.8,2.635Z" fill="#e1ebf0"/>
      <path id="Path_6983" data-name="Path 6983" d="M1991.2,931.184q.186.5.37,1Q1991.386,931.683,1991.2,931.184Z" fill="#e1ebf0"/>
      <path id="Path_6984" data-name="Path 6984" d="M1972.141,844.678a13.118,13.118,0,0,0-4.632,6.2,75.039,75.039,0,0,1-5.7,12.835c-1.239,2.1-3.752,3.663-5.995,4.925a44.112,44.112,0,0,1-17.63,5.5,2.5,2.5,0,0,0-1.415.554c-2.389,2.279-4.9,4.52-4.034,8.385.4,1.773-.576,2.622-2.169,2.821-2.02.253-4.055.472-6.089.522-3.441.086-6.889-.051-10.328.07a20.383,20.383,0,0,0-3.8.852c-.383-.52-1.047-1.011-1.1-1.563-.3-3-2.481-3.083-4.7-3.323a30.668,30.668,0,0,1-13.1-3.99c-3.068-1.881-4.557-4.8-5.585-7.906-2.375-7.171-4.675-14.383-6.588-21.688-2.152-8.221-3.846-16.563-5.739-24.852a2.855,2.855,0,0,0,.129-.364c.012-.056-.032-.124-.051-.187q-.271-1.506-.542-3.01c-.26-1.418-.467-2.847-.791-4.25-.963-4.167.238-8.15,1.223-12.076,1.352-5.386,3.11-10.669,4.7-16a35.2,35.2,0,0,0,12.878,14.409,105.008,105.008,0,0,0,12.349,6.511c2.018.889,4.486.755,6.75,1.084q-.444,1.368-.889,2.736a7.086,7.086,0,0,0-1.156,2.165c-.376,2.937-.712,5.892-.81,8.849-.221,6.672-.282,13.349-.43,20.024-.051,2.3.9,3.122,3.018,2.186a63.926,63.926,0,0,0,6.806-3.622c.477-.284.582-1.194.858-1.816l-.012.014.827-.456c1.17-.925,2.375-1.809,3.491-2.794.439-.388,1.017-1.075.924-1.491a1.95,1.95,0,0,0-1.355-1.211,3.876,3.876,0,0,0-2.295.5c-1.99,1.172-3.894,2.491-6.1,3.927-.088-.873-.147-1.189-.147-1.505,0-7.267.015-14.534,0-21.8,0-1.765-.276-3.574,1.275-4.926,1.63.045,3.28.139,4.236-1.6a24.852,24.852,0,0,0,4.121,1.039,22.392,22.392,0,0,0,4.078-.364l.361.332a2.236,2.236,0,0,0,2.072,3.113c1.905-.059,3.813-.058,5.716-.156,1.154-.06,1.352.437,1.371,1.5a19.288,19.288,0,0,0,.581,4.479c.187.72.882,1.746,1.475,1.842,2.019.326,4.921-1.407,4.864-3.686-.033-1.356-.006-2.713-.006-4.02h3.587c2.712,1.728,5.383,3.524,8.144,5.168,5.456,3.248,10.9,6.478,12.906,13.1.02.063.03.169.066.18.447.131.9.247,1.349.367,1.146.622,1.568.067,2-.995,1.06-2.61,2.169-5.211,3.467-7.708.8-1.538,2.315-2.711,4.067-2.17a4.912,4.912,0,0,1,2.86,2.6c1.618,4.6,2.321,9.347-.279,13.866a7.954,7.954,0,0,1-2.831,2.556,9.3,9.3,0,0,1-4.569,1.771C1973.234,842.152,1972.7,843.784,1972.141,844.678ZM1886.4,813.55a41.8,41.8,0,0,0,1.315,5.851,3.089,3.089,0,0,0,2.266,1.747,2.189,2.189,0,0,0,2.19-2.317c-.031-.923-.013-1.849.026-2.772.065-1.571.55-2.651,2.482-2.415a14.648,14.648,0,0,0,3.754-.006,4.923,4.923,0,0,0,2.425-1.046c1.154-.993.889-2.045-.6-2.354a16.547,16.547,0,0,0-3.288-.026c-6.08-.005-12.16-.026-18.24.005a1.57,1.57,0,0,0-1.219.611c-.631,1.391.98,3.286,2.523,3.15C1882.17,813.789,1884.314,813.686,1886.4,813.55Zm26.9,46.444c-3.806.23-6.361.385-8.917.537-1.169.069-1.965.6-1.735,1.85.239,1.3,1.114,1.567,2.458,1.524,4.332-.137,8.676-.183,13.005-.015,3.385.131,6.757.607,10.13.981,1.373.153,1.6-.488,1.375-1.636-.207-1.046-.565-1.788-1.839-1.9C1922.545,860.9,1917.317,860.373,1913.3,859.994Z" fill="#fdfdfd"/>
      <path id="Path_6985" data-name="Path 6985" d="M1910.178,810.138c-2.264-.329-4.732-.2-6.75-1.084a105.008,105.008,0,0,1-12.349-6.511,35.2,35.2,0,0,1-12.878-14.409c-.082-2.268.066-4.471,1.56-6.057,3.744,4.331,7.3,8.792,11.245,12.883a66.314,66.314,0,0,0,8.4,6.857c1.15.855,2.352,2.3,4.174,1.2.1-.059.351.136.531.213l14.315,6.082c-.956,1.74-2.606,1.646-4.237,1.6C1913.329,808.542,1912.258,808.335,1910.178,810.138Z" fill="#bbe8fc"/>
      <path id="Path_6986" data-name="Path 6986" d="M1969.107,832.209c-.45-.12-.9-.236-1.349-.367-.036-.011-.046-.117-.066-.18-2.011-6.626-7.45-9.856-12.906-13.1-2.761-1.644-5.432-3.44-8.145-5.168l5.239-.278c-.282-1.029-.469-1.714-.656-2.4q.133-.145.269-.288,5.739,2.784,11.481,5.568a3.235,3.235,0,0,0,.9.373c3.318.458,4.077,2.917,4.331,5.657.219,2.356.2,4.734.37,7.1A30.386,30.386,0,0,0,1969.107,832.209Z" fill="#bbe8fd"/>
      <path id="Path_6987" data-name="Path 6987" d="M1923.517,802.647l-2.73-3.809a9.235,9.235,0,0,1,1.64.264,62.521,62.521,0,0,0,18.6,4.677c1.135.091,2.213,1.206,3.267,1.922,2.125,1.445,4.215,2.941,6.32,4.416l.024-.025-8.382-.023a13.876,13.876,0,0,0-3.282-1.732,44.145,44.145,0,0,1-14.117-5.706C1924.54,802.431,1923.97,802.632,1923.517,802.647Z" fill="#bbe8fc"/>
      <path id="Path_6988" data-name="Path 6988" d="M1923.517,802.647c.453-.015,1.023-.216,1.34-.016a44.145,44.145,0,0,0,14.117,5.706,13.876,13.876,0,0,1,3.282,1.732c-4.329.023-8.658.039-12.987.078-.763.007-1.525.112-2.287.172l-.361-.332C1927.32,806.807,1924.528,805.1,1923.517,802.647Z" fill="#fdfdfd"/>
      <path id="Path_6989" data-name="Path 6989" d="M1957.984,870.62l8.6-9.607c.177,1.435.783,2.917-.931,3.985-.48.3-.558,1.181-.971,1.669a6.935,6.935,0,0,1-1.354.9,14.933,14.933,0,0,1-1.433,1.1C1960.611,869.354,1959.289,869.972,1957.984,870.62Z" fill="#232424"/>
      <path id="Path_6990" data-name="Path 6990" d="M1974.066,862.978l-1.366,1.988-.537-.341,1.229-2.1Z" fill="#232424"/>
      <path id="Path_6991" data-name="Path 6991" d="M1873.074,820.457q.272,1.5.542,3.01Q1873.345,821.961,1873.074,820.457Z" fill="#272727"/>
      <path id="Path_6992" data-name="Path 6992" d="M1950.614,810.117l.878.309c-.089.095-.179.191-.268.288l-.586-.622Z" fill="#bbe8fd"/>
      <path id="Path_6993" data-name="Path 6993" d="M1867.075,818.911l-.125-.236.236.125Z" fill="#272727"/>
      <path id="Path_6994" data-name="Path 6994" d="M1997.5,997.466a26.1,26.1,0,0,0-3.942-.706c-2.686-.069-5.378.124-8.063.048a1.934,1.934,0,0,1-1.421-1.207c-.26-1.814-.264-3.665-.378-5.766l13.8,1.3Z" fill="#b8e5f9"/>
      <path id="Path_6995" data-name="Path 6995" d="M1927.167,890.551c-1.724.813-3.449,1.19-5.175.007Z" fill="#262829"/>
      <path id="Path_6996" data-name="Path 6996" d="M1930.741,890.3c-.753.573-1.5,1.216-2.387.205Z" fill="#262829"/>
      <path id="Path_6997" data-name="Path 6997" d="M1934.323,889.355l-1.837.6Z" fill="#262829"/>
      <path id="Path_6998" data-name="Path 6998" d="M1933.495,897.882l-5.885,1.424c-1.066-1.9.84-2.142,1.7-2.867.432-.364,1.207-.32,1.827-.46Z" fill="#181818"/>
      <path id="Path_6999" data-name="Path 6999" d="M1924.773,899.491l-1.61.075.051.011v-.572c-.224-.313-.607-.612-.637-.942a6.327,6.327,0,0,1,.239-1.578c.46.247,1.128.381,1.333.764A9.846,9.846,0,0,1,1924.773,899.491Z" fill="#181818"/>
      <path id="Path_7000" data-name="Path 7000" d="M1923.215,899.005v0Z" fill="#fafbfb"/>
      <path id="Path_7001" data-name="Path 7001" d="M1844.832,819.18c-1.022-2.519-1.939-4.778-2.956-7.282.7-1.306,1.567-2.909,2.388-4.434,1.068,2.344,2.135,4.662,3.166,6.995a.963.963,0,0,1-.147.723C1846.528,816.45,1845.744,817.7,1844.832,819.18Z" fill="#f3d060"/>
      <path id="Path_7002" data-name="Path 7002" d="M2012.622,750.992c.779-4.065,2.4-5.956,5.771-6.184,0,1.154.4,2.509-.08,3.379C2017.188,750.228,2015.091,750.858,2012.622,750.992Z" fill="#fafbfb"/>
      <path id="Path_7003" data-name="Path 7003" d="M1983.66,743.937l3.551,3.031a23.289,23.289,0,0,1-2.142,3.115,2.164,2.164,0,0,1-1.92.288,1.794,1.794,0,0,1-.666-1.559C1982.741,747.243,1983.214,745.709,1983.66,743.937Z" fill="#f5f5f5"/>
      <path id="Path_7004" data-name="Path 7004" d="M1910.178,810.138c2.08-1.8,3.151-1.6,4.007.775-1.55,1.352-1.278,3.161-1.274,4.926.015,7.268,0,14.535,0,21.8,0,.316.059.632.147,1.505,2.2-1.436,4.107-2.755,6.1-3.927a3.876,3.876,0,0,1,2.295-.5,1.95,1.95,0,0,1,1.355,1.211c.093.416-.485,1.1-.924,1.491-1.116.985-2.321,1.869-3.491,2.795l-.827.455.012-.014c-.7.359-1.382.745-2.093,1.072-3.321,1.532-6.117-.3-6.118-4,0-2.693.016-5.386.006-8.079q-.03-8.39-.081-16.779Z" fill="#242628"/>
      <path id="Path_7005" data-name="Path 7005" d="M1950.638,810.092l.586.622c.187.684.374,1.369.656,2.4l-5.239.278h-3.586c0,1.307-.027,2.664.006,4.02.057,2.279-2.845,4.012-4.864,3.686-.593-.1-1.288-1.122-1.475-1.842a19.288,19.288,0,0,1-.581-4.479c-.019-1.062-.217-1.559-1.371-1.5-1.9.1-3.811.1-5.716.156a2.236,2.236,0,0,1-2.072-3.113c.762-.06,1.524-.165,2.287-.172,4.329-.039,8.658-.055,12.987-.078Z" fill="#222323"/>
      <path id="Path_7006" data-name="Path 7006" d="M1886.4,813.55c-2.085.136-4.229.239-6.365.428-1.543.136-3.154-1.759-2.523-3.15a1.57,1.57,0,0,1,1.219-.611c6.08-.031,12.16-.01,18.24-.005a16.547,16.547,0,0,1,3.288.026c1.488.309,1.753,1.361.6,2.354a4.923,4.923,0,0,1-2.425,1.046,14.648,14.648,0,0,1-3.754.006c-1.932-.236-2.417.844-2.482,2.415-.039.923-.057,1.849-.026,2.772a2.189,2.189,0,0,1-2.19,2.317,3.089,3.089,0,0,1-2.266-1.747A41.8,41.8,0,0,1,1886.4,813.55Z" fill="#272727"/>
      <path id="Path_7007" data-name="Path 7007" d="M1913.3,859.994c4.014.379,9.242.9,14.477,1.345,1.274.108,1.632.85,1.839,1.9.227,1.148,0,1.789-1.375,1.636-3.373-.374-6.745-.85-10.13-.981-4.329-.168-8.673-.122-13.005.015-1.344.043-2.219-.228-2.458-1.524-.23-1.247.566-1.781,1.735-1.85C1906.942,860.379,1909.5,860.224,1913.3,859.994Z" fill="#2a2a2a"/>
      <path id="Path_7008" data-name="Path 7008" d="M1909.289,812.874q.042,8.389.081,16.779c.01,2.693-.007,5.386-.006,8.079,0,3.7,2.8,5.532,6.118,4,.711-.327,1.4-.713,2.093-1.072-.276.622-.381,1.532-.858,1.816a63.926,63.926,0,0,1-6.806,3.622c-2.114.936-3.069.119-3.018-2.186.148-6.675.209-13.352.43-20.024.1-2.957.434-5.912.81-8.849A7.086,7.086,0,0,1,1909.289,812.874Z" fill="#bbe8fd"/>
      <path id="Path_7009" data-name="Path 7009" d="M1917.563,840.674l.827-.455Z" fill="#bbe8fd"/>
    </g>
  </g>
</svg>
