<svg xmlns="http://www.w3.org/2000/svg" xmlns:xlink="http://www.w3.org/1999/xlink" width="320" height="320" viewBox="0 0 320 320">
  <defs>
    <clipPath id="clip-_1801">
      <rect width="320" height="320"/>
    </clipPath>
  </defs>
  <g id="_1801" data-name="1801" clip-path="url(#clip-_1801)">
    <rect width="320" height="320" fill="#fff"/>
    <g id="Group_25" data-name="Group 25" transform="translate(-662.189 -316.657)">
      <path id="Path_7010" data-name="Path 7010" d="M747.013,326.738q29.877,0,59.753.005c9.738.008,19.476.107,29.214.1q60.273-.035,120.544-.11c3.24,0,6.484-.133,9.717,0a20.218,20.218,0,0,1,4.749.95c1.751.512,1.857,2.088,1.866,3.569.025,4.631-.037,9.262,0,13.893.085,9.818.262,19.636.309,29.455.034,7.3-.117,14.6-.116,21.892,0,9.363.1,18.726.105,28.088q.033,46.715.03,93.427,0,33.438-.047,66.874c-.024,10.366-.155,20.732-.3,31.1-.04,2.859-.289,5.716-.471,8.573-.106,1.657-1.115,2.253-2.679,2.231-5.475-.076-10.951-.148-16.427-.18-25.076-.15-50.152-.337-75.229-.409-17.144-.05-34.289.106-51.433.1q-48.551-.02-97.1-.1c-4.627,0-9.254.284-13.882.311-7.2.041-14.4,0-21.6-.055-6.075-.046-12.149-.149-18.223-.254-1.483-.026-2.246-.687-2.232-2.343q.118-13.764.094-27.529c-.081-24.005-.246-48.01-.307-72.015q-.137-53.2-.165-106.4c-.008-12.775.146-25.549.191-38.324.035-10.14-.007-20.281.03-30.422q.036-9.645.218-19.29c.039-2.131,1.221-3.21,3.331-3.209q21.535,0,43.071.032,13.491.008,26.983,0ZM885.461,622.615l1.952-.3,10.755-.083,4.311-.023,3.478.079.607-.033,6.1.247a2.943,2.943,0,0,1,.562-.116q6.358-.059,12.718-.1l5.979-.043,2.393.052q3.9,0,7.8.009c4.538.014,9.076-.005,13.613.059,4.387.063,8.772.214,13.158.326l.189-.79a3.8,3.8,0,0,0,.084-.585c-.055-6.667-.145-13.335-.169-20-.022-6.169.014-12.339.044-18.509.06-12.323.162-24.646.188-36.969.012-5.261-.12-10.522-.187-15.783l-.558-1.4q.018-.824.035-1.645a6.239,6.239,0,0,0,.712-1.952q.048-27.6,0-55.2c-.044-13.029-.273-26.057-.313-39.085-.021-6.9.31-13.791.26-20.684-.088-12.157-.441-24.312-.5-36.469-.046-9.159.259-18.319.274-27.478.008-4.866-.268-9.733-.418-14.673-97.17-1.516-194.137-.6-291.291-.651,0,5.33-.005,10.333,0,15.336q.031,26.364.066,52.727.012,25.053-.019,50.105l.021,4.009q-.014,10.084-.027,20.17-.009,20.958,0,41.916c.006,5.405.071,10.81.108,16.215l.018,6.041c.048,1.638.189,3.279.125,4.912-.155,3.982-.313,7.968-.648,11.937-.244,2.9-.883,5.764.643,8.525.194.352.005.911.009,1.374q.048,6.436.1,12.872c-.137,6.117-.33,12.233-.4,18.351s0,12.228,0,18.343c0,2.865,0,5.731,0,8.643h1.734q20.412.012,40.824.027,30.414.031,60.829.068,29.289,0,58.577-.088,21.327-.035,42.654-.065Z" fill="#090909"/>
      <path id="Path_7011" data-name="Path 7011" d="M881.86,622.228q-21.327.033-42.654.065-29.289.046-58.577.088-30.414,0-60.829-.068-20.412-.021-40.824-.027h-1.734c0-2.912,0-5.778,0-8.643-.005-6.115-.068-12.23,0-18.343s.259-12.234.4-18.351c2.777-2.1,4.221-4.771,3.614-8.355a5.606,5.606,0,0,1,.164-1.569c.32-2.443.794-4.879.918-7.332.1-2.028-.255-4.075-.319-6.117-.065-2.085-.061-4.174-.013-6.26.065-2.85-.142-5.636,1.56-8.345.869-1.382.857-3.747.4-5.442-.9-3.372-2.375-6.57-1.137-10.181.324-.945.192-2.037.436-3.021.447-1.806,1.13-3.559,1.5-5.378.244-1.211-.358-2.8.222-3.7,2.4-3.728,1.252-7.325.169-11.021a1.918,1.918,0,0,1,.367-1.653c1.584-1.344,1.453-2.952,1.053-4.7-.407-1.779-.78-3.57-1.067-5.371a35.036,35.036,0,0,0-.5-4.307,2.451,2.451,0,0,1,.688-2.622c1.955-2.3,3.6-4.9,3-8.024a26.747,26.747,0,0,0-2.387-5.976c-1.074-2.31-2.632-4.517-1.436-7.225a29.076,29.076,0,0,1,1.733-2.728q2.684-4.584,5.317-9.2c.85-1.484,1.806-2.866,3.793-2.52,2.181.379,3.733-.31,5.718-1.458,2.007-1.162,4.322-2.075,6.495-3.126a10.491,10.491,0,0,1,7.811-.653c1.969.676,4.106.853,6.148,1.337a5.232,5.232,0,0,1,1.894.9c1.755,1.334,2.856,1.221,4.325-.421,1.313-1.468,2.713-2.857,3.888-4.084,5.212,1.469,8.491,4.952,10.15,10.064L744,446.977l1.258,2.309.343-.5,2.267.6-4.8,9.384c-.8-1.433-1.537-2.734-2.264-4.04-2.621-4.7-6.417-8.119-11.824-8.7-7.548-.8-15.2-.744-22.569,1.278-7.324,2.009-10.51,6.1-11.041,13.385a77.005,77.005,0,0,0,.06,8.806c.118,2.809-1.048,5.914,1.689,8.208.145.121.113.493.109.747-.054,4.235-.078,8.47-.188,12.7-.18,6.9-.481,13.8-.577,20.7a7.2,7.2,0,0,0,1.112,3.833c1.528,2.33,3.367,4.457,5.079,6.667-.03.273-.061.547-.091.82-2.289-.136-3.334.5-3.418,2.114-.394,7.5-.892,15-1.131,22.507-.278,8.684-.39,17.375-.4,26.063a4.912,4.912,0,0,0,1.634,3.525,20.147,20.147,0,0,0,12.047,3.717c2.813,0,3.793-1.925,2.665-4.6a8.52,8.52,0,0,0-1.006-2.13c-2.122-2.581-2.132-5.434-1.682-8.579.866-6.067,1.527-12.168,2.071-18.272.344-3.865.3-7.763.493-11.643.029-.578.246-1.451.648-1.657,2.557-1.31,7.04.511,7.666,3.28.861,3.809,1.366,7.7,2.012,11.556.1.583.141,1.174.2,1.763.759,7.6,1.566,15.191,2.243,22.8.2,2.211.988,3.2,3.189,3.333,2.559.151,5.113.38,7.67.568a2.943,2.943,0,0,0,.785-.019c1.579-.306,3.142-.746,4.735-.915,1.423-.151,2.979-.207,3.451-1.719a3.557,3.557,0,0,0-1.663-3.938c-2.016-1.47-4.117-2.826-6.111-4.325a2.252,2.252,0,0,1-.837-1.6c.118-2.832.384-5.657.59-8.486.23-3.158.351-6.328.7-9.473.9-8.255,1.739-16.523,2.922-24.74.752-5.222-.221-10.493,1.491-15.736,3.506-10.735,6.329-21.691,9.607-32.5,1.633-5.385,3.649-10.653,5.492-15.974.152,1.452.3,2.9.472,4.493a4.161,4.161,0,0,0,.837-.377q5.388-4.944,10.762-9.9c.31-.285.651-.536,1.182-.969l.871,2.815c-.84.426-1.688.835-2.514,1.285a2.42,2.42,0,0,0-.876.683c-.638.965-1.174,2-1.812,2.962-2.3,3.481-3.489,7.023-.952,10.943,1.683,2.6,3.268,5.264,4.9,7.9q-.218,3.785-.437,7.569c-1,2.02-1.924,4.08-3.011,6.052q-6.7,12.166-13.51,24.278a1.423,1.423,0,0,1-.958.716c-2.479-.078-3.427,1.495-4.095,3.523-1.329,4.033-.54,6.82,2.442,8.341a6.552,6.552,0,0,0,8.937-2.817c2.13-3.75,6.075-5.385,8.868-8.974a7.241,7.241,0,0,1,.564,1.845c-.267,4.728-.154,9.529-.973,14.164-1.89,10.7-4.232,21.328-6.428,31.977a1.974,1.974,0,0,1-.881,1.278c-2.6,1.16-3.756,3.362-4.383,5.926a2.287,2.287,0,0,0,2.356,3.018,33.482,33.482,0,0,0,7.672-1.329,9.652,9.652,0,0,0,6.028-5.627c2.588-6.645,5.064-13.333,7.576-20.007,1.1-2.913,2.17-5.833,3.4-9.157.832,1.619,1.541,2.8,2.063,4.049a116.61,116.61,0,0,1,7.555,26.386,2.109,2.109,0,0,1-.111,1.253c-.886,1.635-1.975,3.171-2.751,4.853-.972,2.107-.185,3.333,2.133,3.847,1.366.3,2.709.714,3.523.932a37.038,37.038,0,0,1,4.6-1.11c3.666-.388,5.643-2.012,5.753-4.967.152-4.089.282-8.18.453-12.268.368-8.791.657-17.586,1.186-26.367.21-3.485.971-6.937,1.493-10.485.562.188,1.109.379,1.662.553a5.892,5.892,0,0,0,7.531-3.62,16.3,16.3,0,0,0,.827-4.83c-.016-5.641.057-11.3-.414-16.917-.532-6.341-1.175-12.77-5.469-18.024.743-.251,1.926-.3,2.15-.791.836-1.822,2.336-1.533,3.787-1.575l1.358,1.439a7.851,7.851,0,0,0-1.1,2.547c-.011.627.729,1.809,1.1,1.8a4.8,4.8,0,0,0,3.048-.967,2.585,2.585,0,0,1,3.209-.658,44.524,44.524,0,0,1,4.529,2.994,27.1,27.1,0,0,0-1.973,2.173c-.368.5-.881,1.475-.693,1.7a7.752,7.752,0,0,0,2.341,1.741c.4.2,1.011-.011,1.526-.036-.776,1.033-1.6,2.037-2.316,3.108-.656.975-1.2,2.023-1.8,3.039,1.031.2,2.062.4,3.094.592.128.024.265,0,.4.013,2.892.345,5.865.56,7.816,3.153a29.242,29.242,0,0,1,1.845,3.193l4.3-4.466a18,18,0,0,1,5.645,7.846c.165.415.189,1.2-.062,1.415-1.816,1.561-.929,3.016.037,4.5-.453.858-2.215,1.446-.915,2.676,1.205,1.138,2.527.8,3.517-.588.678-.95,1.4-1.871,2.095-2.8a12.526,12.526,0,0,1,1.19,2c1.792,4.849-.634,13.85-4.554,17.186a49.208,49.208,0,0,0-3.871,3.555c-.385.407-.344,1.217-.5,1.843.592-.142,1.357-.1,1.747-.456,4.531-4.186,8.813-8.579,11.255-14.406,1.957-4.671,2.221-9.323-.141-13.935a5.16,5.16,0,0,0-4.028-3.169c-.578-1.8-.852-3.773-1.791-5.355a23.819,23.819,0,0,0-14.932-11.447c-1.012-.261-2.032-.491-3.049-.736.825-2.7-.241-5.044-1.549-7.259a6.54,6.54,0,0,0-5.436-3.424l-4.56-1.641a19.462,19.462,0,0,0-9.875-5.92c-3.433-.924-6.55-.881-8.609,2.633-.309.527-.553,1.093-.827,1.641a13.107,13.107,0,0,0,1.865.781c1.948.493,3.915.914,5.875,1.362-1.643,1.05-1.665,2.662-1.505,4.337-3.667-2.929-7.178-6.111-12.076-7.177,5.207-4.661,4.859-8.531,2.826-12.293a50.258,50.258,0,0,0-6.988-9.431,11,11,0,0,0-6.869-3.373c-.686-.792-1.076-1.659-1.627-1.777-.754-.162-2.092-.018-2.366.46-.8,1.4-2.09,1.43-3.322,1.739-1.4.351-2.816.631-4.207,1.005-1.176.317-2.327.725-3.489,1.093a4.771,4.771,0,0,0-3.388-7.559c-3.293-1.816-4.977-1.6-7.834.941-.19.169-.653.03-.989.035l-.4-.454c.319-.864.6-1.743.962-2.59,1.342-3.157,2.343-6.4,5.6-8.467,2.586-1.644,2.943-4.911,1.541-7.812a9.512,9.512,0,0,0-6.218-5.35c-3.987-1.112-9.764.939-10.757,4.453a13.971,13.971,0,0,0-.191,7.889c1.372,3.935-.64,6.454-2.368,9.3-.3.5-.626.991-.94,1.486.091-.96-.185-2.3.342-2.808,1.444-1.378.893-2.661.149-3.858a52.213,52.213,0,0,0-4.31-6.116c-1.176-1.395-2.791-2.267-4.765-1.353a22.59,22.59,0,0,0-3.371-1c-3.586-.5-7.239-1.658-10.671.626a26.173,26.173,0,0,0-11.247.772,36.885,36.885,0,0,1-4.927-.126c-4.316-.667-7.891.348-10.461,4.066l-4.868.563c-.705-.126-1.406-.28-2.116-.373-3.995-.525-7.859-.83-11.273,2.192a15.735,15.735,0,0,0-4.894,7.778c-.463,1.646-1.028,3.263-1.547,4.894q.011-25.053.019-50.105-.013-26.362-.066-52.727c-.006-5,0-10.006,0-15.336,97.154.052,194.121-.865,291.291.651.15,4.94.426,9.807.418,14.673-.015,9.159-.32,18.319-.274,27.478.061,12.157.414,24.312.5,36.469.05,6.893-.281,13.789-.26,20.684.04,13.028.269,26.056.313,39.085q.093,27.6,0,55.2a6.239,6.239,0,0,1-.712,1.952c-1.454-2.425-2.876-4.871-4.371-7.271-2.768-4.447-6.379-7.66-11.93-7.954-1.449-.076-2.9-.185-4.512-.29,1.9-2.546,1.592-4.95-.792-5.887-2.276-.894-4.426-1.619-6.219-3.578-1.7-1.858-4.529-1.709-6.926-1.657a40.113,40.113,0,0,0-17.181,3.823,77.069,77.069,0,0,0-9.8,5.351c-1.676,1.161-2.685,3.312-3.925,5.067a27.828,27.828,0,0,0-2.831,4.436c-1.125,2.5-.422,4.036,2.1,5.46a2.327,2.327,0,0,1-.152.742c-3.358,5.511-4.055,11.692-4.532,17.929l-.016,1.581-.064,4.371c-2.073-1.721-4.267-1.523-6.5-.384-1.5.764-2.9,1.865-4.483,2.286-3.37.9-4.534,3.636-5.59,6.338a5.887,5.887,0,0,0,1.005,6.585,48.5,48.5,0,0,1,3.8,5.433c0,.395.16,1-.034,1.153-2.347,1.876-1.587,4.133-.875,6.4l.159,1.187,1.791,3.992,0,0,.975,1.637-.505-.068q-.8,7.956-1.6,15.912l-.02.8-.322,2.775-.051.808q-.172,1.187-.344,2.371l-.072.8-.319,1.586-.035,1.18q-.209,1.99-.419,3.98l-.036.8-.315,1.587ZM871.1,430.685l.013-.014-.757,1.24v0l-1.2,1.969-.353.518c-1.823,3.468-3.918,6.849-3.524,11.026l-.048,1.2c-.013,3.392-.268,6.807.044,10.169.218,2.344,1.212,4.617,1.86,6.921l.556,1.566,2.281,4.751.008.014.768,1.21,0,0,3.173,4.784-.006-.009q.6.8,1.2,1.6l.324.407,1.286,1.434,2.379,2.5,1.148,1.288.452.3,3.445,2.963c-.374,1.77-1.115,3.523-1.038,5.239a134.2,134.2,0,0,0,1.3,15.627c1.111,6.773,2.741,13.466,4.339,20.148.2.824,1.569,1.368,2.4,2.041.382-.818.769-1.633,1.138-2.457a1.1,1.1,0,0,0,0-.393c.089-5.723.139-11.447.277-17.169a37.824,37.824,0,0,1,6.36-20.491c1.623.757,3.086.875,4.291-.808,1.535-2.142,3.547-2.9,6.287-2.785a77.732,77.732,0,0,0,13.037-.448c2.369-.306,5.269.8,7.164-1.767.152-.2.762-.047,1.153-.1,3.327-.48,6.706-.835,9.492-2.991a6.187,6.187,0,0,0,1.038-1.461l.013.011.894-.351,5.672-2.3.153.017.111-.108.8-.349.81-.362,3.069-1.877.509-.427,1.2-.918.367-.438,3.171-3.942,0-.007,4.218-8.739.127-1.191c.236-2.857.65-5.713.672-8.572a32.9,32.9,0,0,0-6.212-19.209l-.007-.016-3.158-5.178,0,0-.814-1.151-.361-.444-1.507-2.1-.063.088.078-.075-1.724-1.849-.021-.012-1.311-1.391-.069-.063-2.885-2.626.018.017-2.071-1.526-.456-.371-1.143-.8-1.915-1.236a29.917,29.917,0,0,0-14.419-5.258,49.288,49.288,0,0,0-15.842.92l-1.188.087-3.179.72-.791.131-1.991.663-1.586.507-4.773,1.863-2.381,1.191-.394.149-7.173,4.191-1.185.815-1.648,1.174-1.547,1.169-3.967,3.617.005-.006-4.01,4.368q-.77,1.008-1.54,2.017Zm-49.527-27.954,1.357-2.552a26.014,26.014,0,0,0-3.212-.717c-.447-.048-.935.44-1.426.627-3.98,1.518-7.872.807-11.463-1.012-2.86-1.448-3.625-4.557-2.47-8.766.431-1.572.14-2.5-1.157-3.306-1.463-.911-2.075.281-2.877,1.083-3.745,3.745-7.266,4.486-11.318,2.069a8.879,8.879,0,0,1-4.746-7.518c-.038-.992-.077-2.276-1.432-2.085a4.993,4.993,0,0,0-2.343,1.608,1.794,1.794,0,0,0-.24,1.475c.422,1.628-.37,2.677-1.556,3.523a26.961,26.961,0,0,1-11.526,5.1,18.828,18.828,0,0,0-2.909.462,12.221,12.221,0,0,0-2.234,1.26,9.831,9.831,0,0,0,2.137,2.354c.715.4,1.806.156,2.73.162a2.632,2.632,0,0,1,2.735,2.12c.569,2.311.663,4.7-1.54,6.249a47.177,47.177,0,0,1-7.176,4.267c-1.494.692-1.368,1.224-.642,2.275.99,1.431,2.3.888,3.567.633.391.4.729,1.062,1.183,1.154a4.557,4.557,0,0,0,4.416-1.645c.955-1.037,1.946-2.042,2.97-3.111l1.244,2.025c1.046-.939,1.882-1.775,2.807-2.5a4.479,4.479,0,0,0,1.757-4.125c-.114-2.3-.728-4.7.764-6.839.45-.645.99-1.868,1.337-1.815a3.639,3.639,0,0,1,2.159,1.386c1.37,1.877,2.911,3.5,5.292,3.812a6.063,6.063,0,0,0,3.144-.55c1.925-.886,3.738-2.014,5.833-3.173.118,5.817,1.307,7.517,7.035,8.675,3.335.674,6.788.748,10.181,1.147A7.108,7.108,0,0,0,821.574,402.731Zm-100.05-15.3a11.886,11.886,0,0,0,1.159-2.17,12.673,12.673,0,0,0-2.813-1.711c-.523-.243-1.231-.089-1.75-.336-1.417-.673-2.437-.183-2.641,1.368-.052.4-.144.788-.218,1.182a9.142,9.142,0,0,1-1.143-.781c-1.406-1.3-3.435-.822-3.486,1.089-.057,2.147-1.184,3.224-2.617,4.346a6.313,6.313,0,0,0-1.139,1.332c-.655.912-1.163,1.891.075,2.715,1.174.78,2.08.241,2.919-.7.71-.8,1.533-1.494,2.5-2.418l1.739,3.186c-2.523.631-3.1,1.409-2.6,3.366.446,1.762,2.023,2.218,4.461,1.546,1.231.835,2.685,2.283,3.1,2.028,1.693-1.028,1.912-2.782.744-4.535l1.752-1.1c.769,1.291,1.483,2.462,2.168,3.649.572.992,1.42.942,1.841.126a4.321,4.321,0,0,0,.4-2.783,16.254,16.254,0,0,0-1.6-3.286c.355-1.045,1.867-2.3.025-2.948A4.5,4.5,0,0,1,721.524,387.432Zm17.665,20.776c1.863,1.175,3.694,2.422,5.627,3.484.507.279,1.329-.012,2.007-.042a12.665,12.665,0,0,0-.192-2.583c-.1-.389-.778-.624-1.192-.931l-3.661-2.708c2.51-1.614,4.672-.592,6.843-.374.841.084,2.431-.271,2.476-.593a3.931,3.931,0,0,0-.629-2.933c-2.3-2.417-4.965-4.487-5.473-8.145-.081-.579-.988-1.214-1.653-1.51a4.4,4.4,0,0,0-5.123,1.353,9.482,9.482,0,0,0-1.777,10.063,2.276,2.276,0,0,1-.525,2.917c-.45.439-1.026,1.465-.852,1.689a2.916,2.916,0,0,0,1.925,1.087A6.179,6.179,0,0,0,739.189,408.208Zm64.3,10.039c-.328-.292-.933-1.293-1.636-1.367a45.88,45.88,0,0,0-6.445-.076c-2.223.081-3.537,1.456-4.472,3.362-.515,1.048-.571,2.007.5,2.547a1.772,1.772,0,0,0,2.633-.9c.27-.552.739-1.383,1.171-1.417a28.348,28.348,0,0,1,6.162-.03C802.87,420.576,803.455,420.461,803.494,418.247ZM793.3,409.37c.157-.879.436-1.451.3-1.893-.207-.663-.65-1.686-1.094-1.742-.685-.085-1.906.337-2.117.859-1.205,2.984-1.31,5.388,2.375,6.241a26.359,26.359,0,0,0,5.438.664c.677.013,1.367-.761,2.051-1.176a9.851,9.851,0,0,0-1.27-1.845,3.051,3.051,0,0,0-1.476-.413C796.161,409.826,794.808,409.616,793.3,409.37Zm-2.269,6.3c-1.193-2.034-2.141-3.789-3.266-5.422-.167-.242-1.374-.126-1.729.212a2.327,2.327,0,0,0-.592,1.859c.147.709.859,1.281,1.169,1.981a2.934,2.934,0,0,1,.389,1.927c-.553,1.307-1.451,2.463-2.093,3.738a13.584,13.584,0,0,0-.7,2.3c1.024-.009,2.6.4,2.973-.1A63.273,63.273,0,0,0,791.036,415.665Z" fill="#fdfdfd"/>
      <path id="Path_7012" data-name="Path 7012" d="M969.041,530.045c.067,5.261.2,10.522.187,15.783-.026,12.323-.128,24.646-.188,36.969-.03,6.17-.066,12.34-.044,18.509.024,6.668.114,13.336.169,20a3.716,3.716,0,0,1-.085.586q-.094.395-.188.789c-4.386-.112-8.771-.263-13.158-.326-4.537-.064-9.075-.045-13.613-.059q-3.9-.011-7.8-.009.237-.834.472-1.669a3.56,3.56,0,0,0-2.865,1.617l-5.979.043c.69-.691,1.356-1.41,2.075-2.07q4.338-3.977,8.7-7.923l2.775.047,1.169.023,2.5-.154,1.479-.268c4.961-1.348,9.261-4.024,13.545-6.735,1.966-1.244,3.953-2.456,5.93-3.682-.01-.584.095-1.639-.049-1.674a15.513,15.513,0,0,0-2.7-.247c-1.143.575-2.309,1.111-3.425,1.734-2.97,1.656-5.92,3.349-8.877,5.027l-.441.327a.325.325,0,0,1-.338.078,20.313,20.313,0,0,1-3.1-.447c-1.858-.552-4-.845-5.441-1.985a126.175,126.175,0,0,1-22.444-23.37c-3.36-4.475-6.818-9.059-7.878-14.706-.633-3.37-.383-6.9-.571-10.361-.381-6.99,1.277-13.737,2.469-20.536a2.044,2.044,0,0,1,1.317-1.318c2.576-.491,5.18-.856,7.786-1.173,1.694-.206,3.437-.091,5.1-.4,4.367-.814,6.885-4.2,9.592-7.254a10.485,10.485,0,0,0,1.115-1.995l-.027.031.462-.484a56.074,56.074,0,0,0,3.91-4.321c1.53-2.066,3.189-3.549,6-3.167a34.617,34.617,0,0,0,3.759.031c4.437.11,7.936,1.869,10.247,5.783,1.555,2.633,3.129,5.257,4.815,7.806.508.767,1.1,2.006,2.484,1.1Zm-44.2,21.866a9.972,9.972,0,0,0-2.583.411c-2.681,1.194-5.339,2.455-7.919,3.85a5.326,5.326,0,0,0-1.874,2.1,1.728,1.728,0,0,0,.219,1.663,2.3,2.3,0,0,0,1.962.312c3.5-1.786,6.942-3.706,10.4-5.584,1.386-.752,1.444-1.576.13-2.471Zm15.42,23.594-3.708,2.318c-.295-2.044-.7-3.808-.776-5.587-.164-3.706-1.008-7.461.764-11.07.543-1.106-.64-2.339-1.984-2.253-1.661.106-2.143,1.389-2.429,2.679-1.075,4.854-.412,9.707.236,14.535.324,2.414,1.109,4.732,3.851,5.422,2.658.67,4.035-1.422,5.651-2.922.049-.045.091-.1.138-.143.924-.9.772-1.718-.2-2.464C941.544,575.07,941.171,574.476,940.257,575.505Zm16.354,13.546a5.027,5.027,0,0,1-1.422-.856c-3.247-3.991-7.5-4.209-12.041-3.224a5.484,5.484,0,0,0-3.964,5,2.627,2.627,0,0,0,1.352,1.732,15.116,15.116,0,0,0,3.074.923,15.659,15.659,0,0,0,3.332.84c2.544.1,5.1-.015,7.647-.043l.467.438c.109-.2.218-.395.328-.593a11.586,11.586,0,0,0,1.911-1.655,4.515,4.515,0,0,0,.409-1.739Zm-4.156-38.311c-.084-2.279-1.471-3.038-3.9-3.063-1.781-.018-3.552-.509-5.338-.651-.672-.053-1.746.079-1.976.493a2.4,2.4,0,0,0,.031,2.236,6.448,6.448,0,0,0,3.227,1.613,44.282,44.282,0,0,0,6.689.083C951.7,551.434,952.183,550.9,952.455,550.74ZM921.9,562.086c-.752,1.491-1.687,2.568-1.762,3.7-.08,1.216,1.277,2.369,2.352,1.888a4.444,4.444,0,0,0,2.127-2.994C924.71,564.086,923.14,563.219,921.9,562.086Zm24.627-6.894c-.738,1.163-1.513,1.879-1.575,2.651-.047.583.819,1.239,1.279,1.862a16.331,16.331,0,0,0,2.206-2.448C948.538,557.09,947.453,556.178,946.523,555.192Z" fill="#fdfdfd"/>
      <path id="Path_7013" data-name="Path 7013" d="M742.661,429.589c1.974-.914,3.589-.042,4.765,1.353a52.213,52.213,0,0,1,4.31,6.116c.744,1.2,1.295,2.48-.149,3.858-.527.5-.251,1.848-.342,2.808l-3.376,5.661-2.267-.6-.343.5L744,446.977l-1.865,1.487c-1.659-5.112-4.938-8.6-10.15-10.064-1.175,1.227-2.575,2.616-3.888,4.084-1.469,1.642-2.57,1.755-4.325.421a5.232,5.232,0,0,0-1.894-.9c-2.042-.484-4.179-.661-6.148-1.337a10.491,10.491,0,0,0-7.811.653c-2.173,1.051-4.488,1.964-6.495,3.126-1.985,1.148-3.537,1.837-5.718,1.458-1.987-.346-2.943,1.036-3.793,2.52q-2.64,4.609-5.317,9.2a29.076,29.076,0,0,0-1.733,2.728c-1.2,2.708.362,4.915,1.436,7.225a26.747,26.747,0,0,1,2.387,5.976c.6,3.127-1.048,5.724-3,8.024a2.451,2.451,0,0,0-.688,2.622,35.036,35.036,0,0,1,.5,4.307c.287,1.8.66,3.592,1.067,5.371.4,1.752.531,3.36-1.053,4.7a1.918,1.918,0,0,0-.367,1.653c1.083,3.7,2.235,7.293-.169,11.021-.58.9.022,2.489-.222,3.7-.366,1.819-1.049,3.572-1.5,5.378-.244.984-.112,2.076-.436,3.021-1.238,3.611.232,6.809,1.137,10.181.456,1.7.468,4.06-.4,5.442-1.7,2.709-1.495,5.495-1.56,8.345-.048,2.086-.052,4.175.013,6.26.064,2.042.422,4.089.319,6.117-.124,2.453-.6,4.889-.918,7.332a5.606,5.606,0,0,0-.164,1.569c.607,3.584-.837,6.251-3.614,8.355q-.052-6.436-.1-12.872c0-.463.185-1.022-.009-1.374-1.526-2.761-.887-5.63-.643-8.525.335-3.969.493-7.955.648-11.937.064-1.633-.077-3.274-.125-4.913,1.426-2.018.67-4.029-.018-6.04-.037-5.405-.1-10.81-.108-16.215q-.02-20.958,0-41.916,0-10.085.027-20.17c3.026.562,4.036-.287,4.321-3.346a25.232,25.232,0,0,1,.939-5.035c1.509-4.931,5.035-7.687,9.379-7.041,2.963.441,5.829,1.506,8.764,2.179a3.446,3.446,0,0,0,2.492-.148,5.725,5.725,0,0,0,1.725-2.642c.61-1.793,1.717-3.315,3.51-3.318a72.083,72.083,0,0,1,11.44.8c2.641.421,5.454,1.115,6.682,4.172a1.864,1.864,0,0,0,1.662.705c1.232-.755,2.584-1.422,1.909-3.516a3.334,3.334,0,0,1,3.469-4.2c1.082.048,2.145.623,3.222.645,4.576.1,7.821,1.907,8.973,6.6.319,1.3,1.006,2.065,2.39,1.55s1.613-1.6,1.112-2.911c-.4-1.039-.813-2.073-1.16-3.129C747.255,431.669,744.687,430.946,742.661,429.589Z" fill="#fbd762"/>
      <path id="Path_7014" data-name="Path 7014" d="M967.9,529.992c-1.38.91-1.976-.329-2.484-1.1-1.686-2.549-3.26-5.173-4.815-7.806-2.311-3.914-5.81-5.673-10.247-5.783a34.617,34.617,0,0,1-3.759-.031c-2.809-.382-4.468,1.1-6,3.167a56.282,56.282,0,0,1-3.91,4.322l-.462.483.027-.03c-9.6,5.919-19.756,6.577-30.613,3.338l-1.92,3.095-2.76-.788a30.258,30.258,0,0,0,1.554-3.022c.135-.345-.24-.89-.381-1.343-2.519-1.424-3.222-2.963-2.1-5.46a27.828,27.828,0,0,1,2.831-4.436c1.24-1.755,2.249-3.906,3.925-5.067a77.069,77.069,0,0,1,9.8-5.351,40.113,40.113,0,0,1,17.181-3.823c2.4-.052,5.226-.2,6.926,1.657,1.793,1.959,3.943,2.684,6.219,3.578,2.384.937,2.7,3.341.792,5.887,1.616.105,3.063.214,4.512.29,5.551.294,9.162,3.507,11.93,7.954,1.5,2.4,2.917,4.846,4.371,7.271q-.016.822-.035,1.645Q968.191,529.316,967.9,529.992Z" fill="#1c1c1c"/>
      <path id="Path_7015" data-name="Path 7015" d="M742.661,429.589c2.026,1.357,4.594,2.08,5.475,4.766.347,1.056.763,2.09,1.16,3.129.5,1.309.27,2.4-1.112,2.911s-2.071-.251-2.39-1.55c-1.152-4.691-4.4-6.5-8.973-6.6-1.077-.022-2.14-.6-3.222-.645a3.334,3.334,0,0,0-3.469,4.2c.675,2.094-.677,2.761-1.909,3.516a1.864,1.864,0,0,1-1.662-.705c-1.228-3.057-4.041-3.751-6.682-4.172a72.083,72.083,0,0,0-11.44-.8c-1.793,0-2.9,1.525-3.51,3.318A5.725,5.725,0,0,1,703.2,439.6a3.446,3.446,0,0,1-2.492.148c-2.935-.673-5.8-1.738-8.764-2.179-4.344-.646-7.87,2.11-9.379,7.041a25.232,25.232,0,0,0-.939,5.035c-.285,3.059-1.295,3.908-4.321,3.346q-.011-2-.021-4.009c.519-1.631,1.084-3.248,1.547-4.894a15.735,15.735,0,0,1,4.894-7.778c3.414-3.022,7.278-2.717,11.273-2.192.71.093,1.411.247,2.115.372l4.178,1.361.691-1.923c2.57-3.718,6.145-4.733,10.461-4.066a36.885,36.885,0,0,0,4.927.126l9.25,2.549c.595-.991,1.3-2.156,2-3.321,3.432-2.284,7.085-1.126,10.671-.626A22.59,22.59,0,0,1,742.661,429.589Z" fill="#27251f"/>
      <path id="Path_7016" data-name="Path 7016" d="M898.168,622.231l-10.755.083.885-1.691c-.085-.367-.07-.981-.272-1.062-1.953-.793-1.382-2.29-1.156-3.729a19.309,19.309,0,0,0,.116-1.958l.111-.789.245-2.766.2-1.607.262-2.379.207-.8.235-2.763.135-.81q.086-1.187.172-2.375.415-3.383.833-6.764l.229-.8-.072-1.176q.218-2,.434-3.992l2.213-.61,1.615.031,2.775.242C896.553,598.448,896.2,610.391,898.168,622.231Z" fill="#bbe8fd"/>
      <path id="Path_7017" data-name="Path 7017" d="M949.077,606.359c2.957-1.678,5.907-3.371,8.877-5.027,1.116-.623,2.282-1.159,3.425-1.734,1.408-.064,2.724,0,2.745,1.921-1.977,1.226-3.964,2.438-5.93,3.682-4.284,2.711-8.584,5.387-13.545,6.735l-1.479.268-2.5.154-1.17-.023-2.775-.047a11.253,11.253,0,0,0-8.394,1.427c-4,2.453-8.37,4.3-12.579,6.409-.932.468-1.871.932-2.756,1.479-.213.132-.225.59-.33.9l-6.1-.247,2.358-2.684.508-.392-.028.034.738-.515-.016.017,17.778-8.647-1.794-1.007c-2.291-1.9-4.578-3.806-6.885-5.686-.115-.093-.415.042-.629.071l-1.347-2.662c1.417-2.223,2.376-2.482,3.629-1.07,3.262,3.676,6.642,6.823,11.827,8.129a30.752,30.752,0,0,0,9.252.76c2.14-.107,4.231-1.19,6.343-1.838a.325.325,0,0,0,.338-.078Z" fill="#232526"/>
      <path id="Path_7018" data-name="Path 7018" d="M908.922,619.57l-2.358,2.684-.607.033c-.361-3.9-.736-7.806-1.058-11.713-.029-.353.282-.735.434-1.1,1.836,2.289,3.159,2.473,4.795.78a16.159,16.159,0,0,1,2.757-2.345c1.249-.81,2.625-1.423,3.946-2.122l1.6-1.827.161-.512c.214-.029.514-.164.629-.071,2.307,1.88,4.594,3.786,6.885,5.687-4.339,2.047-8.745,3.967-12.976,6.218-1.256.668-2.019,2.264-3.008,3.435l.016-.017-.738.515.027-.034Z" fill="#fdfdfd"/>
      <path id="Path_7019" data-name="Path 7019" d="M898.168,622.231c-1.966-11.84-1.615-23.783-1.584-35.712l1.589.333.686,3.215q-.021,1.375-.042,2.751l.063,2.027.369,3.536c.037.269.073.539.109.808q.3,1.584.6,3.167l.271.783.155.806.209.794q.235,1.2.47,2.39l.043.413q.208,1.579.418,3.159.119.6.238,1.2.283,3.972.568,7.945l.154,2.364Z" fill="#fdfdfd"/>
      <path id="Path_7020" data-name="Path 7020" d="M912.666,622.5c.1-.308.117-.766.33-.9.885-.547,1.824-1.011,2.756-1.479,4.209-2.112,8.581-3.956,12.579-6.409a11.253,11.253,0,0,1,8.394-1.427q-4.353,3.958-8.7,7.923c-.719.66-1.385,1.379-2.075,2.07q-6.36.05-12.718.1A2.943,2.943,0,0,0,912.666,622.5Z" fill="#b8e5f9"/>
      <path id="Path_7021" data-name="Path 7021" d="M887.342,610.319l-.245,2.766-.111.789a19.309,19.309,0,0,1-.116,1.958c-.226,1.439-.8,2.936,1.156,3.729.2.081.187.7.272,1.062l-2.837,1.992-3.6-.387,1.713-5.948.315-1.587.036-.8q.376-1.988.754-3.975l2.338.389A2.218,2.218,0,0,0,887.342,610.319Z" fill="#1c1c1c"/>
      <path id="Path_7022" data-name="Path 7022" d="M902.479,622.208l-.154-2.364c1.45.606,2.114-.017,2.193-1.449.079-1.411,1.07-2.966-.648-4.139-.163-.112.062-.737.035-1.118-.03-.413,0-.955-.243-1.208-1.44-1.513-.673-2.684.607-4.134l1.064,1.675c-.152.368-.463.75-.434,1.1.322,3.907.7,7.809,1.058,11.713Z" fill="#232526"/>
      <path id="Path_7023" data-name="Path 7023" d="M677.384,531.288c.688,2.011,1.444,4.022.018,6.04Q677.393,534.309,677.384,531.288Z" fill="#f7f4ed"/>
      <path id="Path_7024" data-name="Path 7024" d="M931.925,622.238a3.56,3.56,0,0,1,2.865-1.617q-.235.834-.472,1.669Z" fill="#b8e5f9"/>
      <path id="Path_7025" data-name="Path 7025" d="M885.461,622.615l2.837-1.992-.885,1.691Z" fill="#232526"/>
      <path id="Path_7026" data-name="Path 7026" d="M967.9,529.992q.294-.675.586-1.349l.558,1.4Z" fill="#fdfdfd"/>
      <path id="Path_7027" data-name="Path 7027" d="M968.892,622.684q.093-.395.188-.789C969.018,622.157,968.955,622.421,968.892,622.684Z" fill="#fdfdfd"/>
      <path id="Path_7028" data-name="Path 7028" d="M702.565,523.18c.03-.273.061-.547.092-.819a11.688,11.688,0,0,1,1.011.627c2.1,1.612,4.293,1.325,6.516.312,3.274-1.491,4.292-4.116,4.042-7.565-.178-2.469-1.2-4.062-3.733-4.609.495-5.894.958-11.677,1.474-17.455.226-2.529.675-5.044.765-7.574.024-.663-.9-1.909-1.413-1.92a3.51,3.51,0,0,0-2.519,1.231c-.487.631-.395,1.753-.453,2.665-.273,4.334-.473,8.672-.771,13.005-.22,3.213-.685,6.414-.793,9.629-.12,3.56,0,3.564,3.888,4.828-.343,1.245-.32,2.876-1.124,3.725-1.689,1.786-3.794,1.315-5.246-.894-1.035-1.573-1.91-3.251-2.857-4.882v-4.005l-1.117.731c-.029-.727-.1-1.454-.082-2.18q.218-12.588.462-25.177a15.916,15.916,0,0,1,.247-3.73c.856-3.228.931-3.208-1.948-4.638,0-4.549-.032-9.147.009-13.744.043-4.842,2.183-7.9,6.821-9.459,7.206-2.413,14.651-2.218,22.1-1.719a7.785,7.785,0,0,1,1.894.485c6.106,2.05,8.955,7.055,10.505,12.666,1.012,3.667.9,7.671,1.071,11.533a8.42,8.42,0,0,1-2.8,6.693c-1.431,1.332-2.973,2.552-4.348,3.938-.42.423-.8,1.613-.6,1.8.984.912,2.32,1.726,3.513.541a45.014,45.014,0,0,0,6.3-6.982c2.474-3.806,1.769-8.264,1.5-12.552-.081-1.3-.5-2.8-.04-3.892,1.908-4.515,3.923-9.005,6.233-13.324,2.164-4.046,4.751-7.867,7.152-11.786l.129,1.122c1.631-2.015,3.151-3.74,4.477-5.6a9.988,9.988,0,0,0,.928-2.7l.227-.16c-.044,0-.109-.012-.129.011a.692.692,0,0,0-.076.173l-2.819,1.594.014.014v-1.272l-.291-.026-.152.9h-3.208c0-1.493-.007-2.923,0-4.354.015-2.679.753-3.667,3.346-4.334a16.219,16.219,0,0,1,2.729-.44c2.338-.19,4.71,1.837,5.429,4.577.486,1.853-.559,3.435-2.825,4.594a3.79,3.79,0,0,0-1.737,1.661c-2.78,6.725-5.672,13.415-8.128,20.26-3.78,10.535-7.337,21.154-10.8,31.8-1.7,5.226-2.986,10.588-4.437,15.894a37.724,37.724,0,0,0-1.6,6.411c-.47,5.244-.542,10.522-.948,15.773-.386,4.986-.934,9.962-1.525,14.929-.291,2.451-1.046,4.857-1.232,7.31-.4,5.251-.544,10.521-.838,15.78a5.692,5.692,0,0,1-.541,2.859c-1.281,1.767-.6,2.726.988,3.561l3.963,2.334-.021-.013.812.413-.018-.012.809.422-.026-.017.529.38,1.028.926H730.144c-.225-3.039-.352-5.859-.659-8.661-.585-5.357-1.428-10.69-1.872-16.057a45.388,45.388,0,0,0-2.674-13.447c-.751-1.865-1.836-3.662-3.82-3.952a47.092,47.092,0,0,0-8.825-.263c-.564.025-1.44,1.342-1.534,2.138-.308,2.615-.226,5.274-.469,7.9-.682,7.393-1.442,14.779-2.191,22.165-.381,3.752-1.5,7.536.574,11.159l-2.189,2.17-5.438-1.93.423-2.848c.31-2.322.818-4.638.9-6.968q.411-12.258.559-24.527c.053-4.069-.132-8.141-.21-12.212Zm31.115-47.538c.034-4.117-1.966-6.1-5.582-6.051-.724.011-1.449.056-2.171.109-3.725.273-5.151,3.152-6.252,6-.883,2.281,1.6,3.091,2.792,4.417a1.711,1.711,0,0,0,.151.129c2,1.764,4.185,2.747,6.82,1.458A7.579,7.579,0,0,0,733.68,475.642Zm-12.857-15.053c-.11-.474-.084-.812-.24-.965-2.279-2.23-4.544-4.479-6.937-6.582-.247-.217-1.567.3-1.89.8a2.116,2.116,0,0,0,.2,2.015c1.91,2,3.95,3.872,6,5.727.442.4,1.357.9,1.64.719C720.177,461.928,720.475,461.119,720.823,460.589Zm6.343-1.174c1.6-1.181,3.236-2.319,4.749-3.6.169-.144-.187-1.367-.6-1.657-1.616-1.128-5.87.691-6.347,2.613C724.67,457.963,725.668,459.144,727.166,459.415Zm.478,4.54a8.686,8.686,0,0,0,2.116.89c1.037.175,2.65-1.746,2.227-2.873A3.468,3.468,0,0,0,729.8,460.2C728.613,459.918,727.575,461.571,727.644,463.955Zm-5.919,1.986c.469-2.052-1.146-2.138-2.424-2.184-1.374-.05-1.577,1.053-1.541,2.223.042,1.369.415,2.435,2,2.474C721.435,468.495,721.928,467.5,721.725,465.941Z" fill="#fcd762"/>
      <path id="Path_7029" data-name="Path 7029" d="M771.058,485.487q.219-3.785.437-7.569c1.644.821,1.027,2.349,1.211,3.66a7.258,7.258,0,0,0,.884,1.919c.791-.52,2.256-1.05,2.249-1.559a14.4,14.4,0,0,0-.983-5.238c-.588-1.412-1.925-2.493-2.769-3.824-1.746-2.754-3.928-5.5-3-9.019a6.878,6.878,0,0,1,2.656-3.675c.844-.557,3.433,2.534,3.7,3.814.175.852.717,2.069,1.374,2.29,1.443.485,3.337-1.14,3.911-3.065.479-1.606-.628-2.26-1.808-2.977-1.472-.9-2.82-2-4.641-3.31l8.747-3.785c-.637,2.621-1.239,4.825-1.665,7.061a1.975,1.975,0,0,0,.7,1.64,2.358,2.358,0,0,0,3.481-2.611c-.612-2.444.8-3.827,1.758-5.518.259-.454.91-1.06,1.3-1,1.8.264,3.809.331,5.308,1.21a20.594,20.594,0,0,1,7.925,9.322c1.172,2.468,1.2,6.289-1.625,8.142a26.692,26.692,0,0,0-3.531,2.465,2.954,2.954,0,0,0-.682,2.057c1.34.907,2.838,2.226,4.273,2.209,3.1-.036,5.391,1.39,7.724,2.982,4.206,2.871,7.02,6.637,7.608,11.843.42,3.728,1.092,7.44,1.27,11.178A132.21,132.21,0,0,1,816.8,518.3c-.073,1.237-1.494,2.444-2.439,3.54a1.626,1.626,0,0,1-1.538-.066c-1.162-.878-1.215-5.123.006-5.894a3.154,3.154,0,0,0,1.406-3.784c-1.457-5.38-3.084-10.714-4.678-16.056-.288-.966-.96-1.883-1.985-1.119a2.809,2.809,0,0,0-.921,2.376c.853,3.164,2,6.248,2.969,9.382a39.545,39.545,0,0,1,1.192,4.758,3.276,3.276,0,0,1-.477,1.787,13.813,13.813,0,0,0-1.453,2.624c-.581,2.631-.536,5.344-1.638,7.937-.662,1.559-.413,3.5-.592,5.272-.606,5.972-1.433,11.931-1.78,17.918-.5,8.69-.724,17.4-.9,26.1-.029,1.417-.721,2.065-1.671,2.214-2.308.363-4.664.423-7.408.637.441-1.02.529-1.845.971-2.141,2.542-1.708,2.166-4.2,1.643-6.513-2.553-11.278-4.312-22.857-11.419-32.53-.47-.64-1.428-1.4-2.064-1.317a3.227,3.227,0,0,0-2.089,1.616,40.136,40.136,0,0,0-1.2,3.954c-3.349,8.943-6.746,17.867-10.112,26.8a8.839,8.839,0,0,1-9.226,5.246,6.181,6.181,0,0,1,2.248-1.733,3.607,3.607,0,0,0,2.554-2.924c1.39-6.765,2.71-13.547,4.235-20.282a163.045,163.045,0,0,0,3.831-33.545c.013-.81-.492-2.191-1-2.318a5.079,5.079,0,0,0-2.831.679c-.506.217-.835.826-1.273,1.227-2.529,2.316-5.087,4.6-7.589,6.944-.938.878-1.75,1.889-2.623,2.836A18.958,18.958,0,0,1,756.01,525a2.183,2.183,0,0,1-3.261-1.25,3.454,3.454,0,0,1,2.271-3.561,9.34,9.34,0,0,0,2.986-2.609,23.1,23.1,0,0,0,1.82-3.27c3.406-6.016,6.892-11.989,10.2-18.059,1.246-2.287,2.055-4.809,3.129-7.194.412-.916,1.587-1.8.537-2.765C773.081,485.736,771.953,485.738,771.058,485.487Zm9.1-13.936a3.525,3.525,0,0,0,1.822,5.455,6.117,6.117,0,0,0,6.412-1.875c1.525-1.944,1.674-5.885.295-7.812-1.032-1.442-4.1-2.215-6.154-1.55a3.46,3.46,0,0,0-2.313,4.492Zm9.524-9.476a17.1,17.1,0,0,0,1.433-3.659c.047-.264-1.708-1.2-2.593-1.152-.584.034-1.354,1.2-1.591,2C786.435,460.921,787.672,461.554,789.68,462.075Z" fill="#fbd762"/>
      <path id="Path_7030" data-name="Path 7030" d="M941.386,478.7a6.187,6.187,0,0,1-1.038,1.461c-2.786,2.156-6.165,2.511-9.492,2.991-.391.057-1-.1-1.153.1-1.9,2.562-4.795,1.461-7.164,1.767a77.732,77.732,0,0,1-13.037.448c-2.74-.111-4.752.643-6.287,2.785-1.205,1.683-2.668,1.565-4.291.808l5.189-6.787c-2.227-1.616-2.763-1.582-4.463.375a42.516,42.516,0,0,0-10.232,24.357,18.1,18.1,0,0,1-.658,2.648l-.693-.083c-.513-4.7-1.182-9.4-1.474-14.121-.144-2.341-.639-4.88,1.156-7.042.222-.268-.473-1.525-.993-2.1-.31-.341-1.107-.239-1.685-.336,1.352-1.043,1.076-2.036-.04-3.077-2.152-2.006-4.271-4.048-6.4-6.075l-1.134-1.176a7.072,7.072,0,0,0-.551-1.033c-4.913-6.409-8.4-13.387-8.662-21.653l1.261-12.364.245-.724.556-1.254.227-.345q2.445-3.99,4.891-7.98l.819-1.184,1.209-1.246.343-.354.046-.039,1.077-1.165,1.632-1.593,10.424-7.655.991-.588a11.227,11.227,0,0,0,1.069-.435,55.448,55.448,0,0,1,19.4-6.216l4.356-.4.83.011.757-.088,2-.108h2.4l3.18.293,8.756,2.8c.484.33.952.687,1.455.985A43.91,43.91,0,0,1,951.19,427.48c2.122,3.342,3.884,6.913,5.808,10.382l.526,1.185.605,1.616.237,1.163.368,1.12.052.9.339,2.366.082,1.592q-.043.787-.088,1.576.126.8.251,1.6l.1,1.2-.075,1.994-.27,2.388q-.654,1.986-1.307,3.973l-2.023,4.047-.351.715-3.2,3.692-1.951,1.487-.858.88-.662.328-4.16,1.84-.213.132-.576.229-.408.122-7.1,2.131-2.762.5-1.2.217-2.38.187-1.227.043-1.555-.072-11.129.237-4.776.029-1.192-.045-3.543-.157c-1.212-.385-1.4.483-1.33,1.273.111,1.186.382,2.413,2,2.413,3.6,0,7.2-.014,10.8-.021l1.2-.018,13.5-.368,1.2-.04,1.583-.373.79-.167Zm-8.02-58.336c-.815,1.457-1.858,1.37-3.026.62-.555-.356-1.171-.617-1.727-.971-3.008-1.916-6.129-3.225-9.857-2.866a40.372,40.372,0,0,1-7.934.012c-6.09-.623-10.275,3.351-15.052,5.915-.207.111-.306.421-.46.635-3.075,4.283-6.177,8.547-9.216,12.855-1.87,2.653-3.386,5.346-2.71,8.911.524,2.76-.11,5.812.736,8.421a34.319,34.319,0,0,0,4.7,8.8,25.094,25.094,0,0,0,13.751,10.165,4.025,4.025,0,0,0,4.083-.615c.415-.345,1.587-.535,1.729-.328.937,1.368,1.943.615,2.952.278a51.031,51.031,0,0,1,5.2-1.722c9.647-2.109,19.323-4.051,28.634-7.495,3.716-1.374,7.126-2.768,8.493-6.917,1.643-4.985,2.443-9.853-.987-14.514-2.58-3.507-4.962-7.161-7.552-10.661A35.9,35.9,0,0,0,933.366,420.366Z" fill="#bbe8fd"/>
      <path id="Path_7031" data-name="Path 7031" d="M735.3,569.011c-1.589-.835-2.269-1.794-.988-3.561a5.692,5.692,0,0,0,.541-2.859c.294-5.259.44-10.529.838-15.78.186-2.453.941-4.859,1.232-7.31.591-4.967,1.139-9.943,1.525-14.929.406-5.251.478-10.529.948-15.773a37.724,37.724,0,0,1,1.6-6.411c1.451-5.306,2.737-10.668,4.437-15.894,3.463-10.645,7.02-21.264,10.8-31.8,2.456-6.845,5.348-13.535,8.128-20.26a3.79,3.79,0,0,1,1.737-1.661c2.266-1.159,3.311-2.741,2.825-4.594-.719-2.74-3.091-4.767-5.429-4.577a16.219,16.219,0,0,0-2.729.44c-2.593.667-3.331,1.655-3.346,4.334-.008,1.431,0,2.861,0,4.354h3.208l.443.4-.014-.014a3.517,3.517,0,0,1-1.133,3.673c-.57.6-1.072,1.261-1.6,1.9-2.4,3.919-4.988,7.74-7.152,11.786-2.31,4.319-4.325,8.809-6.233,13.324-.464,1.1-.041,2.587.04,3.892.269,4.288.974,8.746-1.5,12.552a45.014,45.014,0,0,1-6.3,6.982c-1.193,1.185-2.529.371-3.513-.541-.2-.188.179-1.378.6-1.8,1.375-1.386,2.917-2.606,4.348-3.938a8.42,8.42,0,0,0,2.8-6.693c-.171-3.862-.059-7.866-1.071-11.533-1.55-5.611-4.4-10.616-10.505-12.666a7.785,7.785,0,0,0-1.894-.485c-7.449-.5-14.894-.694-22.1,1.719-4.638,1.554-6.778,4.617-6.821,9.459-.041,4.6-.009,9.2-.009,13.744,2.879,1.43,2.8,1.41,1.948,4.638a15.916,15.916,0,0,0-.247,3.73q-.249,12.588-.462,25.177c-.013.726.053,1.453.082,2.18.061,1.2-.8,2.71,1.117,3.274.947,1.631,1.822,3.309,2.857,4.882,1.452,2.209,3.557,2.68,5.246.894.8-.849.781-2.48,1.124-3.725-3.885-1.264-4.008-1.268-3.888-4.828.108-3.215.573-6.416.793-9.629.3-4.333.5-8.671.771-13.005.058-.912-.034-2.034.453-2.665a3.51,3.51,0,0,1,2.519-1.231c.51.011,1.437,1.257,1.413,1.92-.09,2.53-.539,5.045-.765,7.574-.516,5.778-.979,11.561-1.474,17.455,2.53.547,3.555,2.14,3.733,4.609.25,3.449-.768,6.074-4.042,7.565-2.223,1.013-4.412,1.3-6.516-.312a11.688,11.688,0,0,0-1.011-.627c-1.713-2.211-3.552-4.338-5.08-6.668a7.2,7.2,0,0,1-1.112-3.833c.1-6.9.4-13.8.577-20.7.11-4.234.134-8.469.188-12.7,0-.254.036-.626-.109-.747-2.737-2.294-1.571-5.4-1.689-8.208a77.005,77.005,0,0,1-.06-8.806c.531-7.282,3.717-11.376,11.041-13.385,7.374-2.022,15.021-2.082,22.569-1.278,5.407.576,9.2,3.994,11.824,8.7.727,1.306,1.461,2.607,2.264,4.04l4.8-9.384,3.376-5.661c.314-.495.636-.985.94-1.486,1.728-2.841,3.74-5.36,2.368-9.3a13.971,13.971,0,0,1,.191-7.889c.993-3.514,6.77-5.565,10.757-4.453a9.512,9.512,0,0,1,6.218,5.35c1.4,2.9,1.045,6.168-1.541,7.812-3.257,2.072-4.258,5.31-5.6,8.467-.36.847-.643,1.726-.962,2.59.008.216.015.432.023.647l.377-.193c.336,0,.8.134.989-.035,2.857-2.539,4.541-2.757,7.834-.941.375.528.715,1.083,1.13,1.576.826.978,1.153,2.079.114,2.965-1.011.862-1.883.315-2.6-.715-.7-1-1.5-2.076-3.025-1.341-.772,4.131-1.849,4.669-5.3,2.519-1.272-.792-1.44-.034-1.638.895l-2.064,5.928.007-.013-.727,1.3-.1.671c-1.843,5.321-3.859,10.589-5.492,15.974-3.278,10.813-6.1,21.769-9.607,32.5-1.712,5.243-.739,10.514-1.491,15.736-1.183,8.217-2.018,16.485-2.922,24.74-.344,3.145-.465,6.315-.7,9.473-.206,2.829-.472,5.654-.59,8.486a2.252,2.252,0,0,0,.837,1.6c1.994,1.5,4.095,2.855,6.111,4.325a3.557,3.557,0,0,1,1.663,3.938c-.472,1.512-2.028,1.568-3.451,1.719-1.593.169-3.156.609-4.735.915a2.943,2.943,0,0,1-.785.019c-2.557-.188-5.111-.417-7.67-.568-2.2-.131-2.993-1.122-3.189-3.333-.677-7.6-1.484-15.2-2.243-22.8-.059-.589-.1-1.18-.2-1.763-.646-3.857-1.151-7.747-2.012-11.556-.626-2.769-5.109-4.59-7.666-3.28-.4.206-.619,1.079-.648,1.657-.193,3.88-.149,7.778-.493,11.643-.544,6.1-1.2,12.2-2.071,18.272-.45,3.145-.44,6,1.682,8.579a8.52,8.52,0,0,1,1.006,2.13c1.128,2.675.148,4.6-2.665,4.6a20.147,20.147,0,0,1-12.047-3.717,4.912,4.912,0,0,1-1.634-3.525c.005-8.688.117-17.379.4-26.063.239-7.507.737-15.005,1.131-22.507.084-1.616,1.129-2.25,3.418-2.114q.075,2.466.15,4.93c-.17,2.881-.4,5.761-.5,8.645q-.326,9.355-.538,18.716c-.117,5.447-.144,10.9-.21,16.346l-.423,2.848,5.438,1.93,3.642,1.057.332-.608-1.785-2.619c-2.076-3.623-.955-7.407-.574-11.159.749-7.386,1.509-14.772,2.191-22.165.243-2.625.161-5.284.469-7.9.094-.8.97-2.113,1.534-2.138a47.092,47.092,0,0,1,8.825.263c1.984.29,3.069,2.087,3.82,3.952a45.388,45.388,0,0,1,2.674,13.447c.444,5.367,1.287,10.7,1.872,16.057.307,2.8.434,5.622.659,8.661H742.38l-1.028-.926-.529-.38.026.017-.809-.422.018.012-.812-.413.021.013Z" fill="#272621"/>
      <path id="Path_7032" data-name="Path 7032" d="M771.058,485.487c.9.251,2.023.249,2.633.809,1.05.964-.125,1.849-.537,2.765-1.074,2.385-1.883,4.907-3.129,7.194-3.307,6.07-6.793,12.043-10.2,18.059a23.1,23.1,0,0,1-1.82,3.27,9.34,9.34,0,0,1-2.986,2.609,3.454,3.454,0,0,0-2.271,3.561A2.183,2.183,0,0,0,756.01,525a18.958,18.958,0,0,0,2.935-3.07c.873-.947,1.685-1.958,2.623-2.836,2.5-2.344,5.06-4.628,7.589-6.944.438-.4.767-1.01,1.273-1.227a5.079,5.079,0,0,1,2.831-.679c.51.127,1.015,1.508,1,2.318a163.045,163.045,0,0,1-3.831,33.545c-1.525,6.735-2.845,13.517-4.235,20.282a3.607,3.607,0,0,1-2.554,2.924,6.181,6.181,0,0,0-2.248,1.733,8.839,8.839,0,0,0,9.226-5.246c3.366-8.937,6.763-17.861,10.112-26.8a40.136,40.136,0,0,1,1.2-3.954,3.227,3.227,0,0,1,2.089-1.616c.636-.078,1.594.677,2.064,1.317,7.107,9.673,8.866,21.252,11.419,32.53.523,2.311.9,4.8-1.643,6.513-.442.3-.53,1.121-.971,2.141,2.744-.214,5.1-.274,7.408-.637.95-.149,1.642-.8,1.671-2.214.179-8.705.4-17.414.9-26.1.347-5.987,1.174-11.946,1.78-17.918.179-1.769-.07-3.713.592-5.272,1.1-2.593,1.057-5.306,1.638-7.937a13.813,13.813,0,0,1,1.453-2.624,3.276,3.276,0,0,0,.477-1.787,39.545,39.545,0,0,0-1.192-4.758c-.973-3.134-2.116-6.218-2.969-9.382a2.809,2.809,0,0,1,.921-2.376c1.025-.764,1.7.153,1.985,1.119,1.594,5.342,3.221,10.676,4.678,16.056a3.154,3.154,0,0,1-1.406,3.784c-1.221.771-1.168,5.016-.006,5.894a1.626,1.626,0,0,0,1.538.066c.945-1.1,2.366-2.3,2.439-3.54a132.21,132.21,0,0,0,.051-14.176c-.178-3.738-.85-7.45-1.27-11.178-.588-5.206-3.4-8.972-7.608-11.843-2.333-1.592-4.623-3.018-7.724-2.982-1.435.017-2.933-1.3-4.273-2.209a2.954,2.954,0,0,1,.682-2.057,26.692,26.692,0,0,1,3.531-2.465c2.827-1.853,2.8-5.674,1.625-8.142a20.594,20.594,0,0,0-7.925-9.322c-1.5-.879-3.507-.946-5.308-1.21-.385-.056-1.036.55-1.3,1-.963,1.691-2.37,3.074-1.758,5.518a2.358,2.358,0,0,1-3.481,2.611,1.975,1.975,0,0,1-.7-1.64c.426-2.236,1.028-4.44,1.665-7.061l-8.747,3.785c1.821,1.314,3.169,2.414,4.641,3.31,1.18.717,2.287,1.371,1.808,2.977-.574,1.925-2.468,3.55-3.911,3.065-.657-.221-1.2-1.438-1.374-2.29-.263-1.28-2.852-4.371-3.7-3.814a6.878,6.878,0,0,0-2.656,3.675c-.927,3.523,1.255,6.265,3,9.019.844,1.331,2.181,2.412,2.769,3.824a14.4,14.4,0,0,1,.983,5.238c.007.509-1.458,1.039-2.249,1.559a7.258,7.258,0,0,1-.884-1.919c-.184-1.311.433-2.839-1.211-3.66-1.629-2.635-3.214-5.3-4.9-7.9-2.537-3.92-1.353-7.462.952-10.943.638-.965,1.174-2,1.812-2.962a2.42,2.42,0,0,1,.876-.683c.826-.45,1.674-.859,2.513-1.284l3.026-1.761.464-.592-.014.063c1.162-.368,2.313-.776,3.489-1.093,1.391-.374,2.809-.654,4.207-1.005,1.232-.309,2.521-.341,3.322-1.739.274-.478,1.612-.622,2.366-.46.551.118.941.985,1.627,1.777a11,11,0,0,1,6.869,3.373,50.258,50.258,0,0,1,6.988,9.431c2.033,3.762,2.381,7.632-2.826,12.293,4.9,1.066,8.409,4.248,12.076,7.177l-.048-.056.444.45-.043-.025c4.294,5.253,4.937,11.682,5.469,18.023.471,5.612.4,11.276.414,16.917a16.3,16.3,0,0,1-.827,4.83,5.892,5.892,0,0,1-7.531,3.62c-.553-.174-1.1-.365-1.662-.553-.522,3.548-1.283,7-1.493,10.485-.529,8.781-.818,17.576-1.186,26.367-.171,4.088-.3,8.179-.453,12.268-.11,2.955-2.087,4.579-5.753,4.967a37.038,37.038,0,0,0-4.6,1.11c-.814-.218-2.157-.629-3.523-.932-2.318-.514-3.105-1.74-2.133-3.847.776-1.682,1.865-3.218,2.751-4.853a2.109,2.109,0,0,0,.111-1.253,116.61,116.61,0,0,0-7.555-26.386c-.522-1.254-1.231-2.43-2.063-4.049-1.235,3.324-2.309,6.244-3.4,9.157-2.512,6.674-4.988,13.362-7.576,20.007a9.652,9.652,0,0,1-6.028,5.627,33.482,33.482,0,0,1-7.672,1.329,2.287,2.287,0,0,1-2.356-3.018c.627-2.564,1.78-4.766,4.383-5.926a1.974,1.974,0,0,0,.881-1.278c2.2-10.649,4.538-21.274,6.428-31.977.819-4.635.706-9.436.973-14.164a7.241,7.241,0,0,0-.564-1.845c-2.793,3.589-6.738,5.224-8.868,8.974a6.552,6.552,0,0,1-8.937,2.817c-2.982-1.521-3.771-4.308-2.442-8.341.668-2.028,1.616-3.6,4.095-3.523a1.423,1.423,0,0,0,.958-.716q6.788-12.12,13.51-24.278C769.134,489.567,770.059,487.507,771.058,485.487Z" fill="#262521"/>
      <path id="Path_7033" data-name="Path 7033" d="M905.333,609.471l-1.064-1.675c-1.28,1.45-2.047,2.621-.607,4.134.241.253.213.795.243,1.208.027.381-.2,1.006-.035,1.118,1.718,1.173.727,2.728.648,4.139-.079,1.432-.743,2.055-2.193,1.449q-.284-3.972-.568-7.945-.119-.6-.238-1.2-.21-1.579-.418-3.159l.42-.229-.463-.184-.47-2.39-.209-.794-.155-.806-.271-.783q-.3-1.582-.6-3.167c-.036-.269-.072-.539-.109-.808l-.369-3.536c1.309-.717.816-1.378-.063-2.027q.021-1.375.042-2.751c.712-.3,1.446-.556,2.131-.908.956-.492,1.529-1.151.644-2.37l-2.086,2.327c.085-2.53.085-2.53-1.375-2.264l-1.589-.333-2.775-.242-1.615-.031-2.213.61-2.577,1.438a37.125,37.125,0,0,1,.636-3.735c.388-1.377-.011-2.163-1.4-2.451l0,0c-.543-1.355.254-3.311-1.791-3.992l-.159-1.187a2.683,2.683,0,0,0,.5-.2,8.026,8.026,0,0,1,1.01-6.159c.122-.19-.386-.786-.6-1.194a48.5,48.5,0,0,0-3.8-5.433,5.887,5.887,0,0,1-1.005-6.585c1.056-2.7,2.22-5.442,5.59-6.338,1.585-.421,2.985-1.522,4.483-2.286,2.236-1.139,4.43-1.337,6.5.384.493-.471,1-3.807.613-4.213-.114-.119-.362-.109-.549-.158l.016-1.581c.229-.2.623-.372.662-.6.449-2.709.846-5.427,1.256-8.142l.39-.8c0-.132,0-.265,0-.4l3.014-2.325-2.207-.856q.2-.593.4-1.186l2.76.788L901.9,536.4l-.246,1.181-.168,2-.205.791q-.079.8-.16,1.595-.119.992-.236,1.982c.274,2.982-.512,6.045.8,8.973.185.413-.554,1.241-.866,1.877-1.921.308-2.2,1.192-1.561,3.186.758,2.383,2.425,4.709,1.145,7.18.441.541,1.095.981,1.175,1.508.3,1.946.389,3.923.592,5.885.038.362.155.95.374,1.024,2.324.782,1.645,2.084.606,3.306.661.5,1.45.8,1.691,1.338.676,1.521,1.089,3.157,1.675,4.722.905,2.415,1.855,4.814,2.812,7.209.467,1.166.994,2.309,1.494,3.462l-.338.073L913.6,596.4l1.251,2.026,2.382,2.342.012.014,1.347,2.662c-.054.171-.108.341-.161.512-1.1.116-1.739.63-1.6,1.827-1.321.7-2.7,1.312-3.946,2.122a16.159,16.159,0,0,0-2.757,2.345C908.492,611.944,907.169,611.76,905.333,609.471Zm-15.347-28.217c-.831,1.585-.831,1.585,2.255,3.474l2-1.723c1.162-.023.6-.7.36-1.106-1.3-2.178-2.759-4.273-3.951-6.509-.744-1.4-1.53-2.151-3.269-1.456A14.241,14.241,0,0,0,889.986,581.254Zm1.716-20.771.342-.059c0-.711.024-1.423-.007-2.133a7.778,7.778,0,0,0-.233-2.268c-.121-.334-.847-.45-1.3-.665-.116.428-.429.92-.314,1.272C890.618,557.939,891.186,559.2,891.7,560.483Zm2.5,2.793-.837.568,1.265,1.876c.243-.232.734-.588.69-.675A17.566,17.566,0,0,0,894.2,563.276Zm16.314,37.495-.619.088a3.72,3.72,0,0,0,.046,1.4c.113.252.679.3,1.492.619Z" fill="#191919"/>
      <path id="Path_7034" data-name="Path 7034" d="M763.833,412.043c-1.271.255-2.577.8-3.567-.633-.726-1.051-.852-1.583.642-2.275a47.177,47.177,0,0,0,7.176-4.267c2.2-1.546,2.109-3.938,1.54-6.249a2.632,2.632,0,0,0-2.735-2.12c-.924-.006-2.015.24-2.73-.162a9.831,9.831,0,0,1-2.137-2.354,12.221,12.221,0,0,1,2.234-1.26,18.828,18.828,0,0,1,2.909-.462,26.961,26.961,0,0,0,11.526-5.1c1.186-.846,1.978-1.895,1.556-3.523a1.794,1.794,0,0,1,.24-1.475,4.993,4.993,0,0,1,2.343-1.608c1.355-.191,1.394,1.093,1.432,2.085a8.879,8.879,0,0,0,4.746,7.518c4.052,2.417,7.573,1.676,11.318-2.069.8-.8,1.414-1.994,2.877-1.083,1.3.807,1.588,1.734,1.157,3.306-1.155,4.209-.39,7.318,2.47,8.766,3.591,1.819,7.483,2.53,11.463,1.012.491-.187.979-.675,1.426-.627a26.014,26.014,0,0,1,3.212.717l-1.357,2.552c-2.98,1.353-6.088,2.338-9.351,1.607a29.063,29.063,0,0,1-8.135-2.641,7.521,7.521,0,0,1-3.631-8.226,34.772,34.772,0,0,1-5.721,1.761c-4.709.6-8.4-1.485-11.384-4.988-.647-.76-1.155-1.254-2.281-.535-2.963,1.894-6.03,3.627-9.068,5.431,2.588,4.92,2.186,9.008-1.8,12.624C768.328,409.464,765.971,410.633,763.833,412.043Z" fill="#272621"/>
      <path id="Path_7035" data-name="Path 7035" d="M885.071,485.981c.578.1,1.375,0,1.685.336.52.571,1.215,1.828.993,2.1-1.8,2.162-1.3,4.7-1.156,7.042.292,4.72.961,9.416,1.474,14.121l.693.083a18.1,18.1,0,0,0,.658-2.648,42.516,42.516,0,0,1,10.232-24.357c1.7-1.957,2.236-1.991,4.463-.375l-5.189,6.787a37.824,37.824,0,0,0-6.36,20.491c-.138,5.722-.188,11.446-.277,17.169a1.1,1.1,0,0,1,0,.393c-.369.824-.756,1.639-1.138,2.457-.828-.673-2.2-1.217-2.4-2.041-1.6-6.682-3.228-13.375-4.339-20.148a134.2,134.2,0,0,1-1.3-15.627c-.077-1.716.664-3.469,1.038-5.239l-3.445-2.963Z" fill="#27292a"/>
      <path id="Path_7036" data-name="Path 7036" d="M763.833,412.043c2.138-1.41,4.495-2.579,6.37-4.279,3.986-3.616,4.388-7.7,1.8-12.624,3.038-1.8,6.1-3.537,9.068-5.431,1.126-.719,1.634-.225,2.281.535,2.985,3.5,6.675,5.587,11.384,4.988a34.772,34.772,0,0,0,5.721-1.761,7.521,7.521,0,0,0,3.631,8.226,29.063,29.063,0,0,0,8.135,2.641c3.263.731,6.371-.254,9.351-1.607a7.108,7.108,0,0,1-7.619,3.755c-3.393-.4-6.846-.473-10.181-1.147-5.728-1.158-6.917-2.858-7.035-8.675-2.1,1.159-3.908,2.287-5.833,3.173a6.063,6.063,0,0,1-3.144.55c-2.381-.308-3.922-1.935-5.292-3.812a3.639,3.639,0,0,0-2.159-1.386c-.347-.053-.887,1.17-1.337,1.815-1.492,2.136-.878,4.541-.764,6.839a4.479,4.479,0,0,1-1.757,4.125c-.925.723-1.761,1.559-2.807,2.5l-1.244-2.025c-1.024,1.069-2.015,2.074-2.97,3.111a4.557,4.557,0,0,1-4.416,1.645C764.562,413.105,764.224,412.443,763.833,412.043Z" fill="#fbd762"/>
      <path id="Path_7037" data-name="Path 7037" d="M827.421,476.777l4.56,1.641c1.384,1.519,3.315,2.83,3.995,4.617.657,1.728.024,3.946-.046,6.066h3.036c1.017.245,2.037.475,3.049.736a23.819,23.819,0,0,1,14.932,11.447c.939,1.582,1.213,3.559,1.791,5.355q-.549,3.69-1.1,7.379c-.7.934-1.417,1.855-2.095,2.8-.99,1.385-2.312,1.726-3.517.588-1.3-1.23.462-1.818.915-2.677,2.783-2.62,2.892-5.977,2.121-9.29-1.074-4.61-4.336-7.641-8.257-10.023a16.236,16.236,0,0,0-9.808-3.07l-3.012-.012c-.515.025-1.13.241-1.526.036a7.752,7.752,0,0,1-2.341-1.741c-.188-.222.325-1.2.693-1.7a26.917,26.917,0,0,1,1.973-2.172c.993-2.07.582-3.641-1.3-4.787a15.979,15.979,0,0,0-10.849-2.365c-1.451.042-2.951-.247-3.787,1.575-.224.49-1.407.54-2.15.791l.043.026-.444-.45.048.056c-.16-1.675-.138-3.287,1.5-4.335A23.677,23.677,0,0,1,827.421,476.777Z" fill="#272621"/>
      <path id="Path_7038" data-name="Path 7038" d="M721.524,387.432a4.5,4.5,0,0,0,2.872,3.158c1.842.644.33,1.9-.025,2.948a16.254,16.254,0,0,1,1.6,3.286,4.321,4.321,0,0,1-.4,2.783c-.421.816-1.269.866-1.841-.126-.685-1.187-1.4-2.358-2.168-3.649l-1.752,1.1c1.168,1.753.949,3.507-.744,4.535-.42.255-1.874-1.193-3.1-2.028-2.438.672-4.015.216-4.461-1.546-.5-1.957.08-2.735,2.6-3.366l-1.739-3.186c-.963.924-1.786,1.62-2.5,2.418-.839.944-1.745,1.483-2.919.7-1.238-.824-.73-1.8-.075-2.715a6.313,6.313,0,0,1,1.139-1.332c1.433-1.122,2.56-2.2,2.617-4.346.051-1.911,2.08-2.39,3.486-1.089a9.142,9.142,0,0,0,1.143.781c.074-.394.166-.786.218-1.182.2-1.551,1.224-2.041,2.641-1.368.519.247,1.227.093,1.75.336a12.673,12.673,0,0,1,2.813,1.711A11.886,11.886,0,0,1,721.524,387.432Zm-5.758,2.115c.432.752.8,1.371,1.146,2,.339.616.657,1.244.989,1.876,2.3-1.43,2.26-2.378-.088-4.947Z" fill="#242424"/>
      <path id="Path_7039" data-name="Path 7039" d="M739.189,408.208a6.179,6.179,0,0,1-2.2.774,2.916,2.916,0,0,1-1.925-1.087c-.174-.224.4-1.25.852-1.689a2.276,2.276,0,0,0,.525-2.917,9.482,9.482,0,0,1,1.777-10.063,4.4,4.4,0,0,1,5.123-1.353c.665.3,1.572.931,1.653,1.51.508,3.658,3.175,5.728,5.473,8.145a3.931,3.931,0,0,1,.629,2.933c-.045.322-1.635.677-2.476.593-2.171-.218-4.333-1.24-6.843.374l3.661,2.708c.414.307,1.087.542,1.192.931a12.665,12.665,0,0,1,.192,2.583c-.678.03-1.5.321-2.007.042C742.883,410.63,741.052,409.383,739.189,408.208Zm.058-7.469.5.106,2.029-5.355-.545-.2C739.4,396.66,739.166,398.64,739.247,400.739Z" fill="#252525"/>
      <path id="Path_7040" data-name="Path 7040" d="M833.986,492.339l3.011.012c-.222.411-.444.822-.785,1.451,3.54-.016,6.748.221,9.081,2.864l1.513-1.245c3.921,2.382,7.183,5.413,8.257,10.023.771,3.313.662,6.67-2.121,9.29-.966-1.486-1.853-2.941-.037-4.5.251-.216.227-1,.062-1.415a18,18,0,0,0-5.645-7.846l-4.3,4.466a29.242,29.242,0,0,0-1.845-3.193c-1.951-2.593-4.924-2.808-7.816-3.153-.131-.015-.268.011-.4-.013-1.032-.193-2.063-.393-3.094-.592.595-1.016,1.142-2.064,1.8-3.039C832.39,494.376,833.21,493.372,833.986,492.339Z" fill="#fcd864"/>
      <path id="Path_7041" data-name="Path 7041" d="M857.639,514.018q.551-3.69,1.1-7.379a5.16,5.16,0,0,1,4.028,3.169c2.362,4.612,2.1,9.264.141,13.935-2.442,5.827-6.724,10.22-11.255,14.406-.39.36-1.155.314-1.747.456.155-.626.114-1.436.5-1.843a49.208,49.208,0,0,1,3.871-3.555c3.92-3.336,6.346-12.337,4.554-17.186A12.526,12.526,0,0,0,857.639,514.018Z" fill="#fcd864"/>
      <path id="Path_7042" data-name="Path 7042" d="M775.777,452.386l-3.026,1.761c-.267-.866-.535-1.731-.87-2.816-.531.433-.872.684-1.182.969q-5.382,4.95-10.762,9.9a4.161,4.161,0,0,1-.837.377c-.167-1.589-.32-3.041-.472-4.493.034-.224.069-.447.1-.672q.363-.651.727-1.3l-.007.013c.942-1.7,1.9-3.382,2.786-5.108.061-.119-.468-.54-.722-.82.2-.929.366-1.687,1.638-.895,3.451,2.15,4.528,1.612,5.3-2.519,1.521-.735,2.322.338,3.025,1.341.722,1.03,1.594,1.577,2.6.715,1.039-.886.712-1.987-.114-2.965-.415-.493-.755-1.048-1.13-1.576a4.771,4.771,0,0,1,3.388,7.559l.014-.063Z" fill="#fad664"/>
      <path id="Path_7043" data-name="Path 7043" d="M957,437.862c-1.924-3.469-3.686-7.04-5.808-10.382A43.91,43.91,0,0,0,936.2,413.322c-.5-.3-.971-.655-1.455-.985a.611.611,0,0,1,.011-.262l.362-.445.794-1.971,3.643,1.561,1.915,1.236,1.143.8.456.371,2.071,1.526-.018-.017c.428,1.462,1.119,2.634,2.885,2.626l.069.063c-.4,1.253.45,1.327,1.311,1.391l.021.012c.033,1.122.437,1.9,1.724,1.849l-.078.075.063-.088,1.507,2.1.361.444.814,1.151,0,0,3.158,5.178.007.016,2.787,6.339Z" fill="#1f2122"/>
      <path id="Path_7044" data-name="Path 7044" d="M912.468,409.825a55.448,55.448,0,0,0-19.4,6.216,10.881,10.881,0,0,1-1.07.434l-.99.589-10.424,7.655c-1.016-1.513-2.36.131-3.482-.362l.393-1.2-.005.006,3.967-3.617,1.547-1.169,1.648-1.174,1.185-.815a2.845,2.845,0,0,0,1.123-.089q2.565-1.439,5.061-3a5.368,5.368,0,0,0,.989-1.1l.394-.149,2.371-.4,1.2-.785c1.269-.478,2.965-.134,3.583-1.864l1.586-.507,1.991-.663.791-.131,3.179-.72,1.188-.087,2.784.377Z" fill="#1c1c1c"/>
      <path id="Path_7045" data-name="Path 7045" d="M885.071,485.981l-4.371-2.423-.452-.3-1.148-1.288-2.379-2.5-1.286-1.434-.324-.407-1.2-1.6.006.009-3.173-4.784,0,0-.768-1.21-.008-.014-2.281-4.751-.556-1.566c.1-.218.335-.494.273-.646a20.543,20.543,0,0,1-1.426-10.1l2.3,0c.267,8.266,3.749,15.244,8.662,21.653a7.072,7.072,0,0,1,.551,1.033l1.134,1.176c2.133,2.027,4.252,4.069,6.4,6.075C886.147,483.945,886.423,484.938,885.071,485.981Z" fill="#1c1c1c"/>
      <path id="Path_7046" data-name="Path 7046" d="M936.3,479.769l-.79.167a2.35,2.35,0,0,0,.013-.356c0-.129,0-.258,0-.387,1.657-.658.926-1.936.793-3.059l7.1-2.131.408-.122.576-.229a.286.286,0,0,0,.213-.132l4.16-1.84.662-.328.858-.88,1.951-1.487,3.2-3.692.351-.715,2.023-4.047c1.588-.042,2.983-.213,2.83-2.422-.024-.354.965-.778,1.485-1.17l.375.787-.127,1.191-4.218,8.739,0,.007-3.171,3.942-.367.438-1.2.918-.509.427-3.069,1.877-.81.362-.8.349-.111.108-.153-.017-6.089,1.145c-1.4-.855-2.055-.446-1.993,1.176Z" fill="#1c1c1c"/>
      <path id="Path_7047" data-name="Path 7047" d="M827.421,476.777a23.677,23.677,0,0,0-11.572.5c-1.959-.45-3.926-.871-5.874-1.364a13.107,13.107,0,0,1-1.865-.781c.274-.548.518-1.114.827-1.641,2.059-3.514,5.176-3.557,8.609-2.633A19.462,19.462,0,0,1,827.421,476.777Z" fill="#fcd864"/>
      <path id="Path_7048" data-name="Path 7048" d="M868.28,452.967l-2.3,0h0l-.012-1.6q-.369-2.373-.739-4.745l.048-1.2c.231-.269.587-.5.672-.813.442-1.6.775-3.23,1.22-4.829.5-1.806,1.084-3.59,1.632-5.384l.353-.518.066.112,1.511.848.381-.483-.756-1.258v-1.19l.757-1.24-.013.014.895-.74a13.461,13.461,0,0,1,2.091-.161,5.008,5.008,0,0,1,1.373.516q-2.447,3.99-4.891,7.98l-.227.345-.556,1.254-.245.724Z" fill="#191919"/>
      <path id="Path_7049" data-name="Path 7049" d="M803.494,418.247c-.039,2.214-.624,2.329-2.088,2.122a28.348,28.348,0,0,0-6.162.03c-.432.034-.9.865-1.171,1.417a1.772,1.772,0,0,1-2.633.9c-1.07-.54-1.014-1.5-.5-2.547.935-1.906,2.249-3.281,4.472-3.362a45.88,45.88,0,0,1,6.445.076C802.561,416.954,803.166,417.955,803.494,418.247Z" fill="#292929"/>
      <path id="Path_7050" data-name="Path 7050" d="M820.635,479.613a15.979,15.979,0,0,1,10.849,2.365c1.883,1.146,2.294,2.717,1.3,4.787a44.366,44.366,0,0,0-4.529-3,2.585,2.585,0,0,0-3.209.658,4.8,4.8,0,0,1-3.048.967c-.374.013-1.114-1.169-1.1-1.8a7.851,7.851,0,0,1,1.1-2.547Z" fill="#fcd864"/>
      <path id="Path_7051" data-name="Path 7051" d="M793.3,409.37c1.5.246,2.856.456,4.205.7a3.051,3.051,0,0,1,1.476.413,9.851,9.851,0,0,1,1.27,1.845c-.684.415-1.374,1.189-2.051,1.176a26.359,26.359,0,0,1-5.438-.664c-3.685-.853-3.58-3.257-2.375-6.241.211-.522,1.432-.944,2.117-.859.444.056.887,1.079,1.094,1.742C793.741,407.919,793.462,408.491,793.3,409.37Z" fill="#292929"/>
      <path id="Path_7052" data-name="Path 7052" d="M791.036,415.665a63.273,63.273,0,0,1-3.848,6.5c-.371.5-1.949.09-2.973.1a13.584,13.584,0,0,1,.7-2.3c.642-1.275,1.54-2.431,2.093-3.738a2.934,2.934,0,0,0-.389-1.927c-.31-.7-1.022-1.272-1.169-1.981a2.327,2.327,0,0,1,.592-1.859c.355-.338,1.562-.454,1.729-.212C788.9,411.876,789.843,413.631,791.036,415.665Z" fill="#292929"/>
      <path id="Path_7053" data-name="Path 7053" d="M912.079,407.259l-2.784-.377a49.288,49.288,0,0,1,15.842-.92,29.917,29.917,0,0,1,14.419,5.258l-3.643-1.561c-2.683.68-4.871-.6-7.122-1.736a19.715,19.715,0,0,0-2.788-.937q-.008,1.273-.013,2.547l-3.18-.293,1.4-.678-1.067-2.2-1.624,1.136a5.271,5.271,0,0,0-2.755-.6C916.535,406.972,914.308,407.131,912.079,407.259Z" fill="#27292a"/>
      <path id="Path_7054" data-name="Path 7054" d="M886.637,582.108c1.392.288,1.791,1.074,1.4,2.451a37.125,37.125,0,0,0-.636,3.735l2.577-1.438q-.218,2-.434,3.992c-1.334-.551-2.247-.026-2.45,1.289-.382,2.467-.574,4.964-.845,7.449l-.746,0q.8-7.956,1.6-15.912l.505.068Z" fill="#232526"/>
      <path id="Path_7055" data-name="Path 7055" d="M838.966,489.1H835.93c.07-2.12.7-4.338.046-6.066-.68-1.787-2.611-3.1-3.995-4.617a6.54,6.54,0,0,1,5.436,3.424C838.725,484.057,839.791,486.4,838.966,489.1Z" fill="#fad664"/>
      <path id="Path_7056" data-name="Path 7056" d="M962.5,457.726l-.375-.787c0-.263,0-.527-.005-.79l.4-1.992q0-.794.008-1.587-.2-2.979-.395-5.96l-.012-.791-.784-3.977-1.594-5.558-2.787-6.339a32.9,32.9,0,0,1,6.212,19.209C963.153,452.013,962.739,454.869,962.5,457.726Z" fill="#27292a"/>
      <path id="Path_7057" data-name="Path 7057" d="M728.619,429.212c-.7,1.165-1.4,2.33-2,3.321l-9.25-2.549A26.173,26.173,0,0,1,728.619,429.212Z" fill="#fad664"/>
      <path id="Path_7058" data-name="Path 7058" d="M885.506,599.589l.746,0h2.3l-.172,2.375-.135.81-.235,2.763-.569.021c-.374.37-.748.738-1.119,1.11-.421.422-.839.847-1.258,1.27l-.372-.787.072-.8q.171-1.185.344-2.371l.051-.808.322-2.775Z" fill="#1c1c1c"/>
      <path id="Path_7059" data-name="Path 7059" d="M900.956,528.863q-.2.593-.4,1.186l-.807,3.181c0,.132,0,.265,0,.4l-.39.8c-.41,2.715-.807,5.433-1.256,8.142-.039.231-.433.4-.662.6.477-6.237,1.174-12.418,4.532-17.929a2.327,2.327,0,0,0,.152-.742c.141.453.516,1,.381,1.343A30.258,30.258,0,0,1,900.956,528.863Z" fill="#232526"/>
      <path id="Path_7060" data-name="Path 7060" d="M865.228,446.622q.37,2.373.739,4.745.006.8.012,1.6h0a20.543,20.543,0,0,0,1.426,10.1c.062.152-.175.428-.273.646-.648-2.3-1.642-4.577-1.86-6.921C864.96,453.429,865.215,450.014,865.228,446.622Z" fill="#27292a"/>
      <path id="Path_7061" data-name="Path 7061" d="M885.069,607.934c.419-.423.837-.848,1.258-1.27.371-.372.745-.74,1.119-1.11.12.26.241.519.362.779l-.262,2.379q-.266.8-.53,1.6l-2.339-.389a1.955,1.955,0,0,0-.334-.005l.035-1.18Z" fill="#191919"/>
      <path id="Path_7062" data-name="Path 7062" d="M868.8,434.4c-.548,1.794-1.129,3.578-1.632,5.384-.445,1.6-.778,3.229-1.22,4.829-.085.309-.441.544-.672.813C864.882,441.249,866.977,437.868,868.8,434.4Z" fill="#27292a"/>
      <path id="Path_7063" data-name="Path 7063" d="M941.876,477.212l6.089-1.145-5.672,2.3-.894.351-.013-.011-5.089,1.067,3.586-1.381Z" fill="#27292a"/>
      <path id="Path_7064" data-name="Path 7064" d="M875.46,430.3a5.008,5.008,0,0,0-1.373-.516,13.461,13.461,0,0,0-2.091.161c-.017-.136-.033-.271-.049-.407q.771-1.008,1.54-2.017l1.221.013,1.571,1.582Z" fill="#1f2122"/>
      <path id="Path_7065" data-name="Path 7065" d="M885.6,569.379c.216.408.724,1,.6,1.194a8.026,8.026,0,0,0-1.01,6.159,2.683,2.683,0,0,1-.5.2c-.712-2.266-1.472-4.523.875-6.4C885.759,570.376,885.6,569.774,885.6,569.379Z" fill="#232526"/>
      <path id="Path_7066" data-name="Path 7066" d="M958.158,467.656l4.218-8.739Z" fill="#27292a"/>
      <path id="Path_7067" data-name="Path 7067" d="M874.708,427.534l-1.221-.013,4.01-4.368-.393,1.2-.255,2.15-.324-.366Z" fill="#27292a"/>
      <path id="Path_7068" data-name="Path 7068" d="M893.012,412.193a5.368,5.368,0,0,1-.989,1.1q-2.49,1.566-5.061,3a2.845,2.845,0,0,1-1.123.089Z" fill="#27292a"/>
      <path id="Path_7069" data-name="Path 7069" d="M701.984,433.924l-.691,1.923-4.178-1.361Z" fill="#fad664"/>
      <path id="Path_7070" data-name="Path 7070" d="M956.956,429.929l-3.158-5.178Z" fill="#27292a"/>
      <path id="Path_7071" data-name="Path 7071" d="M900.56,408.99c-.618,1.73-2.314,1.386-3.583,1.864l-1.095.1-.1-.1Z" fill="#27292a"/>
      <path id="Path_7072" data-name="Path 7072" d="M954.983,471.605l3.171-3.942Z" fill="#27292a"/>
      <path id="Path_7073" data-name="Path 7073" d="M881.459,419.542l-3.967,3.617Z" fill="#27292a"/>
      <path id="Path_7074" data-name="Path 7074" d="M897.429,544.75c.187.049.435.039.549.158.389.406-.12,3.742-.613,4.213Z" fill="#232526"/>
      <path id="Path_7075" data-name="Path 7075" d="M870.743,471.25l3.173,4.784Z" fill="#27292a"/>
      <path id="Path_7076" data-name="Path 7076" d="M867.688,465.278l2.281,4.751Z" fill="#27292a"/>
      <path id="Path_7077" data-name="Path 7077" d="M884.849,578.118c2.045.681,1.248,2.637,1.791,3.992Z" fill="#232526"/>
      <path id="Path_7078" data-name="Path 7078" d="M948.008,417.758c-1.766.008-2.457-1.164-2.885-2.626Z" fill="#27292a"/>
      <path id="Path_7079" data-name="Path 7079" d="M884.343,609.913a1.955,1.955,0,0,1,.334.005l-.753,3.975Q884.134,611.9,884.343,609.913Z" fill="#232526"/>
      <path id="Path_7080" data-name="Path 7080" d="M908.107,406.969l-3.179.72Z" fill="#27292a"/>
      <path id="Path_7081" data-name="Path 7081" d="M949.84,475.265l3.069-1.877Z" fill="#27292a"/>
      <path id="Path_7082" data-name="Path 7082" d="M885.486,600.392q-.16,1.387-.322,2.775Q885.324,601.78,885.486,600.392Z" fill="#232526"/>
      <path id="Path_7083" data-name="Path 7083" d="M885.113,603.975q-.172,1.187-.344,2.371Q884.94,605.161,885.113,603.975Z" fill="#232526"/>
      <path id="Path_7084" data-name="Path 7084" d="M951.133,421.073c-1.287.049-1.691-.727-1.724-1.849Z" fill="#27292a"/>
      <path id="Path_7085" data-name="Path 7085" d="M895.777,411.639l-2.371.4,2.381-1.191.1.1C895.846,411.181,895.812,411.41,895.777,411.639Z" fill="#27292a"/>
      <path id="Path_7086" data-name="Path 7086" d="M945.141,415.149l-2.071-1.526Z" fill="#27292a"/>
      <path id="Path_7087" data-name="Path 7087" d="M952.625,423.159l-1.507-2.1Z" fill="#27292a"/>
      <path id="Path_7088" data-name="Path 7088" d="M904.137,407.82l-1.991.663Z" fill="#27292a"/>
      <path id="Path_7089" data-name="Path 7089" d="M870.356,431.913V433.1l-1.136.893-.066-.112Z" fill="#27292a"/>
      <path id="Path_7090" data-name="Path 7090" d="M883.888,614.693l-.315,1.587Z" fill="#232526"/>
      <path id="Path_7091" data-name="Path 7091" d="M949.388,419.212c-.861-.064-1.711-.138-1.311-1.391Z" fill="#27292a"/>
      <path id="Path_7092" data-name="Path 7092" d="M884.654,417.2l-1.648,1.174Z" fill="#27292a"/>
      <path id="Path_7093" data-name="Path 7093" d="M873.91,476.025l1.2,1.6Q874.511,476.827,873.91,476.025Z" fill="#27292a"/>
      <path id="Path_7094" data-name="Path 7094" d="M875.435,478.035l1.286,1.434Z" fill="#27292a"/>
      <path id="Path_7095" data-name="Path 7095" d="M885.069,607.934l-.691.8.319-1.586Z" fill="#232526"/>
      <path id="Path_7096" data-name="Path 7096" d="M879.1,481.971l1.148,1.288Z" fill="#27292a"/>
      <path id="Path_7097" data-name="Path 7097" d="M953.418,472.961l1.2-.918Z" fill="#27292a"/>
      <path id="Path_7098" data-name="Path 7098" d="M953.8,424.754l-.814-1.151Z" fill="#27292a"/>
      <path id="Path_7099" data-name="Path 7099" d="M871.114,430.671l-.757,1.24Z" fill="#27292a"/>
      <path id="Path_7100" data-name="Path 7100" d="M871.947,429.538c.016.136.032.271.049.407l-.895.74Z" fill="#27292a"/>
      <path id="Path_7101" data-name="Path 7101" d="M869.977,470.043l.768,1.21Z" fill="#27292a"/>
      <path id="Path_7102" data-name="Path 7102" d="M942.614,413.252l-1.143-.8Z" fill="#27292a"/>
      <path id="Path_7103" data-name="Path 7103" d="M948.229,475.976l.8-.349Z" fill="#27292a"/>
      <path id="Path_7104" data-name="Path 7104" d="M941.4,478.713l.894-.351Z" fill="#bbe8fd"/>
      <path id="Path_7105" data-name="Path 7105" d="M900.811,554.791c.312-.636,1.051-1.464.866-1.877-1.309-2.928-.523-5.991-.8-8.973l.236-1.982q.079-.8.16-1.595l.205-.791.168-2,.246-1.181,1.821-6.744,1.92-3.095c10.857,3.239,21.016,2.581,30.613-3.338a10.508,10.508,0,0,1-1.115,1.994c-2.707,3.059-5.225,6.44-9.592,7.254-1.668.311-3.411.2-5.1.4-2.606.317-5.21.682-7.786,1.173a2.044,2.044,0,0,0-1.317,1.318c-1.192,6.8-2.85,13.546-2.469,20.536.188,3.458-.062,6.991.571,10.361,1.06,5.647,4.518,10.231,7.878,14.706a126.175,126.175,0,0,0,22.444,23.37c1.439,1.14,3.583,1.433,5.441,1.985a20.313,20.313,0,0,0,3.1.447c-2.112.648-4.2,1.731-6.343,1.838a30.752,30.752,0,0,1-9.252-.76c-5.185-1.306-8.565-4.453-11.827-8.129-1.253-1.412-2.212-1.153-3.629,1.07l-.012-.014-2.382-2.342L913.6,596.4a8.3,8.3,0,0,0-.523-2.054c-1.671-3.038-3.613-5.944-5.077-9.074a44.8,44.8,0,0,1-2.194-7.15c-1.9-6.909-3.808-13.818-5.594-20.757C900.019,556.609,900.594,555.654,900.811,554.791Z" fill="#bbe8fd"/>
      <path id="Path_7106" data-name="Path 7106" d="M954.589,593.425c-2.55.028-5.1.147-7.647.043a15.659,15.659,0,0,1-3.332-.84,15.116,15.116,0,0,1-3.074-.923,2.627,2.627,0,0,1-1.352-1.732,5.484,5.484,0,0,1,3.964-5c4.538-.985,8.794-.767,12.041,3.224a4.993,4.993,0,0,0,1.423.855q.547.413,1.092.826a4.515,4.515,0,0,1-.409,1.739,11.586,11.586,0,0,1-1.911,1.655Zm-8.476-5.292.523,1.855h5.855C950.425,588.3,948.676,587.1,946.113,588.133Z" fill="#252525"/>
      <path id="Path_7107" data-name="Path 7107" d="M941.8,576.02c.976.746,1.128,1.56.2,2.464-.047.046-.089.1-.138.143-1.616,1.5-2.993,3.592-5.651,2.922-2.742-.69-3.527-3.008-3.851-5.422-.648-4.828-1.311-9.681-.236-14.535.286-1.29.768-2.573,2.429-2.679,1.344-.086,2.527,1.147,1.984,2.253-1.772,3.609-.928,7.364-.764,11.07.078,1.779.481,3.543.776,5.587l3.708-2.318Z" fill="#272727"/>
      <path id="Path_7108" data-name="Path 7108" d="M925.173,552.191c1.314.9,1.256,1.719-.13,2.471-3.459,1.878-6.9,3.8-10.4,5.584a2.3,2.3,0,0,1-1.962-.312,1.728,1.728,0,0,1-.219-1.663,5.326,5.326,0,0,1,1.874-2.1c2.58-1.4,5.238-2.656,7.919-3.85a9.972,9.972,0,0,1,2.583-.411Z" fill="#292929"/>
      <path id="Path_7109" data-name="Path 7109" d="M952.455,550.74c-.272.163-.759.694-1.263.711a44.282,44.282,0,0,1-6.689-.083,6.448,6.448,0,0,1-3.227-1.613,2.4,2.4,0,0,1-.031-2.236c.23-.414,1.3-.546,1.976-.493,1.786.142,3.557.633,5.338.651C950.984,547.7,952.371,548.461,952.455,550.74Z" fill="#292929"/>
      <path id="Path_7110" data-name="Path 7110" d="M921.9,562.086c1.244,1.133,2.814,2,2.717,2.6a4.444,4.444,0,0,1-2.127,2.994c-1.075.481-2.432-.672-2.352-1.888C920.209,564.654,921.144,563.577,921.9,562.086Z" fill="#191919"/>
      <path id="Path_7111" data-name="Path 7111" d="M946.523,555.192c.93.986,2.015,1.9,1.91,2.065a16.331,16.331,0,0,1-2.206,2.448c-.46-.623-1.326-1.279-1.279-1.862C945.01,557.071,945.785,556.355,946.523,555.192Z" fill="#27292a"/>
      <path id="Path_7112" data-name="Path 7112" d="M964.124,601.519c-.021-1.919-1.337-1.985-2.745-1.921a15.513,15.513,0,0,1,2.7.247C964.219,599.88,964.114,600.935,964.124,601.519Z" fill="#27292a"/>
      <path id="Path_7113" data-name="Path 7113" d="M941.8,576.02l-1.539-.515C941.171,574.476,941.544,575.07,941.8,576.02Z" fill="#fdfdfd"/>
      <path id="Path_7114" data-name="Path 7114" d="M954.589,593.425l.795-.155c-.11.2-.219.395-.328.593Z" fill="#fdfdfd"/>
      <path id="Path_7115" data-name="Path 7115" d="M957.7,589.876q-.546-.414-1.092-.826Q957.156,589.464,957.7,589.876Z" fill="#fdfdfd"/>
      <path id="Path_7116" data-name="Path 7116" d="M943.17,612.2l1.479-.268Z" fill="#fdfdfd"/>
      <path id="Path_7117" data-name="Path 7117" d="M939.5,612.335l1.17.023Z" fill="#fdfdfd"/>
      <path id="Path_7118" data-name="Path 7118" d="M936.222,523.248l.462-.483Z" fill="#bbe8fd"/>
      <path id="Path_7119" data-name="Path 7119" d="M925.173,552.191l-.336-.28Z" fill="#fdfdfd"/>
      <path id="Path_7120" data-name="Path 7120" d="M949.077,606.359l-.441.327Z" fill="#fdfdfd"/>
      <path id="Path_7121" data-name="Path 7121" d="M888.557,599.585h-2.3c.271-2.485.463-4.982.845-7.449.2-1.315,1.116-1.84,2.45-1.289l.072,1.176-.229.8Q888.973,596.2,888.557,599.585Z" fill="#191919"/>
      <path id="Path_7122" data-name="Path 7122" d="M892.194,586.246l1.615.031Z" fill="#232526"/>
      <path id="Path_7123" data-name="Path 7123" d="M887.016,610.307q.264-.8.53-1.6l-.2,1.607A2.218,2.218,0,0,1,887.016,610.307Z" fill="#232526"/>
      <path id="Path_7124" data-name="Path 7124" d="M887.808,606.333c-.121-.26-.242-.519-.362-.779l.569-.021Z" fill="#232526"/>
      <path id="Path_7125" data-name="Path 7125" d="M889.39,592.821l.229-.8Z" fill="#232526"/>
      <path id="Path_7126" data-name="Path 7126" d="M886.986,613.874l.111-.789Z" fill="#232526"/>
      <path id="Path_7127" data-name="Path 7127" d="M888.25,602.77l.135-.81Z" fill="#232526"/>
      <path id="Path_7128" data-name="Path 7128" d="M910.124,618.714c.989-1.171,1.752-2.767,3.008-3.435,4.231-2.251,8.637-4.171,12.976-6.218l1.794,1.006Z" fill="#b8e5f9"/>
      <path id="Path_7129" data-name="Path 7129" d="M909.4,619.212l.738-.515Z" fill="#b8e5f9"/>
      <path id="Path_7130" data-name="Path 7130" d="M908.922,619.57l.507-.392Z" fill="#b8e5f9"/>
      <path id="Path_7131" data-name="Path 7131" d="M916.831,605.784c-.137-1.2.506-1.711,1.6-1.827Z" fill="#232526"/>
      <path id="Path_7132" data-name="Path 7132" d="M898.173,586.852c1.46-.266,1.46-.266,1.375,2.264l2.086-2.327c.885,1.219.312,1.878-.644,2.37-.685.352-1.419.609-2.131.908Z" fill="#232526"/>
      <path id="Path_7133" data-name="Path 7133" d="M898.817,592.818c.879.649,1.372,1.31.063,2.027Z" fill="#232526"/>
      <path id="Path_7134" data-name="Path 7134" d="M901.519,610.7q.119.6.238,1.2Q901.638,611.3,901.519,610.7Z" fill="#232526"/>
      <path id="Path_7135" data-name="Path 7135" d="M900.379,603.945l.209.794Z" fill="#232526"/>
      <path id="Path_7136" data-name="Path 7136" d="M899.249,598.381l.109.808Z" fill="#232526"/>
      <path id="Path_7137" data-name="Path 7137" d="M899.953,602.356l.271.783Z" fill="#232526"/>
      <path id="Path_7138" data-name="Path 7138" d="M901.058,607.129l.463.184-.42.229Z" fill="#232526"/>
      <path id="Path_7139" data-name="Path 7139" d="M733.68,475.642a7.579,7.579,0,0,1-4.242,6.061c-2.635,1.289-4.82.306-6.82-1.458a1.711,1.711,0,0,1-.151-.129c-1.2-1.326-3.675-2.136-2.792-4.417,1.1-2.847,2.527-5.726,6.252-6,.722-.053,1.447-.1,2.171-.109C731.714,469.538,733.714,471.525,733.68,475.642Zm-10.465.859a11.493,11.493,0,0,1,1.668,1.4,2.586,2.586,0,0,0,3.539.687,4.167,4.167,0,0,0,2-4.208,1.8,1.8,0,0,0-2.052-1.649C725.8,472.765,723.623,473.221,723.215,476.5Z" fill="#28251c"/>
      <path id="Path_7140" data-name="Path 7140" d="M720.823,460.589c-.348.53-.646,1.339-1.225,1.714-.283.183-1.2-.32-1.64-.719-2.051-1.855-4.091-3.731-6-5.727a2.116,2.116,0,0,1-.2-2.015c.323-.5,1.643-1.017,1.89-.8,2.393,2.1,4.658,4.352,6.937,6.582C720.739,459.777,720.713,460.115,720.823,460.589Z" fill="#28251c"/>
      <path id="Path_7141" data-name="Path 7141" d="M701.47,571.817c.066-5.449.093-10.9.21-16.346q.2-9.36.538-18.716c.1-2.884.327-5.764.5-8.645.078,4.071.263,8.143.21,12.212q-.159,12.266-.559,24.527C702.288,567.179,701.78,569.495,701.47,571.817Z" fill="#f7f4ed"/>
      <path id="Path_7142" data-name="Path 7142" d="M727.166,459.415c-1.5-.271-2.5-1.452-2.2-2.646.477-1.922,4.731-3.741,6.347-2.613.414.29.77,1.513.6,1.657C730.4,457.1,728.766,458.234,727.166,459.415Z" fill="#28251c"/>
      <path id="Path_7143" data-name="Path 7143" d="M727.644,463.955c-.069-2.384.969-4.037,2.154-3.751a3.468,3.468,0,0,1,2.189,1.768c.423,1.127-1.19,3.048-2.227,2.873A8.686,8.686,0,0,1,727.644,463.955Z" fill="#191919"/>
      <path id="Path_7144" data-name="Path 7144" d="M721.725,465.941c.2,1.557-.29,2.554-1.963,2.513-1.587-.039-1.96-1.105-2-2.474-.036-1.17.167-2.273,1.541-2.223C720.579,463.8,722.194,463.889,721.725,465.941Z" fill="#191919"/>
      <path id="Path_7145" data-name="Path 7145" d="M758.318,438.684c.532-.635,1.034-1.3,1.6-1.9a3.518,3.518,0,0,0,1.133-3.674l2.819-1.593-.022-.024a9.988,9.988,0,0,1-.928,2.7c-1.326,1.864-2.846,3.589-4.477,5.6Z" fill="#f7f4ed"/>
      <path id="Path_7146" data-name="Path 7146" d="M708.674,574.425l1.785,2.619-.332.608-3.642-1.057Z" fill="#fafafa"/>
      <path id="Path_7147" data-name="Path 7147" d="M701.444,513.484c-1.918-.564-1.056-2.076-1.117-3.274.312-.2.625-.408,1.117-.731Z" fill="#fafafa"/>
      <path id="Path_7148" data-name="Path 7148" d="M735.3,569.011l3.963,2.334Z" fill="#f7f4ed"/>
      <path id="Path_7149" data-name="Path 7149" d="M761.069,433.129l-.443-.4q.077-.45.152-.9l.291.026Z" fill="#f7f4ed"/>
      <path id="Path_7150" data-name="Path 7150" d="M740.04,571.733l.809.422Z" fill="#f7f4ed"/>
      <path id="Path_7151" data-name="Path 7151" d="M739.246,571.332l.812.413Z" fill="#f7f4ed"/>
      <path id="Path_7152" data-name="Path 7152" d="M763.874,431.521a.692.692,0,0,1,.076-.173c.02-.023.085-.008.129-.011l-.227.16Z" fill="#f7f4ed"/>
      <path id="Path_7153" data-name="Path 7153" d="M740.823,572.138l.529.38Z" fill="#f7f4ed"/>
      <path id="Path_7154" data-name="Path 7154" d="M780.218,470.261a3.46,3.46,0,0,1,2.313-4.492c2.051-.665,5.122.108,6.154,1.55,1.379,1.927,1.23,5.868-.295,7.812a6.117,6.117,0,0,1-6.412,1.875,3.525,3.525,0,0,1-1.822-5.455c2.7-1.329,2.092,1.625,3.1,2.463.557-.124,1.262-.069,1.532-.385a5.223,5.223,0,0,0,1.331-2.373c.1-.668-.361-1.9-.844-2.059-.649-.214-1.55.4-2.36.588C782.029,469.989,781.119,470.106,780.218,470.261Z" fill="#28251c"/>
      <path id="Path_7155" data-name="Path 7155" d="M780.218,470.261c.9-.155,1.811-.272,2.7-.476.81-.185,1.711-.8,2.36-.588.483.159.944,1.391.844,2.059a5.223,5.223,0,0,1-1.331,2.373c-.27.316-.975.261-1.532.385-1.012-.838-.409-3.792-3.1-2.463Z" fill="#fbd762"/>
      <path id="Path_7156" data-name="Path 7156" d="M789.68,462.075c-2.008-.521-3.245-1.154-2.751-2.811.237-.8,1.007-1.966,1.591-2,.885-.051,2.64.888,2.593,1.152A17.1,17.1,0,0,1,789.68,462.075Z" fill="#191919"/>
      <path id="Path_7157" data-name="Path 7157" d="M933.366,420.366a35.9,35.9,0,0,1,11.757,10.52c2.59,3.5,4.972,7.154,7.552,10.661,3.43,4.661,2.63,9.529.987,14.514-1.367,4.149-4.777,5.543-8.493,6.917-9.311,3.444-18.987,5.386-28.634,7.495a51.031,51.031,0,0,0-5.2,1.722c-1.009.337-2.015,1.09-2.952-.278-.142-.207-1.314-.017-1.729.328a4.025,4.025,0,0,1-4.083.615A25.094,25.094,0,0,1,888.82,462.7a34.319,34.319,0,0,1-4.7-8.8c-.846-2.609-.212-5.661-.736-8.421-.676-3.565.84-6.258,2.71-8.911,3.039-4.308,6.141-8.572,9.216-12.855.154-.214.253-.524.46-.635,4.777-2.564,8.962-6.538,15.052-5.915a40.372,40.372,0,0,0,7.934-.012c3.728-.359,6.849.95,9.857,2.866.556.354,1.172.615,1.727.971C931.508,421.736,932.551,421.823,933.366,420.366Zm-8.637,32.942a6.671,6.671,0,0,0,5.215-2.164c2.294-2.193,3.223-4.981,3.664-8.078.419-2.935-.438-5.347-3.178-6.176a31,31,0,0,0-7.718-1.212c-2.3-.089-7.4,5.1-7.722,7.415-.028.2-.015.4-.025.594C914.691,449.19,918.686,453.17,924.729,453.308Zm-19.849-10.5.463-.053c0-1.383-.073-2.772.022-4.149.081-1.164-.432-1.958-1.477-1.86a3.237,3.237,0,0,0-2.045,1.355,4.141,4.141,0,0,0-.382,2.291c.084,3.151.092,6.317.42,9.446.319,3.045.981,6.054,1.517,9.075.239,1.351.967,1.544,2.125.892a2.362,2.362,0,0,0,1.313-2.73C906.134,452.331,905.524,447.569,904.88,442.813Zm-14.592,2.857.311-.056c0-.792-.028-1.585.006-2.375.048-1.1-.167-2.107-1.482-2.094-1.421.014-1.837,1.005-1.75,2.309.071,1.052-.033,2.125.124,3.16.782,5.165,1.586,10.328,2.5,15.471.1.592.934,1.055,1.428,1.577a7.633,7.633,0,0,0,1.333-1.756,3.889,3.889,0,0,0-.052-1.89C891.914,455.231,891.1,450.451,890.288,445.67Z" fill="#fdfdfd"/>
      <path id="Path_7158" data-name="Path 7158" d="M936.309,476.134c.133,1.123.864,2.4-.793,3.059-1.391-1.17-2.647-.9-3.584.78l-.774-.006-.782-1.619-.562.076-.264,1.554c-1.8-.009-3.61,0-5.414-.032-1.444-.028-2.888-.15-4.33-.129-.2,0-.391.586-.586.9l-1.2.018-5.055-1.153-.057.419c-.489-.535-.979-1.069-1.62-1.769-.984,1.949-2.542,2.185-3.959,1.511-.557-.265-.536-1.746-.779-2.673l3.543.157q.332.35.662.7l.53-.655,4.776-.029a2.744,2.744,0,0,0,.88.338c3.116.023,6.232.028,9.348-.015.3,0,.6-.365.9-.56l1.555.072,1.227-.043,2.38-.187,1.2-.217Z" fill="#191919"/>
      <path id="Path_7159" data-name="Path 7159" d="M912.079,407.259c2.229-.128,4.456-.287,6.687-.367a5.271,5.271,0,0,1,2.755.6l1.624-1.136,1.067,2.2-1.4.678h-2.4l-2,.108-.757.088-.83-.011-4.356.4Z" fill="#191919"/>
      <path id="Path_7160" data-name="Path 7160" d="M925.99,409.533q.006-1.273.013-2.547a19.715,19.715,0,0,1,2.788.937c2.251,1.135,4.439,2.416,7.122,1.736l-.794,1.971-.362.445a.611.611,0,0,0-.011.262Z" fill="#191919"/>
      <path id="Path_7161" data-name="Path 7161" d="M962.123,456.149c0,.263,0,.527.005.79-.52.392-1.509.816-1.485,1.17.153,2.209-1.242,2.38-2.83,2.422q.654-1.988,1.307-3.973l.27-2.388.075-1.994,3.07.394q0,.793-.007,1.588c-.386.234-1.1.485-1.088.7C961.464,455.3,961.872,455.719,962.123,456.149Z" fill="#191919"/>
      <path id="Path_7162" data-name="Path 7162" d="M959.75,436.284l1.594,5.558c-.8.741-.943,2.309-2.558,2-.017-.3-.035-.6-.051-.9l-.369-1.12-.237-1.163-.605-1.616L957,437.862Z" fill="#191919"/>
      <path id="Path_7163" data-name="Path 7163" d="M906.549,477.07c.243.927.222,2.408.779,2.673,1.417.674,2.975.438,3.959-1.511.641.7,1.131,1.234,1.62,1.769l.057-.419,5.055,1.153c-3.6.007-7.2.021-10.8.021-1.615,0-1.886-1.227-2-2.413C905.145,477.553,905.337,476.685,906.549,477.07Z" fill="#27292a"/>
      <path id="Path_7164" data-name="Path 7164" d="M962.535,452.57l-3.07-.394-.1-1.2-.251-1.6q.045-.789.088-1.576l2.933-1.2Q962.338,449.59,962.535,452.57Z" fill="#1c1c1c"/>
      <path id="Path_7165" data-name="Path 7165" d="M919.22,480.717c.2-.314.386-.9.586-.9,1.442-.021,2.886.1,4.33.129,1.8.035,3.609.023,5.414.032l1.608-.011.774.006.79.376Z" fill="#27292a"/>
      <path id="Path_7166" data-name="Path 7166" d="M874.708,427.534l1.817-1.393.324.366.255-2.15c1.122.493,2.466-1.151,3.482.362l-1.632,1.593-1.077,1.165-.046.039-.343.354-1.209,1.246Z" fill="#191919"/>
      <path id="Path_7167" data-name="Path 7167" d="M958.786,443.847c1.615.3,1.762-1.264,2.558-2q.391,1.989.784,3.977l-3,.394Z" fill="#1c1c1c"/>
      <path id="Path_7168" data-name="Path 7168" d="M927.189,477.006c-.3.195-.6.556-.9.56-3.116.043-6.232.038-9.348.015a2.744,2.744,0,0,1-.88-.338Z" fill="#27292a"/>
      <path id="Path_7169" data-name="Path 7169" d="M932.722,480.349l-.79-.376c.937-1.677,2.193-1.95,3.584-.78,0,.129,0,.258,0,.387l-1.6.729Z" fill="#1f2122"/>
      <path id="Path_7170" data-name="Path 7170" d="M959.125,446.213l3-.394c0,.264.008.527.012.791l-2.933,1.2Z" fill="#191919"/>
      <path id="Path_7171" data-name="Path 7171" d="M959.39,454.17l-.27,2.388Z" fill="#27292a"/>
      <path id="Path_7172" data-name="Path 7172" d="M952.236,468.985l-1.951,1.487Z" fill="#27292a"/>
      <path id="Path_7173" data-name="Path 7173" d="M918.411,409.347l2-.108Z" fill="#27292a"/>
      <path id="Path_7174" data-name="Path 7174" d="M911.284,477.272l-.53.655q-.33-.351-.662-.7Z" fill="#27292a"/>
      <path id="Path_7175" data-name="Path 7175" d="M959.119,449.381l.251,1.6Q959.244,450.179,959.119,449.381Z" fill="#27292a"/>
      <path id="Path_7176" data-name="Path 7176" d="M933.924,480.309l1.6-.729a2.35,2.35,0,0,1-.013.356Z" fill="#27292a"/>
      <path id="Path_7177" data-name="Path 7177" d="M957.524,439.047l.605,1.616Z" fill="#27292a"/>
      <path id="Path_7178" data-name="Path 7178" d="M877.877,427.477l1.077-1.165Z" fill="#27292a"/>
      <path id="Path_7179" data-name="Path 7179" d="M878.627,476.829l-1.134-1.176Z" fill="#1f2122"/>
      <path id="Path_7180" data-name="Path 7180" d="M933.547,476.631l-1.2.217Z" fill="#27292a"/>
      <path id="Path_7181" data-name="Path 7181" d="M929.971,477.035l-1.227.043Z" fill="#27292a"/>
      <path id="Path_7182" data-name="Path 7182" d="M891.01,417.064l.99-.588Z" fill="#1f2122"/>
      <path id="Path_7183" data-name="Path 7183" d="M958.366,441.826l.369,1.12C958.611,442.573,958.489,442.2,958.366,441.826Z" fill="#27292a"/>
      <path id="Path_7184" data-name="Path 7184" d="M916.824,409.424l.83.011Z" fill="#27292a"/>
      <path id="Path_7185" data-name="Path 7185" d="M869.541,440.6l.245-.724Z" fill="#27292a"/>
      <path id="Path_7186" data-name="Path 7186" d="M955.79,464.578l-.351.715Z" fill="#27292a"/>
      <path id="Path_7187" data-name="Path 7187" d="M949.427,471.352l-.662.328Z" fill="#1f2122"/>
      <path id="Path_7188" data-name="Path 7188" d="M870.342,438.625l.227-.345Z" fill="#27292a"/>
      <path id="Path_7189" data-name="Path 7189" d="M877.488,427.87l.343-.354Z" fill="#27292a"/>
      <path id="Path_7190" data-name="Path 7190" d="M944.6,473.52a.286.286,0,0,1-.213.132Z" fill="#27292a"/>
      <path id="Path_7191" data-name="Path 7191" d="M943.816,473.881l-.408.122Z" fill="#27292a"/>
      <path id="Path_7192" data-name="Path 7192" d="M761.515,450.2c.254.28.783.7.722.82-.882,1.726-1.844,3.412-2.786,5.108Z" fill="#fafafa"/>
      <path id="Path_7193" data-name="Path 7193" d="M759.458,456.112q-.363.652-.727,1.3Q759.094,456.764,759.458,456.112Z" fill="#fafafa"/>
      <path id="Path_7194" data-name="Path 7194" d="M764.016,445.274l-.377.193c-.008-.215-.015-.431-.023-.647Z" fill="#fdfdfd"/>
      <path id="Path_7195" data-name="Path 7195" d="M814.3,481.555l.444.45Z" fill="#fdfdfd"/>
      <path id="Path_7196" data-name="Path 7196" d="M775.777,452.386l.464-.592Z" fill="#fdfdfd"/>
      <path id="Path_7197" data-name="Path 7197" d="M900.811,554.791c-.217.863-.792,1.818-.6,2.575,1.786,6.939,3.691,13.848,5.594,20.757a44.8,44.8,0,0,0,2.194,7.15c1.464,3.13,3.406,6.036,5.077,9.074a8.3,8.3,0,0,1,.523,2.054l-3.126-2.717.338-.073c-.5-1.153-1.027-2.3-1.494-3.462-.957-2.395-1.907-4.794-2.812-7.209-.586-1.565-1-3.2-1.675-4.722-.241-.541-1.03-.838-1.691-1.338,1.039-1.222,1.718-2.524-.606-3.306-.219-.074-.336-.662-.374-1.024-.2-1.962-.3-3.939-.592-5.885-.08-.527-.734-.967-1.175-1.508,1.28-2.471-.387-4.8-1.145-7.18C898.615,555.983,898.89,555.1,900.811,554.791Z" fill="#232526"/>
      <path id="Path_7198" data-name="Path 7198" d="M889.986,581.254a14.241,14.241,0,0,1-2.605-7.32c1.739-.7,2.525.06,3.269,1.456,1.192,2.236,2.646,4.331,3.951,6.509.244.406.8,1.083-.36,1.106H890.56Z" fill="#fafafa"/>
      <path id="Path_7199" data-name="Path 7199" d="M891.7,560.483c-.516-1.281-1.084-2.544-1.512-3.853-.115-.352.2-.844.314-1.272.453.215,1.179.331,1.3.665a7.778,7.778,0,0,1,.233,2.268c.031.71.007,1.422.007,2.133Z" fill="#232526"/>
      <path id="Path_7200" data-name="Path 7200" d="M889.986,581.254l.574,1.751h3.681l-2,1.723C889.155,582.839,889.155,582.839,889.986,581.254Z" fill="#232526"/>
      <path id="Path_7201" data-name="Path 7201" d="M899.754,533.23l.807-3.181,2.207.856Z" fill="#1c1c1c"/>
      <path id="Path_7202" data-name="Path 7202" d="M894.2,563.276a17.566,17.566,0,0,1,1.118,1.769c.044.087-.447.443-.69.675l-1.265-1.876Z" fill="#232526"/>
      <path id="Path_7203" data-name="Path 7203" d="M914.853,598.427l2.382,2.342Z" fill="#232526"/>
      <path id="Path_7204" data-name="Path 7204" d="M910.517,600.771l.919,2.112c-.813-.316-1.379-.367-1.492-.619a3.72,3.72,0,0,1-.046-1.4Z" fill="#232526"/>
      <path id="Path_7205" data-name="Path 7205" d="M901.116,541.959l-.236,1.982Q901,542.95,901.116,541.959Z" fill="#232526"/>
      <path id="Path_7206" data-name="Path 7206" d="M901.9,536.4l-.246,1.181Z" fill="#232526"/>
      <path id="Path_7207" data-name="Path 7207" d="M899.363,534.424l.39-.8Z" fill="#1c1c1c"/>
      <path id="Path_7208" data-name="Path 7208" d="M901.481,539.573l-.205.791Z" fill="#232526"/>
      <path id="Path_7209" data-name="Path 7209" d="M846.806,495.421l-1.513,1.245c-2.333-2.643-5.541-2.88-9.081-2.864.341-.629.563-1.04.785-1.451A16.237,16.237,0,0,1,846.806,495.421Z" fill="#fafafa"/>
      <path id="Path_7210" data-name="Path 7210" d="M715.766,389.547l2.047-1.069c2.348,2.569,2.385,3.517.088,4.947-.332-.632-.65-1.26-.989-1.876C716.565,390.918,716.2,390.3,715.766,389.547Z" fill="#fafafa"/>
      <path id="Path_7211" data-name="Path 7211" d="M739.247,400.739c-.081-2.1.149-4.079,1.981-5.449l.545.2-2.029,5.355Z" fill="#f7f4ed"/>
      <path id="Path_7212" data-name="Path 7212" d="M934.757,412.075l.362-.445Z" fill="#27292a"/>
      <path id="Path_7213" data-name="Path 7213" d="M895.777,411.639c.035-.229.069-.458.105-.686l1.095-.1Z" fill="#1f2122"/>
      <path id="Path_7214" data-name="Path 7214" d="M941.876,477.212l-1.993,1.176C939.821,476.766,940.476,476.357,941.876,477.212Z" fill="#1f2122"/>
      <path id="Path_7215" data-name="Path 7215" d="M869.219,433.994l1.136-.893.756,1.258-.381.483Z" fill="#1f2122"/>
      <path id="Path_7216" data-name="Path 7216" d="M865.979,452.97q-.006-.8-.012-1.6Q865.973,452.168,865.979,452.97Z" fill="#1c1c1c"/>
      <path id="Path_7217" data-name="Path 7217" d="M962.123,456.149c-.251-.43-.659-.851-.683-1.292-.011-.214.7-.465,1.088-.7Q962.324,455.153,962.123,456.149Z" fill="#1c1c1c"/>
      <path id="Path_7218" data-name="Path 7218" d="M946.113,588.133c2.563-1.029,4.312.163,6.378,1.855h-5.855Z" fill="#fafafa"/>
      <path id="Path_7219" data-name="Path 7219" d="M723.215,476.5c.408-3.28,2.587-3.736,5.158-3.765a1.8,1.8,0,0,1,2.052,1.649,4.167,4.167,0,0,1-2,4.208,2.586,2.586,0,0,1-3.539-.687A11.493,11.493,0,0,0,723.215,476.5Z" fill="#fbd762"/>
      <path id="Path_7221" data-name="Path 7221" d="M904.88,442.813c.644,4.756,1.254,9.518,1.956,14.267a2.362,2.362,0,0,1-1.313,2.73c-1.158.652-1.886.459-2.125-.892-.536-3.021-1.2-6.03-1.517-9.075-.328-3.129-.336-6.295-.42-9.446a4.141,4.141,0,0,1,.382-2.291,3.237,3.237,0,0,1,2.045-1.355c1.045-.1,1.558.7,1.477,1.86-.095,1.377-.022,2.766-.022,4.149Z" fill="#272727"/>
      <path id="Path_7222" data-name="Path 7222" d="M890.288,445.67c.809,4.781,1.626,9.561,2.416,14.346a3.889,3.889,0,0,1,.052,1.89,7.633,7.633,0,0,1-1.333,1.756c-.494-.522-1.323-.985-1.428-1.577-.912-5.143-1.716-10.306-2.5-15.471-.157-1.035-.053-2.108-.124-3.16-.087-1.3.329-2.3,1.75-2.309,1.315-.013,1.53.991,1.482,2.094-.034.79-.006,1.583-.006,2.375Z" fill="#292929"/>
      <path id="Path_7223" data-name="Path 7223" d="M931.158,479.967l-1.608.011.264-1.554.562-.076Z" fill="#1f2122"/>
    </g>
    <text id="_3" data-name="3" transform="translate(253 138)" font-size="28" font-family="SegoeUI, Segoe UI"><tspan x="0" y="0">3</tspan></text>
  </g>
</svg>
