<svg xmlns="http://www.w3.org/2000/svg" xmlns:xlink="http://www.w3.org/1999/xlink" width="320" height="320" viewBox="0 0 320 320">
  <defs>
    <clipPath id="clip-_1802">
      <rect width="320" height="320"/>
    </clipPath>
  </defs>
  <g id="_1802" data-name="1802" clip-path="url(#clip-_1802)">
    <rect width="320" height="320" fill="#fff"/>
    <g id="Group_26" data-name="Group 26" transform="translate(167.91 -938.543)">
      <path id="Path_7225" data-name="Path 7225" d="M5.114,1248.051q-35.844,0-71.689,0c-11.382,0-22.765-.025-34.148.025-4.23.019-8.46.336-12.689.321-13.341-.048-26.681-.182-40.021-.3-2.854-.025-3.066-.348-3.052-3.275q.064-13.368.041-26.737c-.083-25.46-.224-50.92-.29-76.38q-.134-50.919-.176-101.838c-.008-12.841.143-25.681.188-38.521.036-10.075,0-20.15.038-30.225q.033-9.645.2-19.29c.042-2.3,1.172-3.291,3.459-3.29q13.5,0,27,.03,50.513.015,101.026.035c7.24.007,14.479.265,21.719.249,17.608-.04,35.216-.226,52.825-.254,25.465-.041,50.931.009,76.4.014,3.24,0,6.482-.111,9.718-.01a30.056,30.056,0,0,1,4.59.742c1.934.369,2.49,1.766,2.5,3.515.021,4.566.013,9.131.048,13.7.067,8.835.2,17.671.222,26.507.025,8.411-.083,16.822-.075,25.234.008,9.164.114,18.328.121,27.492q.036,45.621.029,91.242,0,34.828-.057,69.656c-.024,10.366-.148,20.732-.293,31.1-.041,2.926-.293,5.85-.5,8.771a2.09,2.09,0,0,1-2.385,2.1c-4.35-.043-8.7-.119-13.051-.143q-44.563-.24-89.126-.455C26.826,1248.012,15.97,1248.052,5.114,1248.051Zm-157.841-94.872.019,6.038c.049,1.638.193,3.279.13,4.913-.155,3.981-.313,7.967-.648,11.935-.245,2.9-.882,5.764.643,8.525.194.352,0,.91.009,1.373q.048,6.435.1,12.871c-.136,6.12-.329,12.239-.394,18.359s0,12.235,0,18.352c0,2.861,0,5.722,0,8.881H138.725V953.352c-97.486-1.508-194.506-.621-291.592-.638,0,5.391,0,10.345,0,15.3q.031,26.367.066,52.734.012,25.059-.019,50.118l.021,4.01q-.03,27.088-.053,54.177C-152.85,1137.093-152.771,1145.136-152.727,1153.179Z" fill="#0a0909"/>
      <path id="Path_7226" data-name="Path 7226" d="M-152.819,1070.864q.012-25.059.019-50.118-.012-26.367-.066-52.734c-.006-4.953,0-9.907,0-15.3,97.086.017,194.106-.87,291.592.638v291.074H-152.864c0-3.159,0-6.02,0-8.881,0-6.117-.067-12.235,0-18.352s.258-12.239.394-18.359c2.784-2.1,4.222-4.779,3.615-8.364a5.58,5.58,0,0,1,.167-1.57c.318-2.446.795-4.884.915-7.34.1-2.1-.25-4.211-.318-6.321-.063-1.954-.047-3.913-.008-5.869.059-2.92-.267-5.819,1.6-8.536a7.208,7.208,0,0,0,.652-4.738,63.674,63.674,0,0,0-1.943-7.138c-.132-.483-.326-1.132-.121-1.5,1.221-2.177.243-5.006,2.105-6.975.112-.119.06-.383.1-.575.773-3.28.38-6.665,1.716-10,.819-2.046-.569-4.953-.873-7.485-.08-.665-.065-1.659.337-2.008,1.444-1.259,1.386-2.768,1.081-4.364-.418-2.183-.95-4.345-1.336-6.533a17.282,17.282,0,0,1-.262-3.546,4.32,4.32,0,0,1,.613-2.392c3.687-4.71,4.209-8.421,1.053-13.582a13.728,13.728,0,0,1-2.111-4.612,7.565,7.565,0,0,1,.784-4.481c1.6-3,3.687-5.738,5.342-8.713,1.587-2.854,3.106-5.368,7.091-4.253.709.2,1.705-.618,2.565-.976.975-.406,1.935-.852,2.923-1.224.755-.283,2-.256,2.241-.748,1.4-2.921,4.751-1.383,6.623-3.074,3.608.735,7.22,1.45,10.818,2.234.393.086.681.6,1.048.869,1.436,1.068,2.707.858,3.9-.479,1.356-1.521,2.8-2.966,4-4.234,5.266,1.407,8.494,4.945,10.2,10.04l1.845-1.492,1.257,2.316.341-.5,2.273.6-4.8,9.383c-.8-1.431-1.537-2.733-2.265-4.039-2.62-4.7-6.416-8.119-11.823-8.695-7.548-.8-15.195-.744-22.569,1.278-7.324,2.009-10.509,6.1-11.04,13.385a77,77,0,0,0,.059,8.805c.119,2.809-1.047,5.914,1.689,8.208.145.121.113.493.11.747-.055,4.235-.078,8.471-.189,12.7-.18,6.9-.48,13.8-.577,20.7a7.2,7.2,0,0,0,1.112,3.833c1.529,2.33,3.367,4.456,5.079,6.666-.03.274-.06.547-.091.821-2.289-.136-3.333.5-3.418,2.114-.393,7.5-.891,15-1.131,22.508-.277,8.684-.39,17.375-.394,26.064a4.908,4.908,0,0,0,1.636,3.524,20.145,20.145,0,0,0,12.048,3.715c2.814-.005,3.8-1.925,2.656-4.6a11.116,11.116,0,0,0-1.224-2.462,8.8,8.8,0,0,1-1.6-7.273c.339-1.948.606-3.915.774-5.886.677-7.938,1.373-15.877,1.912-23.826.213-3.153.048-3.178,3.222-3.024,3.6.173,4.664.855,5.361,4.234.762,3.7,1.2,7.462,1.775,11.2.07.454.144.909.19,1.366.76,7.6,1.566,15.192,2.242,22.8.2,2.21.991,3.195,3.2,3.324,2.559.15,5.114.38,7.671.568a2.987,2.987,0,0,0,.785-.021c1.579-.306,3.143-.744,4.735-.914,1.425-.151,2.976-.212,3.445-1.728a3.559,3.559,0,0,0-1.675-3.933c-2.328-1.7-4.706-3.324-6.942-4.9.2-3.487.379-6.905.6-10.321.185-2.83.346-5.665.654-8.484.923-8.45,1.717-16.923,2.949-25.33.746-5.093-.189-10.226,1.492-15.345,3.523-10.729,6.335-21.69,9.614-32.5,1.632-5.385,3.651-10.653,5.5-15.973l.485,4.652a75.119,75.119,0,0,0,6.765-5.578c3.54-2.908,6.113-7,9.084-10.595.772-.935.4-1.6-.608-1.954a12.107,12.107,0,0,0-1.915-.356,5.2,5.2,0,0,0-7.212.683c-.249.264-.8.24-1.218.35l-.4-.454c.319-.865.6-1.744.963-2.59,1.342-3.157,2.342-6.4,5.6-8.467,2.585-1.644,2.942-4.911,1.54-7.812a9.51,9.51,0,0,0-6.217-5.35c-3.988-1.112-9.764.938-10.757,4.453a13.962,13.962,0,0,0-.191,7.889c1.371,3.935-.641,6.454-2.368,9.3-.305.5-.626.991-.94,1.486.09-.961-.185-2.3.342-2.808,1.444-1.378.892-2.661.149-3.858a52.228,52.228,0,0,0-4.311-6.116c-1.175-1.4-2.791-2.267-4.764-1.353a22.474,22.474,0,0,0-3.371-1c-3.588-.5-7.241-1.658-10.674.627a26.128,26.128,0,0,0-11.24.772c-1.9-.113-3.8-.289-5.7-.325-3.364-.064-6.732.186-8.829,3.285-1.214,1.794-2.8,1.876-4.564,1.736-1.092-.088-2.164-.412-3.254-.561-4-.548-7.864-.837-11.287,2.178a15.73,15.73,0,0,0-4.9,7.781C-151.736,1067.613-152.3,1069.232-152.819,1070.864Zm196.752-.957-2.029-2.979c-.838,1.112-1.482,1.968-2.36,3.135l3.182,1.862c-.577,1.6-2.418,2.977-.867,4.949-1.01,1.41-3.573,1-3.843,3.278-1.89-1.337-.656-3.249-.884-4.89-.115-.831-.106-1.68-.154-2.522l-.646.021v9.361c-.251.523-.512,1.042-.749,1.572-1.335,2.987-1.8,5.917.177,8.887,1.744,2.616,3.321,5.344,4.972,8.023l-.44,7.561c-1.033,2.076-1.994,4.192-3.112,6.221-4.125,7.481-8.316,14.925-12.445,22.4-.752,1.363-1.225,2.711-3.308,2.654-.757-.021-1.739,1.292-2.277,2.2a10.129,10.129,0,0,0-.838,3c-1.019,4.652,2.726,8.15,7.367,6.95a8.278,8.278,0,0,0,5.24-4.434c1.825-3.332,5.582-4.475,7.985-7.9a12.348,12.348,0,0,1,.561,2.541c-.244,4.53-.135,9.131-.924,13.57-1.889,10.636-4.2,21.2-6.379,31.78-.1.505-.4,1.215-.8,1.376-2.571,1.055-3.745,3.142-4.429,5.634-.526,1.92.37,3.146,2.342,3.4a13.578,13.578,0,0,0,9.2-2.215,11.507,11.507,0,0,0,4.371-4.879c3.676-9.165,7-18.473,10.464-27.723.113-.3.435-.526.766-.91.22.478.36.767.487,1.062,4.038,9.357,7.479,18.9,9,29.037a2.068,2.068,0,0,1-.265,1.212c-.776,1.4-1.58,2.787-2.431,4.144-1.241,1.977-.615,3.429,1.192,4.594.768.434,1.522.893,2.306,1.3,2.858,1.466,2.861,1.459,4.838-1.3.63-.108,1.258-.251,1.893-.319,3.563-.381,5.454-2.044,5.559-4.93.421-11.572.72-23.152,1.313-34.716.246-4.794,1.119-9.556,1.641-13.8,1.93,0,3.79.326,5.484-.066,3.833-.887,4.384-4.265,4.663-7.412a95.085,95.085,0,0,0-.733-21.63c-.222-1.589-.521-3.08-2.267-3.714l-.45-.682.009.021c-.354-3.5-1.742-5.052-4.068-4.43q-.963-2.546-1.931-5.111c.5-1.889.656-3.633-1.605-4.582a4.975,4.975,0,0,1-1.143-.98c5.5-.6,9.95,1.516,13.7,4.928-.5,1.07-1.13,1.834-1.149,2.613-.015.627.718,1.817,1.091,1.806a10.067,10.067,0,0,0,3.112-.9c.629-.24,1.191-.893,1.8-.915,3.509-.13,6.946,3.263,7.368,6.762.334,2.763-1.694,3.954-3.077,5.65a14.387,14.387,0,0,0-1.324,2.434,11.262,11.262,0,0,0,2.449.621c4.695.128,8.816,1.148,10.575,6.235.024.071.236.077.185.062l4.439-4.188a17.552,17.552,0,0,1,5.525,7.812,1.54,1.54,0,0,1-.233,1.4c-1.732,1.432-.77,2.9-.031,4.224.685,1.227,1.758,1.661,2.813.264.428-.567.762-1.2,1.307-2.08a25.413,25.413,0,0,1,1.722,2.63c2.214,4.833-.254,14.586-4.428,17.9a41.278,41.278,0,0,0-3.876,3.548,5,5,0,0,0-.689,1.707l.566.444a12.23,12.23,0,0,0,2.018-1.3,66.457,66.457,0,0,0,4.865-4.953c4.2-4.961,7.791-10.275,7.283-17.187-.254-3.458-1.091-6.789-4.557-8.7a5.175,5.175,0,0,1-1.746-1.82c-1.581-2.575-2.829-5.391-4.651-7.772-2.454-3.206-4.964-3.291-7.826-.9a31.678,31.678,0,0,0-4.3-2.055,33.3,33.3,0,0,0-4.806-.789,3.676,3.676,0,0,1,.365-.8c2.732-2.82,2.979-5.957,1.381-9.446-1.577-3.444-4.288-4.968-7.943-5.334a5.31,5.31,0,0,1-2.886-1.391,22.365,22.365,0,0,0-10.032-5.729c-3.424-.868-6.309-.638-8.477,2.638-.616.931-.992,1.609-.512,2.616l-5.941-2.62c4.417-3.816,5.056-7.528,2.643-12.173a46.4,46.4,0,0,0-6.854-9.259,10.984,10.984,0,0,0-6.937-3.461c-.742-.833-1.166-1.737-1.689-1.8a5.431,5.431,0,0,0-2.55.639c-.774.331-1.408,1.028-2.194,1.286-2.539.835-5.119,1.542-7.683,2.3-.23-1.415-.373-2.852-.717-4.239C45.383,1069.069,44.628,1069.371,43.933,1069.907Zm-6.545-45.991.435.331c-2.623,2.923-5.28,5.817-7.841,8.793-.481.558-1.025,1.76-.771,2.121.784,1.108,2.15,1.937,3.31.625,3.836-4.34,7.6-8.75,11.21-13.275a3.554,3.554,0,0,0,.228-3.229,2.606,2.606,0,0,0-3.449-.9c-1.855.821-3.75,1.553-5.628,2.324a1.113,1.113,0,0,0-.211-.3c.8-1.294,1.6-2.592,2.407-3.882.569-.907.957-2.134,1.78-2.624,1.15-.683,1.456-1.6.858-2.38a4.1,4.1,0,0,0-2.586-1.113,2.274,2.274,0,0,0-1.661.952c-2.36,3.274-4.729,6.551-6.87,9.967a3.765,3.765,0,0,0-.105,3.2c.766,1.428,2.4,1.645,3.923,1.178C34.1,1025.2,35.733,1024.522,37.388,1023.916Zm-45.922.7q.68-1.275,1.358-2.551a26.01,26.01,0,0,0-3.212-.718c-.447-.048-.935.44-1.426.627-3.98,1.518-7.871.807-11.462-1.011-2.861-1.448-3.626-4.557-2.471-8.766.43-1.571.141-2.5-1.157-3.306-1.464-.913-2.076.282-2.876,1.082-3.745,3.744-7.266,4.486-11.318,2.07a8.88,8.88,0,0,1-4.747-7.518c-.038-.991-.075-2.276-1.431-2.086a5.008,5.008,0,0,0-2.344,1.608,1.8,1.8,0,0,0-.24,1.475c.423,1.628-.369,2.677-1.555,3.523a26.945,26.945,0,0,1-11.526,5.1,18.949,18.949,0,0,0-2.909.462,12.219,12.219,0,0,0-2.234,1.26,9.829,9.829,0,0,0,2.136,2.355c.715.4,1.805.156,2.729.161a2.632,2.632,0,0,1,2.736,2.119c.569,2.312.664,4.7-1.539,6.25a47.255,47.255,0,0,1-7.176,4.267c-1.492.691-1.37,1.222-.643,2.274.99,1.432,2.3.89,3.567.634.391.4.729,1.063,1.183,1.155a4.559,4.559,0,0,0,4.416-1.645c.955-1.037,1.946-2.042,2.97-3.111l1.145,1.864c1.062-.861,1.96-1.631,2.9-2.342a4.419,4.419,0,0,0,1.762-4.12c-.113-2.3-.73-4.7.763-6.839.451-.645.99-1.868,1.337-1.815a3.638,3.638,0,0,1,2.159,1.385c1.37,1.877,2.911,3.505,5.292,3.813a6.083,6.083,0,0,0,3.144-.55c1.925-.886,3.737-2.014,5.833-3.173.118,5.817,1.308,7.517,7.035,8.675,3.335.674,6.788.747,10.181,1.147A7.108,7.108,0,0,0-8.534,1024.618Zm5.792,130.865c.523-5.777,1.046-11.554,1.554-17.157,4.58-.5,9.289-.923,13.968-1.563,1.52-.207,2.934-1.253,4.449-1.415,2.29-.245,3.444-.655,3.574-2.861a90.869,90.869,0,0,0-.1-11.8,4.015,4.015,0,0,0-2.193-2.829c-1.383-.516-2.575.615-3.222,1.959-.933,1.939-1.8,3.907-2.691,5.842a38.373,38.373,0,0,1-6.37-.063c-3.61-.621-7.134-1.732-10.73-2.452-3.184-.638-4.607-2.807-5.367-5.622-.585-2.163-1.019-4.367-1.518-6.541a28.778,28.778,0,0,0,8.639-13.61c.48-1.826,1.13-3.15,2.93-4.009a6.317,6.317,0,0,0,2.22-2.439c1.822-2.915,1.685-6.013.478-9.094-.977-2.491-3.173-2.7-5.439-2.679-.1,0-.2-.12-.3-.189-.609-5.6.31-11.676-4.964-15.725,1.671-4.186-.569-6.2-3.245-6.943a33.825,33.825,0,0,0-16.349-.814c-1.8.389-3.3,1.994-5.076,2.695-2.908,1.149-4.79,2.9-4.659,6.175-3,.847-3.628,2.777-1.77,5.074a1.54,1.54,0,0,1,.419.988c-.6,4.218-1.248,8.429-1.889,12.674-.312-.053-.877-.19-1.45-.24-2.346-.2-3.212.2-3.665,2.556-1.163,6.041-.662,9.651,4.369,12.314,0,9.184,1.829,10.571,6.918,13.069.585.287,1.393,1.1,1.322,1.537a5.282,5.282,0,0,1-1.322,2.354c-.539.632-1.595.933-1.922,1.619-1.193,2.505-3.466,3.429-5.824,3.88-4.491.86-9.058,1.314-13.571,2.077-1.849.313-3.621,1.059-5.458,1.478-1.46.333-2.375.107-2.534-1.878a21.3,21.3,0,0,0-1.667-6.594,2.629,2.629,0,0,0-4.761-.268,15.958,15.958,0,0,0-2.089,5.8c-.352,2.8-.024,5.679-.118,8.52-.089,2.713,1.1,3.931,3.79,3.758a39.19,39.19,0,0,1,7.268.54c2.663.32,5.341.551,8.02.678,2.337.111,4.683.023,7.085.023a13.967,13.967,0,0,1,.343,2.159,40.6,40.6,0,0,1-.109,7.509c-.423,2.409-1.617,4.679-2.427,7.025a5.041,5.041,0,0,1-4.17,3.508c-6.241,1.46-10.465,5.3-10.272,12.4.095,3.5-.118,7.017.028,10.517.164,3.928.575,7.846.876,11.723a23.013,23.013,0,0,0-3.02,1.405,16.653,16.653,0,0,0-3.047,2.476c-.793.844-.612,1.53.483,2.356a4.685,4.685,0,0,0,3.271.813c4.035-.043,8.074.081,12.106-.039,2.454-.073,2.82-.89,1.678-2.91a2.272,2.272,0,0,1-.247-1.067c-.013-4.093.01-8.186,0-12.279-.008-2.61,1-4.009,3.586-4.667a12.089,12.089,0,0,1,2.712-.283c3.955-.083,7.972.291,11.851-.28,6.256-.92,11.8.636,17.149,3.562,1.439.786,1.464,1.836.579,3.112-1,1.436-1.941,2.91-2.853,4.4-1.469,2.4-2.666,5.023-4.433,7.177-.869,1.061-1.536,2-.883,2.988a3.959,3.959,0,0,0,2.73,1.439c4.87.335,9.753.474,14.632.673,1.931.079,2.981-1.19,2.289-2.99a10.062,10.062,0,0,0-1.873-2.289,36.458,36.458,0,0,1,2.265-3.147,52.842,52.842,0,0,0,8.477-13.741c3.3-7.488,1.059-13.44-6-16.079-.325-.681-.61-1.385-.985-2.038C-1.727,1156.971-2.251,1156.236-2.742,1155.483ZM-114.76,1007.492c-1.281-.487-2.3-1.173-3.29-1.134-.563.023-1.545,1.244-1.527,1.9a3.828,3.828,0,0,1-2.225,3.679,5.162,5.162,0,0,0-1.266,1.479c-.67.922-1.451,1.938-.147,2.887,1.22.889,2.174.27,3.056-.749a30.014,30.014,0,0,1,2.44-2.264l1.718,3.084c-2.567.745-3.046,1.37-2.61,3.329.391,1.761,1.793,2.2,4.321,1.7,1.455.865,2.983,2.191,3.354,1.921a2.878,2.878,0,0,0,.6-4.458l1.861-1.2a25.831,25.831,0,0,0,1.6,2.988c.454.64.782,2.045,2.018,1.151.98-.708,1.668-1.687.838-3.05-.646-1.06-1.157-2.2-1.722-3.3.274-1.049,1.978-2.35-.083-3.03-1.921-.633-2.33-2.056-2.793-3.2a11.241,11.241,0,0,0,1.234-2.024,10.116,10.116,0,0,0-2.593-1.81c-.621-.3-1.475-.088-2.113-.364-1.327-.573-2.319-.1-2.528,1.364C-114.678,1006.856-114.736,1007.318-114.76,1007.492Zm26.373,19.922c2.45-1.761,4.584-.652,6.686-.562.927.04,2.326.03,2.71-.518.758-1.081.3-2.234-.833-3.238-2.4-2.12-4.848-4.248-5.27-7.793-.069-.58-.971-1.234-1.633-1.537a4.44,4.44,0,0,0-5.134,1.319,9.465,9.465,0,0,0-1.818,10.057,2.479,2.479,0,0,1-.613,3.072c-.4.426-.395,1.234-.574,1.869a16.159,16.159,0,0,0,2.829.637c.367.022.774-.62.931-.757,2.087,1.317,3.975,2.588,5.954,3.7a1.871,1.871,0,0,0,1.77-.144,2.633,2.633,0,0,0,.223-2.026,3.287,3.287,0,0,0-1.291-1.384C-85.648,1029.225-86.9,1028.421-88.387,1027.414ZM72.95,1016.375h-.1c0,3.3.008,6.609,0,9.914,0,.92.035,1.892,1.276,1.718,1.139-.161,2.4-.426,2.382-2.041-.028-2.308-.135-4.618-.057-6.922a3.5,3.5,0,0,1,.916-1.873c2.051-2.465,4.351-4.745,6.2-7.348a6.211,6.211,0,0,0-.394-7.331c-1.382-1.634-4.454-2.3-6.772-1.466-1.758.633-3.477,3.782-3.456,6.239C72.969,1010.3,72.95,1013.338,72.95,1016.375Zm-22.406-5.39c.068.644.124.906.119,1.166-.124,5.916-.237,11.833-.4,17.748-.05,1.9.676,2.545,2.311,1.65a3.178,3.178,0,0,0,1.535-2.14c.242-5.193.505-10.4.332-15.591-.113-3.381.294-5.988,4-7.089.557-.165,1.346-1.45,1.174-1.819-.539-1.157-1.554-2.026-3.018-1.257-3.858,2.025-7.7,4.079-11.55,6.124-1.039.551-1.739,1.328-1.034,2.51.738,1.239,1.833,1.312,3.048.6C48.127,1012.273,49.216,1011.71,50.544,1010.985Zm16.552-5.592a11,11,0,0,0-6.8,3.72,3.182,3.182,0,0,0-.551,1.972c0,.949.357,1.895.378,2.847.058,2.621-.112,5.253.058,7.865a2.944,2.944,0,0,0,4.74,2.323,10.754,10.754,0,0,0,2.747-2.763c2.26-3.3,3.068-7.153,4.059-10.97C72.522,1007.312,70.852,1005.4,67.1,1005.393Zm-46.153,17.493a12.7,12.7,0,0,0-2.006,1.688q-5.355,6.84-10.6,13.761c-1.627,2.149-3.192,4.351-4.663,6.609-.868,1.331-.075,2.505,1.039,3.136,1.177.666,2.025.04,2.58-1.234a36.936,36.936,0,0,1,2.826-5.533c1.177-1.8,2.718-3.347,4.039-5.053,2.726-3.518,5.434-7.051,8.087-10.625a2.324,2.324,0,0,0,.386-1.787C22.516,1023.47,21.711,1023.3,20.943,1022.886Zm72.369-15.974-.841.26,1.317,1.719c.752-.594,1.779-1.045,2.181-1.821.419-.81.225-1.934.319-2.918.35-3.633.748-7.262,1.016-10.9a1.836,1.836,0,0,0-.892-1.487,2.057,2.057,0,0,0-1.867.325,5.54,5.54,0,0,0-1.18,2.855C93.237,998.93,93.312,1002.922,93.312,1006.912ZM-26.62,1040.086c-.34-.287-.962-1.26-1.675-1.331a46.367,46.367,0,0,0-6.446-.057c-2.232.087-3.515,1.5-4.448,3.4-.526,1.067-.495,2.036.556,2.534a1.769,1.769,0,0,0,2.613-.972c.223-.513.633-1.3,1.015-1.331a27.05,27.05,0,0,1,6.183-.153C-27.174,1042.409-26.625,1042.365-26.62,1040.086Zm-10.161-8.869a6.827,6.827,0,0,0,.291-1.977c-.106-.576-.457-1.458-.852-1.549a2.669,2.669,0,0,0-2.145.4c-1.726,1.673-1.087,5.6,1.146,6.294a31.127,31.127,0,0,0,6.756.984,2.214,2.214,0,0,0,1.618-1.131c.158-.3-.381-1.183-.822-1.529a4.849,4.849,0,0,0-1.93-.753C-34.051,1031.664-35.4,1031.463-36.781,1031.217Zm-2.293,6.372c-1.179-2.042-2.116-3.8-3.231-5.443-.17-.25-1.373-.157-1.735.175a2.314,2.314,0,0,0-.622,1.846c.139.708.842,1.285,1.154,1.985.269.6.642,1.436.424,1.924-.6,1.354-1.549,2.548-2.237,3.87a10.293,10.293,0,0,0-.6,2.176c1.023.008,2.6.436,2.97-.05A63.066,63.066,0,0,0-39.074,1037.589Zm133.668-21.883c-3.428-.97-3.942-.858-4.27.867-.373,1.965.273,3,2.024,3.252C93.672,1020.014,94.439,1018.648,94.594,1015.706Z" fill="#fdfdfd"/>
      <path id="Path_7227" data-name="Path 7227" d="M-82.237,1071.272l-2.273-.6-.341.5-1.257-2.316-1.845,1.492c-1.7-5.095-4.933-8.633-10.2-10.04-1.205,1.268-2.647,2.713-4,4.234-1.192,1.337-2.463,1.547-3.9.479-.367-.272-.655-.783-1.048-.869-3.6-.784-7.21-1.5-10.818-2.234-1.872,1.691-5.218.153-6.623,3.074-.237.492-1.486.465-2.241.748-.988.372-1.948.818-2.923,1.224-.86.358-1.856,1.174-2.565.976-3.985-1.115-5.5,1.4-7.091,4.253-1.655,2.975-3.744,5.712-5.342,8.713a7.565,7.565,0,0,0-.784,4.481,13.728,13.728,0,0,0,2.111,4.612c3.156,5.161,2.634,8.872-1.053,13.582a4.32,4.32,0,0,0-.613,2.392,17.282,17.282,0,0,0,.262,3.546c.386,2.188.918,4.35,1.336,6.533.3,1.6.363,3.1-1.081,4.364-.4.349-.417,1.343-.337,2.008.3,2.532,1.692,5.439.873,7.485-1.336,3.337-.943,6.722-1.716,10-.045.192.007.456-.1.575-1.862,1.969-.884,4.8-2.105,6.975-.2.364-.011,1.013.121,1.5a63.674,63.674,0,0,1,1.943,7.138,7.208,7.208,0,0,1-.652,4.738c-1.863,2.717-1.537,5.616-1.6,8.536-.039,1.956-.055,3.915.008,5.869.068,2.11.42,4.225.318,6.321-.12,2.456-.6,4.894-.915,7.34a5.58,5.58,0,0,0-.167,1.57c.607,3.585-.831,6.259-3.615,8.364q-.051-6.435-.1-12.871c0-.463.185-1.021-.009-1.373-1.525-2.761-.888-5.63-.643-8.525.335-3.968.493-7.954.648-11.935.063-1.634-.081-3.275-.131-4.914,1.428-2.017.687-4.027-.018-6.037-.044-8.043-.123-16.086-.124-24.128q0-27.089.053-54.177c3.025.562,4.036-.287,4.321-3.346a25.328,25.328,0,0,1,.938-5.036c1.51-4.93,5.036-7.686,9.379-7.04,2.963.441,5.83,1.506,8.765,2.179a3.444,3.444,0,0,0,2.491-.148,5.732,5.732,0,0,0,1.726-2.642c.61-1.793,1.717-3.315,3.509-3.318a71.966,71.966,0,0,1,11.441.8c2.64.42,5.454,1.115,6.681,4.172a1.866,1.866,0,0,0,1.662.7c1.232-.755,2.584-1.423,1.909-3.516a3.334,3.334,0,0,1,3.469-4.2c1.082.048,2.145.623,3.223.645,4.575.1,7.82,1.908,8.972,6.6.319,1.3,1.006,2.065,2.389,1.55s1.613-1.6,1.113-2.911c-.4-1.039-.813-2.073-1.16-3.129-.881-2.686-3.449-3.409-5.475-4.766,1.973-.914,3.589-.042,4.764,1.353a52.228,52.228,0,0,1,4.311,6.116c.743,1.2,1.3,2.48-.149,3.858-.527.5-.252,1.847-.342,2.808Z" fill="#fbd762"/>
      <path id="Path_7228" data-name="Path 7228" d="M-87.445,1051.476c2.026,1.357,4.594,2.08,5.475,4.766.347,1.056.763,2.09,1.16,3.129.5,1.309.27,2.4-1.113,2.911s-2.07-.251-2.389-1.55c-1.152-4.69-4.4-6.5-8.972-6.6-1.078-.022-2.141-.6-3.223-.645a3.334,3.334,0,0,0-3.469,4.2c.675,2.093-.677,2.761-1.909,3.516a1.866,1.866,0,0,1-1.662-.7c-1.227-3.057-4.041-3.752-6.681-4.172a71.966,71.966,0,0,0-11.441-.8c-1.792,0-2.9,1.525-3.509,3.318a5.732,5.732,0,0,1-1.726,2.642,3.444,3.444,0,0,1-2.491.148c-2.935-.673-5.8-1.738-8.765-2.179-4.343-.646-7.869,2.11-9.379,7.04a25.328,25.328,0,0,0-.938,5.036c-.285,3.059-1.3,3.908-4.321,3.346q-.01-2.006-.021-4.01c.519-1.632,1.083-3.251,1.548-4.9a15.73,15.73,0,0,1,4.9-7.781c3.423-3.015,7.288-2.726,11.287-2.178,1.09.149,2.162.473,3.254.561,1.762.14,3.35.058,4.564-1.736,2.1-3.1,5.465-3.349,8.829-3.285,1.9.036,3.8.212,5.7.325l9.246,2.547c.6-.99,1.294-2.155,1.994-3.319,3.433-2.285,7.086-1.127,10.674-.627A22.474,22.474,0,0,1-87.445,1051.476Z" fill="#27251f"/>
      <path id="Path_7229" data-name="Path 7229" d="M-152.727,1153.179c.705,2.01,1.446,4.02.018,6.037Q-152.717,1156.2-152.727,1153.179Z" fill="#ededed"/>
      <path id="Path_7230" data-name="Path 7230" d="M-127.541,1145.066c.031-.274.061-.547.092-.82.338.209.7.387,1.011.627,2.1,1.613,4.293,1.326,6.517.313,3.274-1.492,4.291-4.117,4.042-7.565-.179-2.47-1.2-4.062-3.734-4.609.5-5.9.958-11.677,1.474-17.456.226-2.528.675-5.043.765-7.574.024-.663-.9-1.908-1.413-1.919a3.513,3.513,0,0,0-2.519,1.232c-.487.631-.395,1.753-.452,2.665-.273,4.334-.474,8.673-.771,13.005-.221,3.213-.686,6.414-.794,9.629-.12,3.558,0,3.562,3.889,4.829-.343,1.244-.322,2.875-1.126,3.724-1.69,1.785-3.793,1.313-5.246-.9-1.034-1.573-1.909-3.251-2.855-4.882v-4l-1.116.729c-.03-.726-.1-1.453-.083-2.178q.216-12.577.464-25.154a15.566,15.566,0,0,1,.311-3.912c.879-3.069.966-3.044-2.015-4.454,0-4.54-.034-9.133.01-13.725.046-4.874,2.177-7.956,6.763-9.5,7.2-2.419,14.641-2.2,22.083-1.749a7.45,7.45,0,0,1,1.9.463c6.148,2.094,9.05,7.108,10.592,12.81.977,3.611.893,7.535,1.062,11.328a8.435,8.435,0,0,1-2.741,6.714c-1.474,1.379-3.072,2.63-4.493,4.06-.4.4-.694,1.576-.46,1.8.911.885,2.2,1.648,3.34.564a45.994,45.994,0,0,0,6.174-6.576c2.625-3.749,2.119-8.22,1.768-12.487a14.32,14.32,0,0,1,.666-6.517c3.122-8.3,7.984-15.619,12.648-23.057l.139,1.149c1.654-2.052,3.2-3.836,4.575-5.748a8.766,8.766,0,0,0,.82-2.548c.075-.054.15-.108.224-.163-.044,0-.108-.012-.128.011a.646.646,0,0,0-.079.17l-2.817,1.6.013.014v-1.271l-.294-.022-.146.907H-72.5c-.071-1.429-.179-2.795-.2-4.162-.037-2.967.956-4.126,3.926-4.659.648-.116,1.3-.186,1.953-.3,1.987-.335,4.818,1.455,5.562,4.362.526,2.052-.382,3.578-2.752,4.783a3.788,3.788,0,0,0-1.74,1.659c-2.779,6.725-5.671,13.415-8.127,20.26-3.781,10.536-7.338,21.154-10.8,31.8-1.7,5.226-2.986,10.588-4.438,15.894a37.726,37.726,0,0,0-1.6,6.411c-.47,5.244-.543,10.522-.949,15.773-.385,4.986-.933,9.962-1.524,14.929-.291,2.452-1.047,4.857-1.232,7.311-.4,5.251-.544,10.521-.838,15.78a5.692,5.692,0,0,1-.541,2.859c-1.281,1.767-.6,2.726.988,3.561l3.963,2.334-.021-.013.812.413-.019-.012.81.422-.026-.017.529.38,1.028.926H-99.962c-.225-3.039-.352-5.86-.659-8.661-.586-5.357-1.428-10.69-1.872-16.057a45.419,45.419,0,0,0-2.674-13.447c-.751-1.865-1.837-3.662-3.82-3.952a47.1,47.1,0,0,0-8.825-.262c-.564.025-1.437,1.341-1.534,2.139-.309,2.548-.228,5.14-.464,7.7-.688,7.458-1.444,14.91-2.2,22.362-.379,3.753-1.492,7.536.575,11.159l-2.186,2.168-5.439-1.928.422-2.849c.311-2.322.818-4.637.9-6.967q.411-12.259.56-24.527c.052-4.069-.133-8.141-.211-12.212Zm31.122-47.7c-.009-2.905-1.315-5.089-3.143-5.719a8.724,8.724,0,0,0-11.008,6.215,2.076,2.076,0,0,0,.4,1.557,30.779,30.779,0,0,0,2.779,2.78c1.931,1.751,4.115,2.643,6.651,1.43A7.508,7.508,0,0,0-96.419,1097.363Zm-12.867-14.864c-.106-.48-.076-.819-.231-.971-2.275-2.235-4.535-4.488-6.925-6.595-.251-.221-1.645.29-1.888.773a2.354,2.354,0,0,0,.324,2.147c1.8,1.916,3.747,3.7,5.7,5.468.493.446,1.391,1.035,1.787.857C-109.936,1083.916-109.637,1083.023-109.286,1082.5Zm6.655-1.524c1.041-.687,2.473-1.568,3.833-2.55,1.33-.962,1.174-1.9-.353-2.59-1.65-.75-5.6,1.125-6,2.849C-105.423,1079.881-104.406,1081.049-102.631,1080.975Zm.176,4.835a8.443,8.443,0,0,0,2.071.92c1.037.194,2.658-1.677,2.262-2.836a3.436,3.436,0,0,0-2.151-1.8C-101.457,1081.78-102.5,1083.405-102.455,1085.81Zm-5.928,2.046c.478-2-1.065-2.171-2.381-2.216-1.35-.045-1.621,1-1.582,2.187.044,1.355.323,2.472,1.962,2.515S-108.175,1089.451-108.383,1087.856Z" fill="#fcd762"/>
      <path id="Path_7231" data-name="Path 7231" d="M40.292,1108.165q.22-3.78.44-7.561c1.637.82,1.019,2.343,1.2,3.649a7.421,7.421,0,0,0,.873,1.926c.791-.516,2.254-1.039,2.249-1.548a14.282,14.282,0,0,0-.957-5.226c-.583-1.409-1.887-2.5-2.77-3.807-1.849-2.732-3.661-5.478-3.123-9.068.251-1.678,1.835-3.942,2.839-3.77,1.369.234,3.5,2.66,3.572,4.063.094,1.89.98,2.759,2.542,2.27.594-.186,1.017-.91,1.524-1.384,2.033-1.9,2.174-3.069-.821-4.9a37.691,37.691,0,0,1-3.282-2.508l.383-.791-.05.063c2.168-1.164,5.236-.45,6.652-3.187l.647-.294c-.582,2.352-1.194,4.608-1.658,6.9a1.681,1.681,0,0,0,.645,1.464c.681.3,2.005.559,2.215.253a6.227,6.227,0,0,0,1.2-3.244c.012-1.555,1.227-5.591,2.585-5.741a10.347,10.347,0,0,1,5.808.839c3.84,2.107,6.3,5.7,8.17,9.585a6.327,6.327,0,0,1-1.68,7.809,23.418,23.418,0,0,1-3.1,2.026c-1.4.876-1.968,2.3-1.038,2.789a17.318,17.318,0,0,0,4.954,2.027,13.512,13.512,0,0,1,6.039,2.386c.894.67,1.762,1.385,2.714,1.961.295.179.825-.03,1.248-.062q.967,2.561,1.932,5.111c2.326-.622,3.714.929,4.068,4.43-.457-.3-.915-.6-1.773-1.159.283,1.709.592,2.964.683,4.234.422,5.892.865,11.785,1.125,17.685a37.45,37.45,0,0,1-.454,6.9c-.3,2.094-2.611,3.321-3.894,2.271-1.09-.892-1.3-5.048-.1-5.849a3.474,3.474,0,0,0,1.555-4.11c-1.461-5.311-3.072-10.581-4.657-15.857-.287-.954-.933-1.9-1.974-1.15a2.793,2.793,0,0,0-.951,2.363c.83,3.1,1.958,6.121,2.91,9.191a44.276,44.276,0,0,1,1.256,4.946,3.232,3.232,0,0,1-.453,1.8c-.437.9-1.3,1.689-1.459,2.614a50.88,50.88,0,0,1-1.705,8.117c-.556,1.639-.395,3.517-.581,5.285-.584,5.577-1.422,11.139-1.717,16.731-.467,8.834-.537,17.689-.887,26.53-.037.92-.686,2.467-1.294,2.6a73.866,73.866,0,0,1-8.024.906c2.009-2.839,3.87-5.016,2.936-8.1-.209-.691-.292-1.418-.451-2.125-2.4-10.65-4.236-21.49-10.818-30.685-.7-.976-1.135-1.861-2.508-1.762-1.436.1-1.742,1.133-2.125,2.232-2.514,7.209-5.02,14.422-7.622,21.6-1.114,3.071-2.5,6.044-3.674,9.095-1.107,2.871-5.369,5.406-9.053,4.875a27.487,27.487,0,0,0,2.8-2.17,6.5,6.5,0,0,0,1.953-2.62c1.527-6.734,2.791-13.527,4.315-20.262a163.227,163.227,0,0,0,3.819-33.536c.013-.8-.524-2.174-1.035-2.293a5.114,5.114,0,0,0-2.827.709c-.505.222-.83.832-1.267,1.233-2.475,2.277-4.984,4.518-7.429,6.827-1.028.971-1.912,2.093-2.889,3.12A17.019,17.019,0,0,1,25,1147.758a3.015,3.015,0,0,1-2.522-.432c-.345-.217-.182-1.349-.135-2.06.1-1.53,1.083-2.092,2.463-2.608a6.388,6.388,0,0,0,2.433-2.383A34.082,34.082,0,0,0,29.053,1137c3.444-6.07,6.969-12.1,10.313-18.22,1.216-2.227,1.977-4.7,3.013-7.03.407-.916,1.593-1.8.543-2.765C42.312,1108.419,41.186,1108.418,40.292,1108.165Zm9.153-15.223-.062,1.29a3.525,3.525,0,0,0,1.822,5.455,6.117,6.117,0,0,0,6.412-1.875c1.525-1.944,1.674-5.885.295-7.811-1.032-1.443-4.1-2.216-6.154-1.55A3.459,3.459,0,0,0,49.445,1092.942Zm9.469-8.1a22.7,22.7,0,0,0,1.373-3.892,3.715,3.715,0,0,0-2.483-.991c-.7.163-1.443,1.3-1.67,2.134C55.669,1083.817,57.135,1084.2,58.914,1084.846Z" fill="#fbd761"/>
      <path id="Path_7232" data-name="Path 7232" d="M-.294,1159.787c7.063,2.639,9.3,8.591,6,16.079a52.842,52.842,0,0,1-8.477,13.741,36.458,36.458,0,0,0-2.265,3.147,10.062,10.062,0,0,1,1.873,2.289c.692,1.8-.358,3.069-2.289,2.99-4.879-.2-9.762-.338-14.632-.673a3.959,3.959,0,0,1-2.73-1.439c-.653-.99.014-1.927.883-2.988,1.767-2.154,2.964-4.773,4.433-7.177.912-1.491,1.857-2.965,2.853-4.4.885-1.276.86-2.326-.579-3.112-5.351-2.926-10.893-4.482-17.149-3.562-3.879.571-7.9.2-11.851.28a12.089,12.089,0,0,0-2.712.283c-2.585.658-3.594,2.057-3.586,4.667.014,4.093-.009,8.186,0,12.279a2.272,2.272,0,0,0,.247,1.067c1.142,2.02.776,2.837-1.678,2.91-4.032.12-8.071,0-12.106.039a4.685,4.685,0,0,1-3.271-.813c-1.1-.826-1.276-1.512-.483-2.356a16.653,16.653,0,0,1,3.047-2.476,23.013,23.013,0,0,1,3.02-1.405c-.3-3.877-.712-7.8-.876-11.723-.146-3.5.067-7.014-.028-10.517-.193-7.1,4.031-10.943,10.272-12.4a5.041,5.041,0,0,0,4.17-3.508c.81-2.346,2-4.616,2.427-7.025a40.6,40.6,0,0,0,.109-7.509,13.967,13.967,0,0,0-.343-2.159c-2.4,0-4.748.088-7.085-.023-2.679-.127-5.357-.358-8.02-.678a39.19,39.19,0,0,0-7.268-.54c-2.695.173-3.879-1.045-3.79-3.758.094-2.841-.234-5.72.118-8.52a15.958,15.958,0,0,1,2.089-5.8,2.629,2.629,0,0,1,4.761.268,21.3,21.3,0,0,1,1.667,6.594c.159,1.985,1.074,2.211,2.534,1.878,1.837-.419,3.609-1.165,5.458-1.478,4.513-.763,9.08-1.217,13.571-2.077,2.358-.451,4.631-1.375,5.824-3.88.327-.686,1.383-.987,1.922-1.619a5.282,5.282,0,0,0,1.322-2.354c.071-.442-.737-1.25-1.322-1.537-5.089-2.5-6.923-3.885-6.918-13.069-5.031-2.663-5.532-6.273-4.369-12.314.453-2.354,1.319-2.761,3.665-2.556.573.05,1.138.187,1.45.24.641-4.245,1.29-8.456,1.889-12.674a1.54,1.54,0,0,0-.419-.988c-1.858-2.3-1.232-4.227,1.77-5.074-.131-3.278,1.751-5.026,4.659-6.175,1.775-.7,3.277-2.306,5.076-2.695a33.825,33.825,0,0,1,16.349.814c2.676.745,4.916,2.757,3.245,6.943,5.274,4.049,4.355,10.128,4.964,15.725.106.069.2.19.3.189,2.266-.018,4.462.188,5.439,2.679,1.207,3.081,1.344,6.179-.478,9.094a6.317,6.317,0,0,1-2.22,2.439c-1.8.859-2.45,2.183-2.93,4.009a28.778,28.778,0,0,1-8.639,13.61c.5,2.174.933,4.378,1.518,6.541.76,2.815,2.183,4.984,5.367,5.622,3.6.72,7.12,1.831,10.73,2.452a38.373,38.373,0,0,0,6.37.063c.887-1.935,1.758-3.9,2.691-5.842.647-1.344,1.839-2.475,3.222-1.959a4.015,4.015,0,0,1,2.193,2.829,90.869,90.869,0,0,1,.1,11.8c-.13,2.206-1.284,2.616-3.574,2.861-1.515.162-2.929,1.208-4.449,1.415-4.679.64-9.388,1.066-13.968,1.563-.508,5.6-1.031,11.38-1.554,17.156-.519,1.013-1.038,2.027-1.737,3.39Zm-20.343,12.566-.021-.053,8.712,4.384c1.54,2.635,1.342,4.433-.459,7.045-1.254,1.819-2.278,3.8-3.405,5.7l-1.278,2.073c1.45.309,2.744.49,3.977.868,2.263.695,3.964.21,5.221-1.907a21.844,21.844,0,0,1,2.587-3.442,42.685,42.685,0,0,0,8.418-14.447c1.583-4.438-.384-9.178-5.759-9.47-1.4-.476-2.79-1.294-4.213-1.36-3.449-.162-6.957.391-10.365,0-6.561-.761-13.183-1.265-19.552-3.282-5.129-1.624-10.431-1.254-15.565-.345-4.066.72-6.773,3.424-6.815,8.188-.02,2.36-.223,4.726-.113,7.078.278,5.947.686,11.887,1.043,17.853h4.292v-5.422c0-1.841.13-3.693-.028-5.52a7.981,7.981,0,0,1,7.464-8.631c1.9-.076,3.8-.162,5.7-.244,2.753-.04,5.525.1,8.257-.163a26.677,26.677,0,0,1,11.584.953A.273.273,0,0,0-20.637,1172.353Zm-36.075-41.91c1.973.032,3.949.158,5.917.073,2.426-.1,4.845-.382,7.266-.59a1.993,1.993,0,0,1,2.451,1.933c.034.722-.637,1.477-.989,2.217l-.622-.205c1.178,6.995.521,13.71-3.129,19.942,2.3.172,4.292.159,6.227.495,5.426.944,10.8,2.214,16.247,3.009,4.73.69,9.529.906,14.3,1.331.565-.583,1.351-1.068,1.659-1.765,2.069-4.671,2.023-9.645,1.993-14.625-.014-2.344.218-4.689.339-7.035l.427-.645a8.779,8.779,0,0,1,1.848-.449c3.825-.093,7.651-.127,11.4-.18v-4.432L-.3,1127.7l-6.589-1.626-2.812-1.638c-1.181-1.84-2.363-3.679-3.555-5.535-1.1,1.873-2.13,3.936-4.714,3.906a89.173,89.173,0,0,1-9.869-.448c-2.139-.263-4.441-.755-5.47-2.993-.685.625-1.287,1.22-1.937,1.759-3.2,2.657-7.128,3.237-11.049,3.759-3.687.49-7.5.223-10.974,1.925l-4.231.891c-.482,1.721.192,2.368,1.685,2.439C-58.777,1130.187-57.746,1130.337-56.712,1130.443Zm27.053-17.216c2.106.18,4.176.285,6.226.551,2.683.349,4.635-.826,6.445-2.631,1.367-1.363,2.928-2.53,4.386-3.8a4.378,4.378,0,0,0,.769-.9,71.851,71.851,0,0,0,4.328-6.8c1.059-2.111,2.3-4.316,1.415-6.932-.4-1.191.5-1.5,1.472-1.475,2.96.065,5.179-2.967,4.777-6.028-.3-2.249-1.013-2.829-3.235-2.423-2.75.5-3.416-.132-3.478-3.06-.061-2.86-.239-5.717-.369-8.661a24.326,24.326,0,0,1-3.323.813c-2.082.2-4.336.76-6.224.192a16.027,16.027,0,0,0-4.9-.471c-2.936.006-5.922.442-8.8.05-5.552-.757-6.008-.512-6.32,5.191-.158,2.89-.44,5.779-.819,8.648-.306,2.317-1.9,2.935-3.668,1.555-.4-.316-.772-.679-1.5-1.32a42.073,42.073,0,0,0,.091,6.122,3.254,3.254,0,0,0,1.925,2.2c2.416.614,2.925,2.2,2.738,4.281-.428,4.732.945,8.191,5.936,9.738C-28.584,1109.052-28.979,1110.57-29.659,1113.227Zm.276,3.463-.511.335c.463.387.894,1.059,1.394,1.116,3.2.363,6.4.658,9.614.837,1.733.1,1.85-1.031,1.521-2.288Zm-38.788,12.435,2.909.673c-.149-1.349.138-2.9-.507-3.672a5.812,5.812,0,0,1-1.589-4.568,6.945,6.945,0,0,0-.267-1.732l-.546.052Zm50.984-70.432,6.393,2.577C-10.722,1059.091-12.136,1058.479-17.187,1058.693Zm29.119,74.54,2.488-.563c-.668-1.39.513-3.8-2.488-3.336Zm5.674-9.66c-1.794,2.05-.878,3.7,0,5.737Zm-35.782-65.106,0-.179h-2.645l.007.179Z" fill="#232424"/>
      <path id="Path_7233" data-name="Path 7233" d="M-71.786,1060.534c-4.664,7.438-9.526,14.757-12.648,23.057a14.32,14.32,0,0,0-.666,6.517c.351,4.267.857,8.738-1.768,12.487a45.994,45.994,0,0,1-6.174,6.576c-1.137,1.084-2.429.321-3.34-.564-.234-.228.063-1.405.46-1.8,1.421-1.43,3.019-2.681,4.493-4.06a8.435,8.435,0,0,0,2.741-6.714c-.169-3.793-.085-7.717-1.062-11.328-1.542-5.7-4.444-10.716-10.592-12.81a7.45,7.45,0,0,0-1.9-.463c-7.442-.456-14.884-.67-22.083,1.749-4.586,1.541-6.717,4.623-6.763,9.5-.044,4.592-.01,9.185-.01,13.725,2.981,1.41,2.894,1.385,2.015,4.454a15.566,15.566,0,0,0-.311,3.912q-.258,12.576-.464,25.154c-.013.725.053,1.452.083,2.178.062,1.2-.8,2.707,1.116,3.271.946,1.631,1.821,3.309,2.855,4.882,1.453,2.21,3.556,2.682,5.246.9.8-.849.783-2.48,1.126-3.724-3.886-1.267-4.009-1.271-3.889-4.829.108-3.215.573-6.416.794-9.629.3-4.332.5-8.671.771-13.005.057-.912-.035-2.034.452-2.665a3.513,3.513,0,0,1,2.519-1.232c.51.011,1.437,1.256,1.413,1.919-.09,2.531-.539,5.046-.765,7.574-.516,5.779-.979,11.561-1.474,17.456,2.53.547,3.555,2.139,3.734,4.609.249,3.448-.768,6.073-4.042,7.565-2.224,1.013-4.413,1.3-6.517-.313-.313-.24-.673-.418-1.011-.627-1.713-2.211-3.551-4.337-5.08-6.667a7.2,7.2,0,0,1-1.112-3.833c.1-6.9.4-13.8.577-20.7.111-4.233.134-8.469.189-12.7,0-.254.035-.626-.11-.747-2.736-2.294-1.57-5.4-1.689-8.208a77,77,0,0,1-.059-8.805c.531-7.283,3.716-11.376,11.04-13.385,7.374-2.022,15.021-2.082,22.569-1.278,5.407.576,9.2,3.994,11.823,8.695.728,1.306,1.462,2.608,2.265,4.039l4.8-9.383,3.376-5.661c.314-.495.635-.985.94-1.486,1.727-2.841,3.739-5.36,2.368-9.3a13.962,13.962,0,0,1,.191-7.889c.993-3.515,6.769-5.565,10.757-4.453a9.51,9.51,0,0,1,6.217,5.35c1.4,2.9,1.045,6.168-1.54,7.812-3.258,2.071-4.258,5.31-5.6,8.467-.36.846-.644,1.725-.962,2.59.007.216.015.431.022.647l.377-.193c.414-.11.969-.086,1.218-.35a5.2,5.2,0,0,1,7.211-.684,3.114,3.114,0,0,1-3.941,2.393c-.883,4.392-1.507,4.672-5.479,2.555-1.156-.616-1.342.156-1.511.995q-1.032,2.969-2.063,5.938l0-.005-.411,1.212.032-.032-.384.612-.1.06.041.1c-1.844,5.32-3.863,10.588-5.5,15.973-3.279,10.813-6.091,21.774-9.614,32.5-1.681,5.119-.746,10.252-1.492,15.345-1.232,8.407-2.026,16.88-2.949,25.33-.308,2.819-.469,5.654-.654,8.484-.223,3.416-.4,6.834-.6,10.321,2.236,1.571,4.614,3.2,6.942,4.9a3.559,3.559,0,0,1,1.675,3.933c-.469,1.516-2.02,1.577-3.445,1.728-1.592.17-3.156.608-4.735.914a2.987,2.987,0,0,1-.785.021c-2.557-.188-5.112-.418-7.671-.568-2.207-.129-3-1.114-3.2-3.324-.676-7.606-1.482-15.2-2.242-22.8-.046-.457-.12-.912-.19-1.366-.576-3.736-1.013-7.5-1.775-11.2-.7-3.379-1.764-4.061-5.361-4.234-3.174-.154-3.009-.129-3.222,3.024-.539,7.949-1.235,15.888-1.912,23.826-.168,1.971-.435,3.938-.774,5.886a8.8,8.8,0,0,0,1.6,7.273,11.116,11.116,0,0,1,1.224,2.462c1.139,2.677.158,4.6-2.656,4.6a20.145,20.145,0,0,1-12.048-3.715,4.908,4.908,0,0,1-1.636-3.524c0-8.689.117-17.38.394-26.064.24-7.507.738-15.006,1.131-22.508.085-1.617,1.129-2.25,3.418-2.114l.15,4.93c-.169,2.881-.4,5.761-.5,8.645q-.325,9.356-.538,18.715c-.117,5.448-.143,10.9-.21,16.346l-.422,2.849,5.439,1.928,3.638,1.056.332-.607-1.784-2.617c-2.067-3.623-.954-7.406-.575-11.159.754-7.452,1.51-14.9,2.2-22.362.236-2.561.155-5.153.464-7.7.1-.8.97-2.114,1.534-2.139a47.1,47.1,0,0,1,8.825.262c1.983.29,3.069,2.087,3.82,3.952a45.419,45.419,0,0,1,2.674,13.447c.444,5.367,1.286,10.7,1.872,16.057.307,2.8.434,5.622.659,8.661h12.236l-1.028-.926-.529-.38.026.017-.81-.422.019.012-.812-.413.021.013L-94.8,1190.9c-1.589-.835-2.269-1.794-.988-3.561a5.692,5.692,0,0,0,.541-2.859c.294-5.259.44-10.529.838-15.78.185-2.454.941-4.859,1.232-7.311.591-4.967,1.139-9.943,1.524-14.929.406-5.251.479-10.529.949-15.773a37.726,37.726,0,0,1,1.6-6.411c1.452-5.306,2.737-10.668,4.438-15.894,3.463-10.646,7.02-21.264,10.8-31.8,2.456-6.845,5.348-13.535,8.127-20.26a3.788,3.788,0,0,1,1.74-1.659c2.37-1.205,3.278-2.731,2.752-4.783-.744-2.907-3.575-4.7-5.562-4.362-.649.11-1.305.18-1.953.3-2.97.533-3.963,1.692-3.926,4.659.018,1.367.126,2.733.2,4.162h3.017l.44.386-.013-.014c.5,1.569-.239,2.725-1.245,3.807C-70.814,1059.366-71.291,1059.958-71.786,1060.534Z" fill="#272621"/>
      <path id="Path_7234" data-name="Path 7234" d="M40.292,1108.165c.894.253,2.02.254,2.63.816,1.05.967-.136,1.849-.543,2.765-1.036,2.331-1.8,4.8-3.013,7.03-3.344,6.124-6.869,12.15-10.313,18.22a34.082,34.082,0,0,1-1.812,3.279,6.388,6.388,0,0,1-2.433,2.383c-1.38.516-2.361,1.078-2.463,2.608-.047.711-.21,1.843.135,2.06a3.015,3.015,0,0,0,2.522.432,17.019,17.019,0,0,0,3.043-2.951c.977-1.027,1.861-2.149,2.889-3.12,2.445-2.309,4.954-4.55,7.429-6.827.437-.4.762-1.011,1.267-1.233a5.114,5.114,0,0,1,2.827-.709c.511.119,1.048,1.492,1.035,2.293a163.227,163.227,0,0,1-3.819,33.536c-1.524,6.735-2.788,13.528-4.315,20.262a6.5,6.5,0,0,1-1.953,2.62,27.487,27.487,0,0,1-2.8,2.17c3.684.531,7.946-2,9.053-4.875,1.177-3.051,2.56-6.024,3.674-9.095,2.6-7.178,5.108-14.391,7.622-21.6.383-1.1.689-2.128,2.125-2.232,1.373-.1,1.809.786,2.508,1.762,6.582,9.195,8.418,20.035,10.818,30.685.159.707.242,1.434.451,2.125.934,3.084-.927,5.261-2.936,8.1a73.866,73.866,0,0,0,8.024-.906c.608-.13,1.257-1.677,1.294-2.6.35-8.841.42-17.7.887-26.53.295-5.592,1.133-11.154,1.717-16.731.186-1.768.025-3.646.581-5.285a50.88,50.88,0,0,0,1.705-8.117c.155-.925,1.022-1.713,1.459-2.614a3.232,3.232,0,0,0,.453-1.8,44.276,44.276,0,0,0-1.256-4.946c-.952-3.07-2.08-6.09-2.91-9.191a2.793,2.793,0,0,1,.951-2.363c1.041-.754,1.687.2,1.974,1.15,1.585,5.276,3.2,10.546,4.657,15.857a3.474,3.474,0,0,1-1.555,4.11c-1.2.8-.987,4.957.1,5.849,1.283,1.05,3.6-.177,3.894-2.271a37.45,37.45,0,0,0,.454-6.9c-.26-5.9-.7-11.793-1.125-17.685-.091-1.27-.4-2.525-.683-4.234.858.56,1.316.859,1.773,1.159l-.009-.021.45.682c1.746.634,2.045,2.125,2.267,3.714a95.085,95.085,0,0,1,.733,21.63c-.279,3.147-.83,6.525-4.663,7.412-1.694.392-3.554.066-5.484.066-.522,4.246-1.4,9.008-1.641,13.8-.593,11.564-.892,23.144-1.313,34.716-.1,2.886-2,4.549-5.559,4.93-.635.068-1.263.211-1.894.319l-7.143.005c-1.807-1.165-2.433-2.617-1.192-4.594.851-1.357,1.655-2.744,2.431-4.144a2.068,2.068,0,0,0,.265-1.212c-1.52-10.136-4.961-19.68-9-29.037-.127-.295-.267-.584-.487-1.062-.331.384-.653.608-.766.91-3.467,9.25-6.788,18.558-10.464,27.723a11.507,11.507,0,0,1-4.371,4.879,13.578,13.578,0,0,1-9.2,2.215c-1.972-.252-2.868-1.478-2.342-3.4.684-2.492,1.858-4.579,4.429-5.634.393-.161.692-.871.8-1.376,2.175-10.584,4.49-21.144,6.379-31.78.789-4.439.68-9.04.924-13.57a12.348,12.348,0,0,0-.561-2.541c-2.4,3.428-6.16,4.571-7.985,7.9a8.278,8.278,0,0,1-5.24,4.434c-4.641,1.2-8.386-2.3-7.367-6.95a10.129,10.129,0,0,1,.838-3c.538-.907,1.52-2.22,2.277-2.2,2.083.057,2.556-1.291,3.308-2.654,4.129-7.479,8.32-14.923,12.445-22.4C38.3,1112.357,39.259,1110.241,40.292,1108.165Z" fill="#272520"/>
      <path id="Path_7235" data-name="Path 7235" d="M77.588,1099.54c-.48-1.007-.1-1.685.512-2.616,2.168-3.276,5.053-3.506,8.477-2.638a22.365,22.365,0,0,1,10.032,5.729,5.31,5.31,0,0,0,2.886,1.391c3.655.366,6.366,1.89,7.943,5.334,1.6,3.489,1.351,6.626-1.381,9.446a3.676,3.676,0,0,0-.365.8,33.3,33.3,0,0,1,4.806.789,31.678,31.678,0,0,1,4.3,2.055c2.862-2.388,5.372-2.3,7.826.9,1.822,2.381,3.07,5.2,4.651,7.772a5.175,5.175,0,0,0,1.746,1.82c3.466,1.912,4.3,5.243,4.557,8.7.508,6.912-3.081,12.226-7.283,17.187a66.457,66.457,0,0,1-4.865,4.953,12.23,12.23,0,0,1-2.018,1.3l-.566-.444a5,5,0,0,1,.689-1.707,41.278,41.278,0,0,1,3.876-3.548c4.174-3.309,6.642-13.062,4.428-17.9a25.413,25.413,0,0,0-1.722-2.63c-.545.875-.879,1.513-1.307,2.08-1.055,1.4-2.128.963-2.813-.264-.739-1.325-1.7-2.792.031-4.224a1.54,1.54,0,0,0,.233-1.4,17.552,17.552,0,0,0-5.525-7.812l-4.439,4.188c.051.015-.161.009-.185-.062-1.759-5.087-5.88-6.107-10.575-6.235a11.262,11.262,0,0,1-2.449-.621,14.387,14.387,0,0,1,1.324-2.434c1.383-1.7,3.411-2.887,3.077-5.65-.422-3.5-3.859-6.892-7.368-6.762-.608.022-1.17.675-1.8.915a10.067,10.067,0,0,1-3.112.9c-.373.011-1.106-1.179-1.091-1.806.019-.779.645-1.543,1.149-2.613-3.749-3.412-8.2-5.533-13.7-4.928Z" fill="#fdd965"/>
      <path id="Path_7236" data-name="Path 7236" d="M44.581,1080.305a37.691,37.691,0,0,0,3.282,2.508c3,1.827,2.854,2.994.821,4.9-.507.474-.93,1.2-1.524,1.384-1.562.489-2.448-.38-2.542-2.27-.07-1.4-2.2-3.829-3.572-4.063-1-.172-2.588,2.092-2.839,3.77-.538,3.59,1.274,6.336,3.123,9.068.883,1.3,2.187,2.4,2.77,3.807a14.282,14.282,0,0,1,.957,5.226c.005.509-1.458,1.032-2.249,1.548a7.421,7.421,0,0,1-.873-1.926c-.184-1.306.434-2.829-1.2-3.649-1.651-2.679-3.228-5.407-4.972-8.023-1.981-2.97-1.512-5.9-.177-8.887.237-.53.5-1.049.749-1.572l1.684-1.97c.27-2.278,2.833-1.868,3.843-3.278l4.524-2.422c2.564-.756,5.144-1.463,7.683-2.3.786-.258,1.42-.955,2.194-1.286a5.431,5.431,0,0,1,2.55-.639c.523.061.947.965,1.689,1.8a10.984,10.984,0,0,1,6.937,3.461,46.4,46.4,0,0,1,6.854,9.259c2.413,4.645,1.774,8.357-2.643,12.173l5.941,2.62-.02-.019a4.975,4.975,0,0,0,1.143.98c2.261.949,2.108,2.693,1.6,4.582-.423.032-.953.241-1.248.062-.952-.576-1.82-1.291-2.714-1.961a13.512,13.512,0,0,0-6.039-2.386,17.318,17.318,0,0,1-4.954-2.027c-.93-.493-.361-1.913,1.038-2.789a23.418,23.418,0,0,0,3.1-2.026,6.327,6.327,0,0,0,1.68-7.809c-1.875-3.886-4.33-7.478-8.17-9.585a10.347,10.347,0,0,0-5.808-.839c-1.358.15-2.573,4.186-2.585,5.741a6.227,6.227,0,0,1-1.2,3.244c-.21.306-1.534.049-2.215-.253a1.681,1.681,0,0,1-.645-1.464c.464-2.287,1.076-4.543,1.658-6.9l-.647.294c-1.958.74-3.927,1.453-5.862,2.247-.336.137-.531.618-.79.94l.05-.062-1.013.283Z" fill="#252420"/>
      <path id="Path_7237" data-name="Path 7237" d="M-66.274,1033.93c-1.271.256-2.577.8-3.567-.634-.727-1.052-.849-1.583.643-2.274a47.255,47.255,0,0,0,7.176-4.267c2.2-1.546,2.108-3.938,1.539-6.25a2.632,2.632,0,0,0-2.736-2.119c-.924-.005-2.014.241-2.729-.161a9.829,9.829,0,0,1-2.136-2.355,12.219,12.219,0,0,1,2.234-1.26,18.949,18.949,0,0,1,2.909-.462,26.945,26.945,0,0,0,11.526-5.1c1.186-.846,1.978-1.9,1.555-3.523a1.8,1.8,0,0,1,.24-1.475,5.008,5.008,0,0,1,2.344-1.608c1.356-.19,1.393,1.1,1.431,2.086a8.88,8.88,0,0,0,4.747,7.518c4.052,2.416,7.573,1.674,11.318-2.07.8-.8,1.412-1.995,2.876-1.082,1.3.808,1.587,1.735,1.157,3.306-1.155,4.209-.39,7.318,2.471,8.766,3.591,1.818,7.482,2.529,11.462,1.011.491-.187.979-.675,1.426-.627a26.01,26.01,0,0,1,3.212.718q-.678,1.277-1.358,2.552c-2.98,1.352-6.088,2.338-9.351,1.606a29.11,29.11,0,0,1-8.135-2.642,7.523,7.523,0,0,1-3.63-8.225,34.718,34.718,0,0,1-5.722,1.761c-4.71.6-8.4-1.487-11.383-4.989-.649-.761-1.157-1.252-2.282-.533-2.963,1.893-6.029,3.626-9.067,5.43,2.589,4.921,2.186,9.008-1.8,12.624C-61.779,1031.352-64.136,1032.52-66.274,1033.93Z" fill="#272621"/>
      <path id="Path_7238" data-name="Path 7238" d="M-66.274,1033.93c2.138-1.41,4.5-2.578,6.37-4.279,3.986-3.616,4.389-7.7,1.8-12.624,3.038-1.8,6.1-3.537,9.067-5.43,1.125-.719,1.633-.228,2.282.533,2.985,3.5,6.673,5.589,11.383,4.989a34.718,34.718,0,0,0,5.722-1.761,7.523,7.523,0,0,0,3.63,8.225,29.11,29.11,0,0,0,8.135,2.642c3.263.732,6.371-.254,9.351-1.606a7.108,7.108,0,0,1-7.618,3.755c-3.393-.4-6.846-.473-10.181-1.147-5.727-1.158-6.917-2.858-7.035-8.675-2.1,1.159-3.908,2.287-5.833,3.173a6.083,6.083,0,0,1-3.144.55c-2.381-.308-3.922-1.936-5.292-3.813a3.638,3.638,0,0,0-2.159-1.385c-.347-.053-.886,1.17-1.337,1.815-1.493,2.136-.876,4.541-.763,6.839a4.419,4.419,0,0,1-1.762,4.12c-.942.711-1.84,1.481-2.9,2.342l-1.145-1.864c-1.024,1.069-2.015,2.074-2.97,3.111a4.559,4.559,0,0,1-4.416,1.645C-65.545,1034.993-65.883,1034.33-66.274,1033.93Z" fill="#fbd763"/>
      <path id="Path_7239" data-name="Path 7239" d="M-114.76,1007.492c.024-.174.082-.636.148-1.1.209-1.467,1.2-1.937,2.528-1.364.638.276,1.492.068,2.113.364a10.116,10.116,0,0,1,2.593,1.81,11.241,11.241,0,0,1-1.234,2.024c.463,1.144.872,2.567,2.793,3.2,2.061.68.357,1.981.083,3.03.565,1.095,1.076,2.236,1.722,3.3.83,1.363.142,2.342-.838,3.05-1.236.894-1.564-.511-2.018-1.151a25.831,25.831,0,0,1-1.6-2.988l-1.861,1.2a2.878,2.878,0,0,1-.6,4.458c-.371.27-1.9-1.056-3.354-1.921-2.528.5-3.93.063-4.321-1.7-.436-1.959.043-2.584,2.61-3.329l-1.718-3.084a30.014,30.014,0,0,0-2.44,2.264c-.882,1.019-1.836,1.638-3.056.749-1.3-.949-.523-1.965.147-2.887a5.162,5.162,0,0,1,1.266-1.479,3.828,3.828,0,0,0,2.225-3.679c-.018-.659.964-1.88,1.527-1.9C-117.06,1006.319-116.041,1007.005-114.76,1007.492Zm2.586,7.841c2.316-1.529,2.3-1.938-.042-5.036l-2.085,1.173Z" fill="#232424"/>
      <path id="Path_7240" data-name="Path 7240" d="M37.388,1023.916c-1.655.606-3.288,1.281-4.971,1.8-1.525.467-3.157.25-3.923-1.178a3.765,3.765,0,0,1,.105-3.2c2.141-3.416,4.51-6.693,6.87-9.967a2.274,2.274,0,0,1,1.661-.952,4.1,4.1,0,0,1,2.586,1.113c.6.78.292,1.7-.858,2.38-.823.49-1.211,1.717-1.78,2.624-.809,1.29-1.606,2.588-2.407,3.882l-.263.319.474-.022c1.878-.771,3.773-1.5,5.628-2.324a2.606,2.606,0,0,1,3.449.9,3.554,3.554,0,0,1-.228,3.229c-3.613,4.525-7.374,8.935-11.21,13.275-1.16,1.312-2.526.483-3.31-.625-.254-.361.29-1.563.771-2.121,2.561-2.976,5.218-5.87,7.841-8.793l.364-.672Z" fill="#262626"/>
      <path id="Path_7241" data-name="Path 7241" d="M-88.387,1027.414c1.486,1.007,2.739,1.811,3.937,2.691a3.287,3.287,0,0,1,1.291,1.384,2.633,2.633,0,0,1-.223,2.026,1.871,1.871,0,0,1-1.77.144c-1.979-1.108-3.867-2.379-5.954-3.7-.157.137-.564.779-.931.757a16.159,16.159,0,0,1-2.829-.637c.179-.635.173-1.443.574-1.869a2.479,2.479,0,0,0,.613-3.072,9.465,9.465,0,0,1,1.818-10.057,4.44,4.44,0,0,1,5.134-1.319c.662.3,1.564.957,1.633,1.537.422,3.545,2.874,5.673,5.27,7.793,1.134,1,1.591,2.157.833,3.238-.384.548-1.783.558-2.71.518C-83.8,1026.762-85.937,1025.653-88.387,1027.414Zm-1.987-4.68c.689-1.781,1.379-3.561,2.177-5.623C-90.352,1018.087-91.049,1019.806-90.374,1022.734Z" fill="#252525"/>
      <path id="Path_7242" data-name="Path 7242" d="M72.95,1016.375c0-3.037.019-6.073-.006-9.11-.021-2.457,1.7-5.606,3.456-6.239,2.318-.833,5.39-.168,6.772,1.466a6.211,6.211,0,0,1,.394,7.331c-1.85,2.6-4.15,4.883-6.2,7.348a3.5,3.5,0,0,0-.916,1.873c-.078,2.3.029,4.614.057,6.922.02,1.615-1.243,1.88-2.382,2.041-1.241.174-1.28-.8-1.276-1.718.013-3.3,0-6.61,0-9.914Zm3.446-3.847.741.347c1.221-1.814,2.563-3.561,3.593-5.476a2.821,2.821,0,0,0-.266-2.53,2.558,2.558,0,0,0-2.315-.392c-.491.171-.849,1.19-.965,1.882C76.841,1008.4,76.648,1010.47,76.4,1012.528Z" fill="#262626"/>
      <path id="Path_7243" data-name="Path 7243" d="M50.544,1010.985c-1.328.725-2.417,1.288-3.475,1.905-1.215.709-2.31.636-3.048-.6-.7-1.182-.005-1.959,1.034-2.51,3.849-2.045,7.692-4.1,11.55-6.124,1.464-.769,2.479.1,3.018,1.257.172.369-.617,1.654-1.174,1.819-3.71,1.1-4.117,3.708-4,7.089.173,5.189-.09,10.4-.332,15.591a3.178,3.178,0,0,1-1.535,2.14c-1.635.9-2.361.249-2.311-1.65.159-5.915.272-11.832.4-17.748C50.668,1011.891,50.612,1011.629,50.544,1010.985Z" fill="#272727"/>
      <path id="Path_7244" data-name="Path 7244" d="M67.1,1005.393c3.756.006,5.426,1.919,4.628,4.994-.991,3.817-1.8,7.665-4.059,10.97a10.754,10.754,0,0,1-2.747,2.763,2.944,2.944,0,0,1-4.74-2.323c-.17-2.612,0-5.244-.058-7.865-.021-.952-.376-1.9-.378-2.847a3.182,3.182,0,0,1,.551-1.972A11,11,0,0,1,67.1,1005.393Zm1.524,3.508c-2.491-.092-5.006,1.4-5.111,3.146-.181,2.982-.05,5.984-.05,9.3C66.823,1017.717,67.7,1013.408,68.62,1008.9Z" fill="#262626"/>
      <path id="Path_7245" data-name="Path 7245" d="M-71.472,1079.959l-.041-.1.1-.061c.128-.2.256-.408.384-.611l-.032.032.411-1.212,0,.005c.947-1.7,1.913-3.387,2.8-5.117.06-.117-.477-.54-.736-.821.169-.839.355-1.611,1.511-.995,3.972,2.117,4.6,1.837,5.479-2.555a3.114,3.114,0,0,0,3.941-2.393,12.225,12.225,0,0,1,1.916.357c1,.352,1.38,1.019.608,1.954-2.971,3.6-5.544,7.687-9.084,10.595a75.119,75.119,0,0,1-6.765,5.578Z" fill="#fbd763"/>
      <path id="Path_7246" data-name="Path 7246" d="M20.943,1022.886c.768.411,1.573.584,1.685.962a2.324,2.324,0,0,1-.386,1.787c-2.653,3.574-5.361,7.107-8.087,10.625-1.321,1.706-2.862,3.258-4.039,5.053a36.936,36.936,0,0,0-2.826,5.533c-.555,1.274-1.4,1.9-2.58,1.234-1.114-.631-1.907-1.8-1.039-3.136,1.471-2.258,3.036-4.46,4.663-6.609q5.24-6.927,10.6-13.761A12.7,12.7,0,0,1,20.943,1022.886Z" fill="#272727"/>
      <path id="Path_7247" data-name="Path 7247" d="M93.312,1006.912c0-3.99-.075-7.982.053-11.968a5.54,5.54,0,0,1,1.18-2.855,2.057,2.057,0,0,1,1.867-.325,1.836,1.836,0,0,1,.892,1.487c-.268,3.639-.666,7.268-1.016,10.9-.094.984.1,2.108-.319,2.918-.4.776-1.429,1.227-2.181,1.821l-1.317-1.719Z" fill="#292929"/>
      <path id="Path_7248" data-name="Path 7248" d="M-26.62,1040.086c0,2.279-.554,2.323-2.2,2.087a27.05,27.05,0,0,0-6.183.153c-.382.035-.792.818-1.015,1.331a1.769,1.769,0,0,1-2.613.972c-1.051-.5-1.082-1.467-.556-2.534.933-1.9,2.216-3.31,4.448-3.4a46.367,46.367,0,0,1,6.446.057C-27.582,1038.826-26.96,1039.8-26.62,1040.086Z" fill="#292929"/>
      <path id="Path_7249" data-name="Path 7249" d="M-36.781,1031.217c1.377.246,2.73.447,4.062.743a4.849,4.849,0,0,1,1.93.753c.441.346.98,1.226.822,1.529a2.214,2.214,0,0,1-1.618,1.131,31.127,31.127,0,0,1-6.756-.984c-2.233-.69-2.872-4.621-1.146-6.294a2.669,2.669,0,0,1,2.145-.4c.4.091.746.973.852,1.549A6.827,6.827,0,0,1-36.781,1031.217Z" fill="#292929"/>
      <path id="Path_7250" data-name="Path 7250" d="M-39.074,1037.589a63.066,63.066,0,0,1-3.872,6.483c-.365.486-1.947.058-2.97.05a10.293,10.293,0,0,1,.6-2.176c.688-1.322,1.635-2.516,2.237-3.87.218-.488-.155-1.321-.424-1.924-.312-.7-1.015-1.277-1.154-1.985a2.314,2.314,0,0,1,.622-1.846c.362-.332,1.565-.425,1.735-.175C-41.19,1033.786-40.253,1035.547-39.074,1037.589Z" fill="#292929"/>
      <path id="Path_7251" data-name="Path 7251" d="M46.383,1074.452l-4.524,2.422c-1.551-1.972.29-3.349.865-4.948q.6-1.009,1.209-2.019c.695-.536,1.45-.838,1.733.306C46.01,1071.6,46.153,1073.037,46.383,1074.452Z" fill="#fbd763"/>
      <path id="Path_7252" data-name="Path 7252" d="M-101.49,1051.1c-.7,1.164-1.4,2.329-1.994,3.319l-9.246-2.547A26.128,26.128,0,0,1-101.49,1051.1Z" fill="#fbd763"/>
      <path id="Path_7253" data-name="Path 7253" d="M94.594,1015.706c-.155,2.942-.922,4.308-2.246,4.119-1.751-.25-2.4-1.287-2.024-3.252C90.652,1014.848,91.166,1014.736,94.594,1015.706Z" fill="#181716"/>
      <path id="Path_7254" data-name="Path 7254" d="M43.933,1069.907q-.6,1.009-1.209,2.019l-3.18-1.863c.878-1.167,1.522-2.023,2.36-3.135Z" fill="#292929"/>
      <path id="Path_7255" data-name="Path 7255" d="M62.059,1201.879l7.143-.005c-1.976,2.76-1.979,2.767-4.837,1.3C63.581,1202.772,62.827,1202.313,62.059,1201.879Z" fill="#fbd763"/>
      <path id="Path_7256" data-name="Path 7256" d="M38.016,1080.152l-1.684,1.97v-9.361l.646-.021c.048.842.039,1.691.154,2.522C37.36,1076.9,36.126,1078.815,38.016,1080.152Z" fill="#bce8fd"/>
      <path id="Path_7257" data-name="Path 7257" d="M-.294,1159.787l-4.185-.915c.7-1.363,1.218-2.377,1.737-3.39.491.754,1.015,1.489,1.463,2.267C-.9,1158.4-.619,1159.106-.294,1159.787Z" fill="#bbe8fc"/>
      <path id="Path_7258" data-name="Path 7258" d="M86.756,1115.285l-.45-.682Z" fill="#fbd761"/>
      <path id="Path_7259" data-name="Path 7259" d="M-96.419,1097.363a7.508,7.508,0,0,1-4.323,6.263c-2.536,1.213-4.72.321-6.651-1.43a30.779,30.779,0,0,1-2.779-2.78,2.076,2.076,0,0,1-.4-1.557,8.724,8.724,0,0,1,11.008-6.215C-97.734,1092.274-96.428,1094.458-96.419,1097.363Zm-5.6-2.708c-2.984.06-5.084,1.547-4.978,3.406.042.742,3.023,2.727,4.079,2.717,1.577-.015,3.406-2.184,3.309-3.981C-99.7,1095.184-100.486,1094.35-102.02,1094.655Z" fill="#26241b"/>
      <path id="Path_7260" data-name="Path 7260" d="M-109.286,1082.5c-.351.524-.65,1.417-1.232,1.679-.4.178-1.294-.411-1.787-.857-1.954-1.766-3.9-3.552-5.7-5.468a2.354,2.354,0,0,1-.324-2.147c.243-.483,1.637-.994,1.888-.773,2.39,2.107,4.65,4.36,6.925,6.595C-109.362,1081.68-109.392,1082.019-109.286,1082.5Z" fill="#28251c"/>
      <path id="Path_7261" data-name="Path 7261" d="M-128.636,1193.7c.067-5.449.093-10.9.21-16.346q.2-9.359.538-18.715c.1-2.884.328-5.764.5-8.645.078,4.071.263,8.143.211,12.212q-.159,12.266-.56,24.527C-127.818,1189.065-128.325,1191.38-128.636,1193.7Z" fill="#f7f4ed"/>
      <path id="Path_7262" data-name="Path 7262" d="M-102.631,1080.975c-1.775.074-2.792-1.094-2.515-2.291.4-1.724,4.345-3.6,6-2.849,1.527.694,1.683,1.628.353,2.59C-100.158,1079.407-101.59,1080.288-102.631,1080.975Z" fill="#28251c"/>
      <path id="Path_7263" data-name="Path 7263" d="M-102.455,1085.81c-.047-2.405,1-4.03,2.182-3.72a3.436,3.436,0,0,1,2.151,1.8c.4,1.159-1.225,3.03-2.262,2.836A8.443,8.443,0,0,1-102.455,1085.81Z" fill="#181716"/>
      <path id="Path_7264" data-name="Path 7264" d="M-108.383,1087.856c.208,1.6-.349,2.53-2,2.486s-1.918-1.16-1.962-2.515c-.039-1.19.232-2.232,1.582-2.187C-109.448,1085.685-107.9,1085.853-108.383,1087.856Z" fill="#181716"/>
      <path id="Path_7265" data-name="Path 7265" d="M-71.786,1060.534c.5-.576.972-1.168,1.489-1.724,1.006-1.082,1.744-2.238,1.245-3.807l2.817-1.6-.017-.018a8.766,8.766,0,0,1-.82,2.548c-1.371,1.912-2.921,3.7-4.575,5.748Z" fill="#ededed"/>
      <path id="Path_7266" data-name="Path 7266" d="M-121.433,1196.311l1.784,2.617-.332.607-3.638-1.056Z" fill="#fbfbfb"/>
      <path id="Path_7267" data-name="Path 7267" d="M-128.661,1135.368c-1.917-.564-1.054-2.075-1.116-3.271.312-.205.625-.409,1.116-.729Z" fill="#fbfbfb"/>
      <path id="Path_7268" data-name="Path 7268" d="M-94.8,1190.9l3.963,2.334Z" fill="#f7f4ed"/>
      <path id="Path_7269" data-name="Path 7269" d="M-69.039,1055.017l-.44-.386q.073-.453.146-.907l.294.022Z" fill="#ededed"/>
      <path id="Path_7270" data-name="Path 7270" d="M-90.86,1193.217l.812.413Z" fill="#f7f4ed"/>
      <path id="Path_7271" data-name="Path 7271" d="M-90.067,1193.618l.81.422Z" fill="#f7f4ed"/>
      <path id="Path_7272" data-name="Path 7272" d="M-89.283,1194.023l.529.38Z" fill="#f7f4ed"/>
      <path id="Path_7273" data-name="Path 7273" d="M-66.235,1053.405a.646.646,0,0,1,.079-.17c.02-.023.084-.008.128-.011-.074.055-.149.109-.224.163Z" fill="#ededed"/>
      <path id="Path_7274" data-name="Path 7274" d="M49.445,1092.942a3.459,3.459,0,0,1,2.313-4.491c2.051-.666,5.122.107,6.154,1.55,1.379,1.926,1.23,5.867-.295,7.811a6.117,6.117,0,0,1-6.412,1.875,3.524,3.524,0,0,1-1.822-5.454c2.695-1.33,2.092,1.624,3.1,2.462.557-.124,1.262-.069,1.532-.385a5.224,5.224,0,0,0,1.331-2.373c.1-.668-.361-1.9-.844-2.059-.649-.214-1.55.4-2.36.589C51.256,1092.67,50.347,1092.787,49.445,1092.942Z" fill="#28251c"/>
      <path id="Path_7275" data-name="Path 7275" d="M49.445,1092.942c.9-.155,1.811-.272,2.7-.475.81-.185,1.711-.8,2.36-.589.483.16.944,1.391.844,2.059a5.224,5.224,0,0,1-1.331,2.373c-.27.316-.975.261-1.532.385-1.012-.838-.409-3.792-3.1-2.462Z" fill="#fbd762"/>
      <path id="Path_7276" data-name="Path 7276" d="M58.914,1084.846c-1.779-.642-3.245-1.029-2.78-2.749.227-.839.967-1.971,1.67-2.134a3.715,3.715,0,0,1,2.483.991A22.7,22.7,0,0,1,58.914,1084.846Z" fill="#181716"/>
      <path id="Path_7277" data-name="Path 7277" d="M44.914,1079.577c.259-.322.454-.8.79-.94,1.935-.794,3.9-1.507,5.862-2.247C50.15,1079.127,47.082,1078.413,44.914,1079.577Z" fill="#fbfbfb"/>
      <path id="Path_7278" data-name="Path 7278" d="M44.581,1080.305l-.63-.507,1.013-.283C44.836,1079.778,44.708,1080.042,44.581,1080.305Z" fill="#fbfbfb"/>
      <path id="Path_7279" data-name="Path 7279" d="M-9.046,1158.648c-4.769-.425-9.568-.641-14.3-1.331-5.446-.8-10.821-2.065-16.247-3.009-1.935-.336-3.93-.323-6.227-.495,3.65-6.232,4.307-12.947,3.129-19.942l.622.205c.352-.74,1.023-1.495.989-2.217a1.993,1.993,0,0,0-2.451-1.933c-2.421.208-4.84.486-7.266.59-1.968.085-3.944-.041-5.917-.073,1.026-2.448,3.634-2.372,5.516-3.636h-6.072c3.474-1.7,7.287-1.435,10.974-1.925,3.921-.522,7.848-1.1,11.049-3.759.65-.539,1.252-1.134,1.937-1.759,1.029,2.238,3.331,2.73,5.47,2.993a89.173,89.173,0,0,0,9.869.448c2.584.03,3.612-2.033,4.714-3.906,1.192,1.856,2.374,3.695,3.555,5.535l-2.2.754.032.432,4.977.452L-.3,1127.7c.489,2.249-1.457,4.257-4.953,5.025l.624,1.855c-.142.215-.285.43-.427.646a5.5,5.5,0,0,0-.757,1.733c-.162,3.219.106,6.494-.392,9.652C-6.845,1150.67-8.072,1154.639-9.046,1158.648Z" fill="#bce8fd"/>
      <path id="Path_7280" data-name="Path 7280" d="M-29.659,1113.227c.68-2.657,1.075-4.175-2.12-5.165-4.991-1.547-6.364-5.006-5.936-9.738.187-2.078-.322-3.667-2.738-4.281a3.254,3.254,0,0,1-1.925-2.2,42.073,42.073,0,0,1-.091-6.122c.723.641,1.091,1,1.5,1.32,1.768,1.38,3.362.762,3.668-1.555.379-2.869.661-5.758.819-8.648.312-5.7.768-5.948,6.32-5.191,2.877.392,5.863-.044,8.8-.05a16.027,16.027,0,0,1,4.9.471c1.888.568,4.142.007,6.224-.192a24.326,24.326,0,0,0,3.323-.813c.13,2.944.308,5.8.369,8.661.062,2.928.728,3.563,3.478,3.06,2.222-.406,2.939.174,3.235,2.423.4,3.061-1.817,6.093-4.777,6.028-.974-.022-1.874.284-1.472,1.475.882,2.616-.356,4.821-1.415,6.932a71.851,71.851,0,0,1-4.328,6.8,4.378,4.378,0,0,1-.769.9c-1.458,1.273-3.019,2.44-4.386,3.8-1.81,1.805-3.762,2.98-6.445,2.631C-25.483,1113.512-27.553,1113.407-29.659,1113.227Zm-.043-17.5c.01,4.228,2.555,7.315,6.055,7.345,3.425.03,5.844-2.891,5.815-7.021-.028-3.905-1.612-5.579-5.255-5.552C-28,1090.538-29.711,1091.892-29.7,1095.731Zm17.031-13.607c-.417-.358-1.158-1.516-1.91-1.524a2.492,2.492,0,0,0-2.818,2.385,2.24,2.24,0,0,0,2.163,2.542C-13.974,1085.665-12.722,1084.255-12.671,1082.124Zm-4.005-6.345-.053.184a4.1,4.1,0,0,0-.98.014,15.828,15.828,0,0,0-1.505.532,5.06,5.06,0,0,0,1.438.908,45.192,45.192,0,0,0,4.634.731c.336.038.717-.322,1.077-.5-.216-.285-.38-.739-.657-.825C-14.023,1076.42-15.355,1076.118-16.676,1075.779Zm-10.683,7.311-1.769-1.767c-.582.763-1.479,1.466-1.636,2.309-.108.572.821,1.339,1.287,2.019Zm-.434-6.642-.131.33a21.859,21.859,0,0,0-2.376.029c-.3.033-.573.389-.858.6.25.259.471.693.757.741a9.538,9.538,0,0,0,2.559.15,26.634,26.634,0,0,0,3.013-.654Z" fill="#fbfbfb"/>
      <path id="Path_7281" data-name="Path 7281" d="M-20.952,1172.21a26.677,26.677,0,0,0-11.584-.953c-2.732.268-5.5.123-8.258.163-.154-.118-.307-.338-.462-.339-3.1-.033-6.217-.167-9.314-.007a4.3,4.3,0,0,0-3.729,3.334c-.3,4.466-.516,8.938-.854,13.4a23.223,23.223,0,0,1-.774,3.427h-2.3c-.357-5.966-.765-11.906-1.043-17.853-.11-2.352.093-4.718.113-7.078.042-4.764,2.749-7.468,6.815-8.188,5.134-.909,10.436-1.279,15.565.345,6.369,2.017,12.991,2.521,19.552,3.282,3.408.4,6.916-.158,10.365,0,1.423.066,2.81.884,4.213,1.36.64,2.109,1.383,4.194,1.871,6.338a6.161,6.161,0,0,1-.25,2.893c-.382,1.352-.983,2.642-1.5,3.956a12.464,12.464,0,0,1-.762,1.817c-2.364,4.01-4.833,7.961-7.106,12.021-.856,1.529-2.1,1.121-3.267,1.1-1.1-.021-2.121-.381-2.152-1.8,1.127-1.907,2.151-3.886,3.405-5.7,1.8-2.612,2-4.41.459-7.046l.8-1.571c-1.424-.444-3.049-.453-3.731-1.26-1.683-1.99-3.7-1.654-5.782-1.552l.021.052Z" fill="#bce8fd"/>
      <path id="Path_7282" data-name="Path 7282" d="M-15.81,1189.434c.031,1.417,1.053,1.777,2.152,1.8,1.17.023,2.411.431,3.267-1.1,2.273-4.06,4.742-8.011,7.106-12.021a12.464,12.464,0,0,0,.762-1.817c.517-1.314,1.118-2.6,1.5-3.956a6.161,6.161,0,0,0,.25-2.893c-.488-2.144-1.231-4.229-1.871-6.338,5.375.292,7.342,5.032,5.759,9.47A42.685,42.685,0,0,1-5.3,1187.026a21.844,21.844,0,0,0-2.587,3.442c-1.257,2.117-2.958,2.6-5.221,1.907-1.233-.378-2.527-.559-3.977-.868Z" fill="#fbfbfb"/>
      <path id="Path_7283" data-name="Path 7283" d="M-4.628,1134.578l-.624-1.855c3.5-.768,5.442-2.776,4.953-5.025l8.924,1.819v4.432c-3.754.053-7.58.087-11.4.18A8.779,8.779,0,0,0-4.628,1134.578Z" fill="#fbfbfb"/>
      <path id="Path_7284" data-name="Path 7284" d="M-55.927,1191.237a23.223,23.223,0,0,0,.774-3.427c.338-4.464.553-8.936.854-13.4a4.3,4.3,0,0,1,3.729-3.334c3.1-.16,6.209-.026,9.314.007.155,0,.308.221.462.339-1.9.082-3.8.168-5.7.244a7.981,7.981,0,0,0-7.464,8.631c.158,1.827.027,3.679.028,5.52v5.422Z" fill="#f6f7f8"/>
      <path id="Path_7285" data-name="Path 7285" d="M-29.383,1116.69h12.018c.329,1.257.212,2.385-1.521,2.288-3.211-.179-6.418-.474-9.614-.837-.5-.057-.931-.729-1.394-1.116Z" fill="#bbe8fc"/>
      <path id="Path_7286" data-name="Path 7286" d="M-57.268,1126.807H-51.2c-1.882,1.264-4.49,1.188-5.516,3.636-1.034-.106-2.065-.256-3.1-.306-1.493-.071-2.167-.718-1.685-2.439Z" fill="#f6f7f8"/>
      <path id="Path_7287" data-name="Path 7287" d="M-68.171,1129.125v-9.247l.546-.052a6.945,6.945,0,0,1,.267,1.732,5.812,5.812,0,0,0,1.589,4.568c.645.773.358,2.323.507,3.672Z" fill="#ededed"/>
      <path id="Path_7288" data-name="Path 7288" d="M-9.046,1158.648c.974-4.009,2.2-7.978,2.842-12.039.5-3.158.23-6.433.392-9.652a5.5,5.5,0,0,1,.757-1.733c-.121,2.345-.353,4.69-.339,7.034.03,4.98.076,9.954-1.993,14.625C-7.7,1157.58-8.481,1158.065-9.046,1158.648Z" fill="#fbfbfb"/>
      <path id="Path_7289" data-name="Path 7289" d="M-20.658,1172.3c2.083-.1,4.1-.438,5.782,1.552.682.807,2.307.816,3.731,1.26l-.8,1.571Z" fill="#ededed"/>
      <path id="Path_7290" data-name="Path 7290" d="M-17.187,1058.693c5.051-.214,6.465.4,6.393,2.577Z" fill="#404040"/>
      <path id="Path_7291" data-name="Path 7291" d="M11.932,1133.233v-3.9c3-.459,1.82,1.946,2.488,3.336Z" fill="#ededed"/>
      <path id="Path_7292" data-name="Path 7292" d="M17.606,1123.573v5.737C16.728,1127.27,15.812,1125.623,17.606,1123.573Z" fill="#ededed"/>
      <path id="Path_7293" data-name="Path 7293" d="M-6.888,1126.072l-4.977-.452-.032-.432,2.2-.754Z" fill="#fbfbfb"/>
      <path id="Path_7294" data-name="Path 7294" d="M-18.176,1058.467h-2.642l-.007-.179h2.645Z" fill="#404040"/>
      <path id="Path_7295" data-name="Path 7295" d="M-20.952,1172.21l.315.142A.271.271,0,0,1-20.952,1172.21Z" fill="#ededed"/>
      <path id="Path_7296" data-name="Path 7296" d="M-68.593,1072.07c.259.281.8.7.736.821-.886,1.73-1.852,3.419-2.8,5.117Q-69.624,1075.04-68.593,1072.07Z" fill="#f7f4ed"/>
      <path id="Path_7297" data-name="Path 7297" d="M-70.652,1078l-.411,1.212Z" fill="#f7f4ed"/>
      <path id="Path_7298" data-name="Path 7298" d="M-71.031,1079.183c-.128.2-.256.406-.384.611Z" fill="#f7f4ed"/>
      <path id="Path_7299" data-name="Path 7299" d="M-66.091,1067.161l-.377.193c-.007-.216-.015-.431-.022-.647Z" fill="#fdfdfd"/>
      <path id="Path_7300" data-name="Path 7300" d="M-112.174,1015.333l-2.127-3.863,2.085-1.173C-109.87,1013.4-109.858,1013.8-112.174,1015.333Z" fill="#f6f7f8"/>
      <path id="Path_7301" data-name="Path 7301" d="M37.388,1023.916l.8-.341-.364.672Z" fill="#fdfdfd"/>
      <path id="Path_7302" data-name="Path 7302" d="M34.882,1020.706l-.474.022.263-.319A1.113,1.113,0,0,1,34.882,1020.706Z" fill="#fdfdfd"/>
      <path id="Path_7303" data-name="Path 7303" d="M-90.374,1022.734c-.675-2.928.022-4.647,2.177-5.623C-89,1019.173-89.685,1020.953-90.374,1022.734Z" fill="#ededed"/>
      <path id="Path_7304" data-name="Path 7304" d="M76.4,1012.528c.252-2.058.445-4.126.788-6.169.116-.692.474-1.711.965-1.882a2.558,2.558,0,0,1,2.315.392,2.821,2.821,0,0,1,.266,2.53c-1.03,1.915-2.372,3.662-3.593,5.476Z" fill="#fbfbfb"/>
      <path id="Path_7305" data-name="Path 7305" d="M68.62,1008.9c-.923,4.507-1.8,8.816-5.161,12.448,0-3.318-.131-6.32.05-9.3C63.614,1010.3,66.129,1008.809,68.62,1008.9Z" fill="#f6f7f8"/>
      <path id="Path_7306" data-name="Path 7306" d="M-102.02,1094.655c1.534-.305,2.322.529,2.41,2.142.1,1.8-1.732,3.966-3.309,3.981-1.056.01-4.037-1.975-4.079-2.717C-107.1,1096.2-105,1094.715-102.02,1094.655Z" fill="#fbd762"/>
      <path id="Path_7307" data-name="Path 7307" d="M-29.7,1095.731c-.009-3.839,1.7-5.193,6.615-5.228,3.643-.027,5.227,1.647,5.255,5.552.029,4.13-2.39,7.051-5.815,7.021C-27.147,1103.046-29.692,1099.959-29.7,1095.731Zm3.257-1.219a18.5,18.5,0,0,0,1.095,3.65c.337.61,1.382,1.352,1.892,1.216a2.932,2.932,0,0,0,1.707-1.8,13.252,13.252,0,0,0,.072-3.422Z" fill="#272727"/>
      <path id="Path_7308" data-name="Path 7308" d="M-12.671,1082.124c-.051,2.131-1.3,3.541-2.565,3.4a2.24,2.24,0,0,1-2.163-2.542,2.492,2.492,0,0,1,2.818-2.385C-13.829,1080.608-13.088,1081.766-12.671,1082.124Z" fill="#232424"/>
      <path id="Path_7309" data-name="Path 7309" d="M-16.676,1075.779c1.321.339,2.653.641,3.954,1.045.277.086.441.54.657.825-.36.177-.741.537-1.077.5a45.192,45.192,0,0,1-4.634-.731,5.06,5.06,0,0,1-1.438-.908,15.828,15.828,0,0,1,1.505-.532,4.1,4.1,0,0,1,.98-.014Z" fill="#404040"/>
      <path id="Path_7310" data-name="Path 7310" d="M-27.359,1083.09l-2.118,2.561c-.466-.68-1.4-1.447-1.287-2.019.157-.843,1.054-1.546,1.636-2.309Z" fill="#292929"/>
      <path id="Path_7311" data-name="Path 7311" d="M-27.793,1076.448l2.964,1.194a26.845,26.845,0,0,1-3.013.653,9.538,9.538,0,0,1-2.559-.15c-.286-.048-.507-.482-.757-.741.285-.208.554-.564.858-.6a21.859,21.859,0,0,1,2.376-.029Z" fill="#404040"/>
      <path id="Path_7312" data-name="Path 7312" d="M-26.445,1094.512l4.766-.353a13.252,13.252,0,0,1-.072,3.422,2.932,2.932,0,0,1-1.707,1.8c-.51.136-1.555-.606-1.892-1.216A18.5,18.5,0,0,1-26.445,1094.512Z" fill="#fbfbfb"/>
    </g>
  </g>
</svg>
