<svg xmlns="http://www.w3.org/2000/svg" width="296.36" height="256.636" viewBox="0 0 296.36 256.636">
  <g id="组_87" data-name="组 87" transform="translate(-800.917 -1519.727)">
    <g id="组_86" data-name="组 86">
      <g id="组_85" data-name="组 85">
        <path id="路径_965" data-name="路径 965" d="M1078.25,1725.153c9.66,6.45,15.07,13.33,16.31,15.45-.96.98-2.55,3.25-5.51,8.55l-3.32,1.56a18.348,18.348,0,0,0-2.72-13.26c-1.95-3.11-6.31-4.13-11.21-4.13-7.76,0-16.87,2.56-19.84,3.47a6.4,6.4,0,0,1-1.83-3.96,3.614,3.614,0,0,1,1.6-2.74l.16-.13c.55-.44,1.16-.93,1.84-1.45C1059.14,1724.353,1068.38,1718.573,1078.25,1725.153Z" fill="#fffef6"/>
        <path id="路径_966" data-name="路径 966" d="M1092.98,1734.473c.01.12.02.25.03.37h-.03l-.3-.7Z" fill="#0f1b0d"/>
        <path id="路径_967" data-name="路径 967" d="M1092.66,1734.113c0,.01.01.02.02.03l.3.7-2.39.16c-.07-1.1-.16-2.2-.27-3.29C1091.16,1732.533,1091.94,1733.343,1092.66,1734.113Z" fill="#0f1b0d"/>
        <path id="路径_968" data-name="路径 968" d="M1090.84,1751.073l-5.68,2.67c.55-.43,1.1-.85,1.63-1.32l-.56-.66.22-.15,3-1,6-10-2.47-5.77h.03c-.01-.12-.02-.25-.03-.37,2.93,3.26,4.57,5.92,4.26,6.94a1.33,1.33,0,0,1-.88.89c-.83.78-3.36,4.89-5.32,8.42Z" fill="#0f1b0d"/>
        <path id="路径_969" data-name="路径 969" d="M1085.14,1753.753l-3.94,1.86.33-.72,4.7-3.13.56.66c-.53.47-1.08.89-1.63,1.32Z" fill="#0f1b0d"/>
        <path id="路径_970" data-name="路径 970" d="M1085.19,1750.543l.31.37.73.85-4.7,3.13,1.05-2.3c.19-.13.37-.26.55-.4C1083.82,1751.643,1084.54,1751.133,1085.19,1750.543Z" fill="#0f1b0d"/>
        <path id="路径_971" data-name="路径 971" d="M1081.2,1755.613l3.94-1.86c-.17.14-.35.28-.52.42a76.844,76.844,0,0,1-6.4,4.3,7.923,7.923,0,0,0-.2-1.24l3.51-2.34Z" fill="#0f1b0d"/>
        <path id="路径_972" data-name="路径 972" d="M1078.02,1757.233a7.923,7.923,0,0,1,.2,1.24c-.15.09-.3.18-.45.28a1.054,1.054,0,0,0-.05-.19c.04-.58.09-.99.13-1.22Z" fill="#0f1b0d"/>
        <path id="路径_973" data-name="路径 973" d="M1078.02,1757.233l-.17.11c.03-.15.07-.23.1-.23S1078,1757.153,1078.02,1757.233Z" fill="#0f1b0d"/>
        <path id="路径_974" data-name="路径 974" d="M1077.45,1757.613l.4-.27c-.04.23-.09.64-.13,1.22C1077.64,1758.233,1077.55,1757.923,1077.45,1757.613Z" fill="#0f1b0d"/>
        <path id="路径_975" data-name="路径 975" d="M1077.72,1758.563a1.054,1.054,0,0,1,.05.19c-.02,0-.04.02-.06.03C1077.71,1758.7,1077.72,1758.633,1077.72,1758.563Z" fill="#0f1b0d"/>
        <path id="路径_976" data-name="路径 976" d="M1077.5,1770.353c.01-1.19.01-2.31.02-3.35.03-2.09.06-3.89.08-5.35.03-1.18.07-2.14.11-2.87.02-.01.04-.03.06-.03,1.28,5.37.03,12.94-.26,14.55h-.03c0-.24.02-.3.01-1.11C1077.5,1771.563,1077.5,1770.953,1077.5,1770.353Z" fill="#0f1b0d"/>
        <path id="路径_977" data-name="路径 977" d="M1075.77,1773.263c-.87-.02-1.76-.04-2.67-.05q-2.745-.045-5.76-.09c-4.01-.04-8.36-.09-12.99-.14-9.24-.07-19.57-.12-30.47-.12-4.2,0-8.32.01-12.32.02.59-.07,1.17-.16,1.76-.24,13.05-1.88,26.46-4.1,40.14-6.49q5.595-.99,11.11-1.97l2.76-.5,1.37-.25.38-.07a1.59,1.59,0,0,0,.6-.22l.64-.31q2.52-1.26,4.95-2.63c.82-.47,1.63-.94,2.44-1.42-.04.73-.08,1.69-.11,2.87-.02,1.46-.05,3.26-.08,5.35-.01,1.04-.01,2.16-.02,3.35,0,.6,0,1.21-.01,1.84.01.81-.01.87-.01,1.11-.15,0-.3-.01-.44-.02C1076.62,1773.273,1076.2,1773.263,1075.77,1773.263Z" fill="#fffef6"/>
        <path id="路径_978" data-name="路径 978" d="M1094.56,1740.6c-1.24-2.12-6.65-9-16.31-15.45-9.87-6.58-19.11-.8-24.52,3.36l-.8-.13a.06.06,0,0,1-.01-.04c-.06-.7-.13-1.43-.21-2.2,5.79-4.33,16.01-10.34,26.93-3.07a76.309,76.309,0,0,1,10.68,8.64c.11,1.09.2,2.19.27,3.29l2.39-.16,2.47,5.77-6,10-3,1-.22.15-.73-.85.23-.2,3.32-1.56C1092.01,1743.853,1093.6,1741.583,1094.56,1740.6Z" fill="#0f1b0d"/>
        <path id="路径_979" data-name="路径 979" d="M1050.99,1727.473c.52-.41,1.09-.86,1.72-1.33.08.77.15,1.5.21,2.2a.06.06,0,0,0,.01.04l-1.76.18C1051.11,1728.213,1051.05,1727.843,1050.99,1727.473Z" fill="#0f1b0d"/>
        <path id="路径_980" data-name="路径 980" d="M1053.45,1738.613c-.33.24-1.31.58-1.87.92l-.29.09-.53-.48c-.02-.02-.15-.14-.34-.33a5.067,5.067,0,0,1,1.17-.61C1051.62,1738.243,1054.16,1738.1,1053.45,1738.613Z" fill="#0f1b0d"/>
        <path id="路径_981" data-name="路径 981" d="M1085.19,1750.543c-.65.59-1.37,1.1-2.06,1.65-.18.14-.36.27-.55.4l.05-.1c.12-.25,2.81-6.42-1.74-13.71-3.68-5.89-22.12-1.55-28.91.62l-.4.13c.56-.34,1.54-.68,1.87-.92.71-.51-1.83-.37-1.86-.41a5.067,5.067,0,0,0-1.17.61c-.83-.85-2.87-3.25-2.79-6.05a6.071,6.071,0,0,1,2.54-4.62l.16-.14c.21-.17.43-.34.66-.53.06.37.12.74.18,1.09l1.76-.18.8.13c-.68.52-1.29,1.01-1.84,1.45l-.16.13a3.614,3.614,0,0,0-1.6,2.74,6.4,6.4,0,0,0,1.83,3.96c2.97-.91,12.08-3.47,19.84-3.47,4.9,0,9.26,1.02,11.21,4.13a18.348,18.348,0,0,1,2.72,13.26l-.23.2Z" fill="#0f1b0d"/>
        <path id="路径_982" data-name="路径 982" d="M1047.09,1708.073a93.923,93.923,0,0,0-6.72-19.58c-2.34-4.75-4.69-7.08-4.42-7.38.1-.11.84.32,1.97,1.38a25.425,25.425,0,0,1,4,5.14c2.9,4.68,5.66,11.79,7.6,19.84a139.149,139.149,0,0,1,3.19,18.67c-.63.47-1.2.92-1.72,1.33C1050.09,1722.293,1048.9,1715.443,1047.09,1708.073Z" fill="#0f1b0d"/>
        <path id="路径_983" data-name="路径 983" d="M1008.45,1537.263c.54.23,13.18,5.86,12.25,19.77-.66,9.9-8.08,19.21-12.62,24.03,2.7-4.51,5.63-10.67-.63-13.45-9-4-17-28-27-28-8.41,0-22.49,0-29.12,4.16q-.435-.06-.84-.12c.56-3.39-2.04-4.04-2.04-4.04l1.06,3.86c-5.23-.99-8.58-2.98-8.75-5.3-.25-3.39,6.06-8.82,24.52-13.85,31.55-8.61,42.12,11.5,42.55,12.35l.2.41Z" fill="#0f1b0d"/>
        <path id="路径_984" data-name="路径 984" d="M1077.45,1773.613h-71.21c1.76-.23,3.54-.47,5.32-.73,4-.01,8.12-.02,12.32-.02,10.9,0,21.23.05,30.47.12,4.63.05,8.98.1,12.99.14q3.015.045,5.76.09c.91.01,1.8.03,2.67.05.43,0,.85.01,1.27.02.14.01.29.02.44.02h.03C1077.47,1773.5,1077.45,1773.613,1077.45,1773.613Z" fill="#0f1b0d"/>
        <path id="路径_985" data-name="路径 985" d="M1049.45,1627.613c-10.67-7.76-30.76-17.41-39.25-20.71l.01-.03c3.25,1.15,10.3,3.95,15,5.97a144.544,144.544,0,0,1,18.05,9.22,102.96,102.96,0,0,1,10.42,7.25,66.181,66.181,0,0,1,10.24,9.98c.83.95,1.53,2.02,2.31,3.05.7,1.09,1.46,2.16,2.09,3.31,1.35,2.27,2.51,4.68,3.68,7.15,2.27,4.96,4.31,10.24,6.22,15.77a323.343,323.343,0,0,1,9.96,35.97c1.42,6.42,2.67,13.05,3.67,19.88.48,3.29.88,6.64,1.13,10.05l-.3-.33c-.01-.01-.02-.02-.02-.03l-.21-.5s-13-66-21-80S1060.45,1635.613,1049.45,1627.613Z" fill="#0f1b0d"/>
        <path id="路径_986" data-name="路径 986" d="M1042.52,1623.253a154.619,154.619,0,0,0-17.7-9.53c-5.03-2.31-9.03-3.89-11.74-4.95-1.36-.52-1.94-.89-2.63-1.16-.17-.06-.34-.12-.5-.18l.03-.08a.106.106,0,0,0,.08-.01c-.02-.01-.04-.01-.06-.02l.2-.42c8.49,3.3,28.58,12.95,39.25,20.71,11,8,14,12,22,26s21,80,21,80l.21.5c-.72-.77-1.5-1.58-2.34-2.4q-.33-3.51-.83-6.96c-.97-6.75-2.19-13.34-3.56-19.72a329.977,329.977,0,0,0-9.67-35.79c-1.85-5.5-3.83-10.74-6.01-15.64a59.782,59.782,0,0,0-7.71-13.2,64.628,64.628,0,0,0-9.86-9.85A103.007,103.007,0,0,0,1042.52,1623.253Z" fill="#0f1b0d"/>
        <path id="路径_987" data-name="路径 987" d="M1010.21,1606.873l-.01.03c-.26-.11-.51-.2-.75-.29C1009.67,1606.683,1009.92,1606.773,1010.21,1606.873Z" fill="#0f1b0d"/>
        <path id="路径_988" data-name="路径 988" d="M1010.06,1607.343a.106.106,0,0,1-.08.01l.02-.03C1010.02,1607.333,1010.04,1607.333,1010.06,1607.343Z" fill="#0f1b0d"/>
        <path id="路径_989" data-name="路径 989" d="M1009.98,1607.353a.909.909,0,0,1-.69-.2c.17.03.41.09.71.17Z" fill="#0f1b0d"/>
        <path id="路径_990" data-name="路径 990" d="M1009.95,1607.433a6.558,6.558,0,0,1-1-.32c.01-.02.12-.01.34.04a.909.909,0,0,0,.69.2Z" fill="#0f1b0d"/>
        <path id="路径_991" data-name="路径 991" d="M1009.45,1606.613c.24.09.49.18.75.29l-.2.42c-.3-.08-.54-.14-.71-.17C1008.82,1606.833,1008.55,1606.323,1009.45,1606.613Z" fill="#0f1b0d"/>
        <path id="路径_992" data-name="路径 992" d="M1008.08,1581.073l-.01.01c-.23.23-.44.45-.64.66,0-.15-.01-.3-.01-.45Z" fill="#fffef6"/>
        <path id="路径_993" data-name="路径 993" d="M1007.41,1582.153c.01-.13.02-.27.02-.41.2-.21.41-.43.64-.66C1007.85,1581.453,1007.63,1581.813,1007.41,1582.153Z" fill="#0f1b0d"/>
        <path id="路径_994" data-name="路径 994" d="M1009.45,1536.613l-4-5-5.39-6.29a30.69,30.69,0,0,1,9.78,9.84c2.37,1.17,14.3,7.82,13.35,22.04-.98,14.77-15.22,27.65-16.86,29.07a11.439,11.439,0,0,0,1.03-3.46c.02-.21.05-.43.05-.66.22-.34.44-.7.66-1.07l.01-.01,1.37-.46c9-8,12-22,12-28s-6-12-7-13A32.082,32.082,0,0,0,1009.45,1536.613Z" fill="#0f1b0d"/>
        <path id="路径_995" data-name="路径 995" d="M1005.48,1585.543a25.077,25.077,0,0,1,1.93-3.39c0,.23-.03.45-.05.66a11.439,11.439,0,0,1-1.03,3.46c-.06.06-.11.1-.13.12Z" fill="#0f1b0d"/>
        <path id="路径_996" data-name="路径 996" d="M1005.47,1585.543l-.75-.87c.05-.14.1-.29.14-.44.45-.4,1.38-1.26,2.57-2.49,0,.14-.01.28-.02.41a25.077,25.077,0,0,0-1.93,3.39Z" fill="#0f1b0d"/>
        <path id="路径_997" data-name="路径 997" d="M1004.86,1584.233c-.04.15-.09.3-.14.44l-.15-.18C1004.58,1584.483,1004.68,1584.393,1004.86,1584.233Z" fill="#0f1b0d"/>
        <path id="路径_998" data-name="路径 998" d="M1000.98,1591.183c1.12-.92,3.7-3.25,4.47-5.57a.626.626,0,0,0,.02-.07h.01l.72.85c.02-.02.07-.06.13-.12a.612.612,0,0,1-.05.12,15.2,15.2,0,0,1-1.84,2.88,8.709,8.709,0,0,1-2.49,2.07,8.341,8.341,0,0,1-1.15.52,4.042,4.042,0,0,0,.18-.67Z" fill="#0f1b0d"/>
        <path id="路径_999" data-name="路径 999" d="M1000.98,1591.183v.01c-.28.23-.47.38-.52.41.24-.37.43-.52.49-.49C1000.97,1591.123,1000.98,1591.143,1000.98,1591.183Z" fill="#0f1b0d"/>
        <path id="路径_1000" data-name="路径 1000" d="M1000.83,1599.283c.02.01.02.04.01.09a.468.468,0,0,1-.05-.1C1000.81,1599.273,1000.82,1599.273,1000.83,1599.283Z" fill="#0f1b0d"/>
        <path id="路径_1001" data-name="路径 1001" d="M1000.8,1591.863c-.16.06-.32.12-.48.17.08-.26.13-.42.13-.42a.01.01,0,0,1,.01-.01c.05-.03.24-.18.52-.41A4.042,4.042,0,0,1,1000.8,1591.863Z" fill="#0f1b0d"/>
        <path id="路径_1002" data-name="路径 1002" d="M1000.84,1599.373a3.09,3.09,0,0,1-.38.84c-.08-.16-.16-.32-.24-.47a1.913,1.913,0,0,1,.57-.47A.468.468,0,0,0,1000.84,1599.373Z" fill="#0f1b0d"/>
        <path id="路径_1003" data-name="路径 1003" d="M1000.45,1591.613s-.05.16-.13.42c-.05.01-.11.03-.16.04.05-.08.09-.15.13-.22A2.491,2.491,0,0,1,1000.45,1591.613Z" fill="#0f1b0d"/>
        <path id="路径_1004" data-name="路径 1004" d="M1008.52,1605.493c.36.28.71.56,1.07.84.21.17.46.33.64.51l-.02.03c-.29-.1-.54-.19-.76-.26a16.256,16.256,0,0,1-8.61-7.24c.01-.05.01-.08-.01-.09s-.02-.01-.04-.01a10,10,0,0,1-1.34-3.66,18.066,18.066,0,0,1,.87-3.58c.16-.05.32-.11.48-.17a10.924,10.924,0,0,0-.46,2.73,8.321,8.321,0,0,0,.83,3.84,12.322,12.322,0,0,0,3.36,4.02l2.61,1.98C1007.59,1604.783,1008.05,1605.133,1008.52,1605.493Z" fill="#0f1b0d"/>
        <path id="路径_1005" data-name="路径 1005" d="M999.45,1524.613l.61.71c-.5-.33-1.02-.64-1.57-.95Z" fill="#0f1b0d"/>
        <path id="路径_1006" data-name="路径 1006" d="M999.89,1598.993a8.682,8.682,0,0,1-.52-4.49,7.486,7.486,0,0,1,.79-2.43c.05-.01.11-.03.16-.04a18.066,18.066,0,0,0-.87,3.58,10,10,0,0,0,1.34,3.66,1.913,1.913,0,0,0-.57.47Q1000.04,1599.368,999.89,1598.993Z" fill="#0f1b0d"/>
        <path id="路径_1007" data-name="路径 1007" d="M992.83,1591.8c1,.16,2.26.46,3.81.58a10.476,10.476,0,0,0,3.52-.31,7.486,7.486,0,0,0-.79,2.43,8.682,8.682,0,0,0,.52,4.49q.15.375.33.75c-.43.44-1.08,1.17-1.96,2.15a80.788,80.788,0,0,1-6.87,6.98,23.544,23.544,0,0,1-5.37,3.71,4.548,4.548,0,0,1-.77.3c-.29.11-.58.21-.88.32a3.9,3.9,0,0,0-1.11.53,3.576,3.576,0,0,0-.96.86,2.947,2.947,0,0,0-.31.41c-.39-.12-.77-.24-1.15-.36-.47-.15-.94-.28-1.39-.42q-1.365-.39-2.58-.75c-1.62-.46-3.05-.84-4.23-1.14a21.381,21.381,0,0,0-3.48-.68,8.316,8.316,0,0,0-.49-1.65q3.51-.54,6.54-1.25c5.08-1.19,9.12-2.8,11.48-4.69a6.444,6.444,0,0,0,2.14-2.74c.06-.19.1-.36.15-.51.01-.15.02-.28.02-.38.01-.21-.01-.31-.05-.32s-.11.09-.2.26c-.04.09-.08.2-.13.32-.07.12-.16.26-.25.42a7.059,7.059,0,0,1-2.25,2.16c-2.33,1.5-6.27,2.81-11.28,3.75-2.29.44-4.81.81-7.52,1.11l-17.07-61.98c.5.08,1.02.15,1.55.21a262.07,262.07,0,0,0,27.99,1.87.142.142,0,0,1,.02.06c.01.21.02.44.04.69a42.5,42.5,0,0,0,1.37,7.73,35.412,35.412,0,0,0,1.87,5.19,24.846,24.846,0,0,0,1.49,2.76c.15.24.29.47.44.7l.5.68c.33.43.66.87.99,1.31a16.931,16.931,0,0,1,2.95,5.71,14.3,14.3,0,0,1,.55,3.35,11.887,11.887,0,0,1-.26,3.36l-.54,2.23,2.13-.71,2.22-.73.12-.76.07-.37.04-.2.02-.08c.06-.22.12-.44.19-.66a7.872,7.872,0,0,1,.49-1.28,4.108,4.108,0,0,1,2.14-2.29c.11-.03.22-.07.33-.11.12-.02.24-.01.36-.03a3.124,3.124,0,0,1,.74.03,10.212,10.212,0,0,1,1.72.46,8.468,8.468,0,0,1,4.94,4.34,6.732,6.732,0,0,1,.14,4.62c-.18.16-.28.25-.29.26l.15.18a8.686,8.686,0,0,1-.32.85,9.368,9.368,0,0,1-3.35,4.3,8.3,8.3,0,0,1-4.37,1.16c-1.42.03-2.68-.13-3.76-.15a5.6,5.6,0,0,0-1.5.12,1.427,1.427,0,0,0-.98.72c-.24.63-.04.95.01.94.1,0,.13-.32.41-.65a1.009,1.009,0,0,1,.71-.28A5.672,5.672,0,0,1,992.83,1591.8Zm-19.88-25.69c.36-.49-1.69-2.89-5.5-4.08a7.13,7.13,0,0,0-5.19.24c-1.28.68-1.6,1.66-1.31,1.84.27.21.89-.08,1.89-.17a10.5,10.5,0,0,1,3.92.49C969.89,1565.383,972.54,1566.743,972.95,1566.113Zm-8,5a2.015,2.015,0,1,0-.59,1.41A2,2,0,0,0,964.95,1571.113Z" fill="#f1c8b5"/>
        <path id="路径_1008" data-name="路径 1008" d="M995.41,1759.7a2.234,2.234,0,0,1-1.26,1.23c-.07-.03.04-.33.17-.93Z" fill="#0f1b0d"/>
        <path id="路径_1009" data-name="路径 1009" d="M1006.24,1773.613h71.21s.02-.11.06-.31c.29-1.61,1.54-9.18.26-14.55.15-.1.3-.19.45-.28.08.75.17,1.82.26,3.16.08,1.46.19,3.25.31,5.34.05,1.05.1,2.17.16,3.35.06,1.45.12,2.99.18,4.6-3.52.06-7.48.12-11.79.19-4.01.04-8.36.09-12.99.13-9.24.08-19.57.12-30.47.12-12.05,0-23.4-.05-33.36-.15l1.05-.03c.79-.07,1.59-.14,2.39-.2C998.03,1774.633,1002.12,1774.153,1006.24,1773.613Z" fill="#0f1b0d"/>
        <path id="路径_1010" data-name="路径 1010" d="M1007.45,1567.613c6.26,2.78,3.33,8.94.63,13.45v.01l-.66.22a7.953,7.953,0,0,0-.56-2.55,10.714,10.714,0,0,0-6.22-5.76,11.353,11.353,0,0,0-2.19-.61,5.094,5.094,0,0,0-1.3-.06c-.23.02-.45.03-.67.07l-.67.19a5.384,5.384,0,0,0-2.22,1.49,7.641,7.641,0,0,0-1.17,1.71,18.043,18.043,0,0,0-4.18-9.8c-.34-.42-.68-.84-1.01-1.25l-.47-.58-.41-.62a25.715,25.715,0,0,1-1.48-2.48,39.523,39.523,0,0,1-2.05-4.83,71.716,71.716,0,0,1-2.07-7.37c-.07-.3-.14-.58-.2-.83l-.03-2.28a250.715,250.715,0,0,1-28.43-1.86c-.26-.03-.51-.06-.76-.1,6.63-4.16,20.71-4.16,29.12-4.16C990.45,1539.613,998.45,1563.613,1007.45,1567.613Z" fill="#0f1b0d"/>
        <path id="路径_1011" data-name="路径 1011" d="M1006.45,1581.613l-2-6-3-1-5-2-4,6s-.01-.04-.03-.13a14.426,14.426,0,0,0,0-2.71,7.641,7.641,0,0,1,1.17-1.71,5.384,5.384,0,0,1,2.22-1.49l.67-.19c.22-.04.44-.05.67-.07a5.094,5.094,0,0,1,1.3.06,11.353,11.353,0,0,1,2.19.61,10.714,10.714,0,0,1,6.22,5.76,7.953,7.953,0,0,1,.56,2.55Z" fill="#0f1b0d"/>
        <path id="路径_1012" data-name="路径 1012" d="M992.42,1575.773a14.426,14.426,0,0,1,0,2.71c-.06-.25-.21-.88-.45-1.73a5.322,5.322,0,0,1,.26-.61C992.29,1576.013,992.35,1575.893,992.42,1575.773Z" fill="#0f1b0d"/>
        <path id="路径_1013" data-name="路径 1013" d="M991.61,1577.753c.11-.33.22-.67.36-1,.24.85.39,1.48.45,1.73a13.864,13.864,0,0,1-.28,1.98l-1.59-1.52c.25-.09.5-.17.75-.26a.155.155,0,0,1,.06-.02l.03-.09C991.45,1578.293,991.53,1578.023,991.61,1577.753Z" fill="#0f1b0d"/>
        <path id="路径_1014" data-name="路径 1014" d="M1000.29,1591.853c-.04.07-.08.14-.13.22a10.476,10.476,0,0,1-3.52.31c-1.55-.12-2.81-.42-3.81-.58a5.672,5.672,0,0,0-1.26-.12,1.009,1.009,0,0,0-.71.28c-.28.33-.31.65-.41.65-.05.01-.25-.31-.01-.94a1.427,1.427,0,0,1,.98-.72,5.6,5.6,0,0,1,1.5-.12c1.08.02,2.34.18,3.76.15a8.3,8.3,0,0,0,4.37-1.16,9.368,9.368,0,0,0,3.35-4.3,8.686,8.686,0,0,0,.32-.85l.75.87a.626.626,0,0,1-.02.07c-.77,2.32-3.35,4.65-4.47,5.57,0-.04-.01-.06-.03-.07-.06-.03-.25.12-.49.49a.01.01,0,0,0-.01.01A2.491,2.491,0,0,0,1000.29,1591.853Z" fill="#0f1b0d"/>
        <path id="路径_1015" data-name="路径 1015" d="M1074.05,1758.033a81.818,81.818,0,0,0,8.53-5.44l-1.05,2.3-3.51,2.34c-.02-.08-.05-.12-.07-.12s-.07.08-.1.23l-.4.27c.1.31.19.62.27.95,0,.07-.01.14-.01.22-.81.48-1.62.95-2.44,1.42q-2.43,1.365-4.95,2.63l-.64.31a1.59,1.59,0,0,1-.6.22l-.38.07-1.37.25-2.76.5q-5.52.975-11.11,1.97c-13.68,2.39-27.09,4.61-40.14,6.49-.59.08-1.17.17-1.76.24-8.89.03-17.21.08-24.64.16v-.11c.73,0,1.46-.01,2.18-.05.77-.04,1.54-.07,2.31-.1.78-.06,1.57-.13,2.35-.2,6.29-.56,12.7-1.43,19.21-2.37,13-1.91,26.39-4.14,40.06-6.52,3.73-.66,7.42-1.32,11.1-1.97l2.75-.5,1.37-.25.31-.05.04-.02.61-.3C1070.85,1759.783,1072.47,1758.923,1074.05,1758.033Z" fill="#0f1b0d"/>
        <path id="路径_1016" data-name="路径 1016" d="M1007.53,1607.273l.01.02.06.05a.268.268,0,0,1,.05.06l-.04.07-.05.07-.18.34c-.14.27-.27.55-.43.81-.32.53-.65,1.07-.98,1.61-.35.53-.71,1.07-1.07,1.62-.39.53-.79,1.07-1.19,1.61a80.1,80.1,0,0,1-12.38,12.62c-.61.49-1.22.99-1.82,1.48l-.91.72a1.476,1.476,0,0,1-.55.27,1.282,1.282,0,0,1-1.1-.27,1,1,0,0,1-.2-.21.564.564,0,0,1-.08-.13l-.04-.06-.06-.12-.49-1a26.451,26.451,0,0,1-2.61-7.8,6.7,6.7,0,0,1,.03-1.8,2.884,2.884,0,0,1,.51-1.26,2.233,2.233,0,0,1,1.07-.76l.16-.07.24-.09.49-.19a6.19,6.19,0,0,0,.94-.41,23.908,23.908,0,0,0,5.68-4.28,53.45,53.45,0,0,0,6.44-7.68,24.728,24.728,0,0,0,1.43-2.28,14.417,14.417,0,0,0,2.94,3.6c.81.68,1.65,1.38,2.52,2.12.44.37.89.74,1.35,1.13l.17.14Z" fill="#fffef6"/>
        <path id="路径_1017" data-name="路径 1017" d="M984.01,1615.973a2.884,2.884,0,0,0-.51,1.26l-.61-.11c.11-.59.22-1.17.32-1.74-.41-.13-.82-.25-1.22-.38a2.947,2.947,0,0,1,.31-.41,3.576,3.576,0,0,1,.96-.86,3.9,3.9,0,0,1,1.11-.53c.3-.11.59-.21.88-.32a4.548,4.548,0,0,0,.77-.3,23.544,23.544,0,0,0,5.37-3.71,80.788,80.788,0,0,0,6.87-6.98c.88-.98,1.53-1.71,1.96-2.15.08.15.16.31.24.47a24.728,24.728,0,0,1-1.43,2.28,53.45,53.45,0,0,1-6.44,7.68,23.908,23.908,0,0,1-5.68,4.28,6.19,6.19,0,0,1-.94.41l-.49.19-.24.09-.16.07A2.233,2.233,0,0,0,984.01,1615.973Z" fill="#0f1b0d"/>
        <path id="路径_1018" data-name="路径 1018" d="M1007.54,1607.293l-.01-.02-.09-.07-.17-.14c-.46-.39-.91-.76-1.35-1.13-.87-.74-1.71-1.44-2.52-2.12a14.417,14.417,0,0,1-2.94-3.6,3.09,3.09,0,0,0,.38-.84,16.256,16.256,0,0,0,8.61,7.24c-.9-.29-.63.22-.16.54-.22-.05-.33-.06-.34-.04a6.558,6.558,0,0,0,1,.32l-.08.16c-.21.42-.41.83-.61,1.26-.15.28-.27.59-.44.87-.32.57-.64,1.15-.97,1.73-.36.57-.72,1.15-1.09,1.74-.39.56-.79,1.14-1.2,1.72a75.073,75.073,0,0,1-12.63,13.16c-.62.52-1.24,1.02-1.87,1.52l-.94.73a3.748,3.748,0,0,1-4.78-.1,3.414,3.414,0,0,1-.58-.62,3.16,3.16,0,0,1-.23-.36l-.1-.18-.06-.13-.5-1.05a36.986,36.986,0,0,1-2-5.19c.02-.12.04-.23.06-.34q.5-2.73.96-5.23l.61.11a6.7,6.7,0,0,0-.03,1.8,26.451,26.451,0,0,0,2.61,7.8l.49,1,.06.12.04.06a.564.564,0,0,0,.08.13,1,1,0,0,0,.2.21,1.282,1.282,0,0,0,1.1.27,1.476,1.476,0,0,0,.55-.27l.91-.72c.6-.49,1.21-.99,1.82-1.48a80.1,80.1,0,0,0,12.38-12.62c.4-.54.8-1.08,1.19-1.61.36-.55.72-1.09,1.07-1.62.33-.54.66-1.08.98-1.61.16-.26.29-.54.43-.81l.18-.34.05-.07.04-.07a.268.268,0,0,0-.05-.06Z" fill="#0f1b0d"/>
        <path id="路径_1019" data-name="路径 1019" d="M981.8,1628.513c-.16-1.48-.29-2.67-.36-3.57.07-.38.14-.75.21-1.12.21.84.52,2.4.92,4.58.63,3.46,1.47,8.47,2.44,14.68,1.93,12.42,4.4,29.61,6.65,48.66s3.81,36.37,4.21,48.96a108.059,108.059,0,0,1-.3,14.93c-.2,1.76.17,3.09-.12,3.98a.357.357,0,0,1-.04.09l-1.09.3c.03-.13.05-.28.08-.45a31.858,31.858,0,0,0,.4-3.98c.16-3.48.04-8.55-.34-14.81-.76-12.51-2.54-29.76-4.79-48.78s-4.49-36.24-6.06-48.7C982.82,1637.053,982.2,1632.013,981.8,1628.513Z" fill="#0f1b0d"/>
        <path id="路径_1020" data-name="路径 1020" d="M981.65,1623.823c.07-.38.15-.76.22-1.13a36.986,36.986,0,0,0,2,5.19l.5,1.05.06.13.1.18a3.16,3.16,0,0,0,.23.36,3.414,3.414,0,0,0,.58.62,3.748,3.748,0,0,0,4.78.1l.94-.73c.63-.5,1.25-1,1.87-1.52a75.073,75.073,0,0,0,12.63-13.16c.41-.58.81-1.16,1.2-1.72.37-.59.73-1.17,1.09-1.74.33-.58.65-1.16.97-1.73.17-.28.29-.59.44-.87.2-.43.4-.84.61-1.26l.08-.16c.16.06.33.12.5.18.69.27,1.27.64,2.63,1.16,2.71,1.06,6.71,2.64,11.74,4.95a154.619,154.619,0,0,1,17.7,9.53,103.007,103.007,0,0,1,10.16,7.3,64.628,64.628,0,0,1,9.86,9.85,59.782,59.782,0,0,1,7.71,13.2c2.18,4.9,4.16,10.14,6.01,15.64a329.977,329.977,0,0,1,9.67,35.79c1.37,6.38,2.59,12.97,3.56,19.72q.495,3.45.83,6.96a76.309,76.309,0,0,0-10.68-8.64c-10.92-7.27-21.14-1.26-26.93,3.07a139.149,139.149,0,0,0-3.19-18.67c-1.94-8.05-4.7-15.16-7.6-19.84a25.425,25.425,0,0,0-4-5.14c-1.13-1.06-1.87-1.49-1.97-1.38-.27.3,2.08,2.63,4.42,7.38a93.923,93.923,0,0,1,6.72,19.58c1.81,7.37,3,14.22,3.9,19.4-.23.19-.45.36-.66.53l-.16.14a6.071,6.071,0,0,0-2.54,4.62c-.08,2.8,1.96,5.2,2.79,6.05h-.01c-.38.22-.84.5-1.4.83s-1.23.64-1.98,1.04a142.635,142.635,0,0,1-13.51,6.04c-5.97,2.39-13.33,5.09-21.94,7.97-4.32,1.42-8.93,2.91-13.85,4.35-.77.21-1.54.44-2.32.66a.357.357,0,0,0,.04-.09c.29-.89-.08-2.22.12-3.98a108.059,108.059,0,0,0,.3-14.93c-.4-12.59-1.97-29.91-4.21-48.96s-4.72-36.24-6.65-48.66c-.97-6.21-1.81-11.22-2.44-14.68C982.17,1626.223,981.86,1624.663,981.65,1623.823Z" fill="#fffef6"/>
        <path id="路径_1021" data-name="路径 1021" d="M981.87,1622.693a19.166,19.166,0,0,1-.69-3.45c-.01-.39-.04-.77-.03-1.16a11.781,11.781,0,0,1,.12-1.18,5.516,5.516,0,0,1,.72-1.9c.4.13.81.25,1.22.38-.1.57-.21,1.15-.32,1.74q-.465,2.5-.96,5.23C981.91,1622.463,981.89,1622.573,981.87,1622.693Z" fill="#0f1b0d"/>
        <path id="路径_1022" data-name="路径 1022" d="M981.44,1624.943c.07.9.2,2.09.36,3.57.4,3.5,1.02,8.54,1.81,14.77,1.57,12.46,3.81,29.67,6.06,48.7s4.03,36.27,4.79,48.78c.38,6.26.5,11.33.34,14.81a31.858,31.858,0,0,1-.4,3.98c-.03.17-.05.32-.08.45-1.38.38-2.77.74-4.18,1.03a11.032,11.032,0,0,1-1.93.21,8.5,8.5,0,0,0-2.26.51,8.386,8.386,0,0,0-2.06,1.12,9.4,9.4,0,0,0-.9.77,7.024,7.024,0,0,0-.61.68l-.14.04-.4.11-.85.21c-.58.13-1.16.25-1.75.35-1.19.21-2.4.36-3.63.5-2.46.26-4.99.41-7.56.49-2.58.1-5.16,0-7.94.14a34.9,34.9,0,0,0-3.64.39c.55-1.31.04-3.23.31-5.63a113.2,113.2,0,0,0-.05-18.99c-.53-7.31-1.34-13.88-2.1-18.65,0-.01-.01-.02,0-.03-.11-1.67-.18-2.64-.18-2.64l-.31-.15c-.58-3.16-1.09-5.01-1.35-4.97-.12.02-.19.39-.21,1.08-1.16,2.28-4.34,12.79-9.49,24.82a140.544,140.544,0,0,1-8.62,16.98c-.65,1.03-1.23,1.96-1.74,2.8-.09.14-.18.27-.25.4-.05.07-.09.13-.13.19-.38.56-.73,1.04-1,1.48q-.165.255-.36.57a1.383,1.383,0,0,0-.13.2c-1.34-2.78-3.27-6.56-5.87-11.6-3.91-7.59-8.35-16.2-8.82-18.54a82.892,82.892,0,0,0-3.56-11.08,48.978,48.978,0,0,0-2.74-6.23c.4-.67.93-1.64,1.6-2.9.64-1.33,1.44-2.96,2.31-4.87.84-1.92,1.82-4.11,2.8-6.56,4.05-9.76,8.89-23.53,13.85-38.82.62-1.91,1.24-3.8,1.84-5.66.31-.92.62-1.84.92-2.75.15-.45.31-.89.46-1.34a7.512,7.512,0,0,1,.49-1.14,21.173,21.173,0,0,1,1.57-2.01c.61-.68,1.22-1.36,1.82-2.02.92-.99,1.84-1.97,2.75-2.92.3-.32.61-.63.91-.94.6-.62,1.2-1.24,1.79-1.84,4.14-4.24,7.96-8.04,11.21-11.3,5.8-5.81,9.85-9.93,11.24-11.58l2.61,2.58c.99.95,2.03,1.97,3.13,3.03s2.27,2.15,3.47,3.29l.91.85.46.43.23.22a3.373,3.373,0,0,0,.47.35,2.672,2.672,0,0,0,3.91-1.58l.05-.2.02-.11.04-.21.09-.43.16-.85c.11-.56.22-1.12.33-1.67C981.35,1625.383,981.4,1625.163,981.44,1624.943Zm-49.49,114.17c.03-.17-.83-.39-1.92-1.26a19.208,19.208,0,0,1-3.59-4.14c-1.22-1.8-2.21-3.53-2.98-4.76a13.006,13.006,0,0,0-.99-1.42c-.25-.33-.49-.47-.52-.42a9.42,9.42,0,0,0,.89,2.18,36.131,36.131,0,0,0,2.77,4.98,14.329,14.329,0,0,0,4.02,4.16C930.94,1739.233,931.95,1739.223,931.95,1739.113Zm-7-16c.19-.24-1.82-1.96-3.42-4.74-1.64-2.75-2.32-5.31-2.58-5.26-.28.03-.02,2.84,1.72,5.77a13.035,13.035,0,0,0,2.74,3.31C924.25,1722.913,924.87,1723.213,924.95,1723.113Z" fill="#fffef6"/>
        <path id="路径_1023" data-name="路径 1023" d="M981.38,1623.063c.05-.01.14.25.27.76-.07.37-.14.74-.21,1.12A6.009,6.009,0,0,1,981.38,1623.063Z" fill="#0f1b0d"/>
        <path id="路径_1024" data-name="路径 1024" d="M986.45,1565.613c-3.18-3.18-5.72-13.29-6.64-17.32a.063.063,0,0,1,0-.06h.74v-.22c.06.25.13.53.2.83a71.716,71.716,0,0,0,2.07,7.37,39.523,39.523,0,0,0,2.05,4.83,25.715,25.715,0,0,0,1.48,2.48l.41.62.47.58c.33.41.67.83,1.01,1.25a18.043,18.043,0,0,1,4.18,9.8c-.07.12-.13.24-.19.37a5.322,5.322,0,0,0-.26.61C991.15,1573.893,989.31,1568.473,986.45,1565.613Z" fill="#0f1b0d"/>
        <path id="路径_1025" data-name="路径 1025" d="M1004.86,1584.233a6.732,6.732,0,0,0-.14-4.62,8.468,8.468,0,0,0-4.94-4.34,10.212,10.212,0,0,0-1.72-.46,3.124,3.124,0,0,0-.74-.03c-.12.02-.24.01-.36.03-.11.04-.22.08-.33.11a4.108,4.108,0,0,0-2.14,2.29,7.872,7.872,0,0,0-.49,1.28c-.07.22-.13.44-.19.66l-.02.08-.04.2-.07.37-.12.76-2.22.73-2.13.71.54-2.23a11.887,11.887,0,0,0,.26-3.36,14.3,14.3,0,0,0-.55-3.35,16.931,16.931,0,0,0-2.95-5.71c-.33-.44-.66-.88-.99-1.31l-.5-.68c-.15-.23-.29-.46-.44-.7a24.846,24.846,0,0,1-1.49-2.76,35.412,35.412,0,0,1-1.87-5.19,42.5,42.5,0,0,1-1.37-7.73c-.02-.25-.03-.48-.04-.69.92,4.03,3.46,14.14,6.64,17.32,2.86,2.86,4.7,8.28,5.52,11.14-.14.33-.25.67-.36,1-.08.27-.16.54-.22.82l-.03.09a.155.155,0,0,0-.06.02c-.25.09-.5.17-.75.26l1.59,1.52a13.864,13.864,0,0,0,.28-1.98c.02.09.03.13.03.13l4-6,5,2,3,1,2,6,.97-.32c0,.15.01.3.01.45C1006.24,1582.973,1005.31,1583.833,1004.86,1584.233Z" fill="#0f1b0d"/>
        <path id="路径_1026" data-name="路径 1026" d="M980.55,1548.013v.22h-.74c-.07-1.37,0-2.1.14-2.12S980.26,1546.773,980.55,1548.013Z" fill="#0f1b0d"/>
        <path id="路径_1027" data-name="路径 1027" d="M979.81,1548.233a.063.063,0,0,0,0,.06.142.142,0,0,0-.02-.06Z" fill="#0f1b0d"/>
        <path id="路径_1028" data-name="路径 1028" d="M1006.24,1773.613H958.52c3.59-.14,8.65-.27,14.85-.38,4.06-.07,8.61-.14,13.55-.19,7.43-.08,15.75-.13,24.64-.16C1009.78,1773.143,1008,1773.383,1006.24,1773.613Z" fill="#0f1b0d"/>
        <path id="路径_1029" data-name="路径 1029" d="M967.86,1612.973a.8.8,0,0,1,.21-.86h1.11a24.112,24.112,0,0,0,3.05,1.45c1.13.47,2.5,1.02,4.07,1.62.79.3,1.63.62,2.51.95.45.16.9.33,1.36.5l.35.13c.09.03.06.03.08.04l.08.05-.03.09-.02.03-.08.35c-.11.49-.21.98-.32,1.48-.22.99-.44,2.02-.67,3.08-.43,2.08-.88,4.27-1.35,6.53,0,.09-.17.15-.24.1-.01,0-.01-.01-.04-.03l-.24-.21-.46-.43-.93-.84c-1.23-1.1-2.41-2.17-3.55-3.19s-2.24-1.97-3.28-2.88c-.52-.45-1.02-.88-1.51-1.3l-.68-.59a1.2,1.2,0,0,1-.2-.14l.04-.12.02-.06a.1.1,0,0,1,.01-.03l.04-.12c.13-.31.23-.63.33-.93a12.832,12.832,0,0,0,.38-1.77A8.64,8.64,0,0,0,967.86,1612.973Z" fill="#fffef6"/>
        <path id="路径_1030" data-name="路径 1030" d="M969.18,1612.113c-.27-.17-.4-.3-.38-.38.02-.06.15-.09.36-.08a2.525,2.525,0,0,1,.04.46Z" fill="#0f1b0d"/>
        <path id="路径_1031" data-name="路径 1031" d="M968.8,1611.733c-.02.08.11.21.38.38h-1.11a.95.95,0,0,1,.2-.15C968.54,1611.813,968.78,1611.833,968.8,1611.733Z" fill="#0f1b0d"/>
        <path id="路径_1032" data-name="路径 1032" d="M968.8,1611.733c-.02.1-.26.08-.53.23a.95.95,0,0,0-.2.15h-.62v-.4a1.371,1.371,0,0,1,.7-.27C968.66,1611.443,968.83,1611.673,968.8,1611.733Z" fill="#0f1b0d"/>
        <path id="路径_1033" data-name="路径 1033" d="M967.93,1608.433a16.952,16.952,0,0,1,.74,1.57c-.45.07-.91.14-1.37.19a2.412,2.412,0,0,0-1.56-.56c0-.01-.01-.01-.01-.02l1.75-.94Z" fill="#0f1b0d"/>
        <path id="路径_1034" data-name="路径 1034" d="M974.84,1607.023c5.01-.94,8.95-2.25,11.28-3.75a7.059,7.059,0,0,0,2.25-2.16c.09-.16.18-.3.25-.42.05-.12.09-.23.13-.32.09-.17.15-.26.2-.26s.06.11.05.32c0,.1-.01.23-.02.38-.05.15-.09.32-.15.51a6.444,6.444,0,0,1-2.14,2.74c-2.36,1.89-6.4,3.5-11.48,4.69q-3.03.7-6.54,1.25a16.952,16.952,0,0,0-.74-1.57l-.45.24-.03-.06-.13-.48C970.03,1607.833,972.55,1607.463,974.84,1607.023Z" fill="#0f1b0d"/>
        <path id="路径_1035" data-name="路径 1035" d="M967.3,1610.193c.46-.05.92-.12,1.37-.19a8.316,8.316,0,0,1,.49,1.65c-.21-.01-.34.02-.36.08.03-.06-.14-.29-.65-.29a1.371,1.371,0,0,0-.7.27v-1.1A.65.65,0,0,0,967.3,1610.193Z" fill="#0f1b0d"/>
        <path id="路径_1036" data-name="路径 1036" d="M967.45,1611.713v.4h-.37a1,1,0,0,1,.22-.27A1.737,1.737,0,0,1,967.45,1611.713Z" fill="#0f1b0d"/>
        <path id="路径_1037" data-name="路径 1037" d="M967.3,1610.193c-.4.07-.8.12-1.21.17-.11-.26-.23-.51-.35-.73A2.412,2.412,0,0,1,967.3,1610.193Z" fill="#0f1b0d"/>
        <path id="路径_1038" data-name="路径 1038" d="M965.43,1619.913c.39-.47.57-.74.52-.8-.02-.02-.06-.01-.13.02a11.482,11.482,0,0,0,1.63-6.52v-.5h.62a.8.8,0,0,0-.21.86,8.64,8.64,0,0,1,.04,2.9,12.832,12.832,0,0,1-.38,1.77c-.1.3-.2.62-.33.93l-.04.12a.1.1,0,0,0-.01.03l-.02.06-.04.12a1.2,1.2,0,0,0,.2.14l.68.59c.49.42.99.85,1.51,1.3q1.56,1.365,3.28,2.88c1.14,1.02,2.32,2.09,3.55,3.19l.93.84.46.43.24.21c.03.02.03.03.04.03.07.05.24-.01.24-.1.47-2.26.92-4.45,1.35-6.53.23-1.06.45-2.09.67-3.08.11-.5.21-.99.32-1.48l.08-.35.02-.03.03-.09-.08-.05c-.02-.01.01-.01-.08-.04l-.35-.13c-.46-.17-.91-.34-1.36-.5-.88-.33-1.72-.65-2.51-.95-1.57-.6-2.94-1.15-4.07-1.62a24.112,24.112,0,0,1-3.05-1.45h.02a2.525,2.525,0,0,0-.04-.46,21.381,21.381,0,0,1,3.48.68c1.18.3,2.61.68,4.23,1.14q1.215.36,2.58.75c.45.14.92.27,1.39.42.38.12.76.24,1.15.36a5.516,5.516,0,0,0-.72,1.9,11.781,11.781,0,0,0-.12,1.18c-.01.39.02.77.03,1.16a19.166,19.166,0,0,0,.69,3.45c-.07.37-.15.75-.22,1.13-.13-.51-.22-.77-.27-.76a6.009,6.009,0,0,0,.06,1.88c-.04.22-.09.44-.13.67-.11.55-.22,1.11-.33,1.67l-.16.85-.09.43-.04.21-.02.11-.05.2a2.672,2.672,0,0,1-3.91,1.58,3.373,3.373,0,0,1-.47-.35l-.23-.22-.46-.43-.91-.85q-1.8-1.71-3.47-3.29c-1.1-1.06-2.14-2.08-3.13-3.03Z" fill="#0f1b0d"/>
        <path id="路径_1039" data-name="路径 1039" d="M966.7,1612.113a6.475,6.475,0,0,0-.61-1.75c.41-.05.81-.1,1.21-.17a.65.65,0,0,1,.15.42v1.1a1.737,1.737,0,0,0-.15.13,1,1,0,0,0-.22.27Z" fill="#0f1b0d"/>
        <path id="路径_1040" data-name="路径 1040" d="M965.24,1618.523a3.351,3.351,0,0,0,.2-.37l.15-.29q.195-.39.36-.78a11.678,11.678,0,0,0,.52-1.5,10.709,10.709,0,0,0,.38-2.52,1.922,1.922,0,0,1,.1-.69,1.051,1.051,0,0,1,.13-.26h.37v.5a11.482,11.482,0,0,1-1.63,6.52,4.747,4.747,0,0,0-.71.47c-.11-.1-.21-.21-.32-.31C964.94,1619.033,965.09,1618.773,965.24,1618.523Z" fill="#0f1b0d"/>
        <path id="路径_1041" data-name="路径 1041" d="M965.95,1619.113c.05.06-.13.33-.52.8a1.648,1.648,0,0,1-.14-.13l.16-.17a3.433,3.433,0,0,0,.37-.48C965.89,1619.1,965.93,1619.093,965.95,1619.113Z" fill="#0f1b0d"/>
        <path id="路径_1042" data-name="路径 1042" d="M965.29,1619.783l-.18-.18a4.747,4.747,0,0,1,.71-.47,3.433,3.433,0,0,1-.37.48Z" fill="#0f1b0d"/>
        <path id="路径_1043" data-name="路径 1043" d="M964.36,1569.7a1.98,1.98,0,1,1-1.41-.59A2,2,0,0,1,964.36,1569.7Z" fill="#0f1b0d"/>
        <path id="路径_1044" data-name="路径 1044" d="M966.76,1564.433a10.5,10.5,0,0,0-3.92-.49c-1,.09-1.62.38-1.89.17-.29-.18.03-1.16,1.31-1.84a7.13,7.13,0,0,1,5.19-.24c3.81,1.19,5.86,3.59,5.5,4.08C972.54,1566.743,969.89,1565.383,966.76,1564.433Z" fill="#0f1b0d"/>
        <path id="路径_1045" data-name="路径 1045" d="M958.52,1773.613h47.72c-4.12.54-8.21,1.02-12.28,1.37-.8.06-1.6.13-2.39.2l-1.05.03c-6.34-.05-12.12-.12-17.15-.21-6.47-.12-11.7-.25-15.31-.4s-5.61-.31-5.61-.49,2-.33,5.61-.48C958.21,1773.623,958.36,1773.623,958.52,1773.613Z" fill="#0f1b0d"/>
        <path id="路径_1046" data-name="路径 1046" d="M979.79,1548.233a262.07,262.07,0,0,1-27.99-1.87c-.53-.06-1.05-.13-1.55-.21l-.19-.69a3.977,3.977,0,0,0,.38-.72c11.56,1.87,29.01,1.87,29.01,1.87S979.57,1547.223,979.79,1548.233Z" fill="#0f1b0d"/>
        <path id="路径_1047" data-name="路径 1047" d="M958.8,1594.933a8.615,8.615,0,0,1-.91.18,11.527,11.527,0,0,1-5.18-.67c-3.85-1.38-6.18-3.78-5.76-4.33.4-.56,3.17.75,6.59,1.97a39.243,39.243,0,0,0,4.41,1.27,7.636,7.636,0,0,1,.79.19,5.476,5.476,0,0,1,.61.15c.35.11.57.25.6.42s-.14.36-.49.55A4.257,4.257,0,0,1,958.8,1594.933Z" fill="#0f1b0d"/>
        <path id="路径_1048" data-name="路径 1048" d="M956.78,1760.923c-.27,2.4.24,4.32-.31,5.63-.36.05-.73.11-1.09.19a.836.836,0,0,0,.07-.13c1.69-3.39-.2-34.02-.82-43.33.76,4.77,1.57,11.34,2.1,18.65A113.2,113.2,0,0,1,956.78,1760.923Z" fill="#0f1b0d"/>
        <path id="路径_1049" data-name="路径 1049" d="M955.02,1760.813c.08-4.76-.27-11.38-.79-18.7-.68-9.4-1.37-17.66-1.59-22.4l1.5.75c.16.84.32,1.77.49,2.79-.01.01,0,.02,0,.03.62,9.31,2.51,39.94.82,43.33a.836.836,0,0,1-.07.13c-.31.05-.62.12-.93.19.04-.17.08-.37.12-.58A33.741,33.741,0,0,0,955.02,1760.813Z" fill="#0f1b0d"/>
        <path id="路径_1050" data-name="路径 1050" d="M954.06,1768.343a4.335,4.335,0,0,0,1.32-1.6c.36-.08.73-.14,1.09-.19v.02l-.01.01a.049.049,0,0,1-.01.03c0,.01,0,.01-.01.01-.11.15-.92.87-.99.99-.16.24-.67.32-.85.44C954.3,1768.323,954.12,1768.4,954.06,1768.343Z" fill="#0f1b0d"/>
        <path id="路径_1051" data-name="路径 1051" d="M955.38,1766.743a4.335,4.335,0,0,1-1.32,1.6c-.1-.13.17-.54.39-1.41C954.76,1766.863,955.07,1766.793,955.38,1766.743Z" fill="#0f1b0d"/>
        <path id="路径_1052" data-name="路径 1052" d="M965.43,1619.913c-1.39,1.65-5.44,5.77-11.24,11.58-3.25,3.26-7.07,7.06-11.21,11.3l22.31-23.01A1.648,1.648,0,0,0,965.43,1619.913Z" fill="#0f1b0d"/>
        <path id="路径_1053" data-name="路径 1053" d="M952.79,1715.493c.26-.04.77,1.81,1.35,4.97l-1.5-.75c.43-2.24.52-3.55.31-3.6-.08-.02-.21.14-.37.46C952.6,1715.883,952.67,1715.513,952.79,1715.493Z" fill="#0f1b0d"/>
        <path id="路径_1054" data-name="路径 1054" d="M952.64,1719.713c-.06-1.35-.09-2.42-.06-3.14.16-.32.29-.48.37-.46C953.16,1716.163,953.07,1717.473,952.64,1719.713Z" fill="#0f1b0d"/>
        <path id="路径_1055" data-name="路径 1055" d="M952.45,1719.613l.19.1q-.12.615-.27,1.32C952.42,1720.533,952.45,1720.063,952.45,1719.613Z" fill="#0f1b0d"/>
        <path id="路径_1056" data-name="路径 1056" d="M950.49,1543.653q.405.06.84.12a12.057,12.057,0,0,0-1.04.75A6.664,6.664,0,0,0,950.49,1543.653Z" fill="#0f1b0d"/>
        <path id="路径_1057" data-name="路径 1057" d="M948.45,1539.613s2.6.65,2.04,4.04c-.33-.06-.66-.11-.98-.18Z" fill="#0f1b0d"/>
        <path id="路径_1058" data-name="路径 1058" d="M950.45,1544.613c.02.02.02.06-.01.13l-.21-.03C950.35,1544.623,950.42,1544.593,950.45,1544.613Z" fill="#0f1b0d"/>
        <path id="路径_1059" data-name="路径 1059" d="M952.09,1543.873a250.715,250.715,0,0,0,28.43,1.86l.03,2.28c-.29-1.24-.47-1.91-.6-1.9s-.21.75-.14,2.12h-.02c-.22-1.01-.34-1.62-.34-1.62s-17.45,0-29.01-1.87c.03-.07.03-.11.01-.13s-.1.01-.22.1c.02-.07.04-.13.06-.19a12.057,12.057,0,0,1,1.04-.75C951.58,1543.813,951.83,1543.843,952.09,1543.873Z" fill="#0f1b0d"/>
        <path id="路径_1060" data-name="路径 1060" d="M950.22,1729.133c.98-3.17,1.68-5.94,2.15-8.1A34.176,34.176,0,0,1,950.22,1729.133Z" fill="#fffef6"/>
        <path id="路径_1061" data-name="路径 1061" d="M950.02,1545.313a5.888,5.888,0,0,0,.2-.59.01.01,0,0,0,.01-.01l.21.03a3.977,3.977,0,0,1-.38.72Z" fill="#0f1b0d"/>
        <path id="路径_1062" data-name="路径 1062" d="M950.49,1543.653a6.664,6.664,0,0,1-.2.87,1.567,1.567,0,0,0-.2.16,1.863,1.863,0,0,1-.25-.04l-.33-1.17C949.83,1543.543,950.16,1543.593,950.49,1543.653Z" fill="#0f1b0d"/>
        <path id="路径_1063" data-name="路径 1063" d="M950.29,1544.523c-.02.06-.04.12-.06.19-.05-.01-.1-.02-.14-.03A1.567,1.567,0,0,1,950.29,1544.523Z" fill="#0f1b0d"/>
        <path id="路径_1064" data-name="路径 1064" d="M950.06,1545.463l.19.69q-.285-.045-.54-.09C949.85,1545.833,949.97,1545.633,950.06,1545.463Z" fill="#0f1b0d"/>
        <path id="路径_1065" data-name="路径 1065" d="M950.22,1544.723a5.888,5.888,0,0,1-.2.59l-.09-.33A2.907,2.907,0,0,1,950.22,1544.723Z" fill="#0f1b0d"/>
        <path id="路径_1066" data-name="路径 1066" d="M950.09,1544.683l-.2.17-.05-.21A1.863,1.863,0,0,0,950.09,1544.683Z" fill="#0f1b0d"/>
        <path id="路径_1067" data-name="路径 1067" d="M949.89,1544.853l.2-.17c.04.01.09.02.14.03a.01.01,0,0,1-.01.01,2.907,2.907,0,0,0-.29.26Z" fill="#0f1b0d"/>
        <path id="路径_1068" data-name="路径 1068" d="M950.02,1545.313l.04.15c-.09.17-.21.37-.35.6C949.83,1545.8,949.93,1545.553,950.02,1545.313Z" fill="#0f1b0d"/>
        <path id="路径_1069" data-name="路径 1069" d="M949.93,1544.983l.09.33c-.09.24-.19.49-.31.75-.23-.04-.45-.08-.67-.13C949.4,1545.513,949.7,1545.2,949.93,1544.983Z" fill="#0f1b0d"/>
        <path id="路径_1070" data-name="路径 1070" d="M949.89,1544.853l.04.13c-.23.22-.53.53-.89.95a.5.5,0,0,1-.12-.02A7.332,7.332,0,0,1,949.89,1544.853Z" fill="#0f1b0d"/>
        <path id="路径_1071" data-name="路径 1071" d="M949.74,1770.793c.3-.14.6-.29.9-.42.61-.26,1.23-.5,1.86-.7a30.628,30.628,0,0,1,7.74-1.43c2.58-.16,5.28-.08,7.88-.2s5.18-.29,7.71-.58c1.26-.15,2.51-.32,3.74-.55.62-.11,1.24-.24,1.85-.38.31-.08.61-.15.92-.24l.46-.14c.21-.06.49-.16.72-.25a6.869,6.869,0,0,1,1.48-1.54,6.5,6.5,0,0,1,1.6-.9,6.728,6.728,0,0,1,1.76-.41,16.013,16.013,0,0,0,2.14-.27c2.72-.6,5.23-1.39,7.71-2.12,4.93-1.51,9.54-3.06,13.85-4.55,8.59-3.02,15.93-5.88,21.86-8.42s10.59-4.32,13.53-6.08c.73-.44,3.46-1.62,4-2a1.5,1.5,0,0,1,.13-.08l.4-.13c6.79-2.17,25.23-6.51,28.91-.62,4.55,7.29,1.86,13.46,1.74,13.71l-.05.1a81.818,81.818,0,0,1-8.53,5.44c-1.58.89-3.2,1.75-4.84,2.57l-.61.3-.04.02-.31.05-1.37.25-2.75.5c-3.68.65-7.37,1.31-11.1,1.97-13.67,2.38-27.06,4.61-40.06,6.52-6.51.94-12.92,1.81-19.21,2.37-.78.07-1.57.14-2.35.2-.77.03-1.54.06-2.31.1-.72.04-1.45.05-2.18.05-.84,0-1.67-.01-2.5,0q-4.68,0-9.27.02-9.165.015-17.92.04c-1.46.01-2.91.01-4.35.01-.72.01-1.43.01-2.15.01h-1.07a1.112,1.112,0,0,1-.52-.11,1.01,1.01,0,0,1-.53-.82,1,1,0,0,1,.39-.88A7.791,7.791,0,0,1,949.74,1770.793Z" fill="#f1c8b5"/>
        <path id="路径_1072" data-name="路径 1072" d="M949.69,1546.1q-.105.255-.24.51a43.664,43.664,0,0,1-3.43,5.77c.77-1.51,1.54-2.8,2.19-3.88C948.81,1547.523,949.31,1546.713,949.69,1546.1Z" fill="#fffef6"/>
        <path id="路径_1073" data-name="路径 1073" d="M948.92,1545.913a.5.5,0,0,0,.12.02c-.19.21-.39.46-.62.73.01-.02.02-.03.03-.05A6.119,6.119,0,0,1,948.92,1545.913Z" fill="#fffef6"/>
        <path id="路径_1074" data-name="路径 1074" d="M956.44,1766.623c.01,0,.01,0,.01-.01a.049.049,0,0,0,.01-.03l.01-.01v-.02a34.9,34.9,0,0,1,3.64-.39c2.78-.14,5.36-.04,7.94-.14,2.57-.08,5.1-.23,7.56-.49,1.23-.14,2.44-.29,3.63-.5.59-.1,1.17-.22,1.75-.35l.85-.21.4-.11.14-.04a7.024,7.024,0,0,1,.61-.68,9.4,9.4,0,0,1,.9-.77,8.386,8.386,0,0,1,2.06-1.12,8.5,8.5,0,0,1,2.26-.51,11.032,11.032,0,0,0,1.93-.21c1.41-.29,2.8-.65,4.18-1.03-.13.6-.24.9-.17.93a2.234,2.234,0,0,0,1.26-1.23c.78-.22,1.55-.45,2.32-.66,4.92-1.44,9.53-2.93,13.85-4.35,8.61-2.88,15.97-5.58,21.94-7.97a142.635,142.635,0,0,0,13.51-6.04c.75-.4,1.43-.71,1.98-1.04s1.02-.61,1.4-.83h.01c.19.19.32.31.34.33l.53.48.29-.09a1.5,1.5,0,0,0-.13.08c-.54.38-3.27,1.56-4,2-2.94,1.76-7.6,3.55-13.53,6.08s-13.27,5.4-21.86,8.42c-4.31,1.49-8.92,3.04-13.85,4.55-2.48.73-4.99,1.52-7.71,2.12a16.013,16.013,0,0,1-2.14.27,6.728,6.728,0,0,0-1.76.41,6.5,6.5,0,0,0-1.6.9,6.869,6.869,0,0,0-1.48,1.54c-.23.09-.51.19-.72.25l-.46.14c-.31.09-.61.16-.92.24-.61.14-1.23.27-1.85.38-1.23.23-2.48.4-3.74.55-2.53.29-5.1.47-7.71.58s-5.3.04-7.88.2a30.628,30.628,0,0,0-7.74,1.43c-.63.2-1.25.44-1.86.7-.3.13-.6.28-.9.42a7.791,7.791,0,0,0-.74.41,1,1,0,0,0-.39.88,1.01,1.01,0,0,0,.53.82,1.112,1.112,0,0,0,.52.11h1.07c.72,0,1.43,0,2.15-.01,1.44,0,2.89,0,4.35-.01q8.745-.015,17.92-.04,4.59-.015,9.27-.02c.83-.01,1.66,0,2.5,0v.11c-4.94.05-9.49.12-13.55.19-6.2.11-11.26.24-14.85.38H948.45l-1-1a12.376,12.376,0,0,0,2-3c.79-1.57,2.81-.06,4.61-1.27.06.06.24-.02.54-.29.18-.12.69-.2.85-.44C955.52,1767.493,956.33,1766.773,956.44,1766.623Z" fill="#0f1b0d"/>
        <path id="路径_1075" data-name="路径 1075" d="M948.55,1579.073c.18.78.31,1.42.38,1.88a2.408,2.408,0,0,1,.02,1.16c-.12.31-.74.41-1.42-.08a4.17,4.17,0,0,1-1.42-2.37c-.45-1.99.16-3.55.84-3.55S948.18,1577.523,948.55,1579.073Z" fill="#0f1b0d"/>
        <path id="路径_1076" data-name="路径 1076" d="M948.45,1773.613h10.07c-.16.01-.31.01-.46.02-3.61.15-5.61.31-5.61.48s2,.34,5.61.49,8.84.28,15.31.4c5.03.09,10.81.16,17.15.21-.46.02-.92.03-1.37.05-1.63.09-3.16.02-4.73.04-3.12-.01-6.21-.01-9.27-.02q-9.165-.015-17.92-.04c-1.46-.01-2.91-.01-4.35-.02h-2.15l-1.07-.01a3.3,3.3,0,0,1-1.53-.36,3.211,3.211,0,0,1-.43-5.39,9.549,9.549,0,0,1,1.09-.61c.33-.15.66-.31,1-.45.67-.29,1.35-.54,2.04-.76.87-.28,1.74-.52,2.62-.71-.22.87-.49,1.28-.39,1.41-1.8,1.21-3.82-.3-4.61,1.27a12.376,12.376,0,0,1-2,3Z" fill="#0f1b0d"/>
        <path id="路径_1077" data-name="路径 1077" d="M946.83,1559.383a2.847,2.847,0,0,1,1.41,1.59c.18.57,0,1.01-.29,1.14a1.578,1.578,0,0,1-1.07-.02,6.836,6.836,0,0,1-2.2-1.15,12.992,12.992,0,0,0-.21-1.76v-.02A2.721,2.721,0,0,1,946.83,1559.383Z" fill="#0f1b0d"/>
        <path id="路径_1078" data-name="路径 1078" d="M943.83,1567.913c.17-.77.33-1.53.46-2.29a.86.86,0,0,1,.16-.01,2,2,0,0,1,0,4,1.925,1.925,0,0,1-.95-.25C943.62,1568.873,943.72,1568.393,943.83,1567.913Z" fill="#0f1b0d"/>
        <path id="路径_1079" data-name="路径 1079" d="M944.45,1606.613c4,3,6,4,23,2l.03.06-1.75.94c0,.01.01.01.01.02a2.747,2.747,0,0,0-.29-.02l-11,1-8-1s-1.06-1.33-2.36-3.3A3.589,3.589,0,0,0,944.45,1606.613Z" fill="#0f1b0d"/>
        <path id="路径_1080" data-name="路径 1080" d="M946.83,1559.383a2.721,2.721,0,0,0-2.36-.22l-.12-.49-.06-.25-.02-.18a2.347,2.347,0,0,1-.04-.71,7.333,7.333,0,0,1,.29-1.57,21.414,21.414,0,0,1,1.17-2.92c.11-.21.21-.43.31-.63.01-.01.02-.02.02-.03a43.664,43.664,0,0,0,3.43-5.77q.135-.255.24-.51c.01-.02.02-.03.02-.04q.255.045.54.09l17.07,61.98c-3.19.35-6.65.6-10.31.72-1.68.05-3.43.09-5.17.06a8.511,8.511,0,0,1-4.56-1.3c-2.77-1.71-4.4-5.18-5.31-8.8a46.1,46.1,0,0,1-1.17-11.08,65.557,65.557,0,0,1,.86-10.44c.27-1.62.71-3.2,1.08-4.78.27-1.07.52-2.12.76-3.15a1.925,1.925,0,0,0,.95.25,2,2,0,0,0,0-4,.86.86,0,0,0-.16.01,22.025,22.025,0,0,0,.39-4.68,6.836,6.836,0,0,0,2.2,1.15,1.578,1.578,0,0,0,1.07.02c.29-.13.47-.57.29-1.14A2.847,2.847,0,0,0,946.83,1559.383Zm12.63,35.28c.35-.19.52-.38.49-.55s-.25-.31-.6-.42a5.476,5.476,0,0,0-.61-.15,7.636,7.636,0,0,0-.79-.19,39.243,39.243,0,0,1-4.41-1.27c-3.42-1.22-6.19-2.53-6.59-1.97-.42.55,1.91,2.95,5.76,4.33a11.527,11.527,0,0,0,5.18.67,8.615,8.615,0,0,0,.91-.18A4.257,4.257,0,0,0,959.46,1594.663Zm-10.51-12.55a2.408,2.408,0,0,0-.02-1.16c-.07-.46-.2-1.1-.38-1.88-.37-1.55-.91-2.96-1.6-2.96s-1.29,1.56-.84,3.55a4.17,4.17,0,0,0,1.42,2.37C948.21,1582.523,948.83,1582.423,948.95,1582.113Z" fill="#f1c8b5"/>
        <path id="路径_1081" data-name="路径 1081" d="M944.49,1560.783a13.95,13.95,0,0,0-.18-1.53c.05-.03.1-.06.16-.09v.02a12.992,12.992,0,0,1,.21,1.76A1.461,1.461,0,0,1,944.49,1560.783Z" fill="#0f1b0d"/>
        <path id="路径_1082" data-name="路径 1082" d="M949.69,1546.1c-.38.61-.88,1.42-1.48,2.4-.65,1.08-1.42,2.37-2.19,3.88,0,.01-.01.02-.02.03a27.894,27.894,0,0,1-1.79,2.35c.67-1.5,1.94-4.12,4.21-8.1.23-.27.43-.52.62-.73.22.05.44.09.67.13C949.71,1546.073,949.7,1546.083,949.69,1546.1Z" fill="#0f1b0d"/>
        <path id="路径_1083" data-name="路径 1083" d="M944.31,1559.253a13.95,13.95,0,0,1,.18,1.53,1.319,1.319,0,0,1-.51-1.04A.7.7,0,0,1,944.31,1559.253Z" fill="#0f1b0d"/>
        <path id="路径_1084" data-name="路径 1084" d="M944.31,1559.253a15.14,15.14,0,0,0-.76-2.85s.16-.51.66-1.64a27.894,27.894,0,0,0,1.79-2.35c-.1.2-.2.42-.31.63a21.414,21.414,0,0,0-1.17,2.92,7.333,7.333,0,0,0-.29,1.57,2.347,2.347,0,0,0,.04.71l.02.18.06.25.12.49C944.41,1559.193,944.36,1559.223,944.31,1559.253Z" fill="#0f1b0d"/>
        <path id="路径_1085" data-name="路径 1085" d="M943.75,1565.743a4.922,4.922,0,0,0,.05-.54c.05-.13.09-.25.14-.37a9.516,9.516,0,0,0,.55-4.05,1.461,1.461,0,0,0,.19.16,22.025,22.025,0,0,1-.39,4.68A1.631,1.631,0,0,0,943.75,1565.743Z" fill="#0f1b0d"/>
        <path id="路径_1086" data-name="路径 1086" d="M943.56,1565.833c.07-.22.16-.43.24-.63a4.922,4.922,0,0,1-.05.54A.659.659,0,0,0,943.56,1565.833Z" fill="#0f1b0d"/>
        <path id="路径_1087" data-name="路径 1087" d="M943.55,1556.4a15.14,15.14,0,0,1,.76,2.85.7.7,0,0,0-.33.49,1.319,1.319,0,0,0,.51,1.04,9.516,9.516,0,0,1-.55,4.05c-.05.12-.09.24-.14.37a57.246,57.246,0,0,0-.35-9.59s.28-.28.76-.85C943.71,1555.893,943.55,1556.4,943.55,1556.4Z" fill="#0f1b0d"/>
        <path id="路径_1088" data-name="路径 1088" d="M944.29,1565.623c-.13.76-.29,1.52-.46,2.29-.11.48-.21.96-.33,1.45a1.712,1.712,0,0,1-.44-.32c.16-.54.29-1.02.39-1.43a12.2,12.2,0,0,0,.3-1.87A1.631,1.631,0,0,1,944.29,1565.623Z" fill="#0f1b0d"/>
        <path id="路径_1089" data-name="路径 1089" d="M943.56,1565.833c-.3.75-.63,1.61-.96,2.54a1.945,1.945,0,0,1-.15-.76,2,2,0,0,1,.59-1.41A1.9,1.9,0,0,1,943.56,1565.833Z" fill="#0f1b0d"/>
        <path id="路径_1090" data-name="路径 1090" d="M943.45,1567.613c-.1.41-.23.89-.39,1.43a2.056,2.056,0,0,1-.46-.67c.33-.93.66-1.79.96-2.54a.659.659,0,0,1,.19-.09A12.2,12.2,0,0,1,943.45,1567.613Z" fill="#0f1b0d"/>
        <path id="路径_1091" data-name="路径 1091" d="M942.12,1603.083c.65,1.18,1.33,2.27,1.96,3.22A8.591,8.591,0,0,1,942.12,1603.083Z" fill="#0f1b0d"/>
        <path id="路径_1092" data-name="路径 1092" d="M939.3,1586.313c.04-.86.08-1.69.1-2.48.51-4.79,2.61-11.14,3.66-14.79a1.712,1.712,0,0,0,.44.32c-.24,1.03-.49,2.08-.76,3.15-.37,1.58-.81,3.16-1.08,4.78a65.557,65.557,0,0,0-.86,10.44,46.1,46.1,0,0,0,1.17,11.08c.91,3.62,2.54,7.09,5.31,8.8a8.511,8.511,0,0,0,4.56,1.3c1.74.03,3.49-.01,5.17-.06,3.66-.12,7.12-.37,10.31-.72l.13.48c-17,2-19,1-23-2a3.589,3.589,0,0,1-.36-.3.01.01,0,0,1-.01-.01c-.63-.95-1.31-2.04-1.96-3.22v-.01c-1.73-4.6-1.92-11.71-2.67-15.46A8.444,8.444,0,0,1,939.3,1586.313Z" fill="#0f1b0d"/>
        <path id="路径_1093" data-name="路径 1093" d="M1005.45,1531.613l4,5a32.082,32.082,0,0,1,5,3c1,1,7,7,7,13s-3,20-12,28l-1.37.46v-.01c4.54-4.82,11.96-14.13,12.62-24.03.93-13.91-11.71-19.54-12.25-19.77l-.42-.18-.2-.41c-.43-.85-11-20.96-42.55-12.35-18.46,5.03-24.77,10.46-24.52,13.85.17,2.32,3.52,4.31,8.75,5.3l.33,1.17c-5.2-.88-9.08-2.17-9.39-4.03-1-6,0-6,0-6l12-7,22-6h13l11.04,2.76c.55.31,1.07.62,1.57.95Z" fill="#0f1b0d"/>
        <path id="路径_1094" data-name="路径 1094" d="M938.27,1538.363c-.44-5.86,8.92-11.7,26.35-16.45,15.74-4.29,26.68-1.62,33.87,2.46l-11.04-2.76h-13l-22,6-12,7s-1,0,0,6c.31,1.86,4.19,3.15,9.39,4.03l.05.21a7.332,7.332,0,0,0-.97,1.06C942.45,1544.633,938.53,1541.9,938.27,1538.363Z" fill="#0f1b0d"/>
        <path id="路径_1095" data-name="路径 1095" d="M943.06,1569.043c-1.05,3.65-3.15,10-3.66,14.79.03-.79.05-1.53.05-2.22,0-3.74,1.68-9.16,3.15-13.24A2.056,2.056,0,0,0,943.06,1569.043Z" fill="#0f1b0d"/>
        <path id="路径_1096" data-name="路径 1096" d="M939.45,1587.613c.75,3.75.94,10.86,2.67,15.46a29.757,29.757,0,0,1-1.67-3.46c-1.45-3.62-1.32-8.81-1.15-13.3A8.444,8.444,0,0,0,939.45,1587.613Z" fill="#0f1b0d"/>
        <path id="路径_1097" data-name="路径 1097" d="M939.4,1583.833c-.02.79-.06,1.62-.1,2.48A17.96,17.96,0,0,1,939.4,1583.833Z" fill="#0f1b0d"/>
        <path id="路径_1098" data-name="路径 1098" d="M943.01,1555.483a19.743,19.743,0,0,1,1.45-3.09,40.4,40.4,0,0,1,2.94-4.43c.37-.49.71-.92,1.02-1.3-2.27,3.98-3.54,6.6-4.21,8.1-.48.57-.76.85-.76.85a57.246,57.246,0,0,1,.35,9.59c-.08.2-.17.41-.24.63a1.9,1.9,0,0,0-.52.37,2,2,0,0,0-.59,1.41,1.945,1.945,0,0,0,.15.76c-1.47,4.08-3.15,9.5-3.15,13.24,0,.69-.02,1.43-.05,2.22a17.96,17.96,0,0,0-.1,2.48c-.17,4.49-.3,9.68,1.15,13.3a29.757,29.757,0,0,0,1.67,3.46v.01a8.591,8.591,0,0,0,1.96,3.22.01.01,0,0,0,.01.01c1.3,1.97,2.36,3.3,2.36,3.3l8,1,11-1a2.747,2.747,0,0,1,.29.02c.12.22.24.47.35.73-2.81.36-5.82.63-8.98.79-1.73.09-3.47.15-5.3.15a10.924,10.924,0,0,1-5.82-1.61,12.361,12.361,0,0,1-4.23-4.54,22.815,22.815,0,0,1-2.21-5.73,46.6,46.6,0,0,1-1.19-11.71,62.861,62.861,0,0,1,1.04-10.84c.32-1.75.81-3.36,1.21-4.91.43-1.56.84-3.07,1.2-4.52.73-2.9,1.27-5.61.92-7.96l-.08-.43-.04-.21-.04-.3a3.9,3.9,0,0,1-.01-1.13A8.28,8.28,0,0,1,943.01,1555.483Z" fill="#0f1b0d"/>
        <path id="路径_1099" data-name="路径 1099" d="M932.73,1761.173c.51-.84,1.09-1.77,1.74-2.8a140.544,140.544,0,0,0,8.62-16.98c5.15-12.03,8.33-22.54,9.49-24.82-.03.72,0,1.79.06,3.14l-.19-.1c0,.45-.03.92-.08,1.42-.47,2.16-1.17,4.93-2.15,8.1-4.29,11.39-13.62,26.16-17.74,32.44C932.55,1761.443,932.64,1761.313,932.73,1761.173Z" fill="#0f1b0d"/>
        <path id="路径_1100" data-name="路径 1100" d="M932.48,1761.573a1.267,1.267,0,0,1-.13.19C932.39,1761.7,932.43,1761.643,932.48,1761.573Z" fill="#0f1b0d"/>
        <path id="路径_1101" data-name="路径 1101" d="M945.38,1742.383a87.1,87.1,0,0,1-9.44,16.98c-.77.99-1.47,1.87-2.09,2.64-.64.76-.92,1.12-1.4,1.61-.33.33-.76.78-1.19,1.24-.13-.27-.26-.55-.4-.84a1.383,1.383,0,0,1,.13-.2c.33-.49.79-1.18,1.36-2.05a1.267,1.267,0,0,0,.13-.19c4.12-6.28,13.45-21.05,17.74-32.44A131.217,131.217,0,0,1,945.38,1742.383Z" fill="#0f1b0d"/>
        <path id="路径_1102" data-name="路径 1102" d="M932.35,1761.763c-.57.87-1.03,1.56-1.36,2.05q.2-.315.36-.57C931.62,1762.8,931.97,1762.323,932.35,1761.763Z" fill="#0f1b0d"/>
        <path id="路径_1103" data-name="路径 1103" d="M930.86,1764.013c.14.29.27.57.4.84l-.51.54c-.14-.38-.25-.65-.28-.74q.18-.315.36-.6C930.85,1764.043,930.85,1764.023,930.86,1764.013Z" fill="#0f1b0d"/>
        <path id="路径_1104" data-name="路径 1104" d="M930.83,1764.053q-.18.285-.36.6a.109.109,0,0,0-.02-.04S930.58,1764.413,930.83,1764.053Z" fill="#0f1b0d"/>
        <path id="路径_1105" data-name="路径 1105" d="M930.47,1764.653c.03.09.14.36.28.74a7.131,7.131,0,0,1-1.29,1.22h-.01A7.514,7.514,0,0,1,930.47,1764.653Z" fill="#0f1b0d"/>
        <path id="路径_1106" data-name="路径 1106" d="M929.36,1766.663a17.234,17.234,0,0,1,1.34,3.45c0,1.4-7.51,3.63-11.45,3.75-2.35-2.5-10.45-25.26-17.05-45.93.11-3.31,3.25-7.8,5.07-9.73a2.777,2.777,0,0,0,.56-.17,88.912,88.912,0,0,1,5.89,16.33c.54,2.68,4.67,10.71,9.05,19.2C925.09,1758.043,927.78,1763.263,929.36,1766.663Z" fill="#fffef6"/>
        <path id="路径_1107" data-name="路径 1107" d="M922.84,1729.293a9.42,9.42,0,0,1-.89-2.18c.03-.05.27.09.52.42a13.006,13.006,0,0,1,.99,1.42c.77,1.23,1.76,2.96,2.98,4.76a19.208,19.208,0,0,0,3.59,4.14c1.09.87,1.95,1.09,1.92,1.26,0,.11-1.01.12-2.32-.68a14.329,14.329,0,0,1-4.02-4.16A36.131,36.131,0,0,1,922.84,1729.293Z" fill="#0f1b0d"/>
        <path id="路径_1108" data-name="路径 1108" d="M920.67,1718.883c-1.74-2.93-2-5.74-1.72-5.77.26-.05.94,2.51,2.58,5.26,1.6,2.78,3.61,4.5,3.42,4.74-.08.1-.7-.2-1.54-.92A13.035,13.035,0,0,1,920.67,1718.883Z" fill="#0f1b0d"/>
        <path id="路径_1109" data-name="路径 1109" d="M919.45,1775.613s13-2,13-4c0-1.51-1.14-4.73-1.7-6.22l.51-.54c1.32,2.81,1.94,4.45,1.94,5.26,0,4.81-12.87,6.25-14.25,6.25-.49,0-1.01,0-1.94-1.34.3-.08.58-.15.82-.22Z" fill="#0f1b0d"/>
        <path id="路径_1110" data-name="路径 1110" d="M918.45,1774.613c.46-.16.17.61-.34.11C918.25,1774.673,918.37,1774.643,918.45,1774.613Z" fill="#0f1b0d"/>
        <path id="路径_1111" data-name="路径 1111" d="M917.45,1774.613l.38.19c-.24.07-.52.14-.82.22-.06-.09-.12-.19-.19-.29Q917.135,1774.688,917.45,1774.613Z" fill="#0f1b0d"/>
        <path id="路径_1112" data-name="路径 1112" d="M917.83,1774.8l-.38-.19q-.315.075-.63.12c-.07-.11-.14-.23-.22-.36a4.454,4.454,0,0,1,1.15-.19,2.071,2.071,0,0,0,.36.54C918.03,1774.743,917.94,1774.773,917.83,1774.8Z" fill="#0f1b0d"/>
        <path id="路径_1113" data-name="路径 1113" d="M914.29,1774.713c.98-.1,1.75-.23,2.31-.34.08.13.15.25.22.36a17.644,17.644,0,0,1-5.89-.02A15.008,15.008,0,0,0,914.29,1774.713Z" fill="#0f1b0d"/>
        <path id="路径_1114" data-name="路径 1114" d="M911.47,1713.663c-.67,1.26-1.2,2.23-1.6,2.9a48.978,48.978,0,0,1,2.74,6.23,82.892,82.892,0,0,1,3.56,11.08c.47,2.34,4.91,10.95,8.82,18.54,2.6,5.04,4.53,8.82,5.87,11.6-.01.01-.01.03-.03.04-.25.36-.38.56-.38.56a.109.109,0,0,1,.02.04,7.514,7.514,0,0,0-1.02,1.96l-.09.05c-1.58-3.4-4.27-8.62-6.59-13.1-4.38-8.49-8.51-16.52-9.05-19.2a88.912,88.912,0,0,0-5.89-16.33,3.7,3.7,0,0,0,1.62-1.42c2-3,24-64,24-64l6.83-7.04c-.91.95-1.83,1.93-2.75,2.92-.6.66-1.21,1.34-1.82,2.02a21.173,21.173,0,0,0-1.57,2.01,7.512,7.512,0,0,0-.49,1.14c-.15.45-.31.89-.46,1.34-.3.91-.61,1.83-.92,2.75-.6,1.86-1.22,3.75-1.84,5.66-4.96,15.29-9.8,29.06-13.85,38.82-.98,2.45-1.96,4.64-2.8,6.56C912.91,1710.7,912.11,1712.333,911.47,1713.663Z" fill="#0f1b0d"/>
        <path id="路径_1115" data-name="路径 1115" d="M952.96,1630.223c3.88-3.57,7.07-6.41,9.32-8.32,1.25-1.07,2.21-1.85,2.83-2.3l.18.18-22.31,23.01c-.59.6-1.19,1.22-1.79,1.84-.3.31-.61.62-.91.94l-6.83,7.04s-22,61-24,64a3.7,3.7,0,0,1-1.62,1.42c-.05-.09-.09-.18-.14-.26a5.767,5.767,0,0,0-.42.43,4.158,4.158,0,0,1-2.81-.58c1.34-1.65,2.68-2.76,3.49-2.76.42,0,.84.01,1.57,1.13.26-.7.61-1.61,1.06-2.73.52-1.37,1.16-3.05,1.91-5.01.71-1.96,1.57-4.17,2.44-6.65,3.61-9.88,8.17-23.68,13.12-38.97q.945-2.865,1.86-5.66c.32-.93.63-1.86.94-2.78.17-.46.33-.92.49-1.38a10.363,10.363,0,0,1,.65-1.46,19.233,19.233,0,0,1,1.89-2.43c.64-.71,1.28-1.38,1.9-2.07,1.28-1.32,2.53-2.61,3.77-3.84C944.5,1638.083,949.09,1633.793,952.96,1630.223Z" fill="#0f1b0d"/>
        <path id="路径_1116" data-name="路径 1116" d="M904.46,1717.623a.031.031,0,0,0-.02.01l.01-.02Z" fill="#fffef6"/>
        <path id="路径_1117" data-name="路径 1117" d="M930.7,1770.113a17.234,17.234,0,0,0-1.34-3.45l.09-.05h.01a7.131,7.131,0,0,0,1.29-1.22c.56,1.49,1.7,4.71,1.7,6.22,0,2-13,4-13,4l-1.62-.81c.11-.03.2-.06.28-.08.51.5.8-.27.34-.11-.08.03-.2.06-.34.11a2.071,2.071,0,0,1-.36-.54,4.454,4.454,0,0,0-1.15.19c-1.55-2.6-4.12-8.57-8.96-22.34-3.01-8.59-5.86-17.27-7.15-21.26a3.937,3.937,0,0,0,.96-.16c.6-.11-.49-1.48-.5-1.5-.02-.04.03-.31-.18-.44l3.67-11.04a.031.031,0,0,1,.02-.01,4.158,4.158,0,0,0,2.81.58c-1.82,1.93-4.96,6.42-5.07,9.73,6.6,20.67,14.7,43.43,17.05,45.93C923.19,1773.743,930.7,1771.513,930.7,1770.113Z" fill="#0f1b0d"/>
        <path id="路径_1118" data-name="路径 1118" d="M900.95,1729.113c.01.02,1.1,1.39.5,1.5a3.937,3.937,0,0,1-.96.16q-.165-.525-.3-.93a.389.389,0,0,0,.26-.23l.31-.94h.01C900.98,1728.8,900.93,1729.073,900.95,1729.113Z" fill="#0f1b0d"/>
        <path id="路径_1119" data-name="路径 1119" d="M900.45,1728.613a.63.63,0,0,1,.31.06l-.31.94a.389.389,0,0,1-.26.23c-.16-.51-.28-.89-.35-1.11A3.789,3.789,0,0,1,900.45,1728.613Z" fill="#0f1b0d"/>
        <path id="路径_1120" data-name="路径 1120" d="M899.7,1728.113c0-3.18,2.41-7.64,4.74-10.48l-3.67,11.04h-.01a.63.63,0,0,0-.31-.06,3.789,3.789,0,0,0-.61.12c-.05-.15-.08-.23-.08-.24l-.06-.18Z" fill="#0f1b0d"/>
        <path id="路径_1121" data-name="路径 1121" d="M899.84,1728.733c.07.22.19.6.35,1.11-.5.21-1.95.12-6.08-2.65a18.178,18.178,0,0,0,3.45,1.63A4.458,4.458,0,0,0,899.84,1728.733Z" fill="#0f1b0d"/>
        <path id="路径_1122" data-name="路径 1122" d="M894.11,1727.193a43.958,43.958,0,0,1-5.04-3.51c-1.86-1.47-3.87-3.21-6.02-5.2A120.1,120.1,0,0,0,894.11,1727.193Z" fill="#fffef6"/>
        <path id="路径_1123" data-name="路径 1123" d="M846.45,1676.613l-1-16,.18-.11.39.66c.14.31.26.64.39.96a4.407,4.407,0,0,1,.32.97,28.818,28.818,0,0,1,.54,7.5,20.213,20.213,0,0,0,.88,6.59,20.708,20.708,0,0,0,3.21,5.6c1.3,1.77,2.63,3.49,3.96,5.16,2.64,3.34,5.26,6.48,7.81,9.45a259.4,259.4,0,0,0,19.92,21.09c-1.97-1.7-4.16-3.64-6.6-5.87C853.45,1691.613,846.45,1676.613,846.45,1676.613Z" fill="#0f1b0d"/>
        <path id="路径_1124" data-name="路径 1124" d="M832.45,1647.613l2,2,4,5,7,6,1,16s7,15,30,36c2.44,2.23,4.63,4.17,6.6,5.87,2.15,1.99,4.16,3.73,6.02,5.2a43.958,43.958,0,0,0,5.04,3.51c4.13,2.77,5.58,2.86,6.08,2.65q.135.405.3.93a4.228,4.228,0,0,1-1.04-.16c-2.31-.57-7.42-3.54-10.96-6.16-7.12-5.24-16.29-14.13-26.7-25.9-2.6-2.95-5.27-6.07-7.98-9.41-1.35-1.66-2.72-3.38-4.06-5.17a22.611,22.611,0,0,1-3.56-6.11,22.184,22.184,0,0,1-1.06-7.26,27.306,27.306,0,0,0-.51-6.92,3.521,3.521,0,0,0-.27-.77l-.31-.75-.43-.69-.21-.35-.27-.32a6.58,6.58,0,0,0-1.17-1.19l-.65-.56-.77-.6a35.542,35.542,0,0,1-5.51-5.66c-.83-1.02-1.62-2.09-2.42-3.03-.2-.24-.4-.46-.59-.65l-.25-.22c-.01-.01-.02-.02-.03-.02a.047.047,0,0,0-.06.01c-.01,0-.01,0-.02.02l-.11-.09Z" fill="#0f1b0d"/>
        <path id="路径_1125" data-name="路径 1125" d="M829.45,1651.613l2.1-2.8.11.09a.764.764,0,0,0-.09.16,9.6,9.6,0,0,0-.55,1.62,7.387,7.387,0,0,0-.17,1.72,16.465,16.465,0,0,0,.51,3.73c.15.63.32,1.27.51,1.91.23.77.46,1.54.69,2.32a10.139,10.139,0,0,1,.4,1.85,1.913,1.913,0,0,1-.23,1.21,1.329,1.329,0,0,1-.38.42,1.28,1.28,0,0,1-.56.23,1.817,1.817,0,0,1-1.19-.2,15.333,15.333,0,0,1-2.67-2.1c-.52-.49-1.03-.98-1.53-1.48-.99-.99-1.97-1.94-3-2.89a114.8,114.8,0,0,0-13.24-10.64,36.625,36.625,0,0,0-3.63-2.17,13.892,13.892,0,0,0-1.85-.79c-.13-.04-.25-.08-.38-.11.64-.33,1.4-.7,2.15-1.08,2-1,23,19,23,19l2-1Z" fill="#0f1b0d"/>
        <path id="路径_1126" data-name="路径 1126" d="M832.02,1649.113c.19.19.39.41.59.65.8.94,1.59,2.01,2.42,3.03a35.542,35.542,0,0,0,5.51,5.66l.77.6.65.56a6.58,6.58,0,0,1,1.17,1.19l.27.32.21.35.43.69.31.75a3.521,3.521,0,0,1,.27.77,27.306,27.306,0,0,1,.51,6.92,22.184,22.184,0,0,0,1.06,7.26,22.611,22.611,0,0,0,3.56,6.11c1.34,1.79,2.71,3.51,4.06,5.17,2.71,3.34,5.38,6.46,7.98,9.41,10.41,11.77,19.58,20.66,26.7,25.9,3.54,2.62,8.65,5.59,10.96,6.16a4.228,4.228,0,0,0,1.04.16c1.29,3.99,4.14,12.67,7.15,21.26,4.84,13.77,7.41,19.74,8.96,22.34-.56.11-1.33.24-2.31.34a15.008,15.008,0,0,1-3.36,0h-.02a30.21,30.21,0,0,1-7.74-2.46,1.089,1.089,0,0,0-.11-.06,52.642,52.642,0,0,1-11.15-8.36,136.623,136.623,0,0,1-13.9-15.75c-9.55-12.36-19.41-28.18-29.8-46.09-1.32-2.24-2.63-4.5-4.07-6.79-.37-.57-.73-1.13-1.21-1.74-.46-.55-.91-1.05-1.37-1.57-.92-.99-1.86-1.98-2.8-2.96-3.78-3.91-7.65-7.85-11.5-11.95s-7.68-8.33-11.37-12.79a95.777,95.777,0,0,1-10.06-14.25,27.355,27.355,0,0,1-1.87-3.86,8.689,8.689,0,0,1-.51-1.86.41.41,0,0,1-.01-.11c.25-.12.54-.27.86-.42.13.03.25.07.38.11a13.892,13.892,0,0,1,1.85.79,36.625,36.625,0,0,1,3.63,2.17,114.8,114.8,0,0,1,13.24,10.64c1.03.95,2.01,1.9,3,2.89.5.5,1.01.99,1.53,1.48a15.333,15.333,0,0,0,2.67,2.1,1.817,1.817,0,0,0,1.19.2,1.28,1.28,0,0,0,.56-.23,1.329,1.329,0,0,0,.38-.42,1.913,1.913,0,0,0,.23-1.21,10.139,10.139,0,0,0-.4-1.85c-.23-.78-.46-1.55-.69-2.32-.19-.64-.36-1.28-.51-1.91a16.465,16.465,0,0,1-.51-3.73,7.387,7.387,0,0,1,.17-1.72,9.6,9.6,0,0,1,.55-1.62.764.764,0,0,1,.09-.16c.01-.02.01-.02.02-.02a.047.047,0,0,1,.06-.01c.01,0,.02.01.03.02Z" fill="#f1c8b5"/>
        <path id="路径_1127" data-name="路径 1127" d="M844.45,1698.613l-5-8c-24-18-37-46-37-46s.39-.19.99-.5a.41.41,0,0,0,.01.11,8.689,8.689,0,0,0,.51,1.86,27.355,27.355,0,0,0,1.87,3.86,95.777,95.777,0,0,0,10.06,14.25c3.69,4.46,7.53,8.69,11.37,12.79s7.72,8.04,11.5,11.95c.94.98,1.88,1.97,2.8,2.96.46.52.91,1.02,1.37,1.57.48.61.84,1.17,1.21,1.74,1.44,2.29,2.75,4.55,4.07,6.79,10.39,17.91,20.25,33.73,29.8,46.09a136.623,136.623,0,0,0,13.9,15.75,52.642,52.642,0,0,0,11.15,8.36,34.378,34.378,0,0,1-4.61-2.58c-9-3-33-36-33-36Z" fill="#0f1b0d"/>
        <path id="路径_1128" data-name="路径 1128" d="M800.97,1644.533a3.924,3.924,0,0,1,.06-1.58,2.38,2.38,0,0,1,1.35-1.63,3.238,3.238,0,0,1,1.77-.2,8.125,8.125,0,0,1,1.31.3,16.932,16.932,0,0,1,2.2.95,40.163,40.163,0,0,1,3.88,2.32,114.828,114.828,0,0,1,13.53,10.92c1.03.96,2.06,1.96,3.05,2.95l1.47,1.44.41.38c.05.06.06-.02.04-.06l-.47-1.62c-.19-.67-.37-1.34-.53-2.03a18.7,18.7,0,0,1-.56-4.27,9.766,9.766,0,0,1,.24-2.26,10.757,10.757,0,0,1,.76-2.14,2.991,2.991,0,0,1,.44-.68,2.505,2.505,0,0,1,.67-.63,1.954,1.954,0,0,1,1.76-.14c.14.07.28.13.42.2l.39.27a4.553,4.553,0,0,1,.49.42,10.688,10.688,0,0,1,.73.81c.89,1.07,1.64,2.1,2.44,3.1a33.878,33.878,0,0,0,5.14,5.34l.71.57.78.67a9.638,9.638,0,0,1,1.43,1.49l.33.4.27.44.15.24-.18.11-7-6-4-5-2-2-.9,1.2-2.1,2.8,2,9-2,1s-21-20-23-19c-.75.38-1.51.75-2.15,1.08-.16-.04-.32-.08-.46-.1a1.249,1.249,0,0,0-.4,0v.01a1.635,1.635,0,0,0,0,.51c-.6.31-.99.5-.99.5s13,28,37,46l5,8,21,35s24,33,33,36a34.378,34.378,0,0,0,4.61,2.58,1.089,1.089,0,0,1,.11.06q.765.39,1.5.72a19.737,19.737,0,0,0,6.24,1.74h.02a17.644,17.644,0,0,0,5.89.02c.07.1.13.2.19.29-.87.23-1.9.48-2.56.59a19.388,19.388,0,0,1-4.43-.26,20.609,20.609,0,0,1-5.73-1.49c-4.15-1.67-8.68-4.8-13.33-9.01a130.265,130.265,0,0,1-14.34-15.68c-9.81-12.33-19.89-28.15-30.4-46.01-1.32-2.22-2.65-4.49-4.06-6.69-.35-.54-.72-1.09-1.06-1.53l-1.28-1.45c-.91-.96-1.83-1.93-2.78-2.9-3.77-3.88-7.68-7.82-11.56-11.93s-7.76-8.37-11.51-12.89a97.179,97.179,0,0,1-10.34-14.63,30.962,30.962,0,0,1-2.01-4.18A11.191,11.191,0,0,1,800.97,1644.533Z" fill="#0f1b0d"/>
      </g>
    </g>
  </g>
</svg>
