<svg id="组件_2_1" data-name="组件 2 – 1" xmlns="http://www.w3.org/2000/svg" width="159.408" height="47.874" viewBox="0 0 159.408 47.874">
  <path id="路径_2022" data-name="路径 2022" d="M10.664-6.047c12.045-5.8,20.031,9.641,20.031,18.5S26.944,29.563,18.083,29.563-6.028,21.316-6.028,12.455-1.38-.251,10.664-6.047Z" transform="translate(92.715 7.316)" fill="#ffe56d"/>
  <path id="路径_2023" data-name="路径 2023" d="M7.58-6.3C17.4-10.942,23.91,1.422,23.91,8.519s-3.058,13.7-10.282,13.7S-6.028,15.616-6.028,8.519-2.239-1.658,7.58-6.3Z" transform="translate(135.498 25.653)" fill="#79bbb5"/>
  <path id="路径_2024" data-name="路径 2024" d="M7.58-6.3C17.4-10.942,23.91,1.422,23.91,8.519s-3.058,13.7-10.282,13.7S-6.028,15.616-6.028,8.519-2.239-1.658,7.58-6.3Z" transform="translate(6.028 10.417)" fill="#e7995f"/>
</svg>
