<svg xmlns="http://www.w3.org/2000/svg" viewBox="0 0 237.19 350.7"><defs><style>.cls-1{fill:#fefefe;}.cls-2{fill:#363636;}.cls-3{fill:#42403e;}.cls-4{fill:#423e3c;}.cls-5{fill:#e6985f;}.cls-6{fill:#444443;}.cls-7{fill:#e08a51;}.cls-8{fill:#f9e6c8;}.cls-9{fill:#fbf1df;}.cls-10{fill:#faefdd;}.cls-11{fill:#d1e7de;}.cls-12{fill:#d2e4da;}.cls-13{fill:#424240;}.cls-14{fill:#f3d7ae;}.cls-15{fill:#f6dcb2;}.cls-16{fill:#f5e0c0;}.cls-17{fill:#e0dbdb;}.cls-18{fill:#fbf1e0;}.cls-19{fill:#db7f47;}.cls-20{fill:#fbfbfb;}.cls-21{fill:#e18c53;}.cls-22{fill:#dcd7d7;}.cls-23{fill:#f3f2f2;}.cls-24{fill:#dc8048;}.cls-25{fill:#d6cfcf;}.cls-26{fill:#d26e3a;}.cls-27{fill:#3b3b3b;}.cls-28{fill:#cfc7c7;}</style></defs><title>會計資產 30</title><g id="圖層_2" data-name="圖層 2"><g id="圖層_2-2" data-name="圖層 2"><path class="cls-1" d="M113.92,175.91l9.27-1.8c9.27-1.8,25-10.65,25-10.65l9.29,3.44L140.8,180.41l-13.9,9-7.1-8.72Z"/><polygon class="cls-1" points="83.33 312.78 95.38 315.49 94.46 338.9 91.68 344.3 83.33 343.4 83.33 312.78"/><path class="cls-2" d="M47.15,94.25c-1.5-2.3-3-4.6-4.52-6.88-1.66-2.51-3.27-5.05-5.05-7.47-2.12-2.9-2.25-6.11-1.93-9.43a47.34,47.34,0,0,1,5.16-17.61C43.92,46.93,47.06,41,50.08,35c1-2,1.27-4.58,3.49-5.5,2-.85,2.7-2.48,3.61-4a10.53,10.53,0,0,0,.92-3.12c1.26-6.1,5.64-10,10.24-13.74C75.51,2.83,84,.75,93.13.24A94,94,0,0,1,113.8,1C128,3.28,140,9.55,150.49,19c7.47,6.75,13.61,14.55,20.07,22.13a64.24,64.24,0,0,0,7.22,7.44,13.63,13.63,0,0,0,5.27,2.29c2,.52,2.85,1.25,3,3.27.19,3.11-1.18,5.57-3.32,7.71,4,4.06,3.65,10-1.43,12.94q-4.14,2.43-8.15,5.09A12,12,0,0,0,171.18,82c0,.39-.23.92,0,1.14.94,1.1.64,2.16-.89,2.79l-1-1-.35.07-1.32.82a7.29,7.29,0,0,0-1.48,1.19,7.62,7.62,0,0,0-1.35,5.59l-2,1-5.71-.18a5,5,0,0,0-.07-.78c-.52-2.11-.22-2.43,2-2.19a22.41,22.41,0,0,0,2.46,0l0-.65c-2.12-.59-4.35-.21-6.54-.26l-5.62,0L147.47,89c-1.43-1.31-2.85-2.64-4.32-3.91a2,2,0,0,0-1.23-.39A21.49,21.49,0,0,1,129.56,81c-.32-.2-.69-.51-1-.48-1.77.13-3.52.42-5.29.52a40.43,40.43,0,0,1-4.67-.07c-1.8-.11-2.08-1.55-2.14-2.85,0-.25,1.44-.75,2.25-.81,1.69-.13,3.4,0,5.23,0-5.54-4.88-10.84-9.55-16.15-14.21s-11.37-7-18.61-5.43L83.5,58.78c-.6,1.73-3.84,4.33-6.28,5.81-3.63,2.21-5.84.9-8-2C69,65.27,69.18,68,69,70.7a21.82,21.82,0,0,1-1.12,6.83,46.74,46.74,0,0,1-6,10.08c-1.61,2.12-3.12,4.22-5.83,5.09l-.24,1,2.18-.34,1.2.1c1.23.08,2.45,1.62,3.67,0l2-.7a7.63,7.63,0,0,1,1.08,2.35A23.28,23.28,0,0,1,65.59,99c-1,1-.82,2.71.42,4l.1.78.24.81.14.78c.13.94.22,1.89.4,2.82.37,2,1.46,2.58,3.66,2l2,0c.34.36.69,1,1,1,2.44,0,4.88-.16,7.32-.35a4.72,4.72,0,0,0,1.46-.65l.8,0a3.43,3.43,0,0,0,4.1,0l.8,0,.7.66.54-.64,1.57,0c.71,1,1.41,1.2,2.1,0l.82,0,.7.77.47-.21c-1.26-3.12.89-6.29-.35-9.41a1.34,1.34,0,0,1,0-.59c.56-3.6.09-4.49-3.18-6.07l-.09-.8V93l0-.78,5.69,1.43c1.27.61,2.53,1.19,3.62-.27a1.75,1.75,0,0,1,2.45-1.54c.2,2.17.77,2.5,2.81,2.46a24.93,24.93,0,0,1,4.53.8l.44-1.66L113.4,93c.09,1.88,1.31,3.59.55,5.67-.23.64.89,1.75,1.39,2.65l.09.78.28,1.2.1.78c-1.22.91-.13,1.74.06,2.63.29,1.36,1.56,2.76,0,4.12-.9-.78-2.28-1.4-2.62-2.36a69,69,0,0,1-1.84-7.57l-.19-1.59-.15-2,.07-.94-.58.84-1.61.15-4.52,0a9.47,9.47,0,0,0-.74,1.93c-.33,2.27-.59,4.56-.8,6.85-.1,1.12-1,2.4.57,3.32.25.15.23.83.24,1.26.06,2.37.09,4.75.13,6.88,4.09-.07,7.74-2,10.94,1.13.11.11.39,0,.6.07a.94.94,0,0,1,.24-.06c-.38.38-.77,1.11-1.14,1.1-3.89-.08-7.76-.27-11.64-.44l-1.2-.64a4.78,4.78,0,0,1-.66-1.61c0-4.76.06-9.53.1-14.29a.19.19,0,0,0,0-.29l-.27-5.17-2.13-.22L98,98.37c-.11,2.64-.13,5.3-.35,7.94-.19,2.19-.61,4.36-.93,6.54l-1.67.76-12.63,0c-1.09,0-2.17-.11-3.25-.12l-7.74,0c-4.72,0-6.2-1.07-7.78-5.89-.71-2.17-1.09-4.44-1.62-6.67v-4.2c-2.55-.06-5-.08-7.47-.21-1.57-.08-2.26.59-2.28,2l-.2.78c-.3.22-.87.46-.86.66.07.91.36,1.81.45,2.72.17,1.71.25,3.42.38,5.36l-1.68-.41c-.33-1.33-.65-2.65-1-4l-.28-.8-.37-1.56c1.15-.86.53-1.28-.43-1.61l-.12-1.19ZM154,87.37l-.33-.14c0,.11-.16.24-.13.32s.21.1.32.15Z"/><path class="cls-3" d="M50.35,107.69l1.68.41c-.13-1.94-.21-3.65-.38-5.36-.09-.91-.38-1.81-.45-2.72,0-.2.56-.44.86-.66l.59,1.6c1.25,7,4.24,13.33,6.84,19.83q2.81,9.06,5.61,18.13c.76,2.41,1.64,4.72,3.79,6.39,7.17,5.6,15.34,9.54,23.58,13.35,2.74,1.24,5.38,2.84,8.26,3.58,1.74.44,2.76,1,3.23,2.55-.28,1.15-.87,1.52-2.2,1.34a17.78,17.78,0,0,1-7.92-2.7,3.58,3.58,0,0,0-1.28-.26c.29,1.74.5,3.29.82,4.82a1.56,1.56,0,0,0,.78,1c4,1.54,8.13,3,12.21,4.54l6.15,2.59.86.95c-.07,1.47-.76,2.21-2.27,2.84a15.22,15.22,0,0,0-7.54,6.16,41.21,41.21,0,0,0-2,4c-.76,2-1.41,2.47-3.46,1.9a6.55,6.55,0,0,1-2.94-1.26,124.78,124.78,0,0,1-10.27-11.59c-1.57-2.14-1.87-5.17-2.81-8a6.47,6.47,0,0,0-1.6.65c-3.22,2.24-6.37,4.6-9.61,6.81-6.69,4.56-13.47,9-20.11,13.61-3.9,2.72-8.12,5.17-10.6,9.37-2.86,4.85-5.84,9.67-8.26,14.73-2.91,6.07-5.33,12.37-7.85,18.61-1.9,4.71-3.91,9.41-5.38,14.25-3.11,10.2-6,20.46-8.8,30.75-1.73,6.4-3.23,12.88-4.6,19.37-1.88,8.9-1.72,17.95-1.55,27A5.85,5.85,0,0,0,5.47,330c4.68,4.48,10.74,6.6,16.85,8.33,3.33.94,6.94,1,10.43,1.39,5.85.65,11.69,1.4,17.55,1.81,3.42.24,6.88-.17,10.31-.17,6,0,12,.11,18.07.17h2.51V313.94A82.93,82.93,0,0,1,58,305.25c-3.12-1.7-6.13-3.59-9.24-5.3a4.84,4.84,0,0,0-2.22-.42c-1.25,0-2.56.3-2.5-1.63,0-.33-.42-.77-.77-1-2.25-1.37-4.59-2.23-7.28-1.21a1.67,1.67,0,0,1-2.39-1.15c-.4-1.17.31-1.8,1.4-1.9a27.88,27.88,0,0,1,5.76-.21,23.67,23.67,0,0,1,4.77,1.64c.46-1.19.93-2.28,1.31-3.4,2.69-7.85,5.39-15.69,8-23.55,2.25-6.75,4.45-13.54,4.3-20.75-.06-3.31,1.89-5.53,3.92-7.69.4-.42,1.92-.26,2.63.13,1,.56.72,1.46-.06,2.3A30.42,30.42,0,0,0,63.54,244a8.48,8.48,0,0,0-.68,1.81c-.48,4.22-.9,8.45-1.34,12.68l-.3.61-.15.74c-.64,2.06-1.24,4.15-2,6.19-3.28,9.52-6.57,19-9.94,28.53a1.66,1.66,0,0,0,.87,2.4c4.28,2.39,8.53,4.83,12.79,7.25l5,1.79a10,10,0,0,0,1.39.78c4.64,1.69,9.13,3.6,14.32,3.69,3.25.06,6.47,1.59,9.72,2.43,2,.5,3.48,1.39,3.59,3.63h10.66c.5-1.22,1-2.37,1.46-3.51a5.75,5.75,0,0,1,6-2.37c-1.5-5.4-2.92-10.53-4.35-15.66.49-1.36,1.52-1.53,2.78-1.21a.55.55,0,0,0,.24.12c.23.68.48,1.36.68,2,1.12,3.84,2.13,7.71,3.4,11.51a4.83,4.83,0,0,0,2.27,2.87c1.42.49,3.14.12,5,.12l-4.6-14.18c-.52-2.93-.94-5.89-1.63-8.79a2.86,2.86,0,0,0-1.86-1.74,17.63,17.63,0,0,0-3.92-.08l.49.5-1.7,3.06-1.94-.65-.91-3.31c.77-3,3.18-3.23,5.72-3.27,2.39.08,4.81.06,6.52,2.12.59,1.93,1.22,3.85,1.77,5.79,1.71,6,3.35,12,5.11,18,.85,2.88,1.74,5.48,5,7.25,2.77,1.52,5.44,4.08,4.68,8.05-.07.34.38.8.65,1.16a2.8,2.8,0,0,1-.39,4.18,17.71,17.71,0,0,1-2.44,1.56c0,1.41,0,2.69,0,4-.1,2.75-.24,5.5-.37,8.24a40.37,40.37,0,0,1,.05,6c-.11.85-1.16,1.73-2,2.27-.38.25-1.45-.11-2-.51a16.77,16.77,0,0,1-2.15-2.3l-4.56-5.46A3.62,3.62,0,0,1,122,339.1c-.39-2.49-.56-2.5-3.17-2.22-3.2.35-6.43.52-9.65.58s-6.46-.13-9.68-.22l-3.26.39.46.56-2.12,3.73c-2.68-.67-2.78-1.15-2-3.61a19.76,19.76,0,0,0,.62-5.44c.11-4.67.08-9.34.15-14,0-2.31-.36-2.79-2.74-3.21-1.72-.3-3.41-.71-5.39-1.13v27.06c1.77,0,3.52-.07,5.26,0a3.63,3.63,0,0,1,1.94.77,1.75,1.75,0,0,1,.59,1.51,1.82,1.82,0,0,1-1.42.77c-4.18.09-8.37.11-12.56.13-5.75,0-11.51.1-17.26.06-10.14-.07-20.3.07-30.34-1.83-3.5-.66-7.18-.61-10.55-1.62-5.35-1.61-10.87-3.14-15.36-6.63-3.65-2.84-6.22-6.12-5.38-11.3.64-3.91.18-8,.24-12,.12-9.14,2.54-17.9,4.61-26.72,1.15-4.91,2.18-9.87,3.7-14.67,3.61-11.44,6.11-23.2,10.78-34.33,3.39-8.08,5.89-16.51,10.34-24.17,2.52-4.33,4.63-9,7.65-12.93a41.18,41.18,0,0,1,9-8.07c5.9-4.2,12.15-7.94,18.14-12,3.92-2.67,7.62-5.64,11.46-8.41,1.23-.89,2.6-1.6,3.91-2.37a1.13,1.13,0,0,1,.77-.19c2.6.92,4.74-.62,7.06-1.21,1.25-.32,1.73-.76,1.38-2.22a7.15,7.15,0,0,0-4-5c-5.8-3.11-11.4-6.55-17.11-9.81-4.31-2.46-5.82-6.62-7.17-10.91C59,132.41,57,126.37,55.08,120.3c-.44-1.38-1.3-1.91-2.7-2.48a44.71,44.71,0,0,1-8.19-4.44c-2.11-1.43-1.89-3.94-1.91-6.16,0-3,.11-6,.16-9,.06-3.17.65-3.75,3.9-3.82a7.5,7.5,0,0,0,.81-.11l1,4.31L46.48,98v8.9c-.3,1.58-.57,3.2,1.09,4.27,1.29.82,2.68,1.51,4,2.26l.49.13-.23-.4-.76-2.35ZM96.76,324.14V333h35.45c-2-2.39-3-4.4-.39-6.3-.56-.33-1.17-.5-1.43-.9a4.28,4.28,0,0,1-.9-2.28c0-.35,1.23-.69,1.94-.93s1.62-.39,2.56-.6c-2.36-4.62-6.79-6.11-11.06-7.35-2.42-.7-5.25-.07-7.9-.05-1.84-.46-2.82.39-3.26,2-1,3.84-1,3.84-5,3.86-.41,0-.82,0-1.22,0h-9ZM107.7,177.8c-4.46-1.77-8.7-3.4-12.88-5.15-2-.86-4-2-6-3-.91-.48-2.82.33-2.79,1.39a12.92,12.92,0,0,0,.68,4.58c1.85,4.31,5.26,7.55,8.54,10.84a28.81,28.81,0,0,0,3.17,2.42C99.89,183.64,103.69,180.8,107.7,177.8Zm23.23,158.72-5.45.24.33,1.9h5Z"/><path class="cls-4" d="M124.46,185.37l.38.39c0,1.47,1.08,2,2.21,1.93s3,1,3.48-1.14h0a15.61,15.61,0,0,0,9-6.36h0l2.08-1.52,7-6,1.93-1.7,1.73-1.48,3.93-2.24-.37-.61-1.16.44-.82-.1c-.87-1.24-2.67-2.17-1.52-4.12,1.82.37,3.65.73,5.47,1.13a2.12,2.12,0,0,1,1.18.57,5.49,5.49,0,0,0,4,2.1,60.74,60.74,0,0,1,30.53,14c5.61,4.84,11.75,9.08,17.38,13.9a53.53,53.53,0,0,1,8.06,8.76c3.24,4.36,6,9.07,9,13.58,3.2,4.76,3.72,10.36,5.38,15.61,3.61,11.38,4.16,23.05,3.83,34.86-.28,10.05.14,20.12-.19,30.17a105.29,105.29,0,0,1-2.09,15A98.49,98.49,0,0,1,232,324.5c-2.54,8.18-7.77,13.84-16.72,15.65a6.81,6.81,0,0,1-1.41.18l-20.36-.05-2.1-.87-11.11-9.73c-2.8-2.56-5.7-5-8.36-7.71-2.81-2.84-5.21-6.07-8.11-8.81-3.07-2.91-6.62-5.34-9.75-8.19-2.55-2.31-4.8-4.93-7.18-7.42-4.39-5.08-8.74-10.2-13.18-15.24-1.81-2.06-3.15-4.11-1.37-7.05a11,11,0,0,0-2.46-.66c-5.36,0-10.72,0-16.09,0-1.84-.13-3.8.21-5.24-1.37a69.5,69.5,0,0,1-3.1-7.9c-.66-2.49-.07-5.41-1.11-7.67-1.31-2.83-1.16-5.74-1.9-8.47-1-3.49-1.26-6.44.69-9.52a2.12,2.12,0,0,0,.25-1.29c-.43-4.24-.88-8.47-1.38-12.7-.18-1.56-.67-3.1-.71-4.66,0-1.87-.4-4.14.52-5.54,1.28-2,.48-3.63.68-5.59-2.1.12-3.91.29-5.72.3-2,0-2.83-1.31-2.2-3.25a37.72,37.72,0,0,0,1.32-5.33c.44-2.57,2.09-4.36,4.48-4.26,8.4.38,16.82-.65,25.22,1.33a10.73,10.73,0,0,1,7.28,5.17c1.9,3,1.15,6.27,1.26,9.45,0,1.46-.06,2.72,1.6,3.68.87.5,1.39,1.93,1.61,3a34.8,34.8,0,0,1,.47,5.5c.07,2,0,4.05,0,6.14,3.69.11,5.66,2.18,7.43,4.47,1,1.3,2.38,2.63,2.67,4.11.94,4.89,1.43,9.86,2.2,14.78a3.87,3.87,0,0,0,1.25,2.27,15,15,0,0,0,3.72,2.05,105.11,105.11,0,0,1,25.92,15c4.69,3.7,9.23,7.54,14.65,10.22l7,4.06,5.65,3.07a2.6,2.6,0,0,1,.34.91c0,.76.1,1.77-.33,2.18s-1.47,0-2.18-.18a12.61,12.61,0,0,1-2.54-1.15c-5.15-3-10.3-6-15.41-9.1a29.09,29.09,0,0,1-4.27-3,104.11,104.11,0,0,0-23.17-15.44c-.88.72-1.8,1.4-2.61,2.18-3.33,3.17-6.53,6.49-10,9.55-2.77,2.47-5.8,4.67-6.83,8.17,2.9,3.38,5.66,6.71,8.54,9.92a68.08,68.08,0,0,0,5.91,6c5.36,4.63,11.06,8.91,15.48,14.48,1.26,1.45,2.42,3,3.8,4.33,2.91,2.81,6,5.5,8.91,8.27,1.89,1.77,3.74,3.58,5.61,5.37l.37.29.49.32c1.73.81,3.42,2.21,5.19,2.31,5.49.3,11,.2,16.51.09s9.74-2.54,13.1-6.74c2.71-3.41,3.85-7.38,4.63-11.44,1.31-6.83,3-13.67,3.37-20.57.55-11.46.15-23,.13-34.46,0-4.35.4-8.78-.26-13-1-6.71-2.76-13.33-4.31-20-1-4.4-1.92-8.84-4.62-12.71-2.39-3.4-4.58-7-6.79-10.46a41.29,41.29,0,0,0-9.84-11.13c-5.43-4.13-10.63-8.54-16.15-12.55-4.69-3.4-9.45-6.87-14.64-9.41-4.34-2.12-9.35-2.94-14.06-4.33-1.6-.16-3.2-.35-4.81-.47a1.74,1.74,0,0,0-1.06.38c-1,.77-2,1.58-3,2.39-5.79,4.8-11.42,9.79-17.41,14.33-2.41,1.82-5.6,2.66-8.44,3.94l-4.46-1.28c-2.1-2.23-4.35-4.34-6.25-6.72a39.27,39.27,0,0,1-3.15-5.47h.54c1.08-.77,1.74-.4,2.56.55,1.29,1.5,2.82,2.81,4.25,4.2h0C122.2,183.55,122.42,185.24,124.46,185.37ZM113,240.07l21.89-.37c-.1-1.55-.18-2.64-.24-3.74-.25-5-.46-10-.79-14.93-.05-.64-.6-1.68-1.1-1.8-2.06-.48-4.19-.68-6.3-1-4.46-.12-8.91-.27-13.36-.35-2.76-.06-5.52,0-8.51,0,.15,1.65.16,3,.42,4.36a69.07,69.07,0,0,1,1.52,12.27C106.6,240.23,106.71,240.51,113,240.07Zm31.76,4.78c-.27-1.9,0-4-1.64-5.48-1.37-1.31-2.11-3.35-4.66-3.87a23.49,23.49,0,0,0,.65,3.49,2.94,2.94,0,0,1-1.26,3.7c-1.88.19-3.76.48-5.65.55-5.27.18-10.55.41-15.82.35-3.58,0-7.31.8-10.81-1.19-.59,1.78-1.25,3.26,1,4.56,1.43.83,1,2.46.11,3.65a2.63,2.63,0,0,0,.71,4.11c1.18.76,2.22,1.7,3.35,2.53,1.42,1,1,2.1-.14,2.82-.62.39-1.64.18-3.12.28a16,16,0,0,0,2.67,1.58c2,.66,3.65,1.41,3.18,4,3,.53,5.87,1.1,8.73,1.52,3.75.55,7.58.81,10.49,3.61.8.77,1.57,1.57,2.46,2.48L150.1,261c-2-1.33-3.43-2.61-3.7-4.8C145.94,252.38,145.31,248.62,144.76,244.85ZM98.67,206.42c7.82,0,15.35,0,22.88,0,3,0,3.81-.72,4.48-3.9a65.86,65.86,0,0,0-7.71-1.26c-4.59-.23-9.19-.11-13.79-.15-4.43,0-4.42,0-5.49,4.27C99,205.68,98.83,206,98.67,206.42Zm30.74-1.15c-.41.43-.68.59-.75.81-1.18,3.55-3.88,4.35-7.31,3.86a5.62,5.62,0,0,0-.82,0H106v4.73h24.55C130.3,211.66,131.26,208.48,129.41,205.27Zm24.21,57.41-18.76,15.37c.8,1,1.64,2,2.45,3s1.53.69,2.32-.09c2-1.95,4-3.87,6-5.79,3.77-3.6,7.56-7.19,11.56-11ZM121.55,271l0-.25-10.49-2.1-.43.48c.59.62,1.15,1.74,1.78,1.78C115.46,271.11,118.51,271,121.55,271Z"/><path class="cls-5" d="M191.41,339.41l2.1.87c-3.38.37-6.75.82-10.14,1.09a48.39,48.39,0,0,1-6.81.13c-4.44-.26-8.86-.73-13.29-1.05-1.61-.12-3.24-.08-4.87-.07-.3,0-.75.08-.88.28-1.29,1.91-3.24,1.79-5.23,1.78s-4.16.25-6.23.2c-3.41-.1-6.81-.36-10.21-.53a2.4,2.4,0,0,0-.75.23c.13-2.75.27-5.5.37-8.25.05-1.27,0-2.55,0-4a17.71,17.71,0,0,0,2.44-1.56,2.8,2.8,0,0,0,.39-4.18c-.27-.36-.72-.82-.65-1.16.76-4-1.91-6.53-4.68-8.05-3.22-1.77-4.11-4.37-5-7.25-1.76-6-3.4-12-5.11-18-.55-1.94-1.18-3.86-1.77-5.79.4-.13.87-.47,1.18-.36a24.36,24.36,0,0,1,3.12,1.43c3.46,1.83,7.21,3.3,8.88,7.25a10.82,10.82,0,0,0,1.93,2.35l.42,2a16.82,16.82,0,0,0,1.64,3.32c3.12,3.93,6.35,7.77,9.55,11.63.71.86,1.38,1.76,2.17,2.55,2.51,2.52,5,5,7.62,7.49a76.44,76.44,0,0,0,7.49,6.82,121,121,0,0,0,10.4,6.27c1,.55,2.28.59,3.1,1.26a17.37,17.37,0,0,0,7.81,3.86Z"/><path class="cls-6" d="M121.58,182.21c-1.43-1.39-3-2.7-4.25-4.2-.82-.95-1.48-1.32-2.56-.55h-.54l-.85-.4-.86-.95.28-2.17,1.41-.45.51-.33.06.13,6-.6,13.06-3.95L144.88,164c-.39-3.66-.72-6.75-1-9.76l-5.54,6.21-.88.73v0l-7.28,4.06a74.33,74.33,0,0,1-17.91,1.95,6.72,6.72,0,0,1-5-2c-.09-3,.67-3.46,3.32-2.16a3.68,3.68,0,0,0,1.53.35c2.55,0,5.11-.12,7.66-.2,5.76-.19,11.18-1.74,15.43-5.47,3.1-2.72,5.4-6.3,8.06-9.49L145,146l.05-.05c2.34-3,5-5.84,6.95-9.07A125,125,0,0,0,157.89,125c1-2.13,1.81-4.34,2.61-6.55a3.91,3.91,0,0,0-.13-1.64c-.1-.79-.23-1.58-.35-2.37a14,14,0,0,1,1.58-2.61c1.94-2,4-4,6-5.94h0c2.75-2.53,5-5.28,4.43-9.3l-1.8-10.73c1.53-.63,1.83-1.69.89-2.79-.19-.22,0-.75,0-1.14,2.72,1.63,2.88,4.56,3.44,7.09,1.06,4.8,2.23,9.88-.71,14.37-2.11,3.24-5,6-7.66,8.89a4.64,4.64,0,0,0-1.53,3.66c.29,4.2-1.91,7.68-3.64,11.29s-3.42,7.36-5.37,10.92a36.33,36.33,0,0,1-4.75,7c-2.8,3.09-3.25,6.63-3.1,10.44.09,2.21.14,4.41.21,6.61a.67.67,0,0,0,0,.2c.34.73,1.14,1.89.93,2.11a14.94,14.94,0,0,1-3.75,2.91,121.06,121.06,0,0,1-23.72,8.65,13.47,13.47,0,0,1-2,.15c-.65.06-1.3.16-2.32.29Zm-4.33-5.85-.15.13.15.13.14-.2Z"/><path class="cls-7" d="M99.53,337.24c3.22.09,6.45.27,9.68.22s6.45-.23,9.65-.58c2.61-.28,2.78-.27,3.17,2.22a3.62,3.62,0,0,0,2.46,3.25l-3.76.45-1.19-.2c-.26-.7-.51-1.39-.56-1.53-3.83.37-7.25.68-10.66,1.05a5.32,5.32,0,0,0-1.44.62l-2.06,0a18.29,18.29,0,0,0-2-.91C99.94,340.8,99.55,340.3,99.53,337.24Z"/><path class="cls-5" d="M99.53,337.24c0,3.06.41,3.56,3.33,4.56a18.29,18.29,0,0,1,2,.91,21.42,21.42,0,0,1-10.21-.79l2.12-3.73-.46-.56Z"/><path class="cls-5" d="M106.88,342.74a5.32,5.32,0,0,1,1.44-.62c3.41-.37,6.83-.68,10.66-1.05,0,.14.3.83.56,1.53-3.19.18-6.38.4-9.57.5A19.14,19.14,0,0,1,106.88,342.74Z"/><path class="cls-8" d="M120.73,342.8l3.76-.45,4.56,5.46a31,31,0,0,1-3.75-1.38,28,28,0,0,1-3.71-2.4A4.66,4.66,0,0,1,120.73,342.8Z"/><path class="cls-6" d="M139.5,180.2a15.61,15.61,0,0,1-9,6.36Z"/><path class="cls-6" d="M152.28,162.91c-1.15,2,.65,2.88,1.52,4.12-.81-.25-1.85-.29-2.38-.82a3.33,3.33,0,0,1-.72-2.34C150.72,163.53,151.72,163.23,152.28,162.91Z"/><path class="cls-6" d="M130.53,186.55c-.53,2.12-2.28,1.08-3.48,1.14s-2.24-.46-2.21-1.93C126.51,187.5,128.46,187.41,130.53,186.55Z"/><path class="cls-6" d="M154.62,167.13l1.16-.44.37.61-3.93,2.24Z"/><path class="cls-6" d="M124.46,185.37c-2-.13-2.26-1.82-2.89-3.17Z"/><path class="cls-6" d="M141.57,178.69l-2.08,1.52Z"/><path class="cls-6" d="M150.49,171l-1.93,1.7Z"/><path class="cls-9" d="M167.63,105.92c-2,2-4.09,3.9-6,5.94a14,14,0,0,0-1.58,2.61c-.71.68-1.78,1.24-2.07,2.07-1.23,3.53-2.13,7.18-3.37,10.71-.49,1.39-1.64,2.54-2.34,3.87-1.25,2.35-2.36,4.78-3.59,7.13-1.09,2.08-2.31,4.1-3.4,6.17a4.07,4.07,0,0,0-.19,1.5L145,146c-1.84-.21-1.63,1.15-1.79,2.22-2.66,3.19-5,6.77-8.06,9.49-4.25,3.73-9.67,5.28-15.43,5.47-2.55.08-5.11.16-7.66.2a3.68,3.68,0,0,1-1.53-.35c-2.65-1.3-3.41-.81-3.32,2.16l-3.26-.37c-.47-1.59-1.49-2.11-3.23-2.55-2.88-.74-5.52-2.34-8.26-3.58-.26-.69-.3-1.67-.81-2a55.73,55.73,0,0,0-5.57-3.33c-1.25-.68-2.82-.91-3.88-1.78a98.36,98.36,0,0,1-9.9-8.76,60.72,60.72,0,0,1-6.4-9,11.25,11.25,0,0,1-1.75-4.54,11.55,11.55,0,0,0-4.67-8.41c-2.6-6.5-5.59-12.88-6.84-19.83h8.12a31.18,31.18,0,0,0,.47,4.66c.69,2.84,1.59,5.63,2.46,8.42.56,1.81,3.2,2.54,4.92,1.61a5.65,5.65,0,0,1,2.71-.35c3.2.11,6.39.35,9.59.43a8.83,8.83,0,0,0,2.35-.69l-.87-1.38,12.63,0c-.13,1.76-.39,3.51-.36,5.26,0,2.45,1.57,4.42,3.51,4.64,3.25.37,6.51.67,9.77.94a6.33,6.33,0,0,0,5.46-2.87c2.62-.48,3.19-1.23,2.18-2.82a.94.94,0,0,0-.24.06c0-1.73-1-2.39-2.69-2.37-2.74,0-5.48,0-8.25,0V97.38l4.52,0c.27,2.11.44,4.24.85,6.33.7,3.54,1.46,7.08,4,9.9a3.54,3.54,0,0,0,3.93,2.35c2.24-.24,4.45-.77,6.68-1.17l2-.76a9.18,9.18,0,0,0,2.59.61c2.69-.13,5.38-.66,8.06-.63,2.18,0,4.27-.81,4.46-2.38l7.59-.47c.24.11.59.16.69.34a12.37,12.37,0,0,1,.66,1.59c.38-.56.81-1.1,1.13-1.69a2.07,2.07,0,0,0,.13-1c0-3.6,0-7.21,0-11a16.9,16.9,0,0,1,3.78-1.22,27.7,27.7,0,0,1,4.78.32,44,44,0,0,0-1.76,5.7,8,8,0,0,0,.46,3.8,2,2,0,0,0,3,1c1.44-.76,2.64-1.94,4-2.84A4.69,4.69,0,0,1,167.63,105.92ZM101.9,138.48c4.7.43,9.32-.87,13.93-2.08,3.62-1,7.21-2,10.77-3.14a5.77,5.77,0,0,0,2.5-1.59c.66-.74,1.56-2.31,1.29-2.61-1-1.13-2.39-1.21-3.75-.11a6.75,6.75,0,0,1-2.39,1,43,43,0,0,0-4.69,1.21A47.56,47.56,0,0,1,100,134.79c-1.33,0-2.27-.18-2.86-1.56a2.33,2.33,0,0,0-2-.93,2.09,2.09,0,0,0-1.35,1.59c.28,3,.88,4.87,4.29,4.61C99.29,138.4,100.51,138.48,101.9,138.48Z"/><path class="cls-10" d="M97.13,93.69l-5.69-1.43c-4.32,0-8.64,0-13,.07-2.06,0-4.11.08-6.16.14-2.51.08-5,.18-7.52.27l-2,.7H59.14l-1.2-.1L56,92.7c2.71-.87,4.22-3,5.83-5.09a46.74,46.74,0,0,0,6-10.08A21.82,21.82,0,0,0,69,70.7c.18-2.7,0-5.43.24-8.14,2.14,2.93,4.35,4.24,8,2,2.44-1.48,5.68-4.08,6.28-5.81l5.66-1.19c7.24-1.52,13.3.76,18.61,5.43s10.61,9.33,16.15,14.21c-1.83,0-3.54-.09-5.23,0-.81.06-2.26.56-2.25.81.06,1.3.34,2.74,2.14,2.85a40.43,40.43,0,0,0,4.67.07c1.77-.1,3.52-.39,5.29-.52.33,0,.7.28,1,.48a21.49,21.49,0,0,0,12.36,3.73,2,2,0,0,1,1.23.39c1.47,1.27,2.89,2.6,4.32,3.91a8.66,8.66,0,0,1-2.19.84c-3.52.32-7.06.72-10.59.72-4,0-7.93.65-11.91.11a8.68,8.68,0,0,0-1,.1,15.58,15.58,0,0,1-2.56,0,4.52,4.52,0,0,0-5.08,2.87L113.4,93l-2.42.44c-2.66-.23-5.71,1.31-7.78-1.6a1.75,1.75,0,0,0-2.45,1.54ZM73.21,84.41c6.32-1.44,12.41-2.79,18.48-4.26,1-.26,1.39-1.11.6-2.18-1.08-1.47-2.51-1.35-4-1q-7.23,1.45-14.47,3a2.74,2.74,0,0,0-1.48.58c-.5.6-1.16,1.49-1,2.07S72.46,83.72,73.21,84.41Z"/><path class="cls-11" d="M114.14,93.59a4.52,4.52,0,0,1,5.08-2.87,15.58,15.58,0,0,0,2.56,0,8.68,8.68,0,0,1,1-.1c4,.54,7.94-.11,11.91-.11,3.53,0,7.07-.4,10.59-.72a8.66,8.66,0,0,0,2.19-.84l1.85.52v1.87l-7.28.17c-2.37,0-3,1-1.67,2.89a2.75,2.75,0,0,0,1.78,1c1.13.15,2.31-.08,3.44,0,.54.07,1.44.61,1.45,1,.11,3.66.07,7.32.07,11.07-1.32.07-2.18.16-3.05.15-7.82-.11-15.64-.37-23.46-.28-2.71,0-4.33-.59-4.79-3.26l-.1-.78-.28-1.2-.09-.78Zm17.92,4.19c-.05-2.61-1.44-4.33-3.48-4.39-1.47,0-3.67,2.67-3.57,4.15.13,1.93,2.64,5.28,4.15,5.33C130.9,102.93,132.12,100.78,132.06,97.78Z"/><path class="cls-12" d="M64.8,92.74c2.51-.09,5-.19,7.52-.27,2.05-.06,4.1-.12,6.16-.14,4.32,0,8.64,0,13-.07,0,.26,0,.52,0,.78v.76l.09.8,2.32,2.25v13.26l-.82,0h-2.1l-1.57,0-1.24,0-.8,0-4.1,0-.8,0-9.81,0-2,0a3.54,3.54,0,0,1-3-2.52c-.31-.79-.72-1.53-1.08-2.29l-.14-.78-.24-.81-.1-.78-.42-4a23.28,23.28,0,0,0,.29-3.88A7.63,7.63,0,0,0,64.8,92.74Zm18.41,7.64-.14,0c0-.46,0-.92,0-1.38.05-2.15-.78-3.43-2.27-3.5a3.07,3.07,0,0,0-3.56,3.28,14.37,14.37,0,0,0,.46,4.86,3.31,3.31,0,0,0,2.42,1.84,3.53,3.53,0,0,0,2.58-1.66C83.23,102.85,83.07,101.54,83.21,100.38Z"/><path class="cls-13" d="M115.81,104.12c.46,2.67,2.08,3.3,4.79,3.26,7.82-.09,15.64.17,23.46.28.87,0,1.73-.08,3.05-.15,0-3.75,0-7.41-.07-11.07,0-.35-.91-.89-1.45-1-1.13-.13-2.31.1-3.44,0a2.75,2.75,0,0,1-1.78-1c-1.29-1.9-.7-2.84,1.67-2.89l7.28-.17c1.43-.4,2.87-.76,4.29-1.2a8,8,0,0,0,1.33-.69c2.19.05,4.42-.33,6.54.26l0,.65a22.41,22.41,0,0,1-2.46,0c-2.21-.24-2.51.08-2,2.19a5,5,0,0,1,.07.78c-1.1.14-2.2.32-3.3.4-2.23.18-2.8.76-2.81,2.83,0,3.61.07,7.23-.18,10.82-.09,1.29-1.06,2.52-1.62,3.78l-7.59.47-12.24,0-13.46-.76c1.58-1.36.31-2.76,0-4.12C115.68,105.86,114.59,105,115.81,104.12Z"/><path class="cls-14" d="M115.59,118.76c1,1.59.44,2.34-2.18,2.82a4.24,4.24,0,0,0-1.29-.39c-4.37.13-8.74.27-13.11.49-1.67.09-2.52-.61-2.38-2.23.12-1.38.22-2.78.25-4.17a22.07,22.07,0,0,0-.18-2.43c.32-2.18.74-4.35.93-6.54.22-2.64.24-5.3.35-7.94l.66-1.17,2.13.22c.09,1.72.18,3.44.26,5.17a.21.21,0,0,0,0,.29c0,4.76-.11,9.53-.1,14.29a4.78,4.78,0,0,0,.66,1.61l1.2.64c3.88.17,7.75.36,11.64.44C114.82,119.87,115.21,119.14,115.59,118.76Z"/><path class="cls-8" d="M167.63,105.92a4.69,4.69,0,0,0-1.6.32c-1.38.9-2.58,2.08-4,2.84a2,2,0,0,1-3-1,8,8,0,0,1-.46-3.8,44,44,0,0,1,1.76-5.7h1.22a18,18,0,0,0-1.08,3.56,3.09,3.09,0,0,0,.89,2.4c.41.32,1.76,0,2.32-.42,2.6-2.11,4.59-4.83,4.72-8.13s-.5-6.84-.8-10.27l1.32-.82.19,0,.16-.1,1,1,1.8,10.73c-.15.13-.41.24-.44.39a16.17,16.17,0,0,1-3.54,7.21,4.54,4.54,0,0,0-.45,1.7Z"/><path class="cls-15" d="M115.85,110.87l13.46.76,3.11.82-6,1.6-2,.76a14.32,14.32,0,0,0-1.7-.37c-3-.29-5.94-.54-8.91-.81-2.57-2.82-3.33-6.36-4-9.9-.41-2.09-.58-4.22-.85-6.33l1.61-.15.51.1.15,2c.06.53.13,1.06.19,1.59a69,69,0,0,0,1.84,7.57C113.57,109.47,115,110.09,115.85,110.87Z"/><path class="cls-8" d="M149.14,111.18c.56-1.26,1.53-2.49,1.62-3.78.25-3.59.16-7.21.18-10.82,0-2.07.58-2.65,2.81-2.83,1.1-.08,2.2-.26,3.3-.4l5.71.18L161.54,97l-1.21,1.59h0a27.7,27.7,0,0,0-4.78-.32,16.9,16.9,0,0,0-3.78,1.22c0,3.76,0,7.37,0,11a2.07,2.07,0,0,1-.13,1c-.32.59-.75,1.13-1.13,1.69a12.37,12.37,0,0,0-.66-1.59C149.73,111.34,149.38,111.29,149.14,111.18Z"/><path class="cls-15" d="M167.59,85.73c.3,3.43.94,6.86.8,10.27s-2.12,6-4.72,8.13c-.56.45-1.91.74-2.32.42a3.09,3.09,0,0,1-.89-2.4,18,18,0,0,1,1.08-3.56,6.13,6.13,0,0,0,2.2-.1c.74-.34,1.78-1.09,1.78-1.67a21.09,21.09,0,0,0-.76-4.31,7.62,7.62,0,0,1,1.35-5.59A7.29,7.29,0,0,1,167.59,85.73Z"/><path class="cls-16" d="M82.4,113.65l.87,1.38a8.83,8.83,0,0,1-2.35.69c-3.2-.08-6.39-.32-9.59-.43a5.65,5.65,0,0,0-2.71.35c-1.72.93-4.36.2-4.92-1.61-.87-2.79-1.77-5.58-2.46-8.42a31.18,31.18,0,0,1-.47-4.66H62c.53,2.23.91,4.5,1.62,6.67,1.58,4.82,3.06,5.86,7.78,5.89l7.74,0C80.23,113.54,81.31,113.61,82.4,113.65Z"/><path class="cls-8" d="M96.7,112.85a22.07,22.07,0,0,1,.18,2.43c0,1.39-.13,2.79-.25,4.17-.14,1.62.71,2.32,2.38,2.23,4.37-.22,8.74-.36,13.11-.49a4.24,4.24,0,0,1,1.29.39,6.33,6.33,0,0,1-5.46,2.87c-3.26-.27-6.52-.57-9.77-.94-1.94-.22-3.47-2.19-3.51-4.64,0-1.75.23-3.5.36-5.26Z"/><path class="cls-10" d="M46.48,106.91V98l1.69.55.12,1.19.43,1.61.37,1.56.28.8c.33,1.32.65,2.64,1,4l.75,3.13C48.43,110.78,47.79,108.47,46.48,106.91Z"/><path class="cls-13" d="M104.41,97.38v19.08c2.77,0,5.51,0,8.25,0,1.69,0,2.67.64,2.69,2.37-.21,0-.49,0-.6-.07-3.2-3.08-6.85-1.2-10.94-1.13,0-2.13-.07-4.51-.13-6.88,0-.43,0-1.11-.24-1.26-1.56-.92-.67-2.2-.57-3.32.21-2.29.47-4.58.8-6.85A9.47,9.47,0,0,1,104.41,97.38Z"/><path class="cls-14" d="M62,100.94H60.77c-.14-.74-.27-1.48-.44-2.37H52.26c0-1.46.71-2.13,2.28-2,2.46.13,4.92.15,7.47.21Z"/><path class="cls-16" d="M52.26,98.58h8.07c.17.89.3,1.63.44,2.37H52.65l-.59-1.6Z"/><path class="cls-14" d="M164.76,92.51a21.09,21.09,0,0,1,.76,4.31c0,.58-1,1.33-1.78,1.67a6.13,6.13,0,0,1-2.2.1h0V97l1.22-3.45Z"/><path class="cls-13" d="M93.83,110.11V96.85L91.51,94.6c3.27,1.58,3.74,2.47,3.18,6.07a1.34,1.34,0,0,0,0,.59c1.24,3.12-.91,6.29.35,9.41l-.47.21Z"/><path class="cls-13" d="M103.2,91.88c2.07,2.91,5.12,1.37,7.78,1.6l-.44,1.66a24.93,24.93,0,0,0-4.53-.8C104,94.38,103.4,94.05,103.2,91.88Z"/><path class="cls-13" d="M72.59,110.15l9.81,0a4.72,4.72,0,0,1-1.46.65c-2.44.19-4.88.32-7.32.35C73.28,111.18,72.93,110.51,72.59,110.15Z"/><path class="cls-13" d="M114.14,93.59l1.2,7.77c-.5-.9-1.62-2-1.39-2.65.76-2.08-.46-3.79-.55-5.67Z"/><path class="cls-13" d="M66.49,105.31c.36.76.77,1.5,1.08,2.29a3.54,3.54,0,0,0,3,2.52c-2.2.59-3.29,0-3.66-2C66.71,107.2,66.62,106.25,66.49,105.31Z"/><path class="cls-17" d="M154.94,89.49a8,8,0,0,1-1.33.69c-1.42.44-2.86.8-4.29,1.2V89.51Z"/><path class="cls-13" d="M65.59,99l.42,4C64.77,101.68,64.6,100,65.59,99Z"/><path class="cls-13" d="M83.2,110.16l4.1,0A3.43,3.43,0,0,1,83.2,110.16Z"/><path class="cls-13" d="M59.14,93.44h3.67C61.59,95.06,60.37,93.52,59.14,93.44Z"/><path class="cls-13" d="M97.13,93.69l3.62-.27C99.66,94.88,98.4,94.3,97.13,93.69Z"/><path class="cls-13" d="M56,92.7l1.94.64-2.18.34Z"/><path class="cls-13" d="M90.91,110.15H93C92.32,111.35,91.62,111.16,90.91,110.15Z"/><path class="cls-3" d="M48.72,101.36l-.43-1.61C49.25,100.08,49.87,100.5,48.72,101.36Z"/><path class="cls-13" d="M111.39,100.94c-.06-.53-.13-1.06-.19-1.59C111.26,99.88,111.33,100.41,111.39,100.94Z"/><path class="cls-13" d="M115.43,102.14l.28,1.2Z"/><path class="cls-13" d="M88.1,110.15l1.24,0-.54.64Z"/><path class="cls-13" d="M111.05,97.35l-.51-.1.58-.84Z"/><path class="cls-13" d="M98.64,97.2,98,98.37Z"/><path class="cls-13" d="M102.81,119.42l-1.2-.64Z"/><path class="cls-3" d="M49.37,103.72l-.28-.8Z"/><path class="cls-13" d="M66.11,103.72l.24.81Z"/><path class="cls-13" d="M91.42,93.8v0Z"/><path class="cls-13" d="M154,87.37l-.14.33c-.11,0-.29-.08-.32-.15s.08-.21.13-.32Z"/><path class="cls-13" d="M101.05,102.88a.21.21,0,0,1,0-.29A.18.18,0,0,1,101.05,102.88Z"/><path class="cls-6" d="M169.26,84.84l-.16.1-.19,0Z"/><path class="cls-5" d="M162.77,170.36c4.71,1.39,9.72,2.21,14.06,4.33,5.19,2.54,9.95,6,14.64,9.41,5.52,4,10.72,8.42,16.15,12.55a41.29,41.29,0,0,1,9.84,11.13c2.21,3.51,4.4,7.06,6.79,10.46,2.7,3.87,3.59,8.31,4.62,12.71,1.55,6.63,3.27,13.25,4.31,20,.66,4.27.25,8.7.26,13,0,11.49.42,23-.13,34.46-.34,6.9-2.06,13.74-3.37,20.57-.78,4.06-1.92,8-4.63,11.44-3.36,4.2-7.61,6.64-13.1,6.74s-11,.21-16.51-.09c-1.77-.1-3.46-1.5-5.18-2.31l-.5-.32-.37-.29a5.3,5.3,0,0,0-.66-1.75c-2.45-2.74-4.85-5.54-7.5-8.1-2.86-2.77-6-5.3-9-7.89-.26-.22-.77-.16-1.16-.23-4.42-5.57-10.12-9.85-15.48-14.48a68.08,68.08,0,0,1-5.91-6c-2.88-3.21-5.64-6.54-8.54-9.92,1-3.5,4.06-5.7,6.83-8.17,3.43-3.06,6.63-6.38,10-9.55.81-.78,1.73-1.46,2.61-2.18A104.11,104.11,0,0,1,184,281.35a29.09,29.09,0,0,0,4.27,3c5.11,3.07,10.26,6.08,15.41,9.1a12.61,12.61,0,0,0,2.54,1.15c.71.22,1.82.51,2.18.18s.31-1.42.33-2.18a2.6,2.6,0,0,0-.34-.91c2-.71,3-2.05,2.54-4.09-.73-3.17-1.61-6.3-2.43-9.44a6.86,6.86,0,0,0,.11-2.37c-1.47-4.39-3.13-8.72-4.57-13.12-1.52-4.61-4.36-8.41-7.3-12.42-.4.45-.82.75-.77.9,1.42,4.25,2.9,8.49,4.37,12.73l0,3.17a10.77,10.77,0,0,1,.31,1.93c-.08,3.58-.26,7.16-.31,10.74-.07,4.25-.35,4.59-4.66,4.84-5.42-2.68-10-6.52-14.65-10.22a105.11,105.11,0,0,0-25.92-15,15,15,0,0,1-3.72-2.05,3.87,3.87,0,0,1-1.25-2.27c-.77-4.92-1.26-9.89-2.2-14.78-.29-1.48-1.66-2.81-2.67-4.11-1.77-2.29-3.74-4.36-7.43-4.47,0-2.09.06-4.12,0-6.14a34.8,34.8,0,0,0-.47-5.5c-.22-1.09-.74-2.52-1.61-3-1.66-1-1.56-2.22-1.6-3.68-.11-3.18.64-6.45-1.26-9.45a10.73,10.73,0,0,0-7.28-5.17c-8.4-2-16.82-1-25.22-1.33-2.39-.1-4,1.69-4.48,4.26A37.72,37.72,0,0,1,94.58,207c-.63,1.94.16,3.27,2.2,3.25,1.81,0,3.62-.18,5.72-.3-.2,2,.6,3.61-.68,5.59-.92,1.4-.57,3.67-.52,5.54,0,1.56.53,3.1.71,4.66.5,4.23.95,8.46,1.38,12.7a2.12,2.12,0,0,1-.25,1.29c-2,3.08-1.64,6-.69,9.52.74,2.73.59,5.64,1.9,8.47,1,2.26.45,5.18,1.11,7.67a69.5,69.5,0,0,0,3.1,7.9c.14,2.69.54,5.12,3.72,6.26.91.33,2.64.71,2.34,2.48-2.54,0-5,.3-5.72,3.27a13,13,0,0,0-3.1.87,4.39,4.39,0,0,0-2.09,2.15c-1.3,4.6,0,8.94,1.7,13.25a30.31,30.31,0,0,1,1.44,5.66c.38,2.06-.11,4.38,2.08,5.83-.48,1.14-1,2.29-1.46,3.51H96.81c-.11-2.24-1.63-3.13-3.59-3.63-3.25-.84-6.47-2.37-9.72-2.43-5.19-.09-9.68-2-14.32-3.69a10,10,0,0,1-1.39-.78c1.32-.51,2.62-.87,1.89-2.85a70.41,70.41,0,0,1-2.74-8.83,43.24,43.24,0,0,1-.89-7.79c-.22-5.22-.25-10.45-.36-15.68,0-2.4,0-4.8-.18-7.2Q65,256,64.34,248.35a40.36,40.36,0,0,0-.8-4.34,30.42,30.42,0,0,1,2.11-2.88c.78-.84,1.09-1.74.06-2.3-.71-.39-2.23-.55-2.63-.13-2,2.16-4,4.38-3.92,7.69.15,7.21-2,14-4.3,20.75-2.63,7.86-5.33,15.7-8,23.55-.38,1.12-.85,2.21-1.31,3.4a23.67,23.67,0,0,0-4.77-1.64,27.88,27.88,0,0,0-5.76.21c-1.09.1-1.8.73-1.4,1.9A1.67,1.67,0,0,0,36,295.71c2.69-1,5-.16,7.28,1.21.35.21.78.65.77,1-.06,1.93,1.25,1.63,2.5,1.63a4.84,4.84,0,0,1,2.22.42c3.11,1.71,6.12,3.6,9.24,5.3a82.93,82.93,0,0,0,23.19,8.69v21.9c-.14.61-.28,1.21-.43,1.82-.37,1.45-.18,3.18-2.08,3.86-6-.06-12-.16-18.07-.17-3.43,0-6.89.41-10.31.17-5.86-.41-11.7-1.16-17.55-1.81-3.49-.39-7.1-.45-10.43-1.39-6.11-1.73-12.17-3.85-16.85-8.33a5.85,5.85,0,0,1-1.75-3.75c-.17-9-.33-18.08,1.55-27,1.37-6.49,2.87-13,4.6-19.37,2.79-10.29,5.69-20.55,8.8-30.75,1.47-4.84,3.48-9.54,5.38-14.25,2.52-6.24,4.94-12.54,7.85-18.61,2.42-5.06,5.4-9.88,8.26-14.73,2.48-4.2,6.7-6.65,10.6-9.37,6.64-4.62,13.42-9.05,20.11-13.61,3.24-2.21,6.39-4.57,9.61-6.81a6.47,6.47,0,0,1,1.6-.65c.94,2.81,1.24,5.84,2.81,8a124.78,124.78,0,0,0,10.27,11.59,6.55,6.55,0,0,0,2.94,1.26c2.05.57,2.7.09,3.46-1.9a41.21,41.21,0,0,1,2-4,16.1,16.1,0,0,1-.5,2.29c-.58,1.55-.28,2.79,1.54,4.08,3.23-2.49,6.5-5,9.84-7.6.44.93,1,2,1.44,3a5.78,5.78,0,0,0,5.06,3.67c1.2.13,2.57-.22,2.68-1.89l4.46,1.28c1.14.77,2.33,2.27,3.41,2.2a20.1,20.1,0,0,0,11.26-4.82c2.79-2.27,5.33-4.83,8-7.2,3.32-2.9,6.71-5.73,10-8.62A24.5,24.5,0,0,0,162.77,170.36Z"/><path class="cls-18" d="M115,314.59c2.65,0,5.48-.65,7.9.05,4.27,1.24,8.7,2.73,11.06,7.35-.94.21-1.77.34-2.56.6s-1.91.58-1.94.93a4.28,4.28,0,0,0,.9,2.28c.26.4.87.57,1.43.9-2.64,1.9-1.65,3.91.39,6.3H96.76v-8.86a4.15,4.15,0,0,0,1.14.35q5.82,0,11.64,0a1.73,1.73,0,0,0,1.11-.35c2.36-2.18,4.87-4.3,4.39-8A13.87,13.87,0,0,1,115,314.59Z"/><path class="cls-19" d="M62.84,304.22c-4.26-2.42-8.51-4.86-12.79-7.25a1.66,1.66,0,0,1-.87-2.4c3.37-9.49,6.66-19,9.94-28.53.71-2,1.31-4.13,2-6.19a5.91,5.91,0,0,1,.6,1.87c-.1,2.69-.46,5.37-.45,8.06q0,7.37.39,14.74a61.5,61.5,0,0,0,1,10.07c.51,2.28,1.89,4.42,3.06,6.52a23.47,23.47,0,0,0,2.43,3.11Z"/><path class="cls-7" d="M62.84,304.22h5.29a23.47,23.47,0,0,1-2.43-3.11c-1.17-2.1-2.55-4.24-3.06-6.52a61.5,61.5,0,0,1-1-10.07q-.36-7.36-.39-14.74c0-2.69.35-5.37.45-8.06a5.91,5.91,0,0,0-.6-1.87l.15-.74.3-.61c.44-4.23.86-8.46,1.34-12.68a8.48,8.48,0,0,1,.68-1.81,40.36,40.36,0,0,1,.8,4.34Q65,256,65.51,263.66c.16,2.4.13,4.8.18,7.2.11,5.23.14,10.46.36,15.68a43.24,43.24,0,0,0,.89,7.79,70.41,70.41,0,0,0,2.74,8.83c.73,2-.57,2.34-1.89,2.85Z"/><path class="cls-20" d="M107.7,177.8c-4,3-7.81,5.84-9.25,11.1a28.81,28.81,0,0,1-3.17-2.42c-3.28-3.29-6.69-6.53-8.54-10.84a12.92,12.92,0,0,1-.68-4.58c0-1.06,1.88-1.87,2.79-1.39,2,1,3.92,2.12,6,3C99,174.4,103.24,176,107.7,177.8Z"/><path class="cls-15" d="M104,164.79l3.26.37a6.72,6.72,0,0,0,5,2,74.33,74.33,0,0,0,17.91-1.95c0,.39,0,.78,0,1.17-3.79,1.45-7.63,2.81-11.37,4.38a27.65,27.65,0,0,0-4,2.55l-.06-.13-.51.33-1.41.45-6.43-.42c-4.08-1.5-8.16-3-12.21-4.54a1.56,1.56,0,0,1-.78-1c-.32-1.53-.53-3.08-.82-4.82a3.58,3.58,0,0,1,1.28.26,17.78,17.78,0,0,0,7.92,2.7C103.09,166.31,103.68,165.94,104,164.79Z"/><path class="cls-7" d="M108.93,313c-2.19-1.45-1.7-3.77-2.08-5.83a30.31,30.31,0,0,0-1.44-5.66c-1.72-4.31-3-8.65-1.7-13.25a4.39,4.39,0,0,1,2.09-2.15,13,13,0,0,1,3.1-.87c.3,1.1.6,2.2.91,3.31l.81,6.41c1.43,5.14,2.85,10.27,4.35,15.67A5.75,5.75,0,0,0,108.93,313Z"/><path class="cls-16" d="M59.49,120.79a11.55,11.55,0,0,1,4.67,8.41,11.25,11.25,0,0,0,1.75,4.54,60.72,60.72,0,0,0,6.4,9,98.36,98.36,0,0,0,9.9,8.76c1.06.87,2.63,1.1,3.88,1.78a55.73,55.73,0,0,1,5.57,3.33c.51.36.55,1.34.81,2-8.24-3.81-16.41-7.75-23.58-13.35-2.15-1.67-3-4-3.79-6.39Q62.28,129.86,59.49,120.79Z"/><path class="cls-21" d="M123.63,189.65c-.11,1.67-1.48,2-2.68,1.89a5.78,5.78,0,0,1-5.06-3.67c-.44-1.08-1-2.11-1.44-3-3.34,2.59-6.61,5.11-9.84,7.6-1.82-1.29-2.12-2.53-1.54-4.08a16.1,16.1,0,0,0,.5-2.29,15.22,15.22,0,0,1,7.54-6.16c1.51-.63,2.2-1.37,2.27-2.84l.85.4a39.27,39.27,0,0,0,3.15,5.47C119.28,185.31,121.53,187.42,123.63,189.65Z"/><path class="cls-21" d="M114.62,282c.3-1.77-1.43-2.15-2.34-2.48-3.18-1.14-3.58-3.57-3.72-6.26,1.44,1.58,3.4,1.24,5.24,1.37.55,2.75,3.08,3.28,5.17,4.16,3.75,1.58,7.66,2.84,11.38,4.49a8.49,8.49,0,0,1,3.77,3.07c1.47,2.55,2.65,5.34,2.13,8.44a10.82,10.82,0,0,1-1.93-2.35c-1.67-3.95-5.42-5.42-8.88-7.25a24.36,24.36,0,0,0-3.12-1.43c-.31-.11-.78.23-1.18.36C119.43,282.06,117,282.08,114.62,282Z"/><path class="cls-22" d="M113.64,293.91a.55.55,0,0,1-.24-.12l-1.65-4.56,1.7-3.06-.49-.5a17.63,17.63,0,0,1,3.92.08,2.86,2.86,0,0,1,1.86,1.74c.69,2.9,1.11,5.86,1.63,8.79a18,18,0,0,0-.05,2.84c.35,2.49.85,4.95,1.22,7.44a6.11,6.11,0,0,1-.17,1.63l-.55.21a8.69,8.69,0,0,1-1.58-2c-1.46-3.6-2.76-7.26-4.2-10.87A6.42,6.42,0,0,0,113.64,293.91Z"/><path class="cls-8" d="M115,314.59a13.87,13.87,0,0,0,0,1.58c.48,3.67-2,5.79-4.39,8a1.73,1.73,0,0,1-1.11.35q-5.82,0-11.64,0a4.15,4.15,0,0,1-1.14-.35c-.05-1.12-.1-2.23-.17-3.69h9c.4,0,.81,0,1.22,0,4,0,4,0,5-3.86C112.21,315,113.19,314.13,115,314.59Z"/><path class="cls-23" d="M113.64,293.91a6.42,6.42,0,0,1,1.4,1.62c1.44,3.61,2.74,7.27,4.2,10.87a8.69,8.69,0,0,0,1.58,2l.55-.21a6.11,6.11,0,0,0,.17-1.63c-.37-2.49-.87-4.95-1.22-7.44a18,18,0,0,1,.05-2.84l4.6,14.18c-1.84,0-3.56.37-5-.12a4.83,4.83,0,0,1-2.27-2.87c-1.27-3.8-2.28-7.67-3.4-11.51C114.12,295.27,113.87,294.59,113.64,293.91Z"/><path class="cls-23" d="M46.48,106.91c1.31,1.56,2,3.87,4.62,3.91.26.79.51,1.57.76,2.35l-.26.27c-1.35-.75-2.74-1.44-4-2.26C45.91,110.11,46.18,108.49,46.48,106.91Z"/><path class="cls-17" d="M130.93,336.52l-.11,2.14h-5l-.33-1.9Z"/><path class="cls-14" d="M111.75,289.23l1.65,4.56c-1.26-.32-2.29-.15-2.78,1.21l-.81-6.42Z"/><path class="cls-10" d="M106.37,173.52l6.43.42c-.09.72-.19,1.44-.28,2.17Z"/><path class="cls-23" d="M78.68,341.52c1.9-.68,1.71-2.41,2.08-3.86.15-.61.29-1.21.43-1.82v5.68Z"/><path class="cls-23" d="M51.86,113.17l.23.4-.49-.13Z"/><path class="cls-19" d="M61.52,258.5l-.3.61Z"/><path class="cls-18" d="M144.76,244.85c.55,3.77,1.18,7.53,1.64,11.31.27,2.19,1.67,3.47,3.7,4.8L135,273.5c-.89-.91-1.66-1.71-2.46-2.48-2.91-2.8-6.74-3.06-10.49-3.61-2.86-.42-5.7-1-8.73-1.52.47-2.55-1.22-3.3-3.18-4a16,16,0,0,1-2.67-1.58c1.48-.1,2.5.11,3.12-.28,1.17-.72,1.56-1.79.14-2.82-1.13-.83-2.17-1.77-3.35-2.53a2.63,2.63,0,0,1-.71-4.11c.88-1.19,1.32-2.82-.11-3.65-2.23-1.3-1.57-2.78-1-4.56,3.5,2,7.23,1.15,10.81,1.19,5.27.06,10.55-.17,15.82-.35,1.89-.07,3.77-.36,5.65-.55C139.39,245.46,141.53,246.13,144.76,244.85Z"/><path class="cls-24" d="M136.25,294.79c.52-3.1-.66-5.89-2.13-8.44a8.49,8.49,0,0,0-3.77-3.07c-3.72-1.65-7.63-2.91-11.38-4.49-2.09-.88-4.62-1.41-5.17-4.16,5.37,0,10.73-.06,16.09,0a11,11,0,0,1,2.46.66c-1.78,2.94-.44,5,1.37,7.05,4.44,5,8.79,10.16,13.18,15.24-1.3-.12-1.31.71-1.25,1.59L140.24,295c-1,3.05-1,3.05-3.57,1.74Z"/><path class="cls-21" d="M162.77,170.36a24.5,24.5,0,0,1-1.94,2.13c-3.33,2.89-6.72,5.72-10,8.62-2.7,2.37-5.24,4.93-8,7.2a20.1,20.1,0,0,1-11.26,4.82c-1.08.07-2.27-1.43-3.41-2.2,2.84-1.28,6-2.12,8.44-3.94,6-4.54,11.62-9.53,17.41-14.33,1-.81,1.94-1.62,3-2.39a1.74,1.74,0,0,1,1.06-.38C159.57,170,161.17,170.2,162.77,170.36Z"/><path class="cls-17" d="M126.46,218.25c2.11.3,4.24.5,6.3,1,.5.12,1.05,1.16,1.1,1.8.33,5,.54,10,.79,14.93.06,1.1.14,2.19.24,3.74l-21.89.37c-.41-2.51-.79-5-1.24-7.53-.35-1.9-.78-3.79-1.17-5.68l2,.14c.93,3.24,1.85,6.47,2.81,9.79,2.11.3,2.48-1.22,2.65-2.69l6.38,4h3.66c1.57,0,3-.6,3.16-2.16.24-3.17.5-6.41-1.21-9.37a3.81,3.81,0,0,1,.22-.75c1.75-3.4.92-5-2.91-5.61a1.89,1.89,0,0,1-.51-.26Z"/><path class="cls-20" d="M98.67,206.42c.16-.45.29-.74.37-1,1.07-4.32,1.06-4.31,5.49-4.27,4.6,0,9.2-.08,13.79.15a65.86,65.86,0,0,1,7.71,1.26c-.67,3.18-1.5,3.89-4.48,3.9C114,206.43,106.49,206.42,98.67,206.42Z"/><path class="cls-24" d="M200.33,267c0-1.06,0-2.11,0-3.17.41-.51.83-1,1.24-1.54a11.3,11.3,0,0,1,.9,1.72c.82,2.38,1.42,4.86,2.41,7.17s2.39,4.63,3.61,6.93c.82,3.14,1.7,6.27,2.43,9.44.47,2-.57,3.38-2.54,4.09l-5.65-3.07c1-3.56,1.58-7.07.53-10.81-.89-3.19-1.13-6.54-1.75-9.8C201.42,267.61,200.73,267.34,200.33,267Z"/><path class="cls-23" d="M129.41,205.27c1.85,3.21.89,6.39,1.15,9.38H106v-4.73h14.52a5.62,5.62,0,0,1,.82,0c3.43.49,6.13-.31,7.31-3.86C128.73,205.86,129,205.7,129.41,205.27Z"/><path class="cls-19" d="M191.41,339.41l-5,.55c-1.68-1.21-3.45-2.31-5-3.64q-5.3-4.53-10.4-9.27c-1.19-1.09-2.15-2.43-3.25-3.63s-2.3-2.45-3.43-3.69c-1.9-2.08-3.77-4.17-5.67-6.25-.07-.08-.26-.05-.39-.07-.31-.75-.58-1.52-.92-2.25s-.75-1.41-1.12-2.11c.43.17,1,.21,1.29.51,3.41,3.5,6.7,7.1,10.17,10.54a89.22,89.22,0,0,0,8.56,7.7c1.06.81,2.17,2.35,4,1.88Z"/><path class="cls-25" d="M110.59,226.86c.39,1.89.82,3.78,1.17,5.68.45,2.51.83,5,1.24,7.53-6.29.44-6.4.16-6.47-5.55A69.07,69.07,0,0,0,105,222.25c-.26-1.33-.27-2.71-.42-4.36,3,0,5.75,0,8.51,0,4.45.08,8.9.23,13.36.35.12.57.25,1.13.38,1.7l-6.87-.37c-3.17-.16-6.34-.38-9.5-.43-1.81,0-4,1.92-3.86,3.8.06.89,1.47,1.71,2.31,2.52C109.44,226,110,226.4,110.59,226.86Z"/><path class="cls-20" d="M153.62,262.68l3.58,1.53c-4,3.8-7.79,7.39-11.56,11-2,1.92-4,3.84-6,5.79-.79.78-1.49,1.14-2.32.09s-1.65-2-2.45-3Z"/><path class="cls-26" d="M180.3,329.68c-1.86.47-3-1.07-4-1.88a89.22,89.22,0,0,1-8.56-7.7c-3.47-3.44-6.76-7-10.17-10.54-.29-.3-.86-.34-1.29-.51-1.23-1.32-2.41-2.69-3.7-4s-2.67-2.54-4.08-3.73a5.53,5.53,0,0,0-1.59-.65l-1.23-1.57c-.06-.88-.05-1.71,1.25-1.59,2.38,2.49,4.63,5.11,7.18,7.42,3.13,2.85,6.68,5.28,9.75,8.19,2.9,2.74,5.3,6,8.11,8.81C174.6,324.66,177.5,327.12,180.3,329.68Z"/><path class="cls-7" d="M200.33,267c.4.31,1.09.58,1.16,1,.62,3.26.86,6.61,1.75,9.8,1,3.74.46,7.25-.53,10.81l-7-4.06c4.31-.25,4.59-.59,4.66-4.84,0-3.58.23-7.16.31-10.74A10.77,10.77,0,0,0,200.33,267Z"/><path class="cls-16" d="M144.76,244.85c-3.23,1.28-5.37.61-6.91-2.16a2.94,2.94,0,0,0,1.26-3.7,23.49,23.49,0,0,1-.65-3.49c2.55.52,3.29,2.56,4.66,3.87C144.71,240.89,144.49,243,144.76,244.85Z"/><path class="cls-7" d="M171.33,316.19c.39.07.9,0,1.16.23,3,2.59,6.14,5.12,9,7.89,2.65,2.56,5,5.36,7.5,8.1a5.3,5.3,0,0,1,.66,1.75c-1.87-1.79-3.72-3.6-5.61-5.37-3-2.77-6-5.46-8.91-8.27C173.75,319.18,172.59,317.64,171.33,316.19Z"/><path class="cls-25" d="M121.55,271c-3,0-6.09.1-9.12-.09-.63,0-1.19-1.16-1.78-1.78l.43-.48,10.49,2.1Z"/><path class="cls-21" d="M114.21,177.46h0Z"/><path class="cls-7" d="M190,334.45l.5.32Z"/><path class="cls-21" d="M145.65,299.14l1.23,1.57a12.67,12.67,0,0,1,1.12,1.55c2.37,4.64,6.2,8,10.29,11.15.13,0,.32,0,.39.07,1.9,2.08,3.77,4.17,5.67,6.25,1.13,1.24,2.3,2.45,3.43,3.69s2.06,2.54,3.25,3.63q5.11,4.72,10.4,9.27c1.57,1.33,3.34,2.43,5,3.64a17.37,17.37,0,0,1-7.81-3.86c-.82-.67-2.14-.71-3.1-1.26a121,121,0,0,1-10.4-6.27,76.44,76.44,0,0,1-7.49-6.82c-2.58-2.46-5.11-5-7.62-7.49-.79-.79-1.46-1.69-2.17-2.55-3.2-3.86-6.43-7.7-9.55-11.63a16.82,16.82,0,0,1-1.64-3.32c2.61,1.31,2.61,1.31,3.57-1.74Z"/><path class="cls-18" d="M114.78,173.29a27.65,27.65,0,0,1,4-2.55c3.74-1.57,7.58-2.93,11.37-4.38a24,24,0,0,0,2.38-.86c2.08-1,4.06-2.08,4.91-4.37v0l.88-.73,5.54-6.21c.33,3,.66,6.1,1,9.76l-11.07,4.77a67.8,67.8,0,0,1-7.84,1.1,6.14,6.14,0,0,0-5.22,2.85Z"/><path class="cls-16" d="M145.06,145.92a4.07,4.07,0,0,1,.19-1.5c1.09-2.07,2.31-4.09,3.4-6.17,1.23-2.35,2.34-4.78,3.59-7.13.7-1.33,1.85-2.48,2.34-3.87,1.24-3.53,2.14-7.18,3.37-10.71.29-.83,1.36-1.39,2.07-2.07.12.79.25,1.58.35,2.37a3.91,3.91,0,0,1,.13,1.64c-.8,2.21-1.62,4.42-2.61,6.55A125,125,0,0,1,152,136.85C150.05,140.08,147.4,142.91,145.06,145.92Z"/><path class="cls-23" d="M120.75,172.69a6.14,6.14,0,0,1,5.22-2.85,67.8,67.8,0,0,0,7.84-1.1Z"/><path class="cls-8" d="M137.42,161.13c-.85,2.29-2.83,3.4-4.91,4.37a24,24,0,0,1-2.38.86c0-.39,0-.78,0-1.17Z"/><path class="cls-9" d="M167.62,105.91a4.54,4.54,0,0,1,.45-1.7A16.17,16.17,0,0,0,171.61,97c0-.15.29-.26.44-.39C172.62,100.63,170.37,103.38,167.62,105.91Z"/><path class="cls-16" d="M143.22,148.19c.16-1.07-.05-2.43,1.79-2.22Z"/><path class="cls-8" d="M138.29,160.42l-.88.73Z"/><path class="cls-1" d="M117.25,176.36l.14.06-.14.2-.15-.13Z"/><path class="cls-18" d="M114.21,173.49l.51-.33Z"/><path class="cls-6" d="M101.9,138.48c-1.39,0-2.61-.08-3.82,0-3.41.26-4-1.64-4.29-4.61a2.09,2.09,0,0,1,1.35-1.59,2.33,2.33,0,0,1,2,.93c.59,1.38,1.53,1.52,2.86,1.56a47.56,47.56,0,0,0,19.55-3.67,43,43,0,0,1,4.69-1.21,6.75,6.75,0,0,0,2.39-1c1.36-1.1,2.74-1,3.75.11.27.3-.63,1.87-1.29,2.61a5.77,5.77,0,0,1-2.5,1.59c-3.56,1.13-7.15,2.19-10.77,3.14C111.22,137.61,106.6,138.91,101.9,138.48Z"/><path class="cls-16" d="M126.44,114.05l6-1.6-3.11-.82,12.24,0c-.19,1.57-2.28,2.4-4.46,2.38-2.68,0-5.37.5-8.06.63A9.18,9.18,0,0,1,126.44,114.05Z"/><path class="cls-8" d="M113.81,113.63c3,.27,6,.52,8.91.81a14.32,14.32,0,0,1,1.7.37c-2.23.4-4.44.93-6.68,1.17A3.54,3.54,0,0,1,113.81,113.63Z"/><path class="cls-6" d="M73.21,84.41c-.75-.69-1.73-1.19-1.9-1.88s.51-1.47,1-2.07a2.74,2.74,0,0,1,1.48-.58q7.23-1.5,14.47-3c1.51-.3,2.94-.42,4,1,.79,1.07.43,1.92-.6,2.18C85.62,81.62,79.53,83,73.21,84.41Z"/><path class="cls-13" d="M132.06,97.78c.06,3-1.16,5.15-2.9,5.09-1.51-.05-4-3.4-4.15-5.33-.1-1.48,2.1-4.2,3.57-4.15C130.62,93.45,132,95.17,132.06,97.78Z"/><path class="cls-13" d="M83.21,100.38c-.14,1.16,0,2.47-.51,3.42a3.53,3.53,0,0,1-2.58,1.66,3.31,3.31,0,0,1-2.42-1.84,14.37,14.37,0,0,1-.46-4.86,3.07,3.07,0,0,1,3.56-3.28c1.49.07,2.32,1.35,2.27,3.5,0,.46,0,.92,0,1.38Z"/><path class="cls-15" d="M161.54,97v1.6h-1.21Z"/><path class="cls-21" d="M208.47,278.14c-1.22-2.3-2.6-4.54-3.61-6.93s-1.59-4.79-2.41-7.17a11.3,11.3,0,0,0-.9-1.72c-.41.52-.83,1-1.24,1.54-1.47-4.24-2.95-8.48-4.37-12.73-.05-.15.37-.45.77-.9,2.94,4,5.78,7.81,7.3,12.42,1.44,4.4,3.1,8.73,4.57,13.12A6.86,6.86,0,0,1,208.47,278.14Z"/><path class="cls-27" d="M110.59,226.86c-.56-.46-1.15-.89-1.67-1.39-.84-.81-2.25-1.63-2.31-2.52-.11-1.88,2-3.83,3.86-3.8,3.16,0,6.33.27,9.5.43l6.87.37a1.89,1.89,0,0,0,.51.26c3.83.6,4.66,2.21,2.91,5.61a3.81,3.81,0,0,0-.22.75l-4.39.46-6.13,0h-.81l-3.68,0-2.44-.07Z"/><path class="cls-28" d="M119.52,227.05l6.13,0c.89,3.67,2.84,7.13,2.44,11.07h-3.66c-.13-.29-.17-.66-.39-.86A14.22,14.22,0,0,1,119.52,227.05Z"/><path class="cls-25" d="M119.52,227.05A14.22,14.22,0,0,0,124,237.23c.22.2.26.57.39.86l-6.38-4c-.17,1.47-.54,3-2.65,2.69-1-3.32-1.88-6.55-2.81-9.79l2.44.07c.08,2.63.34,2.88,3.09,2.82.19-.95.39-1.9.59-2.85Z"/><path class="cls-25" d="M128.09,238.1c.4-3.94-1.55-7.4-2.44-11.07l4.39-.46c1.71,3,1.45,6.2,1.21,9.37C131.14,237.5,129.66,238.08,128.09,238.1Z"/><path class="cls-24" d="M158.29,313.41c-4.09-3.14-7.92-6.51-10.29-11.15a12.67,12.67,0,0,0-1.12-1.55,5.53,5.53,0,0,1,1.59.65c1.41,1.19,2.78,2.43,4.08,3.73s2.47,2.64,3.7,4c.37.7.78,1.39,1.12,2.11S158,312.66,158.29,313.41Z"/><path class="cls-28" d="M118.71,227c-.2,1-.4,1.9-.59,2.85-2.75.06-3-.19-3.09-2.82Z"/></g></g></svg>