<svg xmlns="http://www.w3.org/2000/svg" xmlns:xlink="http://www.w3.org/1999/xlink" width="198" height="198" viewBox="0 0 198 198">
  <defs>
    <clipPath id="clip-member03">
      <rect width="198" height="198"/>
    </clipPath>
  </defs>
  <g id="member03" clip-path="url(#clip-member03)">
    <rect width="198" height="198" fill="#66e2fa"/>
    <g id="Group_3" data-name="Group 3" transform="translate(-70.82 -96.774)">
      <path id="Path_529" data-name="Path 529" d="M113.745,186.836l1.861-8.6.967,1.617c.857-2.324,1.8-4.87,2.732-7.42.192-.527.642-1.247.451-1.582-.966-1.7.358-2.966.715-4.379.865-3.412,3.784-5.36,5.96-7.8a28.432,28.432,0,0,1,4.735-3.721,26.6,26.6,0,0,1,3.807-2.425,14.729,14.729,0,0,1,7.058-1.454c3.375.106,6.77-.24,10.032,1.016.342.132.822-.093,1.191-.146a1.871,1.871,0,0,0-1.781-2.327c-1.384-.2-2.785-.317-4.183-.383s-2.819-.079-4.225-.015a33.174,33.174,0,0,0-6.232.485,18.629,18.629,0,0,0-8.918,5.194,14.46,14.46,0,0,1-1.823,1.353l-.313-.3a76.715,76.715,0,0,1,10.412-13.706l-.683-2.2-4.291,4.592-.282-.24a23.743,23.743,0,0,1,2.062-3.1q3.041-3.35,6.294-6.506a65.913,65.913,0,0,1,5.419-4.791c1.7-1.318,3.654-2.3,5.374-3.592a32.952,32.952,0,0,1,12.094-5.732c.736-.181,1.13-.158,1.522.541a1.668,1.668,0,0,0,1.1.612c3.184.515,6.4.862,9.557,1.5,2.85.572,5.653,1.4,8.448,2.213a3.368,3.368,0,0,1,1.642,1.236c.172.236-.148.991-.44,1.354a6.2,6.2,0,0,1-1.357.989c.862,1.029,1.646,1.345,2.652.786a1.274,1.274,0,0,1,.644-.136,25.459,25.459,0,0,1,8.914,2.1,72.324,72.324,0,0,1,7.384,3.6c2.613,1.482,5.122,3.161,7.61,4.852a22.808,22.808,0,0,1,6,6.187,34,34,0,0,1,3.579,6.1,92.219,92.219,0,0,1,2.943,9.329c.655,2.285,1.172,4.612,1.715,6.929.687,2.921,1.369,5.845,2,8.78.461,2.156.88,4.323,1.226,6.5.515,3.225.95,6.463,1.416,9.694q.439,3.055.868,6.115a12.649,12.649,0,0,1,.26,2.141c-.083,2.526-.557,5.085-.29,7.568.353,3.3-.332,6.457-.687,9.66-.322,2.9-.971,5.766-1.26,8.668-.251,2.506-.244,5.041-.271,7.565-.039,3.766-.01,7.532-.01,11.467H225.01c-.17.982-.124,1.876.873,2.021a12.561,12.561,0,0,0,2.826-.21,5.966,5.966,0,0,1,.317,1.383c-.018,2.349-.057,4.7-.166,7.044a11.128,11.128,0,0,1-.478,2.049c-1.512-.475-.868-1.541-.753-2.522.045-.388-.281-.82-.439-1.232-.456.21-1.115.294-1.333.65-.768,1.248-.755,2.771-1.785,4.047-1.161,1.436-3.107,3.2-4.736,2.755-1.561-.422-2.872.319-4.308.372a1.669,1.669,0,0,0-1.086.676c-1.165,1.606-2.259,3.265-3.394,4.893-.436.624-.918,1.215-1.428,1.886-.392-.882-.655-1.628-1.04-2.305-.847-1.5-1.759-1.553-2.605-.1-1.574,2.7-3.055,5.449-4.605,8.159a28.658,28.658,0,0,1-1.778,2.754c-1.912,2.6-3.872,5.164-5.8,7.754-1.031,1.388-2.03,2.8-3.043,4.2-2.063,1.487-3.06,3.763-4.3,5.849-.443.745-.654,1.583.394,2.116-.777.774-1.583,1.519-2.323,2.327-.918,1-.977.2-1.115-.486a6.5,6.5,0,0,0-.482-1.845,21.655,21.655,0,0,0-1.839-2.315c.92-1.683.9-1.615-.865-2.241a1.994,1.994,0,0,1-.935-1.4,24.391,24.391,0,0,1-.121-3.27c-.022-1.18-.108-2.365-.023-3.539a46.4,46.4,0,0,1,.593-5.214c.459-2.459,1.093-4.887,1.634-7.332a34.124,34.124,0,0,1,.819-3.861c1.33-3.821,2.786-7.6,4.163-11.4a8.6,8.6,0,0,0,.375-1.82,27.347,27.347,0,0,1,.5-4.12,81.529,81.529,0,0,0,2.442-12.43,27.61,27.61,0,0,1,.7-4.236c.527-1.8,1.376-3.513,1.958-5.3,1.087-3.348,3.3-5.994,5.3-8.771.823-1.142,1.775-2.191,2.579-3.344.977-1.4,1.86-2.871,2.74-4.244l2.188,1.45.131-2.684,2.716-1.164.161.119-.18-.1c.417-.394.845-.778,1.249-1.183.377-.379.732-.779,1.1-1.17.957.334,1.011-.64,1.44-1.031a8.669,8.669,0,0,0,3.108-5.866c.052-.738-.033-1.485-.037-2.229-.012-1.805.044-3.613-.041-5.416-.049-1.046-.506-2.093-.448-3.12a3.916,3.916,0,0,0-4.442-4.116A6.669,6.669,0,0,0,204,192.4c-.583,1.69-.075,4.725,1.049,5.729q-.01,1.326-.02,2.654a2.7,2.7,0,0,1-1.872,2.023,4.485,4.485,0,0,1-.191-.887c-.014-1.4.09-2.815-.007-4.212-.172-2.517-.019-5.088-1.368-7.419-.657-1.136-.574-2.523-1.431-3.714-1.309-1.824-2.1-4.013-3.273-5.947-.912-1.506-1.1-1.991-2.792-.681l2.891,5.543c-.6-.409-1.387-.691-1.763-1.249-1.105-1.642-1.984-3.434-3.067-5.092a8.727,8.727,0,0,0-4.936-3.763c-2.7-.778-5.439-1.45-8.38-2.224a36.366,36.366,0,0,0,2.914-13.936l-3.592,6.667a24.538,24.538,0,0,0-4.13-2.692,43.234,43.234,0,0,0-6.829-1.981c-2.57-.57-5.179-.985-7.788-1.335-2.3-.309-4.616-.462-6.929-.639-2.153-.163-4.311-.282-6.468-.394-1.8-.093-3.6-.253-5.4-.184a15.8,15.8,0,0,0-4.5.7,4.758,4.758,0,0,0-1.943,2.025c-.615.957-.963,1.906-2.461,1.9a5.283,5.283,0,0,0-3.03,1.1c-2.083,1.624-3.995,3.461-4.81,6.126a11.114,11.114,0,0,1-.862,2.213,24.771,24.771,0,0,0-2.857,8.089,27.131,27.131,0,0,1-.586,3.126c-1.409,4.753-1.844,9.654-2.353,14.551-.268,2.582-.271,5.235-1.583,7.816-.06-1.364-.082-2.537-.174-3.7a28,28,0,0,0-.384-3.13,38.452,38.452,0,0,1-1.01-4.755c-.134-2.188.116-4.4.135-6.6A4.08,4.08,0,0,0,113.745,186.836ZM146.5,136.353c3.231-.266,6.464-.512,9.689-.832a1.094,1.094,0,0,0,.679-.845c-.046-.364-.519-1-.715-.967-1.628.279-3.375-.623-4.917.478a.937.937,0,0,1-.631.189c-1.864-.354-2.82,1.147-4.105,1.976l-.362.106.072.108Zm72.75,45.3-.166-.01a2.184,2.184,0,0,0,.09-.519,31.511,31.511,0,0,0-2.8-11.343c-1.533-3.273-2.612-6.76-4.176-10.017a77.628,77.628,0,0,0-4.778-8.32,26.155,26.155,0,0,0-10.195-9.54,26.876,26.876,0,0,0-4.847-1.718c-.32-.09-.842.542-1.273.842.3.382.518.927.91,1.116a63.5,63.5,0,0,1,6.07,2.829,22.085,22.085,0,0,1,5.236,4.346,34.492,34.492,0,0,1,5.265,8.267c1.583,3.6,3.766,6.958,5.2,10.61,1.773,4.5,3.352,9.114,3.315,14.072a37.78,37.78,0,0,1-.045,5.154c-.377,2.556-1.124,5.056-1.572,7.606-.08.462.522,1.044.808,1.571.361-.365.869-.67,1.046-1.109a11.374,11.374,0,0,0,.4-2.078c.323-1.669.758-3.325.961-5.007C218.986,186.162,219.081,183.9,219.253,181.649ZM202.01,253.67a15.109,15.109,0,0,1,.32,2.641,2.518,2.518,0,0,0,3.955,2.28,8.921,8.921,0,0,0,3.96-6.1,37.159,37.159,0,0,0,.259-4.554c.045-.97.1-1.942.1-2.912.007-1.234-.042-2.468-.048-3.7-.005-1.443.045-2.889-.01-4.329-.012-.3-.38-.589-.583-.883-.3.258-.816.484-.86.779a47.546,47.546,0,0,0-.545,5.213c-.087,2.668.117,5.351-.072,8.008-.164,2.284-.6,4.575-2.506,6.225-.978.846-1.653.728-1.769-.534-.195-2.134-.191-4.285-.229-6.431-.014-.758,0-1.437-.985-1.583-.954-.142-1.08.608-1.343,1.191-1.487,3.291-2.856,6.64-4.462,9.87-1.95,3.919-4.066,7.754-6.165,11.6-1.488,2.721-3.021,5.42-4.637,8.066-.488.8-.264,1.075.426,1.368.906.386,1.309-.18,1.673-.853,2.308-4.276,4.641-8.539,6.922-12.83,1.214-2.286,2.315-4.634,3.514-6.928C199.864,257.481,200.871,255.733,202.01,253.67ZM182.827,171.5c.793-.59,1.319-.992,1.857-1.376.35-.251.719-.677,1.08-.676a23.373,23.373,0,0,1,4.237.263c3.067.575,6.095,1.353,9.156,1.957,2.816.555,5.657.976,8.483,1.482,1.064.191,1.668-.154,1.754-1.657-1.635-.283-3.318-.563-5-.871-3.034-.556-6.082-1.049-9.092-1.717-3.207-.713-6.319-1.86-9.716-1.181C183.5,168.146,182.713,168.893,182.827,171.5Zm32.486,75.9.04.421c.6.244,1.222.737,1.8.687a4,4,0,0,0,3.969-3.383,43.2,43.2,0,0,0,.45-6.577c.065-3.951.019-7.9.019-11.887h-2.154c0,1.54.016,2.976,0,4.411-.037,2.439-.108,4.878-.143,7.318-.027,1.917.03,3.837-.052,5.751a2.177,2.177,0,0,1-1.8,2.3A11.059,11.059,0,0,0,215.313,247.4Zm-27.955-73.317c.823.991,1.416,2.037,2.8,1.123.138-.091.416.034.628.05,3.232.248,6.033,1.8,8.971,2.949a42.9,42.9,0,0,0,4.762,1.725,1.977,1.977,0,0,0,1.76-.783c.27-.835-.525-1.07-1.32-1.224a18.293,18.293,0,0,1-3.015-.973c-2.9-1.115-5.769-2.323-8.692-3.378A6.884,6.884,0,0,0,187.357,174.085Z" transform="translate(0.927 0.297)" fill="#433132"/>
      <path id="Path_530" data-name="Path 530" d="M180.553,258.214a21.654,21.654,0,0,1,1.839,2.315,6.5,6.5,0,0,1,.482,1.845,11.992,11.992,0,0,1-3.284,1.135c-2.559.109-5.131-.17-7.7-.148-2.062.016-4.118.281-6.179.361-1.036.041-2.077-.082-3.115-.132-.734-.035-1.469-.1-2.2-.108q-5.345-.059-10.69-.093c-2.267-.015-4.539.067-6.8-.037-2.22-.1-4.431-.383-6.646-.586l-.26-.555.8-2.423,1.259-1.675-1-.586c-.1.9-.172,1.583-.245,2.269-1.232.484-.841,1.51-.809,2.416l-.812.516q-3.078,0-6.155,0c-1.3,0-2.6.027-3.9.012-2.709-.03-5.419-.094-8.128-.112-.9-.005-1.792.089-3.171.162l1.517-5.866c.218-.12.565-.191.635-.369.541-1.379,1.093-2.76,1.517-4.179.842-2.815,1.54-5.675,2.429-8.475.358-1.127.6-2.483,1.9-2.793,2.068,1.612,4.006,3.266,6.093,4.7,1.8,1.237,2.218.917,2.989-.779,1.707.08,3.415.2,5.122.208.371,0,.762-.367,1.11-.61.713-.5,1.4-1.03,2.1-1.548l.582,1.172c1.254-.95,1.251-.95,1.269-2.439,0-.266.042-.531.065-.8l2.327-1.878c.264,1.015,1.059.608,1.487.371a2.967,2.967,0,0,0,1.854-2.807c-.045-.876-.034-1.754-.049-2.631.745-.812.916-2.209,2.375-2.311.093-.007.192-.364.234-.57.136-.643.248-1.293.368-1.94l.007-.011.225-.234a.7.7,0,0,0,.237-.1l.263-.268h0l2.959-.886.4.074c2.19,1.051,4.592.962,6.915,1.288.053.007.123-.114.184-.177,1.619.15,3.235.377,4.856.426,1.6.049,3.2-.084,4.8-.138,1.5.984,3.092.361,4.565.048a30.256,30.256,0,0,0,4.592-1.8L180,229.7a10.189,10.189,0,0,0-1.522.361c-1.9.762-3.716,1.865-5.68,2.289-3.511.756-7.1.375-10.643-.094-1.548-.2-3.071-.6-4.618-.827-1.737-.258-3.484-.477-5.235-.609a6.365,6.365,0,0,0-1.856.606c.838.606,1.259,1.13,1.773,1.244,1.665.372,3.359.632,5.051.865,2.746.38,5.49.815,8.25,1.025,3.924.3,7.855.451,11.43-1.759a13.615,13.615,0,0,1,2.774-.89c-.278,1.2-.435,2.044-.674,2.865a22.085,22.085,0,0,0-.763,2.149c-.5,2.8-1.07,5.607-1.334,8.437-.292,3.111-.339,6.25-.373,9.377C176.557,257.056,178.731,258.876,180.553,258.214Z" transform="translate(0.959 39.044)" fill="#d9804a"/>
      <path id="Path_531" data-name="Path 531" d="M167.229,261.961c-1.048-.533-.837-1.371-.394-2.116,1.241-2.086,2.239-4.363,4.3-5.849.576,1.019,1.582,1,2.406-.076q2.637-3.438,5.247-6.892c1.241-1.647,2.562-3.248,3.658-4.987,1.383-2.191,2.555-4.514,3.863-6.755a13.293,13.293,0,0,1,1.29-1.593c1.615,3,3.191,2.59,4.807.353.631-.875,1.046-1.9,1.662-2.79,1.29-1.865,2.372-3.789,5.336-3.5a6.931,6.931,0,0,0,6.056-2.225c.638-.729,1.371-1.373,2-2q1.353,2.046,2.7,4.085c1.187,1.785,2.349,3.586,3.573,5.344,1.279,1.838,2.714,3.574,3.9,5.469.669,1.072.891,2.413,1.458,3.563a12.11,12.11,0,0,1,1.184,5.191c.075,3.327.252,6.661-.685,9.918-.833.244-1.662.492-2.5.728-.247.069-.593.233-.743.132-2.1-1.41-4.352-.272-6.49-.5-3.578-.376-6.879,1.034-10.368,1.083a23.949,23.949,0,0,0-4.49.8c-2.485.522-4.954,1.134-7.449,1.613-2.154.414-4.326.773-6.5,1.011-1.248.138-2.528-.041-3.792-.029-2.014.02-4.026.1-6.04.116C169.89,262.07,168.56,262,167.229,261.961Z" transform="translate(20.042 37.617)" fill="#d9804a"/>
      <path id="Path_532" data-name="Path 532" d="M131.866,273.652c-.771,1.7-1.188,2.017-2.989.779-2.087-1.437-4.025-3.092-6.093-4.7-1.3.311-1.538,1.666-1.9,2.793-.89,2.8-1.587,5.66-2.429,8.475-.424,1.418-.976,2.8-1.517,4.179-.069.178-.417.249-.635.369-.929-.236-1.11-.768-.83-1.675.933-3.008,1.75-6.055,2.714-9.054.585-1.819,1.368-3.574,2.052-5.36a3.241,3.241,0,0,0-.441-3.605A84.933,84.933,0,0,1,114.37,258c-.55-.88-.534-2.1-.875-3.13a31.747,31.747,0,0,0-1.506-3.972c-1.177-2.409-.6-4.962-.758-7.452-.1-1.534-.015-3.082.026-4.623.05-1.942.063-3.889.233-5.821.279-3.18.583-6.364,1.041-9.523.657-4.529.1-9.049.04-13.57-.048-3.492-.42-6.979-.574-10.471a41.751,41.751,0,0,1,.608-8.446c.342-2.142.283-4.345.484-6.513.221-2.389.515-4.772.838-7.148.033-.237.486-.416.745-.621A4.08,4.08,0,0,1,115.13,178c-.019,2.2-.268,4.411-.135,6.6a38.452,38.452,0,0,0,1.01,4.755,28,28,0,0,1,.384,3.13c.093,1.168.114,2.341.174,3.7,1.312-2.581,1.315-5.234,1.583-7.816.51-4.9.944-9.8,2.353-14.551a27.13,27.13,0,0,0,.586-3.126,24.771,24.771,0,0,1,2.857-8.089,11.113,11.113,0,0,0,.862-2.213c.815-2.665,2.726-4.5,4.81-6.126a5.283,5.283,0,0,1,3.03-1.1c1.5,0,1.846-.946,2.461-1.9a4.758,4.758,0,0,1,1.943-2.025,15.8,15.8,0,0,1,4.5-.7c1.794-.069,3.6.091,5.4.184,2.157.112,4.315.23,6.468.394,2.312.177,4.631.33,6.929.639,2.609.35,5.219.766,7.788,1.335a43.234,43.234,0,0,1,6.829,1.981,24.538,24.538,0,0,1,4.13,2.692l.045.5a3.6,3.6,0,0,1-.516,1.245c-.135.142-.838-.007-1.051-.237-1.916-2.09-4.445-2.961-7.08-3.528-3.2-.688-6.419-1.3-9.655-1.784-3.479-.519-6.982-.882-10.481-1.243a12.771,12.771,0,0,0-2.413.2c1.807.473,3.6.717,5.356,1.1,1.369.3,2.679.888,4.052,1.14,4.086.749,8.2,1.35,12.281,2.121a6.553,6.553,0,0,1,2.581,1.263c.811.61.619,1.308-.387,1.356a13.328,13.328,0,0,1-2.774-.514c-3.312-.58-6.646-1.052-9.936-1.74-3.38-.707-6.716-1.624-10.072-2.444-.707-.173-1.42-.323-2.13-.484l-.57.016-.386-.061.159.4a4.258,4.258,0,0,1-.271.679,4.012,4.012,0,0,1-1.529-.5c-.854-.653-.812-.709-1.281-.271l1.414,2.365c-.955,0-1.511.007-2.066,0-.713-.012-1.666-.343-2.1-.005-2.413,1.9-5.457,2.951-7.363,5.51a5.942,5.942,0,0,0-1.03.922,17.272,17.272,0,0,0-2.778,6.822c-.476,2.552-1.2,5.059-1.811,7.587-.816,4.261-.737,8.257.2,9.483a3.069,3.069,0,0,0,.293-.268c3.053-3.607,6.392-6.656,11.648-5.962a1.943,1.943,0,0,0,.4-.052c.986-.093,1.672.165,1.7,1.335.026,1.256-.484,1.882-1.65,1.931a14.729,14.729,0,0,0-2.386.139c-3.807.8-7.147,2.41-9.449,5.714l-1.181.354v5.062l2.048-1.322a15.7,15.7,0,0,1,3.434-2.119,15.758,15.758,0,0,1,5.258-.74,7.465,7.465,0,0,1,3.532,1.45c.413.275.294,1.348.473,2.376l-2.032-.827c-.064.775-.153,1.493-.177,2.213-.082,2.294-1.066,3.248-3.3,3.16-3.186-.127-3.574-.545-3.837-3.8a1.4,1.4,0,0,0-.958-.909,4.532,4.532,0,0,0-1.737.236c-.726.174-1.582.237-1.037,1.446.174.387-.114.982-.191,1.482l-1.245-.262a6.722,6.722,0,0,0-.174,1.341c.189,2.391.376,4.784.653,7.167.17,1.467.5,2.917.758,4.375l.071,1.342a51.008,51.008,0,0,0,1.2,5.135c.707,2.089,1.653,4.1,2.523,6.129.556,1.3,1.1,2.605,1.76,3.848,1.263,2.369,3.37,3.938,5.458,5.507.743.653,1.51,1.279,2.224,1.962,1.639,1.567,3.139,3.3,4.9,4.7a59,59,0,0,0,6.5,4.387c.955.57.173,1.042.176,1.533,0,.161-.523.326-.808.488-.005-.045.007-.114-.018-.129q-5.506-3.511-11.02-7.013c-.432-.274-.922-.461-1.334-.759s-.745-.737-1.165-1.042a10.326,10.326,0,0,1-1.559-.982c-.928-.991-1.743-2.087-2.608-3.137a45.4,45.4,0,0,1-8.19-15.969c-.461-1.514-.214-3.233-.354-4.853-.316-3.673-.5-7.37-1.071-11.007-.345-2.2.639-4.727-1.15-6.16a7.347,7.347,0,0,0,.888-1.815,17.27,17.27,0,0,0,.075-2.981c-.041-1.085.229-2.522-.349-3.169-1.038-1.162-.349-2.108-.266-3.158.038-.486.042-.98.121-1.459.36-2.168.65-4.353,1.136-6.492.6-2.657,1.33-5.289,2.094-7.905a17.213,17.213,0,0,1,1.673-4.488,14.2,14.2,0,0,1,6.159-5.375c.372-.168.579-.7,1.055-1.312-1.018.1-1.542.187-2.066.188a6.732,6.732,0,0,0-6.787,4.438c-.74,1.789-1.685,3.495-2.391,5.3a58.58,58.58,0,0,0-2.421,6.991c-.77,3.058-1.326,6.179-1.793,9.3-.52,3.469-.811,6.971-1.258,10.452-.2,1.537-.5,3.064-.822,4.582a1.9,1.9,0,0,1-2.1,1.639c-.019-.2-.04-.4-.059-.6l-.191.052.23.568-1.071,3.476-1.914-.335v6.309l.358.071a12.717,12.717,0,0,0,.545-1.292c.286-.954.526-1.923.785-2.886.079.658.211,1.315.228,1.974.1,3.97.146,7.942.263,11.911.06,2.042.232,4.081.35,6.121.1,1.7.237,3.389.273,5.084a48.508,48.508,0,0,0-.008,5.055,3.6,3.6,0,0,1-1.234,3.256l-2.117-1.432c0,2.372.1,4.853-.025,7.324a21.934,21.934,0,0,0,1.09,9,49.316,49.316,0,0,0,5.544,10.725,35.391,35.391,0,0,0,7.355,8.43c.852.654,1.819,1.651,2.714,1.632A1.684,1.684,0,0,1,131.866,273.652Zm10.306-122.91c-2.211-.339-4.334-.617-5.713,2.113l2.927.349Z" transform="translate(0 10.424)" fill="#0c0b0b"/>
      <path id="Path_533" data-name="Path 533" d="M228.214,249.151a12.562,12.562,0,0,1-2.826.21c-1-.144-1.044-1.038-.873-2.021h2.333c0-3.935-.03-7.7.01-11.467.027-2.523.02-5.059.271-7.565.289-2.9.939-5.768,1.26-8.668.354-3.2,1.04-6.356.687-9.66-.267-2.483.207-5.041.29-7.568a12.65,12.65,0,0,0-.26-2.141q-.429-3.058-.868-6.115c-.466-3.232-.9-6.469-1.416-9.694-.346-2.177-.766-4.345-1.226-6.5-.627-2.935-1.309-5.859-2-8.78-.544-2.316-1.06-4.644-1.715-6.928a92.215,92.215,0,0,0-2.943-9.329,34,34,0,0,0-3.579-6.1,22.808,22.808,0,0,0-6-6.187c-2.488-1.691-5-3.37-7.61-4.852a72.324,72.324,0,0,0-7.384-3.6,25.459,25.459,0,0,0-8.914-2.1,1.274,1.274,0,0,0-.644.136c-1.006.559-1.789.243-2.652-.786a6.2,6.2,0,0,0,1.357-.989c.292-.364.612-1.119.44-1.354a3.368,3.368,0,0,0-1.642-1.236c-2.795-.815-5.6-1.64-8.448-2.213-3.158-.634-6.373-.981-9.557-1.5a1.668,1.668,0,0,1-1.1-.612c-.392-.7-.786-.722-1.522-.541a32.952,32.952,0,0,0-12.094,5.732c-1.719,1.292-3.676,2.274-5.374,3.592A65.913,65.913,0,0,0,138.8,135.1q-3.246,3.152-6.294,6.506a23.744,23.744,0,0,0-2.062,3.1l.282.24,4.291-4.592.683,2.2a76.716,76.716,0,0,0-10.412,13.706l.313.3a14.461,14.461,0,0,0,1.823-1.353A18.628,18.628,0,0,1,136.338,150a33.174,33.174,0,0,1,6.232-.485c1.406-.064,2.819-.05,4.225.015s2.8.183,4.183.383a1.871,1.871,0,0,1,1.781,2.327c-.369.053-.849.278-1.191.146-3.262-1.256-6.657-.91-10.032-1.016a14.729,14.729,0,0,0-7.058,1.454,26.6,26.6,0,0,0-3.807,2.425,28.433,28.433,0,0,0-4.735,3.721c-2.176,2.436-5.095,4.385-5.96,7.8-.357,1.413-1.681,2.676-.715,4.379.191.335-.259,1.055-.451,1.582-.932,2.551-1.875,5.1-2.732,7.42l-.967-1.617.086-.782.623-.253-.424-.3c.587-2.642,1.147-5.289,1.77-7.922.439-1.857.991-3.686,1.437-5.54.315-1.3.282-2.752.846-3.923,4.233-8.779,8.583-17.514,14.694-25.185a20,20,0,0,1,4.645-4,72.234,72.234,0,0,1,23.955-10.715,10.281,10.281,0,0,1,3.62.063c4.094.583,8.2,1.135,12.255,1.933a13.529,13.529,0,0,1,8.549,5.66,1.7,1.7,0,0,0,.828.58c1.973.621,4.015,1.06,5.926,1.829,2.79,1.123,5.536,2.38,8.213,3.751a59.312,59.312,0,0,1,6.238,3.721c2.35,1.594,4.949,2.863,6.453,5.561a58.757,58.757,0,0,0,3.859,5.186,11.74,11.74,0,0,1,1.327,2.507c1.057,2.681,2.052,5.387,3.058,8.089.162.437.253.9.377,1.353l.007.384.255-.157c.252,1.5.447,3.021.771,4.51.48,2.211,1.046,4.4,1.583,6.6.459,1.876,1,3.736,1.371,5.63.538,2.771.935,5.569,1.424,8.35.357,2.027.884,4.03,1.125,6.07.365,3.077.542,6.175.808,9.264.165,1.92.428,3.837.492,5.761.059,1.767-.166,3.544-.12,5.313.038,1.472.341,2.934.421,4.405a3.545,3.545,0,0,1-.331,1.928,14.28,14.28,0,0,0-1.721,6.642c-.288,4.041-.394,8.1-.561,12.146-.1,2.5-.281,5-.236,7.493C228.762,246.084,228.982,247.659,228.214,249.151ZM130,145.428l-.038.106.15.011a.3.3,0,0,0-.023-.108C130.076,145.422,130.028,145.431,130,145.428Z" transform="translate(1.423)" fill="#0c0c0c"/>
      <path id="Path_534" data-name="Path 534" d="M218.352,258.507c.937-3.256.76-6.591.685-9.918a12.11,12.11,0,0,0-1.184-5.191c-.567-1.15-.789-2.491-1.458-3.563-1.184-1.9-2.619-3.631-3.9-5.469-1.224-1.758-2.386-3.559-3.573-5.344q-1.353-2.038-2.7-4.085c-.631.624-1.364,1.269-2,2a6.93,6.93,0,0,1-6.056,2.225c-2.964-.29-4.045,1.634-5.336,3.5-.616.888-1.031,1.916-1.662,2.79-1.616,2.237-3.192,2.649-4.807-.353a13.293,13.293,0,0,0-1.29,1.593c-1.308,2.241-2.48,4.564-3.863,6.755-1.1,1.739-2.417,3.34-3.658,4.987q-2.608,3.458-5.247,6.892c-.824,1.074-1.83,1.1-2.406.076,1.012-1.4,2.011-2.814,3.043-4.2,1.925-2.59,3.886-5.154,5.8-7.754a28.656,28.656,0,0,0,1.778-2.754c1.551-2.71,3.032-5.462,4.605-8.159.846-1.45,1.758-1.4,2.605.1.384.677.647,1.424,1.04,2.305.51-.67.992-1.262,1.428-1.886,1.135-1.628,2.229-3.286,3.394-4.893a1.669,1.669,0,0,1,1.086-.676c1.436-.053,2.747-.794,4.308-.372,1.63.441,3.575-1.319,4.736-2.755,1.03-1.275,1.016-2.8,1.785-4.047.218-.356.876-.44,1.333-.65.158.411.484.843.439,1.232-.114.981-.759,2.047.753,2.522.477.91.9,1.85,1.44,2.725,1.03,1.677,2.063,3.359,3.2,4.964,1.451,2.047,3.134,3.938,4.487,6.044a22.613,22.613,0,0,1,3.329,7.923,31.2,31.2,0,0,1,.458,9.178,19.11,19.11,0,0,1-.285,3.662C220.214,259.338,219.662,259.374,218.352,258.507Z" transform="translate(21.284 36.213)" fill="#110d0f"/>
      <path id="Path_535" data-name="Path 535" d="M115.373,161.917l.424.3-.623.253Z" transform="translate(1.445 15.278)" fill="#433132"/>
      <path id="Path_536" data-name="Path 536" d="M129.505,253.486l.812-.516h0l.26.555Z" transform="translate(6.641 48.288)" fill="#d7809b"/>
      <path id="Path_537" data-name="Path 537" d="M128.783,160.706c1.906-2.559,4.95-3.615,7.363-5.51.432-.338,1.386-.007,2.1.005.555.008,1.11,0,2.066,0l-1.414-2.365c.469-.437.426-.382,1.281.271a4.012,4.012,0,0,0,1.529.5,4.257,4.257,0,0,0,.271-.679l.226-.337.57-.016a18.248,18.248,0,0,0,2.974,2.081c1.256.56,2.7.683,4.01,1.14,2.874,1,5.708,2.116,8.577,3.13a5.866,5.866,0,0,0,1.6.106l-.259-1.279-.019.022a7.116,7.116,0,0,1,1.383.131c.835.244,1.621.673,2.465.858,2.379.522,4.765.931,6.332,3.134.574.807,1.442.471,1.95-.362.965-1.583,1.247-3.827,3.838-4.039l-.631-1.38-.045-.5,3.592-6.667a36.366,36.366,0,0,1-2.914,13.936c2.94.774,5.675,1.446,8.38,2.224a8.727,8.727,0,0,1,4.936,3.763c1.083,1.658,1.962,3.45,3.067,5.092.376.559,1.164.841,1.763,1.249.326.3.8.53.954.9.868,2.126,1.754,4.251,2.451,6.437.971,3.049.583,6.2.5,9.335a20.691,20.691,0,0,0,.315,5.323,8.285,8.285,0,0,1-.65,5.449,21.294,21.294,0,0,1-1.67,2.71l-2.763,2.345c-.263-.583-.376-1.463-.82-1.69a18.3,18.3,0,0,0-3.923-1.409,16.7,16.7,0,0,0-3.46-.394,37.361,37.361,0,0,0-5.227.071,2.251,2.251,0,0,0-2.1,1.489c-.7,2.023-1.662,3.954-2.359,5.977-.674,1.957-1.052,4.017-1.741,5.967a6.116,6.116,0,0,0,1.316,6.653c1.707,1.888,3.477,3.624,6.069,4.266a1.737,1.737,0,0,0,2.3-1.2c.247-.6.553-1.173.834-1.758l.267,1.947c-.191.744-.14,1.733-.61,2.19a54.338,54.338,0,0,1-6.954,6.175,66.044,66.044,0,0,1-8.874,4.744,22.467,22.467,0,0,1-8.738,2.172,17.987,17.987,0,0,0-3,.555c-.549.121-1.072.353-1.62.48a11.607,11.607,0,0,1-1.292.159,13.337,13.337,0,0,0,1.12.846,1.177,1.177,0,0,0,.653.078c3.15-.21,6.4-.008,9.425-.752a70.512,70.512,0,0,0,11.317-4.122,13.148,13.148,0,0,0,5.809-4.864c.545-.837,1.234-1.578,2.068-2.627-.146,1.023-.24,1.657-.326,2.292a65.069,65.069,0,0,1-1.1,7.634c-.576,2.217-.882,4.544-2.094,6.606a15.613,15.613,0,0,0-1.571,3.987c-.371,1.431-.421,2.94-.691,4.4-.044.233-.5.391-.767.585l-.24-2.228a30.255,30.255,0,0,1-4.592,1.8c-1.473.313-3.06.936-4.565-.048,1.643-.305,3.3-.557,4.926-.933a2.987,2.987,0,0,0,2.3-3.171,4.819,4.819,0,0,0-1.014.17,28.183,28.183,0,0,1-4.16,1.7,27.145,27.145,0,0,1-8.494.155c-1.808-.165-3.637-.2-5.424-.491-1.6-.264-3.156-.805-4.731-1.225.086-.089.24-.17.245-.264a35.43,35.43,0,0,0,.226-4.2,7.052,7.052,0,0,0-.743-3.137,11.113,11.113,0,0,0-2.353-2.211c.285-.162.809-.327.808-.488,0-.491.779-.963-.176-1.533a59,59,0,0,1-6.5-4.387c-1.765-1.4-3.265-3.138-4.9-4.7-.714-.683-1.481-1.309-2.222-1.962a7.144,7.144,0,0,0,.789-1.638c.1-.488-.233-1.052-.181-1.563.255-2.495-1.037-4.6-1.751-6.826a36.879,36.879,0,0,0-2.375-4.994c-.625-1.256-1.034-2.751-1.987-3.684-1.422-1.393-3.157-2.622-5.435-1.914l-.071-1.342c.091-1.619.264-3.237.255-4.856-.018-2.589-.157-5.176-.245-7.765.076-.5.365-1.1.191-1.482-.545-1.209.311-1.271,1.037-1.446a4.531,4.531,0,0,1,1.737-.236,1.4,1.4,0,0,1,.958.909c.263,3.254.651,3.672,3.837,3.8,2.23.089,3.214-.865,3.3-3.16.025-.719.113-1.438.177-2.213l2.032.827c-.178-1.029-.06-2.1-.473-2.376a7.465,7.465,0,0,0-3.532-1.45,15.757,15.757,0,0,0-5.258.74,15.7,15.7,0,0,0-3.434,2.119c-.185-.228-.5-.437-.533-.685-.154-1.131-.23-2.271-.334-3.409,2.3-3.3,5.642-4.913,9.449-5.714a14.727,14.727,0,0,1,2.386-.139c1.166-.049,1.676-.674,1.65-1.931-.023-1.17-.709-1.428-1.695-1.335a1.943,1.943,0,0,1-.4.052c-5.257-.694-8.595,2.356-11.648,5.962a3.069,3.069,0,0,1-.293.268c-.935-1.226-1.014-5.223-.2-9.483a4.678,4.678,0,0,0,.527-.827c.337-.891.589-1.814.939-2.7.846-2.136,1.763-4.246,2.581-6.393.273-.715.281-1.529.5-2.27C128.024,162.788,128.422,161.753,128.783,160.706Zm30.184,25.007-5.592,5.881.258.373c.255-.023.563.04.755-.082.868-.549,1.675-1.2,2.559-1.72a1.514,1.514,0,0,1,2.47,1.3,2.162,2.162,0,0,0,.226.737c.794,1.613,1.74,2.042,3.707,1.744,1.162-.177,2.289-.431,2.616-1.766a9.425,9.425,0,0,0,.149-1.967c.022-.789.005-1.579.005-2.413.914.424,1.669.725,2.372,1.115a11.731,11.731,0,0,1,2.56,1.623,2.193,2.193,0,0,0,2.626.594l-.208-2.231c.766-.462,2.007-.779,2.406-2.372-.388.1-.538.114-.674.168-2.086.818-4.123.989-6.018-.489a15.357,15.357,0,0,0-1.95-1.566c-2.262-1.221-4.74-.882-7.144-.694C158.681,184.056,158.442,184.694,158.967,185.713Zm4.577-8.253c-1.931.176-3.4.27-4.867.458a3.027,3.027,0,0,0-2.763,2.006c-.388,1.132.014,1.744,1.194,1.751a8.87,8.87,0,0,0,2.263-.162,20.467,20.467,0,0,1,8.884-.585c2.3.413,4.536,1.217,6.8,1.848.376.106.749.221,1.124.331-.1-.407-.067-1-.327-1.191-1.489-1.108-2.917-2.534-4.614-3.068A54.283,54.283,0,0,0,163.544,177.46ZM140.2,217.7c.651.688,1.153,1.286,1.724,1.808,1,.917,3.3,1.23,4.011.58a5.129,5.129,0,0,1,5.36-1.249,8.179,8.179,0,0,0,5.125.251c2.226-.654,3.974-2,6.056-3.4-.507-.135-.736-.279-.9-.226a26.353,26.353,0,0,0-3.439,1.209c-1.906.924-3.626,1.375-5.792.36-1.589-.744-3.43-1.367-5.344.369a3.945,3.945,0,0,1-5.931-.65Zm7.2-7.916c.767-1.679.724-1.623-.711-2.769-.781-.625-2.243-.7-2.094-2.177a8.955,8.955,0,0,1,.514-2.206c1.262-3.386.219-6.533-.789-9.7-.312.016-.493.007-.668.037-1.537.264-1.4.223-.933,1.675a15.165,15.165,0,0,1,.954,4.727c-.019,1.575-.745,3.13-1.011,4.717-.192,1.149-.515,2.442.788,3.263S146.081,208.97,147.4,209.779Zm8.317,15.995a4.521,4.521,0,0,0-1.179-.328c-2.056.12-4.113.26-6.163.458a6.064,6.064,0,0,0-1.488.625C150.255,228.375,151.767,227.475,155.713,225.774Zm-22.4-38.621a7.5,7.5,0,0,0-4.763.518c-1.078.541-2.2,1-3.27,1.546-.285.146-.65.5-.644.758a1.474,1.474,0,0,0,.5,1.112c.706.4.737-.178.775-.695.007-.091.29-.144.424-.244A15.34,15.34,0,0,1,133.317,187.153Z" transform="translate(4.138 10.577)" fill="#fefefe"/>
      <path id="Path_538" data-name="Path 538" d="M170.259,252.853c.266-.193.724-.352.767-.585.27-1.461.32-2.97.691-4.4a15.613,15.613,0,0,1,1.571-3.987c1.213-2.062,1.518-4.389,2.094-6.606a65.065,65.065,0,0,0,1.1-7.634c.086-.635.18-1.269.326-2.292-.834,1.049-1.523,1.79-2.068,2.627a13.148,13.148,0,0,1-5.809,4.864,70.513,70.513,0,0,1-11.317,4.122c-3.021.744-6.274.542-9.425.752a1.177,1.177,0,0,1-.653-.078,13.335,13.335,0,0,1-1.12-.846,11.612,11.612,0,0,0,1.292-.159c.548-.127,1.071-.358,1.62-.48a17.987,17.987,0,0,1,3-.555,22.468,22.468,0,0,0,8.738-2.172,66.043,66.043,0,0,0,8.874-4.744,54.337,54.337,0,0,0,6.954-6.175c.47-.456.42-1.446.61-2.19.629-2.018,1.417-4,1.854-6.062.707-3.334,2.884-5.874,4.457-8.727a45.24,45.24,0,0,1,3.543-4.6c.662-.9,1.172-1.91,1.751-2.871a21.3,21.3,0,0,0,1.67-2.71,8.285,8.285,0,0,0,.65-5.449,20.692,20.692,0,0,1-.315-5.323c.083-3.132.471-6.285-.5-9.335-.7-2.186-1.583-4.311-2.451-6.437-.15-.368-.628-.6-.954-.9l-2.891-5.543c1.7-1.309,1.88-.824,2.792.681,1.173,1.935,1.963,4.123,3.273,5.948.857,1.191.774,2.578,1.431,3.714,1.349,2.331,1.2,4.9,1.368,7.419.1,1.4-.007,2.807.007,4.212a4.485,4.485,0,0,0,.191.887c.2,2.533.342,5.074.65,7.593a13.822,13.822,0,0,0,.959,2.792l-.131,2.684-2.188-1.45c-.88,1.373-1.763,2.842-2.74,4.244-.8,1.153-1.756,2.2-2.579,3.344-2,2.777-4.216,5.423-5.3,8.771-.582,1.79-1.431,3.5-1.958,5.3a27.608,27.608,0,0,0-.7,4.236,81.529,81.529,0,0,1-2.442,12.43,27.347,27.347,0,0,0-.5,4.12,8.6,8.6,0,0,1-.375,1.82c-1.376,3.8-2.833,7.581-4.163,11.4a34.125,34.125,0,0,0-.819,3.861c-.541,2.444-1.174,4.872-1.634,7.332a46.4,46.4,0,0,0-.593,5.214c-.084,1.173,0,2.359.023,3.539a24.4,24.4,0,0,0,.121,3.27,1.994,1.994,0,0,0,.935,1.4c1.76.627,1.785.559.865,2.241-1.822.662-4-1.158-3.97-3.477.034-3.127.082-6.266.373-9.377.264-2.83.833-5.633,1.334-8.437a22.086,22.086,0,0,1,.763-2.149c.24-.822.4-1.666.674-2.865a13.614,13.614,0,0,0-2.774.89c-3.575,2.21-7.506,2.057-11.43,1.759-2.761-.21-5.5-.645-8.25-1.025-1.692-.233-3.386-.493-5.051-.865-.514-.114-.935-.638-1.773-1.244a6.366,6.366,0,0,1,1.856-.606c1.751.132,3.5.352,5.235.609,1.546.23,3.07.623,4.618.827,3.543.469,7.132.85,10.643.094,1.965-.424,3.781-1.527,5.68-2.289A10.189,10.189,0,0,1,170.259,252.853Z" transform="translate(10.702 15.889)" fill="#0d0b0c"/>
      <path id="Path_539" data-name="Path 539" d="M180.974,194.772a13.822,13.822,0,0,1-.959-2.792c-.308-2.519-.446-5.06-.65-7.593a2.7,2.7,0,0,0,1.872-2.023q.01-1.328.02-2.654c.252-.255.7-.495.724-.767.091-1.207-.01-2.429.087-3.637.2-2.453,2.023-3.509,3.966-3.883a1.621,1.621,0,0,1,1.375.732,19.6,19.6,0,0,1,1.153,7.369c-.022,1.337.079,2.675.1,4.013.026,1.542-1.461,5.1-3.073,5.661a1.422,1.422,0,0,0-1.018,2.082h1.444c-.365.391-.719.792-1.1,1.17-.4.4-.833.789-1.249,1.183l.02-.025Z" transform="translate(24.717 18.721)" fill="#fcfdfd"/>
      <path id="Path_540" data-name="Path 540" d="M198.668,176.439c-.172,2.252-.267,4.513-.54,6.751-.2,1.683-.638,3.338-.961,5.007a11.372,11.372,0,0,1-.4,2.078c-.177.439-.685.744-1.046,1.109-.286-.527-.888-1.109-.808-1.571.448-2.549,1.195-5.05,1.572-7.606a37.785,37.785,0,0,0,.045-5.154c.037-4.958-1.542-9.577-3.315-14.072-1.439-3.652-3.622-7.006-5.2-10.61a34.492,34.492,0,0,0-5.265-8.267,22.085,22.085,0,0,0-5.236-4.347,63.509,63.509,0,0,0-6.07-2.829c-.392-.189-.61-.734-.91-1.116.431-.3.952-.932,1.273-.842a26.875,26.875,0,0,1,4.847,1.718,26.155,26.155,0,0,1,10.195,9.54,77.628,77.628,0,0,1,4.778,8.32c1.564,3.258,2.643,6.745,4.176,10.017a31.511,31.511,0,0,1,2.8,11.343,2.186,2.186,0,0,1-.09.519Z" transform="translate(21.513 5.507)" fill="#0a0808"/>
      <path id="Path_541" data-name="Path 541" d="M182.75,222.933c-1.139,2.063-2.146,3.811-3.081,5.6-1.2,2.295-2.3,4.642-3.514,6.928-2.281,4.291-4.614,8.554-6.922,12.83-.364.673-.767,1.239-1.673.853-.691-.293-.914-.568-.426-1.368,1.616-2.646,3.149-5.345,4.637-8.066,2.1-3.841,4.216-7.677,6.165-11.6,1.606-3.231,2.976-6.58,4.462-9.87.263-.583.39-1.333,1.343-1.191.986.146.971.826.985,1.583.038,2.146.034,4.3.229,6.431.116,1.262.79,1.38,1.769.534,1.908-1.65,2.342-3.942,2.506-6.225.189-2.657-.015-5.34.072-8.008a47.55,47.55,0,0,1,.545-5.213c.044-.3.561-.522.86-.779.2.294.571.582.583.883.054,1.44,0,2.886.01,4.329.005,1.233.055,2.466.048,3.7-.005.97-.059,1.942-.1,2.912a37.159,37.159,0,0,1-.259,4.554,8.921,8.921,0,0,1-3.96,6.1,2.518,2.518,0,0,1-3.955-2.28A15.109,15.109,0,0,0,182.75,222.933Z" transform="translate(20.188 31.034)" fill="#0a0808"/>
      <path id="Path_542" data-name="Path 542" d="M185.857,191.805h-1.444a1.422,1.422,0,0,1,1.018-2.082c1.612-.564,3.1-4.119,3.073-5.661-.022-1.338-.123-2.676-.1-4.013a19.6,19.6,0,0,0-1.153-7.369,1.621,1.621,0,0,0-1.375-.732c-1.943.375-3.77,1.431-3.966,3.883-.1,1.207,0,2.429-.087,3.637-.02.273-.471.512-.723.767-1.124-1-1.632-4.04-1.049-5.729a6.669,6.669,0,0,1,5.389-4.48,3.916,3.916,0,0,1,4.442,4.116c-.057,1.027.4,2.074.448,3.12.084,1.8.029,3.611.041,5.416,0,.744.089,1.491.037,2.229a8.669,8.669,0,0,1-3.108,5.866C186.868,191.165,186.814,192.139,185.857,191.805Z" transform="translate(24.877 18.194)" fill="#101110"/>
      <path id="Path_543" data-name="Path 543" d="M164.449,159.017c-.114-2.611.669-3.357,2.763-3.776,3.4-.679,6.509.469,9.716,1.181,3.01.668,6.058,1.161,9.092,1.717,1.679.308,3.361.587,5,.871-.086,1.5-.689,1.848-1.754,1.657-2.826-.507-5.667-.928-8.483-1.482-3.062-.6-6.089-1.382-9.156-1.957a23.373,23.373,0,0,0-4.237-.263c-.361,0-.73.425-1.081.676C165.768,158.025,165.242,158.427,164.449,159.017Z" transform="translate(19.306 12.783)" fill="#0b0809"/>
      <path id="Path_544" data-name="Path 544" d="M188.288,219.179a11.061,11.061,0,0,1,2.124-.959,2.177,2.177,0,0,0,1.8-2.3c.082-1.914.025-3.834.052-5.751.035-2.44.106-4.879.143-7.318.02-1.435,0-2.871,0-4.411h2.154c0,3.983.046,7.935-.019,11.887a43.2,43.2,0,0,1-.45,6.577,4,4,0,0,1-3.969,3.383c-.575.05-1.2-.443-1.8-.687Z" transform="translate(27.952 28.519)" fill="#0a0808"/>
      <path id="Path_545" data-name="Path 545" d="M167.771,160.1a6.884,6.884,0,0,1,5.893-.511c2.923,1.055,5.789,2.263,8.692,3.378a18.293,18.293,0,0,0,3.015.973c.8.154,1.59.388,1.32,1.224a1.977,1.977,0,0,1-1.76.783,42.9,42.9,0,0,1-4.762-1.725c-2.938-1.146-5.739-2.7-8.971-2.949-.213-.016-.491-.142-.628-.05C169.187,162.141,168.594,161.095,167.771,160.1Z" transform="translate(20.514 14.278)" fill="#0b0809"/>
      <path id="Path_546" data-name="Path 546" d="M137.786,132.884c1.285-.828,2.241-2.33,4.105-1.976a.937.937,0,0,0,.631-.189c1.542-1.1,3.289-.2,4.917-.478.2-.034.669.6.715.967a1.094,1.094,0,0,1-.679.845c-3.225.32-6.458.567-9.689.832Z" transform="translate(9.643 3.764)" fill="#0c0b0b"/>
      <path id="Path_547" data-name="Path 547" d="M137.884,132.159l-.292.213-.072-.108.362-.106Z" transform="translate(9.547 4.49)" fill="#0c0b0b"/>
      <path id="Path_548" data-name="Path 548" d="M182.525,187.726l.18.1-.161-.119Z" transform="translate(25.863 24.627)" fill="#fcfdfd"/>
      <path id="Path_549" data-name="Path 549" d="M151.812,242.5a11.113,11.113,0,0,1,2.353,2.211,7.052,7.052,0,0,1,.743,3.137,35.427,35.427,0,0,1-.226,4.2c-.005.094-.159.176-.245.264l-2.443,0c-.09-2.03-.146-4.063-.282-6.089-.1-1.508-.643-1.853-2.081-1.45a3.564,3.564,0,0,0-.052.516c.08,2.139.2,4.278.243,6.419a3.127,3.127,0,0,1-2.112,3.058,1.012,1.012,0,0,0-.669.707,1.13,1.13,0,0,0,.548.879,2.994,2.994,0,0,0,1.4.158,5.539,5.539,0,0,0,1.194-.372c-.12.647-.232,1.3-.368,1.94-.042.206-.142.563-.234.57-1.459.1-1.63,1.5-2.375,2.311q-.413-2.236-.826-4.47c-.271-1.459-.518-2.924-.837-4.372a6.231,6.231,0,0,0-.606-1.286c-.469.409-1.3.785-1.338,1.23a9.371,9.371,0,0,0,.292,3.5c1.082,3.509,2.094,6.968.023,10.464q-1.165.938-2.327,1.878c-.694-1.884-1.4-3.762-2.078-5.653-.687-1.923-1.342-3.857-2.053-5.908a3.438,3.438,0,0,0-.928,4.3c1.281,3.028,3.036,5.9,3.143,9.327-.7.518-1.391,1.049-2.1,1.548-.349.244-.74.612-1.11.61-1.707-.01-3.415-.128-5.122-.208a1.684,1.684,0,0,0-1.921-1.3c-.9.019-1.863-.978-2.714-1.632a35.391,35.391,0,0,1-7.355-8.43,49.316,49.316,0,0,1-5.544-10.724,21.934,21.934,0,0,1-1.09-9c.124-2.47.025-4.951.025-7.324l2.117,1.432a3.6,3.6,0,0,0,1.234-3.256,48.508,48.508,0,0,1,.008-5.055c-.035-1.695-.174-3.389-.273-5.084-.119-2.04-.29-4.078-.35-6.121-.117-3.969-.164-7.941-.263-11.911-.016-.659-.149-1.316-.228-1.973.079-.165.157-.331.236-.5l0-.834-.007-.538,1.071-3.476.019-.016a1.893,1.893,0,0,0,2.1-1.638c.322-1.518.624-3.045.822-4.582.447-3.481.737-6.983,1.258-10.452.467-3.122,1.023-6.243,1.793-9.3a58.579,58.579,0,0,1,2.421-6.991c.706-1.8,1.651-3.507,2.391-5.3a6.732,6.732,0,0,1,6.787-4.438c.523,0,1.048-.091,2.066-.188-.476.612-.683,1.145-1.055,1.312a14.2,14.2,0,0,0-6.159,5.375,17.214,17.214,0,0,0-1.673,4.488c-.764,2.616-1.489,5.249-2.094,7.905-.486,2.139-.777,4.325-1.136,6.492-.079.48-.083.973-.121,1.459-.083,1.051-.773,2,.266,3.158.578.647.308,2.085.349,3.169a17.271,17.271,0,0,1-.075,2.981,7.347,7.347,0,0,1-.888,1.815c1.789,1.433.805,3.964,1.15,6.16.57,3.637.755,7.333,1.071,11.007.14,1.62-.106,3.34.354,4.853a45.4,45.4,0,0,0,8.19,15.969c.865,1.049,1.68,2.146,2.608,3.137a10.326,10.326,0,0,0,1.559.982c.42.305.745.738,1.165,1.042s.9.485,1.334.759q5.516,3.5,11.02,7.013C151.819,242.389,151.807,242.458,151.812,242.5Zm-24.286-7.869c-2.126-.184-2.387.114-2.492,2.266a35.645,35.645,0,0,0,.627,10.1,44.579,44.579,0,0,0,2.94,8.411,32.84,32.84,0,0,1,1.88,5.186c.713,2.7,1.228,5.453,1.816,8.186.2.942.68,1.611,1.7,1.2,1.093-.437.238-1.214.1-1.809-.386-1.714-1.151-3.4-1.2-5.119-.074-2.522-1.053-4.732-1.816-7.01-.809-2.417-2.149-4.669-2.856-7.108A27.246,27.246,0,0,1,127.527,234.634Z" transform="translate(0.533 12.153)" fill="#433232"/>
      <path id="Path_550" data-name="Path 550" d="M141.6,226.052l2.443,0c1.575.42,3.131.961,4.731,1.225,1.788.294,3.616.326,5.424.491a27.145,27.145,0,0,0,8.494-.155,28.184,28.184,0,0,0,4.16-1.7,4.818,4.818,0,0,1,1.014-.17,2.987,2.987,0,0,1-2.3,3.171c-1.627.376-3.282.628-4.926.933-1.6.053-3.2.187-4.8.138-1.621-.049-3.237-.277-4.856-.426l-7.1-1.11-.4-.074-2.15-1.544.007-.515.275-.275Z" transform="translate(10.928 38.418)" fill="#111"/>
      <path id="Path_551" data-name="Path 551" d="M135.692,240.078c2.071-3.5,1.059-6.956-.023-10.464a9.371,9.371,0,0,1-.292-3.5c.04-.446.869-.822,1.338-1.23a6.233,6.233,0,0,1,.606,1.286c.319,1.448.565,2.913.837,4.372q.415,2.234.826,4.47c.015.878,0,1.755.049,2.631a2.967,2.967,0,0,1-1.854,2.807C136.751,240.686,135.956,241.093,135.692,240.078Z" transform="translate(8.753 38.106)" fill="#0d090b"/>
      <path id="Path_552" data-name="Path 552" d="M133.421,242.553c-.108-3.424-1.863-6.3-3.143-9.327a3.438,3.438,0,0,1,.928-4.3c.711,2.051,1.367,3.985,2.053,5.908.676,1.891,1.384,3.769,2.078,5.653-.023.266-.061.531-.065.8-.018,1.489-.015,1.489-1.269,2.439Z" transform="translate(6.781 39.573)" fill="#0b0809"/>
      <path id="Path_553" data-name="Path 553" d="M142.582,228.282l-.007.515-.809,2.429h0l-.263.268a.7.7,0,0,1-.237.1l-.147-.158-.078.392-.007.011a5.537,5.537,0,0,1-1.194.372,2.993,2.993,0,0,1-1.4-.158,1.13,1.13,0,0,1-.548-.879,1.012,1.012,0,0,1,.669-.707,3.127,3.127,0,0,0,2.112-3.058c-.045-2.141-.162-4.28-.243-6.419a3.57,3.57,0,0,1,.052-.516c1.438-.4,1.978-.059,2.081,1.45.136,2.026.192,4.059.282,6.089l.012-.011Z" transform="translate(9.681 36.453)" fill="#0a0808"/>
      <path id="Path_554" data-name="Path 554" d="M143.2,227.729l7.1,1.11c-.061.063-.131.184-.184.177C147.794,228.691,145.392,228.779,143.2,227.729Z" transform="translate(11.607 39.138)" fill="#ede2e5"/>
      <path id="Path_555" data-name="Path 555" d="M140.735,228.971l.809-2.429,2.15,1.544Z" transform="translate(10.712 38.708)" fill="#433232"/>
      <path id="Path_556" data-name="Path 556" d="M130.7,251.8l.245-2.269,1,.586-1.259,1.675Z" transform="translate(7.07 47.042)" fill="#d7809b"/>
      <path id="Path_557" data-name="Path 557" d="M130.123,253.614c-.031-.906-.422-1.932.809-2.416l-.01-.008-.8,2.423Z" transform="translate(6.835 47.643)" fill="#d7809b"/>
      <path id="Path_558" data-name="Path 558" d="M140.2,228.874l.078-.392.147.158Z" transform="translate(10.519 39.411)" fill="#433232"/>
      <path id="Path_559" data-name="Path 559" d="M140.541,228.594l.263-.268Z" transform="translate(10.642 39.354)" fill="#433232"/>
      <path id="Path_560" data-name="Path 560" d="M154.311,157.326l.259,1.279a5.866,5.866,0,0,1-1.6-.106c-2.87-1.014-5.7-2.128-8.577-3.13-1.311-.458-2.754-.58-4.01-1.14a18.25,18.25,0,0,1-2.974-2.081c.71.161,1.423.311,2.13.484,3.356.82,6.691,1.737,10.072,2.444,3.289.688,6.623,1.159,9.936,1.74a13.326,13.326,0,0,0,2.774.514c1.006-.048,1.2-.745.387-1.356a6.553,6.553,0,0,0-2.581-1.263c-4.082-.771-8.194-1.372-12.281-2.121-1.373-.252-2.683-.843-4.052-1.14-1.76-.384-3.549-.628-5.356-1.1a12.769,12.769,0,0,1,2.413-.2c3.5.361,7,.723,10.481,1.243,3.236.484,6.457,1.1,9.655,1.784,2.635.567,5.164,1.437,7.08,3.528.213.23.916.379,1.051.237a3.6,3.6,0,0,0,.516-1.245l.631,1.38c-2.592.211-2.874,2.455-3.838,4.039-.508.834-1.376,1.169-1.95.362-1.567-2.2-3.953-2.612-6.332-3.134-.843-.185-1.63-.614-2.465-.858a7.221,7.221,0,0,0-1.383-.132l-.572-.259-.056.177Z" transform="translate(9.505 11.004)" fill="#433232"/>
      <path id="Path_561" data-name="Path 561" d="M123.826,194.093c2.278-.707,4.013.522,5.435,1.914.952.933,1.361,2.428,1.987,3.684a36.877,36.877,0,0,1,2.375,4.994c.714,2.226,2.006,4.331,1.751,6.826-.052.511.282,1.075.181,1.563a7.145,7.145,0,0,1-.789,1.638c-2.09-1.57-4.2-3.138-5.46-5.507-.662-1.243-1.2-2.552-1.76-3.848-.871-2.032-1.816-4.04-2.523-6.129A51.01,51.01,0,0,1,123.826,194.093Z" transform="translate(4.582 26.869)" fill="#f1b2c1"/>
      <path id="Path_562" data-name="Path 562" d="M128.633,157.578c-.361,1.046-.759,2.082-1.072,3.143-.219.741-.228,1.555-.5,2.27-.818,2.147-1.735,4.257-2.581,6.393-.35.884-.6,1.807-.939,2.7a4.678,4.678,0,0,1-.527.827c.614-2.528,1.335-5.035,1.811-7.587A17.272,17.272,0,0,1,127.6,158.5,5.944,5.944,0,0,1,128.633,157.578Z" transform="translate(4.288 13.705)" fill="#473636"/>
      <path id="Path_563" data-name="Path 563" d="M124.16,183.86c.089,2.589.228,5.176.245,7.765.01,1.619-.163,3.237-.255,4.856-.259-1.458-.587-2.908-.758-4.375-.277-2.383-.463-4.776-.653-7.167a6.722,6.722,0,0,1,.174-1.341Z" transform="translate(4.187 23.139)" fill="#453535"/>
      <path id="Path_564" data-name="Path 564" d="M135.448,150.208l-2.786,2.462-2.927-.349C131.114,149.591,133.237,149.869,135.448,150.208Z" transform="translate(6.724 10.957)" fill="#433232"/>
      <path id="Path_565" data-name="Path 565" d="M115.037,187.422l.007.538,0,.834c-.079.165-.157.331-.236.5-.259.962-.5,1.931-.785,2.884a12.719,12.719,0,0,1-.545,1.292l-.358-.071v-6.309Z" transform="translate(0.702 24.404)" fill="#3e2e2e"/>
      <path id="Path_566" data-name="Path 566" d="M123.876,177.872c.1,1.138.18,2.278.334,3.409.034.248.347.458.533.685l-2.048,1.322v-5.062Z" transform="translate(4.172 21.063)" fill="#453535"/>
      <path id="Path_567" data-name="Path 567" d="M137.09,151.638l-.226.337-.159-.4Z" transform="translate(9.251 11.53)" fill="#433232"/>
      <path id="Path_568" data-name="Path 568" d="M115.375,184.947l-.23-.568.191-.052c.019.2.04.4.059.6Z" transform="translate(1.435 23.403)" fill="#433232"/>
      <path id="Path_569" data-name="Path 569" d="M126.047,138.6c.03,0,.078-.005.089.01a.3.3,0,0,1,.023.108l-.15-.011Z" transform="translate(5.374 6.826)" fill="#433132"/>
      <path id="Path_570" data-name="Path 570" d="M194.882,149.632l-.255.157-.007-.384Z" transform="translate(30.248 10.742)" fill="#fff"/>
      <path id="Path_571" data-name="Path 571" d="M170.437,210.99c-.281.585-.587,1.16-.834,1.758a1.737,1.737,0,0,1-2.3,1.2c-2.592-.642-4.362-2.378-6.069-4.266a6.116,6.116,0,0,1-1.316-6.653c.689-1.95,1.067-4.01,1.741-5.967.7-2.023,1.662-3.954,2.359-5.977a2.251,2.251,0,0,1,2.1-1.489,37.361,37.361,0,0,1,5.227-.071,16.7,16.7,0,0,1,3.46.394,18.3,18.3,0,0,1,3.923,1.409c.444.226.557,1.106.82,1.688a2.642,2.642,0,0,0-.681.493c-1.232,1.756-2.519,3.483-3.626,5.317a47.359,47.359,0,0,0-3.472,6.473A35.308,35.308,0,0,0,170.437,210.99Z" transform="translate(17.503 25.268)" fill="#f2b3c2"/>
      <path id="Path_572" data-name="Path 572" d="M150.779,176.452c-.525-1.019-.286-1.657,1.123-1.767,2.4-.188,4.882-.527,7.144.694a15.357,15.357,0,0,1,1.95,1.566c1.9,1.478,3.932,1.307,6.018.489.136-.053.286-.072.674-.168-.4,1.593-1.641,1.91-2.406,2.372l.208,2.231a2.193,2.193,0,0,1-2.626-.594,11.732,11.732,0,0,0-2.56-1.623c-.7-.39-1.458-.691-2.372-1.115,0,.834.016,1.624-.005,2.413a9.427,9.427,0,0,1-.149,1.967c-.327,1.335-1.454,1.589-2.616,1.766-1.967.3-2.913-.131-3.707-1.744a2.162,2.162,0,0,1-.226-.737,1.514,1.514,0,0,0-2.47-1.3c-.884.518-1.691,1.17-2.559,1.719-.192.121-.5.059-.755.082l-.258-.373Z" transform="translate(12.326 19.838)" fill="#0a0a0a"/>
      <path id="Path_573" data-name="Path 573" d="M154.718,169.874a54.284,54.284,0,0,1,7.694,1.387c1.7.534,3.124,1.961,4.614,3.068.26.193.226.783.327,1.191-.375-.11-.748-.225-1.124-.331-2.265-.631-4.5-1.435-6.8-1.848a20.467,20.467,0,0,0-8.884.585,8.871,8.871,0,0,1-2.263.162c-1.18-.007-1.582-.619-1.194-1.751a3.027,3.027,0,0,1,2.763-2.006C151.313,170.144,152.788,170.05,154.718,169.874Z" transform="translate(12.964 18.163)" fill="#101110"/>
      <path id="Path_574" data-name="Path 574" d="M135.515,200l.868-.946a3.945,3.945,0,0,0,5.931.65c1.914-1.736,3.755-1.113,5.344-.369,2.166,1.015,3.886.564,5.792-.36a26.352,26.352,0,0,1,3.439-1.209c.166-.053.4.091.9.226-2.082,1.393-3.83,2.743-6.056,3.4a8.179,8.179,0,0,1-5.124-.251,5.129,5.129,0,0,0-5.36,1.249c-.713.65-3.007.337-4.011-.58C136.668,201.287,136.166,200.689,135.515,200Z" transform="translate(8.82 28.272)" fill="#0d0d0d"/>
      <path id="Path_575" data-name="Path 575" d="M142.129,198.079c-1.315-.809-2.642-1.611-3.951-2.438s-.98-2.115-.788-3.263c.266-1.587.992-3.142,1.011-4.717a15.165,15.165,0,0,0-.954-4.727c-.47-1.451-.6-1.41.933-1.675.174-.03.356-.02.668-.037,1.008,3.171,2.051,6.318.789,9.7a8.955,8.955,0,0,0-.514,2.206c-.149,1.478,1.313,1.552,2.094,2.177C142.853,196.456,142.9,196.4,142.129,198.079Z" transform="translate(9.405 22.278)" fill="#111"/>
      <path id="Path_576" data-name="Path 576" d="M167.518,210.669a35.306,35.306,0,0,1,1.33-5.689,47.361,47.361,0,0,1,3.472-6.473c1.106-1.834,2.394-3.56,3.626-5.317a2.643,2.643,0,0,1,.681-.493l2.763-2.344c-.579.961-1.089,1.972-1.751,2.871a45.24,45.24,0,0,0-3.543,4.6c-1.572,2.853-3.75,5.393-4.457,8.727-.437,2.059-1.225,4.044-1.854,6.062Z" transform="translate(20.422 25.588)" fill="#453434"/>
      <path id="Path_577" data-name="Path 577" d="M149.252,205.421c-3.946,1.7-5.458,2.6-8.829.755a6.065,6.065,0,0,1,1.488-.625c2.049-.2,4.107-.338,6.163-.458A4.521,4.521,0,0,1,149.252,205.421Z" transform="translate(10.599 30.931)" fill="#141515"/>
      <path id="Path_578" data-name="Path 578" d="M132.775,177.03a15.341,15.341,0,0,0-6.975,2.995c-.134.1-.417.153-.424.244-.038.516-.069,1.1-.775.695a1.474,1.474,0,0,1-.5-1.112c-.005-.253.36-.612.644-.758,1.072-.55,2.192-1.006,3.27-1.546A7.5,7.5,0,0,1,132.775,177.03Z" transform="translate(4.68 20.7)" fill="#181818"/>
      <path id="Path_579" data-name="Path 579" d="M124.257,213a27.246,27.246,0,0,0,.7,14.3c.707,2.439,2.047,4.691,2.856,7.108.763,2.278,1.743,4.488,1.816,7.01.052,1.715.818,3.4,1.2,5.119.135.6.989,1.372-.1,1.809-1.021.41-1.5-.259-1.7-1.2-.589-2.733-1.1-5.486-1.816-8.186a32.839,32.839,0,0,0-1.88-5.186,44.579,44.579,0,0,1-2.94-8.411,35.645,35.645,0,0,1-.627-10.1C121.87,213.119,122.131,212.82,124.257,213Z" transform="translate(3.802 33.783)" fill="#0b0809"/>
      <path id="Path_580" data-name="Path 580" d="M114.536,188.562l0-.834Z" transform="translate(1.213 24.636)" fill="#0c0b0b"/>
      <path id="Path_581" data-name="Path 581" d="M141.334,226.237l.275-.275Z" transform="translate(10.929 38.497)" fill="#433232"/>
      <path id="Path_582" data-name="Path 582" d="M149.985,155.473l-.647-.061.056-.177.572.259Z" transform="translate(13.831 12.856)" fill="#fefefe"/>
    </g>
  </g>
</svg>
