<svg xmlns="http://www.w3.org/2000/svg" xmlns:xlink="http://www.w3.org/1999/xlink" width="198" height="198" viewBox="0 0 198 198">
  <defs>
    <clipPath id="clip-member06">
      <rect width="198" height="198"/>
    </clipPath>
  </defs>
  <g id="member06" clip-path="url(#clip-member06)">
    <rect width="198" height="198" fill="#66e2fa"/>
    <g id="Group_6" data-name="Group 6" transform="translate(-74.594 -490.222)">
      <circle id="Ellipse_4" data-name="Ellipse 4" cx="0.967" cy="0.967" r="0.967" transform="translate(191.175 626.056)" fill="#171616"/>
      <path id="Path_708" data-name="Path 708" d="M256.282,651.049c.432,2.494-.019,4.6-2.586,5.73a4.8,4.8,0,0,1-1.355.376c-4.363.511-8.743.9-13.089,1.522a70.753,70.753,0,0,0-9.986,1.934c-6.076,1.791-12.3,2.119-18.534,2.314-4.194.132-8.4-.2-12.6-.216-3.743-.011-7.485.2-11.228.2-3.788,0-7.575-.175-11.364-.21-4.121-.036-8.243.042-12.364-.011-2.29-.029-4.577-.259-6.866-.331-4.256-.136-8.519-.126-12.769-.356-5.349-.29-10.695-.711-16.032-1.175-2.9-.251-5.774-.819-8.676-1.043-2.552-.2-5.126-.067-7.686-.191a1.934,1.934,0,0,1-1.381-.892c-.48-.94-.671-1.99.462-2.731a66.9,66.9,0,0,0,7.465-4.153c2.342-1.695,4.263-3.962,6.456-5.876,1.977-1.724,4.025-3.376,6.134-4.936,1.811-1.341,3.749-2.51,5.637-3.747a12.275,12.275,0,0,1,1.906-1.159c.714-.3,1.929-.168,2.192-.638,1.134-2.022,3.221-1.957,4.972-2.63l3.073.759a20.967,20.967,0,0,1,3.356-.235c3.192.271,6.365.857,9.56.976,2.641.1,5.375-.757,7.938-.36,5.2.8,9.911-.512,14.513-2.471,3.962-1.686,7.773-3.728,11.648-5.622,1.323-.647,2.612-1.373,3.969-1.94.313-.131,1.216.348,1.21.369-.5,1.808.857,1.526,1.791,1.55a7.266,7.266,0,0,1,5.649,2.589c.453.527,1.428.6,2.163.886.509-1.831,1.409-.237,2.058-.16a8.1,8.1,0,0,1,2.374.858,18.83,18.83,0,0,0,2.868,1.462c3.148.841,6.357,1.449,9.508,2.279q4.944,1.305,9.822,2.87c4.217,1.363,8.576,2.484,12.287,5a19.059,19.059,0,0,1,3.974,4.169C254.043,647.462,255.114,649.294,256.282,651.049Z" transform="translate(0 32.8)" fill="#65a7a0"/>
      <path id="Path_709" data-name="Path 709" d="M144.913,651.11c-1.751.674-3.839.608-4.972,2.63-.263.469-1.478.341-2.192.638a12.278,12.278,0,0,0-1.906,1.159c-1.887,1.237-3.826,2.406-5.637,3.747-2.109,1.56-4.157,3.212-6.134,4.936-2.193,1.914-4.114,4.181-6.456,5.876a66.916,66.916,0,0,1-7.465,4.153c-.7-1.129-.89-2.224.37-3.09.948-.652,1.944-1.235,2.931-1.827a24.476,24.476,0,0,0,3.569-2.137c2.683-2.327,5.121-4.943,7.862-7.193,3.04-2.493,6.28-4.747,9.486-7.028a46.365,46.365,0,0,1,4.986-3.1c.777-.414,1.842-.276,2.641-.666,1.436-.7,2.764-1.621,4.149-2.431.493-.289,1.019-.523,1.922-.981a24.721,24.721,0,0,0-1.35-5.415c-.477-1-2.038-1.514-3.149-2.185a17.137,17.137,0,0,1-4.729-3.793c-2.45-2.993-5.518-5.472-8.144-8.333a21.443,21.443,0,0,1-3.443-5.047,59,59,0,0,1-2.628-7.053c-.619-1.839-1.1-3.725-1.637-5.59l-.366-1.509a3.318,3.318,0,0,0,.094-1.238c-.508-1.5-1.194-2.946-1.651-4.461-.942-3.125-1.759-6.286-2.687-9.415a1.547,1.547,0,0,0-.916-.894c-.237-.069-.914.393-.9.6a25.01,25.01,0,0,0,.46,4.613,16.109,16.109,0,0,0,1.461,2.732c1.3,2.8,2.541,5.618,3.805,8.43l.36,1.389-.662,1.774-.833.087q-1.809-3.475-3.618-6.949a37.832,37.832,0,0,1-2.752-5.452c-.813-2.491-1.691-5.155-1.067-7.75.255-1.064,1.923-1.787,3.105-2.5.565-1.055-.818-2.568.727-3.689a3.946,3.946,0,0,0-.568-1.164c-1.187-1.806-2.4-3.592-3.585-5.4-.039-.06.179-.287.278-.438,3.939,1.075,5.021,4.122,5.558,7.718.437,2.921,1.208,5.791,1.831,8.683l.569-.007.191-2.115.425,3.038c1.58.315,2.823.23,2.731-1.822-.076-1.722-.206-3.441-.311-5.159a14.741,14.741,0,0,0,1.474-3.193c.258-1.262.06-2.617.436-3.989.626,1.46,1.252,2.921,1.939,4.522,1.143.43,1.688-.392,2.111-1.428,1.6-.528,1.889-1.9,2.123-3.3l2.414.755.286-4.184c1,1.087.531,3.372,2.8,3.065l.139,1.182c3.022.253,5.892.489,8.76.739a1.072,1.072,0,0,1,.5.221c2.224,1.638,4.749,2.934,6.1,5.562a1.37,1.37,0,0,0,1.24.386,18.223,18.223,0,0,0,2.931-1.239c.831-.426,1.365-.909.323-1.838a5.724,5.724,0,0,1-1.172-2.109c-.345-.84.567-2.057,1.3-1.727a3.772,3.772,0,0,1,1.6,1.41c.492.826.5,2.328,1.127,2.6a8.943,8.943,0,0,0,3.768.254,2.3,2.3,0,0,0,1.595-.683c1.4-1.882,2.636-3.892,4.034-5.78a22.926,22.926,0,0,1,2.56-2.447l-8.537,2.5c.15-.873.437-1.593.937-1.8,4.082-1.689,8.1-3.577,12.581-4.071a51.709,51.709,0,0,1,13.044-.147l.675.3.654,2.351c-.563.162-1.39.694-1.786.468-4.058-2.32-8.349-1.3-12.569-.942-.89.076-1.722.845-2.58,1.294l.261.515a1.92,1.92,0,0,0,.7-.011c6.01-2.588,11.021-.44,15.628,3.36a43.046,43.046,0,0,1,3.386,3.47c-.7,2-.281,2.822,1.613,3.2a7.312,7.312,0,0,1,1.012.358c-.381,1.155-.68,2.346-1.166,3.457-.408.93-1.116,1.228-1.727.131-.572-1.029-1.037-2.119-1.557-3.2-.349.087-.769.191-.658.164a7.771,7.771,0,0,0-.85-2.608,23.894,23.894,0,0,0-3.978-3.838c-2.723-1.981-5.657-3.729-9.239-3.026A11.605,11.605,0,0,0,170.167,586a3.73,3.73,0,0,1-.326.638,7.1,7.1,0,0,0,.142,7.144c.7,1.364,1.369,2.744,2.05,4.118l-.73.432a16.122,16.122,0,0,1-1.289-1.851,24.326,24.326,0,0,1-2.481-5.3c-.527-2.27-2.506-3.876-4.755-3.179-.389.12-.775.25-.926.3-.293,2.351-.73,4.633-.794,6.924a5.038,5.038,0,0,0,1.063,3.281c1.218,1.327,1.692,2.484.6,4.16a8.568,8.568,0,0,1-2.062-1.347c-1.036-1.227-2.792-2.078-2.467-4.132.151-.956.349-1.907.432-2.868.143-1.648.213-3.3.327-5.209l-2.831,1.083-.446,2.048-1.815.746c-1.279-2-2.457-4.074-3.876-5.968a7.593,7.593,0,0,0-3-2.582c-5.933-2.284-15.365-1.635-18.763,6.34a4.359,4.359,0,0,0,0,2.576c.428,1.7,1.055,3.342,1.559,4.882l-1.7,1.333-1.048-.325-.892-2.381-3.046.822c.886,3.277,1.794,6.627,2.7,9.977l.035.658.374.136a30.326,30.326,0,0,0,2.712,10.209,23.528,23.528,0,0,0,3.161,4.887c1.325,1.7,2.859,3.232,4.3,4.837a32.679,32.679,0,0,0,2.889,3c2.143,1.75,4.335,3.458,6.626,5.006a11.87,11.87,0,0,1,4.472,5.585c.729,1.909.437,4.205.606,6.443a12.58,12.58,0,0,0,7.995,1.311c4.662-.008,9.325.013,13.986-.032a22.838,22.838,0,0,0,11.011-3.295c1.128-.632,2.311-1.17,3.47-1.75l-.1-.1.094.1,1.767-.493c2.807-1.581,5.637-3.122,8.4-4.783a1.868,1.868,0,0,0,.769-1.577c-.839-2.327-1.857-4.59-2.776-6.788-3.842,2.719-6.074,7.8-10.867,9.382-4.669,1.547-9,4.781-14.036,4.451-4.84-.318-9.875.587-14.618-1.561a4.349,4.349,0,0,1,1.587-.913c1.691-.68,3.36-.4,5.119-.192,1.966.227,4.043-.449,5.994-.175,2.451.344,4.721.65,6.738-1.158a2.362,2.362,0,0,1,.827-.368,42.123,42.123,0,0,0,4.463-1.513,16.376,16.376,0,0,0,3.37-2.231c3.171-2.585,6.328-5.192,9.394-7.9a19.017,19.017,0,0,0,2.306-3.011c.182-.008.465.057.532-.034,2.062-2.814,4.216-5.57,6.11-8.493,1.326-2.048,2.244-4.353,3.431-6.5a20.656,20.656,0,0,0,2.716-8.62c.281-1.57,1.579-3.046.436-4.748.974-3.36,1.989-6.709,2.9-10.085.38-1.4.369-2.934.872-4.281a10.592,10.592,0,0,1,1.972-2.744,26.3,26.3,0,0,0,4.9-10.715l0,.028a10.671,10.671,0,0,1-.517,5.722c-.921,2.33-1.974,4.911-1.268,7.6.314,1.194.9,2.314,1.3,3.487.132.389.262,1.008.064,1.243-2.129,2.517-.611,5.59-1.326,8.329a16.132,16.132,0,0,1-4.1,7.445,12.133,12.133,0,0,0-.8,1.04L212,603.3a9.828,9.828,0,0,1,.8-2.21,13.106,13.106,0,0,0,2.613-7.955c-.144-3.34-.15-6.687-.217-10.032l-.544-.119a3.1,3.1,0,0,0-.5.878c-.243,1.335-.453,2.68-.62,4.027q-.958,7.7-1.883,15.408c-.471,1.335-.874,2.7-1.426,4a83.216,83.216,0,0,1-3.973,8.869c-1.893,3.316-4.4,6.281-6.324,9.58a8,8,0,0,0-.839,7.058c.98,2.473,2.369,4.789,3.281,7.283.559,1.525,1.6,1.552,2.835,1.921,2.911.869,5.748,2,8.584,3.106a92.414,92.414,0,0,0,16.341,5A36.674,36.674,0,0,1,235.984,652c3.751,1.39,7.41,3.061,11.225,4.231,3.054.937,5,3.143,6.921,5.3a44.613,44.613,0,0,1,4.422,6.714c.092.151-.521.924-.942,1.136-.366.185-.926-.016-1.4-.048-1.17-1.755-2.24-3.588-3.537-5.242a19.057,19.057,0,0,0-3.974-4.169c-3.711-2.513-8.069-3.633-12.287-5q-4.868-1.572-9.822-2.87c-3.151-.83-6.36-1.438-9.508-2.279a18.834,18.834,0,0,1-2.868-1.462,8.106,8.106,0,0,0-2.374-.858c-.65-.076-1.549-1.671-2.058.16-.735-.283-1.71-.36-2.163-.886a7.266,7.266,0,0,0-5.649-2.589c-.934-.024-2.294.258-1.791-1.55.007-.021-.9-.5-1.21-.369-1.357.567-2.645,1.292-3.969,1.939-3.875,1.894-7.686,3.936-11.648,5.622-4.6,1.96-9.317,3.275-14.514,2.471-2.564-.4-5.3.46-7.938.359-3.195-.119-6.368-.7-9.56-.976a20.967,20.967,0,0,0-3.356.235c-.289-.972-.579-1.944-.91-3.057Zm74.7-77.593-.238.131c.041.041.091.122.122.115a1.119,1.119,0,0,0,.247-.115Z" transform="translate(0.073 14.52)" fill="#222"/>
      <path id="Path_710" data-name="Path 710" d="M185.947,599.929q.938-7.7,1.883-15.408c.167-1.347.377-2.692.62-4.027a3.1,3.1,0,0,1,.5-.878l.544.119c.067,3.344.072,6.691.217,10.032a13.105,13.105,0,0,1-2.613,7.955,9.828,9.828,0,0,0-.8,2.21l-.174.008Z" transform="translate(25.776 17.886)" fill="#f0efef"/>
      <path id="Path_711" data-name="Path 711" d="M219.976,573.5a52.772,52.772,0,0,0-1.719-7.885c-.881-3.265-1.48-6.719-3.014-9.668a143.175,143.175,0,0,0-8.342-13.286,7.19,7.19,0,0,0-2.878-2.2,34.047,34.047,0,0,0-7.413-3,12.207,12.207,0,0,1-5.474-2.52,9.353,9.353,0,0,0-1.277-.746l-.422-.344c-.644-.592-1.326-1.15-1.927-1.783-2.669-2.82-6.392-3.719-9.76-5.189-1.4-.612-3.209-.291-4.832-.394h0l-8.478.409h0l-9.2.377a41.8,41.8,0,0,0-4.35-.027c-4.653.437-9.2,1.309-13.2,3.946l-.115.07-.017.007h0a8.379,8.379,0,0,0-2.433.964c-1.631,1.357-3.092,2.915-4.657,4.352-2.167,1.988-4.291,4.031-6.571,5.883-4.573,3.713-6.686,8.841-8.468,14.19l.012-.012-.222.37c-2.49,6.77-4.967,13.535-4.218,20.968.392,3.876.611,7.771,1.039,11.645.079.712.786,1.357,1.2,2.032,3.939,1.075,5.021,4.122,5.558,7.718.437,2.921,1.208,5.79,1.831,8.683l.569-.007.191-2.115V601.1l.839.9h2a14.739,14.739,0,0,0,1.474-3.193c.258-1.262.06-2.617.436-3.989.626,1.46,1.252,2.921,1.939,4.522,1.143.43,1.688-.392,2.111-1.428.132-1.2.265-2.39.414-3.751.623.164,1.166.306,1.708.448l2.414.755c.106-1.54.191-2.788.286-4.184,1,1.087.531,3.372,2.8,3.065.607-.7,1.218-1.314,2.066-.045l.739-2.621c1.259,1.407,2.224.838,2.828-.175l1.96,2.4a17.262,17.262,0,0,0,1.712-2.607,22.573,22.573,0,0,0,.906-3.278l1.9,4.124.7-.116.732-3.487a27.518,27.518,0,0,1,4.367.071,2.641,2.641,0,0,1,1.657,1.523c.35.966.491,1.788,1.808,1.768.373-.005.757.639,1.291,1.127a10.583,10.583,0,0,0,1.458-2.075c.556-1.413,1.791-1.371,2.8-1.269a4.533,4.533,0,0,0,4.877-4.458,81.968,81.968,0,0,1,.215-8.424,36.755,36.755,0,0,0,1.607,4.192,15.308,15.308,0,0,0,2.648,3.9c1.875,1.842,3.449,1.589,5.086-.512.794.372,1.611,1.051,2.411,1.033.622-.013,1.222-.9,1.917-1.466a12.352,12.352,0,0,0,1.21,1.4,9.487,9.487,0,0,0,1.489.924,12.039,12.039,0,0,0,.743-1.544,16.155,16.155,0,0,0,.385-1.924c1.175,1.613,2.242,3.081,3.31,4.547l.675.3c1.108.032,1.108.032,1.577-1.893,1.436.65,2.235,2.934,4.439,1.715,1.187,1,2.139,2.566,4.153,2,.18-.051.525.443.778.7.519.52.99,1.092,1.547,1.568,2.526,2.164,2.534,2.155,2.149,5.935-3.026,0-6.071-.025-9.113.023a8.037,8.037,0,0,0-1.839.465c-.7,2-.281,2.822,1.615,3.2a7.349,7.349,0,0,1,1.011.358l8.551-.671c.333,4.471.643,8.654.953,12.836l.563.12.954-1.946c.974-3.36,1.989-6.709,2.9-10.085.38-1.4.369-2.934.872-4.281a10.592,10.592,0,0,1,1.972-2.744,26.3,26.3,0,0,0,4.9-10.715,36.122,36.122,0,0,0,.007-4.08,35.816,35.816,0,0,1-.007,4.08l0,.028c.34-.352.973-.7.972-1.055A92.407,92.407,0,0,0,219.976,573.5Z" transform="translate(0.499)" fill="#222"/>
      <path id="Path_712" data-name="Path 712" d="M114.351,549.044l-.229.381Z" transform="translate(1.595 7.593)" fill="#090808"/>
      <path id="Path_713" data-name="Path 713" d="M130.962,530.01l-.115.07Z" transform="translate(7.226 1.185)" fill="#090808"/>
      <path id="Path_714" data-name="Path 714" d="M155.562,647.619a12.579,12.579,0,0,1-7.995-1.311c-.168-2.238.123-4.534-.606-6.443a11.87,11.87,0,0,0-4.472-5.585c-2.291-1.548-4.483-3.256-6.626-5.006a32.671,32.671,0,0,1-2.889-3,3.763,3.763,0,0,0,.515-.7c1.462-3.469.289-6.981-.5-10.223a16.676,16.676,0,0,0-4.931-8.787c-1.767-1.564-3.832-1.907-5.262-.219l-.374-.135c-.011-.221-.023-.44-.035-.659-.906-3.35-1.814-6.7-2.7-9.977l3.046-.822c.253.676,13.478,1.66,13.512,1.18a4.561,4.561,0,0,0-1.3.727,19.409,19.409,0,0,0-2.349,3.04c-.88,1.526-1.8,2.307-3.316.962,1.167-1.976.179-2.82-.624-1.533-.731,1.171-1.369.962-2.183.239l-1.8-1.91,1.7-1.333c-.5-1.54-1.131-3.185-1.559-4.882a4.359,4.359,0,0,1,0-2.576c3.4-7.974,12.829-8.624,18.763-6.34a7.591,7.591,0,0,1,3,2.583c1.42,1.894,2.6,3.969,3.876,5.968a11.905,11.905,0,0,0-.067,1.493c.18,2.413-1.227,4.129-2.53,5.9l-2.215,3.295c.479-.106.908-.08,1.159-.278.757-.6,1.444-1.284,2.159-1.935l3.414-5.772h-1.044c1.192-.686,1.41-1.693.94-3.446l.446-2.048,2.831-1.083c-.115,1.907-.184,3.561-.327,5.209-.083.961-.281,1.913-.432,2.868-.325,2.053,1.432,2.9,2.467,4.132a8.565,8.565,0,0,0,2.062,1.347c1.1-1.676.622-2.832-.6-4.16a5.038,5.038,0,0,1-1.063-3.281c.064-2.291.5-4.573.794-6.924.151-.049.537-.179.926-.3,2.248-.7,4.228.909,4.755,3.179a24.324,24.324,0,0,0,2.481,5.3,16.116,16.116,0,0,0,1.289,1.851l.73-.432c-.682-1.374-1.35-2.755-2.05-4.118a7.1,7.1,0,0,1-.142-7.144,3.732,3.732,0,0,0,.326-.638,11.605,11.605,0,0,1,8.716-7.815c3.582-.7,6.516,1.045,9.239,3.026a23.892,23.892,0,0,1,3.978,3.838,7.772,7.772,0,0,1,.85,2.608c-.111.027.309-.078.658-.165.52,1.079.985,2.168,1.557,3.2.611,1.1,1.319.8,1.727-.131.485-1.111.785-2.3,1.166-3.457l8.551-.671c.333,4.471.643,8.654.953,12.836l.563.12.954-1.946c1.143,1.7-.155,3.177-.436,4.748-1,.226-2.294.135-2.939.739-2.159,2.02-4.482,4.043-6,6.52a58.326,58.326,0,0,0-4.629,10.209c-.755,2.03-.961,4.308.781,6.175a19.009,19.009,0,0,1-2.306,3.011c-3.066,2.708-6.223,5.315-9.394,7.9a16.379,16.379,0,0,1-3.37,2.231,42.122,42.122,0,0,1-4.463,1.513,2.361,2.361,0,0,0-.827.368c-2.017,1.807-4.287,1.5-6.738,1.158-1.95-.274-4.027.4-5.994.175-1.759-.2-3.428-.488-5.119.192a4.349,4.349,0,0,0-1.587.913c4.742,2.148,9.778,1.243,14.618,1.561,5.041.33,9.367-2.9,14.036-4.451,4.793-1.587,7.025-6.663,10.867-9.382.92,2.2,1.937,4.46,2.776,6.788a1.868,1.868,0,0,1-.769,1.577c-2.76,1.66-5.59,3.2-8.4,4.783l-1.767.493-.094-.1.1.1c-2.2.389-4.41.766-6.61,1.17-3.328.609-6.649,1.256-9.98,1.851C163.484,646.269,159.521,646.936,155.562,647.619Zm-5.135-33.244-.051.632a17.6,17.6,0,0,0,6.7,2.049c6.1.3,11.554-1.891,17-4.152.9-.373,2.135-1,2.334-1.751.381-1.422-1.508-.692-2.036-1.489-.357.357-.648.865-1.076,1.041a58.807,58.807,0,0,1-8.416,3.24c-3.975.954-8.072,1.472-12.185.455A9.735,9.735,0,0,0,150.426,614.375Zm-11.743-28.4c-2.3,1.012-4.324,1.791-6.214,2.82-.453.246-.456,1.321-.664,2.014a8.812,8.812,0,0,0,2.132.12c1.406-.262,2.775-.956,4.17-.986a29.161,29.161,0,0,1,4.669.719,5.274,5.274,0,0,0,1.337-.152c-.119-.436-.095-1.073-.378-1.271C142.139,588.121,140.468,587.111,138.684,585.975Zm44.806,1.041c-1.143-2.342-3.485-3.181-6.421-2.478-3.009.72-5.248,2.62-5.225,4.732a32.262,32.262,0,0,1,5.59-2.172A32.78,32.78,0,0,1,183.49,587.016Zm-15.047,35.333-.25-.515q-4.89.407-9.779.817a.241.241,0,0,0-.164.073c-.2.271-.392.549-.585.825.282.164.579.488.846.467,2.864-.241,5.729-.5,8.584-.849C167.569,623.11,167.994,622.633,168.443,622.349Zm17.775-23.386c1.326-2.109,4.575-2.328,3.935-5.486-.755.87-1.355,2.111-2.314,2.529C186.558,596.566,185.995,597.18,186.218,598.963Z" transform="translate(3.47 16.638)" fill="#fff"/>
      <path id="Path_715" data-name="Path 715" d="M183.852,574.612a51.707,51.707,0,0,0-13.044.147c-4.476.495-8.5,2.382-12.581,4.071-.5.207-.787.928-.937,1.8l8.537-2.5a22.923,22.923,0,0,0-2.56,2.448c-1.4,1.887-2.629,3.9-4.034,5.78a2.3,2.3,0,0,1-1.595.683,8.942,8.942,0,0,1-3.768-.254c-.626-.271-.635-1.774-1.127-2.6a3.772,3.772,0,0,0-1.6-1.41c-.729-.33-1.64.888-1.3,1.727a5.724,5.724,0,0,0,1.172,2.109c1.041.929.508,1.412-.323,1.838a18.224,18.224,0,0,1-2.931,1.239,1.37,1.37,0,0,1-1.24-.386c-1.346-2.628-3.871-3.924-6.1-5.562a1.071,1.071,0,0,0-.5-.221c-2.868-.25-5.738-.487-8.761-.739l-.139-1.182c.607-.7,1.218-1.314,2.066-.046l.739-2.621c1.259,1.407,2.224.838,2.828-.175l1.96,2.4a17.26,17.26,0,0,0,1.712-2.607,22.4,22.4,0,0,0,.9-3.278l1.9,4.124.7-.116.732-3.487a27.51,27.51,0,0,1,4.367.071,2.641,2.641,0,0,1,1.657,1.523c.35.966.491,1.788,1.809,1.768.373-.005.757.639,1.291,1.127a10.581,10.581,0,0,0,1.458-2.074c.556-1.413,1.791-1.371,2.8-1.268a4.533,4.533,0,0,0,4.878-4.458,81.959,81.959,0,0,1,.215-8.424,36.764,36.764,0,0,0,1.607,4.192,15.309,15.309,0,0,0,2.648,3.9c1.875,1.842,3.449,1.589,5.086-.512.794.372,1.611,1.051,2.411,1.033.622-.013,1.222-.9,1.917-1.466a12.369,12.369,0,0,0,1.21,1.4,9.5,9.5,0,0,0,1.489.924,12.031,12.031,0,0,0,.743-1.544,16.148,16.148,0,0,0,.385-1.923C181.717,571.678,182.784,573.146,183.852,574.612Z" transform="translate(7.288 12.648)" fill="#fff"/>
      <path id="Path_716" data-name="Path 716" d="M178.844,583.162a43.043,43.043,0,0,0-3.386-3.47c-4.607-3.8-9.619-5.948-15.628-3.36a1.919,1.919,0,0,1-.7.011l-.261-.515c.858-.449,1.69-1.218,2.58-1.294,4.22-.362,8.511-1.378,12.569.942.4.226,1.223-.306,1.786-.468l-.654-2.351c1.108.032,1.108.032,1.577-1.893,1.436.65,2.235,2.934,4.439,1.715,1.187,1,2.139,2.566,4.153,2,.18-.051.525.442.778.7.519.52.99,1.092,1.547,1.568,2.526,2.164,2.534,2.155,2.149,5.935-3.026,0-6.071-.025-9.113.023A8.044,8.044,0,0,0,178.844,583.162Z" transform="translate(16.661 14.905)" fill="#fff"/>
      <path id="Path_717" data-name="Path 717" d="M121.584,583.208c.106,1.719.235,3.438.311,5.16.092,2.052-1.151,2.137-2.731,1.822l-.425-3.038v-4.845l.839.9Z" transform="translate(3.15 18.791)" fill="#f4f4f4"/>
      <path id="Path_718" data-name="Path 718" d="M127.45,577.565c-.234,1.4-.524,2.775-2.123,3.3l.414-3.751Z" transform="translate(5.368 17.044)" fill="#e6e4e4"/>
      <path id="Path_719" data-name="Path 719" d="M136.019,631.164l2.163-2.3c.332,1.113.622,2.085.91,3.057Z" transform="translate(8.967 34.466)" fill="#f0f2f2"/>
      <path id="Path_720" data-name="Path 720" d="M174.466,617.632c-1.742-1.867-1.536-4.145-.781-6.175a58.331,58.331,0,0,1,4.629-10.209c1.52-2.477,3.843-4.5,6-6.52.646-.6,1.941-.513,2.939-.739a20.656,20.656,0,0,1-2.716,8.62c-1.187,2.144-2.105,4.45-3.431,6.5-1.894,2.923-4.047,5.68-6.11,8.493C174.932,617.69,174.648,617.624,174.466,617.632Z" transform="translate(21.46 22.724)" fill="#f7dbe1"/>
      <path id="Path_721" data-name="Path 721" d="M122.017,598.956c1.43-1.688,3.5-1.345,5.262.219a16.677,16.677,0,0,1,4.931,8.787c.785,3.241,1.958,6.754.5,10.223a3.767,3.767,0,0,1-.515.7c-1.442-1.605-2.977-3.138-4.3-4.837a23.524,23.524,0,0,1-3.161-4.887A30.326,30.326,0,0,1,122.017,598.956Z" transform="translate(4.253 24.02)" fill="#f7dae1"/>
      <path id="Path_722" data-name="Path 722" d="M146.527,630.837c3.959-.683,7.922-1.35,11.878-2.056,3.331-.595,6.651-1.242,9.98-1.851,2.2-.4,4.406-.781,6.61-1.17-1.159.58-2.342,1.117-3.47,1.75a22.838,22.838,0,0,1-11.011,3.295C155.852,630.85,151.189,630.829,146.527,630.837Z" transform="translate(12.505 33.421)" fill="#8fb7bd"/>
      <path id="Path_723" data-name="Path 723" d="M120.53,601.887c-1.264-2.812-2.509-5.634-3.805-8.43a16.115,16.115,0,0,1-1.461-2.732,25.009,25.009,0,0,1-.46-4.613c-.009-.2.668-.666.9-.6a1.547,1.547,0,0,1,.916.894c.928,3.129,1.744,6.29,2.687,9.415.457,1.514,1.143,2.959,1.651,4.461a3.318,3.318,0,0,1-.094,1.238Z" transform="translate(1.825 19.87)" fill="#fff"/>
      <path id="Path_724" data-name="Path 724" d="M145.177,586.545c.471,1.752.253,2.76-.94,3.446h1.044l-3.414,5.772-1.1-1.081c1.3-1.768,2.711-3.485,2.53-5.9a11.906,11.906,0,0,1,.067-1.493Z" transform="translate(10.565 20.218)" fill="#202020"/>
      <path id="Path_725" data-name="Path 725" d="M127.287,595.721c-3.287-1.949-3.34-4.273-3.735-5.344a3.38,3.38,0,0,1,.575-.341c.278.237.283-.012.563.224.3.822.242,3.129,3.334,4.771C128.157,595.993,127.641,595.6,127.287,595.721Z" transform="translate(4.77 21.394)" fill="#101111"/>
      <path id="Path_726" data-name="Path 726" d="M119.426,597.49l.366,1.509-.345.243-.36-1.389Z" transform="translate(3.267 23.903)" fill="#fff"/>
      <path id="Path_727" data-name="Path 727" d="M167.82,625.888l1.767-.493Z" transform="translate(19.674 33.298)" fill="#8fb7bd"/>
      <path id="Path_728" data-name="Path 728" d="M121.711,598.08c.012.219.024.438.035.659C121.734,598.518,121.723,598.3,121.711,598.08Z" transform="translate(4.15 24.102)" fill="#f7dae1"/>
      <path id="Path_729" data-name="Path 729" d="M191.964,572.535l.131.131a1.117,1.117,0,0,1-.247.115c-.031.007-.08-.073-.122-.115Z" transform="translate(27.722 15.502)" fill="#fff"/>
      <path id="Path_730" data-name="Path 730" d="M127.837,536.951l-.134.481.135-.48Z" transform="translate(6.168 3.522)" fill="#1c1b1b"/>
      <path id="Path_731" data-name="Path 731" d="M142.7,605.873a9.735,9.735,0,0,1,2.27.025c4.113,1.017,8.21.5,12.185-.454a58.815,58.815,0,0,0,8.416-3.24c.428-.177.719-.684,1.076-1.041.528.8,2.417.067,2.036,1.489-.2.747-1.436,1.378-2.334,1.751-5.444,2.26-10.9,4.457-17,4.152a17.6,17.6,0,0,1-6.7-2.049Z" transform="translate(11.199 25.14)" fill="#0c0d0c"/>
      <path id="Path_732" data-name="Path 732" d="M135.632,583.44c1.784,1.136,3.455,2.147,5.051,3.264.283.2.259.835.378,1.271a5.271,5.271,0,0,1-1.337.152,29.155,29.155,0,0,0-4.669-.719c-1.4.031-2.764.724-4.17.986a8.812,8.812,0,0,1-2.132-.12c.209-.694.211-1.768.664-2.014C131.308,585.231,133.335,584.452,135.632,583.44Z" transform="translate(6.521 19.173)" fill="#131414"/>
      <path id="Path_733" data-name="Path 733" d="M125.831,595.18l.839-.739c.815.723,1.453.93,2.183-.241a32.334,32.334,0,0,1,2.826-3.6,2.386,2.386,0,0,1,1.6-.822c-.663,2.43-2.631,3.979-3.8,5.956,1.513,1.345,2.438.564,3.316-.962a19.351,19.351,0,0,1,2.35-3.04,4.551,4.551,0,0,1,1.3-.727c-.033.478.1,1.072-.13,1.417-1.191,1.77-2.435,3.509-3.771,5.171-.209.259-1.049.241-1.473.059C129.294,596.89,127.571,596.014,125.831,595.18Z" transform="translate(5.537 21.307)" fill="#252525"/>
      <path id="Path_734" data-name="Path 734" d="M170.354,584.9a32.774,32.774,0,0,0-6.056.082,32.262,32.262,0,0,0-5.59,2.172c-.023-2.112,2.216-4.011,5.225-4.732C166.87,581.723,169.212,582.562,170.354,584.9Z" transform="translate(16.606 18.75)" fill="#161716"/>
      <path id="Path_735" data-name="Path 735" d="M158.879,610.783c-.449.283-.874.76-1.349.818-2.855.345-5.72.608-8.584.849-.267.021-.564-.3-.846-.466.194-.275.384-.553.585-.825a.242.242,0,0,1,.164-.073q4.888-.411,9.779-.817Z" transform="translate(13.035 28.205)" fill="#202020"/>
      <path id="Path_736" data-name="Path 736" d="M169.474,594.539c-.223-1.783.34-2.4,1.621-2.957.958-.418,1.559-1.659,2.314-2.529C174.049,592.21,170.8,592.429,169.474,594.539Z" transform="translate(20.214 21.063)" fill="#333232"/>
      <path id="Path_737" data-name="Path 737" d="M141.323,592.632l1.1,1.081c-.715.651-1.4,1.337-2.159,1.935-.251.2-.68.172-1.159.278Z" transform="translate(10.007 22.268)" fill="#3c3b3a"/>
    </g>
  </g>
</svg>
