<svg xmlns="http://www.w3.org/2000/svg" xmlns:xlink="http://www.w3.org/1999/xlink" width="198" height="198" viewBox="0 0 198 198">
  <defs>
    <clipPath id="clip-member04">
      <rect width="198" height="198"/>
    </clipPath>
  </defs>
  <g id="member04" clip-path="url(#clip-member04)">
    <rect width="198" height="198" fill="#66e2fa"/>
    <g id="Group_4" data-name="Group 4" transform="translate(-77.052 -494.21)">
      <circle id="Ellipse_3" data-name="Ellipse 3" cx="0.935" cy="0.935" r="0.935" transform="translate(187.748 624.317)" fill="#171616"/>
      <path id="Path_583" data-name="Path 583" d="M124.279,674.951c-1.459-.935-2.924-1.86-4.366-2.819-.132-.088-.112-.394-.164-.6a6.187,6.187,0,0,0,1.462.628c1.3.2,2.492,1.78,3.958.42-.165-1.247-.575-2.122-2.093-1.852a1.459,1.459,0,0,1-1.025-.3c-2.142-1.732-4.184-3.6-5.244-6.168-1-2.412-1.758-4.916-2.623-7.379.107-1.434.27-2.866.308-4.3.048-1.817-.012-3.639-.017-5.457-.005-1.38.037-2.762-.006-4.14-.057-1.843-.178-3.683-.271-5.524.14-1.053.349-2.1.406-3.16.112-2.151.168-4.306.2-6.459.058-3.487.08-6.977.118-10.466.2-2.751.53-5.5.566-8.252.025-1.891.549-3.822-.185-5.7l.025-1.556.535-1.234-.01.018a15.222,15.222,0,0,1,.014-6.067c.262-.363.751-.726.751-1.088,0-2.27-.115-4.54-.191-6.808a8.845,8.845,0,0,0,.513-1.654c.235-2.142.458-4.288.58-6.437.151-2.646,1.471-5.079,1.241-7.827-.111-1.327.595-2.714.889-4.082.322-1.5.6-3.008.893-4.511.5-1.05.988-2.1,1.492-3.149,1.545-3.209,3-6.463,4.674-9.608a38.112,38.112,0,0,1,3.643-5.565,12.506,12.506,0,0,1,4.727-3.512c1.938-.909,4.653-.755,5.624-3.288l3.058-1.652.737.434,1.56-1.605c1.452-.746,2.957-1.406,4.34-2.258,2.071-1.276,4.026-2.729,6.083-4.028,2.259-1.426,4.577-2.762,6.869-4.138,1.673-.278,3.353-.523,5.017-.844a12.262,12.262,0,0,1,6.548.477,21.6,21.6,0,0,1,6.738,3.942c1.829,1.53,3.548,3.188,5.4,4.688,2.284,1.85,4.824,3.425,6.945,5.429,2.742,2.589,5.669,5.054,7.63,8.351,1.819,3.058,4,5.95,5.468,9.158a121.885,121.885,0,0,1,5.15,12.741c1.094,3.346,2.747,6.517,4.148,9.768.357.826.964.985,2.042.63a17.577,17.577,0,0,0-.6-2.53c-.817-2.071-1.751-4.1-2.594-6.156a15.814,15.814,0,0,1-.534-1.956c.666,1.374,1.386,2.726,1.987,4.129.982,2.294,1.991,4.587,2.8,6.942a41.476,41.476,0,0,1,1.733,6.561c.165.991-.416,2.1-.675,3.229l1.119-.7c.34,1.76.653,3.535,1.031,5.3.517,2.412,1.119,4.807,1.622,7.222.609,2.919,1.126,5.855,1.732,8.774.371,1.792.892,3.555,1.241,5.349a48.729,48.729,0,0,1,.858,5.629c.217,2.9.244,5.821.361,8.731.043,1.059.112,2.116.168,3.174-.416-1.9-.86-3.8-1.241-5.714-.376-1.886-.552-3.82-1.06-5.667-.677-2.462-1.695-4.835-2.364-7.3a46.242,46.242,0,0,1-.734-4.9,47.854,47.854,0,0,0-.977-5.492,37.56,37.56,0,0,1-.95-8.7c-.053-1.2-.632-1.642-1.832-1.617-.052.371-.106.675-.134.981-.49,5.377,1.055,10.528,1.87,15.757.231,1.489.8,2.925,1.158,4.4.323,1.328.538,2.68.852,4.01.627,2.658,1.3,5.306,1.931,7.964.208.879.331,1.776.494,2.665.595,3.277,1.286,6.542,1.754,9.837.332,2.338.379,4.717.522,7.079a10.758,10.758,0,0,1-1.445,5.916,14.051,14.051,0,0,0-1.956,2.054c-1.536,2.43-2.96,4.926-4.413,7.405-.888,1.515-1.749,3.045-2.623,4.569a17.016,17.016,0,0,1-5.444,4.727l-3.84,2.318c-.147-.34-.315-.672-.439-1.02a10.682,10.682,0,0,0-.548-1.63c-.494-.891-1.064-.869-1.471.094-.553,1.305-.03,2.575.363,3.829a9.249,9.249,0,0,1-1.511.781,6.476,6.476,0,0,1-2.38.462,11.984,11.984,0,0,1-4.329-.874c-1.786-.932-1.622-2.683-.941-4.348a7.815,7.815,0,0,0,2.466-1.281,20.411,20.411,0,0,0,3.584-4.967c2-4.627,3.729-9.374,5.448-14.112,1.118-3.08,2.049-6.228,3.009-9.361a3.889,3.889,0,0,0-.109-1.383.439.439,0,0,0,.093-.043c.016-.012.013-.043.019-.066l-.1.12c-.653.049-1.494-.649-1.9.379-.345.884-.586,1.807-.869,2.714-1.232,3.966-2.356,7.969-3.729,11.889-1.084,3.1-2.372,6.145-3.759,9.131a9.521,9.521,0,0,1-5.147,5.11,3.526,3.526,0,0,1,.019-3.424A34.694,34.694,0,0,0,197.517,659a3.771,3.771,0,0,0-.089-1.841c-.058-.2-.929-.446-1.028-.333a6.4,6.4,0,0,0-1,1.651,18.373,18.373,0,0,1-.891,2.352c-1,1.609-2.113,3.151-3.218,4.693-.935,1.3-1.969,2.539-2.866,3.864a9.212,9.212,0,0,0-.761,1.908l-3.6,2.552c-1.105.253-1.993,1.55-3.335.662q-.43-.9-.86-1.807c.191-.4.383-.791.567-1.175a5.5,5.5,0,0,1-2.447-5.389c.633-3.409,1.25-6.821,2.013-10.2.5-2.205,1.22-4.364,1.882-6.531.412-1.349.932-2.667,1.343-4.017.56-1.839,1.012-3.718,2.421-5.245a18.771,18.771,0,0,1-.012,2.08c-.23,1.967-.16,3.807,1.753,5.063.162.106.162.438.321.555.5.37,1.05.686,1.578,1.024.282-.5.783-.993.807-1.506a25.525,25.525,0,0,1,.82-5.212c.94-3.664,1.462-7.428,2.343-11.108.446-1.861.287-3.873,1.524-5.588.407-.564.149-1.585.2-2.433h1.294l-.609,3.167-.76.5.333.273.427-.768a4.361,4.361,0,0,0,1.351-3.292,15.913,15.913,0,0,0,3.091-2.223c2.334-2.712,3.349-6.084,4.392-9.4.407-1.293.58-2.654.861-3.984l.224,1.07a10.81,10.81,0,0,0,1.665-2.437c.189-.35.343-.72.513-1.081l-1.052-.275-1.311,2.466c-.1-.136-.287-.265-.3-.41-.212-1.925-.451-3.849-.583-5.781a4.841,4.841,0,0,0-5.425-4.882,5.06,5.06,0,0,0-5.1,3.885,12.173,12.173,0,0,0-.04,2.915c-.03,2.378-.061,4.755-.109,7.132a62.242,62.242,0,0,1-.229,7.21c-.614,4.459-1.554,8.859-1.6,13.4a14.176,14.176,0,0,1-1.33,6.246c-1.2,2.3-1.565,4.7-2.177,7.094-.093.359-.2.715-.3,1.073a12.39,12.39,0,0,1-.525-3.892c.039-2.239.211-4.475.271-6.714a47.439,47.439,0,0,1,.067-5.377c.327-2.284,1.03-4.515,1.527-6.778a9.021,9.021,0,0,0,.062-1.634l-.009-.009c.182-.346.385-.683.543-1.039,1.1-2.464.655-5.094.844-7.655.133-1.8.184-3.6.27-5.4a17.849,17.849,0,0,0,.5-3.537c-.109-2.041-.487-4.069-.752-6.1-.149-.562-.275-1.13-.447-1.686a67.079,67.079,0,0,1-2.064-6.816c-.315-1.618-1.6-2.4-2.36-3.61-.149-.234-.523-.35-.814-.476a14.948,14.948,0,0,1-2.248-.954c-1.415-.922-2.774-1.934-4.108-2.966s-2.645-2.1-3.906-3.217q-2.542-2.247-4.987-4.6c-.924-.885-1.767-1.854-2.637-2.795a25.112,25.112,0,0,0-1.718-1.87c-.264-.233-.77-.2-1.167-.292a6.775,6.775,0,0,0-.19,1.4,1.55,1.55,0,0,0,.476.8c1.5,1.622,2.972,3.278,4.55,4.828,1.982,1.945,4.061,3.794,6.089,5.694.677.633,1.326,1.3,1.989,1.944a6.664,6.664,0,0,1-1.45-.353c-2.044-1.011-4.116-1.985-6.073-3.142-2.527-1.492-4.954-3.145-7.7-4.9.08.893-.159,2,.3,2.53a12.92,12.92,0,0,0,3.194,2.346c1.255.751,2.606,1.347,3.909,2.022,2.4,1.24,4.77,2.523,7.2,3.7.443.216,1.1.007,1.658-.006l-.242-1.384c.419.038.931-.065,1.24.134,1.464.948,2.888,1.957,4.3,2.981,1.325.96,2.84,1.786,3.038,3.652-.271-.009-.7.088-.79-.041-.641-.936-1.5-.858-2.524-.853-3.685.018-7.37-.123-11.054-.2a9.2,9.2,0,0,0-1.763-.865c-.976-.247-2-.322-3-.47l-4.154-2.707a4.673,4.673,0,0,0,1.324.29,19.511,19.511,0,0,0,2.245-.412,7.518,7.518,0,0,0-1.216-1.3c-.862-.576-1.829-1-2.73-1.525-2.482-1.445-4.965-2.889-7.425-4.37a40.5,40.5,0,0,1-5.562-3.538c-3.385-2.9-6.521-6.08-9.838-9.06a6.591,6.591,0,0,1-2.113-4.622,8.344,8.344,0,0,0-.367-1.38c-1.149.392-2.143.685-1.75,2.075a.666.666,0,0,1-.249.529,16.474,16.474,0,0,0-4.887,6.932c-1.2,2.95-2.453,5.884-3.786,8.779-.648,1.408-1.536,2.708-2.3,4.068-.332.593-.622,1.21-.931,1.816l-.408-.151q.58-2.777,1.158-5.554c.472-2.27.936-4.541,1.415-6.809.228-1.078.361-2.161,1.56-2.795.48-.253.708-.958.981-1.356-1.453-1.237-2.492-.4-3.332.485a4.548,4.548,0,0,0-.768,2.027c-.623,2.513-1.209,5.036-1.792,7.559q-.651,2.825-1.258,5.661c-.194.9-.345,1.811-.556,2.938l2.162-.212c-.707,1.159-1.411,2.249-2.045,3.376-.689,1.229-1.85,2.387-.631,3.959.231.3.143.875.118,1.318-.163,2.789-.371,5.576-.522,8.367a37.713,37.713,0,0,0,1.666,13.42c1.125,3.618,1.492,7.465,2.161,11.216a53.67,53.67,0,0,0,1.013,6.057c1.179,3.928,4.238,6.688,6.989,9.533,2.2,2.275,4.907,4.072,7.294,6.184a43.682,43.682,0,0,1,3.213,3.5l-1.193.609-.442-.675-.305.119-.521,3.106c.672-.752,1.022-1.51,1.543-1.647.972-.256.872-.866.914-1.516a5.9,5.9,0,0,1,1.256.352,34.028,34.028,0,0,1,3.178,1.865,4.011,4.011,0,0,1,1.6,1.607c.394,1.13.293,2.417.641,3.57.425,1.411.171,2.389-1.395,2.845a2.138,2.138,0,0,1,.218,3.153c-.4.524-.882.994-1.326,1.488l-4.892.756a13.981,13.981,0,0,1-.9-2.468c-.362-2.139-.521-4.313-.923-6.445-.075-.394-.907-.65-1.39-.969-.235.366-.708.763-.664,1.094.283,2.131.692,4.246,1.028,6.372a9.853,9.853,0,0,1,.025,1.41c-.35.149-.708.441-1.047.42a5.4,5.4,0,0,0-5.1,2.795,5.553,5.553,0,0,1-2.274-3.927,1.975,1.975,0,0,0-.185-.507,13.781,13.781,0,0,1-1.524-8.133c.165-1.077-.636-1.139-1.229-1.152-.331-.008-.808.536-.978.931a2.584,2.584,0,0,0-.075,1.436q.7,3.538,1.493,7.059a7.71,7.71,0,0,0,.655,1.7c.6,1.215,1.245,2.409,1.873,3.612a7.346,7.346,0,0,0-1.707.756C127.209,672.4,125.758,673.692,124.279,674.951Zm77.03-28.547c1.755-1.523,1.859-2.254.611-4.017C199.976,643.488,201.438,645,201.309,646.4Zm-4.687-80.613c-.68,1.5-2.385,2.572-2.02,4.4l.428.162Q195.825,568.072,196.622,565.792Zm24.761,78.1c1.154-.173,1.483-.863,1.019-1.848ZM223,641.363l.33-.168-.452-.726-.278.168Z" transform="translate(0.675 0.444)" fill="#63321b"/>
      <path id="Path_584" data-name="Path 584" d="M196.309,636.98c-.681,1.665-.845,3.416.941,4.348a11.983,11.983,0,0,0,4.329.874,6.475,6.475,0,0,0,2.38-.461,9.249,9.249,0,0,0,1.511-.781c.808.27,1.717.918,2.4.739a13.943,13.943,0,0,0,4.965-2.011,80.854,80.854,0,0,0,6.411-6.035l1.957,1.413c.162.371.218.873.5,1.095,3.327,2.6,6.692,5.16,10.036,7.743.408.315.694.823,1.139,1.047,1.857.937,3.375,2.113,3.558,4.334.074.9-.013,1.817.1,2.709.3,2.287.667,4.563,1.008,6.843a2.23,2.23,0,0,1-2.187,1.859,6.246,6.246,0,0,0-3.706,1.766,4.041,4.041,0,0,1-1.286.949c-1.963.684-3.958,1.287-5.945,1.908-.946.295-1.9.583-2.854.84-2.648.714-5.278,1.524-7.961,2.076a19.655,19.655,0,0,1-6.456.681c-1.971-.275-3.808.177-5.7.079-1.29-.067-2.574-.244-3.86-.375-.228-.023-.452-.084-.679-.088-4.989-.085-9.98-.124-14.968-.26-3.127-.085-6.248-.376-9.375-.455-2.416-.061-4.836.125-7.253.088-2.466-.039-4.929-.226-7.394-.33-1.489-.063-2.979-.076-4.467-.145-.906-.041-1.813-.12-2.714-.229-3.712-.447-7.444-.8-11.129-1.409-2.9-.483-5.758-1.268-8.62-1.975q-3.771-.933-7.509-2a29.622,29.622,0,0,1-4.991-1.7c-2.16-1.069-2.254-2.139-1.682-4.773,1.038-4.783,3.94-8.611,6.767-12.473.062-.085.009-.252.012-.379,1.48-1.258,2.932-2.549,4.454-3.755a7.346,7.346,0,0,1,1.708-.756c.918.476.862.909.081,1.55-.627.516-1.746.809-1.383,2.011a3.342,3.342,0,0,0-.946.544c-1.293,1.494-2.513,3.052-3.816,4.537-2.077,2.365-3.134,5.235-4.174,8.1-.118.324.64.954.991,1.443.308-.224.759-.384.9-.682.393-.851.626-1.771.981-2.639a18.874,18.874,0,0,1,3.857-6,36.091,36.091,0,0,0,3.034-4.2.59.59,0,0,0,.261-.07l.561-.5,1.643-1.38.137-.243.491-.228.066.049.034-.084.957-.663.433-.111.885-.3.482-.019,1.611-.123.377-.038.6-.163a.768.768,0,0,1,.24-.1l1.724-.231.5-.175-.264-.7-.37-.622.392-.3a.327.327,0,0,0,.054.115.118.118,0,0,0,.1.01,1.436,1.436,0,0,0,.774-2.019L145.86,634c-.437.467-.892.919-1.3,1.4-.211.249-.551.646-.472.822.134.3.613.729.84.675a12.708,12.708,0,0,0,2.11-.839c.49-.215,1.028-.732,1.441-.644,2.452.517,4.85,1.3,7.313,1.742,2.1.38,4.284.335,6.406.642a25.7,25.7,0,0,0,10.189-.471c1.773-.455,3.472-.692,4.384,1.567a2.11,2.11,0,0,0,2.412,1.345q.43.9.862,1.807.037.772.072,1.542l.38.156,2.881-2.36,3.6-2.552c.1.158.186.442.3.454a2.229,2.229,0,0,0,2.413-1.618,1.71,1.71,0,0,1,1.433-1.318c.923.138,1.642,1.25,2.742.552Z" transform="translate(1.358 32.898)" fill="#eab1b5"/>
      <path id="Path_585" data-name="Path 585" d="M208.009,567.953a15.817,15.817,0,0,0,.534,1.956c.843,2.06,1.777,4.086,2.594,6.156a17.578,17.578,0,0,1,.6,2.53c-1.078.355-1.686.2-2.042-.629-1.4-3.251-3.054-6.422-4.148-9.768a121.884,121.884,0,0,0-5.15-12.741c-1.466-3.208-3.649-6.1-5.468-9.158-1.961-3.3-4.889-5.762-7.63-8.351-2.121-2-4.661-3.579-6.945-5.429-1.852-1.5-3.571-3.158-5.4-4.688a21.6,21.6,0,0,0-6.738-3.942,12.262,12.262,0,0,0-6.548-.477c-1.664.321-3.344.566-5.016.844a14.792,14.792,0,0,0-2.97.654,55.615,55.615,0,0,0-12.652,7.281,10.151,10.151,0,0,0-1.67,2.488l-1.56,1.605-.737-.434c-.038-2.652,1.709-4.412,3.534-5.877a44.274,44.274,0,0,1,8.575-5.027,34.052,34.052,0,0,1,10.372-3.326c3.473-.467,7.055-.809,10.372.574a30.3,30.3,0,0,1,5.753,3.511c1.6,1.143,3.026,2.526,4.527,3.805,1.4,1.194,2.793,2.4,4.2,3.586.336.283.73.5,1.081.764,1.313,1,2.939,1.689,3.507,3.419,1.634.115,2.032,1.644,2.961,2.542,1.037,1,1.888,2.183,2.831,3.278a34.071,34.071,0,0,1,2.285,2.641c1.01,1.449,1.882,2.988,2.811,4.49a43.216,43.216,0,0,1,4.055,8.133C205.1,561.624,206.634,564.762,208.009,567.953Z" transform="translate(7.37 0)" fill="#0f0f0e"/>
      <path id="Path_586" data-name="Path 586" d="M199.25,650.323a80.862,80.862,0,0,1-6.411,6.035,13.945,13.945,0,0,1-4.965,2.011c-.686.178-1.6-.469-2.4-.739-.393-1.254-.916-2.523-.363-3.829.407-.963.977-.985,1.471-.094a10.679,10.679,0,0,1,.548,1.63c.124.348.292.68.438,1.019.326.017.714.156.968.034a19.576,19.576,0,0,0,3.808-2.035c1.8-1.443,3.742-2.827,4.733-5.026.182-.1.428-.146.538-.293q1.28-1.718,2.514-3.468c1.1-1.564,2.235-3.111,3.264-4.72a36.7,36.7,0,0,0,2.088-3.8,7.21,7.21,0,0,0,.365-1.768,10.758,10.758,0,0,0,1.445-5.916c-.143-2.363-.19-4.741-.522-7.079-.468-3.295-1.159-6.56-1.754-9.837-.163-.889-.286-1.786-.494-2.665-.628-2.658-1.3-5.306-1.931-7.964-.314-1.33-.529-2.682-.852-4.01-.357-1.474-.927-2.91-1.158-4.4-.816-5.228-2.36-10.379-1.87-15.757.028-.306.083-.61.134-.981,1.2-.025,1.779.415,1.832,1.617a37.56,37.56,0,0,0,.95,8.7,47.85,47.85,0,0,1,.977,5.492,46.238,46.238,0,0,0,.734,4.9c.67,2.464,1.687,4.837,2.364,7.3.508,1.847.684,3.781,1.06,5.667.381,1.91.825,3.811,1.241,5.714q.527,3.833,1.055,7.666a28.281,28.281,0,0,1-.445,10.369,19.574,19.574,0,0,1-1.9,4.521c-1.059,2.013-2.213,3.985-3.456,5.893-1.082,1.658-2.355,3.2-3.521,4.8A6.135,6.135,0,0,0,199.25,650.323Z" transform="translate(21.356 16.228)" fill="#0d0c0b"/>
      <path id="Path_587" data-name="Path 587" d="M115.6,599.91c-.037,3.489-.059,6.979-.118,10.466-.035,2.153-.09,4.308-.2,6.459-.057,1.057-.266,2.107-.406,3.16a4.447,4.447,0,0,0-.418,1.083c-.169,1.556-.357,3.115-.4,4.677-.062,2.452.134,4.917-.047,7.359a15.337,15.337,0,0,0,.847,6.305c.865,2.464,1.627,4.967,2.623,7.379,1.06,2.571,3.1,4.436,5.244,6.168a1.459,1.459,0,0,0,1.025.3c1.517-.27,1.927.6,2.093,1.852-1.466,1.36-2.654-.219-3.958-.42a6.185,6.185,0,0,1-1.462-.628A18.823,18.823,0,0,1,116,648.094a75.77,75.77,0,0,1-3.047-7.633c-1.166-3.338-1.122-6.846-1.043-10.307.069-3,.381-6.008.729-9,.261-2.236.938-4.436,1.084-6.674a68.017,68.017,0,0,0-.2-6.915c-.1-2.71-.187-5.422-.3-8.133-.078-1.917-.309-3.836-.243-5.747.08-2.285.388-4.564.631-6.842a33.44,33.44,0,0,1,.513-3.4c.085-.4.471-1.034.716-1.033.438,0,.874.41,1.315.64a2.894,2.894,0,0,0,.372.136l.01-.018L116,584.407l-.025,1.556c-.069.053-.194.1-.2.16-.323,2.784-.041,5.585-.742,8.393C114.624,596.171,115.372,598.1,115.6,599.91Z" transform="translate(0 17.907)" fill="#121211"/>
      <path id="Path_588" data-name="Path 588" d="M140.675,533.825c-.971,2.533-3.686,2.38-5.624,3.288a12.506,12.506,0,0,0-4.727,3.512,38.112,38.112,0,0,0-3.642,5.565c-1.671,3.145-3.129,6.4-4.674,9.608-.5,1.047-1,2.1-1.492,3.149a53.164,53.164,0,0,0-2.738,6.106,20.468,20.468,0,0,0-1.331,7.046c.155,3.776-.452,7.567-.048,11.359.076,2.268.187,4.538.191,6.808,0,.362-.489.725-.751,1.088l-1.287.168c-.079-1.832-.224-3.7-.222-5.565,0-1.559.273-3.119.252-4.675-.037-2.87-.434-5.751-.248-8.6.182-2.806.366-5.686,1.872-8.262a16.172,16.172,0,0,0,.711-2.346c.555-1.439,1.137-2.87,1.789-4.269,1.67-3.588,3.281-7.209,5.117-10.717a54.257,54.257,0,0,1,4.017-6.237,19.088,19.088,0,0,1,3.418-3.942,22.6,22.6,0,0,1,4.458-2.3,7.441,7.441,0,0,1,2.084-.77A20.721,20.721,0,0,1,140.675,533.825Z" transform="translate(0.704 3.677)" fill="#0f0f0e"/>
      <path id="Path_589" data-name="Path 589" d="M213.854,658.763c-.341-2.28-.711-4.556-1.008-6.843-.115-.892-.028-1.808-.1-2.709-.184-2.221-1.7-3.4-3.558-4.334-.445-.224-.73-.732-1.139-1.047-3.344-2.583-6.708-5.139-10.036-7.743-.283-.222-.34-.724-.5-1.095l.47-1.087c1.789.459,3.034,1.729,4.386,2.88,1.75,1.49,3.56,2.916,5.389,4.313a62.107,62.107,0,0,1,5.147,3.823,7.33,7.33,0,0,1,1.969,5.319c.08,2.129.538,4.245.822,6.367A1.763,1.763,0,0,1,213.854,658.763Z" transform="translate(25.054 32.972)" fill="#121313"/>
      <path id="Path_590" data-name="Path 590" d="M170.618,579.069c3.684.081,7.369.222,11.054.2,1.021-.005,1.883-.083,2.524.853.088.129.518.032.79.041l0-.013.273.607a16.633,16.633,0,0,1,1.665,6.67c.187,2,.206,4.015.226,6.025.016,1.5-.1,3.007-.124,4.511a16.193,16.193,0,0,0,.074,4.508c.464,1.642-.251,2.954-.494,4.406-4.211.155-8.69,4.379-8.73,8.456a29.922,29.922,0,0,0,.648,6.067,42.122,42.122,0,0,0,1.662,5.484c.147.425.649.733.986,1.095a4.7,4.7,0,0,1-2.279,4.063c-1.082.7-2.027,1.6-3.066,2.362-2.562,1.887-5.121,3.778-7.723,5.611-1.559,1.1-3.277,1.988-4.78,3.15-3.083,2.38-6.561,2.319-10.266,2.014-.222.624-.866,1.779.522,1.9a18.353,18.353,0,0,0,6.614-.234c4.406-1.3,7.9-4.33,11.65-6.83,2.757-1.838,5.35-3.913,7.966-5.844-2.218,7.008-4.693,14.118-5.647,21.6l-1.91-.821c.041-.078.063-.2.127-.226.653-.271,1.424-.513.893-1.428a1.22,1.22,0,0,0-1.912-.586,11.518,11.518,0,0,1-3.211.618c-.579-.342-1.178-1-1.736-.972-2.387.132-4.763.468-7.144.729-1.67-.189-3.349-.331-5.01-.579-1.172-.176-2.391-.863-3.468-.671-2.1.375-1.378-.882-1.4-1.806-.048-1.74.118-3.525-1.322-4.929a1.189,1.189,0,0,1-.3-1.061c.785-1.507-.424-1.327-1.242-1.5a2.9,2.9,0,0,1-1.016-.255c-1.905-1.335-3.836-2.642-5.651-4.088-1.692-1.349-3.256-2.853-4.865-4.3-1.484-1.334-2.955-2.683-4.431-4.026.75-1.7,1.86-3.348,2.166-5.125.478-2.788-.655-5.429-1.932-7.893-1.247-2.407-2.673-4.727-4.054-7.065a2.961,2.961,0,0,0-.923-.907c-1.128-.743-1.751.441-2.619.711-.19-.663-.384-1.325-.567-1.989a46.918,46.918,0,0,1-1.327-4.943c-.348-2.129-.366-4.307-.642-6.45a36.44,36.44,0,0,1,.26-9.837c.564-2.06,1.079-4.135,1.706-6.176.591-1.926,1.206-3.854,1.983-5.712.737-1.759,1.7-3.427,2.553-5.141.052-.1,0-.258-.01-.39l.023-.055c.65-.932,1.307-1.859,1.949-2.8,1.09-1.59,2.2-3.167,3.246-4.784.73-1.128,1.37-2.314,2.051-3.473l1.45-2.464a24.613,24.613,0,0,1,2.359,2.232,51.056,51.056,0,0,0,9.643,8.474c2.385,1.75,4.921,3.305,7.413,4.912,2.121,1.366,4.276,2.682,6.416,4.02l4.154,2.707c1.225.56,2.434,1.159,3.688,1.647C169.818,579.485,170.256,579.184,170.618,579.069Zm.293,8.655h-.005l-1.669-.487a6.092,6.092,0,0,0-1.165-.24c-1.709-.019-3.536-.375-5.1.1a41.863,41.863,0,0,0-6.842,3.112c-.549.283-.847,1.035-1.26,1.573.822.187.425.8.255,1.083-.7,1.158.363,2.162.222,3.26-.015.114.367.277.736.536-.707-2.512,1.766-2.835,2.645-4.405.041.587-.09,1.183.122,1.342,1.614,1.216-.151,1.559-.676,2.455,1.891-.081,3.671-.054,5.422-.26,1.8-.211,3.582-.648,5.371-.985l.485-.244c-2.292-1.011-.146-2.725-1.141-3.936-2.814.168-2.915.138-3.463-1.152,4.253-1.187,6.967.6,8.866,4.236-.1-1.21.248-2.413-.918-3.194-.094-.063.017-.423.032-.644l1.131.411c.119-.856-.023-1.477-1.088-1.492l-.275-.273-.834-.295A.777.777,0,0,0,171.7,588Zm0-7.036c-1.237-1.136-2.8-1.007-4.32-1.088a31.7,31.7,0,0,0-9.91,1.476,4.966,4.966,0,0,0-2.124,1.14c-.266.259.01,1.052.052,1.81a12.114,12.114,0,0,0,2.544.145c2.5-.341,4.987-.781,7.463-1.263,1.145-.222,2.244-.67,3.381-.945.95-.23,1.926-.359,2.89-.533,2.078.68,3.035.573,3.482-.328Zm-30.453,9.473-.2-.536-.07-.279c-.759-.429-1.384-1.228-2.438-.834-.427-.065-.928-.3-1.268-.164-1.207.5-2.447-.682-3.752.322-.75.578-2.125.323-3.178.593-.976.249-1.932.67-1.97,1.913l1.578-.547.191.363c-1.17,1.475-2.723,2.747-2.807,4.838,2.116-1.364,2.776-4.7,5.9-4.26l.412,3.811c-2.332-.2-2.38-.186-2.568,1.122,1.839.11,3.671.236,5.5.321a14.5,14.5,0,0,0,3.429,0,10.205,10.205,0,0,0,2.55-1.309c-.644-1.05.668-1.55.707-2.408l.24-.11-.251-.345-.286-.067-.531-1.6-.549-.279.23-.206-.229-.038Zm6.564,1.069c-.3-1.525-.688-3.219-2.276-4.285-.38-.256-1.031-.124-1.558-.169.092.482.015,1.114.3,1.424,1.9,2.055,1.776,4.55,1.594,7-.249,3.349-1.77,6.319-3.389,9.194a2.34,2.34,0,0,0,.025,2.871,25.613,25.613,0,0,0,4.105,3.019.865.865,0,0,0,1.371-.659c.062-.379-.362-.949-.725-1.25-.779-.645-1.741-1.09-2.462-1.781a1.841,1.841,0,0,1-.344-1.541,21.079,21.079,0,0,1,1.021-2.112,45.1,45.1,0,0,0,2.263-6.334C147.318,594.963,147.026,593.178,147.026,591.231Zm4.565,36.39c4.011.446,7.511-1.318,11.048-2.783a10.031,10.031,0,0,0,2.912-2.43c.252-.255.112-.88.153-1.335a9.384,9.384,0,0,0-1.485-.029,1.223,1.223,0,0,0-.644.487c-1.112,1.379-2.745,1.865-4.3,2.55a19.2,19.2,0,0,1-10.924,1.36c-1.75-.275-3.381-1.247-5.089-1.841a5.469,5.469,0,0,0-1.458-.1c.013.494-.177,1.181.081,1.444a6.773,6.773,0,0,0,2.12,1.427A15.926,15.926,0,0,0,151.591,627.621Zm-27.2-41.233a14.776,14.776,0,0,1,2.452-1.318,17.884,17.884,0,0,1,4.237-.915,9.892,9.892,0,0,1,3.474.639c.843.275,1.829.071,2.537,1.039a3.747,3.747,0,0,0,2.425,1.242c.849.088,1.764-2.6,1.037-3.094a16.288,16.288,0,0,0-4.1-2.059c-1.05-.333-2.3-.017-3.423-.191-2.385-.369-4.219.836-6.106,1.888-1.081.6-2.089,1.333-3.211,2.059Zm26.628,44.69-.009.072a3.458,3.458,0,0,0-1.219-.09,8.467,8.467,0,0,0-1.512.779c.407.4.761,1.046,1.231,1.138a15.087,15.087,0,0,0,3.41.194c.348-.012.96-.468.955-.71a1.4,1.4,0,0,0-.7-1.084A9.838,9.838,0,0,0,151.023,631.077Z" transform="translate(2.504 10)" fill="#fefefe"/>
      <path id="Path_591" data-name="Path 591" d="M162.237,576.45c-2.141-1.338-4.3-2.654-6.416-4.02-2.492-1.607-5.028-3.162-7.413-4.912a51.062,51.062,0,0,1-9.643-8.474,24.614,24.614,0,0,0-2.359-2.232,5.585,5.585,0,0,0-.651-1.293c-.155-.182-.825-.257-.9-.146a35.734,35.734,0,0,0-2.7,4.273c-1.532,3.141-2.915,6.352-4.328,9.547a3.7,3.7,0,0,0-.118,1.135l-.023.056a4.124,4.124,0,0,0-.9.857c-1.059,1.925-2.068,3.875-3.089,5.82q-1.384,2.639-2.754,5.285a1.311,1.311,0,0,0-.229.677c.225,1.595.491,3.186.745,4.779a36.44,36.44,0,0,0-.26,9.837c.277,2.143.295,4.321.642,6.45a46.924,46.924,0,0,0,1.327,4.943c.184.664.377,1.326.567,1.989a4.268,4.268,0,0,0-.025.8q.737,4.752,1.5,9.5c.29,1.784.4,3.627,1.683,5.1.427.491.788,1.035,1.216,1.525.984,1.127,1.989,2.236,2.986,3.352,1.476,1.343,2.947,2.692,4.431,4.026,1.609,1.446,3.173,2.95,4.865,4.3,1.815,1.446,3.746,2.753,5.651,4.088a2.9,2.9,0,0,0,1.016.255c.818.173,2.027-.007,1.242,1.5a1.189,1.189,0,0,0,.3,1.061c1.44,1.4,1.275,3.189,1.322,4.929.025.924-.7,2.181,1.4,1.806,1.077-.193,2.3.495,3.468.671,1.661.248,3.34.39,5.011.579a2.241,2.241,0,0,0,.694.252c2.729.012,5.457,0,8.185-.009a11.515,11.515,0,0,0,3.211-.618,1.22,1.22,0,0,1,1.912.586c.531.915-.24,1.157-.893,1.428-.063.026-.085.149-.127.226-2.309.14-4.536.88-6.913.609-2.928-.335-5.894-.345-8.828-.645-2.159-.22-4.286-.732-6.444-.989a1.97,1.97,0,0,0-1.449.692,6.6,6.6,0,0,0-.759,1.788c8.775,2.151,17.438,3.909,26.3,1.3V657.2c.954-7.484,3.429-14.593,5.647-21.6-2.616,1.931-5.209,4.006-7.966,5.844-3.747,2.5-7.244,5.532-11.65,6.83a18.352,18.352,0,0,1-6.614.234c-1.388-.121-.745-1.276-.522-1.9,3.7.305,7.183.366,10.266-2.014,1.5-1.162,3.221-2.051,4.78-3.15,2.6-1.833,5.161-3.724,7.723-5.611,1.039-.767,1.984-1.665,3.066-2.362a4.7,4.7,0,0,0,2.279-4.063c.848-.8,2.037-1.459,2.471-2.438.869-1.96.383-4.2.592-6.3.274-2.735,1.183-5.283,1.521-7.96.187-1.488,1.349-2.793.849-4.406.243-1.453.958-2.765.494-4.406a16.194,16.194,0,0,1-.074-4.509c.025-1.5.14-3.008.124-4.511-.021-2.01-.039-4.026-.226-6.025a16.633,16.633,0,0,0-1.665-6.67l-.273-.607,0,.013c-.2-1.865-1.713-2.691-3.038-3.652-1.411-1.024-2.835-2.033-4.3-2.981-.309-.2-.821-.1-1.24-.134h-.249l-.561-.816.013.01c-.663-.649-1.312-1.311-1.989-1.944-2.028-1.9-4.108-3.748-6.089-5.694-1.578-1.55-3.048-3.206-4.55-4.828a1.549,1.549,0,0,1-.476-.8,6.775,6.775,0,0,1,.19-1.4c.4.089.9.059,1.167.292a25.092,25.092,0,0,1,1.718,1.87c.87.941,1.713,1.909,2.637,2.795q2.449,2.346,4.987,4.6c1.262,1.117,2.571,2.185,3.906,3.217s2.692,2.045,4.108,2.966a14.96,14.96,0,0,0,2.248.954c.291.125.666.242.814.476.763,1.209,2.045,1.992,2.36,3.61a67.061,67.061,0,0,0,2.064,6.816c.172.556.3,1.123.447,1.686,0,2.085-.023,4.17.017,6.253.022,1.129.154,2.257.237,3.385-.087,1.8-.137,3.6-.27,5.4-.189,2.561.253,5.191-.844,7.655-.158.357-.361.693-.543,1.039a.35.35,0,0,0-.1.044c-.016.014-.012.051-.017.078l.125-.112a9.021,9.021,0,0,1-.062,1.634c-.5,2.263-1.2,4.494-1.527,6.778a47.44,47.44,0,0,0-.067,5.377c-.061,2.239-.233,4.475-.271,6.714a12.391,12.391,0,0,0,.525,3.892c.1-.358.209-.713.3-1.073.611-2.394.976-4.8,2.177-7.094a14.176,14.176,0,0,0,1.33-6.246c.05-4.542.99-8.942,1.6-13.4a62.236,62.236,0,0,0,.229-7.21c.048-2.377.079-4.754.109-7.132a12.173,12.173,0,0,1,.04-2.915,5.06,5.06,0,0,1,5.1-3.885,4.841,4.841,0,0,1,5.425,4.882c.132,1.931.371,3.856.583,5.781.016.145.2.274.3.41q-.023.128-.039.256c-.28,1.33-.454,2.691-.861,3.984-1.043,3.318-2.058,6.69-4.392,9.4a15.913,15.913,0,0,1-3.091,2.223l-.742.125h-1.294c-.049.848.209,1.869-.2,2.433-1.237,1.715-1.078,3.727-1.524,5.588-.882,3.68-1.4,7.444-2.343,11.109a25.525,25.525,0,0,0-.82,5.212c-.023.513-.525,1-.807,1.506-.529-.337-1.074-.654-1.578-1.024-.159-.116-.159-.449-.321-.555-1.913-1.256-1.983-3.1-1.753-5.063a18.768,18.768,0,0,0,.012-2.08c-1.409,1.528-1.861,3.406-2.421,5.245-.411,1.351-.931,2.668-1.343,4.017-.662,2.168-1.384,4.326-1.882,6.531-.763,3.381-1.379,6.794-2.013,10.2a5.5,5.5,0,0,0,2.447,5.389c-.185.384-.376.779-.567,1.175a2.111,2.111,0,0,1-2.413-1.345c-.913-2.258-2.611-2.022-4.384-1.567a25.7,25.7,0,0,1-10.189.471c-2.122-.308-4.3-.262-6.406-.642-2.464-.445-4.861-1.225-7.313-1.742-.414-.088-.951.429-1.441.644a12.714,12.714,0,0,1-2.109.839c-.227.054-.706-.371-.84-.675-.079-.176.261-.573.472-.822.412-.486.867-.938,1.3-1.4.445-.492.922-.963,1.326-1.487a2.138,2.138,0,0,0-.218-3.152c1.565-.456,1.82-1.434,1.395-2.845-.348-1.153-.247-2.44-.641-3.57a4.011,4.011,0,0,0-1.6-1.607,34,34,0,0,0-3.178-1.865,5.906,5.906,0,0,0-1.256-.352l0,0a43.7,43.7,0,0,0-3.213-3.5c-2.387-2.112-5.1-3.909-7.294-6.184-2.751-2.845-5.81-5.6-6.989-9.533a53.666,53.666,0,0,1-1.013-6.057c-.67-3.751-1.037-7.6-2.161-11.216a37.713,37.713,0,0,1-1.666-13.42c.151-2.791.359-5.577.522-8.367.026-.443.114-1.02-.118-1.318-1.219-1.572-.058-2.73.631-3.959.633-1.127,1.338-2.217,2.045-3.376l-2.162.212c.211-1.127.362-2.037.556-2.938q.609-2.834,1.258-5.661c.583-2.523,1.168-5.046,1.792-7.559a4.548,4.548,0,0,1,.768-2.027c.84-.88,1.879-1.722,3.332-.485-.273.4-.5,1.1-.981,1.356-1.2.633-1.333,1.717-1.56,2.795-.48,2.268-.944,4.54-1.415,6.809q-.576,2.779-1.158,5.554l.408.151c.309-.606.6-1.223.931-1.816.761-1.36,1.649-2.66,2.3-4.068,1.333-2.9,2.583-5.83,3.786-8.779a16.474,16.474,0,0,1,4.887-6.932.666.666,0,0,0,.249-.529c-.393-1.389.6-1.683,1.75-2.075a8.342,8.342,0,0,1,.367,1.38,6.591,6.591,0,0,0,2.113,4.622c3.317,2.979,6.453,6.159,9.838,9.06a40.5,40.5,0,0,0,5.562,3.538c2.46,1.481,4.943,2.925,7.425,4.37.9.525,1.868.949,2.73,1.525a7.516,7.516,0,0,1,1.216,1.3,19.511,19.511,0,0,1-2.245.412A4.671,4.671,0,0,1,162.237,576.45Zm37.116,13.411c-.853.14-1.538.28-2.231.358-1.1.123-1.936.557-2.141,1.714-.221,1.259-.379,2.528-.61,3.785a2.627,2.627,0,0,1-.443.761c1.022,5.42.4,10.922.206,16.448.614-.436,1.165-.76,1.634-1.171a14.739,14.739,0,0,0,2.889-2.745,25.378,25.378,0,0,0,1.952-4.5,8.355,8.355,0,0,0,.676-2.311,57.193,57.193,0,0,0,.273-6.429C201.484,593.574,201.274,591.329,199.354,589.86Z" transform="translate(1.97 8.577)" fill="#0f0d0c"/>
      <path id="Path_592" data-name="Path 592" d="M180.36,643.307l-2.443-.075-1-3.38-1.746,2.828A1.71,1.71,0,0,0,173.742,644a2.229,2.229,0,0,1-2.413,1.618c-.114-.012-.2-.3-.3-.454a9.212,9.212,0,0,1,.761-1.908c.9-1.325,1.931-2.561,2.866-3.864,1.105-1.542,2.219-3.084,3.219-4.693a18.376,18.376,0,0,0,.891-2.353,6.4,6.4,0,0,1,1-1.651c.1-.112.969.129,1.028.333a3.771,3.771,0,0,1,.089,1.841,34.7,34.7,0,0,1-1.494,5.143,3.526,3.526,0,0,0-.019,3.424,9.521,9.521,0,0,0,5.147-5.109c1.387-2.986,2.674-6.03,3.759-9.131,1.373-3.92,2.5-7.923,3.729-11.889.283-.908.523-1.83.869-2.714.4-1.028,1.245-.33,1.9-.379l-.013-.012a3.89,3.89,0,0,1,.109,1.383c-.96,3.133-1.891,6.281-3.009,9.361-1.719,4.739-3.445,9.485-5.448,14.112a20.409,20.409,0,0,1-3.584,4.967A7.815,7.815,0,0,1,180.36,643.307Z" transform="translate(17.307 26.571)" fill="#0c0907"/>
      <path id="Path_593" data-name="Path 593" d="M132.674,641.479l-.885.3-.433.111-.957.663-.1.035-.491.228-.137.243-1.643,1.38-.561.5a.592.592,0,0,1-.261.07l-.823-1.1c-.363-1.2.756-1.5,1.383-2.011.781-.641.836-1.074-.081-1.55-.628-1.2-1.273-2.4-1.873-3.612a7.706,7.706,0,0,1-.655-1.7q-.795-3.519-1.493-7.059a2.584,2.584,0,0,1,.075-1.436c.171-.394.648-.938.978-.931.593.013,1.395.075,1.229,1.152a13.782,13.782,0,0,0,1.524,8.133,1.974,1.974,0,0,1,.185.507,5.553,5.553,0,0,0,2.274,3.927.791.791,0,0,1-.027.258l.317.535.526.224.217.453.635-.853v-.089h.09l.544-.036.465-.244.323-.008.522.006.819-.206,1.923-.076,1.285.021.37.622-.234.876-1.724.231-.24.1-.6.164-.377.036-1.611.123Z" transform="translate(3.43 30.543)" fill="#0f0d0c"/>
      <path id="Path_594" data-name="Path 594" d="M167.116,571.406h.249q.12.692.242,1.384c-.558.013-1.215.222-1.658.006-2.429-1.176-4.8-2.46-7.2-3.7-1.3-.675-2.654-1.271-3.909-2.022a12.919,12.919,0,0,1-3.194-2.346c-.459-.527-.22-1.636-.3-2.53,2.743,1.759,5.17,3.412,7.7,4.9,1.957,1.157,4.029,2.132,6.073,3.142a6.664,6.664,0,0,0,1.45.353l-.013-.01Z" transform="translate(11.549 11.993)" fill="#0c0907"/>
      <path id="Path_595" data-name="Path 595" d="M115.952,577.76c-.4-3.792.2-7.584.048-11.359a20.468,20.468,0,0,1,1.331-7.046,53.161,53.161,0,0,1,2.738-6.106c-.3,1.5-.571,3.012-.893,4.511-.295,1.368-1,2.754-.889,4.082.23,2.748-1.09,5.181-1.241,7.827-.123,2.15-.345,4.3-.58,6.437A8.847,8.847,0,0,1,115.952,577.76Zm2.638-14.9a1.585,1.585,0,0,0-.323-.257c-.052-.021-.141.048-.213.076.041.09.063.234.128.256C118.271,562.967,118.392,562.9,118.59,562.861Z" transform="translate(1.151 9.374)" fill="#f5f3f1"/>
      <path id="Path_596" data-name="Path 596" d="M138.844,533.989a10.151,10.151,0,0,1,1.67-2.488,55.615,55.615,0,0,1,12.652-7.281,14.792,14.792,0,0,1,2.97-.654c-2.292,1.375-4.609,2.712-6.869,4.138-2.056,1.3-4.012,2.752-6.083,4.028C141.8,532.583,140.3,533.243,138.844,533.989Z" transform="translate(7.89 0.689)" fill="#faf8f6"/>
      <path id="Path_597" data-name="Path 597" d="M136.311,636.742a1.436,1.436,0,0,1-.774,2.019.118.118,0,0,1-.1-.01.327.327,0,0,1-.054-.115l-.807-.244-1.083-2.655a9.853,9.853,0,0,0-.025-1.41c-.336-2.126-.745-4.241-1.028-6.372-.044-.331.429-.728.664-1.094.482.319,1.315.575,1.39.969.4,2.131.561,4.306.923,6.445A13.982,13.982,0,0,0,136.311,636.742Z" transform="translate(6.014 30.911)" fill="#0f0d0c"/>
      <path id="Path_598" data-name="Path 598" d="M114.386,630.913a15.337,15.337,0,0,1-.847-6.305c.181-2.442-.016-4.907.047-7.359.039-1.562.226-3.12.4-4.677a4.445,4.445,0,0,1,.418-1.083c.093,1.842.215,3.681.271,5.524.044,1.378,0,2.76.006,4.14.005,1.819.065,3.64.017,5.457C114.656,628.047,114.493,629.479,114.386,630.913Z" transform="translate(0.474 26.414)" fill="#f5f3f1"/>
      <path id="Path_599" data-name="Path 599" d="M134.646,633.727l1.083,2.655-.87.523-1.923.076-.819.206-.522-.006-.116-.181-.207.189-.465.244-.544.036h-.09v.089l-.852.4-.526-.224-.317-.535a.791.791,0,0,0,.027-.259,5.4,5.4,0,0,1,5.1-2.795C133.937,634.168,134.3,633.876,134.646,633.727Z" transform="translate(4.856 32.92)" fill="#eaf1f0"/>
      <path id="Path_600" data-name="Path 600" d="M203.13,622.018a7.21,7.21,0,0,1-.365,1.768,36.689,36.689,0,0,1-2.088,3.8c-1.029,1.609-2.161,3.156-3.264,4.72q-1.233,1.749-2.514,3.468c-.11.147-.355.2-.538.293a.257.257,0,0,0-.224-.017c.874-1.524,1.735-3.054,2.623-4.569,1.453-2.479,2.877-4.975,4.413-7.405A14.051,14.051,0,0,1,203.13,622.018Z" transform="translate(24.068 29.494)" fill="#efe9e4"/>
      <path id="Path_601" data-name="Path 601" d="M114.911,599.107c-.226-1.807-.975-3.739-.561-5.394.7-2.807.419-5.609.742-8.393.006-.061.132-.107.2-.16.734,1.873.209,3.8.185,5.7C115.441,593.608,115.114,596.356,114.911,599.107Z" transform="translate(0.688 18.71)" fill="#efe9e4"/>
      <path id="Path_602" data-name="Path 602" d="M196.241,632.875a.257.257,0,0,1,.224.017c-.991,2.2-2.932,3.583-4.733,5.026a19.575,19.575,0,0,1-3.808,2.035c-.255.123-.642-.017-.968-.034L190.8,637.6A17.015,17.015,0,0,0,196.241,632.875Z" transform="translate(21.966 32.666)" fill="#87a095"/>
      <path id="Path_603" data-name="Path 603" d="M173.855,589.647c-.083-1.129-.215-2.257-.237-3.385-.04-2.084-.016-4.169-.017-6.253.265,2.033.644,4.061.752,6.1A17.849,17.849,0,0,1,173.855,589.647Z" transform="translate(18.058 17.203)" fill="#efe9e4"/>
      <path id="Path_604" data-name="Path 604" d="M181.68,619.319c.129-1.4-1.333-2.916.611-4.017C183.539,617.065,183.435,617.8,181.68,619.319Z" transform="translate(20.304 27.529)" fill="#814628"/>
      <path id="Path_605" data-name="Path 605" d="M184.717,588.755q.016-.128.039-.256l1.311-2.466,1.052.275c-.171.361-.324.73-.513,1.081a10.81,10.81,0,0,1-1.665,2.437Z" transform="translate(21.312 18.966)" fill="#8b553a"/>
      <path id="Path_606" data-name="Path 606" d="M136.543,622.423c-.041.65.058,1.26-.914,1.516-.521.137-.871.895-1.543,1.647l.521-3.106.305-.119.442.675,1.193-.609Z" transform="translate(6.498 29.595)" fill="#a86b4b"/>
      <path id="Path_607" data-name="Path 607" d="M160.337,574.011c-.362.115-.8.416-1.073.312-1.254-.487-2.462-1.087-3.688-1.647,1,.149,2.022.224,3,.47A9.2,9.2,0,0,1,160.337,574.011Z" transform="translate(12.786 15.058)" fill="#121313"/>
      <path id="Path_608" data-name="Path 608" d="M178.431,556.044q-.8,2.28-1.592,4.56l-.428-.162C176.046,558.616,177.751,557.547,178.431,556.044Z" transform="translate(18.867 10.192)" fill="#f2d6be"/>
      <path id="Path_609" data-name="Path 609" d="M169,639.637,166.115,642l-.38-.156q-.035-.772-.072-1.542C167,641.187,167.891,639.89,169,639.637Z" transform="translate(15.737 34.649)" fill="#f5f3f1"/>
      <path id="Path_610" data-name="Path 610" d="M177.826,600.34l.742-.125a4.361,4.361,0,0,1-1.351,3.292h0Z" transform="translate(19.117 23.115)" fill="#995029"/>
      <path id="Path_611" data-name="Path 611" d="M197.118,616.886l1.019-1.848C198.6,616.023,198.272,616.713,197.118,616.886Z" transform="translate(24.94 27.452)" fill="#995029"/>
      <path id="Path_612" data-name="Path 612" d="M177.389,602.762l-.427.768-.333-.273.76-.5Z" transform="translate(18.945 23.86)" fill="#995029"/>
      <path id="Path_613" data-name="Path 613" d="M198.464,614.712l-.4-.726.278-.168.452.726Z" transform="translate(25.216 27.095)" fill="#995029"/>
      <path id="Path_614" data-name="Path 614" d="M115.07,584.235l.535-1.234Z" transform="translate(0.934 18.079)" fill="#fff"/>
      <path id="Path_615" data-name="Path 615" d="M189.4,612.2l.1-.12c-.006.023,0,.054-.019.066a.439.439,0,0,1-.093.043Z" transform="translate(22.678 26.586)" fill="#0c0907"/>
      <path id="Path_616" data-name="Path 616" d="M127.778,639.759l.823,1.1a36.092,36.092,0,0,1-3.034,4.2,18.875,18.875,0,0,0-3.857,6c-.355.869-.588,1.789-.981,2.639-.137.3-.588.459-.9.683-.352-.489-1.109-1.118-.991-1.443,1.039-2.862,2.1-5.731,4.174-8.1,1.3-1.485,2.523-3.043,3.816-4.537A3.341,3.341,0,0,1,127.778,639.759Z" transform="translate(2.035 34.685)" fill="#0f0f0e"/>
      <path id="Path_617" data-name="Path 617" d="M174.237,636.382l1.746-2.828,1,3.38C175.879,637.632,175.16,636.521,174.237,636.382Z" transform="translate(18.245 32.869)" fill="#64341d"/>
      <path id="Path_618" data-name="Path 618" d="M133.414,636.3l.87-.523.807.244-.392.3Z" transform="translate(6.301 33.521)" fill="#0f0f0e"/>
      <path id="Path_619" data-name="Path 619" d="M134.513,637.559l.234-.876.264.7Z" transform="translate(6.623 33.785)" fill="#0f0f0e"/>
      <path id="Path_620" data-name="Path 620" d="M126.592,640.67l.561-.5Z" transform="translate(4.306 34.806)" fill="#0f0f0e"/>
      <path id="Path_621" data-name="Path 621" d="M130.62,637.889l.482-.019Z" transform="translate(5.484 34.132)" fill="#0f0f0e"/>
      <path id="Path_622" data-name="Path 622" d="M132.239,637.783l.377-.036Z" transform="translate(5.958 34.096)" fill="#0f0f0e"/>
      <path id="Path_623" data-name="Path 623" d="M129.6,638.227l.433-.111Z" transform="translate(5.186 34.204)" fill="#0f0f0e"/>
      <path id="Path_624" data-name="Path 624" d="M128.783,638.75l.1-.035-.034.084Z" transform="translate(4.947 34.379)" fill="#0f0f0e"/>
      <path id="Path_625" data-name="Path 625" d="M128.3,639.161l.137-.243Z" transform="translate(4.804 34.439)" fill="#0f0f0e"/>
      <path id="Path_626" data-name="Path 626" d="M132.993,637.643l.24-.1A.766.766,0,0,0,132.993,637.643Z" transform="translate(6.178 34.036)" fill="#0f0f0e"/>
      <path id="Path_627" data-name="Path 627" d="M129.943,617.823c-1-1.116-2-2.225-2.986-3.352-.428-.49-.79-1.034-1.216-1.525-1.284-1.476-1.393-3.319-1.683-5.1q-.77-4.746-1.5-9.5a4.268,4.268,0,0,1,.025-.8c.867-.27,1.49-1.454,2.619-.711a2.96,2.96,0,0,1,.923.907c1.38,2.338,2.806,4.658,4.054,7.065,1.277,2.464,2.411,5.1,1.932,7.893C131.8,614.475,130.693,616.119,129.943,617.823Z" transform="translate(3.121 22.055)" fill="#f1b3c2"/>
      <path id="Path_628" data-name="Path 628" d="M173.6,595.227c.5,1.613-.662,2.919-.849,4.406-.339,2.677-1.247,5.225-1.521,7.96-.209,2.1.277,4.339-.592,6.3-.434.979-1.623,1.635-2.471,2.438-.337-.362-.839-.67-.986-1.095a42.124,42.124,0,0,1-1.662-5.484,29.921,29.921,0,0,1-.648-6.067C164.911,599.606,169.39,595.382,173.6,595.227Z" transform="translate(15.505 21.656)" fill="#f0b2c1"/>
      <path id="Path_629" data-name="Path 629" d="M163.9,580.88a.777.777,0,0,1,.065.221l.834.295.275.273-.562.273-.284.58.829.26-.025-.032c-.016.221-.127.58-.032.644,1.166.781.813,1.984.918,3.194-1.9-3.637-4.613-5.422-8.866-4.236.548,1.29.649,1.32,3.463,1.152,1,1.211-1.15,2.925,1.141,3.936l-.485.244c-1.789.337-3.566.774-5.371.985-1.751.206-3.531.178-5.422.26.525-.9,2.29-1.238.676-2.455-.212-.159-.08-.755-.122-1.342-.879,1.57-3.352,1.894-2.645,4.405-.368-.26-.751-.423-.735-.536.141-1.1-.927-2.1-.222-3.26.171-.281.567-.9-.255-1.083.414-.538.711-1.29,1.26-1.573a41.863,41.863,0,0,1,6.842-3.112c1.564-.472,3.392-.116,5.1-.1a6.092,6.092,0,0,1,1.165.24c.071.354.025.844.244,1.028.274.23.92.49.808-.4a5.58,5.58,0,0,1,.617-.138h.005l.278.533-.336.7.339.083v-.778Z" transform="translate(10.299 17.121)" fill="#121211"/>
      <path id="Path_630" data-name="Path 630" d="M140.8,585.146l.286.067.01.455c-.039.858-1.351,1.359-.707,2.408a10.206,10.206,0,0,1-2.55,1.309,14.5,14.5,0,0,1-3.429,0c-1.833-.084-3.664-.211-5.5-.321.189-1.308.237-1.326,2.568-1.122l-.412-3.811c-3.122-.442-3.782,2.9-5.9,4.26.084-2.091,1.638-3.363,2.807-4.838l-.191-.363-1.578.547c.038-1.243.994-1.664,1.97-1.913,1.053-.27,2.429-.016,3.178-.593,1.305-1,2.545.173,3.752-.322.34-.14.841.1,1.268.164.159.283.283.778.482.81a12.038,12.038,0,0,0,1.956.023l.07.279.2.536.64.3a.55.55,0,0,0,0,.243l.549.279Zm-1.89,0c.291-.147.584-.288.861-.459a3.692,3.692,0,0,0-.2-.4l-.706.357a1.429,1.429,0,0,0-.467-.224,3.009,3.009,0,0,0-1.359.025c-.181.082-.269.851-.09,1.085a1.385,1.385,0,0,0,1.137.366C138.4,585.841,138.638,585.408,138.909,585.145Zm-.345-1.695c.075-.035.184-.054.207-.107s-.04-.142-.066-.215l-.269.14Z" transform="translate(3.887 17.438)" fill="#121211"/>
      <path id="Path_631" data-name="Path 631" d="M167.953,633.474v1.936c-8.864,2.606-17.527.848-26.3-1.3a6.6,6.6,0,0,1,.759-1.788,1.97,1.97,0,0,1,1.449-.692c2.157.257,4.285.769,6.443.989,2.934.3,5.9.31,8.828.645,2.377.271,4.6-.469,6.913-.609Q167,633.064,167.953,633.474Z" transform="translate(8.711 32.304)" fill="#eab1b5"/>
      <path id="Path_632" data-name="Path 632" d="M142.32,584.126c0,1.947.292,3.732-.072,5.377a45.1,45.1,0,0,1-2.263,6.334,21.066,21.066,0,0,0-1.021,2.112,1.841,1.841,0,0,0,.344,1.541c.721.692,1.683,1.136,2.462,1.781.363.3.787.871.725,1.25a.865.865,0,0,1-1.371.659,25.616,25.616,0,0,1-4.105-3.019,2.34,2.34,0,0,1-.025-2.871c1.62-2.875,3.14-5.845,3.389-9.194.182-2.449.3-4.944-1.594-7-.287-.31-.211-.942-.3-1.424.526.045,1.178-.087,1.558.169C141.632,580.908,142.024,582.6,142.32,584.126Z" transform="translate(7.21 17.105)" fill="#121313"/>
      <path id="Path_633" data-name="Path 633" d="M146.766,612.765a15.924,15.924,0,0,1-7.582-1.245,6.775,6.775,0,0,1-2.12-1.427c-.259-.262-.069-.95-.081-1.444a5.471,5.471,0,0,1,1.458.1c1.708.593,3.339,1.565,5.089,1.841a19.2,19.2,0,0,0,10.924-1.36c1.551-.685,3.185-1.171,4.3-2.55a1.223,1.223,0,0,1,.644-.487,9.385,9.385,0,0,1,1.485.028c-.04.455.1,1.081-.153,1.335a10.031,10.031,0,0,1-2.912,2.43C154.277,611.447,150.777,613.211,146.766,612.765Z" transform="translate(7.329 24.856)" fill="#181919"/>
      <path id="Path_634" data-name="Path 634" d="M163.193,575.956c-.964.173-1.94.3-2.89.533-1.137.275-2.236.723-3.381.945-2.477.482-4.965.922-7.463,1.263a12.11,12.11,0,0,1-2.544-.145c-.041-.757-.318-1.551-.052-1.81a4.965,4.965,0,0,1,2.124-1.14,31.7,31.7,0,0,1,9.91-1.476c1.521.081,3.083-.048,4.32,1.088Z" transform="translate(10.203 15.474)" fill="#121211"/>
      <path id="Path_635" data-name="Path 635" d="M123.65,580.441l-.673-.711c1.122-.726,2.13-1.455,3.211-2.059,1.887-1.052,3.721-2.257,6.106-1.888,1.127.174,2.373-.142,3.423.191a16.282,16.282,0,0,1,4.1,2.059c.728.49-.187,3.182-1.037,3.094a3.746,3.746,0,0,1-2.425-1.242c-.708-.968-1.695-.764-2.537-1.039a9.892,9.892,0,0,0-3.474-.638,17.881,17.881,0,0,0-4.237.915A14.777,14.777,0,0,0,123.65,580.441Z" transform="translate(3.248 15.947)" fill="#151615"/>
      <path id="Path_636" data-name="Path 636" d="M125.65,569.243a3.7,3.7,0,0,1,.118-1.135c1.413-3.2,2.8-6.406,4.328-9.547a35.732,35.732,0,0,1,2.7-4.273c.075-.111.745-.036.9.146a5.589,5.589,0,0,1,.651,1.293l-1.45,2.464c-.681,1.159-1.321,2.345-2.051,3.473-1.047,1.617-2.156,3.194-3.246,4.784C126.957,567.384,126.3,568.311,125.65,569.243Z" transform="translate(4.03 9.663)" fill="#64341d"/>
      <path id="Path_637" data-name="Path 637" d="M120.98,583.308c-.253-1.593-.52-3.184-.745-4.779a1.31,1.31,0,0,1,.229-.677q1.367-2.647,2.754-5.285c1.021-1.945,2.031-3.9,3.089-5.82a4.127,4.127,0,0,1,.9-.857c.006.132.062.287.01.39-.852,1.714-1.816,3.381-2.553,5.141-.777,1.857-1.392,3.786-1.983,5.712C122.06,579.173,121.544,581.247,120.98,583.308Z" transform="translate(2.445 13.072)" fill="#64341d"/>
      <path id="Path_638" data-name="Path 638" d="M144.719,613.958a9.834,9.834,0,0,1,2.151.3,1.4,1.4,0,0,1,.7,1.084c.005.242-.608.7-.955.71a15.091,15.091,0,0,1-3.41-.194c-.469-.092-.823-.742-1.231-1.137a8.466,8.466,0,0,1,1.512-.779,3.455,3.455,0,0,1,1.219.09Z" transform="translate(8.807 27.12)" fill="#181919"/>
      <path id="Path_639" data-name="Path 639" d="M159.357,631.385c-2.727.006-5.456.021-8.185.009a2.245,2.245,0,0,1-.694-.252c2.38-.261,4.755-.6,7.143-.729C158.179,630.384,158.778,631.043,159.357,631.385Z" transform="translate(11.294 31.95)" fill="#81b5b5"/>
      <path id="Path_640" data-name="Path 640" d="M159.471,575.7l.023-.742,3.459.414C162.506,576.277,161.549,576.384,159.471,575.7Z" transform="translate(13.925 15.727)" fill="#3f3d3d"/>
      <path id="Path_641" data-name="Path 641" d="M136.27,581.873a12.025,12.025,0,0,1-1.956-.023c-.2-.032-.323-.527-.482-.81C134.885,580.645,135.511,581.444,136.27,581.873Z" transform="translate(6.424 17.474)" fill="#232323"/>
      <path id="Path_642" data-name="Path 642" d="M160.566,581.5l.562-.273c1.065.014,1.207.636,1.088,1.492l-1.131-.411.025.032Z" transform="translate(14.246 17.56)" fill="#302f2f"/>
      <path id="Path_643" data-name="Path 643" d="M159.86,580.514a5.6,5.6,0,0,0-.617.138c.112.892-.534.632-.808.4-.22-.184-.173-.673-.244-1.028Z" transform="translate(13.551 17.209)" fill="#302f2f"/>
      <path id="Path_644" data-name="Path 644" d="M137.379,584.527l-.531-1.6Z" transform="translate(7.306 18.057)" fill="#232323"/>
      <path id="Path_645" data-name="Path 645" d="M160.977,581.085l-.834-.295Z" transform="translate(14.122 17.432)" fill="#302f2f"/>
      <path id="Path_646" data-name="Path 646" d="M159.764,580.938l-.278-.533.785.277-.5.258Z" transform="translate(13.93 17.319)" fill="#302f2f"/>
      <path id="Path_647" data-name="Path 647" d="M137.49,584.672l-.01-.455.251.345Z" transform="translate(7.491 18.434)" fill="#232323"/>
      <path id="Path_648" data-name="Path 648" d="M136.426,582.765a.551.551,0,0,1,0-.243l.229.038Z" transform="translate(7.179 17.939)" fill="#232323"/>
      <path id="Path_649" data-name="Path 649" d="M135.975,582.412l-.2-.536Z" transform="translate(6.991 17.75)" fill="#232323"/>
      <path id="Path_650" data-name="Path 650" d="M170.372,574.549l.273.608Z" transform="translate(17.115 15.606)" fill="#63321b"/>
      <path id="Path_651" data-name="Path 651" d="M182.3,580.957c1.921,1.468,2.13,3.714,2.2,5.912a57.19,57.19,0,0,1-.273,6.429,8.354,8.354,0,0,1-.676,2.311,25.374,25.374,0,0,1-1.952,4.5,14.735,14.735,0,0,1-2.889,2.745c-.469.411-1.02.736-1.634,1.171.194-5.526.817-11.028-.206-16.448a2.628,2.628,0,0,0,.443-.761c.231-1.256.389-2.526.61-3.785.2-1.157,1.038-1.591,2.141-1.714C180.767,581.237,181.452,581.1,182.3,580.957Z" transform="translate(19.019 17.481)" fill="#fcfcfc"/>
      <path id="Path_652" data-name="Path 652" d="M163.674,569.508l-.561-.816Z" transform="translate(14.991 13.892)" fill="#63321b"/>
      <path id="Path_653" data-name="Path 653" d="M172.549,598.379l-.125.112c.005-.027,0-.063.017-.078a.348.348,0,0,1,.1-.044Z" transform="translate(17.715 22.575)" fill="#63321b"/>
      <path id="Path_654" data-name="Path 654" d="M129.127,637.092l.852-.4-.635.853Z" transform="translate(5.047 33.787)" fill="#0f0f0e"/>
      <path id="Path_655" data-name="Path 655" d="M131.292,636.451l.819-.206Z" transform="translate(5.681 33.657)" fill="#0f0f0e"/>
      <path id="Path_656" data-name="Path 656" d="M128.475,636.414l.317.535Z" transform="translate(4.856 33.706)" fill="#0f0f0e"/>
      <path id="Path_657" data-name="Path 657" d="M129.857,636.63l.544-.036Z" transform="translate(5.261 33.759)" fill="#0f0f0e"/>
      <path id="Path_658" data-name="Path 658" d="M130.638,636.448l.207-.189.116.181Z" transform="translate(5.489 33.661)" fill="#0f0f0e"/>
      <path id="Path_659" data-name="Path 659" d="M118.082,560.744c-.2.043-.319.106-.408.075-.065-.022-.087-.165-.128-.256.072-.028.162-.1.213-.076A1.585,1.585,0,0,1,118.082,560.744Z" transform="translate(1.659 11.49)" fill="#63321b"/>
      <path id="Path_660" data-name="Path 660" d="M160.63,581.44l.544.84-.829-.26Z" transform="translate(14.181 17.622)" fill="#fefefe"/>
      <path id="Path_661" data-name="Path 661" d="M159.78,580.819v.778l-.339-.083.336-.7Z" transform="translate(13.916 17.44)" fill="#302f2f"/>
      <path id="Path_662" data-name="Path 662" d="M136.262,584.344c-.27.264-.512.7-.819.748a1.385,1.385,0,0,1-1.137-.366c-.178-.234-.09-1,.09-1.085a3.01,3.01,0,0,1,1.359-.025,1.43,1.43,0,0,1,.467.224Z" transform="translate(6.534 18.239)" fill="#f5f3f1"/>
      <path id="Path_663" data-name="Path 663" d="M135.806,584.358l-.041-.5.706-.357a3.688,3.688,0,0,1,.2.4C136.391,584.07,136.1,584.211,135.806,584.358Z" transform="translate(6.989 18.224)" fill="#232323"/>
      <path id="Path_664" data-name="Path 664" d="M135.559,582.926l-.128-.182.269-.14c.026.072.089.162.066.215S135.634,582.891,135.559,582.926Z" transform="translate(6.892 17.963)" fill="#232323"/>
    </g>
  </g>
</svg>
