<svg xmlns="http://www.w3.org/2000/svg" xmlns:xlink="http://www.w3.org/1999/xlink" width="198" height="198" viewBox="0 0 198 198">
  <defs>
    <clipPath id="clip-member05">
      <rect width="198" height="198"/>
    </clipPath>
  </defs>
  <g id="member05" clip-path="url(#clip-member05)">
    <rect width="198" height="198" fill="#66e2fa"/>
    <g id="Group_5" data-name="Group 5" transform="translate(-85.862 -94.96)">
      <path id="Path_665" data-name="Path 665" d="M113.739,197.077l.16-3.048c1.539.356,1.9-.026,1.535-1.569a9.655,9.655,0,0,1-.321-1.779c-.162-3.508-.35-7.018-.409-10.529-.071-4.232-.175-8.476.956-12.624.4-1.448.7-2.922,1.114-4.363.925-3.191,1.682-6.454,2.908-9.527a74.828,74.828,0,0,1,4.485-8.936c1.331-2.358,3.036-4.5,4.39-6.85.761-1.318,2.665-1.721,2.691-3.549l4.084-3.68c1.039.714,1.566-.266,2.2-.72a26.3,26.3,0,0,1,2.8-2.221c2.783-1.455,5.622-2.82,8.505-4.064a20.949,20.949,0,0,1,4.973-1.517c2.516-.394,5.085-.44,7.625-.693a74.9,74.9,0,0,1,14.82.5c4.743.467,8.728,2.662,12.7,4.872a65.749,65.749,0,0,1,7.977,5.481,45.242,45.242,0,0,1,5.865,5.273,17.57,17.57,0,0,1,3.428,5.375c1.284,3.206,3.265,6.127,4.844,9.223,1.421,2.787,2.751,5.625,4.025,8.482,1.584,3.548,3.229,7.081,4.556,10.726,1.743,4.792,1.428,9.87,1.543,14.869a13.458,13.458,0,0,0-.2,2.458c.318,1.387-.534,3.1,1.073,4.144a6.977,6.977,0,0,1-.422,5.789c-.046-1.214-.042-2.433-.162-3.639a4.559,4.559,0,0,0-.581-1.308l-.443.167c-.053.238-.115.473-.156.712a34.741,34.741,0,0,1-1.051,5.743c-1.1,3.064-2.5,6.024-3.875,8.978-1.5,3.216-3.294,6.309-4.651,9.583-1.118,2.7-1.794,5.576-2.646,8.379-.175.579-.075,1.356-.428,1.744-1.135,1.247-2.424,2.354-3.7,3.555a6.447,6.447,0,0,1-.11-.721c-.156-2.888,1.1-5.413,2.116-7.984a43.734,43.734,0,0,0,3.11-10.9c.306-2.59.914-5.144,1.337-7.723.2-1.233.287-2.486.424-3.73l-.589-.212a5.132,5.132,0,0,0-.9,1.316,35.36,35.36,0,0,0-.917,3.928,74.812,74.812,0,0,1-5.671,17.531c-1.126,2.532-2.046,5.155-3.113,7.714a14.187,14.187,0,0,1-1.482,2.764c-.254.356-.918.42-1.4.617a4.323,4.323,0,0,1-.391-1.174,7.042,7.042,0,0,1,1.19-3.995c2.233-3.617,4.533-7.214,5.493-11.456.333-1.474.926-2.89,1.206-4.371a42.841,42.841,0,0,0,.843-6.229,85.587,85.587,0,0,0-.1-9.24,17.756,17.756,0,0,0-1.217-5.183,28.886,28.886,0,0,0-2.651-4.744,13.284,13.284,0,0,0-1.72-1.853l-.471.316a10.321,10.321,0,0,0,.4,1.3c.539,1.182,1.121,2.344,1.686,3.515-2.037-.761-2.848-2.889-4.522-4.054l.3-.625,2.68-.971a49.608,49.608,0,0,1-11.71-23.711,4.821,4.821,0,0,0-.545,4.171c.735,2.6,1.747,5.126,2.592,7.7a31.754,31.754,0,0,0,6.513,11.312c.322.363.33,1,.485,1.514l-.633.349a13.4,13.4,0,0,0,.079,1.721c.407,2.408-1.259,4.073-3.407,3.368,1.9-1.133,1.929-1.71.523-3.735-1.574-2.267-3.15-4.547-4.523-6.939-1.978-3.443-3.887-6.935-5.616-10.509-2.12-4.38-4.02-8.867-6.031-13.3-.087-.19-.316-.316-.848-.824a11.88,11.88,0,0,0,.212,3.028c1.228,3.252,2.49,6.5,3.934,9.659,1.586,3.477,3.348,6.876,5.1,10.273,1.464,2.832,3.053,5.6,4.543,8.419.663,1.255,1.214,2.568,1.817,3.856-1.9-.5-3.814-.924-5.682-1.509a5.036,5.036,0,0,1-2.995-3.144l2.378-.178c.47-1.425-.224-2.18-1.036-2.949-2.184-2.065-4.425-4.083-6.464-6.285a55.694,55.694,0,0,1-8.444-12.954c-1.2-2.377-2.888-4.739-2.075-7.726.062-.228-.319-.577-.494-.871l-.63.111c-.016,1.409-.4,2.941.02,4.2a48.787,48.787,0,0,0,3.992,9.75c2.535,4.212,5.692,8.048,8.584,12.042-.744,1.179-1.506,0-2.243-.034-2.306-.1-4.6-.382-6.905-.594.124-1.232-.539-1.9-1.322-2.861a73.45,73.45,0,0,1-6.756-9.9,36.97,36.97,0,0,1-3.288-8.1c-.979-3.419-2.759-6.761-1.8-10.535.024-.094-.14-.236-.255-.416a1.543,1.543,0,0,0-1.187,1.963c.424,2.926.967,5.834,1.449,8.751.731,4.417,2.835,8.277,5.1,12.017,1.831,3.022,4,5.839,6.023,8.747-1-.228-2.014-.4-2.994-.693-2.166-.648-4.412-1.168-5.953-3.048a7.242,7.242,0,0,1-1.239-1.281c-1.449-2.5-2.9-5-4.216-7.563-.75-1.457-1.251-3.042-1.864-4.571L150.5,162.01c.846-2.763.469-5.6.592-8.463a5.13,5.13,0,0,0-1.2,2.359c-.333,1.722-.4,3.506-.823,5.2a34.431,34.431,0,0,1-4.693,11.01c-2.217,3.284-4.4,6.586-6.638,9.858-.7,1.032-1.514,1.99-2.276,2.981l-2.966-.1c1.263-1.74,2.612-3.426,3.771-5.233,1.679-2.619,3.235-5.316,4.807-8a5.075,5.075,0,0,0,.513-1.547,21.826,21.826,0,0,1,.355-2.276c.8-2.476,1.77-4.9,2.484-7.4a36.346,36.346,0,0,0,.7-4.768c-.455.333-.584.376-.6.448a39.548,39.548,0,0,1-6.2,13.608c-3.531,4.913-6.74,10.057-10.089,15.1a9.811,9.811,0,0,1-1.715,2.158c-1.368.977-2.9,1.725-4.363,2.57.936-1.881,1.816-3.794,2.822-5.637,1.392-2.547,3.1-4.945,4.277-7.583,1.7-3.806,3.062-7.765,4.539-11.669a4.807,4.807,0,0,0,.12-1.255c-.446.316-1.07.539-1.3.971-.42.788-.493,1.759-.909,2.551-2.293,4.37-4.587,8.74-7,13.046-1.707,3.048-3.564,6.016-5.428,8.974a6.536,6.536,0,0,0-1.351,3.814c.068,1.645.053,3.292.1,4.937.043,1.535-.27,3.218.25,4.575,1.766,4.607,1.318,9.521,2.317,14.218.481,2.253.816,4.541,1.4,6.767.486,1.862,1.26,3.648,1.859,5.485.818,2.51,1.024,5.236,2.672,7.454a.856.856,0,0,1,.071.7c-.58,1.44-1.141,2.893-1.84,4.274a1.434,1.434,0,0,1-1.24.61c-.512-.225-1.174-.791-1.227-1.274-.352-3.271-.517-6.56-.834-9.835-.2-2.037-.46-4.079-.86-6.086q-1.127-5.69-2.461-11.34c-.727-3.062-1.709-6.066-2.384-9.138-.482-2.2-.623-4.469-.964-6.7C114.678,196.69,114.406,196.063,113.739,197.077Z" transform="translate(4.132 0.617)" fill="#55301a"/>
      <path id="Path_666" data-name="Path 666" d="M202.93,180.879c-.565-1.171-1.146-2.333-1.686-3.515a10.323,10.323,0,0,1-.4-1.3l.471-.316a13.282,13.282,0,0,1,1.72,1.853,28.885,28.885,0,0,1,2.651,4.744,17.756,17.756,0,0,1,1.217,5.183,85.587,85.587,0,0,1,.1,9.24,42.841,42.841,0,0,1-.843,6.229c-.28,1.48-.873,2.9-1.206,4.371-.96,4.242-3.26,7.839-5.493,11.456a7.042,7.042,0,0,0-1.19,3.995,4.323,4.323,0,0,0,.391,1.174c.478-.2,1.142-.261,1.4-.617a14.187,14.187,0,0,0,1.482-2.764c1.068-2.559,1.987-5.182,3.113-7.714a74.812,74.812,0,0,0,5.671-17.531,35.361,35.361,0,0,1,.917-3.928,5.132,5.132,0,0,1,.9-1.316l.589.212c-.137,1.244-.223,2.5-.424,3.73-.422,2.579-1.031,5.133-1.337,7.723a43.735,43.735,0,0,1-3.11,10.9c-1.013,2.571-2.272,5.1-2.116,7.984a6.446,6.446,0,0,0,.11.721c1.271-1.2,2.56-2.308,3.7-3.555.353-.388.253-1.165.428-1.744.852-2.8,1.528-5.683,2.646-8.379,1.357-3.273,3.147-6.366,4.651-9.583,1.38-2.954,2.779-5.914,3.875-8.978a34.741,34.741,0,0,0,1.051-5.743c.041-.239.1-.474.156-.712l.443-.167a4.559,4.559,0,0,1,.581,1.308c.12,1.206.115,2.425.162,3.639-.75,2.487-1.433,5-2.267,7.456-.7,2.07-1.565,4.088-2.382,6.119-1.1,2.731-2.308,5.424-3.3,8.193-.562,1.569-.743,3.269-1.182,4.888-.144.531-.641.962-.82,1.491a.919.919,0,0,0,.1.661l-3.367,5.857-1.406-.205.27.326c-.856.922-1.6,2.45-2.59,2.626-1.444.254-2.84-.785-3.548-2.438-1.164,1.608-2.021,3.6-4.273,3.374-.815-.082-1.542-1.042-2.653-1.853-.428.511-1.168,1.392-1.906,2.278-.024.03.02.125,0,.147-3.341,2.835-1.362,6.656-1.817,10.016a36.11,36.11,0,0,0-.034,4.719c.777-.39,1.471-.74,2.168-1.087,1.017-.505,2,.056,1.7,1.116-.507,1.789.473,2.26,1.836,2.522,1.117.215,2.247.349,3.371.52,1.239.2,2.488.353,3.712.619,6.119,1.338,12.275,2.543,18.332,4.118a121.626,121.626,0,0,1,12.712,4.211,84.278,84.278,0,0,1,8.435,4.034,23.129,23.129,0,0,1,4.4,2.734c2.195,1.861,4.22,3.928,6.266,5.96a7.237,7.237,0,0,1,1.595,2.147c1,2.333,1.868,4.728,2.786,7.1-.08.7-.192,1.388-.23,2.085-.039.742-.008,1.486-.008,2.084l3.915-.329c.17.864.334,1.722,1.565,1.533.069-.011.2.393.308.6a7.851,7.851,0,0,1-1.792,1.152c-1.142.356-2.362.452-3.527.743-.8.2-.607.7-.205,1.182l.049.026-2.075.425c-1.059-1.49-2.551-.595-4.014-.125a7.323,7.323,0,0,0-1.9-.262c-2.111.27-4.2.7-6.315.967a14.516,14.516,0,0,1-2.593-.128c-.489-.022-.994.217-1.5.23-1.411.034-2.832-.124-4.236-.027-2.624.182-5.252.4-7.856.767a90.826,90.826,0,0,1-14.525,1.107c-.513-.011-1.015-.8-1.521-.8a38.87,38.87,0,0,0-6.431.331,56.415,56.415,0,0,1-8.783,1.091c-3.211.039-6.423-.083-9.636-.111-1.68-.015-3.363-.023-5.042.049-1.21.053-2.414.243-3.62.372-2.285-.136-4.568-.342-6.855-.391-3.967-.086-7.938-.069-11.907-.1-3.95-.034-7.9-.046-11.85-.124-2.949-.058-5.9-.182-8.842-.318-3.6-.167-7.2-.338-10.8-.589-1.512-.106-3.007-.422-4.511-.644.2-.288.412-.568.591-.867.224-.372.421-.759.63-1.14l.435-.046.02,0a.125.125,0,0,1,.148.126l.27.159c2,.048,3.993.1,5.99.14q9,.167,17.994.321c5.474.087,10.946.192,16.42.215,5.356.022,10.713-.037,16.07-.09.983-.01,1.968-.257,2.947-.224,2.756.091,5.51.416,8.262.386,5.324-.057,10.646-.291,15.968-.456,2.681-.083,5.364-.145,8.041-.277,3.1-.152,6.2-.331,9.3-.572q3.675-.287,7.339-.758c3.257-.413,6.492-1.126,9.758-1.288,2.336-.115,4.629-.073,6.828-1,.254-.107.6.012.9,0a10.613,10.613,0,0,0,1.349-.122c.769-.141,1.528-.33,2.081-.454a13.34,13.34,0,0,0-.035-2.8,24.776,24.776,0,0,0-1.455-4.92,23.2,23.2,0,0,0-3.013-5.159,36.157,36.157,0,0,0-4.41-4.016c-.618-.543-1.274-1.043-1.918-1.558a24.555,24.555,0,0,0-2.6-2.036,32.472,32.472,0,0,0-3.223-1.493c-3.15-1.449-6.268-2.973-9.458-4.332a69.79,69.79,0,0,0-6.707-2.415c-3.529-1.092-7.064-2.191-10.656-3.045-4.755-1.13-9.566-2.029-14.354-3.026-2.616-.853-5.065-1.337-7.814.14-1.953,1.051-4.42,1.155-6.661,1.661-3.12.7-6.219,1.528-9.371,2.04-3.659.6-7.408.689-11.037,1.407-3.685.729-7.2.027-10.8-.344-1.489-.153-3.056-1.058-4.619.063a2.517,2.517,0,0,1-1.983.4c-1.671-.622-2.677.477-3.89,1.153a35.322,35.322,0,0,1-3.283,1.634c-4.868,2.081-9.809,4-14.611,6.229-3.037,1.407-6,3.132-7.709,6.222-.973,1.756-1.744,3.628-2.545,5.475a40.786,40.786,0,0,0-2.582,6.457c-.414,1.72-1.22,2.351-2.787,2.438l.019.045a14.164,14.164,0,0,1-.266-3.279,11.406,11.406,0,0,1,1.194-3.462c1.559-3.062,3.476-5.965,4.782-9.123,1.262-3.048,3.97-4.077,6.391-5.544,5.449-3.3,11.576-5.007,17.477-7.245,1.592-.6,3.086-1.472,4.689-2.04a15.434,15.434,0,0,1,3.063-.436l.5-1.417.149.359c.767-.231,1.546-.433,2.3-.7a4.36,4.36,0,0,0,1.335-.671,2.394,2.394,0,0,0,.914-1.22c.118-.788-.153-1.631-.057-2.427.219-1.792-.623-2.6-2.257-3.1a34.4,34.4,0,0,1-5.275-2.1,35.393,35.393,0,0,1-3.819-2.471c-.849-.568-1.7-1.134-2.518-1.743-.712-.53-1.69-.983-2-1.707-.761-1.747-2.438-2.017-3.788-2.827-.478-.287-.964-.562-1.369-.8-.709,1.7-1.231,3.276-2.8,4.175a3.929,3.929,0,0,1-4.06-.33,3.652,3.652,0,0,1-2.241-3.419c-.09-4.122-.656-8.234-1.053-12.347-.129-1.342-.308-2.681-.507-4.015-.536-3.589-1.017-7.188-1.667-10.756s-1.573-7.078-2.175-10.647a30.815,30.815,0,0,1-.062-4.962c.667-1.013.939-.387,1.043.3.341,2.232.482,4.5.964,6.7.675,3.072,1.657,6.077,2.384,9.138q1.341,5.644,2.461,11.34c.4,2.008.663,4.049.86,6.086.316,3.275.482,6.564.834,9.835.053.484.714,1.049,1.227,1.274a1.434,1.434,0,0,0,1.24-.61c.7-1.381,1.26-2.835,1.84-4.274a.856.856,0,0,0-.071-.7c-1.648-2.218-1.854-4.944-2.672-7.454-.6-1.836-1.373-3.623-1.859-5.485-.581-2.226-.917-4.514-1.4-6.767-1-4.7-.551-9.611-2.317-14.218-.52-1.357-.206-3.04-.25-4.575-.045-1.645-.03-3.292-.1-4.937a6.536,6.536,0,0,1,1.351-3.814c1.864-2.958,3.72-5.926,5.428-8.974,2.41-4.306,4.7-8.677,7-13.046.416-.792.489-1.763.909-2.551.23-.432.854-.655,1.3-.971a4.806,4.806,0,0,1-.12,1.255c-1.478,3.9-2.837,7.863-4.539,11.669-1.18,2.638-2.885,5.036-4.277,7.583-1.006,1.843-1.887,3.756-2.822,5.637a15.843,15.843,0,0,0-.748,2.27,32.439,32.439,0,0,0-.49,4.14,29.118,29.118,0,0,0,.012,5.758c.386,2.465,1.2,4.863,1.834,7.29.508,3.563,1.034,7.124,1.513,10.691.168,1.254.106,2.547.354,3.78.352,1.749.484,3.6,2.037,4.911a6.375,6.375,0,0,1,1.345,1.93c.53,1,.956,2.052,1.426,3.083.8,1.39,1.513,2.836,2.412,4.155a28.187,28.187,0,0,0,8.7,7.961,27.766,27.766,0,0,0,4.372,2.262c1.667.657,3.472.959,5.156,1.577a32.445,32.445,0,0,0,9.244,2.209,70.469,70.469,0,0,0,7.912.306c.86-.046.977-.048,1.023.812-.739.087-1.485.156-2.225.262-3,.432-6.111-.837-9.053.577-.1.05-.288-.057-.433-.094-1.27-.319-2.548-.611-3.807-.967-.9-.257-1.346.065-1.36.966a12.022,12.022,0,0,0,.083,3.193c.4,1.51.273,2.608-1.493,3.271a67.143,67.143,0,0,0,11.3-.2c6.032-.88,12.007-2.187,17.978-3.45a68.387,68.387,0,0,0,8.035-2.294c.542-.186,1.039-1.221,1.11-1.911a38.519,38.519,0,0,0-.053-4.243c-.019-1.88,0-3.758,0-5.957a10.823,10.823,0,0,1-1.7,1.73,12.061,12.061,0,0,1-2,.676c-.244.092-.42.356-.64.524A15.74,15.74,0,0,1,184.028,235c-2.516,1.391-5.03,2.794-7.613,4.05-1.357.659-1.734.413-2.661-1.005.728-.441,1.429-.928,2.183-1.313,1.683-.863,3.454-1.573,5.076-2.536a66.94,66.94,0,0,0,6.028-4.007,26.65,26.65,0,0,0,5.084-4.412c1.994-2.516,3.5-5.411,5.3-8.09a32.15,32.15,0,0,0,3.766-8.129c.918-2.842,1.691-5.736,2.363-8.645a43.6,43.6,0,0,0,.892-5.976c.145-1.635.061-3.292.045-4.94C204.46,186.879,204.9,183.671,202.93,180.879Z" transform="translate(2.239 11.738)" fill="#0d0c0c"/>
      <path id="Path_667" data-name="Path 667" d="M216.376,193.43c-1.607-1.043-.755-2.757-1.073-4.144a13.457,13.457,0,0,1,.2-2.458c-.115-5,.2-10.077-1.543-14.869-1.327-3.646-2.972-7.178-4.556-10.726-1.274-2.858-2.6-5.7-4.025-8.482-1.578-3.1-3.56-6.017-4.844-9.223a17.569,17.569,0,0,0-3.428-5.375,45.241,45.241,0,0,0-5.865-5.273,65.747,65.747,0,0,0-7.977-5.481c-3.976-2.21-7.961-4.4-12.7-4.872a74.9,74.9,0,0,0-14.82-.5c-2.54.253-5.11.3-7.625.693a20.949,20.949,0,0,0-4.973,1.517c-2.884,1.244-5.722,2.609-8.505,4.064a26.307,26.307,0,0,0-2.8,2.221c-.633.454-1.16,1.434-2.2.72-.12-2.507,1.5-3.622,3.485-4.6,1.777-.873,3.321-2.338,5.164-2.935,2.983-.966,5.558-3.128,8.948-2.976,1.2.054,2.425-.515,3.654-.642a67.309,67.309,0,0,1,7.8-.6,94.484,94.484,0,0,1,11,.71,45.469,45.469,0,0,1,8.113,1.949,34.975,34.975,0,0,1,9.354,5.141c2.07,1.472,4.254,2.784,6.362,4.2a12.937,12.937,0,0,1,2.165,1.721c1.709,1.8,3.436,3.587,4.971,5.528a24.883,24.883,0,0,1,2.107,3.813c1.16,2.169,2.327,4.334,3.465,6.514,1.03,1.968,2.05,3.942,3.029,5.934,1.4,2.856,2.909,5.673,4.1,8.617,1.066,2.626,1.8,5.39,2.617,8.113a30.69,30.69,0,0,1,1.077,4.508c.306,2.183.488,4.39.584,6.593.079,1.806-.062,3.622-.068,5.434a7.954,7.954,0,0,0,.168,2.514C218.237,192.243,217.4,192.846,216.376,193.43Z" transform="translate(9.826 0)" fill="#0f0f0e"/>
      <path id="Path_668" data-name="Path 668" d="M235.146,251.46c-.918-2.372-1.782-4.766-2.786-7.1a7.237,7.237,0,0,0-1.595-2.147c-2.046-2.032-4.071-4.1-6.266-5.96a23.13,23.13,0,0,0-4.4-2.734,84.276,84.276,0,0,0-8.435-4.034,121.624,121.624,0,0,0-12.712-4.211c-6.058-1.576-12.214-2.78-18.332-4.118-1.224-.266-2.473-.416-3.712-.619a15.058,15.058,0,0,1,6.7-2.169c9.929-.482,18.984,2.971,28.086,6.162a40.143,40.143,0,0,1,14.816,8.812C231.581,238.244,235.259,244,235.146,251.46Z" transform="translate(26.763 35.409)" fill="#b9b6d9"/>
      <path id="Path_669" data-name="Path 669" d="M131.626,130.891c-.026,1.828-1.93,2.232-2.691,3.549-1.354,2.346-3.059,4.492-4.39,6.85a74.828,74.828,0,0,0-4.485,8.936c-1.227,3.072-1.983,6.336-2.908,9.527-.417,1.441-.719,2.915-1.114,4.363-1.131,4.148-1.027,8.391-.956,12.624.058,3.511.247,7.021.409,10.529a9.654,9.654,0,0,0,.321,1.779c.369,1.543,0,1.925-1.535,1.569a16.416,16.416,0,0,1-1.593-7.841c.007-3.116-.02-6.234.125-9.345.122-2.631.569-5.246.691-7.875a34.218,34.218,0,0,1,1.839-9.546c.6-1.754,1.1-3.552,1.83-5.247a79.308,79.308,0,0,1,3.466-7.2c1.945-3.484,4.044-6.884,6.141-10.279a9.39,9.39,0,0,1,1.767-1.887A3.236,3.236,0,0,1,131.626,130.891Z" transform="translate(3.754 4.029)" fill="#0e0e0d"/>
      <path id="Path_670" data-name="Path 670" d="M160.9,253.28c1.206-.129,2.41-.319,3.62-.372,1.679-.072,3.362-.064,5.042-.049,3.212.029,6.425.151,9.635.111a56.415,56.415,0,0,0,8.783-1.091,38.873,38.873,0,0,1,6.431-.331c.507,0,1.008.792,1.521.8a90.826,90.826,0,0,0,14.525-1.107c2.6-.364,5.232-.585,7.856-.767,1.4-.1,2.825.061,4.236.027.511-.012,1.016-.251,1.5-.23a14.513,14.513,0,0,0,2.593.128c2.112-.262,4.2-.7,6.315-.967a7.321,7.321,0,0,1,1.9.262,26.23,26.23,0,0,1-4.5,1.679,137.1,137.1,0,0,1-15.712,2.426c-8.486.528-17.01.587-25.519.607-6.076.015-12.152-.333-18.228-.57C167.569,253.708,164.237,253.47,160.9,253.28Z" transform="translate(21.03 46.55)" fill="#b9b6d9"/>
      <path id="Path_671" data-name="Path 671" d="M128.394,250.286c-.209.38-.406.767-.63,1.14-.179.3-.393.579-.591.867-2.915-.773-5.815-1.615-8.75-2.3-4.231-.99-8.484-1.892-12.741-2.77a10.773,10.773,0,0,0-2.26.027,2.361,2.361,0,0,1-1.011-.064c-.158-.077-.254-.713-.182-.755a2.017,2.017,0,0,1,1.035-.3c2.581.124,5.159.287,7.737.439l-.019-.045,10.088,2.95Z" transform="translate(0 45.371)" fill="#18181a"/>
      <path id="Path_672" data-name="Path 672" d="M224.365,247.693c-.1-.211-.239-.614-.308-.6-1.231.189-1.395-.67-1.565-1.533,1.451-.246,1.991.653,2.275,1.839C224.782,247.458,224.5,247.591,224.365,247.693Z" transform="translate(43.094 45.152)" fill="#b1afae"/>
      <path id="Path_673" data-name="Path 673" d="M219.8,249.393l.041-.035s0,.06,0,.061A.308.308,0,0,0,219.8,249.393Z" transform="translate(42.131 46.528)" fill="#0d0c0c"/>
      <path id="Path_674" data-name="Path 674" d="M120.906,197.556c-.632-2.427-1.448-4.825-1.834-7.29a29.12,29.12,0,0,1-.012-5.758,32.439,32.439,0,0,1,.49-4.14,15.839,15.839,0,0,1,.748-2.27c1.463-.845,2.995-1.593,4.363-2.57a9.811,9.811,0,0,0,1.715-2.158,4.923,4.923,0,0,1,.6.8c.636,1.331,1.2,1.514,2.335.626a13.519,13.519,0,0,0,1.328-1.36l2.966.1c.854,2.05,1.2,2.111,2.581.393,1.169-1.457,2.407-2.875,3.43-4.433,2.158-3.283,4.334-6.569,6.228-10.006a47.24,47.24,0,0,0,2.457-6.422l.58.606.065.576.284.918h0c-.03.027-.088.065-.083.079a1.33,1.33,0,0,0,.109.183l.012.035.272.929c1.672,3.733,3.409,7.438,4.975,11.214a1.87,1.87,0,0,0,2.1,1.214c1.172-.1.422-1.134.543-1.755,1.542,1.88,3.787,2.4,5.953,3.048.979.292,1.994.465,2.994.693.606.557,1.165,1.4,2.036.33,2.3.212,4.6.5,6.905.594.736.03,1.5,1.213,2.243.034l1.838,1.574-.1.443c-4.039,0-8.084-.106-12.118.061a10.873,10.873,0,0,0-3.84,1.337c-.209.1-.158,1.034-.008,1.514.077.25.781.59.951.485,3.316-2.052,7.1-1.156,10.639-1.6,2.123-.268,4.367.412,6.555.664l.258.375v.005a5.036,5.036,0,0,0,2.995,3.144c1.868.585,3.785,1.013,5.682,1.509l.884.076c2.147.7,3.814-.96,3.407-3.368a13.4,13.4,0,0,1-.079-1.721l.315.262c1.673,1.165,2.484,3.294,4.522,4.054,1.974,2.791,1.529,6,1.561,9.121.016,1.648.1,3.3-.045,4.94a43.6,43.6,0,0,1-.892,5.976c-.672,2.909-1.445,5.8-2.363,8.645a32.151,32.151,0,0,1-3.766,8.129c-1.8,2.678-3.306,5.574-5.3,8.09a26.65,26.65,0,0,1-5.084,4.412,66.94,66.94,0,0,1-6.028,4.007c-1.622.963-3.393,1.673-5.076,2.536-.754.386-1.455.872-2.183,1.313.926,1.418,1.3,1.664,2.661,1.005,2.583-1.256,5.1-2.659,7.613-4.05a15.741,15.741,0,0,0,1.866-1.392c.22-.168.4-.432.64-.524a12.062,12.062,0,0,0,2-.676,10.823,10.823,0,0,0,1.7-1.73c0,2.2-.015,4.077,0,5.957a38.519,38.519,0,0,1,.053,4.243c-.071.69-.568,1.725-1.11,1.911a68.388,68.388,0,0,1-8.035,2.294c-5.971,1.263-11.946,2.57-17.978,3.45a67.139,67.139,0,0,1-11.3.2c1.766-.663,1.895-1.76,1.493-3.271a12.022,12.022,0,0,1-.083-3.193c.014-.9.455-1.222,1.36-.966,1.259.356,2.537.648,3.807.967.145.037.329.144.433.094,2.942-1.414,6.052-.145,9.053-.577.74-.106,1.486-.175,2.225-.262-.046-.86-.163-.858-1.023-.812a70.469,70.469,0,0,1-7.912-.306,32.445,32.445,0,0,1-9.244-2.209c-1.684-.618-3.489-.92-5.156-1.577a27.769,27.769,0,0,1-4.372-2.262,28.187,28.187,0,0,1-8.7-7.961c-.9-1.319-1.614-2.765-2.412-4.155a11.3,11.3,0,0,1,2.395.208c1.428.433,2.651.091,3.173-1.343,1.51-4.155,2.881-8.262,1.008-12.807a17.051,17.051,0,0,0-3.378-4.848C128.092,200.111,124.589,198.728,120.906,197.556Zm60.369-13.035.888.145.292.125.329.13,1.207.689.289-.361-.9-1.4,0-.312.325-.3a.818.818,0,0,0,.277-.071c1.876-1.108,1.876-1.108,1.354-2.088l-1.055,1.179-1.527.238c-.094-.023-.19-.042-.287-.058h-.311l-.595.01a21.441,21.441,0,0,0-3.951-.71c-3.186.01-6.387.114-9.557.422-2.054.2-4.253.583-5.357,2.67a3.766,3.766,0,0,0,.022,2.416c.1.424.747.713,1.357,1.245.205-3.245,1.987-4.16,5.805-4.173-.865,2.331-.648,3.321,1.073,4.9a3.819,3.819,0,0,0,5.836-.594,26.741,26.741,0,0,0,1.3-2.37c-.511-.215-1.107-.42-1.657-.713a7.179,7.179,0,0,1-1.015-.78c.391-.293.773-.819,1.176-.837a23.928,23.928,0,0,1,3.1.23Zm11.9,9.687c-3.787.192-7.369,2.861-10.766,5.876-.24.213-.28.641-.455.944a2.3,2.3,0,0,1-.595.788c-2.089,1.385-2.639,3.722-3.393,5.826a27.065,27.065,0,0,0-.929,5.474c-.293,2.158.156,4.182,2.065,5.383a12.533,12.533,0,0,0,4.2,1.512,8.054,8.054,0,0,0,7.608-2.506,31.771,31.771,0,0,0,5.06-7.427,22.8,22.8,0,0,0,2.537-11.621C198.421,195.372,197.193,194.206,193.176,194.208Zm-60.945-6.339a4.761,4.761,0,0,0,1,4.873,3,3,0,0,0,3.586.792c1.978-.733,3.2-2.147,2.885-4.492l1.576.731c-.114-.56-.072-.962-.253-1.142-1.006-1.005-1.821-2.264-3.495-2.363-1.38-.083-2.752-.539-4.121-.507a30,30,0,0,0-5.812.648,29.145,29.145,0,0,0-4.307,1.631l2.009,1.209Zm39.853,27.387a17.428,17.428,0,0,1-8.41,2.161,12.66,12.66,0,0,0-3.257.6,11.649,11.649,0,0,1-7.985-.352,4.828,4.828,0,0,0-4.312.049,2.989,2.989,0,0,1-2.52.27,4.606,4.606,0,0,0-1.729.128c.262.67.336,1.6.824,1.955a3.34,3.34,0,0,0,3.7.054,3.78,3.78,0,0,1,2.78-.444,15.357,15.357,0,0,0,4.709.937c3.737.477,7.119-1.107,10.692-1.508,1.26-.14,2.433-.945,3.685-1.308S171.869,216.487,172.084,215.255Zm-16.8-10.427c-1.3-1.531-2.267-2.846-3.415-3.98-1.7-1.677-1.557-3.42-.793-5.485a33.123,33.123,0,0,0,1.441-5.923,7.771,7.771,0,0,0-.247-2.923,34.453,34.453,0,0,0-1.2-3.906c-.087-.243-.522-.363-.744-.507-1.383,1.308-.7,2.889-.388,4.143a10.327,10.327,0,0,1-.623,7.231c-.892,1.956-1.815,4.132-.807,6.438a10.892,10.892,0,0,0,5.357,5.3C154.114,205.347,154.592,205.03,155.281,204.828ZM139.831,181.2l.4-.314a6.076,6.076,0,0,0-1.034-1.95,7.057,7.057,0,0,0-2.422-1.2c-3.328-1.08-6.631-.236-9.944.19-1.175.151-1.9.6-1.889,1.855a9.891,9.891,0,0,0,2.51.469c1.528-.109,3.034-.628,4.557-.663a19.3,19.3,0,0,1,4.277.56C137.49,180.4,138.652,180.844,139.831,181.2Zm18.406,45.124c.141.031.458.193.558.1.569-.489,1.087-1.039,1.622-1.569-.413-.335-.816-.943-1.24-.956-1.514-.05-3.034.144-4.554.16-.92.01-1.649.431-1.551,1.25.054.447.978,1.047,1.563,1.117A22.7,22.7,0,0,0,158.236,226.325Zm20.271-35.69a7.466,7.466,0,0,0-.094,2.328c.084.319,1,.579,1.529.558.293-.011.784-.64.8-1.011C180.809,191.373,180.06,190.82,178.507,190.635Z" transform="translate(5.987 12.033)" fill="#fefefe"/>
      <path id="Path_675" data-name="Path 675" d="M169.593,178.2c-2.188-.253-4.432-.932-6.555-.664-3.544.447-7.324-.45-10.639,1.6-.17.1-.873-.235-.951-.485-.149-.481-.2-1.418.008-1.514a10.873,10.873,0,0,1,3.84-1.337c4.034-.167,8.079-.061,12.118-.061l.1-.443-1.838-1.574c-2.892-3.995-6.05-7.83-8.584-12.042a48.787,48.787,0,0,1-3.992-9.75c-.421-1.262-.037-2.794-.02-4.2l.63-.111c.175.293.557.642.494.871-.812,2.987.872,5.349,2.075,7.726a55.7,55.7,0,0,0,8.444,12.954c2.039,2.2,4.28,4.22,6.464,6.285.812.769,1.506,1.524,1.036,2.949l-2.378.178v-.005Z" transform="translate(17.595 10.079)" fill="#0d0c0c"/>
      <path id="Path_676" data-name="Path 676" d="M128.671,175.775a13.519,13.519,0,0,1-1.328,1.36c-1.137.888-1.7.7-2.335-.626a4.924,4.924,0,0,0-.6-.8c3.349-5.043,6.558-10.187,10.089-15.1a39.549,39.549,0,0,0,6.2-13.608c.018-.072.147-.115.6-.448a36.347,36.347,0,0,1-.7,4.768c-.714,2.5-1.687,4.921-2.484,7.4a21.826,21.826,0,0,0-.355,2.276,5.075,5.075,0,0,1-.513,1.547c-1.572,2.687-3.128,5.384-4.807,8C131.283,172.35,129.934,174.035,128.671,175.775Z" transform="translate(7.955 9.696)" fill="#0a0706"/>
      <path id="Path_677" data-name="Path 677" d="M144.426,155.961a47.239,47.239,0,0,1-2.457,6.422c-1.893,3.438-4.069,6.723-6.228,10.006-1.023,1.558-2.26,2.976-3.43,4.433-1.379,1.718-1.726,1.657-2.581-.393.762-.993,1.573-1.95,2.276-2.983,2.234-3.272,4.421-6.574,6.638-9.858a34.431,34.431,0,0,0,4.693-11.01c.428-1.7.49-3.48.823-5.2a5.131,5.131,0,0,1,1.2-2.359c-.124,2.859.254,5.7-.592,8.463Q144.6,154.721,144.426,155.961Z" transform="translate(9.862 9.147)" fill="#0b0a09"/>
      <path id="Path_678" data-name="Path 678" d="M176.351,183.21l-.884-.076c-.6-1.288-1.155-2.6-1.817-3.856-1.49-2.82-3.079-5.587-4.543-8.419-1.756-3.4-3.518-6.8-5.1-10.273-1.444-3.161-2.706-6.407-3.934-9.659a11.88,11.88,0,0,1-.212-3.028c.531.508.761.634.848.824,2.01,4.435,3.91,8.921,6.031,13.3,1.729,3.574,3.639,7.066,5.616,10.509,1.373,2.392,2.949,4.672,4.523,6.939C178.28,181.5,178.25,182.078,176.351,183.21Z" transform="translate(20.654 10.18)" fill="#090605"/>
      <path id="Path_679" data-name="Path 679" d="M159.018,174.768c-.871,1.073-1.43.227-2.036-.33-2.021-2.908-4.192-5.725-6.022-8.747-2.267-3.739-4.371-7.6-5.1-12.017-.482-2.918-1.025-5.826-1.449-8.751a1.543,1.543,0,0,1,1.187-1.963c.115.179.28.322.255.416-.958,3.773.822,7.116,1.8,10.535a36.97,36.97,0,0,0,3.288,8.1,73.451,73.451,0,0,0,6.756,9.9C158.479,172.872,159.141,173.536,159.018,174.768Z" transform="translate(15.109 8.41)" fill="#0a0706"/>
      <path id="Path_680" data-name="Path 680" d="M177.508,176.407c-.155-.512-.163-1.152-.485-1.514a31.754,31.754,0,0,1-6.513-11.312c-.845-2.573-1.857-5.1-2.592-7.7a4.821,4.821,0,0,1,.545-4.171,49.608,49.608,0,0,0,11.71,23.711l-2.68.971Z" transform="translate(23.458 11.545)" fill="#0a0706"/>
      <path id="Path_681" data-name="Path 681" d="M141.042,154.1l-.065-.576.958-.02c.613,1.528,1.114,3.113,1.864,4.571,1.319,2.566,2.767,5.066,4.216,7.563a7.243,7.243,0,0,0,1.239,1.281c-.121.621.629,1.657-.543,1.755a1.87,1.87,0,0,1-2.1-1.214c-1.566-3.776-3.3-7.481-4.975-11.214l-.272-.929-.012-.035a.413.413,0,0,0-.026-.262h0Z" transform="translate(13.891 12.188)" fill="#0d0c0b"/>
      <path id="Path_682" data-name="Path 682" d="M142.088,154.314l-.958.02-.58-.606q.171-1.239.344-2.48Z" transform="translate(13.738 11.379)" fill="#382316"/>
      <path id="Path_683" data-name="Path 683" d="M174.765,170.508l-.315-.262.633-.349-.015-.014Z" transform="translate(25.883 18.055)" fill="#0a0706"/>
      <path id="Path_684" data-name="Path 684" d="M123.5,259.408l-7.324-.812a13.94,13.94,0,0,1-.318-2.081,12.634,12.634,0,0,1,3.235-8.478,88.5,88.5,0,0,1,17.325-15.87c1.855-1.254,3.946-2.693,6.05-2.92,3.465-.374,7.026.243,10.551.311,4.742.091,9.535.5,14.218-.022,7.875-.876,15.363-3.519,22.767-6.282,1.974-.736,3.856-1.718,5.779-2.587,4.788,1,9.6,1.9,14.354,3.026,3.591.854,7.127,1.953,10.656,3.045a69.787,69.787,0,0,1,6.707,2.415c3.189,1.358,6.308,2.882,9.458,4.331a32.476,32.476,0,0,1,3.223,1.493,24.553,24.553,0,0,1,2.6,2.036c.644.515,1.3,1.015,1.918,1.558a36.154,36.154,0,0,1,4.41,4.016,23.2,23.2,0,0,1,3.013,5.159,24.775,24.775,0,0,1,1.455,4.92,13.342,13.342,0,0,1,.035,2.8c-.553.124-1.312.312-2.081.454a10.613,10.613,0,0,1-1.349.122c-.3.016-.642-.1-.9,0-2.2.926-4.492.884-6.828,1-3.265.162-6.5.875-9.758,1.288q-3.659.465-7.339.758c-3.1.24-6.2.42-9.3.572-2.677.132-5.36.194-8.041.277-5.322.166-10.643.4-15.968.456-2.752.03-5.506-.295-8.262-.386-.979-.033-1.964.215-2.947.224-5.357.053-10.714.111-16.07.09-5.474-.023-10.946-.128-16.42-.215q-9-.143-17.994-.321c-2-.037-3.993-.092-5.99-.14l-.27-.159a.125.125,0,0,0-.148-.126l-.015-.136-.005.139Z" transform="translate(4.892 36.249)" fill="#b9b6d9"/>
      <path id="Path_685" data-name="Path 685" d="M198.363,220.879c-1.923.869-3.806,1.851-5.779,2.587-7.4,2.763-14.892,5.406-22.767,6.282-4.683.522-9.477.113-14.218.022-3.525-.068-7.086-.685-10.551-.311-2.1.227-4.194,1.667-6.05,2.92a88.5,88.5,0,0,0-17.325,15.87,12.634,12.634,0,0,0-3.235,8.478,13.944,13.944,0,0,0,.318,2.081l-10.088-2.95c1.567-.087,2.373-.719,2.787-2.438a40.784,40.784,0,0,1,2.582-6.457c.8-1.847,1.573-3.719,2.545-5.475,1.71-3.09,4.672-4.815,7.709-6.222,4.8-2.225,9.743-4.148,14.611-6.229a35.318,35.318,0,0,0,3.283-1.634c1.213-.676,2.219-1.775,3.89-1.153a2.517,2.517,0,0,0,1.983-.4c1.563-1.121,3.131-.216,4.619-.062,3.6.371,7.117,1.073,10.8.344,3.629-.718,7.378-.811,11.037-1.407,3.151-.512,6.251-1.338,9.371-2.04,2.241-.507,4.708-.61,6.661-1.661C193.3,219.543,195.747,220.026,198.363,220.879Z" transform="translate(2.315 36.036)" fill="#fdfdfe"/>
      <path id="Path_686" data-name="Path 686" d="M120.381,185.823c3.684,1.172,7.187,2.555,9.873,5.606a17.051,17.051,0,0,1,3.378,4.848c1.873,4.545.5,8.652-1.008,12.807-.522,1.434-1.745,1.777-3.173,1.343a11.3,11.3,0,0,0-2.395-.208c-.47-1.031-.9-2.085-1.426-3.083a6.375,6.375,0,0,0-1.345-1.93c-1.554-1.308-1.686-3.162-2.037-4.911-.249-1.233-.186-2.526-.354-3.78C121.415,192.947,120.889,189.386,120.381,185.823Z" transform="translate(6.512 23.766)" fill="#fbe8ec"/>
      <path id="Path_687" data-name="Path 687" d="M121.806,249.192l0-.139.016.136Z" transform="translate(7.022 46.419)" fill="#18181a"/>
      <path id="Path_688" data-name="Path 688" d="M121.93,249.246l.27.159Z" transform="translate(7.067 46.488)" fill="#18181a"/>
      <path id="Path_689" data-name="Path 689" d="M177.867,183.358c4.016,0,5.244,1.164,5.327,4.247a22.8,22.8,0,0,1-2.537,11.621,31.771,31.771,0,0,1-5.06,7.427,8.054,8.054,0,0,1-7.608,2.506,12.533,12.533,0,0,1-4.2-1.512c-1.908-1.2-2.358-3.225-2.065-5.383a27.065,27.065,0,0,1,.929-5.474c.754-2.1,1.3-4.44,3.393-5.826a2.3,2.3,0,0,0,.595-.788c.175-.3.215-.731.455-.944C170.5,186.219,174.08,183.55,177.867,183.358Z" transform="translate(21.296 22.883)" fill="#fbe9ed"/>
      <path id="Path_690" data-name="Path 690" d="M170.663,174.877h.311l.287.058,1.527-.238-.3.909a.817.817,0,0,1-.277.071l-.325.3,0,.312-.6,1.073-.329-.13-.292-.125-.888-.145L168.2,176.6a23.922,23.922,0,0,0-3.1-.23c-.4.018-.785.543-1.176.837a7.177,7.177,0,0,0,1.015.78c.55.293,1.146.5,1.657.713a26.744,26.744,0,0,1-1.3,2.37,3.819,3.819,0,0,1-5.836.594c-1.721-1.582-1.938-2.573-1.073-4.9-3.818.012-5.6.928-5.805,4.173-.61-.532-1.252-.822-1.357-1.246a3.766,3.766,0,0,1-.022-2.416c1.1-2.088,3.3-2.471,5.357-2.67,3.17-.308,6.37-.413,9.557-.422a21.443,21.443,0,0,1,3.951.71Z" transform="translate(17.485 19.593)" fill="#0e0e0e"/>
      <path id="Path_691" data-name="Path 691" d="M131.079,179.247l-6.937,1.38-2.009-1.209a29.148,29.148,0,0,1,4.307-1.631,30,30,0,0,1,5.812-.648c1.369-.033,2.741.424,4.121.507,1.673.1,2.488,1.358,3.495,2.363.181.181.139.583.253,1.142l-1.576-.731c.315,2.344-.907,3.758-2.885,4.492a3,3,0,0,1-3.586-.792A4.761,4.761,0,0,1,131.079,179.247Z" transform="translate(7.139 20.654)" fill="#0f1010"/>
      <path id="Path_692" data-name="Path 692" d="M165.5,198.854c-.215,1.232-.568,2.176-1.827,2.539s-2.425,1.168-3.685,1.308c-3.574.4-6.956,1.984-10.692,1.508a15.356,15.356,0,0,1-4.709-.937,3.78,3.78,0,0,0-2.78.444,3.34,3.34,0,0,1-3.7-.054c-.489-.355-.562-1.285-.824-1.955a4.606,4.606,0,0,1,1.729-.128,2.989,2.989,0,0,0,2.52-.27,4.829,4.829,0,0,1,4.313-.049,11.649,11.649,0,0,0,7.985.352,12.659,12.659,0,0,1,3.257-.6A17.428,17.428,0,0,0,165.5,198.854Z" transform="translate(12.569 28.434)" fill="#111211"/>
      <path id="Path_693" data-name="Path 693" d="M147.592,197.171c-.689.2-1.167.519-1.418.391a10.892,10.892,0,0,1-5.357-5.3c-1.008-2.306-.086-4.482.807-6.438a10.327,10.327,0,0,0,.623-7.231c-.315-1.254-.994-2.835.388-4.143.223.144.657.264.744.507a34.452,34.452,0,0,1,1.2,3.906,7.771,7.771,0,0,1,.247,2.923,33.125,33.125,0,0,1-1.441,5.923c-.763,2.065-.9,3.807.793,5.485C145.325,194.325,146.292,195.64,147.592,197.171Z" transform="translate(13.676 19.69)" fill="#121312"/>
      <path id="Path_694" data-name="Path 694" d="M138.241,174.834c-1.179-.357-2.34-.8-3.542-1.05a19.3,19.3,0,0,0-4.277-.56c-1.523.035-3.029.554-4.557.663a9.892,9.892,0,0,1-2.51-.469c-.011-1.255.714-1.7,1.889-1.855,3.313-.426,6.616-1.27,9.944-.19a7.056,7.056,0,0,1,2.422,1.2,6.076,6.076,0,0,1,1.034,1.95Z" transform="translate(7.577 18.4)" fill="#121312"/>
      <path id="Path_695" data-name="Path 695" d="M149.23,207.645a22.706,22.706,0,0,1-3.6.106c-.585-.069-1.509-.67-1.563-1.117-.1-.819.632-1.24,1.551-1.25,1.52-.016,3.04-.211,4.554-.16.424.014.827.621,1.24.956-.535.53-1.053,1.08-1.622,1.569C149.688,207.838,149.371,207.676,149.23,207.645Z" transform="translate(14.993 30.714)" fill="#171818"/>
      <path id="Path_696" data-name="Path 696" d="M162.833,180.728c1.552.185,2.3.738,2.24,1.876-.02.371-.511,1-.8,1.011-.528.02-1.445-.239-1.529-.558A7.466,7.466,0,0,1,162.833,180.728Z" transform="translate(21.661 21.941)" fill="#0c0d0d"/>
      <path id="Path_697" data-name="Path 697" d="M166.823,175.78l.3-.909,1.055-1.179C168.7,174.671,168.7,174.671,166.823,175.78Z" transform="translate(23.15 19.42)" fill="#272726"/>
      <path id="Path_698" data-name="Path 698" d="M165.938,176.8l.6-1.073.9,1.4-.289.361Z" transform="translate(22.833 20.15)" fill="#272726"/>
      <path id="Path_699" data-name="Path 699" d="M163.665,175.959l1.578.363Z" transform="translate(22.019 20.232)" fill="#272726"/>
      <path id="Path_700" data-name="Path 700" d="M141.025,153.944l.284.918Z" transform="translate(13.908 12.345)" fill="#382316"/>
      <path id="Path_701" data-name="Path 701" d="M141.262,154.839l.272.929Z" transform="translate(13.993 12.666)" fill="#382316"/>
      <path id="Path_702" data-name="Path 702" d="M165.636,174.692l-.595.01Z" transform="translate(22.512 19.778)" fill="#272726"/>
      <path id="Path_703" data-name="Path 703" d="M141.256,154.62a.413.413,0,0,1,.026.262,1.325,1.325,0,0,1-.109-.183C141.168,154.685,141.226,154.647,141.256,154.62Z" transform="translate(13.961 12.587)" fill="#382316"/>
      <path id="Path_704" data-name="Path 704" d="M165.481,176.333l.292.125Z" transform="translate(22.669 20.366)" fill="#272726"/>
      <path id="Path_705" data-name="Path 705" d="M165.995,174.75l-.287-.058C165.8,174.708,165.9,174.727,165.995,174.75Z" transform="translate(22.751 19.778)" fill="#272726"/>
      <path id="Path_706" data-name="Path 706" d="M166.38,175.58l.325-.3Z" transform="translate(22.991 19.989)" fill="#272726"/>
      <path id="Path_707" data-name="Path 707" d="M164.772,170.135l.258.375Z" transform="translate(22.415 18.146)" fill="#55301a"/>
    </g>
  </g>
</svg>
