<svg xmlns="http://www.w3.org/2000/svg" xmlns:xlink="http://www.w3.org/1999/xlink" width="198" height="198" viewBox="0 0 198 198">
  <defs>
    <clipPath id="clip-member02">
      <rect width="198" height="198"/>
    </clipPath>
  </defs>
  <g id="member02" clip-path="url(#clip-member02)">
    <rect width="198" height="198" fill="#66e2fa"/>
    <g id="Group_2" data-name="Group 2" transform="translate(-76.182 -506.538)">
      <ellipse id="Ellipse_1" data-name="Ellipse 1" cx="0.96" cy="0.981" rx="0.96" ry="0.981" transform="translate(193.373 634.889)" fill="#171616"/>
      <path id="Path_494" data-name="Path 494" d="M136.865,662.284c-1.107,2.494-3.426,3.981-5.34,3.261a8.325,8.325,0,0,1-2.219-1.52c-.668-.558-1.192-1.324-1.883-1.839a16.8,16.8,0,0,1-4.971-6.088c-1.69-3.351-3.68-6.537-5.214-9.964-1.339-2.994-2.111-6.274-3.343-9.333a86.947,86.947,0,0,1-4.4-15.3,66.437,66.437,0,0,1-1.344-16.045c.213-5.05.421-10.1.741-15.146.41-6.476,1.054-12.934,2.945-19.138a47.873,47.873,0,0,1,5.737-11.594c1.048-1.656,1.969-3.4,2.983-5.083a14.545,14.545,0,0,1,1.128-1.447c1.095-1.384,1.413-3.163,2.117-4.744,2.389-5.377,5.323-10.312,10.044-13.764,3.562-2.607,6.961-5.518,11.084-7.075,2.911-1.1,5.819-2.426,8.833-2.949,9.128-1.585,18.2-1.505,26.992,2.237a69.65,69.65,0,0,1,29.738,24.11c1.914,2.669,4.145,5.087,5.944,7.836,2.321,3.55,4.343,7.324,6.512,10.987,1.4,2.369,2.89,4.684,4.247,7.082a37.381,37.381,0,0,1,4.555,13.67c.342,2.588,1.279,5.079,1.8,7.648.692,3.416,1.382,6.892.8,10.384-.255,1.541-.146,3.087-.394,4.557A38.485,38.485,0,0,1,231.865,621c-2.212,5.469-4.775,10.774-7.09,16.2a67.618,67.618,0,0,1-6.794,11.867c-.624.9-.92,2.107-2.081,2.676a11.893,11.893,0,0,1-2.575,1.28,16.934,16.934,0,0,0-3.931,2,5.876,5.876,0,0,0-1.581,1.177c-.342.874-.739,1.73-1,2.63a2.683,2.683,0,0,0,.122,1.236c.224.994.483,1.98.728,2.969-.624.135-1.033,1.183-1.85.508a20.978,20.978,0,0,1-1.388-9.3c-.512.432-.9.733-1.259,1.069a3.919,3.919,0,0,1-3.422,1.256c-.989-.153-1.389-.653-1.214-1.649.239-1.356.551-2.7.9-4.365a14.472,14.472,0,0,0-2.184.924c-.735.46-1.073.177-1.2-.555a7.64,7.64,0,0,1,.012-1.475l-.021.018.5-.57c1.038-1.413,2.055-2.846,3.122-4.234,1.639-2.132,3.405-4.159,4.956-6.363a29.226,29.226,0,0,0,5.1-13.035,6.455,6.455,0,0,0-.249-1.733,11.639,11.639,0,0,0-1.849.877c-.244.167-.289.688-.4,1.056-.141.471-.257.95-.384,1.425l-.2-.014-.291-1.417c-1.141-3.411-2.114-6.9-3.477-10.205a28.8,28.8,0,0,0-3.941-7.1,32.956,32.956,0,0,0-8.729-7.179,1.757,1.757,0,0,0-1.145-.21c-3.868.7-7.726.236-11.6.062a23.082,23.082,0,0,0-5.955.614,17.981,17.981,0,0,0-3.713,1.772c-.428-.677-.134-1.168.523-1.564.806-.486,1.6-.987,2.407-1.482a6.967,6.967,0,0,1,.938-.193,34.824,34.824,0,0,1,4.131-.219c1.178.057,2.338.507,3.517.588.436.029.906-.5,1.36-.768-.452-.6-.8-1.44-1.381-1.722a6.752,6.752,0,0,0-2.492-.326,36.946,36.946,0,0,1-14.721-4.163,62.3,62.3,0,0,1-13.818-9.95,77.387,77.387,0,0,1-11.894-13.434c-1.019-1.506-1.567-1.571-3.121-.115,2.184,2.857,4.214,5.888,6.606,8.544,2.882,3.2,6,6.182,9.145,9.088a48.757,48.757,0,0,0,13.884,9.1,3.629,3.629,0,0,1,2.572,2.938c-.04.006-.087.028-.12.012a67.74,67.74,0,0,1-21.841-15.7,7.777,7.777,0,0,0-.84-.724,69.286,69.286,0,0,1-6.517-5.468c-2.248-2.375-4.12-5.157-6.157-7.761.03-2.148-.265-2.571-1.877-2.521a32.471,32.471,0,0,1-.739,5.175c-1.954,6.356-3.952,12.7-6.18,18.951a10.116,10.116,0,0,0-.347,6.7c.862-1.95,1.574-3.949,2.342-5.922a16.034,16.034,0,0,1,.969-1.807c-.6,3.224-1.06,6.486-1.828,9.663a32.224,32.224,0,0,0,1.042,18.771,54.021,54.021,0,0,1,2.8,10.783c.772,5.881,2.947,11.179,5.185,16.442a21.964,21.964,0,0,0,6.664,8.618l.225.186.271.124a.282.282,0,0,0,.188.144l.282.255.766.5a.188.188,0,0,1,.2.1c.155.365.217.9.481,1.063,1.069.681.871,1.777.594,2.632-.1.305-1.269.347-1.93.278-1.234-.128-2.45-.45-3.68-.631-.28-.042-.775.079-.846.268a1.505,1.505,0,0,0,.167,1.013c.275.576.631,1.1.924,1.6Zm65.9-63.443a7.841,7.841,0,0,1-1.505.225c-1.842-.138-3.68-.385-5.523-.487a18.855,18.855,0,0,1-10.654-4.188c-5.3-4.149-10.6-8.348-15.483-13.026-4.706-4.507-9.4-9.184-12.246-15.464a.837.837,0,0,0-1.548-.029,2.846,2.846,0,0,0,.182,1.885,44.3,44.3,0,0,0,6.894,9.649,134.658,134.658,0,0,0,16.611,15.453c4.053,3.29,8.227,6.417,13.388,7.5a34.6,34.6,0,0,0,11,.639c.115.193.273.438.409.7,2.151,4.116,2.8,8.615,2.931,13.25a5.148,5.148,0,0,0,.377,1.276,4.023,4.023,0,0,0,1.265-.581,1.792,1.792,0,0,0,.5-1.226,63.24,63.24,0,0,0-.65-6.817c-.845-4.689-3.2-8.651-5.623-12.55a54.417,54.417,0,0,0-8.357-10.533c-.6-.58-1.268-1.342-2.06-.427-.712.822-.138,1.506.463,2.1a26.963,26.963,0,0,1,2.828,2.831c1.946,2.586,3.77,5.277,5.629,7.935C201.966,597.482,202.283,598.06,202.765,598.841Z" transform="translate(0.728)" fill="#222"/>
      <path id="Path_495" data-name="Path 495" d="M137.594,625.738h-1.236c-.293-.5-.649-1.027-.924-1.6a1.505,1.505,0,0,1-.167-1.013c.072-.189.566-.309.846-.268,1.23.181,2.445.5,3.68.631.661.069,1.832.028,1.93-.278.278-.855.475-1.951-.594-2.632-.264-.167-.326-.7-.481-1.063,1.08,1.049,2.6,1.071,3.776,2.209a14.087,14.087,0,0,0,5.208,2.883,7.563,7.563,0,0,1,4.8,5.6,49,49,0,0,1,.994,7.81c.164,1.564.131,3.245,1.62,4.133a17.072,17.072,0,0,0,7.786,2.875c2.807.144,5.623.094,8.431.218a22.133,22.133,0,0,0,10.455-1.923c4.671-2.158,9.416-4.148,14.033-6.433,3.089-1.529,6.005-3.459,9.01-5.185.881-.505,1.02-1.125.6-2.086a23.3,23.3,0,0,1-.822-2.621c.817.675,1.226-.373,1.85-.508,1.465,2.635,3.087,4.942,6.11,5.852,3.647,1.1,7.194,2.581,10.785,3.9l13.591,5.237.072.043.447.22.032.022.318.16c4.546,2.618,8,6.56,11.5,10.534a21.87,21.87,0,0,1,4.9,10.751,5.491,5.491,0,0,1,2.03-.13,2.362,2.362,0,0,1,1.341,1.342c.262.828-.518.809-1.072.957-1.011.268-1.987.682-3,.949-.258.068-.584-.244-.888-.275a4.556,4.556,0,0,0-.975.106c-1.306.157-2.61.345-3.919.465-3.116.287-6.24.5-9.353.82-4.718.478-9.423,1.117-14.146,1.505-6.5.533-13.011.911-19.52,1.327-4.577.294-9.16.512-13.738.813-4.612.3-9.215.857-13.829.965-6.876.159-13.758.016-20.639.014-4.068,0-8.136.09-12.2.007-4.3-.088-8.59-.3-12.881-.523-3.935-.206-7.873-.407-11.793-.8a58.8,58.8,0,0,1-6.127-1.243c-2.643-.961-5.29-1.914-7.927-2.9-.406-.151-.938-.34-1.107-.683a2.153,2.153,0,0,1-.116-1.58c.11-.258.913-.4,1.288-.255,1.426.558,1.3.493,2.1-.99q2.628-4.88,5.552-9.574c1.214-1.954,3.306-2.709,5.224-3.478,4.693-1.883,9.45-3.586,14.2-5.3,4.51-1.627,9.046-3.169,13.566-4.762,1.116-.393,2.2-.921,3.329-1.229a4.848,4.848,0,0,1,1.762.287c-.518-3.7-.83-7.346-2.745-10.49a5.458,5.458,0,0,0-1.928-1.585,7.336,7.336,0,0,0-5.288-1.12A28.694,28.694,0,0,1,137.594,625.738Zm79.826,10.44c-.218-.11-.434-.231-.656-.329-1.832-.8-3.822-1.229-5.221-2.987-.6-.755-1.522-.474-2.028.4a4.579,4.579,0,0,0-.258.666l-.476-.591a58.839,58.839,0,0,1-5.715,3.6c-6.041,2.93-12.119,5.786-18.261,8.464a27.776,27.776,0,0,1-7.274,2.066c-2.574.348-5.224,0-7.837.081-4.385.134-8.635-.363-12.551-2.7-.744-.445-1.479-.909-2.274-1.4-.309,1.33-.574,2.543-.88,3.745a1.209,1.209,0,0,1-1.741.86c-.191-.061-.311-.907-.229-1.342.327-1.74.746-3.459,1.132-5.2-3.459-.21-6.383,1.091-9.349,2.23-2.3.885-4.641,1.66-6.952,2.513-5.414,2-10.816,4.037-16.237,6.016a10.39,10.39,0,0,0-5.4,4.709c-.588.983-1.216,1.941-1.747,2.959-.889,1.708-1.715,3.453-2.632,5.311l5.264,1.829c2.922.585,5.823,1.362,8.768,1.7s5.937.247,8.909.348c5.476.185,10.951.445,16.429.538,4.878.086,9.759-.025,14.641-.021,4.167,0,8.34.189,12.5.033,5.315-.2,10.621-.664,15.932-1.007q11.642-.75,23.286-1.491c2.936-.189,5.874-.342,8.8-.616q8.121-.76,16.231-1.647c3.921-.423,7.836-.922,11.753-1.388.157-.144.475-.351.45-.421-.689-2-1.414-3.979-2.132-5.965-1.043-1.339-2.1-2.666-3.123-4.021a33.536,33.536,0,0,0-16.026-11.792C227.493,639.6,222.453,637.9,217.42,636.178Z" transform="translate(0 36.546)" fill="#232020"/>
      <path id="Path_496" data-name="Path 496" d="M113.018,656.64a58.8,58.8,0,0,0,6.127,1.243c3.92.391,7.858.592,11.793.8,4.292.225,8.586.435,12.881.523,4.066.083,8.134-.008,12.2-.007,6.88,0,13.762.145,20.639-.014,4.613-.108,9.217-.661,13.829-.965,4.577-.3,9.16-.519,13.738-.813,6.509-.416,13.02-.794,19.52-1.327,4.724-.388,9.428-1.027,14.146-1.505,3.114-.316,6.237-.533,9.353-.82,1.309-.12,2.612-.308,3.919-.465.144.348.287.695.432,1.043-.99,2.5-3.183,1.848-4.952,2.037-3.7.4-7.434.509-11.144.845-2.908.264-5.8.741-8.707,1.016-1.408.134-2.839-.025-4.257.029-1.831.068-3.659.227-5.489.327-1.388.077-2.781.077-4.166.2-1.879.163-3.753.4-5.627.62-1.754.206-3.5.447-5.259.645-2.657.3-5.315.574-7.971.866q-1.841.2-3.68.427c-1.392.173-2.778.41-4.173.533s-2.778.073-4.158.207c-2.586.251-5.163.608-7.748.869-2.046.206-4.1.348-6.151.493-1.566.11-3.134.25-4.7.247-2.071-.005-4.142-.177-6.214-.2-1.276-.015-2.553.163-3.83.162-1.791,0-3.583-.146-5.374-.122-1.53.021-3.063.325-4.588.273-2.668-.09-5.335-.3-7.993-.566-2-.2-3.974-.6-5.965-.87-1.915-.264-3.837-.471-5.754-.732a10.375,10.375,0,0,1-1.255-.355c-1.2-.323-2.4-.625-3.591-.966-.482-.138-.935-.387-1.415-.534q-1.317-.406-2.651-.747c-.271-.069-.568-.015-.844-.073C112.307,658.62,112.223,658.4,113.018,656.64Z" transform="translate(2.417 49.408)" fill="#ebbac5"/>
      <path id="Path_497" data-name="Path 497" d="M206.028,636.886l-13.591-5.237a19.194,19.194,0,0,1,6.8.612,13.88,13.88,0,0,1,6.458,3.887A2.318,2.318,0,0,1,206.028,636.886Z" transform="translate(32.846 41.129)" fill="#e5b6c1"/>
      <path id="Path_498" data-name="Path 498" d="M202.779,635.664l-.447-.22Z" transform="translate(36.613 42.614)" fill="#e5b6c1"/>
      <path id="Path_499" data-name="Path 499" d="M203,635.78l-.318-.16Z" transform="translate(36.746 42.68)" fill="#e5b6c1"/>
      <path id="Path_500" data-name="Path 500" d="M202.149,650.755a23.3,23.3,0,0,0,.822,2.621c.421.961.282,1.581-.6,2.086-3,1.726-5.921,3.656-9.01,5.185-4.617,2.285-9.362,4.275-14.033,6.433A22.133,22.133,0,0,1,168.873,669c-2.809-.124-5.624-.075-8.431-.218a17.072,17.072,0,0,1-7.786-2.875c-1.488-.888-1.455-2.568-1.62-4.133a49,49,0,0,0-.994-7.81,7.563,7.563,0,0,0-4.8-5.6,14.087,14.087,0,0,1-5.208-2.883c-1.175-1.138-2.7-1.16-3.776-2.209a.188.188,0,0,0-.2-.1l-.766-.5-.282-.255-.188-.144-.271-.124-.225-.186a21.964,21.964,0,0,1-6.664-8.618c-2.238-5.264-4.413-10.562-5.185-16.442a54.021,54.021,0,0,0-2.8-10.783,32.224,32.224,0,0,1-1.042-18.771c.768-3.177,1.229-6.439,1.828-9.663q1.663-5.348,3.325-10.7l.1-.512h0l.155-.26.149-.507.134-.548.53-1.824.174-.525.308-1.3.427-1.566.53-2.831c2.037,2.6,3.909,5.386,6.157,7.761a69.286,69.286,0,0,0,6.517,5.468,7.777,7.777,0,0,1,.84.724,67.74,67.74,0,0,0,21.841,15.7c.033.015.08-.007.12-.012a14.992,14.992,0,0,0,2.672.831,12.354,12.354,0,0,0,2.6-.2c-.8.494-1.6,1-2.407,1.482-.657.4-.951.888-.523,1.564a17.981,17.981,0,0,1,3.713-1.772,23.082,23.082,0,0,1,5.955-.614c3.873.174,7.731.641,11.6-.062a1.757,1.757,0,0,1,1.145.21,32.956,32.956,0,0,1,8.729,7.179,28.8,28.8,0,0,1,3.941,7.1c1.363,3.306,2.336,6.795,3.477,10.205a12.9,12.9,0,0,1-2.074,8.685c-2.506,3.542-5.045,7.061-7.665,10.508a28,28,0,0,1-3.3,3.411c-1.488,1.389-3.075,2.655-4.566,4.04a67.194,67.194,0,0,1-13.733,10.3c-1.814.974-3.694,2.142-5.642,2.415a52.464,52.464,0,0,1-8.64.025c-.824-.022-1.523.034-1.609,1.047s.551,1.468,1.432,1.524c1.43.091,2.867.266,4.293.214a29.4,29.4,0,0,0,6.668-.588c1.879-.515,3.567-1.839,5.337-2.81,6.234-3.419,11.438-8.348,16.744-13.137a19.382,19.382,0,0,1,2.472-1.649,7.64,7.64,0,0,0-.012,1.475c.131.732.469,1.015,1.2.555a14.472,14.472,0,0,1,2.184-.924c-.348,1.667-.66,3.009-.9,4.365-.175,1,.225,1.5,1.214,1.649a3.919,3.919,0,0,0,3.422-1.256c.36-.336.747-.637,1.259-1.069A20.978,20.978,0,0,0,202.149,650.755Zm-22.836-59.822c1.048.717,2.092,1.442,3.147,2.147.37.247.769.445,1.154.666l.166-1.2,1.153-.916a11.7,11.7,0,0,0-1.268-.695,13.154,13.154,0,0,0-1.544-.4,12.615,12.615,0,0,0,1.9-.838c.221-.146.258-.616.38-.937a2.9,2.9,0,0,0-.862-.171c-1.033.11-2.059.371-3.092.407-2.907.1-5.83-.05-8.721.211-2.4.217-4.878.726-6.686,2.632a14.3,14.3,0,0,0-2.024,3.574c-.087.178.278.614.432.932.233-.182.631-.329.677-.555.543-2.7,2.639-3.5,4.735-4.67-.416,3.538-.452,6.735,3.466,8.272a10.568,10.568,0,0,0-1.867.572c-.29.155-.453.587-.672.895a7.872,7.872,0,0,0,.924.337c.141.033.311-.069.468-.11,2.39-.625,4.753-1.951,7.235-.3.127.084.512-.057.613-.214a.948.948,0,0,0-.037-.7,3.31,3.31,0,0,0-.447-.657l.123-.389c.748.09,1.5.224,2.248.249a3.316,3.316,0,0,0,1.012-.3c-.192-.29-.334-.751-.587-.837-.946-.326-1.928-.529-2.956-.793a17.638,17.638,0,0,0,.838-2.907,18.585,18.585,0,0,0-.109-3.1Zm-36.384,8.822.287-.162c.465.49.91,1,1.4,1.462a6.082,6.082,0,0,0,.913.6c.036-.427.255-1.026.073-1.248a7.583,7.583,0,0,0-2.037-1.943,10.8,10.8,0,0,0-11.354.3c-1.781,1.07-3.321,2.641-5.607,2.233-.189-.033-.458.45-.69.695.24.185.463.486.722.53a9.192,9.192,0,0,0,1.537.025l.012.391c-.737.115-1.483.191-2.209.365-.261.062-.472.362-.706.552.239.236.458.638.719.672a6.99,6.99,0,0,0,1.482-.052l.943,1.56a9.5,9.5,0,0,0,.668-1.33c.562-1.722,2.492-4.505,4.539-4.732-.617,3.475.442,5.864,3.956,6.737a17.793,17.793,0,0,1-2.1.757c-.257.093-.449.392-.671.6.253.225.487.6.762.639a2.918,2.918,0,0,0,1.3-.208c1.725-.613,3.448-1.236,5.148-1.922a4.681,4.681,0,0,0,1.08-.9l-.99-.9A4.911,4.911,0,0,0,142.929,599.755Zm-20.113-9.818.34.208a53.032,53.032,0,0,1,18.585-4.59c-.439-2.064-1.371-2.945-3.09-2.854a11.45,11.45,0,0,0-3.438.515c-4.04,1.537-8.17,2.9-11.657,5.737A5.161,5.161,0,0,0,122.817,589.938Zm32.381,14.6a27.138,27.138,0,0,0-.3-3.921,37.7,37.7,0,0,0-1.6-5.1c-.291-.747-.972-1.4-1.852-.693-.739.6-.446,1.27-.122,2.057a20.326,20.326,0,0,1,1.243,3.988,19.2,19.2,0,0,1-.421,7.948c-.127.54-.522,1.4.507,1.5.788.08,1.6-.059,1.785-1.1C154.756,607.528,155,605.818,155.2,604.538Zm1.533,27.771c5.1.428,9.753-1.356,13.841-4.923a3.967,3.967,0,0,0,.634-1.215,13.917,13.917,0,0,0-1.379.2c-.179.041-.322.254-.486.38-2.218,1.694-4.483,3.4-7.252,3.717-2.959.341-5.953.334-8.928.536a4.128,4.128,0,0,0-1.269.573c.414.243.816.66,1.245.7C154.26,632.375,155.4,632.309,156.73,632.309Zm-14.08-35.626.083-.486c-.334-.257-.648-.69-1.007-.739a28.168,28.168,0,0,0-5.268-.5,11.068,11.068,0,0,0-7.518,3.474c-.255.264-.192.882-.276,1.337a3.086,3.086,0,0,0,1.092-.428A10.731,10.731,0,0,1,135,596.516a11.509,11.509,0,0,1,6.466.206A3.265,3.265,0,0,0,142.65,596.683Zm11.143,17.909.468-.456c-.3-.38-.544-.975-.907-1.074a1.368,1.368,0,0,0-1.15.606,2.677,2.677,0,0,0,.487,3.26,11.076,11.076,0,0,0,1.628,1.3c.305.195.9.384,1.051.226a1.6,1.6,0,0,0,.359-1.226,3.283,3.283,0,0,0-.746-1.171C154.6,615.557,154.191,615.081,153.793,614.592Z" transform="translate(4.388 12.783)" fill="#fefefe"/>
      <path id="Path_501" data-name="Path 501" d="M189.631,587.305c-.482-.781-.8-1.359-1.172-1.892-1.86-2.658-3.684-5.349-5.629-7.935A26.963,26.963,0,0,0,180,574.647c-.6-.591-1.175-1.276-.463-2.1.793-.915,1.459-.153,2.06.427a54.417,54.417,0,0,1,8.357,10.533c2.427,3.9,4.778,7.861,5.623,12.55a63.24,63.24,0,0,1,.65,6.817,1.792,1.792,0,0,1-.5,1.226,4.023,4.023,0,0,1-1.265.581,5.148,5.148,0,0,1-.377-1.276c-.134-4.635-.78-9.134-2.931-13.25-.135-.26-.294-.5-.409-.7a34.6,34.6,0,0,1-11-.639c-5.161-1.083-9.336-4.209-13.388-7.5a134.658,134.658,0,0,1-16.611-15.453,44.3,44.3,0,0,1-6.894-9.649,2.846,2.846,0,0,1-.182-1.885.837.837,0,0,1,1.548.029c2.85,6.28,7.541,10.957,12.246,15.464,4.885,4.678,10.188,8.877,15.483,13.026a18.855,18.855,0,0,0,10.654,4.188c1.843.1,3.681.349,5.523.487A7.841,7.841,0,0,0,189.631,587.305Z" transform="translate(13.862 11.536)" fill="#171616"/>
      <path id="Path_502" data-name="Path 502" d="M181.984,621.869a19.382,19.382,0,0,0-2.472,1.649c-5.305,4.789-10.509,9.718-16.744,13.137-1.77.971-3.458,2.295-5.337,2.81a29.4,29.4,0,0,1-6.668.588c-1.426.053-2.862-.123-4.293-.214-.881-.057-1.519-.5-1.432-1.524s.784-1.069,1.609-1.047a52.464,52.464,0,0,0,8.64-.025c1.948-.273,3.828-1.442,5.642-2.415a67.194,67.194,0,0,0,13.733-10.3c1.491-1.385,3.078-2.651,4.566-4.04a28,28,0,0,0,3.3-3.411c2.619-3.446,5.159-6.966,7.665-10.508a12.9,12.9,0,0,0,2.074-8.685l.291,1.417.2.014c.127-.475.243-.954.384-1.425.109-.369.153-.889.4-1.056a11.639,11.639,0,0,1,1.849-.877,6.455,6.455,0,0,1,.249,1.733,29.226,29.226,0,0,1-5.1,13.035c-1.551,2.2-3.317,4.231-4.956,6.363-1.067,1.388-2.084,2.821-3.122,4.234l-.5.57Z" transform="translate(14.794 27.575)" fill="#202020"/>
      <path id="Path_503" data-name="Path 503" d="M163.773,587.677a12.35,12.35,0,0,1-2.6.2,14.987,14.987,0,0,1-2.672-.831,3.629,3.629,0,0,0-2.572-2.938,48.756,48.756,0,0,1-13.884-9.1c-3.15-2.906-6.263-5.885-9.145-9.088-2.392-2.657-4.421-5.687-6.606-8.544,1.553-1.457,2.1-1.392,3.121.115a77.382,77.382,0,0,0,11.894,13.434,62.3,62.3,0,0,0,13.818,9.95,36.946,36.946,0,0,0,14.721,4.163,6.752,6.752,0,0,1,2.492.326c.583.282.929,1.127,1.381,1.722-.454.272-.924.8-1.36.768-1.179-.081-2.339-.532-3.517-.588a34.8,34.8,0,0,0-4.131.219A6.958,6.958,0,0,0,163.773,587.677Z" transform="translate(7.658 12.484)" fill="#171616"/>
      <path id="Path_504" data-name="Path 504" d="M125.124,564.03l-.53,1.824-.134.548-.149.507-.155.26h0l-.395.2.3.308q-1.661,5.35-3.325,10.7a16.045,16.045,0,0,0-.969,1.807c-.768,1.973-1.48,3.973-2.342,5.922a10.116,10.116,0,0,1,.347-6.7c2.229-6.248,4.227-12.6,6.18-18.951a32.47,32.47,0,0,0,.739-5.175c1.611-.05,1.907.373,1.877,2.521l-.53,2.831-.427,1.566-.308,1.3Z" transform="translate(4.12 12.087)" fill="#181818"/>
      <path id="Path_505" data-name="Path 505" d="M130.443,619.074l.766.5Z" transform="translate(9.239 36.38)" fill="#232020"/>
      <path id="Path_506" data-name="Path 506" d="M171.778,614.892l.5-.57Z" transform="translate(24.979 34.57)" fill="#fefefe"/>
      <path id="Path_507" data-name="Path 507" d="M129.744,618.56l.225.186Z" transform="translate(8.972 36.184)" fill="#232020"/>
      <path id="Path_508" data-name="Path 508" d="M130.1,618.785l.188.144A.282.282,0,0,1,130.1,618.785Z" transform="translate(9.109 36.27)" fill="#232020"/>
      <path id="Path_509" data-name="Path 509" d="M250.616,658.944c-3.917.465-7.832.965-11.753,1.388q-8.111.876-16.231,1.647c-2.93.273-5.868.427-8.8.616q-11.642.754-23.286,1.491c-5.311.342-10.617.808-15.932,1.007-4.162.156-8.334-.03-12.5-.033-4.881,0-9.762.106-14.641.021-5.478-.094-10.952-.354-16.429-.538-2.971-.1-5.962-.007-8.909-.348s-5.846-1.117-8.768-1.7a7.551,7.551,0,0,1,.849-1.4c2.575-2.7,4.986-5.611,8.156-7.55a74.6,74.6,0,0,1,7.2-4.131c1.719-.8,3.387-1.861,5.392-1.961,1.752-.086,3.486-.718,5.233-.739,4.006-.051,8.014.146,12.021.2,2.907.04,5.819-.08,8.722.033,4.7.184,9.388.6,14.085.728,3.322.091,6.653-.151,9.979-.2,3.18-.047,5.857-1.7,8.526-3.2,2.3-1.3,4.412-2.989,6.591-4.53.667-.472,1.28-1.033,1.923-1.545a26.8,26.8,0,0,1,2.6-2.026,54.618,54.618,0,0,1,5.225-2.894,32.17,32.17,0,0,1,3.834-1.239,8.911,8.911,0,0,0,.978-.454c5.033,1.719,10.073,3.42,15.1,5.163a33.536,33.536,0,0,1,16.026,11.792c1.025,1.355,2.081,2.682,3.123,4.021a3.775,3.775,0,0,0,.055.766C249.521,655.2,250.072,657.071,250.616,658.944Z" transform="translate(2.734 41.143)" fill="#eab1b5"/>
      <path id="Path_510" data-name="Path 510" d="M216.138,632.617a8.911,8.911,0,0,1-.978.454,32.17,32.17,0,0,0-3.834,1.239A54.618,54.618,0,0,0,206.1,637.2a26.8,26.8,0,0,0-2.6,2.026c-.643.512-1.257,1.073-1.923,1.545-2.179,1.541-4.29,3.228-6.591,4.53-2.669,1.509-5.346,3.158-8.526,3.2-3.326.05-6.657.291-9.979.2-4.7-.13-9.388-.544-14.085-.728-2.9-.113-5.816.007-8.722-.033-4.007-.054-8.016-.251-12.021-.2-1.747.021-3.481.653-5.233.739-2,.1-3.673,1.158-5.392,1.961a74.6,74.6,0,0,0-7.2,4.131c-3.17,1.939-5.581,4.855-8.156,7.55a7.551,7.551,0,0,0-.849,1.4L109.55,661.7c.917-1.857,1.743-3.6,2.632-5.311.53-1.018,1.158-1.976,1.747-2.959a10.39,10.39,0,0,1,5.4-4.709c5.421-1.979,10.823-4.017,16.237-6.016,2.311-.853,4.651-1.628,6.952-2.513,2.966-1.139,5.89-2.44,9.349-2.23-.387,1.738-.805,3.458-1.132,5.2-.081.435.039,1.281.229,1.342a1.209,1.209,0,0,0,1.741-.86c.305-1.2.57-2.415.88-3.745.8.49,1.53.954,2.274,1.4,3.916,2.335,8.166,2.832,12.551,2.7,2.614-.08,5.264.267,7.837-.081a27.776,27.776,0,0,0,7.274-2.066c6.142-2.679,12.22-5.534,18.261-8.464a58.839,58.839,0,0,0,5.715-3.6l.476.591a4.584,4.584,0,0,1,.258-.666c.507-.875,1.428-1.157,2.028-.4,1.4,1.758,3.388,2.184,5.221,2.987C215.7,632.386,215.919,632.506,216.138,632.617Z" transform="translate(1.283 40.108)" fill="#fefefe"/>
      <path id="Path_511" data-name="Path 511" d="M213.228,653.159c-.544-1.872-1.1-3.743-1.627-5.62a3.775,3.775,0,0,1-.055-.766c.718,1.986,1.443,3.968,2.132,5.965C213.7,652.808,213.385,653.016,213.228,653.159Z" transform="translate(40.122 46.927)" fill="#f8f5f6"/>
      <path id="Path_512" data-name="Path 512" d="M166.622,582.444a18.585,18.585,0,0,1,.109,3.1,17.636,17.636,0,0,1-.838,2.906c1.029.264,2.01.467,2.956.793.253.086.395.547.587.837a3.314,3.314,0,0,1-1.012.3c-.751-.025-1.5-.159-2.248-.249l-.123.389a3.311,3.311,0,0,1,.447.657.949.949,0,0,1,.037.7c-.1.157-.486.3-.613.214-2.483-1.651-4.845-.326-7.235.3-.157.041-.327.144-.468.11a7.883,7.883,0,0,1-.924-.337c.22-.308.382-.74.672-.895a10.568,10.568,0,0,1,1.867-.572c-3.917-1.537-3.881-4.735-3.466-8.272-2.1,1.165-4.192,1.97-4.735,4.67-.046.226-.443.373-.677.555-.155-.318-.519-.754-.432-.932a14.3,14.3,0,0,1,2.024-3.574c1.807-1.906,4.285-2.415,6.686-2.632,2.891-.261,5.815-.113,8.721-.211,1.033-.036,2.059-.3,3.092-.407a2.9,2.9,0,0,1,.862.171c-.122.322-.159.791-.38.938a12.615,12.615,0,0,1-1.9.838,13.154,13.154,0,0,1,1.544.4,11.714,11.714,0,0,1,1.268.694l-1.153.916-.166,1.2c-.385-.221-.784-.418-1.154-.666-1.055-.706-2.1-1.43-3.147-2.147l-.237-.1Zm-2.229,2.325c.508-.674,1.045-1.077,1.042-1.475a1.346,1.346,0,0,0-.972-.939,1.377,1.377,0,0,0-.978.955C163.441,583.669,163.957,584.112,164.394,584.77Z" transform="translate(16.882 21.463)" fill="#171616"/>
      <path id="Path_513" data-name="Path 513" d="M140.843,588.754a4.911,4.911,0,0,1-.826,4.717l.99.9a4.681,4.681,0,0,1-1.08.9c-1.7.686-3.423,1.309-5.148,1.922a2.918,2.918,0,0,1-1.3.208c-.275-.037-.51-.414-.762-.639.222-.2.414-.5.671-.6a17.793,17.793,0,0,0,2.1-.757c-3.514-.873-4.573-3.261-3.956-6.737-2.046.226-3.977,3.01-4.539,4.732a9.5,9.5,0,0,1-.668,1.33l-.943-1.56a6.99,6.99,0,0,1-1.482.052c-.261-.035-.481-.436-.719-.672.233-.191.445-.49.706-.552.726-.174,1.472-.25,2.209-.365l-.012-.391a9.192,9.192,0,0,1-1.537-.025c-.26-.044-.482-.345-.722-.53.232-.244.5-.728.69-.695,2.287.409,3.826-1.163,5.607-2.233a10.8,10.8,0,0,1,11.354-.3,7.583,7.583,0,0,1,2.037,1.943c.182.222-.037.822-.073,1.248a6.082,6.082,0,0,1-.913-.6c-.49-.458-.935-.972-1.4-1.462Zm-.417.376c-.722-.541-1.13-1.088-1.455-1.036-.482.076-.9.579-1.35.9.377.367.722.965,1.143,1.037C139.15,590.1,139.621,589.6,140.426,589.13Z" transform="translate(6.474 23.784)" fill="#222"/>
      <path id="Path_514" data-name="Path 514" d="M121.407,582.881a5.161,5.161,0,0,1,.74-.983c3.486-2.839,7.616-4.2,11.657-5.737a11.45,11.45,0,0,1,3.438-.515c1.719-.091,2.651.79,3.09,2.854a53.032,53.032,0,0,0-18.585,4.59Z" transform="translate(5.798 19.84)" fill="#222"/>
      <path id="Path_515" data-name="Path 515" d="M146.018,594.222c-.2,1.28-.442,2.989-.753,4.682-.189,1.037-1,1.176-1.785,1.1-1.029-.1-.634-.964-.507-1.5a19.2,19.2,0,0,0,.421-7.948,20.324,20.324,0,0,0-1.243-3.988c-.324-.787-.617-1.459.122-2.057.88-.711,1.56-.054,1.852.693a37.707,37.707,0,0,1,1.6,5.1A27.139,27.139,0,0,1,146.018,594.222Z" transform="translate(13.568 23.099)" fill="#242323"/>
      <path id="Path_516" data-name="Path 516" d="M147.3,613.263c-1.332,0-2.47.066-3.594-.033-.429-.039-.831-.456-1.245-.7a4.128,4.128,0,0,1,1.269-.573c2.976-.2,5.969-.195,8.928-.536,2.768-.319,5.034-2.023,7.252-3.717.164-.126.307-.338.486-.38a13.917,13.917,0,0,1,1.379-.2,3.967,3.967,0,0,1-.634,1.215C157.055,611.907,152.407,613.691,147.3,613.263Z" transform="translate(13.816 31.83)" fill="#372f2d"/>
      <path id="Path_517" data-name="Path 517" d="M139.628,586.249a3.265,3.265,0,0,1-1.181.039,11.509,11.509,0,0,0-6.466-.206,10.731,10.731,0,0,0-5.247,2.824,3.086,3.086,0,0,1-1.092.428c.084-.454.021-1.073.276-1.337a11.068,11.068,0,0,1,7.518-3.474,28.168,28.168,0,0,1,5.268.5c.359.048.672.482,1.007.739Z" transform="translate(7.41 23.217)" fill="#222"/>
      <path id="Path_518" data-name="Path 518" d="M144.376,599.165c.4.489.808.965,1.19,1.468a3.283,3.283,0,0,1,.746,1.171,1.6,1.6,0,0,1-.359,1.226c-.155.157-.746-.032-1.051-.226a11.08,11.08,0,0,1-1.628-1.3,2.677,2.677,0,0,1-.487-3.26,1.368,1.368,0,0,1,1.15-.606c.363.1.609.695.907,1.074Z" transform="translate(13.805 28.21)" fill="#252525"/>
      <path id="Path_519" data-name="Path 519" d="M123.233,560.724l.427-1.566Z" transform="translate(6.493 13.564)" fill="#261f1c"/>
      <path id="Path_520" data-name="Path 520" d="M122.884,561.762l.174-.525Z" transform="translate(6.36 14.356)" fill="#261f1c"/>
      <path id="Path_521" data-name="Path 521" d="M122.4,563.486l.134-.548Z" transform="translate(6.177 15.003)" fill="#261f1c"/>
      <path id="Path_522" data-name="Path 522" d="M122.193,564.4l-.3-.308.395-.2Z" transform="translate(5.984 15.366)" fill="#261f1c"/>
      <path id="Path_523" data-name="Path 523" d="M122.183,563.962l.155-.26Z" transform="translate(6.093 15.294)" fill="#261f1c"/>
      <path id="Path_524" data-name="Path 524" d="M160.817,584.093c-.436-.657-.953-1.1-.907-1.458a1.377,1.377,0,0,1,.978-.955,1.346,1.346,0,0,1,.972.939C161.862,583.016,161.325,583.419,160.817,584.093Z" transform="translate(20.458 22.14)" fill="#e6e4e4"/>
      <path id="Path_525" data-name="Path 525" d="M162.191,581.824l-.04-.294.237.1Z" transform="translate(21.313 22.083)" fill="#fefefe"/>
      <path id="Path_526" data-name="Path 526" d="M136.445,588.553c-.805.467-1.276.967-1.662.9-.421-.072-.766-.67-1.143-1.037.447-.322.869-.824,1.35-.9C135.315,587.465,135.723,588.011,136.445,588.553Z" transform="translate(10.456 24.362)" fill="#e5e3e3"/>
      <ellipse id="Ellipse_2" data-name="Ellipse 2" cx="0.776" cy="0.793" rx="0.776" ry="0.793" transform="translate(199.725 632.928)" fill="#302d2c"/>
      <path id="Path_527" data-name="Path 527" d="M140.3,611.791c0,5.863-.006,11.307-4.714,11.307s-7.059-1.413-11.012-11.422c-2.147-5.438-4.286-12.03.424-12.03S140.3,605.93,140.3,611.791Z" transform="translate(6.091 28.982)" fill="#f7dbe1"/>
      <path id="Path_528" data-name="Path 528" d="M180.189,598.182c-.565,9-5.2,12.462-9.261,12.462s-8.471-6.991-8.471-10.616,5.479-7.143,9.374-8.308C176.461,590.337,180.416,594.566,180.189,598.182Z" transform="translate(21.429 25.861)" fill="#f7dbe1"/>
    </g>
  </g>
</svg>
