<svg xmlns="http://www.w3.org/2000/svg" xmlns:xlink="http://www.w3.org/1999/xlink" width="198" height="198" viewBox="0 0 198 198">
  <defs>
    <clipPath id="clip-member07">
      <rect width="198" height="198"/>
    </clipPath>
  </defs>
  <g id="member07" clip-path="url(#clip-member07)">
    <rect width="198" height="198" fill="#66e2fa"/>
    <g id="Group_7" data-name="Group 7" transform="translate(-78.86 -97.472)">
      <path id="Path_738" data-name="Path 738" d="M155.851,214.177l11.535,1.08,8.491,4.847,23.593-3.4,8.291-7.211,2.77,4.712,13.813,7.907s23.071,6.488,28.478,25.234,5.408,21.989,5.408,21.989l-58.4,5.408-73.54-9.732-14.78-8.652,15.861-25.234Z" transform="translate(1.916 35.432)" fill="#f4dd7b"/>
      <path id="Path_739" data-name="Path 739" d="M107.525,250.683s6.969-18.986,13.7-23.072a142.532,142.532,0,0,1,32.443-14.178c13.94-4.086,16.583,6.008,21.871,6.248s22.591-3.845,22.591-3.845,4.326-5.046,11.775-1.923S242.347,232.9,242.347,232.9s11.775,10.094,13.938,18.506,4.566,16.582,4.566,16.582-36.049,3.846-60.081,3.365-95.409-13.458-93.246-20.668" transform="translate(0.254 36.656)" fill="#fff"/>
      <path id="Path_740" data-name="Path 740" d="M185.779,135.811l.442.412.257.253c1.679,2.952,3.4,5.882,5.024,8.864,1,1.847,1.858,3.775,2.78,5.666l.926.936.7,1.372c-.527.853-.359,1.333.713,1.33l.345.171.171.466.169.717.241.34.086.018-.024.085.206.522.095.709c-.032.042-.1.113-.092.121a2.4,2.4,0,0,0,.2.193l.655,1.3.02.618.281.453-1.46,1.317.81.716-.028.721-.332.552-.044.038-.894.007q-.019-1.07-.037-2.136l-.366-.714-.3-1.314v-.041c-1.272-2.465-2.458-4.978-3.838-7.383-1.535-2.678-3.329-5.21-4.847-7.9-.966-1.708-1.634-3.585-2.436-5.386l-1.065-1.216-.264-.357,0-.045-.361-1.073,1.048.542Zm10.094,19.307-.123.284c.095.04.21.133.278.106s.088-.174.128-.268Z" transform="translate(31.576 5.083)" fill="#0f100f"/>
      <path id="Path_741" data-name="Path 741" d="M193.355,155.575l.894-.007.119,3.081q-.059,1.493-.116,2.986h-.618l-1.187-1.994Q192.9,157.607,193.355,155.575Z" transform="translate(35.254 13.221)" fill="#141515"/>
      <path id="Path_742" data-name="Path 742" d="M193.842,159.031l-.119-3.081.044-.038.582-.213-.25-.339.028-.721.988.3C195.447,156.541,195.71,158.118,193.842,159.031Z" transform="translate(35.78 12.838)" fill="#737373"/>
      <path id="Path_743" data-name="Path 743" d="M195.234,155.534l-.988-.3-.81-.716,1.46-1.317Z" transform="translate(35.661 12.245)" fill="#141515"/>
      <path id="Path_744" data-name="Path 744" d="M193.871,161.323l-2.012-1,.569-.774,1.447.438h0l.521.333Z" transform="translate(35.012 14.863)" fill="#141515"/>
      <path id="Path_745" data-name="Path 745" d="M193.092,149.538c-1.072,0-1.24-.477-.713-1.33Z" transform="translate(35.108 10.189)" fill="#141515"/>
      <path id="Path_746" data-name="Path 746" d="M192.067,147.509l-.926-.936Z" transform="translate(34.717 9.516)" fill="#141515"/>
      <path id="Path_747" data-name="Path 747" d="M194.276,153.058l-.02-.618Z" transform="translate(36 11.932)" fill="#141515"/>
      <path id="Path_748" data-name="Path 748" d="M193.215,149.737l-.171-.466Z" transform="translate(35.5 10.627)" fill="#141515"/>
      <path id="Path_749" data-name="Path 749" d="M193.809,160.2l-.521-.333h.617Z" transform="translate(35.601 14.991)" fill="#101010"/>
      <path id="Path_750" data-name="Path 750" d="M193.706,150.945l-.206-.522Z" transform="translate(35.688 11.102)" fill="#141515"/>
      <path id="Path_751" data-name="Path 751" d="M143.48,224.914l.36.323Z" transform="translate(15.084 41.786)" fill="#504f4e"/>
      <path id="Path_752" data-name="Path 752" d="M193.851,151.61a2.4,2.4,0,0,1-.2-.193c-.007-.008.059-.079.092-.121C193.774,151.4,193.811,151.507,193.851,151.61Z" transform="translate(35.749 11.461)" fill="#141515"/>
      <path id="Path_753" data-name="Path 753" d="M193.526,150.449l-.241-.34Z" transform="translate(35.6 10.972)" fill="#141515"/>
      <path id="Path_754" data-name="Path 754" d="M203.738,246.284l0,.435Z" transform="translate(39.904 50.588)" fill="#555454"/>
      <path id="Path_755" data-name="Path 755" d="M220.133,173.682l-.569.774a8.916,8.916,0,0,0-1.139,2.839c-.056,2.074-1.741,2.428-3.16,3.6v-8.716c-2.293.337-2.783.943-2.7,2.856.08,1.971.16,3.945.16,5.917a28.976,28.976,0,0,1-.3,2.961,5.38,5.38,0,0,1-1.065-.686c-1.663-1.857-3.339-3.7-4.93-5.618-3.3-3.973-6.7-7.881-9.769-12.028a6.136,6.136,0,0,0-5.891-2.567c-.647.037-1.3.006-2.194.006a9.112,9.112,0,0,0,.779-1.91,1.8,1.8,0,0,0-.393-1.314c-.136-.151-.959.008-1.144.264-.808,1.113-1.487,2.318-2.229,3.479-.319.5-.661.984-1.026,1.449-2.181,2.783-4.354,5.573-6.581,8.32a5.106,5.106,0,0,1-1.391.867l-.1-.085c.556-2.755,1.118-5.509,1.663-8.265.212-1.067-.193-1.711-1.329-1.433a7.7,7.7,0,0,0-2.863,1.1c-1.714,1.324-3.24,2.889-4.872,4.323-1.878,1.652-3.788,3.27-5.864,4.8.774-5.7,5.024-9.989,6.344-15.507a2.558,2.558,0,0,0-3.223.7c-2.787,2.749-5.879,5.186-8.789,7.814-1.923,1.738-3.742,3.592-5.61,5.392-.781.753-1.631,1.443-2.341,2.256-3.041,3.485-6.248,6.853-8.987,10.565-1.821,2.468-2.762,5.57-4.448,8.161-1.731,2.66-2.468,5.638-3.476,8.541a19.9,19.9,0,0,0-.532,2.479l-.658-.006q-1.031-3.973-2.068-7.945c-.277-1.055-.642-2.091-.85-3.158-.162-.832-.011-1.737-.233-2.544-.39-1.418-1.048-2.76-1.434-4.178-.795-2.913-1.994-5.845-2.056-8.789a58.921,58.921,0,0,1-.184-7.072c.249-2.527-.071-5.107.112-7.646a10.475,10.475,0,0,1,1.158-3.956c2.628-5.08,6.371-9.382,9.8-13.914a70.557,70.557,0,0,1,10.546-10.725c1.984-1.706,4.549-2.729,6.827-4.1,2.711-1.632,5.371-3.352,8.11-4.935a5.1,5.1,0,0,1,2.661-.788c3.173.2,6.256.686,8.892,2.821,2.417,1.96,5.1,3.595,7.538,5.526,1.055.834,1.731,2.132,2.707,3.088,1.651,1.619,3.387,3.154,5.122,4.685a28.084,28.084,0,0,0,2.385,1.824,1.756,1.756,0,0,0,2.722-.27l-1.2-1.683,2.615-.788c1.525.12,3.053.352,4.576.337,2.845-.027,5.689-.2,8.532-.306.12.357.241.714.361,1.072l-.1.049.1,0,.261.356c-.306.984.073,1.37,1.067,1.217.8,1.8,1.47,3.678,2.436,5.386,1.518,2.688,3.312,5.22,4.847,7.9,1.379,2.4,2.565,4.918,3.838,7.381l-.1.014.106.028c.1.439.2.877.3,1.312.12.237.244.477.368.717q.019,1.067.037,2.136-.455,2.033-.912,4.065Q220.261,172.9,220.133,173.682Z" transform="translate(7.307 0.735)" fill="#3f3e3e"/>
      <path id="Path_756" data-name="Path 756" d="M133.374,197.95c-.693-1.515-1.464-3-2.056-4.555-.583-1.528-.981-3.126-1.543-4.961l2.006.736c.5-1.571,1.547-3.151,1.281-4.463-.364-1.793,1.019-2.327,1.378-3.867.236,2.289.366,4.186.641,6.063.433,2.968,1.771,3.88,4.916,3.6,3.956-.353,7.922-.6,11.874-1a51.478,51.478,0,0,0,5.871-.994,9.875,9.875,0,0,0,2.1-1.065c.63-.315,1.563-.442,1.844-.942a7.882,7.882,0,0,0,.966-3.2,18.07,18.07,0,0,0-.409-3.492l2.835-.637c-.4,2.181-.839,4.241-1.138,6.321a12.921,12.921,0,0,0-.148,3.894,3.844,3.844,0,0,0,1.583,1.96,7.022,7.022,0,0,0,2.3,1.015,6.044,6.044,0,0,0,1.646.018,5.7,5.7,0,0,0-.453-1.831,2.578,2.578,0,0,0-1.461-1.019c-1.867-.414-1.4-1.872-1.24-2.94.383-2.5,1.012-4.971,1.535-7.422a15.392,15.392,0,0,1,2.829.034,2.169,2.169,0,0,1,1.883,2.283c.285,6.071,3.428,7.568,8.416,8.227a41.661,41.661,0,0,0,7.7.33,21.2,21.2,0,0,0,4.68-1.339c1.385-.417,2.777-.809,4.152-1.261,2.107-.692,2.818-2.066,2.721-4.391-.1-2.293.083-4.6.113-6.9a7.459,7.459,0,0,0-.172-1.631c-.412-1.926.332-2.779,2.248-2.979a33.093,33.093,0,0,0,5.7-1.076c1.886-.548,2.791-.025,2.663,1.868-.044.641-.034,1.286-.04,1.929-.013,1.221.6,2.517-1.264,3.26-.515.2-.411,2.177-.438,3.341-.056,2.517,0,5.036-.031,7.554,0,.277-.282.551-.433.825-3.774-.686-5.547,1.965-7.108,4.556a64.3,64.3,0,0,0-4.491,8.885c-1.522,3.733-2.962,7.564-2.258,11.761l.013-.014-.37.561c-.792.768-1.54,1.587-2.385,2.293-1.817,1.519-3.615,3.077-5.552,4.431a47.939,47.939,0,0,1-4.731,2.626c-.124.066-.359.02-.417.107-1.406,2.124-3.435,1.13-5.306,1.144-2.159.017-4.315.315-6.475.381a35.071,35.071,0,0,1-4.7-.154,25.787,25.787,0,0,1-5.35-.9c-2.462-.81-4.952-1.735-6.277-4.332-.171-.335-.991-.346-1.515-.49-.143-.04-.35.045-.449-.031q-3.2-2.45-6.369-4.926c.257-.5.806-1.059.721-1.494a47.442,47.442,0,0,0-1.652-6.738,26.411,26.411,0,0,0-2.54-4.707C139.147,198.787,137.079,196.921,133.374,197.95Zm49.849,6.426c-.745-.513-1.333-1.266-1.923-1.269-4.014-.014-8.027.164-12.042.21a62.526,62.526,0,0,1-8.039-.157,26.343,26.343,0,0,1-5.193-1.713c-.734,1.367-.265,2.756,1.038,3.067a51.862,51.862,0,0,0,9.127,1.389c3.318.182,6.661-.116,9.994-.2a10.141,10.141,0,0,1,2.669-.032C180.485,206.08,181.732,205.467,183.223,204.376Zm-11.147,8.278.326-.466c-.439-.751-.778-2.044-1.337-2.149a13.953,13.953,0,0,0-4.562.076c-.518.079-.918.94-1.372,1.444a4.262,4.262,0,0,0,1.213.566C168.25,212.345,170.164,212.486,172.076,212.654Z" transform="translate(9.439 19.276)" fill="#fefefe"/>
      <path id="Path_757" data-name="Path 757" d="M179.7,156.574l.312-.147,1.372-1.871,0,0,1.319-.6.357.206c1.892,1.2,4.031,1.063,6.133,1.127,1.879,2.924,3.576,5.967,6.181,8.377a30.331,30.331,0,0,1,2.409,3.164c.651.791,1.543,1.4,2.112,2.238,1.23,1.813,2.32,3.719,3.589,5.786-1.882.48-3.277.953-4.71,1.175a8.377,8.377,0,0,1-5.872-1.387c-2.27-1.362-4.769-2.725-7.781-2.372-2.012.236-4.107-.319-6.139-.168a24.817,24.817,0,0,0-8.768,2.208c-1.377.644-1.529,1.446-1.416,2.791a24.192,24.192,0,0,1-.3,4.216c-.085.908-.209,1.811-.281,2.433a11.466,11.466,0,0,1-2.5-.038c-.856-.2-1.9-.268-1.939-1.689-.016-.688-.657-1.358-1.015-2.037l-.83.049a11.019,11.019,0,0,1-.489,2.678,2.738,2.738,0,0,1-1.538,1.134,2.543,2.543,0,0,1-1.216-.035c-.871-2.364-1.584-4.617-2.525-6.77a7.379,7.379,0,0,0-7.535-4.083c-2.5.2-5.017.1-7.527.137-.695.011-1.391.059-2.222.1a5.972,5.972,0,0,1,.789-1.619,3.353,3.353,0,0,1,2.877-1.2c4.092.278,8.222.052,12.335-.042a1.256,1.256,0,0,0,.9-.834c.047-.491-.184-1.413-.435-1.464a31.708,31.708,0,0,0-4.875-.633c-2.218-.1-4.443-.025-7.242-.025l12.9-12.339.257.215-3.554,9.417c2.666,1.787,4.74,1.361,6.692-.28,2.554-2.146,5.093-4.311,7.657-6.445a5.443,5.443,0,0,1,1.24-.489c0,2.489.021,4.815-.006,7.139-.023,1.923.692,2.539,2.332,1.648a11.066,11.066,0,0,0,2.781-2.472c1.994-2.245,3.9-4.566,5.845-6.856Zm-8.22,12.311c-.524,2.39.535,2.416,2.3,2.211,2.188-.254,4.349-.747,6.539-.969,2.406-.244,4.84-.223,7.243-.491.518-.058.954-.858,1.429-1.316-.4-.4-.747-1.059-1.217-1.165-3.681-.84-7.4-.253-11.069.069C174.941,167.378,173.24,168.3,171.48,168.885Z" transform="translate(13.192 12.556)" fill="#fcfcfd"/>
      <path id="Path_758" data-name="Path 758" d="M178.279,211.442l.356-.09.313-.233q2.359-1.9,4.717-3.8c.813-.659,1.612-1.337,2.419-2.006l.61-.637c.83.939.387,1.975.226,2.99-.03.038-.092.089-.082.11a1.372,1.372,0,0,0,.14.223l.031.045c.014.109.027.216.04.323l.337,3.938.241,1.053,1.862,3.711,1.29-1.508,1.94,1.24c-1.584,2.04-3.139,4.072-4.726,6.078-2.283,2.882-4.6,5.735-6.88,8.62a37.472,37.472,0,0,1-2.551,3.331,1.909,1.909,0,0,1-1.841-.155c-1.2-1.982-2.194-4.087-3.274-6.142-.671-1.275-1.382-2.526-2.053-3.8-.465-.887-.689-1.337.788-1.7a75.471,75.471,0,0,0,9.261-3.108,42.38,42.38,0,0,0,5.779-2.92,1.752,1.752,0,0,0,.356-1.632c-.408-.388-1.57-.706-1.769-.48-1.782,2.022-4.36,2.316-6.628,3.27-1.828.771-3.639,1.6-5.506,2.263a19.917,19.917,0,0,1-3.132.6l-.316-.024-3.359.784-.942.138c-1.478.065-2.957.165-4.435.167-.349,0-.976-.3-1-.518-.288-2.245-2.16-2.379-3.735-2.921l-.333-.233-9.4-4.384-.227-1.641-.354-1.806c2.756,1.189,4.741,3.252,7.561,3.425l.755-.316c2,.12,4.008.33,6.012.339,3.136.013,6.27-.14,9.406-.154.709,0,1.426.417,2.128.387s1.865-.2,2.022-.614c.686-1.813,2.311-1.545,3.633-1.965Z" transform="translate(16.302 33.449)" fill="#fcfcfd"/>
      <path id="Path_759" data-name="Path 759" d="M183.557,177.778c-.023,2.2.02,4.411-.117,6.608a2.089,2.089,0,0,1-1.07,1.406,19.657,19.657,0,0,1-11.278,1.926c-1.989-.257-3.967-.638-5.965-.806-1.717-.144-2.373-1.536-2.745-2.667a20.566,20.566,0,0,1-.856-5.8,48.716,48.716,0,0,1,.421-6.532,1.75,1.75,0,0,1,.991-1.182,25.237,25.237,0,0,1,9.954-1.086,41.591,41.591,0,0,0,4.991-.175,2.747,2.747,0,0,1,2.344.789c.878.914,1.868,1.721,2.735,2.646a4.638,4.638,0,0,1,.607,1.329l.014.524a.252.252,0,0,0-.011.3l.008.37-.01.647Zm-1.4-.849.278-.918c-1.043-.634-2.335-1.06-3.077-1.946-1.221-1.461-2.69-1.172-4.188-1.172-.573,0-1.148,0-1.721-.034-2.232-.116-4.463-.3-6.7-.337-.791-.013-1.913-.1-1.883,1.224.028,1.228.558,1.979,1.971,1.713a12.948,12.948,0,0,1,1.711-.095c-.75,3.815.731,6.211,3.987,6.642,1.823.241,3.7-2.177,4.023-5.077Z" transform="translate(22.514 18.943)" fill="#fbfbfb"/>
      <path id="Path_760" data-name="Path 760" d="M136.064,188.67a38.424,38.424,0,0,1-.376-6.447,76.06,76.06,0,0,1,1.682-8.353,4.6,4.6,0,0,1,2.834-3c2.09-.391,4.191-.736,6.294-1.049,1.786-.268,3.576-.542,5.377-.664.921-.064,2.5,1.953,2.6,2.851a31.2,31.2,0,0,0,.891,6.116c.76,2.376.206,4.743.453,7.1.044.419-.817,1.247-1.37,1.361-2.9.6-5.827,1.169-8.771,1.5C142.687,188.416,139.667,188.463,136.064,188.67Zm9.261-4.1c1.014-1.187,2.358-2.19,2.868-3.514.548-1.425.311-3.149.4-4.445l3.239-.569c-.284-1.563-.983-2.2-2.245-2.193a24.445,24.445,0,0,0-9.631,1.978c-.538.234-1.285,1.217-1.156,1.512a1.33,1.33,0,0,0,2.064.614,9.5,9.5,0,0,1,1.57-.561,9.518,9.518,0,0,1,.068,1.673C142.06,182.122,141.485,183.35,145.324,184.57Z" transform="translate(11.851 18.818)" fill="#fafbfb"/>
      <path id="Path_761" data-name="Path 761" d="M144.4,212.74c5.141.359,9.632,3.068,14.256,5.717a5.284,5.284,0,0,0-1.083.079,2.471,2.471,0,0,0-1.272.57,1.62,1.62,0,0,0,0,1.271,3.072,3.072,0,0,0,.642.88c-2.68,3.787-5.344,7.549-8.134,11.49-.755-1.372-1.419-2.7-2.2-3.955-.552-.884-1.378-1.607-1.871-2.516-.45-.833-.549-1.851-.925-2.735-1.07-2.517-1.927-5.05-.956-7.8a10.885,10.885,0,0,1,.764-1.341C143.855,213.964,144.047,213.508,144.4,212.74Z" transform="translate(14.655 36.771)" fill="#fbfcfc"/>
      <path id="Path_762" data-name="Path 762" d="M175.727,208.946c-.7-4.2.736-8.028,2.258-11.761a64.3,64.3,0,0,1,4.491-8.885c1.56-2.591,3.334-5.242,7.108-4.556a8.054,8.054,0,0,1-1.028,3.147,45.793,45.793,0,0,0-1.388,5.732,46.465,46.465,0,0,1-3.15,8.158c-1.329,2.924-3.838,4.431-6.053,6.347C177.237,207.755,176.474,208.34,175.727,208.946Z" transform="translate(28.291 24.781)" fill="#e8d1d6"/>
      <path id="Path_763" data-name="Path 763" d="M132.324,189.956c3.7-1.029,5.773.837,7.85,4.26a26.411,26.411,0,0,1,2.54,4.707,47.442,47.442,0,0,1,1.652,6.738c.085.435-.465.993-.721,1.494-1.288-.741-2.581-1.473-3.86-2.228-3.245-1.916-3.365-5.694-5-8.565A43.3,43.3,0,0,1,132.324,189.956Z" transform="translate(10.489 27.27)" fill="#e9d2d7"/>
      <path id="Path_764" data-name="Path 764" d="M132.433,197.036c-2.227-1.082-3.671-2.3-4.124-4.721a21.053,21.053,0,0,0-2.049-5.217,21.792,21.792,0,0,1-1.8-13.338,8.391,8.391,0,0,1,.976-1.859c.505,2.588,1.08,4.706,1.3,6.861.28,2.759.706,5.408,2.332,7.75a6.216,6.216,0,0,1,.589,1.68C130.556,191.05,131.451,193.91,132.433,197.036Z" transform="translate(7.115 19.948)" fill="#f5f5f5"/>
      <path id="Path_765" data-name="Path 765" d="M190.024,169.708l.174-1.882c.3.051.833.035.871.164a6.667,6.667,0,0,1,.288,1.868,40.977,40.977,0,0,1-.192,6.3,40.518,40.518,0,0,1-1.779,5.744l-.539-.107a23.654,23.654,0,0,1-.294-2.942c.049-2.5.157-5.009.347-7.507a5.079,5.079,0,0,1,.792-1.629Z" transform="translate(33.65 18.27)" fill="#f4f4f4"/>
      <path id="Path_766" data-name="Path 766" d="M176.309,155.349c-2.1-.064-4.241.075-6.133-1.127C172.455,153.321,174.451,153.959,176.309,155.349Z" transform="translate(26.081 12.494)" fill="#454343"/>
      <path id="Path_767" data-name="Path 767" d="M177.15,174.251l-.008-.37.277-.32-.007.007.809-1.247a10.232,10.232,0,0,1,.645,1.005c-1.066.844.359,3.023-1.738,3.273l.013-1.7.5-.393Z" transform="translate(28.944 20.122)" fill="#313131"/>
      <path id="Path_768" data-name="Path 768" d="M189.722,165.748l-.373,2.88-.388-.013v-2.928Z" transform="translate(33.819 17.389)" fill="#3c3b3b"/>
      <path id="Path_769" data-name="Path 769" d="M170.325,154.241l-1.319.6c-.3-1.457.618-1.591,1.831-1.583Z" transform="translate(25.575 12.269)" fill="#3a3939"/>
      <path id="Path_770" data-name="Path 770" d="M169.386,154.381l-1.372,1.871Z" transform="translate(25.19 12.732)" fill="#3a3939"/>
      <path id="Path_771" data-name="Path 771" d="M146.686,210.139l.227,1.641Z" transform="translate(16.405 35.7)" fill="#fbfcfc"/>
      <path id="Path_772" data-name="Path 772" d="M160.24,216.929l.942-.138Z" transform="translate(21.988 38.44)" fill="#fbfcfc"/>
      <path id="Path_773" data-name="Path 773" d="M152.545,211.062l-.755.316Z" transform="translate(18.507 36.08)" fill="#fbfcfc"/>
      <path id="Path_774" data-name="Path 774" d="M175.127,204.676l-.61.637Z" transform="translate(27.869 33.449)" fill="#fbfcfc"/>
      <path id="Path_775" data-name="Path 775" d="M175.68,211.133l-.241-1.053Z" transform="translate(28.249 35.675)" fill="#fbfcfc"/>
      <path id="Path_776" data-name="Path 776" d="M175.42,202.112l.37-.561Z" transform="translate(28.241 32.162)" fill="#e8d1d6"/>
      <path id="Path_777" data-name="Path 777" d="M161.512,159.929l-.206.426c-.04-.037-.12-.093-.113-.107.065-.138.145-.27.22-.4Z" transform="translate(22.38 14.983)" fill="#3f3e3e"/>
      <path id="Path_778" data-name="Path 778" d="M114.32,226.7l.545-.436-.26.834Z" transform="translate(3.073 42.341)" fill="#fff"/>
      <path id="Path_779" data-name="Path 779" d="M175.212,207.385c-.013-.107-.025-.215-.04-.323Z" transform="translate(28.139 34.432)" fill="#fbfcfc"/>
      <path id="Path_780" data-name="Path 780" d="M169.554,209.239l-.313.233Z" transform="translate(25.696 35.329)" fill="#fbfcfc"/>
      <path id="Path_781" data-name="Path 781" d="M169.085,209.468l-.328.243Z" transform="translate(25.496 35.423)" fill="#fbfcfc"/>
      <path id="Path_782" data-name="Path 782" d="M175.191,207.127a1.371,1.371,0,0,1-.14-.223c-.01-.021.052-.072.082-.11Z" transform="translate(28.089 34.322)" fill="#fbfcfc"/>
      <path id="Path_783" data-name="Path 783" d="M167.888,155.81l-.325.337Z" transform="translate(25.004 13.321)" fill="#3a3939"/>
      <path id="Path_784" data-name="Path 784" d="M177.149,173.364l-.014-.524.273.514.007-.007A.764.764,0,0,1,177.149,173.364Z" transform="translate(28.947 20.336)" fill="#313131"/>
      <path id="Path_785" data-name="Path 785" d="M153.507,214.406l.333.233Z" transform="translate(19.215 37.457)" fill="#fbfcfc"/>
      <path id="Path_786" data-name="Path 786" d="M163.286,216.236l.316.024-.161.025Z" transform="translate(23.243 38.211)" fill="#fbfcfc"/>
      <path id="Path_787" data-name="Path 787" d="M165.789,225.945l-.354-.373Z" transform="translate(24.128 42.057)" fill="#fbfbfb"/>
      <path id="Path_788" data-name="Path 788" d="M185.054,138.311c-.994.152-1.374-.233-1.067-1.217Q184.522,137.7,185.054,138.311Z" transform="translate(31.727 5.611)" fill="#131313"/>
      <path id="Path_789" data-name="Path 789" d="M193.171,154.269c-.124-.24-.248-.48-.368-.717C192.927,153.793,193.05,154.031,193.171,154.269Z" transform="translate(35.401 12.391)" fill="#141515"/>
      <path id="Path_790" data-name="Path 790" d="M192.3,149.485l.284.121c-.041.095-.061.241-.128.268s-.184-.066-.278-.106Z" transform="translate(35.145 10.715)" fill="#141515"/>
      <path id="Path_791" data-name="Path 791" d="M194.086,155.15l.25.339-.582.213Z" transform="translate(35.793 13.049)" fill="#141515"/>
      <path id="Path_792" data-name="Path 792" d="M192.62,152.636l-.106-.028.1-.015Z" transform="translate(35.282 11.995)" fill="#141515"/>
      <path id="Path_793" data-name="Path 793" d="M192.262,160.008q.127-.777.257-1.556.6,1,1.19,1.994Z" transform="translate(35.178 14.409)" fill="#101010"/>
      <path id="Path_794" data-name="Path 794" d="M175.666,195.279c-1.491,1.091-2.738,1.7-4.371,1.29a10.141,10.141,0,0,0-2.669.032c-3.332.089-6.676.387-9.994.2a51.862,51.862,0,0,1-9.127-1.389c-1.3-.311-1.772-1.7-1.038-3.067a26.343,26.343,0,0,0,5.193,1.713,62.526,62.526,0,0,0,8.039.157c4.015-.047,8.028-.224,12.042-.21C174.333,194.013,174.921,194.767,175.666,195.279Z" transform="translate(16.996 28.372)" fill="#111211"/>
      <path id="Path_795" data-name="Path 795" d="M161.761,201.1c-1.912-.168-3.826-.309-5.732-.528a4.262,4.262,0,0,1-1.213-.566c.455-.5.854-1.365,1.372-1.444a13.953,13.953,0,0,1,4.562-.076c.559.1.9,1.4,1.337,2.149Z" transform="translate(19.754 30.833)" fill="#1e1e1e"/>
      <path id="Path_796" data-name="Path 796" d="M162.01,165.16c1.759-.585,3.461-1.507,5.228-1.66,3.674-.322,7.389-.909,11.069-.069.47.106.815.762,1.217,1.165-.474.457-.911,1.258-1.429,1.316-2.4.268-4.837.247-7.243.491-2.19.222-4.35.714-6.539.969C162.545,167.575,161.486,167.55,162.01,165.16Z" transform="translate(22.662 16.281)" fill="#101010"/>
      <path id="Path_797" data-name="Path 797" d="M181.182,176.037h-5.6c-.325,2.9-2.2,5.319-4.023,5.077-3.256-.431-4.737-2.827-3.987-6.642a12.948,12.948,0,0,0-1.711.095c-1.413.267-1.943-.484-1.971-1.713-.03-1.323,1.093-1.237,1.883-1.224,2.234.038,4.464.222,6.7.337.573.03,1.148.034,1.721.034,1.5,0,2.966-.289,4.188,1.172.741.885,2.033,1.312,3.077,1.946Z" transform="translate(23.493 19.835)" fill="#0e0f0e"/>
      <path id="Path_798" data-name="Path 798" d="M177.146,173.688l.494.254-.5.393Z" transform="translate(28.948 20.685)" fill="#101010"/>
      <path id="Path_799" data-name="Path 799" d="M177.162,173.216a.764.764,0,0,0,.265-.017l-.277.32A.252.252,0,0,1,177.162,173.216Z" transform="translate(28.935 20.483)" fill="#101010"/>
      <path id="Path_800" data-name="Path 800" d="M144.4,183.2c-3.839-1.22-3.264-2.448-2.827-5.5a9.518,9.518,0,0,0-.068-1.673,9.5,9.5,0,0,0-1.57.561,1.33,1.33,0,0,1-2.064-.614c-.128-.3.618-1.278,1.156-1.512a24.445,24.445,0,0,1,9.631-1.978c1.262-.008,1.961.63,2.245,2.193l-3.239.569c-.086,1.3.151,3.02-.4,4.445C146.763,181.011,145.419,182.013,144.4,183.2Z" transform="translate(12.77 20.187)" fill="#0f1010"/>
      <path id="Path_801" data-name="Path 801" d="M107.426,251.441s6.081-19.4,20.367-28.3c10.995-6.849,29.921-10.454,29.921-10.454L177.9,219.9l20.909-4.145,9.734-3.966,41.1,27.037,6.668,16.4,3.606,11.716S108.146,265.86,107.426,251.441Z" transform="translate(0.233 36.378)" fill="#f4dd7b"/>
      <path id="Path_802" data-name="Path 802" d="M228.883,176.186c-.531,1.45-1.381,2.872-1.519,4.359-.217,2.366.217,4.791.052,7.167-.224,3.254.911,6.608-.551,9.755-.915,1.972-2.03,3.852-3.02,5.7l-2.955-.131c-.15,1.714-.288,3.439-.452,5.162-.213,2.248-.328,4.515-.733,6.728-.148.81-1.2,1.418-1.508,2.241-1.019,2.708-1.628,5.6-2.892,8.178a29.937,29.937,0,0,1-4.4,6.188c-1.031,1.192-2.577,1.923-3.783,2.985a3.177,3.177,0,0,0-1.206,1.929c.023,3.458.24,6.913.388,10.363a6.981,6.981,0,0,1,1.843.143c.665.27,1.132.518,1.33-.487a1.27,1.27,0,0,1,1.093-.2,1.736,1.736,0,0,1,.7,1.194,2.268,2.268,0,0,0,1.173,2.169c4.095,2.4,8.141,4.88,12.247,7.257,2.868,1.66,5.8,3.208,8.709,4.8,2.036,1.11,4.182,2.052,6.094,3.343s3.942,2.475,4.954,4.911a9.266,9.266,0,0,0,3.28,3.37,16.815,16.815,0,0,1,4.529,5.587,75.512,75.512,0,0,1,5.224,12.171c.4,1.072.592,2.217.906,3.321.465,1.631.9,3.274,1.45,4.874.462,1.343-.085,2.22-1.361,3.132a10.869,10.869,0,0,1-.712-1.505c-.843-2.811-1.559-5.665-2.491-8.445-1.043-3.112-2.205-6.186-3.43-9.231-1.847-4.593-2.376-5.2-6.32-8.737,0,1.247-.041,2.427.007,3.6.155,3.72.378,7.439.507,11.161.086,2.516.031,5.036.1,7.554.017.589.513,1.213.409,1.748-.37,1.922-1.248,2.122-2.9.771l-.056-1.488.041-.518,0-.435.123-2.959q-.025-1.654-.048-3.307c-.076-1.193-.155-2.385-.227-3.578-.212-3.516-.318-7.041-.671-10.543a24.524,24.524,0,0,0-1.285-5.635,5.378,5.378,0,0,0-2.054-2.731c-4.568-2.671-9.264-5.125-13.879-7.716-4.234-2.378-8.433-4.82-12.631-7.263a24.637,24.637,0,0,1-2.071-1.492,15.005,15.005,0,0,1-1.279,2.222c-2.661,3.245-5.406,6.421-8.063,9.669-1.474,1.8-3.362,3.343-3.884,5.79l-1.036,1.4a3.887,3.887,0,0,0-.364.535c-.456,1-.823,2.215-2.231,1.977a3.32,3.32,0,0,1-2.652-2.541,6.714,6.714,0,0,0-.819-1.384L189.917,268l-.354-.373.011.007a41.468,41.468,0,0,0-1.617-4.378,60.594,60.594,0,0,0-3.192-5.484c-.154-.241-.827-.227-1.252-.2-.344.023-.678.364-1.011.359-1.782-.031-3.565-.233-5.338-.157a4.162,4.162,0,0,0-2.587.89,44.843,44.843,0,0,0-3.16,4.023c-.736.919-1.55,1.776-2.328,2.661l-1.036,1.686a26.857,26.857,0,0,1-1.8,3.5,4.155,4.155,0,0,1-2.2,1.744c-.63.126-1.629-.587-2.159-1.194-1.1-1.262-2-2.7-2.973-4.066l-.36-.323,0,0-.333-1.444c-2.277-4.256-4.085-8.618-3.067-13.873a10.5,10.5,0,0,0-2.311.028c-1.4.339-2.748.867-4.128,1.278-4.278,1.278-8.573,2.5-12.833,3.833a10.293,10.293,0,0,0-2.217,1.386l-2.992.65c-1.395.673-2.827,1.282-4.179,2.035-2.258,1.255-4.5,2.611-5.816,4.93a6.07,6.07,0,0,0-.651,2.841c-.014,1.617.264,3.233.32,4.853.075,2.135.076,4.274.066,6.41-.007,1.2-.055,2.4-.165,3.6-.1,1.072-.312,2.132-.493,3.314l-1.9-.48c0-2.7.024-5.333-.007-7.969-.035-2.885-.121-5.769-.186-8.652l.26-.834-.545.436c-2.75,3.8-4.184,8.212-5.821,12.519-.751,1.974-1.077,4.114-1.888,6.057-.323.775-1.432,1.224-2.183,1.821l-.641-.4c.635-2.361,1.13-4.771,1.94-7.071,1.168-3.307,2.544-6.543,3.874-9.792,1.2-2.941,3.246-5.272,5.286-7.675,1.138-1.338,2.049-2.784,3.634-3.668,1.713-.953,3.341-2.067,5.084-2.955a94.332,94.332,0,0,1,16.272-6.08c2.495-.737,4.9-1.763,7.408-2.465a13.312,13.312,0,0,1,4.167-.441c2.177.1,3.428-1.78,5.329-2.249a1.686,1.686,0,0,0,.63-1.516c-.491-1.211-.151-2.495-1.689-3.667-2.506-1.91-4.919-3.976-7.544-5.766-1.718-1.173-3.439-2.356-5.039-3.681a5.644,5.644,0,0,1-1.272-2.139q-1.639-3.791-3.171-7.629a6.278,6.278,0,0,0-1.087-2.232,14.2,14.2,0,0,1-2.091-.77c-1.286-.709-2.942-1.242-3.67-2.355a32.92,32.92,0,0,1-2.883-6.469q-1.724-4.577-3.2-9.245a8.475,8.475,0,0,1-.15-2.892c.134-2.646-.467-5.643,1.83-7.566,1.453-1.216,1.227-2.043.609-3.438a19.814,19.814,0,0,1-1.566-9.964c.369-4.388-.126-8.847-.2-13.276a8,8,0,0,1,2.116-5.2c1.444-1.835,2.311-4.114,3.646-6.05,1.485-2.155,3.209-4.145,4.837-6.2a69.023,69.023,0,0,1,4.9-6.07c2.635-2.643,5.591-4.963,8.311-7.527,2.5-2.362,5.713-3.3,8.7-4.721a26.866,26.866,0,0,0,4.679-2.951c2.765-2.105,5.591-2.222,8.9-1.286,3.04.861,5.528,2.608,8.234,4a17.755,17.755,0,0,1,2.91,2.386q3.31,2.749,6.628,5.491l.648.309.025,0c.23.587.308,1.337.723,1.73a27.4,27.4,0,0,0,2.759,2.087l1.92-.49,2.717-.507.287.175.377.072-.69,1.912-2.615.788,1.2,1.683a1.756,1.756,0,0,1-2.722.27,28.081,28.081,0,0,1-2.385-1.824c-1.735-1.531-3.472-3.065-5.122-4.685-.976-.956-1.652-2.253-2.707-3.088-2.441-1.932-5.121-3.566-7.538-5.526-2.636-2.135-5.72-2.622-8.892-2.821a5.1,5.1,0,0,0-2.661.788c-2.739,1.583-5.4,3.3-8.11,4.935-2.277,1.371-4.843,2.395-6.827,4.1a70.557,70.557,0,0,0-10.546,10.725c-3.432,4.532-7.175,8.834-9.8,13.914a10.475,10.475,0,0,0-1.158,3.956c-.182,2.539.137,5.118-.112,7.646a58.921,58.921,0,0,0,.184,7.072c.062,2.944,1.261,5.876,2.056,8.789.387,1.418,1.045,2.76,1.434,4.178.222.808.071,1.713.233,2.544.208,1.067.573,2.1.85,3.158q1.044,3.969,2.068,7.945l.658.006a19.889,19.889,0,0,1,.532-2.479c1.008-2.9,1.745-5.881,3.476-8.541,1.686-2.591,2.626-5.693,4.448-8.161,2.739-3.712,5.946-7.081,8.987-10.565.71-.813,1.56-1.5,2.341-2.256,1.868-1.8,3.686-3.654,5.61-5.392,2.91-2.628,6-5.065,8.789-7.814a2.558,2.558,0,0,1,3.223-.7c-1.32,5.518-5.57,9.806-6.344,15.507,2.076-1.526,3.986-3.144,5.864-4.8,1.632-1.435,3.158-3,4.873-4.323a7.7,7.7,0,0,1,2.863-1.1c1.135-.278,1.54.366,1.329,1.433-.545,2.756-1.107,5.511-1.663,8.267-.075.133-.155.264-.22.4-.007.014.073.071.113.107l.206-.426a5.105,5.105,0,0,0,1.391-.867c2.227-2.748,4.4-5.538,6.581-8.32.366-.465.707-.952,1.026-1.449.743-1.161,1.422-2.366,2.229-3.479.185-.256,1.008-.415,1.144-.264a1.8,1.8,0,0,1,.393,1.314,9.112,9.112,0,0,1-.779,1.91c.9,0,1.547.031,2.194-.006a6.136,6.136,0,0,1,5.891,2.567c3.071,4.147,6.467,8.055,9.769,12.028,1.591,1.916,3.267,3.761,4.93,5.618a5.38,5.38,0,0,0,1.065.686,28.976,28.976,0,0,0,.3-2.961c0-1.972-.079-3.946-.16-5.917-.079-1.913.411-2.519,2.7-2.856v8.716c1.419-1.175,3.1-1.529,3.16-3.6a8.916,8.916,0,0,1,1.139-2.839Zm-25.6,65.263-.058-.333c.161-1.015.6-2.052-.226-2.99l-.61.637c-.806.669-1.605,1.347-2.419,2.006q-2.353,1.908-4.717,3.8l-.313.233-.356.09-.328.243c-1.322.421-2.947.152-3.633,1.965-.157.414-1.314.585-2.022.614s-1.419-.39-2.128-.387c-3.136.014-6.27.167-9.406.154-2-.008-4.007-.219-6.012-.339l-.755.316c-2.82-.174-4.8-2.236-7.561-3.425l.354,1.806.227,1.641,9.4,4.384.333.233c1.574.542,3.447.676,3.735,2.921.028.22.655.518,1,.518,1.478,0,2.957-.1,4.435-.167l.942-.138,3.359-.784.155.049.161-.025a19.917,19.917,0,0,0,3.132-.6c1.868-.664,3.678-1.492,5.506-2.263,2.268-.954,4.846-1.248,6.628-3.27.2-.226,1.361.092,1.769.48a1.752,1.752,0,0,1-.356,1.632,42.38,42.38,0,0,1-5.779,2.92,75.469,75.469,0,0,1-9.261,3.108c-1.477.364-1.252.815-.788,1.7.671,1.274,1.382,2.525,2.053,3.8,1.08,2.054,2.076,4.159,3.274,6.142a1.909,1.909,0,0,0,1.841.155,37.472,37.472,0,0,0,2.551-3.331c2.277-2.885,4.6-5.738,6.88-8.62,1.587-2.006,3.142-4.038,4.726-6.078l-1.94-1.24-1.29,1.508-1.862-3.711-.241-1.053-.337-3.938-.04-.323Zm-8.7-74.336-1.372,1.871-.312.147-.325.337c-1.943,2.29-3.852,4.611-5.845,6.856a11.066,11.066,0,0,1-2.781,2.472c-1.641.891-2.355.275-2.332-1.648.027-2.324.006-4.649.006-7.139a5.443,5.443,0,0,0-1.24.489c-2.564,2.135-5.1,4.3-7.657,6.445-1.953,1.641-4.027,2.067-6.692.28l3.554-9.417-.257-.215-12.9,12.339c2.8,0,5.024-.073,7.242.025a31.708,31.708,0,0,1,4.875.633c.251.051.481.973.435,1.464a1.256,1.256,0,0,1-.9.834c-4.113.095-8.243.321-12.335.042a3.354,3.354,0,0,0-2.877,1.2,5.973,5.973,0,0,0-.789,1.619c.832-.037,1.528-.085,2.222-.1,2.51-.041,5.031.066,7.527-.137a7.379,7.379,0,0,1,7.535,4.083c.94,2.153,1.653,4.407,2.524,6.77a2.543,2.543,0,0,0,1.216.035,2.738,2.738,0,0,0,1.538-1.134,11.018,11.018,0,0,0,.489-2.678l.83-.049c.359.679,1,1.35,1.015,2.037.034,1.42,1.083,1.488,1.939,1.689a11.465,11.465,0,0,0,2.5.038c.072-.621.2-1.525.281-2.433a24.189,24.189,0,0,0,.3-4.216c-.113-1.346.04-2.148,1.416-2.791a24.817,24.817,0,0,1,8.768-2.208c2.032-.151,4.127.4,6.139.168,3.012-.353,5.511,1.01,7.781,2.372a8.377,8.377,0,0,0,5.872,1.387c1.433-.222,2.828-.695,4.71-1.175-1.269-2.067-2.359-3.973-3.589-5.786-.569-.837-1.461-1.447-2.112-2.238a30.33,30.33,0,0,0-2.409-3.164c-2.6-2.41-4.3-5.453-6.181-8.377-1.858-1.389-3.855-2.027-6.133-1.127l-.357-.206.513-.984c-1.213-.008-2.133.126-1.831,1.583Zm11.778,26.576-.273-.514a4.637,4.637,0,0,0-.607-1.329c-.867-.925-1.857-1.732-2.735-2.646a2.747,2.747,0,0,0-2.344-.789,41.591,41.591,0,0,1-4.991.175,25.237,25.237,0,0,0-9.954,1.086,1.75,1.75,0,0,0-.991,1.182,48.716,48.716,0,0,0-.421,6.532,20.566,20.566,0,0,0,.856,5.8c.371,1.131,1.028,2.523,2.745,2.667,2,.168,3.976.549,5.965.806a19.657,19.657,0,0,0,11.278-1.926,2.089,2.089,0,0,0,1.07-1.406c.137-2.2.095-4.4.117-6.608,2.1-.25.672-2.428,1.738-3.273a10.232,10.232,0,0,0-.645-1.005Zm-2.324,40.024-.013.014c.747-.606,1.511-1.19,2.238-1.819,2.215-1.916,4.724-3.422,6.053-6.347a46.465,46.465,0,0,0,3.15-8.158,45.793,45.793,0,0,1,1.388-5.732,8.054,8.054,0,0,0,1.028-3.147c.151-.274.431-.548.433-.825.032-2.517-.025-5.036.031-7.554.027-1.163-.078-3.136.438-3.341,1.859-.743,1.251-2.039,1.264-3.26.006-.642,0-1.288.04-1.929.128-1.893-.777-2.416-2.663-1.868a33.1,33.1,0,0,1-5.7,1.076c-1.916.2-2.66,1.053-2.248,2.979a7.459,7.459,0,0,1,.172,1.631c-.03,2.3-.21,4.606-.113,6.9.1,2.325-.614,3.7-2.721,4.391-1.375.452-2.767.844-4.152,1.261a21.2,21.2,0,0,1-4.68,1.339,41.661,41.661,0,0,1-7.7-.33c-4.988-.659-8.131-2.156-8.416-8.227a2.169,2.169,0,0,0-1.883-2.283,15.392,15.392,0,0,0-2.829-.034c-.522,2.451-1.152,4.918-1.535,7.422-.164,1.067-.627,2.526,1.24,2.94a2.578,2.578,0,0,1,1.461,1.019,5.7,5.7,0,0,1,.453,1.831,6.044,6.044,0,0,1-1.646-.018,7.022,7.022,0,0,1-2.3-1.015,3.844,3.844,0,0,1-1.583-1.96,12.921,12.921,0,0,1,.148-3.894c.3-2.08.738-4.14,1.138-6.321l-2.835.637a18.07,18.07,0,0,1,.409,3.492,7.882,7.882,0,0,1-.966,3.2c-.281.5-1.214.627-1.844.942a9.875,9.875,0,0,1-2.1,1.065,51.478,51.478,0,0,1-5.871.994c-3.952.4-7.918.647-11.874,1-3.146.281-4.483-.631-4.916-3.6-.275-1.876-.405-3.774-.641-6.063-.359,1.54-1.742,2.074-1.378,3.867.267,1.312-.782,2.892-1.281,4.463l-2.006-.736c.562,1.835.96,3.434,1.543,4.961.592,1.555,1.363,3.04,2.056,4.555a43.3,43.3,0,0,0,2.464,6.406c1.632,2.87,1.752,6.649,5,8.565,1.279.755,2.572,1.487,3.86,2.228q3.181,2.467,6.369,4.926c.1.076.306-.009.449.031.524.144,1.344.155,1.515.49,1.326,2.6,3.815,3.521,6.277,4.332a25.787,25.787,0,0,0,5.35.9,35.071,35.071,0,0,0,4.7.154c2.16-.066,4.316-.364,6.475-.381,1.871-.014,3.9.98,5.306-1.144.058-.088.292-.041.417-.107A47.939,47.939,0,0,0,195.724,241c1.937-1.354,3.735-2.911,5.552-4.431.844-.706,1.593-1.525,2.385-2.293Zm-56.117-26.225c3.6-.208,6.623-.254,9.612-.59,2.944-.329,5.868-.894,8.771-1.5.552-.114,1.413-.942,1.37-1.361-.247-2.355.306-4.721-.453-7.1a31.2,31.2,0,0,1-.891-6.116c-.1-.9-1.677-2.914-2.6-2.851-1.8.121-3.59.4-5.377.664-2.1.313-4.2.658-6.294,1.049a4.6,4.6,0,0,0-2.834,3,76.059,76.059,0,0,0-1.682,8.353A38.424,38.424,0,0,0,147.914,207.488Zm11.146,42.023c-.357.768-.549,1.224-.778,1.659a10.887,10.887,0,0,0-.764,1.341c-.971,2.75-.114,5.283.956,7.8.376.884.474,1.9.925,2.735.493.909,1.319,1.632,1.871,2.516.782,1.254,1.446,2.582,2.2,3.955,2.79-3.941,5.454-7.7,8.134-11.49a3.072,3.072,0,0,1-.642-.88,1.62,1.62,0,0,1,0-1.271,2.471,2.471,0,0,1,1.272-.57,5.284,5.284,0,0,1,1.083-.079C168.692,252.579,164.2,249.87,159.06,249.511Zm-19.513-32.526c-.981-3.126-1.876-5.987-2.779-8.846a6.216,6.216,0,0,0-.589-1.68c-1.627-2.342-2.053-4.991-2.332-7.75-.219-2.155-.794-4.272-1.3-6.861a8.391,8.391,0,0,0-.976,1.859,21.792,21.792,0,0,0,1.8,13.338,21.053,21.053,0,0,1,2.049,5.217C135.876,214.68,137.321,215.9,139.547,216.985Zm84.126-29.006-.332,0a5.079,5.079,0,0,0-.792,1.629c-.191,2.5-.3,5-.347,7.507a23.654,23.654,0,0,0,.294,2.942l.539.107a40.517,40.517,0,0,0,1.779-5.744,40.977,40.977,0,0,0,.192-6.3,6.667,6.667,0,0,0-.288-1.868c-.038-.128-.568-.113-.871-.164Zm-.133-4.841-.761-.061V186l.388.013Z" fill="#101010"/>
    </g>
  </g>
</svg>
